<?xml version="1.0" encoding="UTF-8" standalone="no"?>
<!DOCTYPE svg PUBLIC "-//W3C//DTD SVG 1.1//EN"
 "http://www.w3.org/Graphics/SVG/1.1/DTD/svg11.dtd">
<!-- Generated by graphviz version 2.40.1 (20161225.0304)
 -->
<!-- Title: twoDegreesRelationshipsDiagram Pages: 1 -->
<svg width="472pt" height="1213pt"
 viewBox="0.00 0.00 472.00 1212.70" xmlns="http://www.w3.org/2000/svg" xmlns:xlink="http://www.w3.org/1999/xlink">
<g id="graph0" class="graph" transform="scale(1 1) rotate(0) translate(4 1208.7)">
<title>twoDegreesRelationshipsDiagram</title>
<polygon fill="#ffffff" stroke="transparent" points="-4,4 -4,-1208.7 468,-1208.7 468,4 -4,4"/>
<text text-anchor="middle" x="72.4936" y="-7.3" font-family="Helvetica,sans-Serif" font-size="11.00" fill="#000000">Generated by SchemaSpy</text>
<!-- activity_tracking -->
<g id="node1" class="node">
<title>activity_tracking</title>
<g id="a_node1"><a xlink:href="../../tables/activity_tracking.html" xlink:title="activity_tracking" target="_top">
<polygon fill="#ffffff" stroke="transparent" points="225,-1022.7 225,-1200.7 453,-1200.7 453,-1022.7 225,-1022.7"/>
<polygon fill="#f5f5f5" stroke="transparent" points="227,-1175.7 227,-1198.7 451,-1198.7 451,-1175.7 227,-1175.7"/>
<polygon fill="none" stroke="#000000" points="227,-1175.7 227,-1198.7 451,-1198.7 451,-1175.7 227,-1175.7"/>
<text text-anchor="start" x="232" y="-1184.3" font-family="Helvetica,sans-Serif" font-weight="bold" font-size="11.00" fill="#000000">activity_tracking</text>
<text text-anchor="start" x="416.0437" y="-1183.8" font-family="Helvetica,sans-Serif" font-size="11.00" fill="#000000">[table]</text>
<polygon fill="none" stroke="#000000" points="227,-1153.7 227,-1175.7 342,-1175.7 342,-1153.7 227,-1153.7"/>
<image xlink:href="../../images/primaryKeys.png" width="11px" height="12px" preserveAspectRatio="xMinYMin meet" x="232" y="-1170.7"/>
<text text-anchor="start" x="247" y="-1160.8" font-family="Helvetica,sans-Serif" font-size="11.00" fill="#000000">id</text>
<polygon fill="none" stroke="#000000" points="342,-1153.7 342,-1175.7 451,-1175.7 451,-1153.7 342,-1153.7"/>
<text text-anchor="start" x="344.5344" y="-1161.4" font-family="Helvetica,sans-Serif" font-size="11.00" fill="#000000">varchar[2147483647]</text>
<polygon fill="none" stroke="#000000" points="227,-1131.7 227,-1153.7 342,-1153.7 342,-1131.7 227,-1131.7"/>
<text text-anchor="start" x="247" y="-1138.8" font-family="Helvetica,sans-Serif" font-size="11.00" fill="#000000">e_type</text>
<polygon fill="none" stroke="#000000" points="342,-1131.7 342,-1153.7 451,-1153.7 451,-1131.7 342,-1131.7"/>
<text text-anchor="start" x="344.5344" y="-1139.4" font-family="Helvetica,sans-Serif" font-size="11.00" fill="#000000">varchar[2147483647]</text>
<polygon fill="none" stroke="#000000" points="227,-1109.7 227,-1131.7 342,-1131.7 342,-1109.7 227,-1109.7"/>
<text text-anchor="start" x="247" y="-1116.8" font-family="Helvetica,sans-Serif" font-size="11.00" fill="#000000">data</text>
<polygon fill="none" stroke="#000000" points="342,-1109.7 342,-1131.7 451,-1131.7 451,-1109.7 342,-1109.7"/>
<text text-anchor="start" x="345" y="-1117.4" font-family="Helvetica,sans-Serif" font-size="11.00" fill="#000000">jsonb[2147483647]</text>
<polygon fill="none" stroke="#000000" points="227,-1087.7 227,-1109.7 342,-1109.7 342,-1087.7 227,-1087.7"/>
<image xlink:href="../../images/foreignKeys.png" width="11px" height="12px" preserveAspectRatio="xMinYMin meet" x="232" y="-1104.7"/>
<text text-anchor="start" x="247" y="-1094.8" font-family="Helvetica,sans-Serif" font-size="11.00" fill="#000000">package_id</text>
<polygon fill="none" stroke="#000000" points="342,-1087.7 342,-1109.7 451,-1109.7 451,-1087.7 342,-1087.7"/>
<text text-anchor="start" x="344.5344" y="-1095.4" font-family="Helvetica,sans-Serif" font-size="11.00" fill="#000000">varchar[2147483647]</text>
<polygon fill="none" stroke="#000000" points="227,-1065.7 227,-1087.7 342,-1087.7 342,-1065.7 227,-1065.7"/>
<text text-anchor="start" x="247" y="-1072.8" font-family="Helvetica,sans-Serif" font-size="11.00" fill="#000000">date</text>
<polygon fill="none" stroke="#000000" points="342,-1065.7 342,-1087.7 451,-1087.7 451,-1065.7 342,-1065.7"/>
<text text-anchor="start" x="345" y="-1073.4" font-family="Helvetica,sans-Serif" font-size="11.00" fill="#000000">timestamp[29,6]</text>
<polygon fill="none" stroke="#000000" points="227,-1043.7 227,-1065.7 342,-1065.7 342,-1043.7 227,-1043.7"/>
<text text-anchor="start" x="247" y="-1050.8" font-family="Helvetica,sans-Serif" font-size="11.00" fill="#000000">user_id</text>
<polygon fill="none" stroke="#000000" points="342,-1043.7 342,-1065.7 451,-1065.7 451,-1043.7 342,-1043.7"/>
<text text-anchor="start" x="344.5344" y="-1051.4" font-family="Helvetica,sans-Serif" font-size="11.00" fill="#000000">varchar[2147483647]</text>
<polygon fill="#ffffff" stroke="transparent" points="227,-1024.7 227,-1043.7 289,-1043.7 289,-1024.7 227,-1024.7"/>
<polygon fill="none" stroke="#000000" points="227,-1024.7 227,-1043.7 289,-1043.7 289,-1024.7 227,-1024.7"/>
<text text-anchor="start" x="230" y="-1030.8" font-family="Helvetica,sans-Serif" font-size="11.00" fill="#000000">&lt; 1</text>
<polygon fill="#ffffff" stroke="transparent" points="289,-1024.7 289,-1043.7 342,-1043.7 342,-1024.7 289,-1024.7"/>
<polygon fill="none" stroke="#000000" points="289,-1024.7 289,-1043.7 342,-1043.7 342,-1024.7 289,-1024.7"/>
<text text-anchor="start" x="332.8862" y="-1030.8" font-family="Helvetica,sans-Serif" font-size="11.00" fill="#000000"> &#160;</text>
<polygon fill="#ffffff" stroke="transparent" points="342,-1024.7 342,-1043.7 451,-1043.7 451,-1024.7 342,-1024.7"/>
<polygon fill="none" stroke="#000000" points="342,-1024.7 342,-1043.7 451,-1043.7 451,-1024.7 342,-1024.7"/>
<text text-anchor="start" x="432.4053" y="-1030.8" font-family="Helvetica,sans-Serif" font-size="11.00" fill="#000000">0 &gt;</text>
<polygon fill="none" stroke="#000000" stroke-width="2" points="226,-1023.7 226,-1199.7 452,-1199.7 452,-1023.7 226,-1023.7"/>
</a>
</g>
</g>
<!-- package_group -->
<g id="node2" class="node">
<title>package_group</title>
<g id="a_node2"><a xlink:href="../../tables/package_group.html" xlink:title="package_group" target="_top">
<polygon fill="#ffffff" stroke="transparent" points="8,-446.2 8,-551.2 173,-551.2 173,-446.2 8,-446.2"/>
<polygon fill="#f5f5f5" stroke="transparent" points="8.5,-527.7 8.5,-550.7 173.5,-550.7 173.5,-527.7 8.5,-527.7"/>
<polygon fill="none" stroke="#000000" points="8.5,-527.7 8.5,-550.7 173.5,-550.7 173.5,-527.7 8.5,-527.7"/>
<text text-anchor="start" x="13.5" y="-536.3" font-family="Helvetica,sans-Serif" font-weight="bold" font-size="11.00" fill="#000000">package_group</text>
<text text-anchor="start" x="138.5437" y="-535.8" font-family="Helvetica,sans-Serif" font-size="11.00" fill="#000000">[table]</text>
<polygon fill="none" stroke="#000000" points="8.5,-505.7 8.5,-527.7 173.5,-527.7 173.5,-505.7 8.5,-505.7"/>
<image xlink:href="../../images/primaryKeys.png" width="11px" height="12px" preserveAspectRatio="xMinYMin meet" x="13.5" y="-522.7"/>
<text text-anchor="start" x="28.5" y="-512.8" font-family="Helvetica,sans-Serif" font-size="11.00" fill="#000000">id</text>
<polygon fill="none" stroke="#000000" points="8.5,-483.7 8.5,-505.7 173.5,-505.7 173.5,-483.7 8.5,-483.7"/>
<image xlink:href="../../images/foreignKeys.png" width="11px" height="12px" preserveAspectRatio="xMinYMin meet" x="13.5" y="-500.7"/>
<text text-anchor="start" x="28.5" y="-490.8" font-family="Helvetica,sans-Serif" font-size="11.00" fill="#000000">parent_id</text>
<polygon fill="none" stroke="#000000" points="8.5,-464.7 8.5,-483.7 173.5,-483.7 173.5,-464.7 8.5,-464.7"/>
<text text-anchor="start" x="11.5" y="-470.8" font-family="Helvetica,sans-Serif" font-size="11.00" fill="#000000">...</text>
<polygon fill="#ffffff" stroke="transparent" points="8.5,-445.7 8.5,-464.7 81.5,-464.7 81.5,-445.7 8.5,-445.7"/>
<polygon fill="none" stroke="#000000" points="8.5,-445.7 8.5,-464.7 81.5,-464.7 81.5,-445.7 8.5,-445.7"/>
<text text-anchor="start" x="11.5" y="-451.8" font-family="Helvetica,sans-Serif" font-size="11.00" fill="#000000">&lt; 1</text>
<polygon fill="#ffffff" stroke="transparent" points="81.5,-445.7 81.5,-464.7 119.5,-464.7 119.5,-445.7 81.5,-445.7"/>
<polygon fill="none" stroke="#000000" points="81.5,-445.7 81.5,-464.7 119.5,-464.7 119.5,-445.7 81.5,-445.7"/>
<text text-anchor="start" x="110.3862" y="-451.8" font-family="Helvetica,sans-Serif" font-size="11.00" fill="#000000"> &#160;</text>
<polygon fill="#ffffff" stroke="transparent" points="119.5,-445.7 119.5,-464.7 173.5,-464.7 173.5,-445.7 119.5,-445.7"/>
<polygon fill="none" stroke="#000000" points="119.5,-445.7 119.5,-464.7 173.5,-464.7 173.5,-445.7 119.5,-445.7"/>
<text text-anchor="start" x="148.7904" y="-451.8" font-family="Helvetica,sans-Serif" font-size="11.00" fill="#000000">15 &gt;</text>
</a>
</g>
</g>
<!-- activity_tracking&#45;&gt;package_group -->
<g id="edge1" class="edge">
<title>activity_tracking:w&#45;&gt;package_group:e</title>
<path fill="none" stroke="#000000" d="M215.0287,-1090.0211C172.3618,-1017.6222 233.7464,-516.7 173.5,-516.7"/>
<polygon fill="#000000" stroke="#000000" points="220.523,-1094.0043 224.887,-1101.6146 223.7615,-1096.3522 227,-1098.7 227,-1098.7 227,-1098.7 223.7615,-1096.3522 229.113,-1095.7854 220.523,-1094.0043 220.523,-1094.0043"/>
<ellipse fill="none" stroke="#000000" cx="217.9322" cy="-1092.1261" rx="3.2" ry="3.2"/>
</g>
<!-- build -->
<g id="node3" class="node">
<title>build</title>
<g id="a_node3"><a xlink:href="../../tables/build.html" xlink:title="build" target="_top">
<polygon fill="#ffffff" stroke="transparent" points="305.5,-940.2 305.5,-1001.2 372.5,-1001.2 372.5,-940.2 305.5,-940.2"/>
<polygon fill="#f5f5f5" stroke="transparent" points="306,-977.7 306,-1000.7 373,-1000.7 373,-977.7 306,-977.7"/>
<polygon fill="none" stroke="#000000" points="306,-977.7 306,-1000.7 373,-1000.7 373,-977.7 306,-977.7"/>
<text text-anchor="start" x="311" y="-986.3" font-family="Helvetica,sans-Serif" font-weight="bold" font-size="11.00" fill="#000000">build</text>
<text text-anchor="start" x="338.5219" y="-985.8" font-family="Helvetica,sans-Serif" font-size="11.00" fill="#000000">[table]</text>
<polygon fill="none" stroke="#000000" points="306,-958.7 306,-977.7 373,-977.7 373,-958.7 306,-958.7"/>
<text text-anchor="start" x="309" y="-964.8" font-family="Helvetica,sans-Serif" font-size="11.00" fill="#000000">...</text>
<polygon fill="#ffffff" stroke="transparent" points="306,-939.7 306,-958.7 333,-958.7 333,-939.7 306,-939.7"/>
<polygon fill="none" stroke="#000000" points="306,-939.7 306,-958.7 333,-958.7 333,-939.7 306,-939.7"/>
<text text-anchor="start" x="309" y="-945.8" font-family="Helvetica,sans-Serif" font-size="11.00" fill="#000000">&lt; 1</text>
<polygon fill="#ffffff" stroke="transparent" points="333,-939.7 333,-958.7 348,-958.7 348,-939.7 333,-939.7"/>
<polygon fill="none" stroke="#000000" points="333,-939.7 333,-958.7 348,-958.7 348,-939.7 333,-939.7"/>
<text text-anchor="start" x="338.8862" y="-945.8" font-family="Helvetica,sans-Serif" font-size="11.00" fill="#000000"> &#160;</text>
<polygon fill="#ffffff" stroke="transparent" points="348,-939.7 348,-958.7 373,-958.7 373,-939.7 348,-939.7"/>
<polygon fill="none" stroke="#000000" points="348,-939.7 348,-958.7 373,-958.7 373,-939.7 348,-939.7"/>
<text text-anchor="start" x="354.4053" y="-945.8" font-family="Helvetica,sans-Serif" font-size="11.00" fill="#000000">5 &gt;</text>
</a>
</g>
</g>
<!-- build&#45;&gt;package_group -->
<g id="edge2" class="edge">
<title>build:w&#45;&gt;package_group:e</title>
<path fill="none" stroke="#000000" d="M291.3434,-967.5489C256.6774,-966.6662 237.2742,-961.0627 214,-929.7 159.0445,-855.6456 265.718,-516.7 173.5,-516.7"/>
<polygon fill="#000000" stroke="#000000" points="298.0004,-967.6175 305.9629,-971.2998 302.0002,-967.6587 306,-967.7 306,-967.7 306,-967.7 302.0002,-967.6587 306.0371,-964.1002 298.0004,-967.6175 298.0004,-967.6175"/>
<ellipse fill="none" stroke="#000000" cx="294.8006" cy="-967.5844" rx="3.2" ry="3.2"/>
</g>
<!-- favorite_packages -->
<g id="node4" class="node">
<title>favorite_packages</title>
<g id="a_node4"><a xlink:href="../../tables/favorite_packages.html" xlink:title="favorite_packages" target="_top">
<polygon fill="#ffffff" stroke="transparent" points="267.5,-858.2 267.5,-919.2 410.5,-919.2 410.5,-858.2 267.5,-858.2"/>
<polygon fill="#f5f5f5" stroke="transparent" points="268,-895.7 268,-918.7 411,-918.7 411,-895.7 268,-895.7"/>
<polygon fill="none" stroke="#000000" points="268,-895.7 268,-918.7 411,-918.7 411,-895.7 268,-895.7"/>
<text text-anchor="start" x="273" y="-904.3" font-family="Helvetica,sans-Serif" font-weight="bold" font-size="11.00" fill="#000000">favorite_packages</text>
<text text-anchor="start" x="376.5219" y="-903.8" font-family="Helvetica,sans-Serif" font-size="11.00" fill="#000000">[table]</text>
<polygon fill="none" stroke="#000000" points="268,-876.7 268,-895.7 411,-895.7 411,-876.7 268,-876.7"/>
<text text-anchor="start" x="271" y="-882.8" font-family="Helvetica,sans-Serif" font-size="11.00" fill="#000000">...</text>
<polygon fill="#ffffff" stroke="transparent" points="268,-857.7 268,-876.7 338,-876.7 338,-857.7 268,-857.7"/>
<polygon fill="none" stroke="#000000" points="268,-857.7 268,-876.7 338,-876.7 338,-857.7 268,-857.7"/>
<text text-anchor="start" x="271" y="-863.8" font-family="Helvetica,sans-Serif" font-size="11.00" fill="#000000">&lt; 2</text>
<polygon fill="#ffffff" stroke="transparent" points="338,-857.7 338,-876.7 374,-876.7 374,-857.7 338,-857.7"/>
<polygon fill="none" stroke="#000000" points="338,-857.7 338,-876.7 374,-876.7 374,-857.7 338,-857.7"/>
<text text-anchor="start" x="364.8862" y="-863.8" font-family="Helvetica,sans-Serif" font-size="11.00" fill="#000000"> &#160;</text>
<polygon fill="#ffffff" stroke="transparent" points="374,-857.7 374,-876.7 411,-876.7 411,-857.7 374,-857.7"/>
<polygon fill="none" stroke="#000000" points="374,-857.7 374,-876.7 411,-876.7 411,-857.7 374,-857.7"/>
<text text-anchor="start" x="401.8862" y="-863.8" font-family="Helvetica,sans-Serif" font-size="11.00" fill="#000000"> &#160;</text>
</a>
</g>
</g>
<!-- favorite_packages&#45;&gt;package_group -->
<g id="edge3" class="edge">
<title>favorite_packages:w&#45;&gt;package_group:e</title>
<path fill="none" stroke="#000000" d="M253.4113,-884.3506C234.8696,-880.4567 226.2525,-868.1555 214,-847.7 175.9214,-784.1277 247.6041,-516.7 173.5,-516.7"/>
<polygon fill="#000000" stroke="#000000" points="260.034,-884.9631 267.6684,-889.2847 264.017,-885.3316 268,-885.7 268,-885.7 268,-885.7 264.017,-885.3316 268.3316,-882.1153 260.034,-884.9631 260.034,-884.9631"/>
<ellipse fill="none" stroke="#000000" cx="256.8476" cy="-884.6684" rx="3.2" ry="3.2"/>
</g>
<!-- migrated_version -->
<g id="node5" class="node">
<title>migrated_version</title>
<g id="a_node5"><a xlink:href="../../tables/migrated_version.html" xlink:title="migrated_version" target="_top">
<polygon fill="#ffffff" stroke="transparent" points="269.5,-776.2 269.5,-837.2 408.5,-837.2 408.5,-776.2 269.5,-776.2"/>
<polygon fill="#f5f5f5" stroke="transparent" points="270,-813.7 270,-836.7 409,-836.7 409,-813.7 270,-813.7"/>
<polygon fill="none" stroke="#000000" points="270,-813.7 270,-836.7 409,-836.7 409,-813.7 270,-813.7"/>
<text text-anchor="start" x="275" y="-822.3" font-family="Helvetica,sans-Serif" font-weight="bold" font-size="11.00" fill="#000000">migrated_version</text>
<text text-anchor="start" x="374.5219" y="-821.8" font-family="Helvetica,sans-Serif" font-size="11.00" fill="#000000">[table]</text>
<polygon fill="none" stroke="#000000" points="270,-794.7 270,-813.7 409,-813.7 409,-794.7 270,-794.7"/>
<text text-anchor="start" x="273" y="-800.8" font-family="Helvetica,sans-Serif" font-size="11.00" fill="#000000">...</text>
<polygon fill="#ffffff" stroke="transparent" points="270,-775.7 270,-794.7 338,-794.7 338,-775.7 270,-775.7"/>
<polygon fill="none" stroke="#000000" points="270,-775.7 270,-794.7 338,-794.7 338,-775.7 270,-775.7"/>
<text text-anchor="start" x="273" y="-781.8" font-family="Helvetica,sans-Serif" font-size="11.00" fill="#000000">&lt; 1</text>
<polygon fill="#ffffff" stroke="transparent" points="338,-775.7 338,-794.7 373,-794.7 373,-775.7 338,-775.7"/>
<polygon fill="none" stroke="#000000" points="338,-775.7 338,-794.7 373,-794.7 373,-775.7 338,-775.7"/>
<text text-anchor="start" x="363.8862" y="-781.8" font-family="Helvetica,sans-Serif" font-size="11.00" fill="#000000"> &#160;</text>
<polygon fill="#ffffff" stroke="transparent" points="373,-775.7 373,-794.7 409,-794.7 409,-775.7 373,-775.7"/>
<polygon fill="none" stroke="#000000" points="373,-775.7 373,-794.7 409,-794.7 409,-775.7 373,-775.7"/>
<text text-anchor="start" x="399.8862" y="-781.8" font-family="Helvetica,sans-Serif" font-size="11.00" fill="#000000"> &#160;</text>
</a>
</g>
</g>
<!-- migrated_version&#45;&gt;package_group -->
<g id="edge4" class="edge">
<title>migrated_version:w&#45;&gt;package_group:e</title>
<path fill="none" stroke="#000000" d="M255.6004,-802.4749C236.2126,-798.7458 227.2713,-786.5003 214,-765.7 183.8463,-718.4397 229.5605,-516.7 173.5,-516.7"/>
<polygon fill="#000000" stroke="#000000" points="262.0288,-803.0218 269.6948,-807.287 266.0144,-803.3609 270,-803.7 270,-803.7 270,-803.7 266.0144,-803.3609 270.3052,-800.113 262.0288,-803.0218 262.0288,-803.0218"/>
<ellipse fill="none" stroke="#000000" cx="258.8403" cy="-802.7505" rx="3.2" ry="3.2"/>
</g>
<!-- operation_open_count -->
<g id="node6" class="node">
<title>operation_open_count</title>
<g id="a_node6"><a xlink:href="../../tables/operation_open_count.html" xlink:title="operation_open_count" target="_top">
<polygon fill="#ffffff" stroke="transparent" points="255,-694.2 255,-755.2 423,-755.2 423,-694.2 255,-694.2"/>
<polygon fill="#f5f5f5" stroke="transparent" points="255,-731.7 255,-754.7 423,-754.7 423,-731.7 255,-731.7"/>
<polygon fill="none" stroke="#000000" points="255,-731.7 255,-754.7 423,-754.7 423,-731.7 255,-731.7"/>
<text text-anchor="start" x="260" y="-740.3" font-family="Helvetica,sans-Serif" font-weight="bold" font-size="11.00" fill="#000000">operation_open_count</text>
<text text-anchor="start" x="388.5219" y="-739.8" font-family="Helvetica,sans-Serif" font-size="11.00" fill="#000000">[table]</text>
<polygon fill="none" stroke="#000000" points="255,-712.7 255,-731.7 423,-731.7 423,-712.7 255,-712.7"/>
<text text-anchor="start" x="258" y="-718.8" font-family="Helvetica,sans-Serif" font-size="11.00" fill="#000000">...</text>
<polygon fill="#ffffff" stroke="transparent" points="255,-693.7 255,-712.7 337,-712.7 337,-693.7 255,-693.7"/>
<polygon fill="none" stroke="#000000" points="255,-693.7 255,-712.7 337,-712.7 337,-693.7 255,-693.7"/>
<text text-anchor="start" x="258" y="-699.8" font-family="Helvetica,sans-Serif" font-size="11.00" fill="#000000">&lt; 1</text>
<polygon fill="#ffffff" stroke="transparent" points="337,-693.7 337,-712.7 380,-712.7 380,-693.7 337,-693.7"/>
<polygon fill="none" stroke="#000000" points="337,-693.7 337,-712.7 380,-712.7 380,-693.7 337,-693.7"/>
<text text-anchor="start" x="370.8862" y="-699.8" font-family="Helvetica,sans-Serif" font-size="11.00" fill="#000000"> &#160;</text>
<polygon fill="#ffffff" stroke="transparent" points="380,-693.7 380,-712.7 423,-712.7 423,-693.7 380,-693.7"/>
<polygon fill="none" stroke="#000000" points="380,-693.7 380,-712.7 423,-712.7 423,-693.7 380,-693.7"/>
<text text-anchor="start" x="413.8862" y="-699.8" font-family="Helvetica,sans-Serif" font-size="11.00" fill="#000000"> &#160;</text>
</a>
</g>
</g>
<!-- operation_open_count&#45;&gt;package_group -->
<g id="edge5" class="edge">
<title>operation_open_count:w&#45;&gt;package_group:e</title>
<path fill="none" stroke="#000000" d="M240.6454,-719.1199C227.9822,-713.6653 223.6268,-700.1063 214,-683.7 175.3485,-617.8289 249.8737,-516.7 173.5,-516.7"/>
<polygon fill="#000000" stroke="#000000" points="247.1262,-720.2847 254.3631,-725.2432 251.0631,-720.9924 255,-721.7 255,-721.7 255,-721.7 251.0631,-720.9924 255.6369,-718.1568 247.1262,-720.2847 247.1262,-720.2847"/>
<ellipse fill="none" stroke="#000000" cx="243.9766" cy="-719.7186" rx="3.2" ry="3.2"/>
</g>
<!-- package_export_config -->
<g id="node7" class="node">
<title>package_export_config</title>
<g id="a_node7"><a xlink:href="../../tables/package_export_config.html" xlink:title="package_export_config" target="_top">
<polygon fill="#ffffff" stroke="transparent" points="252.5,-612.2 252.5,-673.2 425.5,-673.2 425.5,-612.2 252.5,-612.2"/>
<polygon fill="#f5f5f5" stroke="transparent" points="253,-649.7 253,-672.7 426,-672.7 426,-649.7 253,-649.7"/>
<polygon fill="none" stroke="#000000" points="253,-649.7 253,-672.7 426,-672.7 426,-649.7 253,-649.7"/>
<text text-anchor="start" x="258" y="-658.3" font-family="Helvetica,sans-Serif" font-weight="bold" font-size="11.00" fill="#000000">package_export_config</text>
<text text-anchor="start" x="391.5219" y="-657.8" font-family="Helvetica,sans-Serif" font-size="11.00" fill="#000000">[table]</text>
<polygon fill="none" stroke="#000000" points="253,-630.7 253,-649.7 426,-649.7 426,-630.7 253,-630.7"/>
<text text-anchor="start" x="256" y="-636.8" font-family="Helvetica,sans-Serif" font-size="11.00" fill="#000000">...</text>
<polygon fill="#ffffff" stroke="transparent" points="253,-611.7 253,-630.7 338,-630.7 338,-611.7 253,-611.7"/>
<polygon fill="none" stroke="#000000" points="253,-611.7 253,-630.7 338,-630.7 338,-611.7 253,-611.7"/>
<text text-anchor="start" x="256" y="-617.8" font-family="Helvetica,sans-Serif" font-size="11.00" fill="#000000">&lt; 1</text>
<polygon fill="#ffffff" stroke="transparent" points="338,-611.7 338,-630.7 382,-630.7 382,-611.7 338,-611.7"/>
<polygon fill="none" stroke="#000000" points="338,-611.7 338,-630.7 382,-630.7 382,-611.7 338,-611.7"/>
<text text-anchor="start" x="372.8862" y="-617.8" font-family="Helvetica,sans-Serif" font-size="11.00" fill="#000000"> &#160;</text>
<polygon fill="#ffffff" stroke="transparent" points="382,-611.7 382,-630.7 426,-630.7 426,-611.7 382,-611.7"/>
<polygon fill="none" stroke="#000000" points="382,-611.7 382,-630.7 426,-630.7 426,-611.7 382,-611.7"/>
<text text-anchor="start" x="416.8862" y="-617.8" font-family="Helvetica,sans-Serif" font-size="11.00" fill="#000000"> &#160;</text>
</a>
</g>
</g>
<!-- package_export_config&#45;&gt;package_group -->
<g id="edge6" class="edge">
<title>package_export_config:w&#45;&gt;package_group:e</title>
<path fill="none" stroke="#000000" d="M242.4162,-638.1622C228.1605,-633.361 225.6694,-617.9935 214,-601.7 189.6339,-567.6786 215.3469,-516.7 173.5,-516.7"/>
<polygon fill="#000000" stroke="#000000" points="252.7835,-635.6265 251.6331,-643.5434 250.0497,-643.3133 251.2001,-635.3965 252.7835,-635.6265"/>
<polyline fill="none" stroke="#000000" points="253,-639.7 249.0416,-639.1248 "/>
<ellipse fill="none" stroke="#000000" cx="245.8748" cy="-638.6647" rx="3.2" ry="3.2"/>
</g>
<!-- package_member_role -->
<g id="node8" class="node">
<title>package_member_role</title>
<g id="a_node8"><a xlink:href="../../tables/package_member_role.html" xlink:title="package_member_role" target="_top">
<polygon fill="#ffffff" stroke="transparent" points="254.5,-530.2 254.5,-591.2 423.5,-591.2 423.5,-530.2 254.5,-530.2"/>
<polygon fill="#f5f5f5" stroke="transparent" points="255,-567.7 255,-590.7 424,-590.7 424,-567.7 255,-567.7"/>
<polygon fill="none" stroke="#000000" points="255,-567.7 255,-590.7 424,-590.7 424,-567.7 255,-567.7"/>
<text text-anchor="start" x="260" y="-576.3" font-family="Helvetica,sans-Serif" font-weight="bold" font-size="11.00" fill="#000000">package_member_role</text>
<text text-anchor="start" x="389.5219" y="-575.8" font-family="Helvetica,sans-Serif" font-size="11.00" fill="#000000">[table]</text>
<polygon fill="none" stroke="#000000" points="255,-548.7 255,-567.7 424,-567.7 424,-548.7 255,-548.7"/>
<text text-anchor="start" x="258" y="-554.8" font-family="Helvetica,sans-Serif" font-size="11.00" fill="#000000">...</text>
<polygon fill="#ffffff" stroke="transparent" points="255,-529.7 255,-548.7 338,-548.7 338,-529.7 255,-529.7"/>
<polygon fill="none" stroke="#000000" points="255,-529.7 255,-548.7 338,-548.7 338,-529.7 255,-529.7"/>
<text text-anchor="start" x="258" y="-535.8" font-family="Helvetica,sans-Serif" font-size="11.00" fill="#000000">&lt; 1</text>
<polygon fill="#ffffff" stroke="transparent" points="338,-529.7 338,-548.7 381,-548.7 381,-529.7 338,-529.7"/>
<polygon fill="none" stroke="#000000" points="338,-529.7 338,-548.7 381,-548.7 381,-529.7 338,-529.7"/>
<text text-anchor="start" x="371.8862" y="-535.8" font-family="Helvetica,sans-Serif" font-size="11.00" fill="#000000"> &#160;</text>
<polygon fill="#ffffff" stroke="transparent" points="381,-529.7 381,-548.7 424,-548.7 424,-529.7 381,-529.7"/>
<polygon fill="none" stroke="#000000" points="381,-529.7 381,-548.7 424,-548.7 424,-529.7 381,-529.7"/>
<text text-anchor="start" x="414.8862" y="-535.8" font-family="Helvetica,sans-Serif" font-size="11.00" fill="#000000"> &#160;</text>
</a>
</g>
</g>
<!-- package_member_role&#45;&gt;package_group -->
<g id="edge7" class="edge">
<title>package_member_role:w&#45;&gt;package_group:e</title>
<path fill="none" stroke="#000000" d="M240.4151,-555.6104C213.5914,-547.2554 208.5039,-516.7 173.5,-516.7"/>
<polygon fill="#000000" stroke="#000000" points="247.0809,-556.5654 254.4894,-561.2636 251.0404,-557.1327 255,-557.7 255,-557.7 255,-557.7 251.0404,-557.1327 255.5106,-554.1364 247.0809,-556.5654 247.0809,-556.5654"/>
<ellipse fill="none" stroke="#000000" cx="243.9132" cy="-556.1115" rx="3.2" ry="3.2"/>
</g>
<!-- package_service -->
<g id="node9" class="node">
<title>package_service</title>
<g id="a_node9"><a xlink:href="../../tables/package_service.html" xlink:title="package_service" target="_top">
<polygon fill="#ffffff" stroke="transparent" points="271.5,-448.2 271.5,-509.2 406.5,-509.2 406.5,-448.2 271.5,-448.2"/>
<polygon fill="#f5f5f5" stroke="transparent" points="272,-485.7 272,-508.7 407,-508.7 407,-485.7 272,-485.7"/>
<polygon fill="none" stroke="#000000" points="272,-485.7 272,-508.7 407,-508.7 407,-485.7 272,-485.7"/>
<text text-anchor="start" x="277" y="-494.3" font-family="Helvetica,sans-Serif" font-weight="bold" font-size="11.00" fill="#000000">package_service</text>
<text text-anchor="start" x="372.5219" y="-493.8" font-family="Helvetica,sans-Serif" font-size="11.00" fill="#000000">[table]</text>
<polygon fill="none" stroke="#000000" points="272,-466.7 272,-485.7 407,-485.7 407,-466.7 272,-466.7"/>
<text text-anchor="start" x="275" y="-472.8" font-family="Helvetica,sans-Serif" font-size="11.00" fill="#000000">...</text>
<polygon fill="#ffffff" stroke="transparent" points="272,-447.7 272,-466.7 338,-466.7 338,-447.7 272,-447.7"/>
<polygon fill="none" stroke="#000000" points="272,-447.7 272,-466.7 338,-466.7 338,-447.7 272,-447.7"/>
<text text-anchor="start" x="275" y="-453.8" font-family="Helvetica,sans-Serif" font-size="11.00" fill="#000000">&lt; 2</text>
<polygon fill="#ffffff" stroke="transparent" points="338,-447.7 338,-466.7 372,-466.7 372,-447.7 338,-447.7"/>
<polygon fill="none" stroke="#000000" points="338,-447.7 338,-466.7 372,-466.7 372,-447.7 338,-447.7"/>
<text text-anchor="start" x="362.8862" y="-453.8" font-family="Helvetica,sans-Serif" font-size="11.00" fill="#000000"> &#160;</text>
<polygon fill="#ffffff" stroke="transparent" points="372,-447.7 372,-466.7 407,-466.7 407,-447.7 372,-447.7"/>
<polygon fill="none" stroke="#000000" points="372,-447.7 372,-466.7 407,-466.7 407,-447.7 372,-447.7"/>
<text text-anchor="start" x="397.8862" y="-453.8" font-family="Helvetica,sans-Serif" font-size="11.00" fill="#000000"> &#160;</text>
</a>
</g>
</g>
<!-- package_service&#45;&gt;package_group -->
<g id="edge8" class="edge">
<title>package_service:w&#45;&gt;package_group:e</title>
<path fill="none" stroke="#000000" d="M257.4423,-475.3511C223.1899,-478.5399 215.5471,-511.3797 173.5,-516.7"/>
<polygon fill="#000000" stroke="#000000" points="264.0023,-475.5083 271.9137,-479.299 268.0011,-475.6041 272,-475.7 272,-475.7 272,-475.7 268.0011,-475.6041 272.0863,-472.101 264.0023,-475.5083 264.0023,-475.5083"/>
<ellipse fill="none" stroke="#000000" cx="260.8032" cy="-475.4316" rx="3.2" ry="3.2"/>
</g>
<!-- package_service&#45;&gt;package_group -->
<g id="edge9" class="edge">
<title>package_service:w&#45;&gt;package_group:e</title>
<path fill="none" stroke="#000000" d="M257.8966,-479.1098C223.2566,-491.0945 215.7324,-522.9344 173.5,-516.7"/>
<polygon fill="#000000" stroke="#000000" points="264.224,-477.58 272.846,-479.1992 268.112,-476.64 272,-475.7 272,-475.7 272,-475.7 268.112,-476.64 271.154,-472.2008 264.224,-477.58 264.224,-477.58"/>
<ellipse fill="none" stroke="#000000" cx="261.1136" cy="-478.3321" rx="3.2" ry="3.2"/>
</g>
<!-- published_data -->
<g id="node10" class="node">
<title>published_data</title>
<g id="a_node10"><a xlink:href="../../tables/published_data.html" xlink:title="published_data" target="_top">
<polygon fill="#ffffff" stroke="transparent" points="275.5,-366.2 275.5,-427.2 402.5,-427.2 402.5,-366.2 275.5,-366.2"/>
<polygon fill="#f5f5f5" stroke="transparent" points="276,-403.7 276,-426.7 403,-426.7 403,-403.7 276,-403.7"/>
<polygon fill="none" stroke="#000000" points="276,-403.7 276,-426.7 403,-426.7 403,-403.7 276,-403.7"/>
<text text-anchor="start" x="281" y="-412.3" font-family="Helvetica,sans-Serif" font-weight="bold" font-size="11.00" fill="#000000">published_data</text>
<text text-anchor="start" x="368.5219" y="-411.8" font-family="Helvetica,sans-Serif" font-size="11.00" fill="#000000">[table]</text>
<polygon fill="none" stroke="#000000" points="276,-384.7 276,-403.7 403,-403.7 403,-384.7 276,-384.7"/>
<text text-anchor="start" x="279" y="-390.8" font-family="Helvetica,sans-Serif" font-size="11.00" fill="#000000">...</text>
<polygon fill="#ffffff" stroke="transparent" points="276,-365.7 276,-384.7 333,-384.7 333,-365.7 276,-365.7"/>
<polygon fill="none" stroke="#000000" points="276,-365.7 276,-384.7 333,-384.7 333,-365.7 276,-365.7"/>
<text text-anchor="start" x="279" y="-371.8" font-family="Helvetica,sans-Serif" font-size="11.00" fill="#000000">&lt; 1</text>
<polygon fill="#ffffff" stroke="transparent" points="333,-365.7 333,-384.7 363,-384.7 363,-365.7 333,-365.7"/>
<polygon fill="none" stroke="#000000" points="333,-365.7 333,-384.7 363,-384.7 363,-365.7 333,-365.7"/>
<text text-anchor="start" x="353.8862" y="-371.8" font-family="Helvetica,sans-Serif" font-size="11.00" fill="#000000"> &#160;</text>
<polygon fill="#ffffff" stroke="transparent" points="363,-365.7 363,-384.7 403,-384.7 403,-365.7 363,-365.7"/>
<polygon fill="none" stroke="#000000" points="363,-365.7 363,-384.7 403,-384.7 403,-365.7 363,-365.7"/>
<text text-anchor="start" x="384.4053" y="-371.8" font-family="Helvetica,sans-Serif" font-size="11.00" fill="#000000">2 &gt;</text>
</a>
</g>
</g>
<!-- published_data&#45;&gt;package_group -->
<g id="edge10" class="edge">
<title>published_data:w&#45;&gt;package_group:e</title>
<path fill="none" stroke="#000000" d="M261.4127,-395.1401C239.7803,-399.9467 232.49,-416.347 214,-437.7 188.1717,-467.5276 212.9562,-516.7 173.5,-516.7"/>
<polygon fill="#000000" stroke="#000000" points="268.0387,-394.486 276.3537,-397.2826 272.0194,-394.093 276,-393.7 276,-393.7 276,-393.7 272.0194,-394.093 275.6463,-390.1174 268.0387,-394.486 268.0387,-394.486"/>
<ellipse fill="none" stroke="#000000" cx="264.8542" cy="-394.8004" rx="3.2" ry="3.2"/>
</g>
<!-- published_document_open_count -->
<g id="node11" class="node">
<title>published_document_open_count</title>
<g id="a_node11"><a xlink:href="../../tables/published_document_open_count.html" xlink:title="published_document_open_count" target="_top">
<polygon fill="#ffffff" stroke="transparent" points="222,-284.2 222,-345.2 456,-345.2 456,-284.2 222,-284.2"/>
<polygon fill="#f5f5f5" stroke="transparent" points="222,-321.7 222,-344.7 456,-344.7 456,-321.7 222,-321.7"/>
<polygon fill="none" stroke="#000000" points="222,-321.7 222,-344.7 456,-344.7 456,-321.7 222,-321.7"/>
<text text-anchor="start" x="227" y="-330.3" font-family="Helvetica,sans-Serif" font-weight="bold" font-size="11.00" fill="#000000">published_document_open_count</text>
<text text-anchor="start" x="421.5219" y="-329.8" font-family="Helvetica,sans-Serif" font-size="11.00" fill="#000000">[table]</text>
<polygon fill="none" stroke="#000000" points="222,-302.7 222,-321.7 456,-321.7 456,-302.7 222,-302.7"/>
<text text-anchor="start" x="225" y="-308.8" font-family="Helvetica,sans-Serif" font-size="11.00" fill="#000000">...</text>
<polygon fill="#ffffff" stroke="transparent" points="222,-283.7 222,-302.7 337,-302.7 337,-283.7 222,-283.7"/>
<polygon fill="none" stroke="#000000" points="222,-283.7 222,-302.7 337,-302.7 337,-283.7 222,-283.7"/>
<text text-anchor="start" x="225" y="-289.8" font-family="Helvetica,sans-Serif" font-size="11.00" fill="#000000">&lt; 1</text>
<polygon fill="#ffffff" stroke="transparent" points="337,-283.7 337,-302.7 396,-302.7 396,-283.7 337,-283.7"/>
<polygon fill="none" stroke="#000000" points="337,-283.7 337,-302.7 396,-302.7 396,-283.7 337,-283.7"/>
<text text-anchor="start" x="386.8862" y="-289.8" font-family="Helvetica,sans-Serif" font-size="11.00" fill="#000000"> &#160;</text>
<polygon fill="#ffffff" stroke="transparent" points="396,-283.7 396,-302.7 456,-302.7 456,-283.7 396,-283.7"/>
<polygon fill="none" stroke="#000000" points="396,-283.7 396,-302.7 456,-302.7 456,-283.7 396,-283.7"/>
<text text-anchor="start" x="446.8862" y="-289.8" font-family="Helvetica,sans-Serif" font-size="11.00" fill="#000000"> &#160;</text>
</a>
</g>
</g>
<!-- published_document_open_count&#45;&gt;package_group -->
<g id="edge11" class="edge">
<title>published_document_open_count:w&#45;&gt;package_group:e</title>
<path fill="none" stroke="#000000" d="M207.4462,-313.8635C144.3239,-335.7727 261.4575,-516.7 173.5,-516.7"/>
<polygon fill="#000000" stroke="#000000" points="214.087,-312.8764 222.5294,-315.2609 218.0435,-312.2882 222,-311.7 222,-311.7 222,-311.7 218.0435,-312.2882 221.4706,-308.1391 214.087,-312.8764 214.087,-312.8764"/>
<ellipse fill="none" stroke="#000000" cx="210.9217" cy="-313.3469" rx="3.2" ry="3.2"/>
</g>
<!-- published_version -->
<g id="node12" class="node">
<title>published_version</title>
<g id="a_node12"><a xlink:href="../../tables/published_version.html" xlink:title="published_version" target="_top">
<polygon fill="#ffffff" stroke="transparent" points="266.5,-202.2 266.5,-263.2 411.5,-263.2 411.5,-202.2 266.5,-202.2"/>
<polygon fill="#f5f5f5" stroke="transparent" points="267,-239.7 267,-262.7 412,-262.7 412,-239.7 267,-239.7"/>
<polygon fill="none" stroke="#000000" points="267,-239.7 267,-262.7 412,-262.7 412,-239.7 267,-239.7"/>
<text text-anchor="start" x="272" y="-248.3" font-family="Helvetica,sans-Serif" font-weight="bold" font-size="11.00" fill="#000000">published_version</text>
<text text-anchor="start" x="377.5219" y="-247.8" font-family="Helvetica,sans-Serif" font-size="11.00" fill="#000000">[table]</text>
<polygon fill="none" stroke="#000000" points="267,-220.7 267,-239.7 412,-239.7 412,-220.7 267,-220.7"/>
<text text-anchor="start" x="270" y="-226.8" font-family="Helvetica,sans-Serif" font-size="11.00" fill="#000000">...</text>
<polygon fill="#ffffff" stroke="transparent" points="267,-201.7 267,-220.7 330,-220.7 330,-201.7 267,-201.7"/>
<polygon fill="none" stroke="#000000" points="267,-201.7 267,-220.7 330,-220.7 330,-201.7 267,-201.7"/>
<text text-anchor="start" x="270" y="-207.8" font-family="Helvetica,sans-Serif" font-size="11.00" fill="#000000">&lt; 1</text>
<polygon fill="#ffffff" stroke="transparent" points="330,-201.7 330,-220.7 363,-220.7 363,-201.7 330,-201.7"/>
<polygon fill="none" stroke="#000000" points="330,-201.7 330,-220.7 363,-220.7 363,-201.7 330,-201.7"/>
<text text-anchor="start" x="353.8862" y="-207.8" font-family="Helvetica,sans-Serif" font-size="11.00" fill="#000000"> &#160;</text>
<polygon fill="#ffffff" stroke="transparent" points="363,-201.7 363,-220.7 412,-220.7 412,-201.7 363,-201.7"/>
<polygon fill="none" stroke="#000000" points="363,-201.7 363,-220.7 412,-220.7 412,-201.7 363,-201.7"/>
<text text-anchor="start" x="387.2904" y="-207.8" font-family="Helvetica,sans-Serif" font-size="11.00" fill="#000000">18 &gt;</text>
</a>
</g>
</g>
<!-- published_version&#45;&gt;package_group -->
<g id="edge12" class="edge">
<title>published_version:w&#45;&gt;package_group:e</title>
<path fill="none" stroke="#000000" d="M252.5878,-231.3422C233.5596,-236.2664 226.512,-251.9248 214,-273.7 186.7256,-321.1669 228.2449,-516.7 173.5,-516.7"/>
<polygon fill="#000000" stroke="#000000" points="259.0514,-230.6058 267.4076,-233.2769 263.0257,-230.1529 267,-229.7 267,-229.7 267,-229.7 263.0257,-230.1529 266.5924,-226.1231 259.0514,-230.6058 259.0514,-230.6058"/>
<ellipse fill="none" stroke="#000000" cx="255.872" cy="-230.9681" rx="3.2" ry="3.2"/>
</g>
<!-- published_version_open_count -->
<g id="node13" class="node">
<title>published_version_open_count</title>
<g id="a_node13"><a xlink:href="../../tables/published_version_open_count.html" xlink:title="published_version_open_count" target="_top">
<polygon fill="#ffffff" stroke="transparent" points="229.5,-120.2 229.5,-181.2 448.5,-181.2 448.5,-120.2 229.5,-120.2"/>
<polygon fill="#f5f5f5" stroke="transparent" points="230,-157.7 230,-180.7 449,-180.7 449,-157.7 230,-157.7"/>
<polygon fill="none" stroke="#000000" points="230,-157.7 230,-180.7 449,-180.7 449,-157.7 230,-157.7"/>
<text text-anchor="start" x="235" y="-166.3" font-family="Helvetica,sans-Serif" font-weight="bold" font-size="11.00" fill="#000000">published_version_open_count</text>
<text text-anchor="start" x="414.5219" y="-165.8" font-family="Helvetica,sans-Serif" font-size="11.00" fill="#000000">[table]</text>
<polygon fill="none" stroke="#000000" points="230,-138.7 230,-157.7 449,-157.7 449,-138.7 230,-138.7"/>
<text text-anchor="start" x="233" y="-144.8" font-family="Helvetica,sans-Serif" font-size="11.00" fill="#000000">...</text>
<polygon fill="#ffffff" stroke="transparent" points="230,-119.7 230,-138.7 338,-138.7 338,-119.7 230,-119.7"/>
<polygon fill="none" stroke="#000000" points="230,-119.7 230,-138.7 338,-138.7 338,-119.7 230,-119.7"/>
<text text-anchor="start" x="233" y="-125.8" font-family="Helvetica,sans-Serif" font-size="11.00" fill="#000000">&lt; 1</text>
<polygon fill="#ffffff" stroke="transparent" points="338,-119.7 338,-138.7 393,-138.7 393,-119.7 338,-119.7"/>
<polygon fill="none" stroke="#000000" points="338,-119.7 338,-138.7 393,-138.7 393,-119.7 338,-119.7"/>
<text text-anchor="start" x="383.8862" y="-125.8" font-family="Helvetica,sans-Serif" font-size="11.00" fill="#000000"> &#160;</text>
<polygon fill="#ffffff" stroke="transparent" points="393,-119.7 393,-138.7 449,-138.7 449,-119.7 393,-119.7"/>
<polygon fill="none" stroke="#000000" points="393,-119.7 393,-138.7 449,-138.7 449,-119.7 393,-119.7"/>
<text text-anchor="start" x="439.8862" y="-125.8" font-family="Helvetica,sans-Serif" font-size="11.00" fill="#000000"> &#160;</text>
</a>
</g>
</g>
<!-- published_version_open_count&#45;&gt;package_group -->
<g id="edge13" class="edge">
<title>published_version_open_count:w&#45;&gt;package_group:e</title>
<path fill="none" stroke="#000000" d="M216.2541,-152.1011C160.349,-193.7335 251.1089,-516.7 173.5,-516.7"/>
<polygon fill="#000000" stroke="#000000" points="222.381,-150.1395 231.0978,-151.1286 226.1905,-148.9197 230,-147.7 230,-147.7 230,-147.7 226.1905,-148.9197 228.9022,-144.2714 222.381,-150.1395 222.381,-150.1395"/>
<ellipse fill="none" stroke="#000000" cx="219.3334" cy="-151.1152" rx="3.2" ry="3.2"/>
</g>
<!-- shared_url_info -->
<g id="node14" class="node">
<title>shared_url_info</title>
<g id="a_node14"><a xlink:href="../../tables/shared_url_info.html" xlink:title="shared_url_info" target="_top">
<polygon fill="#ffffff" stroke="transparent" points="274.5,-38.2 274.5,-99.2 403.5,-99.2 403.5,-38.2 274.5,-38.2"/>
<polygon fill="#f5f5f5" stroke="transparent" points="275,-75.7 275,-98.7 404,-98.7 404,-75.7 275,-75.7"/>
<polygon fill="none" stroke="#000000" points="275,-75.7 275,-98.7 404,-98.7 404,-75.7 275,-75.7"/>
<text text-anchor="start" x="280" y="-84.3" font-family="Helvetica,sans-Serif" font-weight="bold" font-size="11.00" fill="#000000">shared_url_info</text>
<text text-anchor="start" x="369.5219" y="-83.8" font-family="Helvetica,sans-Serif" font-size="11.00" fill="#000000">[table]</text>
<polygon fill="none" stroke="#000000" points="275,-56.7 275,-75.7 404,-75.7 404,-56.7 275,-56.7"/>
<text text-anchor="start" x="278" y="-62.8" font-family="Helvetica,sans-Serif" font-size="11.00" fill="#000000">...</text>
<polygon fill="#ffffff" stroke="transparent" points="275,-37.7 275,-56.7 338,-56.7 338,-37.7 275,-37.7"/>
<polygon fill="none" stroke="#000000" points="275,-37.7 275,-56.7 338,-56.7 338,-37.7 275,-37.7"/>
<text text-anchor="start" x="278" y="-43.8" font-family="Helvetica,sans-Serif" font-size="11.00" fill="#000000">&lt; 1</text>
<polygon fill="#ffffff" stroke="transparent" points="338,-37.7 338,-56.7 371,-56.7 371,-37.7 338,-37.7"/>
<polygon fill="none" stroke="#000000" points="338,-37.7 338,-56.7 371,-56.7 371,-37.7 338,-37.7"/>
<text text-anchor="start" x="361.8862" y="-43.8" font-family="Helvetica,sans-Serif" font-size="11.00" fill="#000000"> &#160;</text>
<polygon fill="#ffffff" stroke="transparent" points="371,-37.7 371,-56.7 404,-56.7 404,-37.7 371,-37.7"/>
<polygon fill="none" stroke="#000000" points="371,-37.7 371,-56.7 404,-56.7 404,-37.7 371,-37.7"/>
<text text-anchor="start" x="394.8862" y="-43.8" font-family="Helvetica,sans-Serif" font-size="11.00" fill="#000000"> &#160;</text>
</a>
</g>
</g>
<!-- shared_url_info&#45;&gt;package_group -->
<g id="edge14" class="edge">
<title>shared_url_info:w&#45;&gt;package_group:e</title>
<path fill="none" stroke="#000000" d="M260.5569,-66.8523C237.9356,-70.8726 228.0116,-85.3722 214,-109.7 191.3187,-149.0809 218.9456,-516.7 173.5,-516.7"/>
<polygon fill="#000000" stroke="#000000" points="267.0253,-66.3363 275.2863,-69.2886 271.0127,-66.0181 275,-65.7 275,-65.7 275,-65.7 271.0127,-66.0181 274.7137,-62.1114 267.0253,-66.3363 267.0253,-66.3363"/>
<ellipse fill="none" stroke="#000000" cx="263.8355" cy="-66.5908" rx="3.2" ry="3.2"/>
</g>
</g>
</svg>
