<?xml version="1.0" encoding="UTF-8" standalone="no"?>
<!DOCTYPE svg PUBLIC "-//W3C//DTD SVG 1.1//EN"
 "http://www.w3.org/Graphics/SVG/1.1/DTD/svg11.dtd">
<!-- Generated by graphviz version 2.40.1 (20161225.0304)
 -->
<!-- Title: twoDegreesRelationshipsDiagram Pages: 1 -->
<svg width="485pt" height="453pt"
 viewBox="0.00 0.00 485.00 453.20" xmlns="http://www.w3.org/2000/svg" xmlns:xlink="http://www.w3.org/1999/xlink">
<g id="graph0" class="graph" transform="scale(1 1) rotate(0) translate(4 449.2)">
<title>twoDegreesRelationshipsDiagram</title>
<polygon fill="#ffffff" stroke="transparent" points="-4,4 -4,-449.2 481,-449.2 481,4 -4,4"/>
<text text-anchor="middle" x="72.4936" y="-7.3" font-family="Helvetica,sans-Serif" font-size="11.00" fill="#000000">Generated by SchemaSpy</text>
<!-- branch_draft_content -->
<g id="node1" class="node">
<title>branch_draft_content</title>
<g id="a_node1"><a xlink:href="../../tables/branch_draft_content.html" xlink:title="branch_draft_content" target="_top">
<polygon fill="#ffffff" stroke="transparent" points="254,-380.2 254,-441.2 416,-441.2 416,-380.2 254,-380.2"/>
<polygon fill="#f5f5f5" stroke="transparent" points="254,-417.7 254,-440.7 416,-440.7 416,-417.7 254,-417.7"/>
<polygon fill="none" stroke="#000000" points="254,-417.7 254,-440.7 416,-440.7 416,-417.7 254,-417.7"/>
<text text-anchor="start" x="259" y="-426.3" font-family="Helvetica,sans-Serif" font-weight="bold" font-size="11.00" fill="#000000">branch_draft_content</text>
<text text-anchor="start" x="381.5219" y="-425.8" font-family="Helvetica,sans-Serif" font-size="11.00" fill="#000000">[table]</text>
<polygon fill="none" stroke="#000000" points="254,-398.7 254,-417.7 416,-417.7 416,-398.7 254,-398.7"/>
<text text-anchor="start" x="257" y="-404.8" font-family="Helvetica,sans-Serif" font-size="11.00" fill="#000000">...</text>
<polygon fill="#ffffff" stroke="transparent" points="254,-379.7 254,-398.7 333,-398.7 333,-379.7 254,-379.7"/>
<polygon fill="none" stroke="#000000" points="254,-379.7 254,-398.7 333,-398.7 333,-379.7 254,-379.7"/>
<text text-anchor="start" x="257" y="-385.8" font-family="Helvetica,sans-Serif" font-size="11.00" fill="#000000">&lt; 1</text>
<polygon fill="#ffffff" stroke="transparent" points="333,-379.7 333,-398.7 374,-398.7 374,-379.7 333,-379.7"/>
<polygon fill="none" stroke="#000000" points="333,-379.7 333,-398.7 374,-398.7 374,-379.7 333,-379.7"/>
<text text-anchor="start" x="364.8862" y="-385.8" font-family="Helvetica,sans-Serif" font-size="11.00" fill="#000000"> &#160;</text>
<polygon fill="#ffffff" stroke="transparent" points="374,-379.7 374,-398.7 416,-398.7 416,-379.7 374,-379.7"/>
<polygon fill="none" stroke="#000000" points="374,-379.7 374,-398.7 416,-398.7 416,-379.7 374,-379.7"/>
<text text-anchor="start" x="406.8862" y="-385.8" font-family="Helvetica,sans-Serif" font-size="11.00" fill="#000000"> &#160;</text>
</a>
</g>
</g>
<!-- project -->
<g id="node2" class="node">
<title>project</title>
<g id="a_node2"><a xlink:href="../../tables/project.html" xlink:title="project" target="_top">
<polygon fill="#ffffff" stroke="transparent" points="8,-186.2 8,-269.2 152,-269.2 152,-186.2 8,-186.2"/>
<polygon fill="#f5f5f5" stroke="transparent" points="8,-245.7 8,-268.7 152,-268.7 152,-245.7 8,-245.7"/>
<polygon fill="none" stroke="#000000" points="8,-245.7 8,-268.7 152,-268.7 152,-245.7 8,-245.7"/>
<text text-anchor="start" x="13" y="-254.3" font-family="Helvetica,sans-Serif" font-weight="bold" font-size="11.00" fill="#000000">project</text>
<text text-anchor="start" x="117.0437" y="-253.8" font-family="Helvetica,sans-Serif" font-size="11.00" fill="#000000">[table]</text>
<polygon fill="none" stroke="#000000" points="8,-223.7 8,-245.7 152,-245.7 152,-223.7 8,-223.7"/>
<image xlink:href="../../images/primaryKeys.png" width="11px" height="12px" preserveAspectRatio="xMinYMin meet" x="13" y="-240.7"/>
<text text-anchor="start" x="28" y="-230.8" font-family="Helvetica,sans-Serif" font-size="11.00" fill="#000000">id</text>
<polygon fill="none" stroke="#000000" points="8,-204.7 8,-223.7 152,-223.7 152,-204.7 8,-204.7"/>
<text text-anchor="start" x="11" y="-210.8" font-family="Helvetica,sans-Serif" font-size="11.00" fill="#000000">...</text>
<polygon fill="#ffffff" stroke="transparent" points="8,-185.7 8,-204.7 69,-204.7 69,-185.7 8,-185.7"/>
<polygon fill="none" stroke="#000000" points="8,-185.7 8,-204.7 69,-204.7 69,-185.7 8,-185.7"/>
<text text-anchor="start" x="11" y="-191.8" font-family="Helvetica,sans-Serif" font-size="11.00" fill="#000000"> &#160;</text>
<polygon fill="#ffffff" stroke="transparent" points="69,-185.7 69,-204.7 106,-204.7 106,-185.7 69,-185.7"/>
<polygon fill="none" stroke="#000000" points="69,-185.7 69,-204.7 106,-204.7 106,-185.7 69,-185.7"/>
<text text-anchor="start" x="96.8862" y="-191.8" font-family="Helvetica,sans-Serif" font-size="11.00" fill="#000000"> &#160;</text>
<polygon fill="#ffffff" stroke="transparent" points="106,-185.7 106,-204.7 152,-204.7 152,-185.7 106,-185.7"/>
<polygon fill="none" stroke="#000000" points="106,-185.7 106,-204.7 152,-204.7 152,-185.7 106,-185.7"/>
<text text-anchor="start" x="133.4053" y="-191.8" font-family="Helvetica,sans-Serif" font-size="11.00" fill="#000000">4 &gt;</text>
</a>
</g>
</g>
<!-- branch_draft_content&#45;&gt;project -->
<g id="edge1" class="edge">
<title>branch_draft_content:w&#45;&gt;project:e</title>
<path fill="none" stroke="#000000" d="M239.3453,-406.5783C218.4617,-402.9751 209.0976,-390.6891 193,-369.7 154.8388,-319.9429 214.7061,-234.7 152,-234.7"/>
<polygon fill="#000000" stroke="#000000" points="246.0233,-407.0894 253.7252,-411.2895 250.0117,-407.3947 254,-407.7 254,-407.7 254,-407.7 250.0117,-407.3947 254.2748,-404.1105 246.0233,-407.0894 246.0233,-407.0894"/>
<ellipse fill="none" stroke="#000000" cx="242.8327" cy="-406.8452" rx="3.2" ry="3.2"/>
</g>
<!-- branch_draft_reference -->
<g id="node3" class="node">
<title>branch_draft_reference</title>
<g id="a_node3"><a xlink:href="../../tables/branch_draft_reference.html" xlink:title="branch_draft_reference" target="_top">
<polygon fill="#ffffff" stroke="transparent" points="201,-202.7 201,-358.7 469,-358.7 469,-202.7 201,-202.7"/>
<polygon fill="#f5f5f5" stroke="transparent" points="203,-333.7 203,-356.7 467,-356.7 467,-333.7 203,-333.7"/>
<polygon fill="none" stroke="#000000" points="203,-333.7 203,-356.7 467,-356.7 467,-333.7 203,-333.7"/>
<text text-anchor="start" x="208" y="-342.3" font-family="Helvetica,sans-Serif" font-weight="bold" font-size="11.00" fill="#000000">branch_draft_reference</text>
<text text-anchor="start" x="432.0437" y="-341.8" font-family="Helvetica,sans-Serif" font-size="11.00" fill="#000000">[table]</text>
<polygon fill="none" stroke="#000000" points="203,-311.7 203,-333.7 358,-333.7 358,-311.7 203,-311.7"/>
<image xlink:href="../../images/primaryKeys.png" width="11px" height="12px" preserveAspectRatio="xMinYMin meet" x="208" y="-328.7"/>
<text text-anchor="start" x="223" y="-318.8" font-family="Helvetica,sans-Serif" font-size="11.00" fill="#000000">project_id</text>
<polygon fill="none" stroke="#000000" points="358,-311.7 358,-333.7 467,-333.7 467,-311.7 358,-311.7"/>
<text text-anchor="start" x="360.5344" y="-319.4" font-family="Helvetica,sans-Serif" font-size="11.00" fill="#000000">varchar[2147483647]</text>
<polygon fill="none" stroke="#000000" points="203,-289.7 203,-311.7 358,-311.7 358,-289.7 203,-289.7"/>
<image xlink:href="../../images/primaryKeys.png" width="11px" height="12px" preserveAspectRatio="xMinYMin meet" x="208" y="-306.7"/>
<text text-anchor="start" x="223" y="-296.8" font-family="Helvetica,sans-Serif" font-size="11.00" fill="#000000">branch_name</text>
<polygon fill="none" stroke="#000000" points="358,-289.7 358,-311.7 467,-311.7 467,-289.7 358,-289.7"/>
<text text-anchor="start" x="360.5344" y="-297.4" font-family="Helvetica,sans-Serif" font-size="11.00" fill="#000000">varchar[2147483647]</text>
<polygon fill="none" stroke="#000000" points="203,-267.7 203,-289.7 358,-289.7 358,-267.7 203,-267.7"/>
<image xlink:href="../../images/primaryKeys.png" width="11px" height="12px" preserveAspectRatio="xMinYMin meet" x="208" y="-284.7"/>
<text text-anchor="start" x="223" y="-274.8" font-family="Helvetica,sans-Serif" font-size="11.00" fill="#000000">reference_package_id</text>
<polygon fill="none" stroke="#000000" points="358,-267.7 358,-289.7 467,-289.7 467,-267.7 358,-267.7"/>
<text text-anchor="start" x="360.5344" y="-275.4" font-family="Helvetica,sans-Serif" font-size="11.00" fill="#000000">varchar[2147483647]</text>
<polygon fill="none" stroke="#000000" points="203,-245.7 203,-267.7 358,-267.7 358,-245.7 203,-245.7"/>
<image xlink:href="../../images/primaryKeys.png" width="11px" height="12px" preserveAspectRatio="xMinYMin meet" x="208" y="-262.7"/>
<text text-anchor="start" x="223" y="-252.8" font-family="Helvetica,sans-Serif" font-size="11.00" fill="#000000">reference_version</text>
<polygon fill="none" stroke="#000000" points="358,-245.7 358,-267.7 467,-267.7 467,-245.7 358,-245.7"/>
<text text-anchor="start" x="360.5344" y="-253.4" font-family="Helvetica,sans-Serif" font-size="11.00" fill="#000000">varchar[2147483647]</text>
<polygon fill="none" stroke="#000000" points="203,-223.7 203,-245.7 358,-245.7 358,-223.7 203,-223.7"/>
<text text-anchor="start" x="223" y="-230.8" font-family="Helvetica,sans-Serif" font-size="11.00" fill="#000000">status</text>
<polygon fill="none" stroke="#000000" points="358,-223.7 358,-245.7 467,-245.7 467,-223.7 358,-223.7"/>
<text text-anchor="start" x="360.5344" y="-231.4" font-family="Helvetica,sans-Serif" font-size="11.00" fill="#000000">varchar[2147483647]</text>
<polygon fill="#ffffff" stroke="transparent" points="203,-204.7 203,-223.7 285,-223.7 285,-204.7 203,-204.7"/>
<polygon fill="none" stroke="#000000" points="203,-204.7 203,-223.7 285,-223.7 285,-204.7 203,-204.7"/>
<text text-anchor="start" x="206" y="-210.8" font-family="Helvetica,sans-Serif" font-size="11.00" fill="#000000">&lt; 1</text>
<polygon fill="#ffffff" stroke="transparent" points="285,-204.7 285,-223.7 358,-223.7 358,-204.7 285,-204.7"/>
<polygon fill="none" stroke="#000000" points="285,-204.7 285,-223.7 358,-223.7 358,-204.7 285,-204.7"/>
<text text-anchor="start" x="348.8862" y="-210.8" font-family="Helvetica,sans-Serif" font-size="11.00" fill="#000000"> &#160;</text>
<polygon fill="#ffffff" stroke="transparent" points="358,-204.7 358,-223.7 467,-223.7 467,-204.7 358,-204.7"/>
<polygon fill="none" stroke="#000000" points="358,-204.7 358,-223.7 467,-223.7 467,-204.7 358,-204.7"/>
<text text-anchor="start" x="448.4053" y="-210.8" font-family="Helvetica,sans-Serif" font-size="11.00" fill="#000000">0 &gt;</text>
<polygon fill="none" stroke="#000000" stroke-width="2" points="202,-203.7 202,-357.7 468,-357.7 468,-203.7 202,-203.7"/>
</a>
</g>
</g>
<!-- branch_draft_reference&#45;&gt;project -->
<g id="edge2" class="edge">
<title>branch_draft_reference:w&#45;&gt;project:e</title>
<path fill="none" stroke="#000000" d="M189.0699,-318.4556C166.7709,-300.8772 191.2009,-234.7 152,-234.7"/>
<polygon fill="#000000" stroke="#000000" points="195.3473,-320.3682 201.9507,-326.1437 199.1737,-321.5341 203,-322.7 203,-322.7 203,-322.7 199.1737,-321.5341 204.0493,-319.2563 195.3473,-320.3682 195.3473,-320.3682"/>
<ellipse fill="none" stroke="#000000" cx="192.2863" cy="-319.4355" rx="3.2" ry="3.2"/>
</g>
<!-- drafted_branches -->
<g id="node4" class="node">
<title>drafted_branches</title>
<g id="a_node4"><a xlink:href="../../tables/drafted_branches.html" xlink:title="drafted_branches" target="_top">
<polygon fill="#ffffff" stroke="transparent" points="265.5,-120.2 265.5,-181.2 404.5,-181.2 404.5,-120.2 265.5,-120.2"/>
<polygon fill="#f5f5f5" stroke="transparent" points="266,-157.7 266,-180.7 405,-180.7 405,-157.7 266,-157.7"/>
<polygon fill="none" stroke="#000000" points="266,-157.7 266,-180.7 405,-180.7 405,-157.7 266,-157.7"/>
<text text-anchor="start" x="271" y="-166.3" font-family="Helvetica,sans-Serif" font-weight="bold" font-size="11.00" fill="#000000">drafted_branches</text>
<text text-anchor="start" x="370.5219" y="-165.8" font-family="Helvetica,sans-Serif" font-size="11.00" fill="#000000">[table]</text>
<polygon fill="none" stroke="#000000" points="266,-138.7 266,-157.7 405,-157.7 405,-138.7 266,-138.7"/>
<text text-anchor="start" x="269" y="-144.8" font-family="Helvetica,sans-Serif" font-size="11.00" fill="#000000">...</text>
<polygon fill="#ffffff" stroke="transparent" points="266,-119.7 266,-138.7 334,-138.7 334,-119.7 266,-119.7"/>
<polygon fill="none" stroke="#000000" points="266,-119.7 266,-138.7 334,-138.7 334,-119.7 266,-119.7"/>
<text text-anchor="start" x="269" y="-125.8" font-family="Helvetica,sans-Serif" font-size="11.00" fill="#000000">&lt; 1</text>
<polygon fill="#ffffff" stroke="transparent" points="334,-119.7 334,-138.7 369,-138.7 369,-119.7 334,-119.7"/>
<polygon fill="none" stroke="#000000" points="334,-119.7 334,-138.7 369,-138.7 369,-119.7 334,-119.7"/>
<text text-anchor="start" x="359.8862" y="-125.8" font-family="Helvetica,sans-Serif" font-size="11.00" fill="#000000"> &#160;</text>
<polygon fill="#ffffff" stroke="transparent" points="369,-119.7 369,-138.7 405,-138.7 405,-119.7 369,-119.7"/>
<polygon fill="none" stroke="#000000" points="369,-119.7 369,-138.7 405,-138.7 405,-119.7 369,-119.7"/>
<text text-anchor="start" x="395.8862" y="-125.8" font-family="Helvetica,sans-Serif" font-size="11.00" fill="#000000"> &#160;</text>
</a>
</g>
</g>
<!-- drafted_branches&#45;&gt;project -->
<g id="edge3" class="edge">
<title>drafted_branches:w&#45;&gt;project:e</title>
<path fill="none" stroke="#000000" d="M251.3673,-148.9716C225.8893,-153.8787 218.4563,-172.327 193,-192.7 172.6332,-208.9999 178.0863,-234.7 152,-234.7"/>
<polygon fill="#000000" stroke="#000000" points="258.03,-148.3926 266.3117,-151.2865 262.015,-148.0463 266,-147.7 266,-147.7 266,-147.7 262.015,-148.0463 265.6883,-144.1135 258.03,-148.3926 258.03,-148.3926"/>
<ellipse fill="none" stroke="#000000" cx="254.8421" cy="-148.6697" rx="3.2" ry="3.2"/>
</g>
<!-- favorite_projects -->
<g id="node5" class="node">
<title>favorite_projects</title>
<g id="a_node5"><a xlink:href="../../tables/favorite_projects.html" xlink:title="favorite_projects" target="_top">
<polygon fill="#ffffff" stroke="transparent" points="267.5,-38.2 267.5,-99.2 402.5,-99.2 402.5,-38.2 267.5,-38.2"/>
<polygon fill="#f5f5f5" stroke="transparent" points="268,-75.7 268,-98.7 403,-98.7 403,-75.7 268,-75.7"/>
<polygon fill="none" stroke="#000000" points="268,-75.7 268,-98.7 403,-98.7 403,-75.7 268,-75.7"/>
<text text-anchor="start" x="273" y="-84.3" font-family="Helvetica,sans-Serif" font-weight="bold" font-size="11.00" fill="#000000">favorite_projects</text>
<text text-anchor="start" x="368.5219" y="-83.8" font-family="Helvetica,sans-Serif" font-size="11.00" fill="#000000">[table]</text>
<polygon fill="none" stroke="#000000" points="268,-56.7 268,-75.7 403,-75.7 403,-56.7 268,-56.7"/>
<text text-anchor="start" x="271" y="-62.8" font-family="Helvetica,sans-Serif" font-size="11.00" fill="#000000">...</text>
<polygon fill="#ffffff" stroke="transparent" points="268,-37.7 268,-56.7 334,-56.7 334,-37.7 268,-37.7"/>
<polygon fill="none" stroke="#000000" points="268,-37.7 268,-56.7 334,-56.7 334,-37.7 268,-37.7"/>
<text text-anchor="start" x="271" y="-43.8" font-family="Helvetica,sans-Serif" font-size="11.00" fill="#000000">&lt; 2</text>
<polygon fill="#ffffff" stroke="transparent" points="334,-37.7 334,-56.7 368,-56.7 368,-37.7 334,-37.7"/>
<polygon fill="none" stroke="#000000" points="334,-37.7 334,-56.7 368,-56.7 368,-37.7 334,-37.7"/>
<text text-anchor="start" x="358.8862" y="-43.8" font-family="Helvetica,sans-Serif" font-size="11.00" fill="#000000"> &#160;</text>
<polygon fill="#ffffff" stroke="transparent" points="368,-37.7 368,-56.7 403,-56.7 403,-37.7 368,-37.7"/>
<polygon fill="none" stroke="#000000" points="368,-37.7 368,-56.7 403,-56.7 403,-37.7 368,-37.7"/>
<text text-anchor="start" x="393.8862" y="-43.8" font-family="Helvetica,sans-Serif" font-size="11.00" fill="#000000"> &#160;</text>
</a>
</g>
</g>
<!-- favorite_projects&#45;&gt;project -->
<g id="edge4" class="edge">
<title>favorite_projects:w&#45;&gt;project:e</title>
<path fill="none" stroke="#000000" d="M253.5389,-66.4861C225.819,-69.8073 213.9416,-83.7286 193,-109.7 156.3,-155.2146 210.4677,-234.7 152,-234.7"/>
<polygon fill="#000000" stroke="#000000" points="260.0118,-66.1343 268.1954,-69.2947 264.0059,-65.9171 268,-65.7 268,-65.7 268,-65.7 264.0059,-65.9171 267.8046,-62.1053 260.0118,-66.1343 260.0118,-66.1343"/>
<ellipse fill="none" stroke="#000000" cx="256.8165" cy="-66.308" rx="3.2" ry="3.2"/>
</g>
</g>
</svg>
