<?xml version="1.0" encoding="UTF-8" standalone="no"?>
<!DOCTYPE svg PUBLIC "-//W3C//DTD SVG 1.1//EN"
 "http://www.w3.org/Graphics/SVG/1.1/DTD/svg11.dtd">
<!-- Generated by graphviz version 2.40.1 (20161225.0304)
 -->
<!-- Title: oneDegreeRelationshipsDiagram Pages: 1 -->
<svg width="388pt" height="190pt"
 viewBox="0.00 0.00 388.00 189.70" xmlns="http://www.w3.org/2000/svg" xmlns:xlink="http://www.w3.org/1999/xlink">
<g id="graph0" class="graph" transform="scale(1 1) rotate(0) translate(4 185.7)">
<title>oneDegreeRelationshipsDiagram</title>
<polygon fill="#ffffff" stroke="transparent" points="-4,4 -4,-185.7 384,-185.7 384,4 -4,4"/>
<text text-anchor="middle" x="72.4936" y="-7.3" font-family="Helvetica,sans-Serif" font-size="11.00" fill="#000000">Generated by SchemaSpy</text>
<!-- build_depends -->
<g id="node1" class="node">
<title>build_depends</title>
<g id="a_node1"><a xlink:href="../../tables/build_depends.html" xlink:title="build_depends" target="_top">
<polygon fill="#ffffff" stroke="transparent" points="154,-87.7 154,-177.7 372,-177.7 372,-87.7 154,-87.7"/>
<polygon fill="#f5f5f5" stroke="transparent" points="156,-152.7 156,-175.7 370,-175.7 370,-152.7 156,-152.7"/>
<polygon fill="none" stroke="#000000" points="156,-152.7 156,-175.7 370,-175.7 370,-152.7 156,-152.7"/>
<text text-anchor="start" x="161" y="-161.3" font-family="Helvetica,sans-Serif" font-weight="bold" font-size="11.00" fill="#000000">build_depends</text>
<text text-anchor="start" x="335.0437" y="-160.8" font-family="Helvetica,sans-Serif" font-size="11.00" fill="#000000">[table]</text>
<polygon fill="none" stroke="#000000" points="156,-130.7 156,-152.7 261,-152.7 261,-130.7 156,-130.7"/>
<image xlink:href="../../images/foreignKeys.png" width="11px" height="12px" preserveAspectRatio="xMinYMin meet" x="161" y="-147.7"/>
<text text-anchor="start" x="176" y="-137.8" font-family="Helvetica,sans-Serif" font-size="11.00" fill="#000000">build_id</text>
<polygon fill="none" stroke="#000000" points="261,-130.7 261,-152.7 370,-152.7 370,-130.7 261,-130.7"/>
<text text-anchor="start" x="263.5344" y="-138.4" font-family="Helvetica,sans-Serif" font-size="11.00" fill="#000000">varchar[2147483647]</text>
<polygon fill="#ffffff" stroke="transparent" points="156,-108.7 156,-130.7 261,-130.7 261,-108.7 156,-108.7"/>
<polygon fill="none" stroke="#000000" points="156,-108.7 156,-130.7 261,-130.7 261,-108.7 156,-108.7"/>
<image xlink:href="../../images/foreignKeys.png" width="11px" height="12px" preserveAspectRatio="xMinYMin meet" x="161" y="-125.7"/>
<text text-anchor="start" x="176" y="-115.8" font-family="Helvetica,sans-Serif" font-size="11.00" fill="#000000">depend_id</text>
<polygon fill="none" stroke="#000000" points="261,-108.7 261,-130.7 370,-130.7 370,-108.7 261,-108.7"/>
<text text-anchor="start" x="263.5344" y="-116.4" font-family="Helvetica,sans-Serif" font-size="11.00" fill="#000000">varchar[2147483647]</text>
<polygon fill="#ffffff" stroke="transparent" points="156,-89.7 156,-108.7 213,-108.7 213,-89.7 156,-89.7"/>
<polygon fill="none" stroke="#000000" points="156,-89.7 156,-108.7 213,-108.7 213,-89.7 156,-89.7"/>
<text text-anchor="start" x="159" y="-95.8" font-family="Helvetica,sans-Serif" font-size="11.00" fill="#000000">&lt; 2</text>
<polygon fill="#ffffff" stroke="transparent" points="213,-89.7 213,-108.7 261,-108.7 261,-89.7 213,-89.7"/>
<polygon fill="none" stroke="#000000" points="213,-89.7 213,-108.7 261,-108.7 261,-89.7 213,-89.7"/>
<text text-anchor="start" x="251.8862" y="-95.8" font-family="Helvetica,sans-Serif" font-size="11.00" fill="#000000"> &#160;</text>
<polygon fill="#ffffff" stroke="transparent" points="261,-89.7 261,-108.7 370,-108.7 370,-89.7 261,-89.7"/>
<polygon fill="none" stroke="#000000" points="261,-89.7 261,-108.7 370,-108.7 370,-89.7 261,-89.7"/>
<text text-anchor="start" x="351.4053" y="-95.8" font-family="Helvetica,sans-Serif" font-size="11.00" fill="#000000">0 &gt;</text>
<polygon fill="none" stroke="#000000" stroke-width="2" points="155,-88.7 155,-176.7 371,-176.7 371,-88.7 155,-88.7"/>
</a>
</g>
</g>
<!-- build -->
<g id="node2" class="node">
<title>build</title>
<g id="a_node2"><a xlink:href="../../tables/build.html" xlink:title="build" target="_top">
<polygon fill="#ffffff" stroke="transparent" points="8,-38.2 8,-165.2 105,-165.2 105,-38.2 8,-38.2"/>
<polygon fill="#f5f5f5" stroke="transparent" points="8.5,-141.7 8.5,-164.7 105.5,-164.7 105.5,-141.7 8.5,-141.7"/>
<polygon fill="none" stroke="#000000" points="8.5,-141.7 8.5,-164.7 105.5,-164.7 105.5,-141.7 8.5,-141.7"/>
<text text-anchor="start" x="13.5" y="-150.3" font-family="Helvetica,sans-Serif" font-weight="bold" font-size="11.00" fill="#000000">build</text>
<text text-anchor="start" x="70.5437" y="-149.8" font-family="Helvetica,sans-Serif" font-size="11.00" fill="#000000">[table]</text>
<polygon fill="none" stroke="#000000" points="8.5,-119.7 8.5,-141.7 105.5,-141.7 105.5,-119.7 8.5,-119.7"/>
<image xlink:href="../../images/primaryKeys.png" width="11px" height="12px" preserveAspectRatio="xMinYMin meet" x="13.5" y="-136.7"/>
<text text-anchor="start" x="28.5" y="-126.8" font-family="Helvetica,sans-Serif" font-size="11.00" fill="#000000">build_id</text>
<polygon fill="#ffffff" stroke="transparent" points="8.5,-97.7 8.5,-119.7 105.5,-119.7 105.5,-97.7 8.5,-97.7"/>
<polygon fill="none" stroke="#000000" points="8.5,-97.7 8.5,-119.7 105.5,-119.7 105.5,-97.7 8.5,-97.7"/>
<text text-anchor="start" x="28.5" y="-104.8" font-family="Helvetica,sans-Serif" font-size="11.00" fill="#000000">status</text>
<polygon fill="none" stroke="#000000" points="8.5,-75.7 8.5,-97.7 105.5,-97.7 105.5,-75.7 8.5,-75.7"/>
<image xlink:href="../../images/foreignKeys.png" width="11px" height="12px" preserveAspectRatio="xMinYMin meet" x="13.5" y="-92.7"/>
<text text-anchor="start" x="28.5" y="-82.8" font-family="Helvetica,sans-Serif" font-size="11.00" fill="#000000">package_id</text>
<polygon fill="none" stroke="#000000" points="8.5,-56.7 8.5,-75.7 105.5,-75.7 105.5,-56.7 8.5,-56.7"/>
<text text-anchor="start" x="11.5" y="-62.8" font-family="Helvetica,sans-Serif" font-size="11.00" fill="#000000">...</text>
<polygon fill="#ffffff" stroke="transparent" points="8.5,-37.7 8.5,-56.7 50.5,-56.7 50.5,-37.7 8.5,-37.7"/>
<polygon fill="none" stroke="#000000" points="8.5,-37.7 8.5,-56.7 50.5,-56.7 50.5,-37.7 8.5,-37.7"/>
<text text-anchor="start" x="11.5" y="-43.8" font-family="Helvetica,sans-Serif" font-size="11.00" fill="#000000">&lt; 1</text>
<polygon fill="#ffffff" stroke="transparent" points="50.5,-37.7 50.5,-56.7 73.5,-56.7 73.5,-37.7 50.5,-37.7"/>
<polygon fill="none" stroke="#000000" points="50.5,-37.7 50.5,-56.7 73.5,-56.7 73.5,-37.7 50.5,-37.7"/>
<text text-anchor="start" x="64.3862" y="-43.8" font-family="Helvetica,sans-Serif" font-size="11.00" fill="#000000"> &#160;</text>
<polygon fill="#ffffff" stroke="transparent" points="73.5,-37.7 73.5,-56.7 105.5,-56.7 105.5,-37.7 73.5,-37.7"/>
<polygon fill="none" stroke="#000000" points="73.5,-37.7 73.5,-56.7 105.5,-56.7 105.5,-37.7 73.5,-37.7"/>
<text text-anchor="start" x="86.9053" y="-43.8" font-family="Helvetica,sans-Serif" font-size="11.00" fill="#000000">5 &gt;</text>
</a>
</g>
</g>
<!-- build_depends&#45;&gt;build -->
<g id="edge1" class="edge">
<title>build_depends:w&#45;&gt;build:e</title>
<path fill="none" stroke="#000000" d="M141.6489,-139.9813C129.5992,-136.8875 122.728,-130.7 105.5,-130.7"/>
<polygon fill="#000000" stroke="#000000" points="148.0568,-140.7486 155.5719,-145.2745 152.0284,-141.2243 156,-141.7 156,-141.7 156,-141.7 152.0284,-141.2243 156.4281,-138.1255 148.0568,-140.7486 148.0568,-140.7486"/>
<ellipse fill="none" stroke="#000000" cx="144.8795" cy="-140.3681" rx="3.2" ry="3.2"/>
</g>
<!-- build_depends&#45;&gt;build -->
<g id="edge2" class="edge">
<title>build_depends:w&#45;&gt;build:e</title>
<path fill="none" stroke="#000000" d="M141.6489,-121.4188C129.5992,-124.5125 122.728,-130.7 105.5,-130.7"/>
<polygon fill="#000000" stroke="#000000" points="148.0568,-120.6514 156.4281,-123.2745 152.0284,-120.1757 156,-119.7 156,-119.7 156,-119.7 152.0284,-120.1757 155.5719,-116.1255 148.0568,-120.6514 148.0568,-120.6514"/>
<ellipse fill="none" stroke="#000000" cx="144.8795" cy="-121.0319" rx="3.2" ry="3.2"/>
</g>
</g>
</svg>
