<?xml version="1.0" encoding="UTF-8" standalone="no"?>
<!DOCTYPE svg PUBLIC "-//W3C//DTD SVG 1.1//EN"
 "http://www.w3.org/Graphics/SVG/1.1/DTD/svg11.dtd">
<!-- Generated by graphviz version 2.40.1 (20161225.0304)
 -->
<!-- Title: twoDegreesRelationshipsDiagram Pages: 1 -->
<svg width="447pt" height="633pt"
 viewBox="0.00 0.00 447.00 633.20" xmlns="http://www.w3.org/2000/svg" xmlns:xlink="http://www.w3.org/1999/xlink">
<g id="graph0" class="graph" transform="scale(1 1) rotate(0) translate(4 629.2)">
<title>twoDegreesRelationshipsDiagram</title>
<polygon fill="#ffffff" stroke="transparent" points="-4,4 -4,-629.2 443,-629.2 443,4 -4,4"/>
<text text-anchor="middle" x="72.4936" y="-7.3" font-family="Helvetica,sans-Serif" font-size="11.00" fill="#000000">Generated by SchemaSpy</text>
<!-- branch_draft_content -->
<g id="node1" class="node">
<title>branch_draft_content</title>
<g id="a_node1"><a xlink:href="../../tables/branch_draft_content.html" xlink:title="branch_draft_content" target="_top">
<polygon fill="#ffffff" stroke="transparent" points="235,-560.2 235,-621.2 397,-621.2 397,-560.2 235,-560.2"/>
<polygon fill="#f5f5f5" stroke="transparent" points="235,-597.7 235,-620.7 397,-620.7 397,-597.7 235,-597.7"/>
<polygon fill="none" stroke="#000000" points="235,-597.7 235,-620.7 397,-620.7 397,-597.7 235,-597.7"/>
<text text-anchor="start" x="240" y="-606.3" font-family="Helvetica,sans-Serif" font-weight="bold" font-size="11.00" fill="#000000">branch_draft_content</text>
<text text-anchor="start" x="362.5219" y="-605.8" font-family="Helvetica,sans-Serif" font-size="11.00" fill="#000000">[table]</text>
<polygon fill="none" stroke="#000000" points="235,-578.7 235,-597.7 397,-597.7 397,-578.7 235,-578.7"/>
<text text-anchor="start" x="238" y="-584.8" font-family="Helvetica,sans-Serif" font-size="11.00" fill="#000000">...</text>
<polygon fill="#ffffff" stroke="transparent" points="235,-559.7 235,-578.7 314,-578.7 314,-559.7 235,-559.7"/>
<polygon fill="none" stroke="#000000" points="235,-559.7 235,-578.7 314,-578.7 314,-559.7 235,-559.7"/>
<text text-anchor="start" x="238" y="-565.8" font-family="Helvetica,sans-Serif" font-size="11.00" fill="#000000">&lt; 1</text>
<polygon fill="#ffffff" stroke="transparent" points="314,-559.7 314,-578.7 355,-578.7 355,-559.7 314,-559.7"/>
<polygon fill="none" stroke="#000000" points="314,-559.7 314,-578.7 355,-578.7 355,-559.7 314,-559.7"/>
<text text-anchor="start" x="345.8862" y="-565.8" font-family="Helvetica,sans-Serif" font-size="11.00" fill="#000000"> &#160;</text>
<polygon fill="#ffffff" stroke="transparent" points="355,-559.7 355,-578.7 397,-578.7 397,-559.7 355,-559.7"/>
<polygon fill="none" stroke="#000000" points="355,-559.7 355,-578.7 397,-578.7 397,-559.7 355,-559.7"/>
<text text-anchor="start" x="387.8862" y="-565.8" font-family="Helvetica,sans-Serif" font-size="11.00" fill="#000000"> &#160;</text>
</a>
</g>
</g>
<!-- project -->
<g id="node2" class="node">
<title>project</title>
<g id="a_node2"><a xlink:href="../../tables/project.html" xlink:title="project" target="_top">
<polygon fill="#ffffff" stroke="transparent" points="8,-416.2 8,-499.2 152,-499.2 152,-416.2 8,-416.2"/>
<polygon fill="#f5f5f5" stroke="transparent" points="8,-475.7 8,-498.7 152,-498.7 152,-475.7 8,-475.7"/>
<polygon fill="none" stroke="#000000" points="8,-475.7 8,-498.7 152,-498.7 152,-475.7 8,-475.7"/>
<text text-anchor="start" x="13" y="-484.3" font-family="Helvetica,sans-Serif" font-weight="bold" font-size="11.00" fill="#000000">project</text>
<text text-anchor="start" x="117.0437" y="-483.8" font-family="Helvetica,sans-Serif" font-size="11.00" fill="#000000">[table]</text>
<polygon fill="none" stroke="#000000" points="8,-453.7 8,-475.7 152,-475.7 152,-453.7 8,-453.7"/>
<image xlink:href="../../images/primaryKeys.png" width="11px" height="12px" preserveAspectRatio="xMinYMin meet" x="13" y="-470.7"/>
<text text-anchor="start" x="28" y="-460.8" font-family="Helvetica,sans-Serif" font-size="11.00" fill="#000000">id</text>
<polygon fill="none" stroke="#000000" points="8,-434.7 8,-453.7 152,-453.7 152,-434.7 8,-434.7"/>
<text text-anchor="start" x="11" y="-440.8" font-family="Helvetica,sans-Serif" font-size="11.00" fill="#000000">...</text>
<polygon fill="#ffffff" stroke="transparent" points="8,-415.7 8,-434.7 69,-434.7 69,-415.7 8,-415.7"/>
<polygon fill="none" stroke="#000000" points="8,-415.7 8,-434.7 69,-434.7 69,-415.7 8,-415.7"/>
<text text-anchor="start" x="11" y="-421.8" font-family="Helvetica,sans-Serif" font-size="11.00" fill="#000000"> &#160;</text>
<polygon fill="#ffffff" stroke="transparent" points="69,-415.7 69,-434.7 106,-434.7 106,-415.7 69,-415.7"/>
<polygon fill="none" stroke="#000000" points="69,-415.7 69,-434.7 106,-434.7 106,-415.7 69,-415.7"/>
<text text-anchor="start" x="96.8862" y="-421.8" font-family="Helvetica,sans-Serif" font-size="11.00" fill="#000000"> &#160;</text>
<polygon fill="#ffffff" stroke="transparent" points="106,-415.7 106,-434.7 152,-434.7 152,-415.7 106,-415.7"/>
<polygon fill="none" stroke="#000000" points="106,-415.7 106,-434.7 152,-434.7 152,-415.7 106,-415.7"/>
<text text-anchor="start" x="133.4053" y="-421.8" font-family="Helvetica,sans-Serif" font-size="11.00" fill="#000000">4 &gt;</text>
</a>
</g>
</g>
<!-- branch_draft_content&#45;&gt;project -->
<g id="edge1" class="edge">
<title>branch_draft_content:w&#45;&gt;project:e</title>
<path fill="none" stroke="#000000" d="M220.6877,-584.9593C208.2762,-579.2083 204.5468,-565.1312 193,-549.7 167.8714,-516.1178 193.9429,-464.7 152,-464.7"/>
<polygon fill="#000000" stroke="#000000" points="227.1428,-586.1953 234.3229,-591.2358 231.0714,-586.9477 235,-587.7 235,-587.7 235,-587.7 231.0714,-586.9477 235.6771,-584.1642 227.1428,-586.1953 227.1428,-586.1953"/>
<ellipse fill="none" stroke="#000000" cx="223.9999" cy="-585.5935" rx="3.2" ry="3.2"/>
</g>
<!-- branch_draft_reference -->
<g id="node3" class="node">
<title>branch_draft_reference</title>
<g id="a_node3"><a xlink:href="../../tables/branch_draft_reference.html" xlink:title="branch_draft_reference" target="_top">
<polygon fill="#ffffff" stroke="transparent" points="229.5,-478.2 229.5,-539.2 402.5,-539.2 402.5,-478.2 229.5,-478.2"/>
<polygon fill="#f5f5f5" stroke="transparent" points="230,-515.7 230,-538.7 403,-538.7 403,-515.7 230,-515.7"/>
<polygon fill="none" stroke="#000000" points="230,-515.7 230,-538.7 403,-538.7 403,-515.7 230,-515.7"/>
<text text-anchor="start" x="235" y="-524.3" font-family="Helvetica,sans-Serif" font-weight="bold" font-size="11.00" fill="#000000">branch_draft_reference</text>
<text text-anchor="start" x="368.5219" y="-523.8" font-family="Helvetica,sans-Serif" font-size="11.00" fill="#000000">[table]</text>
<polygon fill="none" stroke="#000000" points="230,-496.7 230,-515.7 403,-515.7 403,-496.7 230,-496.7"/>
<text text-anchor="start" x="233" y="-502.8" font-family="Helvetica,sans-Serif" font-size="11.00" fill="#000000">...</text>
<polygon fill="#ffffff" stroke="transparent" points="230,-477.7 230,-496.7 315,-496.7 315,-477.7 230,-477.7"/>
<polygon fill="none" stroke="#000000" points="230,-477.7 230,-496.7 315,-496.7 315,-477.7 230,-477.7"/>
<text text-anchor="start" x="233" y="-483.8" font-family="Helvetica,sans-Serif" font-size="11.00" fill="#000000">&lt; 1</text>
<polygon fill="#ffffff" stroke="transparent" points="315,-477.7 315,-496.7 359,-496.7 359,-477.7 315,-477.7"/>
<polygon fill="none" stroke="#000000" points="315,-477.7 315,-496.7 359,-496.7 359,-477.7 315,-477.7"/>
<text text-anchor="start" x="349.8862" y="-483.8" font-family="Helvetica,sans-Serif" font-size="11.00" fill="#000000"> &#160;</text>
<polygon fill="#ffffff" stroke="transparent" points="359,-477.7 359,-496.7 403,-496.7 403,-477.7 359,-477.7"/>
<polygon fill="none" stroke="#000000" points="359,-477.7 359,-496.7 403,-496.7 403,-477.7 359,-477.7"/>
<text text-anchor="start" x="393.8862" y="-483.8" font-family="Helvetica,sans-Serif" font-size="11.00" fill="#000000"> &#160;</text>
</a>
</g>
</g>
<!-- branch_draft_reference&#45;&gt;project -->
<g id="edge2" class="edge">
<title>branch_draft_reference:w&#45;&gt;project:e</title>
<path fill="none" stroke="#000000" d="M215.6009,-503.4957C190.1472,-494.9795 185.6567,-464.7 152,-464.7"/>
<polygon fill="#000000" stroke="#000000" points="222.0921,-504.4893 229.4552,-509.2585 226.0461,-505.0947 230,-505.7 230,-505.7 230,-505.7 226.0461,-505.0947 230.5448,-502.1415 222.0921,-504.4893 222.0921,-504.4893"/>
<ellipse fill="none" stroke="#000000" cx="218.929" cy="-504.0051" rx="3.2" ry="3.2"/>
</g>
<!-- drafted_branches -->
<g id="node4" class="node">
<title>drafted_branches</title>
<g id="a_node4"><a xlink:href="../../tables/drafted_branches.html" xlink:title="drafted_branches" target="_top">
<polygon fill="#ffffff" stroke="transparent" points="246.5,-396.2 246.5,-457.2 385.5,-457.2 385.5,-396.2 246.5,-396.2"/>
<polygon fill="#f5f5f5" stroke="transparent" points="247,-433.7 247,-456.7 386,-456.7 386,-433.7 247,-433.7"/>
<polygon fill="none" stroke="#000000" points="247,-433.7 247,-456.7 386,-456.7 386,-433.7 247,-433.7"/>
<text text-anchor="start" x="252" y="-442.3" font-family="Helvetica,sans-Serif" font-weight="bold" font-size="11.00" fill="#000000">drafted_branches</text>
<text text-anchor="start" x="351.5219" y="-441.8" font-family="Helvetica,sans-Serif" font-size="11.00" fill="#000000">[table]</text>
<polygon fill="none" stroke="#000000" points="247,-414.7 247,-433.7 386,-433.7 386,-414.7 247,-414.7"/>
<text text-anchor="start" x="250" y="-420.8" font-family="Helvetica,sans-Serif" font-size="11.00" fill="#000000">...</text>
<polygon fill="#ffffff" stroke="transparent" points="247,-395.7 247,-414.7 315,-414.7 315,-395.7 247,-395.7"/>
<polygon fill="none" stroke="#000000" points="247,-395.7 247,-414.7 315,-414.7 315,-395.7 247,-395.7"/>
<text text-anchor="start" x="250" y="-401.8" font-family="Helvetica,sans-Serif" font-size="11.00" fill="#000000">&lt; 1</text>
<polygon fill="#ffffff" stroke="transparent" points="315,-395.7 315,-414.7 350,-414.7 350,-395.7 315,-395.7"/>
<polygon fill="none" stroke="#000000" points="315,-395.7 315,-414.7 350,-414.7 350,-395.7 315,-395.7"/>
<text text-anchor="start" x="340.8862" y="-401.8" font-family="Helvetica,sans-Serif" font-size="11.00" fill="#000000"> &#160;</text>
<polygon fill="#ffffff" stroke="transparent" points="350,-395.7 350,-414.7 386,-414.7 386,-395.7 350,-395.7"/>
<polygon fill="none" stroke="#000000" points="350,-395.7 350,-414.7 386,-414.7 386,-395.7 350,-395.7"/>
<text text-anchor="start" x="376.8862" y="-401.8" font-family="Helvetica,sans-Serif" font-size="11.00" fill="#000000"> &#160;</text>
</a>
</g>
</g>
<!-- drafted_branches&#45;&gt;project -->
<g id="edge3" class="edge">
<title>drafted_branches:w&#45;&gt;project:e</title>
<path fill="none" stroke="#000000" d="M232.4645,-425.2572C199.714,-432.7463 192.5975,-464.7 152,-464.7"/>
<polygon fill="#000000" stroke="#000000" points="239.0455,-424.5522 247.3835,-427.2795 243.0228,-424.1261 247,-423.7 247,-423.7 247,-423.7 243.0228,-424.1261 246.6165,-420.1205 239.0455,-424.5522 239.0455,-424.5522"/>
<ellipse fill="none" stroke="#000000" cx="235.8637" cy="-424.8931" rx="3.2" ry="3.2"/>
</g>
<!-- external_identity -->
<g id="node5" class="node">
<title>external_identity</title>
<g id="a_node5"><a xlink:href="../../tables/external_identity.html" xlink:title="external_identity" target="_top">
<polygon fill="#ffffff" stroke="transparent" points="249,-202.2 249,-263.2 383,-263.2 383,-202.2 249,-202.2"/>
<polygon fill="#f5f5f5" stroke="transparent" points="249,-239.7 249,-262.7 383,-262.7 383,-239.7 249,-239.7"/>
<polygon fill="none" stroke="#000000" points="249,-239.7 249,-262.7 383,-262.7 383,-239.7 249,-239.7"/>
<text text-anchor="start" x="254" y="-248.3" font-family="Helvetica,sans-Serif" font-weight="bold" font-size="11.00" fill="#000000">external_identity</text>
<text text-anchor="start" x="348.5219" y="-247.8" font-family="Helvetica,sans-Serif" font-size="11.00" fill="#000000">[table]</text>
<polygon fill="none" stroke="#000000" points="249,-220.7 249,-239.7 383,-239.7 383,-220.7 249,-220.7"/>
<text text-anchor="start" x="252" y="-226.8" font-family="Helvetica,sans-Serif" font-size="11.00" fill="#000000">...</text>
<polygon fill="#ffffff" stroke="transparent" points="249,-201.7 249,-220.7 314,-220.7 314,-201.7 249,-201.7"/>
<polygon fill="none" stroke="#000000" points="249,-201.7 249,-220.7 314,-220.7 314,-201.7 249,-201.7"/>
<text text-anchor="start" x="252" y="-207.8" font-family="Helvetica,sans-Serif" font-size="11.00" fill="#000000">&lt; 1</text>
<polygon fill="#ffffff" stroke="transparent" points="314,-201.7 314,-220.7 348,-220.7 348,-201.7 314,-201.7"/>
<polygon fill="none" stroke="#000000" points="314,-201.7 314,-220.7 348,-220.7 348,-201.7 314,-201.7"/>
<text text-anchor="start" x="338.8862" y="-207.8" font-family="Helvetica,sans-Serif" font-size="11.00" fill="#000000"> &#160;</text>
<polygon fill="#ffffff" stroke="transparent" points="348,-201.7 348,-220.7 383,-220.7 383,-201.7 348,-201.7"/>
<polygon fill="none" stroke="#000000" points="348,-201.7 348,-220.7 383,-220.7 383,-201.7 348,-201.7"/>
<text text-anchor="start" x="373.8862" y="-207.8" font-family="Helvetica,sans-Serif" font-size="11.00" fill="#000000"> &#160;</text>
</a>
</g>
</g>
<!-- user_data -->
<g id="node6" class="node">
<title>user_data</title>
<g id="a_node6"><a xlink:href="../../tables/user_data.html" xlink:title="user_data" target="_top">
<polygon fill="#ffffff" stroke="transparent" points="14,-96.2 14,-223.2 146,-223.2 146,-96.2 14,-96.2"/>
<polygon fill="#f5f5f5" stroke="transparent" points="14,-199.7 14,-222.7 146,-222.7 146,-199.7 14,-199.7"/>
<polygon fill="none" stroke="#000000" points="14,-199.7 14,-222.7 146,-222.7 146,-199.7 14,-199.7"/>
<text text-anchor="start" x="19" y="-208.3" font-family="Helvetica,sans-Serif" font-weight="bold" font-size="11.00" fill="#000000">user_data</text>
<text text-anchor="start" x="111.0437" y="-207.8" font-family="Helvetica,sans-Serif" font-size="11.00" fill="#000000">[table]</text>
<polygon fill="none" stroke="#000000" points="14,-177.7 14,-199.7 146,-199.7 146,-177.7 14,-177.7"/>
<image xlink:href="../../images/primaryKeys.png" width="11px" height="12px" preserveAspectRatio="xMinYMin meet" x="19" y="-194.7"/>
<text text-anchor="start" x="34" y="-184.8" font-family="Helvetica,sans-Serif" font-size="11.00" fill="#000000">user_id</text>
<polygon fill="#ffffff" stroke="transparent" points="14,-155.7 14,-177.7 146,-177.7 146,-155.7 14,-155.7"/>
<polygon fill="none" stroke="#000000" points="14,-155.7 14,-177.7 146,-177.7 146,-155.7 14,-155.7"/>
<text text-anchor="start" x="34" y="-162.8" font-family="Helvetica,sans-Serif" font-size="11.00" fill="#000000">email</text>
<polygon fill="#ffffff" stroke="transparent" points="14,-133.7 14,-155.7 146,-155.7 146,-133.7 14,-133.7"/>
<polygon fill="none" stroke="#000000" points="14,-133.7 14,-155.7 146,-155.7 146,-133.7 14,-133.7"/>
<text text-anchor="start" x="34" y="-140.8" font-family="Helvetica,sans-Serif" font-size="11.00" fill="#000000">private_package_id</text>
<polygon fill="none" stroke="#000000" points="14,-114.7 14,-133.7 146,-133.7 146,-114.7 14,-114.7"/>
<text text-anchor="start" x="17" y="-120.8" font-family="Helvetica,sans-Serif" font-size="11.00" fill="#000000">...</text>
<polygon fill="#ffffff" stroke="transparent" points="14,-95.7 14,-114.7 69,-114.7 69,-95.7 14,-95.7"/>
<polygon fill="none" stroke="#000000" points="14,-95.7 14,-114.7 69,-114.7 69,-95.7 14,-95.7"/>
<text text-anchor="start" x="17" y="-101.8" font-family="Helvetica,sans-Serif" font-size="11.00" fill="#000000"> &#160;</text>
<polygon fill="#ffffff" stroke="transparent" points="69,-95.7 69,-114.7 103,-114.7 103,-95.7 69,-95.7"/>
<polygon fill="none" stroke="#000000" points="69,-95.7 69,-114.7 103,-114.7 103,-95.7 69,-95.7"/>
<text text-anchor="start" x="93.8862" y="-101.8" font-family="Helvetica,sans-Serif" font-size="11.00" fill="#000000"> &#160;</text>
<polygon fill="#ffffff" stroke="transparent" points="103,-95.7 103,-114.7 146,-114.7 146,-95.7 103,-95.7"/>
<polygon fill="none" stroke="#000000" points="103,-95.7 103,-114.7 146,-114.7 146,-95.7 103,-95.7"/>
<text text-anchor="start" x="127.4053" y="-101.8" font-family="Helvetica,sans-Serif" font-size="11.00" fill="#000000">4 &gt;</text>
</a>
</g>
</g>
<!-- external_identity&#45;&gt;user_data -->
<g id="edge4" class="edge">
<title>external_identity:w&#45;&gt;user_data:e</title>
<path fill="none" stroke="#000000" d="M234.3239,-228.3359C198.2176,-221.2217 189.8822,-188.7 146,-188.7"/>
<polygon fill="#000000" stroke="#000000" points="241.0343,-228.9595 248.6668,-233.2845 245.0172,-229.3298 249,-229.7 249,-229.7 249,-229.7 245.0172,-229.3298 249.3332,-226.1155 241.0343,-228.9595 241.0343,-228.9595"/>
<ellipse fill="none" stroke="#000000" cx="237.8481" cy="-228.6634" rx="3.2" ry="3.2"/>
</g>
<!-- favorite_packages -->
<g id="node7" class="node">
<title>favorite_packages</title>
<g id="a_node7"><a xlink:href="../../tables/favorite_packages.html" xlink:title="favorite_packages" target="_top">
<polygon fill="#ffffff" stroke="transparent" points="244.5,-120.2 244.5,-181.2 387.5,-181.2 387.5,-120.2 244.5,-120.2"/>
<polygon fill="#f5f5f5" stroke="transparent" points="245,-157.7 245,-180.7 388,-180.7 388,-157.7 245,-157.7"/>
<polygon fill="none" stroke="#000000" points="245,-157.7 245,-180.7 388,-180.7 388,-157.7 245,-157.7"/>
<text text-anchor="start" x="250" y="-166.3" font-family="Helvetica,sans-Serif" font-weight="bold" font-size="11.00" fill="#000000">favorite_packages</text>
<text text-anchor="start" x="353.5219" y="-165.8" font-family="Helvetica,sans-Serif" font-size="11.00" fill="#000000">[table]</text>
<polygon fill="none" stroke="#000000" points="245,-138.7 245,-157.7 388,-157.7 388,-138.7 245,-138.7"/>
<text text-anchor="start" x="248" y="-144.8" font-family="Helvetica,sans-Serif" font-size="11.00" fill="#000000">...</text>
<polygon fill="#ffffff" stroke="transparent" points="245,-119.7 245,-138.7 315,-138.7 315,-119.7 245,-119.7"/>
<polygon fill="none" stroke="#000000" points="245,-119.7 245,-138.7 315,-138.7 315,-119.7 245,-119.7"/>
<text text-anchor="start" x="248" y="-125.8" font-family="Helvetica,sans-Serif" font-size="11.00" fill="#000000">&lt; 2</text>
<polygon fill="#ffffff" stroke="transparent" points="315,-119.7 315,-138.7 351,-138.7 351,-119.7 315,-119.7"/>
<polygon fill="none" stroke="#000000" points="315,-119.7 315,-138.7 351,-138.7 351,-119.7 315,-119.7"/>
<text text-anchor="start" x="341.8862" y="-125.8" font-family="Helvetica,sans-Serif" font-size="11.00" fill="#000000"> &#160;</text>
<polygon fill="#ffffff" stroke="transparent" points="351,-119.7 351,-138.7 388,-138.7 388,-119.7 351,-119.7"/>
<polygon fill="none" stroke="#000000" points="351,-119.7 351,-138.7 388,-138.7 388,-119.7 351,-119.7"/>
<text text-anchor="start" x="378.8862" y="-125.8" font-family="Helvetica,sans-Serif" font-size="11.00" fill="#000000"> &#160;</text>
</a>
</g>
</g>
<!-- favorite_packages&#45;&gt;user_data -->
<g id="edge5" class="edge">
<title>favorite_packages:w&#45;&gt;user_data:e</title>
<path fill="none" stroke="#000000" d="M230.3767,-149.1592C195.9629,-156.4629 188.2291,-188.7 146,-188.7"/>
<polygon fill="#000000" stroke="#000000" points="237.0395,-148.4944 245.3575,-151.2822 241.0198,-148.0972 245,-147.7 245,-147.7 245,-147.7 241.0198,-148.0972 244.6425,-144.1178 237.0395,-148.4944 237.0395,-148.4944"/>
<ellipse fill="none" stroke="#000000" cx="233.8553" cy="-148.8122" rx="3.2" ry="3.2"/>
</g>
<!-- favorite_projects -->
<g id="node8" class="node">
<title>favorite_projects</title>
<g id="a_node8"><a xlink:href="../../tables/favorite_projects.html" xlink:title="favorite_projects" target="_top">
<polygon fill="#ffffff" stroke="transparent" points="201,-284.7 201,-374.7 431,-374.7 431,-284.7 201,-284.7"/>
<polygon fill="#f5f5f5" stroke="transparent" points="203,-349.7 203,-372.7 429,-372.7 429,-349.7 203,-349.7"/>
<polygon fill="none" stroke="#000000" points="203,-349.7 203,-372.7 429,-372.7 429,-349.7 203,-349.7"/>
<text text-anchor="start" x="208" y="-358.3" font-family="Helvetica,sans-Serif" font-weight="bold" font-size="11.00" fill="#000000">favorite_projects</text>
<text text-anchor="start" x="394.0437" y="-357.8" font-family="Helvetica,sans-Serif" font-size="11.00" fill="#000000">[table]</text>
<polygon fill="none" stroke="#000000" points="203,-327.7 203,-349.7 320,-349.7 320,-327.7 203,-327.7"/>
<image xlink:href="../../images/primaryKeys.png" width="11px" height="12px" preserveAspectRatio="xMinYMin meet" x="208" y="-344.7"/>
<text text-anchor="start" x="223" y="-334.8" font-family="Helvetica,sans-Serif" font-size="11.00" fill="#000000">user_id</text>
<polygon fill="none" stroke="#000000" points="320,-327.7 320,-349.7 429,-349.7 429,-327.7 320,-327.7"/>
<text text-anchor="start" x="322.5344" y="-335.4" font-family="Helvetica,sans-Serif" font-size="11.00" fill="#000000">varchar[2147483647]</text>
<polygon fill="none" stroke="#000000" points="203,-305.7 203,-327.7 320,-327.7 320,-305.7 203,-305.7"/>
<image xlink:href="../../images/primaryKeys.png" width="11px" height="12px" preserveAspectRatio="xMinYMin meet" x="208" y="-322.7"/>
<text text-anchor="start" x="223" y="-312.8" font-family="Helvetica,sans-Serif" font-size="11.00" fill="#000000">project_id</text>
<polygon fill="none" stroke="#000000" points="320,-305.7 320,-327.7 429,-327.7 429,-305.7 320,-305.7"/>
<text text-anchor="start" x="322.5344" y="-313.4" font-family="Helvetica,sans-Serif" font-size="11.00" fill="#000000">varchar[2147483647]</text>
<polygon fill="#ffffff" stroke="transparent" points="203,-286.7 203,-305.7 266,-305.7 266,-286.7 203,-286.7"/>
<polygon fill="none" stroke="#000000" points="203,-286.7 203,-305.7 266,-305.7 266,-286.7 203,-286.7"/>
<text text-anchor="start" x="206" y="-292.8" font-family="Helvetica,sans-Serif" font-size="11.00" fill="#000000">&lt; 2</text>
<polygon fill="#ffffff" stroke="transparent" points="266,-286.7 266,-305.7 320,-305.7 320,-286.7 266,-286.7"/>
<polygon fill="none" stroke="#000000" points="266,-286.7 266,-305.7 320,-305.7 320,-286.7 266,-286.7"/>
<text text-anchor="start" x="310.8862" y="-292.8" font-family="Helvetica,sans-Serif" font-size="11.00" fill="#000000"> &#160;</text>
<polygon fill="#ffffff" stroke="transparent" points="320,-286.7 320,-305.7 429,-305.7 429,-286.7 320,-286.7"/>
<polygon fill="none" stroke="#000000" points="320,-286.7 320,-305.7 429,-305.7 429,-286.7 320,-286.7"/>
<text text-anchor="start" x="410.4053" y="-292.8" font-family="Helvetica,sans-Serif" font-size="11.00" fill="#000000">0 &gt;</text>
<polygon fill="none" stroke="#000000" stroke-width="2" points="202,-285.7 202,-373.7 430,-373.7 430,-285.7 202,-285.7"/>
</a>
</g>
</g>
<!-- favorite_projects&#45;&gt;project -->
<g id="edge6" class="edge">
<title>favorite_projects:w&#45;&gt;project:e</title>
<path fill="none" stroke="#000000" d="M188.6212,-319.6564C147.1199,-340.5155 215.7306,-464.7 152,-464.7"/>
<polygon fill="#000000" stroke="#000000" points="195.1639,-318.3112 203.725,-320.2262 199.082,-317.5056 203,-316.7 203,-316.7 203,-316.7 199.082,-317.5056 202.275,-313.1738 195.1639,-318.3112 195.1639,-318.3112"/>
<ellipse fill="none" stroke="#000000" cx="192.0295" cy="-318.9557" rx="3.2" ry="3.2"/>
</g>
<!-- favorite_projects&#45;&gt;user_data -->
<g id="edge7" class="edge">
<title>favorite_projects:w&#45;&gt;user_data:e</title>
<path fill="none" stroke="#000000" d="M188.7252,-335.9684C144.3908,-315.6384 211.6068,-188.7 146,-188.7"/>
<polygon fill="#000000" stroke="#000000" points="195.1426,-337.1964 202.3234,-342.2358 199.0713,-337.9482 203,-338.7 203,-338.7 203,-338.7 199.0713,-337.9482 203.6766,-335.1642 195.1426,-337.1964 195.1426,-337.1964"/>
<ellipse fill="none" stroke="#000000" cx="191.9996" cy="-336.5949" rx="3.2" ry="3.2"/>
</g>
<!-- personal_access_tokens -->
<g id="node9" class="node">
<title>personal_access_tokens</title>
<g id="a_node9"><a xlink:href="../../tables/personal_access_tokens.html" xlink:title="personal_access_tokens" target="_top">
<polygon fill="#ffffff" stroke="transparent" points="225.5,-38.2 225.5,-99.2 406.5,-99.2 406.5,-38.2 225.5,-38.2"/>
<polygon fill="#f5f5f5" stroke="transparent" points="226,-75.7 226,-98.7 407,-98.7 407,-75.7 226,-75.7"/>
<polygon fill="none" stroke="#000000" points="226,-75.7 226,-98.7 407,-98.7 407,-75.7 226,-75.7"/>
<text text-anchor="start" x="231" y="-84.3" font-family="Helvetica,sans-Serif" font-weight="bold" font-size="11.00" fill="#000000">personal_access_tokens</text>
<text text-anchor="start" x="372.5219" y="-83.8" font-family="Helvetica,sans-Serif" font-size="11.00" fill="#000000">[table]</text>
<polygon fill="none" stroke="#000000" points="226,-56.7 226,-75.7 407,-75.7 407,-56.7 226,-56.7"/>
<text text-anchor="start" x="229" y="-62.8" font-family="Helvetica,sans-Serif" font-size="11.00" fill="#000000">...</text>
<polygon fill="#ffffff" stroke="transparent" points="226,-37.7 226,-56.7 315,-56.7 315,-37.7 226,-37.7"/>
<polygon fill="none" stroke="#000000" points="226,-37.7 226,-56.7 315,-56.7 315,-37.7 226,-37.7"/>
<text text-anchor="start" x="229" y="-43.8" font-family="Helvetica,sans-Serif" font-size="11.00" fill="#000000">&lt; 1</text>
<polygon fill="#ffffff" stroke="transparent" points="315,-37.7 315,-56.7 361,-56.7 361,-37.7 315,-37.7"/>
<polygon fill="none" stroke="#000000" points="315,-37.7 315,-56.7 361,-56.7 361,-37.7 315,-37.7"/>
<text text-anchor="start" x="351.8862" y="-43.8" font-family="Helvetica,sans-Serif" font-size="11.00" fill="#000000"> &#160;</text>
<polygon fill="#ffffff" stroke="transparent" points="361,-37.7 361,-56.7 407,-56.7 407,-37.7 361,-37.7"/>
<polygon fill="none" stroke="#000000" points="361,-37.7 361,-56.7 407,-56.7 407,-37.7 361,-37.7"/>
<text text-anchor="start" x="397.8862" y="-43.8" font-family="Helvetica,sans-Serif" font-size="11.00" fill="#000000"> &#160;</text>
</a>
</g>
</g>
<!-- personal_access_tokens&#45;&gt;user_data -->
<g id="edge8" class="edge">
<title>personal_access_tokens:w&#45;&gt;user_data:e</title>
<path fill="none" stroke="#000000" d="M211.6027,-68.269C168.6004,-85.9322 205.6081,-188.7 146,-188.7"/>
<polygon fill="#000000" stroke="#000000" points="218.1244,-67.1054 226.6324,-69.244 222.0622,-66.4027 226,-65.7 226,-65.7 226,-65.7 222.0622,-66.4027 225.3676,-62.156 218.1244,-67.1054 218.1244,-67.1054"/>
<ellipse fill="none" stroke="#000000" cx="214.9742" cy="-67.6675" rx="3.2" ry="3.2"/>
</g>
</g>
</svg>
