<?xml version="1.0" encoding="UTF-8" standalone="no"?>
<!DOCTYPE svg PUBLIC "-//W3C//DTD SVG 1.1//EN"
 "http://www.w3.org/Graphics/SVG/1.1/DTD/svg11.dtd">
<!-- Generated by graphviz version 2.40.1 (20161225.0304)
 -->
<!-- Title: twoDegreesRelationshipsDiagram Pages: 1 -->
<svg width="928pt" height="731pt"
 viewBox="0.00 0.00 928.00 731.20" xmlns="http://www.w3.org/2000/svg" xmlns:xlink="http://www.w3.org/1999/xlink">
<g id="graph0" class="graph" transform="scale(1 1) rotate(0) translate(4 727.2)">
<title>twoDegreesRelationshipsDiagram</title>
<polygon fill="#ffffff" stroke="transparent" points="-4,4 -4,-727.2 924,-727.2 924,4 -4,4"/>
<text text-anchor="middle" x="72.4936" y="-7.3" font-family="Helvetica,sans-Serif" font-size="11.00" fill="#000000">Generated by SchemaSpy</text>
<!-- grouped_operation -->
<g id="node1" class="node">
<title>grouped_operation</title>
<g id="a_node1"><a xlink:href="../../tables/grouped_operation.html" xlink:title="grouped_operation" target="_top">
<polygon fill="#ffffff" stroke="transparent" points="743,-330.7 743,-482.7 891,-482.7 891,-330.7 743,-330.7"/>
<polygon fill="#f5f5f5" stroke="transparent" points="743,-459.7 743,-482.7 891,-482.7 891,-459.7 743,-459.7"/>
<polygon fill="none" stroke="#000000" points="743,-459.7 743,-482.7 891,-482.7 891,-459.7 743,-459.7"/>
<text text-anchor="start" x="748" y="-468.3" font-family="Helvetica,sans-Serif" font-weight="bold" font-size="11.00" fill="#000000">grouped_operation</text>
<text text-anchor="start" x="856.5219" y="-467.8" font-family="Helvetica,sans-Serif" font-size="11.00" fill="#000000">[table]</text>
<polygon fill="none" stroke="#000000" points="743,-437.7 743,-459.7 891,-459.7 891,-437.7 743,-437.7"/>
<image xlink:href="../../images/foreignKeys.png" width="11px" height="12px" preserveAspectRatio="xMinYMin meet" x="748" y="-454.7"/>
<text text-anchor="start" x="772" y="-444.8" font-family="Helvetica,sans-Serif" font-size="11.00" fill="#000000">group_id</text>
<polygon fill="#ffffff" stroke="transparent" points="743,-415.7 743,-437.7 891,-437.7 891,-415.7 743,-415.7"/>
<polygon fill="none" stroke="#000000" points="743,-415.7 743,-437.7 891,-437.7 891,-415.7 743,-415.7"/>
<image xlink:href="../../images/foreignKeys.png" width="11px" height="12px" preserveAspectRatio="xMinYMin meet" x="748" y="-432.7"/>
<text text-anchor="start" x="772" y="-422.8" font-family="Helvetica,sans-Serif" font-size="11.00" fill="#000000">package_id</text>
<polygon fill="#ffffff" stroke="transparent" points="743,-393.7 743,-415.7 891,-415.7 891,-393.7 743,-393.7"/>
<polygon fill="none" stroke="#000000" points="743,-393.7 743,-415.7 891,-415.7 891,-393.7 743,-393.7"/>
<image xlink:href="../../images/foreignKeys.png" width="11px" height="12px" preserveAspectRatio="xMinYMin meet" x="748" y="-410.7"/>
<text text-anchor="start" x="772" y="-400.8" font-family="Helvetica,sans-Serif" font-size="11.00" fill="#000000">version</text>
<polygon fill="#ffffff" stroke="transparent" points="743,-371.7 743,-393.7 891,-393.7 891,-371.7 743,-371.7"/>
<polygon fill="none" stroke="#000000" points="743,-371.7 743,-393.7 891,-393.7 891,-371.7 743,-371.7"/>
<image xlink:href="../../images/foreignKeys.png" width="11px" height="12px" preserveAspectRatio="xMinYMin meet" x="748" y="-388.7"/>
<text text-anchor="start" x="772" y="-378.8" font-family="Helvetica,sans-Serif" font-size="11.00" fill="#000000">revision</text>
<polygon fill="#ffffff" stroke="transparent" points="743,-349.7 743,-371.7 891,-371.7 891,-349.7 743,-349.7"/>
<polygon fill="none" stroke="#000000" points="743,-349.7 743,-371.7 891,-371.7 891,-349.7 743,-349.7"/>
<image xlink:href="../../images/foreignKeys.png" width="11px" height="12px" preserveAspectRatio="xMinYMin meet" x="748" y="-366.7"/>
<text text-anchor="start" x="772" y="-356.8" font-family="Helvetica,sans-Serif" font-size="11.00" fill="#000000">operation_id</text>
<polygon fill="#ffffff" stroke="transparent" points="743,-330.7 743,-349.7 815,-349.7 815,-330.7 743,-330.7"/>
<polygon fill="none" stroke="#000000" points="743,-330.7 743,-349.7 815,-349.7 815,-330.7 743,-330.7"/>
<text text-anchor="start" x="746" y="-336.8" font-family="Helvetica,sans-Serif" font-size="11.00" fill="#000000">&lt; 5</text>
<polygon fill="#ffffff" stroke="transparent" points="815,-330.7 815,-349.7 853,-349.7 853,-330.7 815,-330.7"/>
<polygon fill="none" stroke="#000000" points="815,-330.7 815,-349.7 853,-349.7 853,-330.7 815,-330.7"/>
<text text-anchor="start" x="843.8862" y="-336.8" font-family="Helvetica,sans-Serif" font-size="11.00" fill="#000000"> &#160;</text>
<polygon fill="#ffffff" stroke="transparent" points="853,-330.7 853,-349.7 891,-349.7 891,-330.7 853,-330.7"/>
<polygon fill="none" stroke="#000000" points="853,-330.7 853,-349.7 891,-349.7 891,-330.7 853,-330.7"/>
<text text-anchor="start" x="881.8862" y="-336.8" font-family="Helvetica,sans-Serif" font-size="11.00" fill="#000000"> &#160;</text>
</a>
</g>
</g>
<!-- operation_group -->
<g id="node2" class="node">
<title>operation_group</title>
<g id="a_node2"><a xlink:href="../../tables/operation_group.html" xlink:title="operation_group" target="_top">
<polygon fill="#ffffff" stroke="transparent" points="425,-448.7 425,-714.7 673,-714.7 673,-448.7 425,-448.7"/>
<polygon fill="#f5f5f5" stroke="transparent" points="427,-689.7 427,-712.7 671,-712.7 671,-689.7 427,-689.7"/>
<polygon fill="none" stroke="#000000" points="427,-689.7 427,-712.7 671,-712.7 671,-689.7 427,-689.7"/>
<text text-anchor="start" x="432" y="-698.3" font-family="Helvetica,sans-Serif" font-weight="bold" font-size="11.00" fill="#000000">operation_group</text>
<text text-anchor="start" x="636.0437" y="-697.8" font-family="Helvetica,sans-Serif" font-size="11.00" fill="#000000">[table]</text>
<polygon fill="none" stroke="#000000" points="427,-667.7 427,-689.7 562,-689.7 562,-667.7 427,-667.7"/>
<image xlink:href="../../images/primaryKeys.png" width="11px" height="12px" preserveAspectRatio="xMinYMin meet" x="432" y="-684.7"/>
<text text-anchor="start" x="447" y="-674.8" font-family="Helvetica,sans-Serif" font-size="11.00" fill="#000000">package_id</text>
<polygon fill="none" stroke="#000000" points="562,-667.7 562,-689.7 671,-689.7 671,-667.7 562,-667.7"/>
<text text-anchor="start" x="564.5344" y="-675.4" font-family="Helvetica,sans-Serif" font-size="11.00" fill="#000000">varchar[2147483647]</text>
<polygon fill="none" stroke="#000000" points="427,-645.7 427,-667.7 562,-667.7 562,-645.7 427,-645.7"/>
<image xlink:href="../../images/primaryKeys.png" width="11px" height="12px" preserveAspectRatio="xMinYMin meet" x="432" y="-662.7"/>
<text text-anchor="start" x="447" y="-652.8" font-family="Helvetica,sans-Serif" font-size="11.00" fill="#000000">version</text>
<polygon fill="none" stroke="#000000" points="562,-645.7 562,-667.7 671,-667.7 671,-645.7 562,-645.7"/>
<text text-anchor="start" x="564.5344" y="-653.4" font-family="Helvetica,sans-Serif" font-size="11.00" fill="#000000">varchar[2147483647]</text>
<polygon fill="none" stroke="#000000" points="427,-623.7 427,-645.7 562,-645.7 562,-623.7 427,-623.7"/>
<image xlink:href="../../images/primaryKeys.png" width="11px" height="12px" preserveAspectRatio="xMinYMin meet" x="432" y="-640.7"/>
<text text-anchor="start" x="447" y="-630.8" font-family="Helvetica,sans-Serif" font-size="11.00" fill="#000000">revision</text>
<polygon fill="none" stroke="#000000" points="562,-623.7 562,-645.7 671,-645.7 671,-623.7 562,-623.7"/>
<text text-anchor="start" x="565" y="-631.4" font-family="Helvetica,sans-Serif" font-size="11.00" fill="#000000">int4[10]</text>
<polygon fill="none" stroke="#000000" points="427,-601.7 427,-623.7 562,-623.7 562,-601.7 427,-601.7"/>
<image xlink:href="../../images/primaryKeys.png" width="11px" height="12px" preserveAspectRatio="xMinYMin meet" x="432" y="-618.7"/>
<text text-anchor="start" x="447" y="-608.8" font-family="Helvetica,sans-Serif" font-size="11.00" fill="#000000">api_type</text>
<polygon fill="none" stroke="#000000" points="562,-601.7 562,-623.7 671,-623.7 671,-601.7 562,-601.7"/>
<text text-anchor="start" x="564.5344" y="-609.4" font-family="Helvetica,sans-Serif" font-size="11.00" fill="#000000">varchar[2147483647]</text>
<polygon fill="none" stroke="#000000" points="427,-579.7 427,-601.7 562,-601.7 562,-579.7 427,-579.7"/>
<image xlink:href="../../images/primaryKeys.png" width="11px" height="12px" preserveAspectRatio="xMinYMin meet" x="432" y="-596.7"/>
<text text-anchor="start" x="447" y="-586.8" font-family="Helvetica,sans-Serif" font-size="11.00" fill="#000000">group_name</text>
<polygon fill="none" stroke="#000000" points="562,-579.7 562,-601.7 671,-601.7 671,-579.7 562,-579.7"/>
<text text-anchor="start" x="564.5344" y="-587.4" font-family="Helvetica,sans-Serif" font-size="11.00" fill="#000000">varchar[2147483647]</text>
<polygon fill="none" stroke="#000000" points="427,-557.7 427,-579.7 562,-579.7 562,-557.7 427,-557.7"/>
<text text-anchor="start" x="447" y="-564.8" font-family="Helvetica,sans-Serif" font-size="11.00" fill="#000000">autogenerated</text>
<polygon fill="none" stroke="#000000" points="562,-557.7 562,-579.7 671,-579.7 671,-557.7 562,-557.7"/>
<text text-anchor="start" x="565" y="-565.4" font-family="Helvetica,sans-Serif" font-size="11.00" fill="#000000">bool[1]</text>
<polygon fill="#ffffff" stroke="transparent" points="427,-535.7 427,-557.7 562,-557.7 562,-535.7 427,-535.7"/>
<polygon fill="none" stroke="#000000" points="427,-535.7 427,-557.7 562,-557.7 562,-535.7 427,-535.7"/>
<text text-anchor="start" x="447" y="-542.8" font-family="Helvetica,sans-Serif" font-size="11.00" fill="#000000">group_id</text>
<polygon fill="none" stroke="#000000" points="562,-535.7 562,-557.7 671,-557.7 671,-535.7 562,-535.7"/>
<text text-anchor="start" x="564.5344" y="-543.4" font-family="Helvetica,sans-Serif" font-size="11.00" fill="#000000">varchar[2147483647]</text>
<polygon fill="none" stroke="#000000" points="427,-513.7 427,-535.7 562,-535.7 562,-513.7 427,-513.7"/>
<text text-anchor="start" x="447" y="-520.8" font-family="Helvetica,sans-Serif" font-size="11.00" fill="#000000">description</text>
<polygon fill="none" stroke="#000000" points="562,-513.7 562,-535.7 671,-535.7 671,-513.7 562,-513.7"/>
<text text-anchor="start" x="564.5344" y="-521.4" font-family="Helvetica,sans-Serif" font-size="11.00" fill="#000000">varchar[2147483647]</text>
<polygon fill="none" stroke="#000000" points="427,-491.7 427,-513.7 562,-513.7 562,-491.7 427,-491.7"/>
<text text-anchor="start" x="447" y="-498.8" font-family="Helvetica,sans-Serif" font-size="11.00" fill="#000000">template_checksum</text>
<polygon fill="none" stroke="#000000" points="562,-491.7 562,-513.7 671,-513.7 671,-491.7 562,-491.7"/>
<text text-anchor="start" x="564.5344" y="-499.4" font-family="Helvetica,sans-Serif" font-size="11.00" fill="#000000">varchar[2147483647]</text>
<polygon fill="none" stroke="#000000" points="427,-469.7 427,-491.7 562,-491.7 562,-469.7 427,-469.7"/>
<text text-anchor="start" x="447" y="-476.8" font-family="Helvetica,sans-Serif" font-size="11.00" fill="#000000">template_filename</text>
<polygon fill="none" stroke="#000000" points="562,-469.7 562,-491.7 671,-491.7 671,-469.7 562,-469.7"/>
<text text-anchor="start" x="564.5344" y="-477.4" font-family="Helvetica,sans-Serif" font-size="11.00" fill="#000000">varchar[2147483647]</text>
<polygon fill="#ffffff" stroke="transparent" points="427,-450.7 427,-469.7 499,-469.7 499,-450.7 427,-450.7"/>
<polygon fill="none" stroke="#000000" points="427,-450.7 427,-469.7 499,-469.7 499,-450.7 427,-450.7"/>
<text text-anchor="start" x="430" y="-456.8" font-family="Helvetica,sans-Serif" font-size="11.00" fill="#000000">&lt; 3</text>
<polygon fill="#ffffff" stroke="transparent" points="499,-450.7 499,-469.7 562,-469.7 562,-450.7 499,-450.7"/>
<polygon fill="none" stroke="#000000" points="499,-450.7 499,-469.7 562,-469.7 562,-450.7 499,-450.7"/>
<text text-anchor="start" x="552.8862" y="-456.8" font-family="Helvetica,sans-Serif" font-size="11.00" fill="#000000"> &#160;</text>
<polygon fill="#ffffff" stroke="transparent" points="562,-450.7 562,-469.7 671,-469.7 671,-450.7 562,-450.7"/>
<polygon fill="none" stroke="#000000" points="562,-450.7 562,-469.7 671,-469.7 671,-450.7 562,-450.7"/>
<text text-anchor="start" x="652.4053" y="-456.8" font-family="Helvetica,sans-Serif" font-size="11.00" fill="#000000">2 &gt;</text>
<polygon fill="none" stroke="#000000" stroke-width="2" points="426,-449.7 426,-713.7 672,-713.7 672,-449.7 426,-449.7"/>
</a>
</g>
</g>
<!-- grouped_operation&#45;&gt;operation_group -->
<g id="edge1" class="edge">
<title>grouped_operation:w&#45;&gt;operation_group:e</title>
<path fill="none" stroke="#000000" d="M728.6958,-451.7404C695.5638,-468.2818 719.3468,-546.7 671,-546.7"/>
<polygon fill="#000000" stroke="#000000" points="735.1748,-450.3633 743.7485,-452.2213 739.0874,-449.5317 743,-448.7 743,-448.7 743,-448.7 739.0874,-449.5317 742.2515,-445.1787 735.1748,-450.3633 735.1748,-450.3633"/>
<ellipse fill="none" stroke="#000000" cx="732.0447" cy="-451.0286" rx="3.2" ry="3.2"/>
</g>
<!-- operation -->
<g id="node3" class="node">
<title>operation</title>
<g id="a_node3"><a xlink:href="../../tables/operation.html" xlink:title="operation" target="_top">
<polygon fill="#ffffff" stroke="transparent" points="502.5,-366.2 502.5,-427.2 595.5,-427.2 595.5,-366.2 502.5,-366.2"/>
<polygon fill="#f5f5f5" stroke="transparent" points="503,-403.7 503,-426.7 596,-426.7 596,-403.7 503,-403.7"/>
<polygon fill="none" stroke="#000000" points="503,-403.7 503,-426.7 596,-426.7 596,-403.7 503,-403.7"/>
<text text-anchor="start" x="508" y="-412.3" font-family="Helvetica,sans-Serif" font-weight="bold" font-size="11.00" fill="#000000">operation</text>
<text text-anchor="start" x="561.5219" y="-411.8" font-family="Helvetica,sans-Serif" font-size="11.00" fill="#000000">[table]</text>
<polygon fill="none" stroke="#000000" points="503,-384.7 503,-403.7 596,-403.7 596,-384.7 503,-384.7"/>
<text text-anchor="start" x="506" y="-390.8" font-family="Helvetica,sans-Serif" font-size="11.00" fill="#000000">...</text>
<polygon fill="#ffffff" stroke="transparent" points="503,-365.7 503,-384.7 543,-384.7 543,-365.7 503,-365.7"/>
<polygon fill="none" stroke="#000000" points="503,-365.7 503,-384.7 543,-384.7 543,-365.7 503,-365.7"/>
<text text-anchor="start" x="506" y="-371.8" font-family="Helvetica,sans-Serif" font-size="11.00" fill="#000000">&lt; 4</text>
<polygon fill="#ffffff" stroke="transparent" points="543,-365.7 543,-384.7 565,-384.7 565,-365.7 543,-365.7"/>
<polygon fill="none" stroke="#000000" points="543,-365.7 543,-384.7 565,-384.7 565,-365.7 543,-365.7"/>
<text text-anchor="start" x="555.8862" y="-371.8" font-family="Helvetica,sans-Serif" font-size="11.00" fill="#000000"> &#160;</text>
<polygon fill="#ffffff" stroke="transparent" points="565,-365.7 565,-384.7 596,-384.7 596,-365.7 565,-365.7"/>
<polygon fill="none" stroke="#000000" points="565,-365.7 565,-384.7 596,-384.7 596,-365.7 565,-365.7"/>
<text text-anchor="start" x="577.4053" y="-371.8" font-family="Helvetica,sans-Serif" font-size="11.00" fill="#000000">4 &gt;</text>
</a>
</g>
</g>
<!-- grouped_operation&#45;&gt;operation -->
<g id="edge2" class="edge">
<title>grouped_operation:w&#45;&gt;operation:e</title>
<path fill="none" stroke="#000000" d="M728.5889,-361.2452C673.7352,-365.5359 657.8589,-393.7 596,-393.7"/>
<polygon fill="#000000" stroke="#000000" points="735.0057,-361.0025 743.1361,-364.2974 739.0029,-360.8513 743,-360.7 743,-360.7 743,-360.7 739.0029,-360.8513 742.8639,-357.1026 735.0057,-361.0025 735.0057,-361.0025"/>
<ellipse fill="none" stroke="#000000" cx="731.808" cy="-361.1235" rx="3.2" ry="3.2"/>
</g>
<!-- grouped_operation&#45;&gt;operation -->
<g id="edge3" class="edge">
<title>grouped_operation:w&#45;&gt;operation:e</title>
<path fill="none" stroke="#000000" d="M728.5889,-426.1548C673.7352,-421.8641 657.8589,-393.7 596,-393.7"/>
<polygon fill="#000000" stroke="#000000" points="735.0057,-426.3975 742.8639,-430.2974 739.0029,-426.5487 743,-426.7 743,-426.7 743,-426.7 739.0029,-426.5487 743.1361,-423.1026 735.0057,-426.3975 735.0057,-426.3975"/>
<ellipse fill="none" stroke="#000000" cx="731.808" cy="-426.2765" rx="3.2" ry="3.2"/>
</g>
<!-- grouped_operation&#45;&gt;operation -->
<g id="edge4" class="edge">
<title>grouped_operation:w&#45;&gt;operation:e</title>
<path fill="none" stroke="#000000" d="M728.5047,-382.8909C674.6866,-384.3516 656.3976,-393.7 596,-393.7"/>
<polygon fill="#000000" stroke="#000000" points="735.0007,-382.8054 743.0474,-386.2997 739.0003,-382.7527 743,-382.7 743,-382.7 743,-382.7 739.0003,-382.7527 742.9526,-379.1003 735.0007,-382.8054 735.0007,-382.8054"/>
<ellipse fill="none" stroke="#000000" cx="731.801" cy="-382.8476" rx="3.2" ry="3.2"/>
</g>
<!-- grouped_operation&#45;&gt;operation -->
<g id="edge5" class="edge">
<title>grouped_operation:w&#45;&gt;operation:e</title>
<path fill="none" stroke="#000000" d="M728.5047,-404.5091C674.6866,-403.0484 656.3976,-393.7 596,-393.7"/>
<polygon fill="#000000" stroke="#000000" points="735.0007,-404.5946 742.9526,-408.2997 739.0003,-404.6473 743,-404.7 743,-404.7 743,-404.7 739.0003,-404.6473 743.0474,-401.1003 735.0007,-404.5946 735.0007,-404.5946"/>
<ellipse fill="none" stroke="#000000" cx="731.801" cy="-404.5524" rx="3.2" ry="3.2"/>
</g>
<!-- published_version -->
<g id="node4" class="node">
<title>published_version</title>
<g id="a_node4"><a xlink:href="../../tables/published_version.html" xlink:title="published_version" target="_top">
<polygon fill="#ffffff" stroke="transparent" points="184,-200.2 184,-327.2 376,-327.2 376,-200.2 184,-200.2"/>
<polygon fill="#f5f5f5" stroke="transparent" points="184,-303.7 184,-326.7 376,-326.7 376,-303.7 184,-303.7"/>
<polygon fill="none" stroke="#000000" points="184,-303.7 184,-326.7 376,-326.7 376,-303.7 184,-303.7"/>
<text text-anchor="start" x="189" y="-312.3" font-family="Helvetica,sans-Serif" font-weight="bold" font-size="11.00" fill="#000000">published_version</text>
<text text-anchor="start" x="341.0437" y="-311.8" font-family="Helvetica,sans-Serif" font-size="11.00" fill="#000000">[table]</text>
<polygon fill="none" stroke="#000000" points="184,-281.7 184,-303.7 376,-303.7 376,-281.7 184,-281.7"/>
<image xlink:href="../../images/primaryKeys.png" width="11px" height="12px" preserveAspectRatio="xMinYMin meet" x="189" y="-298.7"/>
<text text-anchor="start" x="204" y="-288.8" font-family="Helvetica,sans-Serif" font-size="11.00" fill="#000000">package_id</text>
<polygon fill="none" stroke="#000000" points="184,-259.7 184,-281.7 376,-281.7 376,-259.7 184,-259.7"/>
<image xlink:href="../../images/primaryKeys.png" width="11px" height="12px" preserveAspectRatio="xMinYMin meet" x="189" y="-276.7"/>
<text text-anchor="start" x="204" y="-266.8" font-family="Helvetica,sans-Serif" font-size="11.00" fill="#000000">version</text>
<polygon fill="none" stroke="#000000" points="184,-237.7 184,-259.7 376,-259.7 376,-237.7 184,-237.7"/>
<image xlink:href="../../images/primaryKeys.png" width="11px" height="12px" preserveAspectRatio="xMinYMin meet" x="189" y="-254.7"/>
<text text-anchor="start" x="204" y="-244.8" font-family="Helvetica,sans-Serif" font-size="11.00" fill="#000000">revision</text>
<polygon fill="none" stroke="#000000" points="184,-218.7 184,-237.7 376,-237.7 376,-218.7 184,-218.7"/>
<text text-anchor="start" x="187" y="-224.8" font-family="Helvetica,sans-Serif" font-size="11.00" fill="#000000">...</text>
<polygon fill="#ffffff" stroke="transparent" points="184,-199.7 184,-218.7 271,-218.7 271,-199.7 184,-199.7"/>
<polygon fill="none" stroke="#000000" points="184,-199.7 184,-218.7 271,-218.7 271,-199.7 184,-199.7"/>
<text text-anchor="start" x="187" y="-205.8" font-family="Helvetica,sans-Serif" font-size="11.00" fill="#000000">&lt; 1</text>
<polygon fill="#ffffff" stroke="transparent" points="271,-199.7 271,-218.7 316,-218.7 316,-199.7 271,-199.7"/>
<polygon fill="none" stroke="#000000" points="271,-199.7 271,-218.7 316,-218.7 316,-199.7 271,-199.7"/>
<text text-anchor="start" x="306.8862" y="-205.8" font-family="Helvetica,sans-Serif" font-size="11.00" fill="#000000"> &#160;</text>
<polygon fill="#ffffff" stroke="transparent" points="316,-199.7 316,-218.7 376,-218.7 376,-199.7 316,-199.7"/>
<polygon fill="none" stroke="#000000" points="316,-199.7 316,-218.7 376,-218.7 376,-199.7 316,-199.7"/>
<text text-anchor="start" x="351.2904" y="-205.8" font-family="Helvetica,sans-Serif" font-size="11.00" fill="#000000">18 &gt;</text>
</a>
</g>
</g>
<!-- operation_group&#45;&gt;published_version -->
<g id="edge9" class="edge">
<title>operation_group:w&#45;&gt;published_version:e</title>
<path fill="none" stroke="#000000" d="M413.1192,-674.365C354.9178,-631.9578 457.1155,-292.7 376,-292.7"/>
<polygon fill="#000000" stroke="#000000" points="419.3637,-676.3152 425.9268,-682.1363 423.1819,-677.5076 427,-678.7 427,-678.7 427,-678.7 423.1819,-677.5076 428.0732,-675.2637 419.3637,-676.3152 419.3637,-676.3152"/>
<ellipse fill="none" stroke="#000000" cx="416.3092" cy="-675.3612" rx="3.2" ry="3.2"/>
</g>
<!-- operation_group&#45;&gt;published_version -->
<g id="edge10" class="edge">
<title>operation_group:w&#45;&gt;published_version:e</title>
<path fill="none" stroke="#000000" d="M413.1192,-630.365C354.9178,-587.9578 457.1155,-248.7 376,-248.7"/>
<polygon fill="#000000" stroke="#000000" points="419.3637,-632.3152 425.9268,-638.1363 423.1819,-633.5076 427,-634.7 427,-634.7 427,-634.7 423.1819,-633.5076 428.0732,-631.2637 419.3637,-632.3152 419.3637,-632.3152"/>
<ellipse fill="none" stroke="#000000" cx="416.3092" cy="-631.3612" rx="3.2" ry="3.2"/>
</g>
<!-- operation_group&#45;&gt;published_version -->
<g id="edge11" class="edge">
<title>operation_group:w&#45;&gt;published_version:e</title>
<path fill="none" stroke="#000000" d="M413.1192,-652.365C354.9178,-609.9578 457.1155,-270.7 376,-270.7"/>
<polygon fill="#000000" stroke="#000000" points="419.3637,-654.3152 425.9268,-660.1363 423.1819,-655.5076 427,-656.7 427,-656.7 427,-656.7 423.1819,-655.5076 428.0732,-653.2637 419.3637,-654.3152 419.3637,-654.3152"/>
<ellipse fill="none" stroke="#000000" cx="416.3092" cy="-653.3612" rx="3.2" ry="3.2"/>
</g>
<!-- operation&#45;&gt;published_version -->
<g id="edge6" class="edge">
<title>operation:w&#45;&gt;published_version:e</title>
<path fill="none" stroke="#000000" d="M488.2011,-393.1443C457.6964,-390.6158 444.724,-379.2878 417,-355.7 391.5558,-334.0518 409.4073,-292.7 376,-292.7"/>
<polygon fill="#000000" stroke="#000000" points="495.0056,-393.3998 502.8649,-397.2975 499.0028,-393.5499 503,-393.7 503,-393.7 503,-393.7 499.0028,-393.5499 503.1351,-390.1025 495.0056,-393.3998 495.0056,-393.3998"/>
<ellipse fill="none" stroke="#000000" cx="491.8079" cy="-393.2797" rx="3.2" ry="3.2"/>
</g>
<!-- operation&#45;&gt;published_version -->
<g id="edge7" class="edge">
<title>operation:w&#45;&gt;published_version:e</title>
<path fill="none" stroke="#000000" d="M488.4883,-393.3091C457.15,-391.4174 442.1983,-382.1946 417,-355.7 381.9031,-318.7976 426.9272,-248.7 376,-248.7"/>
<polygon fill="#000000" stroke="#000000" points="495.0029,-393.4845 502.903,-397.2987 499.0015,-393.5923 503,-393.7 503,-393.7 503,-393.7 499.0015,-393.5923 503.097,-390.1013 495.0029,-393.4845 495.0029,-393.4845"/>
<ellipse fill="none" stroke="#000000" cx="491.8041" cy="-393.3984" rx="3.2" ry="3.2"/>
</g>
<!-- operation&#45;&gt;published_version -->
<g id="edge8" class="edge">
<title>operation:w&#45;&gt;published_version:e</title>
<path fill="none" stroke="#000000" d="M488.5392,-393.2587C457.421,-391.1487 443.2822,-381.1196 417,-355.7 386.8512,-326.5408 417.9429,-270.7 376,-270.7"/>
<polygon fill="#000000" stroke="#000000" points="495.0037,-393.4559 502.8902,-397.2983 499.0019,-393.578 503,-393.7 503,-393.7 503,-393.7 499.0019,-393.578 503.1098,-390.1017 495.0037,-393.4559 495.0037,-393.4559"/>
<ellipse fill="none" stroke="#000000" cx="491.8052" cy="-393.3583" rx="3.2" ry="3.2"/>
</g>
<!-- package_group -->
<g id="node6" class="node">
<title>package_group</title>
<g id="a_node6"><a xlink:href="../../tables/package_group.html" xlink:title="package_group" target="_top">
<polygon fill="#ffffff" stroke="transparent" points="8,-265.2 8,-326.2 135,-326.2 135,-265.2 8,-265.2"/>
<polygon fill="#f5f5f5" stroke="transparent" points="8.5,-302.7 8.5,-325.7 135.5,-325.7 135.5,-302.7 8.5,-302.7"/>
<polygon fill="none" stroke="#000000" points="8.5,-302.7 8.5,-325.7 135.5,-325.7 135.5,-302.7 8.5,-302.7"/>
<text text-anchor="start" x="13.5" y="-311.3" font-family="Helvetica,sans-Serif" font-weight="bold" font-size="11.00" fill="#000000">package_group</text>
<text text-anchor="start" x="101.0219" y="-310.8" font-family="Helvetica,sans-Serif" font-size="11.00" fill="#000000">[table]</text>
<polygon fill="none" stroke="#000000" points="8.5,-283.7 8.5,-302.7 135.5,-302.7 135.5,-283.7 8.5,-283.7"/>
<text text-anchor="start" x="11.5" y="-289.8" font-family="Helvetica,sans-Serif" font-size="11.00" fill="#000000">...</text>
<polygon fill="#ffffff" stroke="transparent" points="8.5,-264.7 8.5,-283.7 62.5,-283.7 62.5,-264.7 8.5,-264.7"/>
<polygon fill="none" stroke="#000000" points="8.5,-264.7 8.5,-283.7 62.5,-283.7 62.5,-264.7 8.5,-264.7"/>
<text text-anchor="start" x="11.5" y="-270.8" font-family="Helvetica,sans-Serif" font-size="11.00" fill="#000000">&lt; 1</text>
<polygon fill="#ffffff" stroke="transparent" points="62.5,-264.7 62.5,-283.7 91.5,-283.7 91.5,-264.7 62.5,-264.7"/>
<polygon fill="none" stroke="#000000" points="62.5,-264.7 62.5,-283.7 91.5,-283.7 91.5,-264.7 62.5,-264.7"/>
<text text-anchor="start" x="82.3862" y="-270.8" font-family="Helvetica,sans-Serif" font-size="11.00" fill="#000000"> &#160;</text>
<polygon fill="#ffffff" stroke="transparent" points="91.5,-264.7 91.5,-283.7 135.5,-283.7 135.5,-264.7 91.5,-264.7"/>
<polygon fill="none" stroke="#000000" points="91.5,-264.7 91.5,-283.7 135.5,-283.7 135.5,-264.7 91.5,-264.7"/>
<text text-anchor="start" x="110.7904" y="-270.8" font-family="Helvetica,sans-Serif" font-size="11.00" fill="#000000">15 &gt;</text>
</a>
</g>
</g>
<!-- published_version&#45;&gt;package_group -->
<g id="edge15" class="edge">
<title>published_version:w&#45;&gt;package_group:e</title>
<path fill="none" stroke="#000000" d="M169.2829,-292.7C158.2886,-292.7 151.1615,-292.7 135.5,-292.7"/>
<polygon fill="#000000" stroke="#000000" points="176,-292.7001 184,-296.3 180,-292.7 184,-292.7 184,-292.7 184,-292.7 180,-292.7 184,-289.1 176,-292.7001 176,-292.7001"/>
<ellipse fill="none" stroke="#000000" cx="172.8" cy="-292.7001" rx="3.2" ry="3.2"/>
</g>
<!-- published_sources -->
<g id="node5" class="node">
<title>published_sources</title>
<g id="a_node5"><a xlink:href="../../tables/published_sources.html" xlink:title="published_sources" target="_top">
<polygon fill="#ffffff" stroke="transparent" points="475,-284.2 475,-345.2 623,-345.2 623,-284.2 475,-284.2"/>
<polygon fill="#f5f5f5" stroke="transparent" points="475,-321.7 475,-344.7 623,-344.7 623,-321.7 475,-321.7"/>
<polygon fill="none" stroke="#000000" points="475,-321.7 475,-344.7 623,-344.7 623,-321.7 475,-321.7"/>
<text text-anchor="start" x="480" y="-330.3" font-family="Helvetica,sans-Serif" font-weight="bold" font-size="11.00" fill="#000000">published_sources</text>
<text text-anchor="start" x="588.5219" y="-329.8" font-family="Helvetica,sans-Serif" font-size="11.00" fill="#000000">[table]</text>
<polygon fill="none" stroke="#000000" points="475,-302.7 475,-321.7 623,-321.7 623,-302.7 475,-302.7"/>
<text text-anchor="start" x="478" y="-308.8" font-family="Helvetica,sans-Serif" font-size="11.00" fill="#000000">...</text>
<polygon fill="#ffffff" stroke="transparent" points="475,-283.7 475,-302.7 547,-302.7 547,-283.7 475,-283.7"/>
<polygon fill="none" stroke="#000000" points="475,-283.7 475,-302.7 547,-302.7 547,-283.7 475,-283.7"/>
<text text-anchor="start" x="478" y="-289.8" font-family="Helvetica,sans-Serif" font-size="11.00" fill="#000000">&lt; 4</text>
<polygon fill="#ffffff" stroke="transparent" points="547,-283.7 547,-302.7 585,-302.7 585,-283.7 547,-283.7"/>
<polygon fill="none" stroke="#000000" points="547,-283.7 547,-302.7 585,-302.7 585,-283.7 547,-283.7"/>
<text text-anchor="start" x="575.8862" y="-289.8" font-family="Helvetica,sans-Serif" font-size="11.00" fill="#000000"> &#160;</text>
<polygon fill="#ffffff" stroke="transparent" points="585,-283.7 585,-302.7 623,-302.7 623,-283.7 585,-283.7"/>
<polygon fill="none" stroke="#000000" points="585,-283.7 585,-302.7 623,-302.7 623,-283.7 585,-283.7"/>
<text text-anchor="start" x="613.8862" y="-289.8" font-family="Helvetica,sans-Serif" font-size="11.00" fill="#000000"> &#160;</text>
</a>
</g>
</g>
<!-- published_sources&#45;&gt;published_version -->
<g id="edge12" class="edge">
<title>published_sources:w&#45;&gt;published_version:e</title>
<path fill="none" stroke="#000000" d="M460.5938,-310.9784C427.509,-307.5078 415.5526,-292.7 376,-292.7"/>
<polygon fill="#000000" stroke="#000000" points="467.01,-311.2997 474.8199,-315.2955 471.005,-311.4999 475,-311.7 475,-311.7 475,-311.7 471.005,-311.4999 475.1801,-308.1045 467.01,-311.2997 467.01,-311.2997"/>
<ellipse fill="none" stroke="#000000" cx="463.814" cy="-311.1396" rx="3.2" ry="3.2"/>
</g>
<!-- published_sources&#45;&gt;published_version -->
<g id="edge13" class="edge">
<title>published_sources:w&#45;&gt;published_version:e</title>
<path fill="none" stroke="#000000" d="M461.7711,-305.6593C436.2396,-289.8909 386.5428,-248.7 376,-248.7"/>
<polygon fill="#000000" stroke="#000000" points="467.7228,-308.377 473.5046,-314.9747 471.3614,-310.0385 475,-311.7 475,-311.7 475,-311.7 471.3614,-310.0385 476.4954,-308.4253 467.7228,-308.377 467.7228,-308.377"/>
<ellipse fill="none" stroke="#000000" cx="464.8119" cy="-307.0478" rx="3.2" ry="3.2"/>
</g>
<!-- published_sources&#45;&gt;published_version -->
<g id="edge14" class="edge">
<title>published_sources:w&#45;&gt;published_version:e</title>
<path fill="none" stroke="#000000" d="M460.3767,-310.2408C425.9629,-302.9371 418.2291,-270.7 376,-270.7"/>
<polygon fill="#000000" stroke="#000000" points="467.0395,-310.9056 474.6425,-315.2822 471.0198,-311.3028 475,-311.7 475,-311.7 475,-311.7 471.0198,-311.3028 475.3575,-308.1178 467.0395,-310.9056 467.0395,-310.9056"/>
<ellipse fill="none" stroke="#000000" cx="463.8553" cy="-310.5878" rx="3.2" ry="3.2"/>
</g>
<!-- published_version_reference -->
<g id="node7" class="node">
<title>published_version_reference</title>
<g id="a_node7"><a xlink:href="../../tables/published_version_reference.html" xlink:title="published_version_reference" target="_top">
<polygon fill="#ffffff" stroke="transparent" points="446.5,-202.2 446.5,-263.2 651.5,-263.2 651.5,-202.2 446.5,-202.2"/>
<polygon fill="#f5f5f5" stroke="transparent" points="447,-239.7 447,-262.7 652,-262.7 652,-239.7 447,-239.7"/>
<polygon fill="none" stroke="#000000" points="447,-239.7 447,-262.7 652,-262.7 652,-239.7 447,-239.7"/>
<text text-anchor="start" x="452" y="-248.3" font-family="Helvetica,sans-Serif" font-weight="bold" font-size="11.00" fill="#000000">published_version_reference</text>
<text text-anchor="start" x="617.5219" y="-247.8" font-family="Helvetica,sans-Serif" font-size="11.00" fill="#000000">[table]</text>
<polygon fill="none" stroke="#000000" points="447,-220.7 447,-239.7 652,-239.7 652,-220.7 447,-220.7"/>
<text text-anchor="start" x="450" y="-226.8" font-family="Helvetica,sans-Serif" font-size="11.00" fill="#000000">...</text>
<polygon fill="#ffffff" stroke="transparent" points="447,-201.7 447,-220.7 548,-220.7 548,-201.7 447,-201.7"/>
<polygon fill="none" stroke="#000000" points="447,-201.7 447,-220.7 548,-220.7 548,-201.7 447,-201.7"/>
<text text-anchor="start" x="450" y="-207.8" font-family="Helvetica,sans-Serif" font-size="11.00" fill="#000000">&lt; 3</text>
<polygon fill="#ffffff" stroke="transparent" points="548,-201.7 548,-220.7 600,-220.7 600,-201.7 548,-201.7"/>
<polygon fill="none" stroke="#000000" points="548,-201.7 548,-220.7 600,-220.7 600,-201.7 548,-201.7"/>
<text text-anchor="start" x="590.8862" y="-207.8" font-family="Helvetica,sans-Serif" font-size="11.00" fill="#000000"> &#160;</text>
<polygon fill="#ffffff" stroke="transparent" points="600,-201.7 600,-220.7 652,-220.7 652,-201.7 600,-201.7"/>
<polygon fill="none" stroke="#000000" points="600,-201.7 600,-220.7 652,-220.7 652,-201.7 600,-201.7"/>
<text text-anchor="start" x="642.8862" y="-207.8" font-family="Helvetica,sans-Serif" font-size="11.00" fill="#000000"> &#160;</text>
</a>
</g>
</g>
<!-- published_version_reference&#45;&gt;published_version -->
<g id="edge16" class="edge">
<title>published_version_reference:w&#45;&gt;published_version:e</title>
<path fill="none" stroke="#000000" d="M432.8709,-232.7386C407.3854,-245.3231 412.5841,-292.7 376,-292.7"/>
<polygon fill="#000000" stroke="#000000" points="439.1788,-231.3821 447.7569,-233.2195 443.0894,-230.541 447,-229.7 447,-229.7 447,-229.7 443.0894,-230.541 446.2431,-226.1805 439.1788,-231.3821 439.1788,-231.3821"/>
<ellipse fill="none" stroke="#000000" cx="436.0504" cy="-232.0549" rx="3.2" ry="3.2"/>
</g>
<!-- published_version_reference&#45;&gt;published_version -->
<g id="edge17" class="edge">
<title>published_version_reference:w&#45;&gt;published_version:e</title>
<path fill="none" stroke="#000000" d="M432.5687,-231.1281C411.6682,-235.5468 403.1791,-248.7 376,-248.7"/>
<polygon fill="#000000" stroke="#000000" points="439.0389,-230.4879 447.3545,-233.2825 443.0194,-230.0939 447,-229.7 447,-229.7 447,-229.7 443.0194,-230.0939 446.6455,-226.1175 439.0389,-230.4879 439.0389,-230.4879"/>
<ellipse fill="none" stroke="#000000" cx="435.8544" cy="-230.803" rx="3.2" ry="3.2"/>
</g>
<!-- published_version_reference&#45;&gt;published_version -->
<g id="edge18" class="edge">
<title>published_version_reference:w&#45;&gt;published_version:e</title>
<path fill="none" stroke="#000000" d="M432.7431,-232.2647C410.2439,-241.2406 406.8878,-270.7 376,-270.7"/>
<polygon fill="#000000" stroke="#000000" points="439.1264,-231.1165 447.6374,-233.2431 443.0632,-230.4082 447,-229.7 447,-229.7 447,-229.7 443.0632,-230.4082 446.3626,-226.1569 439.1264,-231.1165 439.1264,-231.1165"/>
<ellipse fill="none" stroke="#000000" cx="435.9769" cy="-231.6831" rx="3.2" ry="3.2"/>
</g>
<!-- published_version_revision_content -->
<g id="node8" class="node">
<title>published_version_revision_content</title>
<g id="a_node8"><a xlink:href="../../tables/published_version_revision_content.html" xlink:title="published_version_revision_content" target="_top">
<polygon fill="#ffffff" stroke="transparent" points="425.5,-120.2 425.5,-181.2 672.5,-181.2 672.5,-120.2 425.5,-120.2"/>
<polygon fill="#f5f5f5" stroke="transparent" points="426,-157.7 426,-180.7 673,-180.7 673,-157.7 426,-157.7"/>
<polygon fill="none" stroke="#000000" points="426,-157.7 426,-180.7 673,-180.7 673,-157.7 426,-157.7"/>
<text text-anchor="start" x="431" y="-166.3" font-family="Helvetica,sans-Serif" font-weight="bold" font-size="11.00" fill="#000000">published_version_revision_content</text>
<text text-anchor="start" x="638.5219" y="-165.8" font-family="Helvetica,sans-Serif" font-size="11.00" fill="#000000">[table]</text>
<polygon fill="none" stroke="#000000" points="426,-138.7 426,-157.7 673,-157.7 673,-138.7 426,-138.7"/>
<text text-anchor="start" x="429" y="-144.8" font-family="Helvetica,sans-Serif" font-size="11.00" fill="#000000">...</text>
<polygon fill="#ffffff" stroke="transparent" points="426,-119.7 426,-138.7 548,-138.7 548,-119.7 426,-119.7"/>
<polygon fill="none" stroke="#000000" points="426,-119.7 426,-138.7 548,-138.7 548,-119.7 426,-119.7"/>
<text text-anchor="start" x="429" y="-125.8" font-family="Helvetica,sans-Serif" font-size="11.00" fill="#000000">&lt; 5</text>
<polygon fill="#ffffff" stroke="transparent" points="548,-119.7 548,-138.7 610,-138.7 610,-119.7 548,-119.7"/>
<polygon fill="none" stroke="#000000" points="548,-119.7 548,-138.7 610,-138.7 610,-119.7 548,-119.7"/>
<text text-anchor="start" x="600.8862" y="-125.8" font-family="Helvetica,sans-Serif" font-size="11.00" fill="#000000"> &#160;</text>
<polygon fill="#ffffff" stroke="transparent" points="610,-119.7 610,-138.7 673,-138.7 673,-119.7 610,-119.7"/>
<polygon fill="none" stroke="#000000" points="610,-119.7 610,-138.7 673,-138.7 673,-119.7 610,-119.7"/>
<text text-anchor="start" x="663.8862" y="-125.8" font-family="Helvetica,sans-Serif" font-size="11.00" fill="#000000"> &#160;</text>
</a>
</g>
</g>
<!-- published_version_revision_content&#45;&gt;published_version -->
<g id="edge19" class="edge">
<title>published_version_revision_content:w&#45;&gt;published_version:e</title>
<path fill="none" stroke="#000000" d="M411.6524,-150.7285C371.5298,-171.551 438.3101,-292.7 376,-292.7"/>
<polygon fill="#000000" stroke="#000000" points="418.1725,-149.3523 426.7435,-151.2224 422.0862,-148.5261 426,-147.7 426,-147.7 426,-147.7 422.0862,-148.5261 425.2565,-144.1776 418.1725,-149.3523 418.1725,-149.3523"/>
<ellipse fill="none" stroke="#000000" cx="415.0415" cy="-150.0132" rx="3.2" ry="3.2"/>
</g>
<!-- published_version_revision_content&#45;&gt;published_version -->
<g id="edge20" class="edge">
<title>published_version_revision_content:w&#45;&gt;published_version:e</title>
<path fill="none" stroke="#000000" d="M411.8585,-151.7844C386.5936,-170.6799 420.0229,-248.7 376,-248.7"/>
<polygon fill="#000000" stroke="#000000" points="418.3142,-149.9199 426.999,-151.1586 422.1571,-148.81 426,-147.7 426,-147.7 426,-147.7 422.1571,-148.81 425.001,-144.2414 418.3142,-149.9199 418.3142,-149.9199"/>
<ellipse fill="none" stroke="#000000" cx="415.2398" cy="-150.8079" rx="3.2" ry="3.2"/>
</g>
<!-- published_version_revision_content&#45;&gt;published_version -->
<g id="edge21" class="edge">
<title>published_version_revision_content:w&#45;&gt;published_version:e</title>
<path fill="none" stroke="#000000" d="M411.685,-151.2485C379.4958,-171.4156 429.0175,-270.7 376,-270.7"/>
<polygon fill="#000000" stroke="#000000" points="418.235,-149.6249 426.8662,-151.1942 422.1175,-148.6624 426,-147.7 426,-147.7 426,-147.7 422.1175,-148.6624 425.1338,-144.2058 418.235,-149.6249 418.235,-149.6249"/>
<ellipse fill="none" stroke="#000000" cx="415.129" cy="-150.3948" rx="3.2" ry="3.2"/>
</g>
<!-- published_version_validation -->
<g id="node9" class="node">
<title>published_version_validation</title>
<g id="a_node9"><a xlink:href="../../tables/published_version_validation.html" xlink:title="published_version_validation" target="_top">
<polygon fill="#ffffff" stroke="transparent" points="445.5,-38.2 445.5,-99.2 652.5,-99.2 652.5,-38.2 445.5,-38.2"/>
<polygon fill="#f5f5f5" stroke="transparent" points="446,-75.7 446,-98.7 653,-98.7 653,-75.7 446,-75.7"/>
<polygon fill="none" stroke="#000000" points="446,-75.7 446,-98.7 653,-98.7 653,-75.7 446,-75.7"/>
<text text-anchor="start" x="451" y="-84.3" font-family="Helvetica,sans-Serif" font-weight="bold" font-size="11.00" fill="#000000">published_version_validation</text>
<text text-anchor="start" x="618.5219" y="-83.8" font-family="Helvetica,sans-Serif" font-size="11.00" fill="#000000">[table]</text>
<polygon fill="none" stroke="#000000" points="446,-56.7 446,-75.7 653,-75.7 653,-56.7 446,-56.7"/>
<text text-anchor="start" x="449" y="-62.8" font-family="Helvetica,sans-Serif" font-size="11.00" fill="#000000">...</text>
<polygon fill="#ffffff" stroke="transparent" points="446,-37.7 446,-56.7 548,-56.7 548,-37.7 446,-37.7"/>
<polygon fill="none" stroke="#000000" points="446,-37.7 446,-56.7 548,-56.7 548,-37.7 446,-37.7"/>
<text text-anchor="start" x="449" y="-43.8" font-family="Helvetica,sans-Serif" font-size="11.00" fill="#000000">&lt; 3</text>
<polygon fill="#ffffff" stroke="transparent" points="548,-37.7 548,-56.7 600,-56.7 600,-37.7 548,-37.7"/>
<polygon fill="none" stroke="#000000" points="548,-37.7 548,-56.7 600,-56.7 600,-37.7 548,-37.7"/>
<text text-anchor="start" x="590.8862" y="-43.8" font-family="Helvetica,sans-Serif" font-size="11.00" fill="#000000"> &#160;</text>
<polygon fill="#ffffff" stroke="transparent" points="600,-37.7 600,-56.7 653,-56.7 653,-37.7 600,-37.7"/>
<polygon fill="none" stroke="#000000" points="600,-37.7 600,-56.7 653,-56.7 653,-37.7 600,-37.7"/>
<text text-anchor="start" x="643.8862" y="-43.8" font-family="Helvetica,sans-Serif" font-size="11.00" fill="#000000"> &#160;</text>
</a>
</g>
</g>
<!-- published_version_validation&#45;&gt;published_version -->
<g id="edge22" class="edge">
<title>published_version_validation:w&#45;&gt;published_version:e</title>
<path fill="none" stroke="#000000" d="M432.0307,-70.257C423.5825,-77.907 423.6513,-94.0369 417,-109.7 400.7108,-148.0595 417.6748,-292.7 376,-292.7"/>
<polygon fill="#000000" stroke="#000000" points="438.3944,-68.1811 447.1165,-69.1225 442.1972,-66.9405 446,-65.7 446,-65.7 446,-65.7 442.1972,-66.9405 444.8835,-62.2775 438.3944,-68.1811 438.3944,-68.1811"/>
<ellipse fill="none" stroke="#000000" cx="435.3522" cy="-69.1735" rx="3.2" ry="3.2"/>
</g>
<!-- published_version_validation&#45;&gt;published_version -->
<g id="edge23" class="edge">
<title>published_version_validation:w&#45;&gt;published_version:e</title>
<path fill="none" stroke="#000000" d="M431.4431,-67.8827C371.5521,-88.5296 457.4679,-248.7 376,-248.7"/>
<polygon fill="#000000" stroke="#000000" points="438.0884,-66.8863 446.5338,-69.2602 442.0442,-66.2932 446,-65.7 446,-65.7 446,-65.7 442.0442,-66.2932 445.4662,-62.1398 438.0884,-66.8863 438.0884,-66.8863"/>
<ellipse fill="none" stroke="#000000" cx="434.9238" cy="-67.3608" rx="3.2" ry="3.2"/>
</g>
<!-- published_version_validation&#45;&gt;published_version -->
<g id="edge24" class="edge">
<title>published_version_validation:w&#45;&gt;published_version:e</title>
<path fill="none" stroke="#000000" d="M431.6671,-67.5985C362.9045,-88.265 466.8232,-270.7 376,-270.7"/>
<polygon fill="#000000" stroke="#000000" points="438.0693,-66.7505 446.4727,-69.2688 442.0346,-66.2253 446,-65.7 446,-65.7 446,-65.7 442.0346,-66.2253 445.5273,-62.1312 438.0693,-66.7505 438.0693,-66.7505"/>
<ellipse fill="none" stroke="#000000" cx="434.897" cy="-67.1708" rx="3.2" ry="3.2"/>
</g>
<!-- transformed_content_data -->
<g id="node10" class="node">
<title>transformed_content_data</title>
<g id="a_node10"><a xlink:href="../../tables/transformed_content_data.html" xlink:title="transformed_content_data" target="_top">
<polygon fill="#ffffff" stroke="transparent" points="722,-504.2 722,-719.2 912,-719.2 912,-504.2 722,-504.2"/>
<polygon fill="#f5f5f5" stroke="transparent" points="722,-695.7 722,-718.7 912,-718.7 912,-695.7 722,-695.7"/>
<polygon fill="none" stroke="#000000" points="722,-695.7 722,-718.7 912,-718.7 912,-695.7 722,-695.7"/>
<text text-anchor="start" x="727" y="-704.3" font-family="Helvetica,sans-Serif" font-weight="bold" font-size="11.00" fill="#000000">transformed_content_data</text>
<text text-anchor="start" x="877.5219" y="-703.8" font-family="Helvetica,sans-Serif" font-size="11.00" fill="#000000">[table]</text>
<polygon fill="none" stroke="#000000" points="722,-673.7 722,-695.7 912,-695.7 912,-673.7 722,-673.7"/>
<image xlink:href="../../images/primaryKeys.png" width="11px" height="12px" preserveAspectRatio="xMinYMin meet" x="727" y="-690.7"/>
<text text-anchor="start" x="751" y="-680.8" font-family="Helvetica,sans-Serif" font-size="11.00" fill="#000000">package_id</text>
<polygon fill="none" stroke="#000000" points="722,-651.7 722,-673.7 912,-673.7 912,-651.7 722,-651.7"/>
<image xlink:href="../../images/primaryKeys.png" width="11px" height="12px" preserveAspectRatio="xMinYMin meet" x="727" y="-668.7"/>
<text text-anchor="start" x="751" y="-658.8" font-family="Helvetica,sans-Serif" font-size="11.00" fill="#000000">version</text>
<polygon fill="none" stroke="#000000" points="722,-629.7 722,-651.7 912,-651.7 912,-629.7 722,-629.7"/>
<image xlink:href="../../images/primaryKeys.png" width="11px" height="12px" preserveAspectRatio="xMinYMin meet" x="727" y="-646.7"/>
<text text-anchor="start" x="751" y="-636.8" font-family="Helvetica,sans-Serif" font-size="11.00" fill="#000000">revision</text>
<polygon fill="none" stroke="#000000" points="722,-607.7 722,-629.7 912,-629.7 912,-607.7 722,-607.7"/>
<image xlink:href="../../images/primaryKeys.png" width="11px" height="12px" preserveAspectRatio="xMinYMin meet" x="727" y="-624.7"/>
<text text-anchor="start" x="751" y="-614.8" font-family="Helvetica,sans-Serif" font-size="11.00" fill="#000000">api_type</text>
<polygon fill="none" stroke="#000000" points="722,-585.7 722,-607.7 912,-607.7 912,-585.7 722,-585.7"/>
<image xlink:href="../../images/primaryKeys.png" width="11px" height="12px" preserveAspectRatio="xMinYMin meet" x="727" y="-602.7"/>
<text text-anchor="start" x="751" y="-592.8" font-family="Helvetica,sans-Serif" font-size="11.00" fill="#000000">group_id</text>
<polygon fill="none" stroke="#000000" points="722,-563.7 722,-585.7 912,-585.7 912,-563.7 722,-563.7"/>
<image xlink:href="../../images/primaryKeys.png" width="11px" height="12px" preserveAspectRatio="xMinYMin meet" x="727" y="-580.7"/>
<text text-anchor="start" x="751" y="-570.8" font-family="Helvetica,sans-Serif" font-size="11.00" fill="#000000">build_type</text>
<polygon fill="none" stroke="#000000" points="722,-541.7 722,-563.7 912,-563.7 912,-541.7 722,-541.7"/>
<image xlink:href="../../images/primaryKeys.png" width="11px" height="12px" preserveAspectRatio="xMinYMin meet" x="727" y="-558.7"/>
<text text-anchor="start" x="751" y="-548.8" font-family="Helvetica,sans-Serif" font-size="11.00" fill="#000000">format</text>
<polygon fill="none" stroke="#000000" points="722,-522.7 722,-541.7 912,-541.7 912,-522.7 722,-522.7"/>
<text text-anchor="start" x="725" y="-528.8" font-family="Helvetica,sans-Serif" font-size="11.00" fill="#000000">...</text>
<polygon fill="#ffffff" stroke="transparent" points="722,-503.7 722,-522.7 815,-522.7 815,-503.7 722,-503.7"/>
<polygon fill="none" stroke="#000000" points="722,-503.7 722,-522.7 815,-522.7 815,-503.7 722,-503.7"/>
<text text-anchor="start" x="725" y="-509.8" font-family="Helvetica,sans-Serif" font-size="11.00" fill="#000000">&lt; 1</text>
<polygon fill="#ffffff" stroke="transparent" points="815,-503.7 815,-522.7 863,-522.7 863,-503.7 815,-503.7"/>
<polygon fill="none" stroke="#000000" points="815,-503.7 815,-522.7 863,-522.7 863,-503.7 815,-503.7"/>
<text text-anchor="start" x="853.8862" y="-509.8" font-family="Helvetica,sans-Serif" font-size="11.00" fill="#000000"> &#160;</text>
<polygon fill="#ffffff" stroke="transparent" points="863,-503.7 863,-522.7 912,-522.7 912,-503.7 863,-503.7"/>
<polygon fill="none" stroke="#000000" points="863,-503.7 863,-522.7 912,-522.7 912,-503.7 863,-503.7"/>
<text text-anchor="start" x="902.8862" y="-509.8" font-family="Helvetica,sans-Serif" font-size="11.00" fill="#000000"> &#160;</text>
</a>
</g>
</g>
<!-- transformed_content_data&#45;&gt;operation_group -->
<g id="edge25" class="edge">
<title>transformed_content_data:w&#45;&gt;operation_group:e</title>
<path fill="none" stroke="#000000" d="M708.2263,-592.0857C693.3844,-579.7078 696.791,-546.7 671,-546.7"/>
<polygon fill="#000000" stroke="#000000" points="714.4143,-594.1587 720.8564,-600.1135 718.2072,-595.4294 722,-596.7 722,-596.7 722,-596.7 718.2072,-595.4294 723.1436,-593.2865 714.4143,-594.1587 714.4143,-594.1587"/>
<ellipse fill="none" stroke="#000000" cx="711.3801" cy="-593.1422" rx="3.2" ry="3.2"/>
</g>
</g>
</svg>
