<?xml version="1.0" encoding="UTF-8" standalone="no"?>
<!DOCTYPE svg PUBLIC "-//W3C//DTD SVG 1.1//EN"
 "http://www.w3.org/Graphics/SVG/1.1/DTD/svg11.dtd">
<!-- Generated by graphviz version 2.40.1 (20161225.0304)
 -->
<!-- Title: twoDegreesRelationshipsDiagram Pages: 1 -->
<svg width="501pt" height="1169pt"
 viewBox="0.00 0.00 501.00 1169.20" xmlns="http://www.w3.org/2000/svg" xmlns:xlink="http://www.w3.org/1999/xlink">
<g id="graph0" class="graph" transform="scale(1 1) rotate(0) translate(4 1165.2)">
<title>twoDegreesRelationshipsDiagram</title>
<polygon fill="#ffffff" stroke="transparent" points="-4,4 -4,-1165.2 497,-1165.2 497,4 -4,4"/>
<text text-anchor="middle" x="72.4936" y="-7.3" font-family="Helvetica,sans-Serif" font-size="11.00" fill="#000000">Generated by SchemaSpy</text>
<!-- activity_tracking -->
<g id="node1" class="node">
<title>activity_tracking</title>
<g id="a_node1"><a xlink:href="../../tables/activity_tracking.html" xlink:title="activity_tracking" target="_top">
<polygon fill="#ffffff" stroke="transparent" points="287,-1096.2 287,-1157.2 420,-1157.2 420,-1096.2 287,-1096.2"/>
<polygon fill="#f5f5f5" stroke="transparent" points="287.5,-1133.7 287.5,-1156.7 420.5,-1156.7 420.5,-1133.7 287.5,-1133.7"/>
<polygon fill="none" stroke="#000000" points="287.5,-1133.7 287.5,-1156.7 420.5,-1156.7 420.5,-1133.7 287.5,-1133.7"/>
<text text-anchor="start" x="292.5" y="-1142.3" font-family="Helvetica,sans-Serif" font-weight="bold" font-size="11.00" fill="#000000">activity_tracking</text>
<text text-anchor="start" x="386.0219" y="-1141.8" font-family="Helvetica,sans-Serif" font-size="11.00" fill="#000000">[table]</text>
<polygon fill="none" stroke="#000000" points="287.5,-1114.7 287.5,-1133.7 420.5,-1133.7 420.5,-1114.7 287.5,-1114.7"/>
<text text-anchor="start" x="290.5" y="-1120.8" font-family="Helvetica,sans-Serif" font-size="11.00" fill="#000000">...</text>
<polygon fill="#ffffff" stroke="transparent" points="287.5,-1095.7 287.5,-1114.7 352.5,-1114.7 352.5,-1095.7 287.5,-1095.7"/>
<polygon fill="none" stroke="#000000" points="287.5,-1095.7 287.5,-1114.7 352.5,-1114.7 352.5,-1095.7 287.5,-1095.7"/>
<text text-anchor="start" x="290.5" y="-1101.8" font-family="Helvetica,sans-Serif" font-size="11.00" fill="#000000">&lt; 1</text>
<polygon fill="#ffffff" stroke="transparent" points="352.5,-1095.7 352.5,-1114.7 386.5,-1114.7 386.5,-1095.7 352.5,-1095.7"/>
<polygon fill="none" stroke="#000000" points="352.5,-1095.7 352.5,-1114.7 386.5,-1114.7 386.5,-1095.7 352.5,-1095.7"/>
<text text-anchor="start" x="377.3862" y="-1101.8" font-family="Helvetica,sans-Serif" font-size="11.00" fill="#000000"> &#160;</text>
<polygon fill="#ffffff" stroke="transparent" points="386.5,-1095.7 386.5,-1114.7 420.5,-1114.7 420.5,-1095.7 386.5,-1095.7"/>
<polygon fill="none" stroke="#000000" points="386.5,-1095.7 386.5,-1114.7 420.5,-1114.7 420.5,-1095.7 386.5,-1095.7"/>
<text text-anchor="start" x="411.3862" y="-1101.8" font-family="Helvetica,sans-Serif" font-size="11.00" fill="#000000"> &#160;</text>
</a>
</g>
</g>
<!-- package_group -->
<g id="node2" class="node">
<title>package_group</title>
<g id="a_node2"><a xlink:href="../../tables/package_group.html" xlink:title="package_group" target="_top">
<polygon fill="#ffffff" stroke="transparent" points="8,-446.2 8,-551.2 173,-551.2 173,-446.2 8,-446.2"/>
<polygon fill="#f5f5f5" stroke="transparent" points="8.5,-527.7 8.5,-550.7 173.5,-550.7 173.5,-527.7 8.5,-527.7"/>
<polygon fill="none" stroke="#000000" points="8.5,-527.7 8.5,-550.7 173.5,-550.7 173.5,-527.7 8.5,-527.7"/>
<text text-anchor="start" x="13.5" y="-536.3" font-family="Helvetica,sans-Serif" font-weight="bold" font-size="11.00" fill="#000000">package_group</text>
<text text-anchor="start" x="138.5437" y="-535.8" font-family="Helvetica,sans-Serif" font-size="11.00" fill="#000000">[table]</text>
<polygon fill="none" stroke="#000000" points="8.5,-505.7 8.5,-527.7 173.5,-527.7 173.5,-505.7 8.5,-505.7"/>
<image xlink:href="../../images/primaryKeys.png" width="11px" height="12px" preserveAspectRatio="xMinYMin meet" x="13.5" y="-522.7"/>
<text text-anchor="start" x="28.5" y="-512.8" font-family="Helvetica,sans-Serif" font-size="11.00" fill="#000000">id</text>
<polygon fill="none" stroke="#000000" points="8.5,-483.7 8.5,-505.7 173.5,-505.7 173.5,-483.7 8.5,-483.7"/>
<image xlink:href="../../images/foreignKeys.png" width="11px" height="12px" preserveAspectRatio="xMinYMin meet" x="13.5" y="-500.7"/>
<text text-anchor="start" x="28.5" y="-490.8" font-family="Helvetica,sans-Serif" font-size="11.00" fill="#000000">parent_id</text>
<polygon fill="none" stroke="#000000" points="8.5,-464.7 8.5,-483.7 173.5,-483.7 173.5,-464.7 8.5,-464.7"/>
<text text-anchor="start" x="11.5" y="-470.8" font-family="Helvetica,sans-Serif" font-size="11.00" fill="#000000">...</text>
<polygon fill="#ffffff" stroke="transparent" points="8.5,-445.7 8.5,-464.7 81.5,-464.7 81.5,-445.7 8.5,-445.7"/>
<polygon fill="none" stroke="#000000" points="8.5,-445.7 8.5,-464.7 81.5,-464.7 81.5,-445.7 8.5,-445.7"/>
<text text-anchor="start" x="11.5" y="-451.8" font-family="Helvetica,sans-Serif" font-size="11.00" fill="#000000">&lt; 1</text>
<polygon fill="#ffffff" stroke="transparent" points="81.5,-445.7 81.5,-464.7 119.5,-464.7 119.5,-445.7 81.5,-445.7"/>
<polygon fill="none" stroke="#000000" points="81.5,-445.7 81.5,-464.7 119.5,-464.7 119.5,-445.7 81.5,-445.7"/>
<text text-anchor="start" x="110.3862" y="-451.8" font-family="Helvetica,sans-Serif" font-size="11.00" fill="#000000"> &#160;</text>
<polygon fill="#ffffff" stroke="transparent" points="119.5,-445.7 119.5,-464.7 173.5,-464.7 173.5,-445.7 119.5,-445.7"/>
<polygon fill="none" stroke="#000000" points="119.5,-445.7 119.5,-464.7 173.5,-464.7 173.5,-445.7 119.5,-445.7"/>
<text text-anchor="start" x="148.7904" y="-451.8" font-family="Helvetica,sans-Serif" font-size="11.00" fill="#000000">15 &gt;</text>
</a>
</g>
</g>
<!-- activity_tracking&#45;&gt;package_group -->
<g id="edge1" class="edge">
<title>activity_tracking:w&#45;&gt;package_group:e</title>
<path fill="none" stroke="#000000" d="M272.753,-1123.1946C245.8783,-1121.1042 231.3021,-1111.9739 214,-1085.7 179.1407,-1032.7648 236.8822,-516.7 173.5,-516.7"/>
<polygon fill="#000000" stroke="#000000" points="279.5047,-1123.4259 287.3767,-1127.2979 283.5023,-1123.563 287.5,-1123.7 287.5,-1123.7 287.5,-1123.7 283.5023,-1123.563 287.6233,-1120.1021 279.5047,-1123.4259 279.5047,-1123.4259"/>
<ellipse fill="none" stroke="#000000" cx="276.3066" cy="-1123.3163" rx="3.2" ry="3.2"/>
</g>
<!-- build -->
<g id="node3" class="node">
<title>build</title>
<g id="a_node3"><a xlink:href="../../tables/build.html" xlink:title="build" target="_top">
<polygon fill="#ffffff" stroke="transparent" points="320,-1014.2 320,-1075.2 387,-1075.2 387,-1014.2 320,-1014.2"/>
<polygon fill="#f5f5f5" stroke="transparent" points="320.5,-1051.7 320.5,-1074.7 387.5,-1074.7 387.5,-1051.7 320.5,-1051.7"/>
<polygon fill="none" stroke="#000000" points="320.5,-1051.7 320.5,-1074.7 387.5,-1074.7 387.5,-1051.7 320.5,-1051.7"/>
<text text-anchor="start" x="325.5" y="-1060.3" font-family="Helvetica,sans-Serif" font-weight="bold" font-size="11.00" fill="#000000">build</text>
<text text-anchor="start" x="353.0219" y="-1059.8" font-family="Helvetica,sans-Serif" font-size="11.00" fill="#000000">[table]</text>
<polygon fill="none" stroke="#000000" points="320.5,-1032.7 320.5,-1051.7 387.5,-1051.7 387.5,-1032.7 320.5,-1032.7"/>
<text text-anchor="start" x="323.5" y="-1038.8" font-family="Helvetica,sans-Serif" font-size="11.00" fill="#000000">...</text>
<polygon fill="#ffffff" stroke="transparent" points="320.5,-1013.7 320.5,-1032.7 347.5,-1032.7 347.5,-1013.7 320.5,-1013.7"/>
<polygon fill="none" stroke="#000000" points="320.5,-1013.7 320.5,-1032.7 347.5,-1032.7 347.5,-1013.7 320.5,-1013.7"/>
<text text-anchor="start" x="323.5" y="-1019.8" font-family="Helvetica,sans-Serif" font-size="11.00" fill="#000000">&lt; 1</text>
<polygon fill="#ffffff" stroke="transparent" points="347.5,-1013.7 347.5,-1032.7 362.5,-1032.7 362.5,-1013.7 347.5,-1013.7"/>
<polygon fill="none" stroke="#000000" points="347.5,-1013.7 347.5,-1032.7 362.5,-1032.7 362.5,-1013.7 347.5,-1013.7"/>
<text text-anchor="start" x="353.3862" y="-1019.8" font-family="Helvetica,sans-Serif" font-size="11.00" fill="#000000"> &#160;</text>
<polygon fill="#ffffff" stroke="transparent" points="362.5,-1013.7 362.5,-1032.7 387.5,-1032.7 387.5,-1013.7 362.5,-1013.7"/>
<polygon fill="none" stroke="#000000" points="362.5,-1013.7 362.5,-1032.7 387.5,-1032.7 387.5,-1013.7 362.5,-1013.7"/>
<text text-anchor="start" x="368.9053" y="-1019.8" font-family="Helvetica,sans-Serif" font-size="11.00" fill="#000000">5 &gt;</text>
</a>
</g>
</g>
<!-- build&#45;&gt;package_group -->
<g id="edge2" class="edge">
<title>build:w&#45;&gt;package_group:e</title>
<path fill="none" stroke="#000000" d="M305.9192,-1041.7113C264.9902,-1041.6437 241.5234,-1039.4934 214,-1003.7 180.9015,-960.6564 227.7979,-516.7 173.5,-516.7"/>
<polygon fill="#000000" stroke="#000000" points="312.5,-1041.7063 320.5028,-1045.3 316.5,-1041.7031 320.5,-1041.7 320.5,-1041.7 320.5,-1041.7 316.5,-1041.7031 320.4972,-1038.1 312.5,-1041.7063 312.5,-1041.7063"/>
<ellipse fill="none" stroke="#000000" cx="309.3" cy="-1041.7088" rx="3.2" ry="3.2"/>
</g>
<!-- favorite_packages -->
<g id="node4" class="node">
<title>favorite_packages</title>
<g id="a_node4"><a xlink:href="../../tables/favorite_packages.html" xlink:title="favorite_packages" target="_top">
<polygon fill="#ffffff" stroke="transparent" points="282,-932.2 282,-993.2 425,-993.2 425,-932.2 282,-932.2"/>
<polygon fill="#f5f5f5" stroke="transparent" points="282.5,-969.7 282.5,-992.7 425.5,-992.7 425.5,-969.7 282.5,-969.7"/>
<polygon fill="none" stroke="#000000" points="282.5,-969.7 282.5,-992.7 425.5,-992.7 425.5,-969.7 282.5,-969.7"/>
<text text-anchor="start" x="287.5" y="-978.3" font-family="Helvetica,sans-Serif" font-weight="bold" font-size="11.00" fill="#000000">favorite_packages</text>
<text text-anchor="start" x="391.0219" y="-977.8" font-family="Helvetica,sans-Serif" font-size="11.00" fill="#000000">[table]</text>
<polygon fill="none" stroke="#000000" points="282.5,-950.7 282.5,-969.7 425.5,-969.7 425.5,-950.7 282.5,-950.7"/>
<text text-anchor="start" x="285.5" y="-956.8" font-family="Helvetica,sans-Serif" font-size="11.00" fill="#000000">...</text>
<polygon fill="#ffffff" stroke="transparent" points="282.5,-931.7 282.5,-950.7 352.5,-950.7 352.5,-931.7 282.5,-931.7"/>
<polygon fill="none" stroke="#000000" points="282.5,-931.7 282.5,-950.7 352.5,-950.7 352.5,-931.7 282.5,-931.7"/>
<text text-anchor="start" x="285.5" y="-937.8" font-family="Helvetica,sans-Serif" font-size="11.00" fill="#000000">&lt; 2</text>
<polygon fill="#ffffff" stroke="transparent" points="352.5,-931.7 352.5,-950.7 388.5,-950.7 388.5,-931.7 352.5,-931.7"/>
<polygon fill="none" stroke="#000000" points="352.5,-931.7 352.5,-950.7 388.5,-950.7 388.5,-931.7 352.5,-931.7"/>
<text text-anchor="start" x="379.3862" y="-937.8" font-family="Helvetica,sans-Serif" font-size="11.00" fill="#000000"> &#160;</text>
<polygon fill="#ffffff" stroke="transparent" points="388.5,-931.7 388.5,-950.7 425.5,-950.7 425.5,-931.7 388.5,-931.7"/>
<polygon fill="none" stroke="#000000" points="388.5,-931.7 388.5,-950.7 425.5,-950.7 425.5,-931.7 388.5,-931.7"/>
<text text-anchor="start" x="416.3862" y="-937.8" font-family="Helvetica,sans-Serif" font-size="11.00" fill="#000000"> &#160;</text>
</a>
</g>
</g>
<!-- favorite_packages&#45;&gt;package_group -->
<g id="edge3" class="edge">
<title>favorite_packages:w&#45;&gt;package_group:e</title>
<path fill="none" stroke="#000000" d="M267.9116,-959.0394C243.1459,-956.5152 230.2221,-946.3528 214,-921.7 164.2811,-846.1418 263.9489,-516.7 173.5,-516.7"/>
<polygon fill="#000000" stroke="#000000" points="274.5082,-959.3381 282.3371,-963.2963 278.5041,-959.519 282.5,-959.7 282.5,-959.7 282.5,-959.7 278.5041,-959.519 282.6629,-956.1037 274.5082,-959.3381 274.5082,-959.3381"/>
<ellipse fill="none" stroke="#000000" cx="271.3115" cy="-959.1933" rx="3.2" ry="3.2"/>
</g>
<!-- migrated_version -->
<g id="node5" class="node">
<title>migrated_version</title>
<g id="a_node5"><a xlink:href="../../tables/migrated_version.html" xlink:title="migrated_version" target="_top">
<polygon fill="#ffffff" stroke="transparent" points="284,-850.2 284,-911.2 423,-911.2 423,-850.2 284,-850.2"/>
<polygon fill="#f5f5f5" stroke="transparent" points="284.5,-887.7 284.5,-910.7 423.5,-910.7 423.5,-887.7 284.5,-887.7"/>
<polygon fill="none" stroke="#000000" points="284.5,-887.7 284.5,-910.7 423.5,-910.7 423.5,-887.7 284.5,-887.7"/>
<text text-anchor="start" x="289.5" y="-896.3" font-family="Helvetica,sans-Serif" font-weight="bold" font-size="11.00" fill="#000000">migrated_version</text>
<text text-anchor="start" x="389.0219" y="-895.8" font-family="Helvetica,sans-Serif" font-size="11.00" fill="#000000">[table]</text>
<polygon fill="none" stroke="#000000" points="284.5,-868.7 284.5,-887.7 423.5,-887.7 423.5,-868.7 284.5,-868.7"/>
<text text-anchor="start" x="287.5" y="-874.8" font-family="Helvetica,sans-Serif" font-size="11.00" fill="#000000">...</text>
<polygon fill="#ffffff" stroke="transparent" points="284.5,-849.7 284.5,-868.7 352.5,-868.7 352.5,-849.7 284.5,-849.7"/>
<polygon fill="none" stroke="#000000" points="284.5,-849.7 284.5,-868.7 352.5,-868.7 352.5,-849.7 284.5,-849.7"/>
<text text-anchor="start" x="287.5" y="-855.8" font-family="Helvetica,sans-Serif" font-size="11.00" fill="#000000">&lt; 1</text>
<polygon fill="#ffffff" stroke="transparent" points="352.5,-849.7 352.5,-868.7 387.5,-868.7 387.5,-849.7 352.5,-849.7"/>
<polygon fill="none" stroke="#000000" points="352.5,-849.7 352.5,-868.7 387.5,-868.7 387.5,-849.7 352.5,-849.7"/>
<text text-anchor="start" x="378.3862" y="-855.8" font-family="Helvetica,sans-Serif" font-size="11.00" fill="#000000"> &#160;</text>
<polygon fill="#ffffff" stroke="transparent" points="387.5,-849.7 387.5,-868.7 423.5,-868.7 423.5,-849.7 387.5,-849.7"/>
<polygon fill="none" stroke="#000000" points="387.5,-849.7 387.5,-868.7 423.5,-868.7 423.5,-849.7 387.5,-849.7"/>
<text text-anchor="start" x="414.3862" y="-855.8" font-family="Helvetica,sans-Serif" font-size="11.00" fill="#000000"> &#160;</text>
</a>
</g>
</g>
<!-- migrated_version&#45;&gt;package_group -->
<g id="edge4" class="edge">
<title>migrated_version:w&#45;&gt;package_group:e</title>
<path fill="none" stroke="#000000" d="M269.9389,-877.0897C244.397,-874.68 231.1298,-864.7071 214,-839.7 173.119,-780.0192 245.8398,-516.7 173.5,-516.7"/>
<polygon fill="#000000" stroke="#000000" points="276.507,-877.365 284.3492,-881.2968 280.5035,-877.5325 284.5,-877.7 284.5,-877.7 284.5,-877.7 280.5035,-877.5325 284.6508,-874.1032 276.507,-877.365 276.507,-877.365"/>
<ellipse fill="none" stroke="#000000" cx="273.3098" cy="-877.2309" rx="3.2" ry="3.2"/>
</g>
<!-- operation_open_count -->
<g id="node6" class="node">
<title>operation_open_count</title>
<g id="a_node6"><a xlink:href="../../tables/operation_open_count.html" xlink:title="operation_open_count" target="_top">
<polygon fill="#ffffff" stroke="transparent" points="222,-694.7 222,-828.7 485,-828.7 485,-694.7 222,-694.7"/>
<polygon fill="#f5f5f5" stroke="transparent" points="224.5,-803.7 224.5,-826.7 483.5,-826.7 483.5,-803.7 224.5,-803.7"/>
<polygon fill="none" stroke="#000000" points="224.5,-803.7 224.5,-826.7 483.5,-826.7 483.5,-803.7 224.5,-803.7"/>
<text text-anchor="start" x="229.5" y="-812.3" font-family="Helvetica,sans-Serif" font-weight="bold" font-size="11.00" fill="#000000">operation_open_count</text>
<text text-anchor="start" x="448.5437" y="-811.8" font-family="Helvetica,sans-Serif" font-size="11.00" fill="#000000">[table]</text>
<polygon fill="none" stroke="#000000" points="224.5,-781.7 224.5,-803.7 374.5,-803.7 374.5,-781.7 224.5,-781.7"/>
<image xlink:href="../../images/primaryKeys.png" width="11px" height="12px" preserveAspectRatio="xMinYMin meet" x="229.5" y="-798.7"/>
<text text-anchor="start" x="244.5" y="-788.8" font-family="Helvetica,sans-Serif" font-size="11.00" fill="#000000">package_id</text>
<polygon fill="none" stroke="#000000" points="374.5,-781.7 374.5,-803.7 483.5,-803.7 483.5,-781.7 374.5,-781.7"/>
<text text-anchor="start" x="377.0344" y="-789.4" font-family="Helvetica,sans-Serif" font-size="11.00" fill="#000000">varchar[2147483647]</text>
<polygon fill="none" stroke="#000000" points="224.5,-759.7 224.5,-781.7 374.5,-781.7 374.5,-759.7 224.5,-759.7"/>
<image xlink:href="../../images/primaryKeys.png" width="11px" height="12px" preserveAspectRatio="xMinYMin meet" x="229.5" y="-776.7"/>
<text text-anchor="start" x="244.5" y="-766.8" font-family="Helvetica,sans-Serif" font-size="11.00" fill="#000000">version</text>
<polygon fill="none" stroke="#000000" points="374.5,-759.7 374.5,-781.7 483.5,-781.7 483.5,-759.7 374.5,-759.7"/>
<text text-anchor="start" x="377.0344" y="-767.4" font-family="Helvetica,sans-Serif" font-size="11.00" fill="#000000">varchar[2147483647]</text>
<polygon fill="none" stroke="#000000" points="224.5,-737.7 224.5,-759.7 374.5,-759.7 374.5,-737.7 224.5,-737.7"/>
<image xlink:href="../../images/primaryKeys.png" width="11px" height="12px" preserveAspectRatio="xMinYMin meet" x="229.5" y="-754.7"/>
<text text-anchor="start" x="244.5" y="-744.8" font-family="Helvetica,sans-Serif" font-size="11.00" fill="#000000">operation_id</text>
<polygon fill="none" stroke="#000000" points="374.5,-737.7 374.5,-759.7 483.5,-759.7 483.5,-737.7 374.5,-737.7"/>
<text text-anchor="start" x="377.0344" y="-745.4" font-family="Helvetica,sans-Serif" font-size="11.00" fill="#000000">varchar[2147483647]</text>
<polygon fill="none" stroke="#000000" points="224.5,-715.7 224.5,-737.7 374.5,-737.7 374.5,-715.7 224.5,-715.7"/>
<text text-anchor="start" x="244.5" y="-722.8" font-family="Helvetica,sans-Serif" font-size="11.00" fill="#000000">open_count</text>
<polygon fill="none" stroke="#000000" points="374.5,-715.7 374.5,-737.7 483.5,-737.7 483.5,-715.7 374.5,-715.7"/>
<text text-anchor="start" x="377.5" y="-723.4" font-family="Helvetica,sans-Serif" font-size="11.00" fill="#000000">int8[19]</text>
<polygon fill="#ffffff" stroke="transparent" points="224.5,-696.7 224.5,-715.7 303.5,-715.7 303.5,-696.7 224.5,-696.7"/>
<polygon fill="none" stroke="#000000" points="224.5,-696.7 224.5,-715.7 303.5,-715.7 303.5,-696.7 224.5,-696.7"/>
<text text-anchor="start" x="227.5" y="-702.8" font-family="Helvetica,sans-Serif" font-size="11.00" fill="#000000">&lt; 1</text>
<polygon fill="#ffffff" stroke="transparent" points="303.5,-696.7 303.5,-715.7 374.5,-715.7 374.5,-696.7 303.5,-696.7"/>
<polygon fill="none" stroke="#000000" points="303.5,-696.7 303.5,-715.7 374.5,-715.7 374.5,-696.7 303.5,-696.7"/>
<text text-anchor="start" x="365.3862" y="-702.8" font-family="Helvetica,sans-Serif" font-size="11.00" fill="#000000"> &#160;</text>
<polygon fill="#ffffff" stroke="transparent" points="374.5,-696.7 374.5,-715.7 483.5,-715.7 483.5,-696.7 374.5,-696.7"/>
<polygon fill="none" stroke="#000000" points="374.5,-696.7 374.5,-715.7 483.5,-715.7 483.5,-696.7 374.5,-696.7"/>
<text text-anchor="start" x="464.9053" y="-702.8" font-family="Helvetica,sans-Serif" font-size="11.00" fill="#000000">0 &gt;</text>
<polygon fill="none" stroke="#000000" stroke-width="2" points="223,-695.7 223,-827.7 484,-827.7 484,-695.7 223,-695.7"/>
</a>
</g>
</g>
<!-- operation_open_count&#45;&gt;package_group -->
<g id="edge5" class="edge">
<title>operation_open_count:w&#45;&gt;package_group:e</title>
<path fill="none" stroke="#000000" d="M211.2628,-786.9353C173.7977,-747.3008 230.5116,-516.7 173.5,-516.7"/>
<polygon fill="#000000" stroke="#000000" points="217.1653,-789.5058 223.0626,-796.0006 220.8327,-791.1029 224.5,-792.7 224.5,-792.7 224.5,-792.7 220.8327,-791.1029 225.9374,-789.3994 217.1653,-789.5058 217.1653,-789.5058"/>
<ellipse fill="none" stroke="#000000" cx="214.2315" cy="-788.2281" rx="3.2" ry="3.2"/>
</g>
<!-- package_export_config -->
<g id="node7" class="node">
<title>package_export_config</title>
<g id="a_node7"><a xlink:href="../../tables/package_export_config.html" xlink:title="package_export_config" target="_top">
<polygon fill="#ffffff" stroke="transparent" points="267,-612.2 267,-673.2 440,-673.2 440,-612.2 267,-612.2"/>
<polygon fill="#f5f5f5" stroke="transparent" points="267.5,-649.7 267.5,-672.7 440.5,-672.7 440.5,-649.7 267.5,-649.7"/>
<polygon fill="none" stroke="#000000" points="267.5,-649.7 267.5,-672.7 440.5,-672.7 440.5,-649.7 267.5,-649.7"/>
<text text-anchor="start" x="272.5" y="-658.3" font-family="Helvetica,sans-Serif" font-weight="bold" font-size="11.00" fill="#000000">package_export_config</text>
<text text-anchor="start" x="406.0219" y="-657.8" font-family="Helvetica,sans-Serif" font-size="11.00" fill="#000000">[table]</text>
<polygon fill="none" stroke="#000000" points="267.5,-630.7 267.5,-649.7 440.5,-649.7 440.5,-630.7 267.5,-630.7"/>
<text text-anchor="start" x="270.5" y="-636.8" font-family="Helvetica,sans-Serif" font-size="11.00" fill="#000000">...</text>
<polygon fill="#ffffff" stroke="transparent" points="267.5,-611.7 267.5,-630.7 352.5,-630.7 352.5,-611.7 267.5,-611.7"/>
<polygon fill="none" stroke="#000000" points="267.5,-611.7 267.5,-630.7 352.5,-630.7 352.5,-611.7 267.5,-611.7"/>
<text text-anchor="start" x="270.5" y="-617.8" font-family="Helvetica,sans-Serif" font-size="11.00" fill="#000000">&lt; 1</text>
<polygon fill="#ffffff" stroke="transparent" points="352.5,-611.7 352.5,-630.7 396.5,-630.7 396.5,-611.7 352.5,-611.7"/>
<polygon fill="none" stroke="#000000" points="352.5,-611.7 352.5,-630.7 396.5,-630.7 396.5,-611.7 352.5,-611.7"/>
<text text-anchor="start" x="387.3862" y="-617.8" font-family="Helvetica,sans-Serif" font-size="11.00" fill="#000000"> &#160;</text>
<polygon fill="#ffffff" stroke="transparent" points="396.5,-611.7 396.5,-630.7 440.5,-630.7 440.5,-611.7 396.5,-611.7"/>
<polygon fill="none" stroke="#000000" points="396.5,-611.7 396.5,-630.7 440.5,-630.7 440.5,-611.7 396.5,-611.7"/>
<text text-anchor="start" x="431.3862" y="-617.8" font-family="Helvetica,sans-Serif" font-size="11.00" fill="#000000"> &#160;</text>
</a>
</g>
</g>
<!-- package_export_config&#45;&gt;package_group -->
<g id="edge6" class="edge">
<title>package_export_config:w&#45;&gt;package_group:e</title>
<path fill="none" stroke="#000000" d="M257.0419,-638.8918C236.6224,-635.4195 230.2726,-621.0617 214,-601.7 187.0759,-569.6648 215.3469,-516.7 173.5,-516.7"/>
<polygon fill="#000000" stroke="#000000" points="267.0106,-635.6502 266.3941,-643.6265 264.7989,-643.5032 265.4154,-635.5269 267.0106,-635.6502"/>
<polyline fill="none" stroke="#000000" points="267.5,-639.7 263.5119,-639.3917 "/>
<ellipse fill="none" stroke="#000000" cx="260.3214" cy="-639.1451" rx="3.2" ry="3.2"/>
</g>
<!-- package_member_role -->
<g id="node8" class="node">
<title>package_member_role</title>
<g id="a_node8"><a xlink:href="../../tables/package_member_role.html" xlink:title="package_member_role" target="_top">
<polygon fill="#ffffff" stroke="transparent" points="269,-530.2 269,-591.2 438,-591.2 438,-530.2 269,-530.2"/>
<polygon fill="#f5f5f5" stroke="transparent" points="269.5,-567.7 269.5,-590.7 438.5,-590.7 438.5,-567.7 269.5,-567.7"/>
<polygon fill="none" stroke="#000000" points="269.5,-567.7 269.5,-590.7 438.5,-590.7 438.5,-567.7 269.5,-567.7"/>
<text text-anchor="start" x="274.5" y="-576.3" font-family="Helvetica,sans-Serif" font-weight="bold" font-size="11.00" fill="#000000">package_member_role</text>
<text text-anchor="start" x="404.0219" y="-575.8" font-family="Helvetica,sans-Serif" font-size="11.00" fill="#000000">[table]</text>
<polygon fill="none" stroke="#000000" points="269.5,-548.7 269.5,-567.7 438.5,-567.7 438.5,-548.7 269.5,-548.7"/>
<text text-anchor="start" x="272.5" y="-554.8" font-family="Helvetica,sans-Serif" font-size="11.00" fill="#000000">...</text>
<polygon fill="#ffffff" stroke="transparent" points="269.5,-529.7 269.5,-548.7 352.5,-548.7 352.5,-529.7 269.5,-529.7"/>
<polygon fill="none" stroke="#000000" points="269.5,-529.7 269.5,-548.7 352.5,-548.7 352.5,-529.7 269.5,-529.7"/>
<text text-anchor="start" x="272.5" y="-535.8" font-family="Helvetica,sans-Serif" font-size="11.00" fill="#000000">&lt; 1</text>
<polygon fill="#ffffff" stroke="transparent" points="352.5,-529.7 352.5,-548.7 395.5,-548.7 395.5,-529.7 352.5,-529.7"/>
<polygon fill="none" stroke="#000000" points="352.5,-529.7 352.5,-548.7 395.5,-548.7 395.5,-529.7 352.5,-529.7"/>
<text text-anchor="start" x="386.3862" y="-535.8" font-family="Helvetica,sans-Serif" font-size="11.00" fill="#000000"> &#160;</text>
<polygon fill="#ffffff" stroke="transparent" points="395.5,-529.7 395.5,-548.7 438.5,-548.7 438.5,-529.7 395.5,-529.7"/>
<polygon fill="none" stroke="#000000" points="395.5,-529.7 395.5,-548.7 438.5,-548.7 438.5,-529.7 395.5,-529.7"/>
<text text-anchor="start" x="429.3862" y="-535.8" font-family="Helvetica,sans-Serif" font-size="11.00" fill="#000000"> &#160;</text>
</a>
</g>
</g>
<!-- package_member_role&#45;&gt;package_group -->
<g id="edge7" class="edge">
<title>package_member_role:w&#45;&gt;package_group:e</title>
<path fill="none" stroke="#000000" d="M254.8294,-556.1428C221.7596,-548.6537 214.4581,-516.7 173.5,-516.7"/>
<polygon fill="#000000" stroke="#000000" points="261.5447,-556.8555 269.12,-561.2799 265.5223,-557.2778 269.5,-557.7 269.5,-557.7 269.5,-557.7 265.5223,-557.2778 269.88,-554.1201 261.5447,-556.8555 261.5447,-556.8555"/>
<ellipse fill="none" stroke="#000000" cx="258.3626" cy="-556.5178" rx="3.2" ry="3.2"/>
</g>
<!-- package_service -->
<g id="node9" class="node">
<title>package_service</title>
<g id="a_node9"><a xlink:href="../../tables/package_service.html" xlink:title="package_service" target="_top">
<polygon fill="#ffffff" stroke="transparent" points="286,-448.2 286,-509.2 421,-509.2 421,-448.2 286,-448.2"/>
<polygon fill="#f5f5f5" stroke="transparent" points="286.5,-485.7 286.5,-508.7 421.5,-508.7 421.5,-485.7 286.5,-485.7"/>
<polygon fill="none" stroke="#000000" points="286.5,-485.7 286.5,-508.7 421.5,-508.7 421.5,-485.7 286.5,-485.7"/>
<text text-anchor="start" x="291.5" y="-494.3" font-family="Helvetica,sans-Serif" font-weight="bold" font-size="11.00" fill="#000000">package_service</text>
<text text-anchor="start" x="387.0219" y="-493.8" font-family="Helvetica,sans-Serif" font-size="11.00" fill="#000000">[table]</text>
<polygon fill="none" stroke="#000000" points="286.5,-466.7 286.5,-485.7 421.5,-485.7 421.5,-466.7 286.5,-466.7"/>
<text text-anchor="start" x="289.5" y="-472.8" font-family="Helvetica,sans-Serif" font-size="11.00" fill="#000000">...</text>
<polygon fill="#ffffff" stroke="transparent" points="286.5,-447.7 286.5,-466.7 352.5,-466.7 352.5,-447.7 286.5,-447.7"/>
<polygon fill="none" stroke="#000000" points="286.5,-447.7 286.5,-466.7 352.5,-466.7 352.5,-447.7 286.5,-447.7"/>
<text text-anchor="start" x="289.5" y="-453.8" font-family="Helvetica,sans-Serif" font-size="11.00" fill="#000000">&lt; 2</text>
<polygon fill="#ffffff" stroke="transparent" points="352.5,-447.7 352.5,-466.7 386.5,-466.7 386.5,-447.7 352.5,-447.7"/>
<polygon fill="none" stroke="#000000" points="352.5,-447.7 352.5,-466.7 386.5,-466.7 386.5,-447.7 352.5,-447.7"/>
<text text-anchor="start" x="377.3862" y="-453.8" font-family="Helvetica,sans-Serif" font-size="11.00" fill="#000000"> &#160;</text>
<polygon fill="#ffffff" stroke="transparent" points="386.5,-447.7 386.5,-466.7 421.5,-466.7 421.5,-447.7 386.5,-447.7"/>
<polygon fill="none" stroke="#000000" points="386.5,-447.7 386.5,-466.7 421.5,-466.7 421.5,-447.7 386.5,-447.7"/>
<text text-anchor="start" x="412.3862" y="-453.8" font-family="Helvetica,sans-Serif" font-size="11.00" fill="#000000"> &#160;</text>
</a>
</g>
</g>
<!-- package_service&#45;&gt;package_group -->
<g id="edge8" class="edge">
<title>package_service:w&#45;&gt;package_group:e</title>
<path fill="none" stroke="#000000" d="M271.8487,-475.225C231.3802,-477.5207 221.6041,-511.2977 173.5,-516.7"/>
<polygon fill="#000000" stroke="#000000" points="278.5042,-475.4407 286.3833,-479.2981 282.5021,-475.5704 286.5,-475.7 286.5,-475.7 286.5,-475.7 282.5021,-475.5704 286.6167,-472.1019 278.5042,-475.4407 278.5042,-475.4407"/>
<ellipse fill="none" stroke="#000000" cx="275.3059" cy="-475.337" rx="3.2" ry="3.2"/>
</g>
<!-- package_service&#45;&gt;package_group -->
<g id="edge9" class="edge">
<title>package_service:w&#45;&gt;package_group:e</title>
<path fill="none" stroke="#000000" d="M272.3771,-478.5721C231.4643,-490.108 221.8128,-523.0301 173.5,-516.7"/>
<polygon fill="#000000" stroke="#000000" points="278.6605,-477.2943 287.2175,-479.2278 282.5802,-476.4972 286.5,-475.7 286.5,-475.7 286.5,-475.7 282.5802,-476.4972 285.7825,-472.1722 278.6605,-477.2943 278.6605,-477.2943"/>
<ellipse fill="none" stroke="#000000" cx="275.5247" cy="-477.9321" rx="3.2" ry="3.2"/>
</g>
<!-- published_data -->
<g id="node10" class="node">
<title>published_data</title>
<g id="a_node10"><a xlink:href="../../tables/published_data.html" xlink:title="published_data" target="_top">
<polygon fill="#ffffff" stroke="transparent" points="290,-366.2 290,-427.2 417,-427.2 417,-366.2 290,-366.2"/>
<polygon fill="#f5f5f5" stroke="transparent" points="290.5,-403.7 290.5,-426.7 417.5,-426.7 417.5,-403.7 290.5,-403.7"/>
<polygon fill="none" stroke="#000000" points="290.5,-403.7 290.5,-426.7 417.5,-426.7 417.5,-403.7 290.5,-403.7"/>
<text text-anchor="start" x="295.5" y="-412.3" font-family="Helvetica,sans-Serif" font-weight="bold" font-size="11.00" fill="#000000">published_data</text>
<text text-anchor="start" x="383.0219" y="-411.8" font-family="Helvetica,sans-Serif" font-size="11.00" fill="#000000">[table]</text>
<polygon fill="none" stroke="#000000" points="290.5,-384.7 290.5,-403.7 417.5,-403.7 417.5,-384.7 290.5,-384.7"/>
<text text-anchor="start" x="293.5" y="-390.8" font-family="Helvetica,sans-Serif" font-size="11.00" fill="#000000">...</text>
<polygon fill="#ffffff" stroke="transparent" points="290.5,-365.7 290.5,-384.7 347.5,-384.7 347.5,-365.7 290.5,-365.7"/>
<polygon fill="none" stroke="#000000" points="290.5,-365.7 290.5,-384.7 347.5,-384.7 347.5,-365.7 290.5,-365.7"/>
<text text-anchor="start" x="293.5" y="-371.8" font-family="Helvetica,sans-Serif" font-size="11.00" fill="#000000">&lt; 1</text>
<polygon fill="#ffffff" stroke="transparent" points="347.5,-365.7 347.5,-384.7 377.5,-384.7 377.5,-365.7 347.5,-365.7"/>
<polygon fill="none" stroke="#000000" points="347.5,-365.7 347.5,-384.7 377.5,-384.7 377.5,-365.7 347.5,-365.7"/>
<text text-anchor="start" x="368.3862" y="-371.8" font-family="Helvetica,sans-Serif" font-size="11.00" fill="#000000"> &#160;</text>
<polygon fill="#ffffff" stroke="transparent" points="377.5,-365.7 377.5,-384.7 417.5,-384.7 417.5,-365.7 377.5,-365.7"/>
<polygon fill="none" stroke="#000000" points="377.5,-365.7 377.5,-384.7 417.5,-384.7 417.5,-365.7 377.5,-365.7"/>
<text text-anchor="start" x="398.9053" y="-371.8" font-family="Helvetica,sans-Serif" font-size="11.00" fill="#000000">2 &gt;</text>
</a>
</g>
</g>
<!-- published_data&#45;&gt;package_group -->
<g id="edge10" class="edge">
<title>published_data:w&#45;&gt;package_group:e</title>
<path fill="none" stroke="#000000" d="M275.9218,-394.5679C248.1682,-398.206 237.3585,-413.1868 214,-437.7 186.7812,-466.2644 212.9562,-516.7 173.5,-516.7"/>
<polygon fill="#000000" stroke="#000000" points="282.5141,-394.1755 290.714,-397.2936 286.5071,-393.9377 290.5,-393.7 290.5,-393.7 290.5,-393.7 286.5071,-393.9377 290.286,-390.1064 282.5141,-394.1755 282.5141,-394.1755"/>
<ellipse fill="none" stroke="#000000" cx="279.3198" cy="-394.3656" rx="3.2" ry="3.2"/>
</g>
<!-- published_document_open_count -->
<g id="node11" class="node">
<title>published_document_open_count</title>
<g id="a_node11"><a xlink:href="../../tables/published_document_open_count.html" xlink:title="published_document_open_count" target="_top">
<polygon fill="#ffffff" stroke="transparent" points="236.5,-284.2 236.5,-345.2 470.5,-345.2 470.5,-284.2 236.5,-284.2"/>
<polygon fill="#f5f5f5" stroke="transparent" points="236.5,-321.7 236.5,-344.7 470.5,-344.7 470.5,-321.7 236.5,-321.7"/>
<polygon fill="none" stroke="#000000" points="236.5,-321.7 236.5,-344.7 470.5,-344.7 470.5,-321.7 236.5,-321.7"/>
<text text-anchor="start" x="241.5" y="-330.3" font-family="Helvetica,sans-Serif" font-weight="bold" font-size="11.00" fill="#000000">published_document_open_count</text>
<text text-anchor="start" x="436.0219" y="-329.8" font-family="Helvetica,sans-Serif" font-size="11.00" fill="#000000">[table]</text>
<polygon fill="none" stroke="#000000" points="236.5,-302.7 236.5,-321.7 470.5,-321.7 470.5,-302.7 236.5,-302.7"/>
<text text-anchor="start" x="239.5" y="-308.8" font-family="Helvetica,sans-Serif" font-size="11.00" fill="#000000">...</text>
<polygon fill="#ffffff" stroke="transparent" points="236.5,-283.7 236.5,-302.7 351.5,-302.7 351.5,-283.7 236.5,-283.7"/>
<polygon fill="none" stroke="#000000" points="236.5,-283.7 236.5,-302.7 351.5,-302.7 351.5,-283.7 236.5,-283.7"/>
<text text-anchor="start" x="239.5" y="-289.8" font-family="Helvetica,sans-Serif" font-size="11.00" fill="#000000">&lt; 1</text>
<polygon fill="#ffffff" stroke="transparent" points="351.5,-283.7 351.5,-302.7 410.5,-302.7 410.5,-283.7 351.5,-283.7"/>
<polygon fill="none" stroke="#000000" points="351.5,-283.7 351.5,-302.7 410.5,-302.7 410.5,-283.7 351.5,-283.7"/>
<text text-anchor="start" x="401.3862" y="-289.8" font-family="Helvetica,sans-Serif" font-size="11.00" fill="#000000"> &#160;</text>
<polygon fill="#ffffff" stroke="transparent" points="410.5,-283.7 410.5,-302.7 470.5,-302.7 470.5,-283.7 410.5,-283.7"/>
<polygon fill="none" stroke="#000000" points="410.5,-283.7 410.5,-302.7 470.5,-302.7 470.5,-283.7 410.5,-283.7"/>
<text text-anchor="start" x="461.3862" y="-289.8" font-family="Helvetica,sans-Serif" font-size="11.00" fill="#000000"> &#160;</text>
</a>
</g>
</g>
<!-- published_document_open_count&#45;&gt;package_group -->
<g id="edge11" class="edge">
<title>published_document_open_count:w&#45;&gt;package_group:e</title>
<path fill="none" stroke="#000000" d="M221.9518,-313.729C155.3751,-335.0196 263.2315,-516.7 173.5,-516.7"/>
<polygon fill="#000000" stroke="#000000" points="228.5767,-312.8051 236.9973,-315.2655 232.5383,-312.2525 236.5,-311.7 236.5,-311.7 236.5,-311.7 232.5383,-312.2525 236.0027,-308.1345 228.5767,-312.8051 228.5767,-312.8051"/>
<ellipse fill="none" stroke="#000000" cx="225.4074" cy="-313.2471" rx="3.2" ry="3.2"/>
</g>
<!-- published_version -->
<g id="node12" class="node">
<title>published_version</title>
<g id="a_node12"><a xlink:href="../../tables/published_version.html" xlink:title="published_version" target="_top">
<polygon fill="#ffffff" stroke="transparent" points="281,-202.2 281,-263.2 426,-263.2 426,-202.2 281,-202.2"/>
<polygon fill="#f5f5f5" stroke="transparent" points="281.5,-239.7 281.5,-262.7 426.5,-262.7 426.5,-239.7 281.5,-239.7"/>
<polygon fill="none" stroke="#000000" points="281.5,-239.7 281.5,-262.7 426.5,-262.7 426.5,-239.7 281.5,-239.7"/>
<text text-anchor="start" x="286.5" y="-248.3" font-family="Helvetica,sans-Serif" font-weight="bold" font-size="11.00" fill="#000000">published_version</text>
<text text-anchor="start" x="392.0219" y="-247.8" font-family="Helvetica,sans-Serif" font-size="11.00" fill="#000000">[table]</text>
<polygon fill="none" stroke="#000000" points="281.5,-220.7 281.5,-239.7 426.5,-239.7 426.5,-220.7 281.5,-220.7"/>
<text text-anchor="start" x="284.5" y="-226.8" font-family="Helvetica,sans-Serif" font-size="11.00" fill="#000000">...</text>
<polygon fill="#ffffff" stroke="transparent" points="281.5,-201.7 281.5,-220.7 344.5,-220.7 344.5,-201.7 281.5,-201.7"/>
<polygon fill="none" stroke="#000000" points="281.5,-201.7 281.5,-220.7 344.5,-220.7 344.5,-201.7 281.5,-201.7"/>
<text text-anchor="start" x="284.5" y="-207.8" font-family="Helvetica,sans-Serif" font-size="11.00" fill="#000000">&lt; 1</text>
<polygon fill="#ffffff" stroke="transparent" points="344.5,-201.7 344.5,-220.7 377.5,-220.7 377.5,-201.7 344.5,-201.7"/>
<polygon fill="none" stroke="#000000" points="344.5,-201.7 344.5,-220.7 377.5,-220.7 377.5,-201.7 344.5,-201.7"/>
<text text-anchor="start" x="368.3862" y="-207.8" font-family="Helvetica,sans-Serif" font-size="11.00" fill="#000000"> &#160;</text>
<polygon fill="#ffffff" stroke="transparent" points="377.5,-201.7 377.5,-220.7 426.5,-220.7 426.5,-201.7 377.5,-201.7"/>
<polygon fill="none" stroke="#000000" points="377.5,-201.7 377.5,-220.7 426.5,-220.7 426.5,-201.7 377.5,-201.7"/>
<text text-anchor="start" x="401.7904" y="-207.8" font-family="Helvetica,sans-Serif" font-size="11.00" fill="#000000">18 &gt;</text>
</a>
</g>
</g>
<!-- published_version&#45;&gt;package_group -->
<g id="edge12" class="edge">
<title>published_version:w&#45;&gt;package_group:e</title>
<path fill="none" stroke="#000000" d="M267.0188,-230.6336C241.9345,-234.216 230.69,-248.1774 214,-273.7 184.0381,-319.518 228.2449,-516.7 173.5,-516.7"/>
<polygon fill="#000000" stroke="#000000" points="273.5166,-230.2147 281.7316,-233.2925 277.5083,-229.9574 281.5,-229.7 281.5,-229.7 281.5,-229.7 277.5083,-229.9574 281.2684,-226.1075 273.5166,-230.2147 273.5166,-230.2147"/>
<ellipse fill="none" stroke="#000000" cx="270.3232" cy="-230.4206" rx="3.2" ry="3.2"/>
</g>
<!-- published_version_open_count -->
<g id="node13" class="node">
<title>published_version_open_count</title>
<g id="a_node13"><a xlink:href="../../tables/published_version_open_count.html" xlink:title="published_version_open_count" target="_top">
<polygon fill="#ffffff" stroke="transparent" points="244,-120.2 244,-181.2 463,-181.2 463,-120.2 244,-120.2"/>
<polygon fill="#f5f5f5" stroke="transparent" points="244.5,-157.7 244.5,-180.7 463.5,-180.7 463.5,-157.7 244.5,-157.7"/>
<polygon fill="none" stroke="#000000" points="244.5,-157.7 244.5,-180.7 463.5,-180.7 463.5,-157.7 244.5,-157.7"/>
<text text-anchor="start" x="249.5" y="-166.3" font-family="Helvetica,sans-Serif" font-weight="bold" font-size="11.00" fill="#000000">published_version_open_count</text>
<text text-anchor="start" x="429.0219" y="-165.8" font-family="Helvetica,sans-Serif" font-size="11.00" fill="#000000">[table]</text>
<polygon fill="none" stroke="#000000" points="244.5,-138.7 244.5,-157.7 463.5,-157.7 463.5,-138.7 244.5,-138.7"/>
<text text-anchor="start" x="247.5" y="-144.8" font-family="Helvetica,sans-Serif" font-size="11.00" fill="#000000">...</text>
<polygon fill="#ffffff" stroke="transparent" points="244.5,-119.7 244.5,-138.7 352.5,-138.7 352.5,-119.7 244.5,-119.7"/>
<polygon fill="none" stroke="#000000" points="244.5,-119.7 244.5,-138.7 352.5,-138.7 352.5,-119.7 244.5,-119.7"/>
<text text-anchor="start" x="247.5" y="-125.8" font-family="Helvetica,sans-Serif" font-size="11.00" fill="#000000">&lt; 1</text>
<polygon fill="#ffffff" stroke="transparent" points="352.5,-119.7 352.5,-138.7 407.5,-138.7 407.5,-119.7 352.5,-119.7"/>
<polygon fill="none" stroke="#000000" points="352.5,-119.7 352.5,-138.7 407.5,-138.7 407.5,-119.7 352.5,-119.7"/>
<text text-anchor="start" x="398.3862" y="-125.8" font-family="Helvetica,sans-Serif" font-size="11.00" fill="#000000"> &#160;</text>
<polygon fill="#ffffff" stroke="transparent" points="407.5,-119.7 407.5,-138.7 463.5,-138.7 463.5,-119.7 407.5,-119.7"/>
<polygon fill="none" stroke="#000000" points="407.5,-119.7 407.5,-138.7 463.5,-138.7 463.5,-119.7 407.5,-119.7"/>
<text text-anchor="start" x="454.3862" y="-125.8" font-family="Helvetica,sans-Serif" font-size="11.00" fill="#000000"> &#160;</text>
</a>
</g>
</g>
<!-- published_version_open_count&#45;&gt;package_group -->
<g id="edge13" class="edge">
<title>published_version_open_count:w&#45;&gt;package_group:e</title>
<path fill="none" stroke="#000000" d="M230.4948,-152.1011C172.6262,-193.7335 251.622,-516.7 173.5,-516.7"/>
<polygon fill="#000000" stroke="#000000" points="236.868,-150.0984 245.5793,-151.1344 240.684,-148.8992 244.5,-147.7 244.5,-147.7 244.5,-147.7 240.684,-148.8992 243.4207,-144.2656 236.868,-150.0984 236.868,-150.0984"/>
<ellipse fill="none" stroke="#000000" cx="233.8151" cy="-151.0577" rx="3.2" ry="3.2"/>
</g>
<!-- shared_url_info -->
<g id="node14" class="node">
<title>shared_url_info</title>
<g id="a_node14"><a xlink:href="../../tables/shared_url_info.html" xlink:title="shared_url_info" target="_top">
<polygon fill="#ffffff" stroke="transparent" points="289,-38.2 289,-99.2 418,-99.2 418,-38.2 289,-38.2"/>
<polygon fill="#f5f5f5" stroke="transparent" points="289.5,-75.7 289.5,-98.7 418.5,-98.7 418.5,-75.7 289.5,-75.7"/>
<polygon fill="none" stroke="#000000" points="289.5,-75.7 289.5,-98.7 418.5,-98.7 418.5,-75.7 289.5,-75.7"/>
<text text-anchor="start" x="294.5" y="-84.3" font-family="Helvetica,sans-Serif" font-weight="bold" font-size="11.00" fill="#000000">shared_url_info</text>
<text text-anchor="start" x="384.0219" y="-83.8" font-family="Helvetica,sans-Serif" font-size="11.00" fill="#000000">[table]</text>
<polygon fill="none" stroke="#000000" points="289.5,-56.7 289.5,-75.7 418.5,-75.7 418.5,-56.7 289.5,-56.7"/>
<text text-anchor="start" x="292.5" y="-62.8" font-family="Helvetica,sans-Serif" font-size="11.00" fill="#000000">...</text>
<polygon fill="#ffffff" stroke="transparent" points="289.5,-37.7 289.5,-56.7 352.5,-56.7 352.5,-37.7 289.5,-37.7"/>
<polygon fill="none" stroke="#000000" points="289.5,-37.7 289.5,-56.7 352.5,-56.7 352.5,-37.7 289.5,-37.7"/>
<text text-anchor="start" x="292.5" y="-43.8" font-family="Helvetica,sans-Serif" font-size="11.00" fill="#000000">&lt; 1</text>
<polygon fill="#ffffff" stroke="transparent" points="352.5,-37.7 352.5,-56.7 385.5,-56.7 385.5,-37.7 352.5,-37.7"/>
<polygon fill="none" stroke="#000000" points="352.5,-37.7 352.5,-56.7 385.5,-56.7 385.5,-37.7 352.5,-37.7"/>
<text text-anchor="start" x="376.3862" y="-43.8" font-family="Helvetica,sans-Serif" font-size="11.00" fill="#000000"> &#160;</text>
<polygon fill="#ffffff" stroke="transparent" points="385.5,-37.7 385.5,-56.7 418.5,-56.7 418.5,-37.7 385.5,-37.7"/>
<polygon fill="none" stroke="#000000" points="385.5,-37.7 385.5,-56.7 418.5,-56.7 418.5,-37.7 385.5,-37.7"/>
<text text-anchor="start" x="409.3862" y="-43.8" font-family="Helvetica,sans-Serif" font-size="11.00" fill="#000000"> &#160;</text>
</a>
</g>
</g>
<!-- shared_url_info&#45;&gt;package_group -->
<g id="edge14" class="edge">
<title>shared_url_info:w&#45;&gt;package_group:e</title>
<path fill="none" stroke="#000000" d="M274.7969,-66.3608C246.2787,-69.1961 232.1255,-81.4936 214,-109.7 164.8637,-186.1645 264.3911,-516.7 173.5,-516.7"/>
<polygon fill="#000000" stroke="#000000" points="281.5081,-66.0592 289.6616,-69.2964 285.504,-65.8796 289.5,-65.7 289.5,-65.7 289.5,-65.7 285.504,-65.8796 289.3384,-62.1036 281.5081,-66.0592 281.5081,-66.0592"/>
<ellipse fill="none" stroke="#000000" cx="278.3113" cy="-66.2029" rx="3.2" ry="3.2"/>
</g>
</g>
</svg>
