<?xml version="1.0" encoding="UTF-8" standalone="no"?>
<!DOCTYPE svg PUBLIC "-//W3C//DTD SVG 1.1//EN"
 "http://www.w3.org/Graphics/SVG/1.1/DTD/svg11.dtd">
<!-- Generated by graphviz version 2.40.1 (20161225.0304)
 -->
<!-- Title: oneDegreeRelationshipsDiagram Pages: 1 -->
<svg width="300pt" height="228pt"
 viewBox="0.00 0.00 300.00 228.20" xmlns="http://www.w3.org/2000/svg" xmlns:xlink="http://www.w3.org/1999/xlink">
<g id="graph0" class="graph" transform="scale(1 1) rotate(0) translate(4 224.2)">
<title>oneDegreeRelationshipsDiagram</title>
<polygon fill="#ffffff" stroke="transparent" points="-4,4 -4,-224.2 296,-224.2 296,4 -4,4"/>
<text text-anchor="middle" x="72.4936" y="-7.3" font-family="Helvetica,sans-Serif" font-size="11.00" fill="#000000">Generated by SchemaSpy</text>
<!-- operation_group_history -->
<g id="node1" class="node">
<title>operation_group_history</title>
<g id="a_node1"><a xlink:href="../../tables/operation_group_history.html" xlink:title="operation_group_history" target="_top">
<polygon fill="#ffffff" stroke="transparent" points="8,-38.2 8,-216.2 284,-216.2 284,-38.2 8,-38.2"/>
<polygon fill="#f5f5f5" stroke="transparent" points="10,-191.2 10,-214.2 282,-214.2 282,-191.2 10,-191.2"/>
<polygon fill="none" stroke="#000000" points="10,-191.2 10,-214.2 282,-214.2 282,-191.2 10,-191.2"/>
<text text-anchor="start" x="15" y="-199.8" font-family="Helvetica,sans-Serif" font-weight="bold" font-size="11.00" fill="#000000">operation_group_history</text>
<text text-anchor="start" x="247.0437" y="-199.3" font-family="Helvetica,sans-Serif" font-size="11.00" fill="#000000">[table]</text>
<polygon fill="none" stroke="#000000" points="10,-169.2 10,-191.2 173,-191.2 173,-169.2 10,-169.2"/>
<text text-anchor="start" x="30" y="-176.3" font-family="Helvetica,sans-Serif" font-size="11.00" fill="#000000">group_id</text>
<polygon fill="none" stroke="#000000" points="173,-169.2 173,-191.2 282,-191.2 282,-169.2 173,-169.2"/>
<text text-anchor="start" x="175.5344" y="-176.9" font-family="Helvetica,sans-Serif" font-size="11.00" fill="#000000">varchar[2147483647]</text>
<polygon fill="none" stroke="#000000" points="10,-147.2 10,-169.2 173,-169.2 173,-147.2 10,-147.2"/>
<text text-anchor="start" x="30" y="-154.3" font-family="Helvetica,sans-Serif" font-size="11.00" fill="#000000">action</text>
<polygon fill="none" stroke="#000000" points="173,-147.2 173,-169.2 282,-169.2 282,-147.2 173,-147.2"/>
<text text-anchor="start" x="175.5344" y="-154.9" font-family="Helvetica,sans-Serif" font-size="11.00" fill="#000000">varchar[2147483647]</text>
<polygon fill="none" stroke="#000000" points="10,-125.2 10,-147.2 173,-147.2 173,-125.2 10,-125.2"/>
<text text-anchor="start" x="30" y="-132.3" font-family="Helvetica,sans-Serif" font-size="11.00" fill="#000000">data</text>
<polygon fill="none" stroke="#000000" points="173,-125.2 173,-147.2 282,-147.2 282,-125.2 173,-125.2"/>
<text text-anchor="start" x="176" y="-132.9" font-family="Helvetica,sans-Serif" font-size="11.00" fill="#000000">jsonb[2147483647]</text>
<polygon fill="none" stroke="#000000" points="10,-103.2 10,-125.2 173,-125.2 173,-103.2 10,-103.2"/>
<text text-anchor="start" x="30" y="-110.3" font-family="Helvetica,sans-Serif" font-size="11.00" fill="#000000">user_id</text>
<polygon fill="none" stroke="#000000" points="173,-103.2 173,-125.2 282,-125.2 282,-103.2 173,-103.2"/>
<text text-anchor="start" x="175.5344" y="-110.9" font-family="Helvetica,sans-Serif" font-size="11.00" fill="#000000">varchar[2147483647]</text>
<polygon fill="none" stroke="#000000" points="10,-81.2 10,-103.2 173,-103.2 173,-81.2 10,-81.2"/>
<text text-anchor="start" x="30" y="-88.3" font-family="Helvetica,sans-Serif" font-size="11.00" fill="#000000">date</text>
<polygon fill="none" stroke="#000000" points="173,-81.2 173,-103.2 282,-103.2 282,-81.2 173,-81.2"/>
<text text-anchor="start" x="176" y="-88.9" font-family="Helvetica,sans-Serif" font-size="11.00" fill="#000000">timestamp[29,6]</text>
<polygon fill="none" stroke="#000000" points="10,-59.2 10,-81.2 173,-81.2 173,-59.2 10,-59.2"/>
<text text-anchor="start" x="30" y="-66.3" font-family="Helvetica,sans-Serif" font-size="11.00" fill="#000000">automatic</text>
<polygon fill="none" stroke="#000000" points="173,-59.2 173,-81.2 282,-81.2 282,-59.2 173,-59.2"/>
<text text-anchor="start" x="176" y="-66.9" font-family="Helvetica,sans-Serif" font-size="11.00" fill="#000000">bool[1]</text>
<polygon fill="#ffffff" stroke="transparent" points="10,-40.2 10,-59.2 96,-59.2 96,-40.2 10,-40.2"/>
<polygon fill="none" stroke="#000000" points="10,-40.2 10,-59.2 96,-59.2 96,-40.2 10,-40.2"/>
<text text-anchor="start" x="13" y="-46.3" font-family="Helvetica,sans-Serif" font-size="11.00" fill="#000000">&lt; 0</text>
<polygon fill="#ffffff" stroke="transparent" points="96,-40.2 96,-59.2 173,-59.2 173,-40.2 96,-40.2"/>
<polygon fill="none" stroke="#000000" points="96,-40.2 96,-59.2 173,-59.2 173,-40.2 96,-40.2"/>
<text text-anchor="start" x="163.8862" y="-46.3" font-family="Helvetica,sans-Serif" font-size="11.00" fill="#000000"> &#160;</text>
<polygon fill="#ffffff" stroke="transparent" points="173,-40.2 173,-59.2 282,-59.2 282,-40.2 173,-40.2"/>
<polygon fill="none" stroke="#000000" points="173,-40.2 173,-59.2 282,-59.2 282,-40.2 173,-40.2"/>
<text text-anchor="start" x="263.4053" y="-46.3" font-family="Helvetica,sans-Serif" font-size="11.00" fill="#000000">0 &gt;</text>
<polygon fill="none" stroke="#000000" stroke-width="2" points="9,-39.2 9,-215.2 283,-215.2 283,-39.2 9,-39.2"/>
</a>
</g>
</g>
</g>
</svg>
