<?xml version="1.0" encoding="UTF-8" standalone="no"?>
<!DOCTYPE svg PUBLIC "-//W3C//DTD SVG 1.1//EN"
 "http://www.w3.org/Graphics/SVG/1.1/DTD/svg11.dtd">
<!-- Generated by graphviz version 2.40.1 (20161225.0304)
 -->
<!-- Title: twoDegreesRelationshipsDiagram Pages: 1 -->
<svg width="519pt" height="1125pt"
 viewBox="0.00 0.00 519.00 1125.20" xmlns="http://www.w3.org/2000/svg" xmlns:xlink="http://www.w3.org/1999/xlink">
<g id="graph0" class="graph" transform="scale(1 1) rotate(0) translate(4 1121.2)">
<title>twoDegreesRelationshipsDiagram</title>
<polygon fill="#ffffff" stroke="transparent" points="-4,4 -4,-1121.2 515,-1121.2 515,4 -4,4"/>
<text text-anchor="middle" x="72.4936" y="-7.3" font-family="Helvetica,sans-Serif" font-size="11.00" fill="#000000">Generated by SchemaSpy</text>
<!-- activity_tracking -->
<g id="node1" class="node">
<title>activity_tracking</title>
<g id="a_node1"><a xlink:href="../../tables/activity_tracking.html" xlink:title="activity_tracking" target="_top">
<polygon fill="#ffffff" stroke="transparent" points="296,-1052.2 296,-1113.2 429,-1113.2 429,-1052.2 296,-1052.2"/>
<polygon fill="#f5f5f5" stroke="transparent" points="296.5,-1089.7 296.5,-1112.7 429.5,-1112.7 429.5,-1089.7 296.5,-1089.7"/>
<polygon fill="none" stroke="#000000" points="296.5,-1089.7 296.5,-1112.7 429.5,-1112.7 429.5,-1089.7 296.5,-1089.7"/>
<text text-anchor="start" x="301.5" y="-1098.3" font-family="Helvetica,sans-Serif" font-weight="bold" font-size="11.00" fill="#000000">activity_tracking</text>
<text text-anchor="start" x="395.0219" y="-1097.8" font-family="Helvetica,sans-Serif" font-size="11.00" fill="#000000">[table]</text>
<polygon fill="none" stroke="#000000" points="296.5,-1070.7 296.5,-1089.7 429.5,-1089.7 429.5,-1070.7 296.5,-1070.7"/>
<text text-anchor="start" x="299.5" y="-1076.8" font-family="Helvetica,sans-Serif" font-size="11.00" fill="#000000">...</text>
<polygon fill="#ffffff" stroke="transparent" points="296.5,-1051.7 296.5,-1070.7 361.5,-1070.7 361.5,-1051.7 296.5,-1051.7"/>
<polygon fill="none" stroke="#000000" points="296.5,-1051.7 296.5,-1070.7 361.5,-1070.7 361.5,-1051.7 296.5,-1051.7"/>
<text text-anchor="start" x="299.5" y="-1057.8" font-family="Helvetica,sans-Serif" font-size="11.00" fill="#000000">&lt; 1</text>
<polygon fill="#ffffff" stroke="transparent" points="361.5,-1051.7 361.5,-1070.7 395.5,-1070.7 395.5,-1051.7 361.5,-1051.7"/>
<polygon fill="none" stroke="#000000" points="361.5,-1051.7 361.5,-1070.7 395.5,-1070.7 395.5,-1051.7 361.5,-1051.7"/>
<text text-anchor="start" x="386.3862" y="-1057.8" font-family="Helvetica,sans-Serif" font-size="11.00" fill="#000000"> &#160;</text>
<polygon fill="#ffffff" stroke="transparent" points="395.5,-1051.7 395.5,-1070.7 429.5,-1070.7 429.5,-1051.7 395.5,-1051.7"/>
<polygon fill="none" stroke="#000000" points="395.5,-1051.7 395.5,-1070.7 429.5,-1070.7 429.5,-1051.7 395.5,-1051.7"/>
<text text-anchor="start" x="420.3862" y="-1057.8" font-family="Helvetica,sans-Serif" font-size="11.00" fill="#000000"> &#160;</text>
</a>
</g>
</g>
<!-- package_group -->
<g id="node2" class="node">
<title>package_group</title>
<g id="a_node2"><a xlink:href="../../tables/package_group.html" xlink:title="package_group" target="_top">
<polygon fill="#ffffff" stroke="transparent" points="8,-446.2 8,-551.2 173,-551.2 173,-446.2 8,-446.2"/>
<polygon fill="#f5f5f5" stroke="transparent" points="8.5,-527.7 8.5,-550.7 173.5,-550.7 173.5,-527.7 8.5,-527.7"/>
<polygon fill="none" stroke="#000000" points="8.5,-527.7 8.5,-550.7 173.5,-550.7 173.5,-527.7 8.5,-527.7"/>
<text text-anchor="start" x="13.5" y="-536.3" font-family="Helvetica,sans-Serif" font-weight="bold" font-size="11.00" fill="#000000">package_group</text>
<text text-anchor="start" x="138.5437" y="-535.8" font-family="Helvetica,sans-Serif" font-size="11.00" fill="#000000">[table]</text>
<polygon fill="none" stroke="#000000" points="8.5,-505.7 8.5,-527.7 173.5,-527.7 173.5,-505.7 8.5,-505.7"/>
<image xlink:href="../../images/primaryKeys.png" width="11px" height="12px" preserveAspectRatio="xMinYMin meet" x="13.5" y="-522.7"/>
<text text-anchor="start" x="28.5" y="-512.8" font-family="Helvetica,sans-Serif" font-size="11.00" fill="#000000">id</text>
<polygon fill="none" stroke="#000000" points="8.5,-483.7 8.5,-505.7 173.5,-505.7 173.5,-483.7 8.5,-483.7"/>
<image xlink:href="../../images/foreignKeys.png" width="11px" height="12px" preserveAspectRatio="xMinYMin meet" x="13.5" y="-500.7"/>
<text text-anchor="start" x="28.5" y="-490.8" font-family="Helvetica,sans-Serif" font-size="11.00" fill="#000000">parent_id</text>
<polygon fill="none" stroke="#000000" points="8.5,-464.7 8.5,-483.7 173.5,-483.7 173.5,-464.7 8.5,-464.7"/>
<text text-anchor="start" x="11.5" y="-470.8" font-family="Helvetica,sans-Serif" font-size="11.00" fill="#000000">...</text>
<polygon fill="#ffffff" stroke="transparent" points="8.5,-445.7 8.5,-464.7 81.5,-464.7 81.5,-445.7 8.5,-445.7"/>
<polygon fill="none" stroke="#000000" points="8.5,-445.7 8.5,-464.7 81.5,-464.7 81.5,-445.7 8.5,-445.7"/>
<text text-anchor="start" x="11.5" y="-451.8" font-family="Helvetica,sans-Serif" font-size="11.00" fill="#000000">&lt; 1</text>
<polygon fill="#ffffff" stroke="transparent" points="81.5,-445.7 81.5,-464.7 119.5,-464.7 119.5,-445.7 81.5,-445.7"/>
<polygon fill="none" stroke="#000000" points="81.5,-445.7 81.5,-464.7 119.5,-464.7 119.5,-445.7 81.5,-445.7"/>
<text text-anchor="start" x="110.3862" y="-451.8" font-family="Helvetica,sans-Serif" font-size="11.00" fill="#000000"> &#160;</text>
<polygon fill="#ffffff" stroke="transparent" points="119.5,-445.7 119.5,-464.7 173.5,-464.7 173.5,-445.7 119.5,-445.7"/>
<polygon fill="none" stroke="#000000" points="119.5,-445.7 119.5,-464.7 173.5,-464.7 173.5,-445.7 119.5,-445.7"/>
<text text-anchor="start" x="148.7904" y="-451.8" font-family="Helvetica,sans-Serif" font-size="11.00" fill="#000000">15 &gt;</text>
</a>
</g>
</g>
<!-- activity_tracking&#45;&gt;package_group -->
<g id="edge1" class="edge">
<title>activity_tracking:w&#45;&gt;package_group:e</title>
<path fill="none" stroke="#000000" d="M281.8961,-1079.4073C251.1483,-1077.9756 234.0896,-1070.562 214,-1041.7 180.5759,-993.6807 232.0066,-516.7 173.5,-516.7"/>
<polygon fill="#000000" stroke="#000000" points="288.5016,-1079.5396 296.4278,-1083.2993 292.5008,-1079.6198 296.5,-1079.7 296.5,-1079.7 296.5,-1079.7 292.5008,-1079.6198 296.5722,-1076.1007 288.5016,-1079.5396 288.5016,-1079.5396"/>
<ellipse fill="none" stroke="#000000" cx="285.3022" cy="-1079.4755" rx="3.2" ry="3.2"/>
</g>
<!-- build -->
<g id="node3" class="node">
<title>build</title>
<g id="a_node3"><a xlink:href="../../tables/build.html" xlink:title="build" target="_top">
<polygon fill="#ffffff" stroke="transparent" points="329,-970.2 329,-1031.2 396,-1031.2 396,-970.2 329,-970.2"/>
<polygon fill="#f5f5f5" stroke="transparent" points="329.5,-1007.7 329.5,-1030.7 396.5,-1030.7 396.5,-1007.7 329.5,-1007.7"/>
<polygon fill="none" stroke="#000000" points="329.5,-1007.7 329.5,-1030.7 396.5,-1030.7 396.5,-1007.7 329.5,-1007.7"/>
<text text-anchor="start" x="334.5" y="-1016.3" font-family="Helvetica,sans-Serif" font-weight="bold" font-size="11.00" fill="#000000">build</text>
<text text-anchor="start" x="362.0219" y="-1015.8" font-family="Helvetica,sans-Serif" font-size="11.00" fill="#000000">[table]</text>
<polygon fill="none" stroke="#000000" points="329.5,-988.7 329.5,-1007.7 396.5,-1007.7 396.5,-988.7 329.5,-988.7"/>
<text text-anchor="start" x="332.5" y="-994.8" font-family="Helvetica,sans-Serif" font-size="11.00" fill="#000000">...</text>
<polygon fill="#ffffff" stroke="transparent" points="329.5,-969.7 329.5,-988.7 356.5,-988.7 356.5,-969.7 329.5,-969.7"/>
<polygon fill="none" stroke="#000000" points="329.5,-969.7 329.5,-988.7 356.5,-988.7 356.5,-969.7 329.5,-969.7"/>
<text text-anchor="start" x="332.5" y="-975.8" font-family="Helvetica,sans-Serif" font-size="11.00" fill="#000000">&lt; 1</text>
<polygon fill="#ffffff" stroke="transparent" points="356.5,-969.7 356.5,-988.7 371.5,-988.7 371.5,-969.7 356.5,-969.7"/>
<polygon fill="none" stroke="#000000" points="356.5,-969.7 356.5,-988.7 371.5,-988.7 371.5,-969.7 356.5,-969.7"/>
<text text-anchor="start" x="362.3862" y="-975.8" font-family="Helvetica,sans-Serif" font-size="11.00" fill="#000000"> &#160;</text>
<polygon fill="#ffffff" stroke="transparent" points="371.5,-969.7 371.5,-988.7 396.5,-988.7 396.5,-969.7 371.5,-969.7"/>
<polygon fill="none" stroke="#000000" points="371.5,-969.7 371.5,-988.7 396.5,-988.7 396.5,-969.7 371.5,-969.7"/>
<text text-anchor="start" x="377.9053" y="-975.8" font-family="Helvetica,sans-Serif" font-size="11.00" fill="#000000">5 &gt;</text>
</a>
</g>
</g>
<!-- build&#45;&gt;package_group -->
<g id="edge2" class="edge">
<title>build:w&#45;&gt;package_group:e</title>
<path fill="none" stroke="#000000" d="M314.9663,-997.7712C270.1933,-998.0948 244.4911,-998.0242 214,-959.7 183.2266,-921.0209 222.9275,-516.7 173.5,-516.7"/>
<polygon fill="#000000" stroke="#000000" points="321.5001,-997.7392 329.5177,-1001.3 325.5,-997.7196 329.5,-997.7 329.5,-997.7 329.5,-997.7 325.5,-997.7196 329.4823,-994.1 321.5001,-997.7392 321.5001,-997.7392"/>
<ellipse fill="none" stroke="#000000" cx="318.3001" cy="-997.7549" rx="3.2" ry="3.2"/>
</g>
<!-- favorite_packages -->
<g id="node4" class="node">
<title>favorite_packages</title>
<g id="a_node4"><a xlink:href="../../tables/favorite_packages.html" xlink:title="favorite_packages" target="_top">
<polygon fill="#ffffff" stroke="transparent" points="291,-888.2 291,-949.2 434,-949.2 434,-888.2 291,-888.2"/>
<polygon fill="#f5f5f5" stroke="transparent" points="291.5,-925.7 291.5,-948.7 434.5,-948.7 434.5,-925.7 291.5,-925.7"/>
<polygon fill="none" stroke="#000000" points="291.5,-925.7 291.5,-948.7 434.5,-948.7 434.5,-925.7 291.5,-925.7"/>
<text text-anchor="start" x="296.5" y="-934.3" font-family="Helvetica,sans-Serif" font-weight="bold" font-size="11.00" fill="#000000">favorite_packages</text>
<text text-anchor="start" x="400.0219" y="-933.8" font-family="Helvetica,sans-Serif" font-size="11.00" fill="#000000">[table]</text>
<polygon fill="none" stroke="#000000" points="291.5,-906.7 291.5,-925.7 434.5,-925.7 434.5,-906.7 291.5,-906.7"/>
<text text-anchor="start" x="294.5" y="-912.8" font-family="Helvetica,sans-Serif" font-size="11.00" fill="#000000">...</text>
<polygon fill="#ffffff" stroke="transparent" points="291.5,-887.7 291.5,-906.7 361.5,-906.7 361.5,-887.7 291.5,-887.7"/>
<polygon fill="none" stroke="#000000" points="291.5,-887.7 291.5,-906.7 361.5,-906.7 361.5,-887.7 291.5,-887.7"/>
<text text-anchor="start" x="294.5" y="-893.8" font-family="Helvetica,sans-Serif" font-size="11.00" fill="#000000">&lt; 2</text>
<polygon fill="#ffffff" stroke="transparent" points="361.5,-887.7 361.5,-906.7 397.5,-906.7 397.5,-887.7 361.5,-887.7"/>
<polygon fill="none" stroke="#000000" points="361.5,-887.7 361.5,-906.7 397.5,-906.7 397.5,-887.7 361.5,-887.7"/>
<text text-anchor="start" x="388.3862" y="-893.8" font-family="Helvetica,sans-Serif" font-size="11.00" fill="#000000"> &#160;</text>
<polygon fill="#ffffff" stroke="transparent" points="397.5,-887.7 397.5,-906.7 434.5,-906.7 434.5,-887.7 397.5,-887.7"/>
<polygon fill="none" stroke="#000000" points="397.5,-887.7 397.5,-906.7 434.5,-906.7 434.5,-887.7 397.5,-887.7"/>
<text text-anchor="start" x="425.3862" y="-893.8" font-family="Helvetica,sans-Serif" font-size="11.00" fill="#000000"> &#160;</text>
</a>
</g>
</g>
<!-- favorite_packages&#45;&gt;package_group -->
<g id="edge3" class="edge">
<title>favorite_packages:w&#45;&gt;package_group:e</title>
<path fill="none" stroke="#000000" d="M276.8929,-915.2819C248.3799,-913.4247 233.0619,-904.7814 214,-877.7 167.5355,-811.6875 254.2255,-516.7 173.5,-516.7"/>
<polygon fill="#000000" stroke="#000000" points="283.5033,-915.4711 291.397,-919.2985 287.5016,-915.5855 291.5,-915.7 291.5,-915.7 291.5,-915.7 287.5016,-915.5855 291.603,-912.1015 283.5033,-915.4711 283.5033,-915.4711"/>
<ellipse fill="none" stroke="#000000" cx="280.3046" cy="-915.3795" rx="3.2" ry="3.2"/>
</g>
<!-- migrated_version -->
<g id="node5" class="node">
<title>migrated_version</title>
<g id="a_node5"><a xlink:href="../../tables/migrated_version.html" xlink:title="migrated_version" target="_top">
<polygon fill="#ffffff" stroke="transparent" points="293,-806.2 293,-867.2 432,-867.2 432,-806.2 293,-806.2"/>
<polygon fill="#f5f5f5" stroke="transparent" points="293.5,-843.7 293.5,-866.7 432.5,-866.7 432.5,-843.7 293.5,-843.7"/>
<polygon fill="none" stroke="#000000" points="293.5,-843.7 293.5,-866.7 432.5,-866.7 432.5,-843.7 293.5,-843.7"/>
<text text-anchor="start" x="298.5" y="-852.3" font-family="Helvetica,sans-Serif" font-weight="bold" font-size="11.00" fill="#000000">migrated_version</text>
<text text-anchor="start" x="398.0219" y="-851.8" font-family="Helvetica,sans-Serif" font-size="11.00" fill="#000000">[table]</text>
<polygon fill="none" stroke="#000000" points="293.5,-824.7 293.5,-843.7 432.5,-843.7 432.5,-824.7 293.5,-824.7"/>
<text text-anchor="start" x="296.5" y="-830.8" font-family="Helvetica,sans-Serif" font-size="11.00" fill="#000000">...</text>
<polygon fill="#ffffff" stroke="transparent" points="293.5,-805.7 293.5,-824.7 361.5,-824.7 361.5,-805.7 293.5,-805.7"/>
<polygon fill="none" stroke="#000000" points="293.5,-805.7 293.5,-824.7 361.5,-824.7 361.5,-805.7 293.5,-805.7"/>
<text text-anchor="start" x="296.5" y="-811.8" font-family="Helvetica,sans-Serif" font-size="11.00" fill="#000000">&lt; 1</text>
<polygon fill="#ffffff" stroke="transparent" points="361.5,-805.7 361.5,-824.7 396.5,-824.7 396.5,-805.7 361.5,-805.7"/>
<polygon fill="none" stroke="#000000" points="361.5,-805.7 361.5,-824.7 396.5,-824.7 396.5,-805.7 361.5,-805.7"/>
<text text-anchor="start" x="387.3862" y="-811.8" font-family="Helvetica,sans-Serif" font-size="11.00" fill="#000000"> &#160;</text>
<polygon fill="#ffffff" stroke="transparent" points="396.5,-805.7 396.5,-824.7 432.5,-824.7 432.5,-805.7 396.5,-805.7"/>
<polygon fill="none" stroke="#000000" points="396.5,-805.7 396.5,-824.7 432.5,-824.7 432.5,-805.7 396.5,-805.7"/>
<text text-anchor="start" x="423.3862" y="-811.8" font-family="Helvetica,sans-Serif" font-size="11.00" fill="#000000"> &#160;</text>
</a>
</g>
</g>
<!-- migrated_version&#45;&gt;package_group -->
<g id="edge4" class="edge">
<title>migrated_version:w&#45;&gt;package_group:e</title>
<path fill="none" stroke="#000000" d="M278.9967,-833.3145C249.6822,-831.5415 234.1321,-823.0504 214,-795.7 176.861,-745.2451 236.1498,-516.7 173.5,-516.7"/>
<polygon fill="#000000" stroke="#000000" points="285.5028,-833.4874 293.4043,-837.2987 289.5014,-833.5937 293.5,-833.7 293.5,-833.7 293.5,-833.7 289.5014,-833.5937 293.5957,-830.1013 285.5028,-833.4874 285.5028,-833.4874"/>
<ellipse fill="none" stroke="#000000" cx="282.304" cy="-833.4023" rx="3.2" ry="3.2"/>
</g>
<!-- operation_open_count -->
<g id="node6" class="node">
<title>operation_open_count</title>
<g id="a_node6"><a xlink:href="../../tables/operation_open_count.html" xlink:title="operation_open_count" target="_top">
<polygon fill="#ffffff" stroke="transparent" points="278.5,-724.2 278.5,-785.2 446.5,-785.2 446.5,-724.2 278.5,-724.2"/>
<polygon fill="#f5f5f5" stroke="transparent" points="278.5,-761.7 278.5,-784.7 446.5,-784.7 446.5,-761.7 278.5,-761.7"/>
<polygon fill="none" stroke="#000000" points="278.5,-761.7 278.5,-784.7 446.5,-784.7 446.5,-761.7 278.5,-761.7"/>
<text text-anchor="start" x="283.5" y="-770.3" font-family="Helvetica,sans-Serif" font-weight="bold" font-size="11.00" fill="#000000">operation_open_count</text>
<text text-anchor="start" x="412.0219" y="-769.8" font-family="Helvetica,sans-Serif" font-size="11.00" fill="#000000">[table]</text>
<polygon fill="none" stroke="#000000" points="278.5,-742.7 278.5,-761.7 446.5,-761.7 446.5,-742.7 278.5,-742.7"/>
<text text-anchor="start" x="281.5" y="-748.8" font-family="Helvetica,sans-Serif" font-size="11.00" fill="#000000">...</text>
<polygon fill="#ffffff" stroke="transparent" points="278.5,-723.7 278.5,-742.7 360.5,-742.7 360.5,-723.7 278.5,-723.7"/>
<polygon fill="none" stroke="#000000" points="278.5,-723.7 278.5,-742.7 360.5,-742.7 360.5,-723.7 278.5,-723.7"/>
<text text-anchor="start" x="281.5" y="-729.8" font-family="Helvetica,sans-Serif" font-size="11.00" fill="#000000">&lt; 1</text>
<polygon fill="#ffffff" stroke="transparent" points="360.5,-723.7 360.5,-742.7 403.5,-742.7 403.5,-723.7 360.5,-723.7"/>
<polygon fill="none" stroke="#000000" points="360.5,-723.7 360.5,-742.7 403.5,-742.7 403.5,-723.7 360.5,-723.7"/>
<text text-anchor="start" x="394.3862" y="-729.8" font-family="Helvetica,sans-Serif" font-size="11.00" fill="#000000"> &#160;</text>
<polygon fill="#ffffff" stroke="transparent" points="403.5,-723.7 403.5,-742.7 446.5,-742.7 446.5,-723.7 403.5,-723.7"/>
<polygon fill="none" stroke="#000000" points="403.5,-723.7 403.5,-742.7 446.5,-742.7 446.5,-723.7 403.5,-723.7"/>
<text text-anchor="start" x="437.3862" y="-729.8" font-family="Helvetica,sans-Serif" font-size="11.00" fill="#000000"> &#160;</text>
</a>
</g>
</g>
<!-- operation_open_count&#45;&gt;package_group -->
<g id="edge5" class="edge">
<title>operation_open_count:w&#45;&gt;package_group:e</title>
<path fill="none" stroke="#000000" d="M264.0415,-750.8374C241.2312,-747.7845 230.249,-736.4329 214,-713.7 162.0212,-640.9801 262.8867,-516.7 173.5,-516.7"/>
<polygon fill="#000000" stroke="#000000" points="270.5142,-751.2235 278.2856,-755.2936 274.5071,-751.4618 278.5,-751.7 278.5,-751.7 278.5,-751.7 274.5071,-751.4618 278.7144,-748.1064 270.5142,-751.2235 270.5142,-751.2235"/>
<ellipse fill="none" stroke="#000000" cx="267.3199" cy="-751.0329" rx="3.2" ry="3.2"/>
</g>
<!-- package_export_config -->
<g id="node7" class="node">
<title>package_export_config</title>
<g id="a_node7"><a xlink:href="../../tables/package_export_config.html" xlink:title="package_export_config" target="_top">
<polygon fill="#ffffff" stroke="transparent" points="222,-612.7 222,-702.7 503,-702.7 503,-612.7 222,-612.7"/>
<polygon fill="#f5f5f5" stroke="transparent" points="224.5,-677.7 224.5,-700.7 501.5,-700.7 501.5,-677.7 224.5,-677.7"/>
<polygon fill="none" stroke="#000000" points="224.5,-677.7 224.5,-700.7 501.5,-700.7 501.5,-677.7 224.5,-677.7"/>
<text text-anchor="start" x="229.5" y="-686.3" font-family="Helvetica,sans-Serif" font-weight="bold" font-size="11.00" fill="#000000">package_export_config</text>
<text text-anchor="start" x="466.5437" y="-685.8" font-family="Helvetica,sans-Serif" font-size="11.00" fill="#000000">[table]</text>
<polygon fill="#ffffff" stroke="transparent" points="224.5,-655.7 224.5,-677.7 385.5,-677.7 385.5,-655.7 224.5,-655.7"/>
<polygon fill="none" stroke="#000000" points="224.5,-655.7 224.5,-677.7 385.5,-677.7 385.5,-655.7 224.5,-655.7"/>
<image xlink:href="../../images/foreignKeys.png" width="11px" height="12px" preserveAspectRatio="xMinYMin meet" x="229.5" y="-672.7"/>
<text text-anchor="start" x="244.5" y="-662.8" font-family="Helvetica,sans-Serif" font-size="11.00" fill="#000000">package_id</text>
<polygon fill="none" stroke="#000000" points="385.5,-655.7 385.5,-677.7 501.5,-677.7 501.5,-655.7 385.5,-655.7"/>
<text text-anchor="start" x="388.5" y="-663.4" font-family="Helvetica,sans-Serif" font-size="11.00" fill="#000000">varchar[2147483647]</text>
<polygon fill="none" stroke="#000000" points="224.5,-633.7 224.5,-655.7 385.5,-655.7 385.5,-633.7 224.5,-633.7"/>
<text text-anchor="start" x="244.5" y="-640.8" font-family="Helvetica,sans-Serif" font-size="11.00" fill="#000000">allowed_oas_extensions</text>
<polygon fill="none" stroke="#000000" points="385.5,-633.7 385.5,-655.7 501.5,-655.7 501.5,-633.7 385.5,-633.7"/>
<text text-anchor="start" x="388.4769" y="-641.4" font-family="Helvetica,sans-Serif" font-size="11.00" fill="#000000">_varchar[2147483647]</text>
<polygon fill="#ffffff" stroke="transparent" points="224.5,-614.7 224.5,-633.7 309.5,-633.7 309.5,-614.7 224.5,-614.7"/>
<polygon fill="none" stroke="#000000" points="224.5,-614.7 224.5,-633.7 309.5,-633.7 309.5,-614.7 224.5,-614.7"/>
<text text-anchor="start" x="227.5" y="-620.8" font-family="Helvetica,sans-Serif" font-size="11.00" fill="#000000">&lt; 1</text>
<polygon fill="#ffffff" stroke="transparent" points="309.5,-614.7 309.5,-633.7 385.5,-633.7 385.5,-614.7 309.5,-614.7"/>
<polygon fill="none" stroke="#000000" points="309.5,-614.7 309.5,-633.7 385.5,-633.7 385.5,-614.7 309.5,-614.7"/>
<text text-anchor="start" x="376.3862" y="-620.8" font-family="Helvetica,sans-Serif" font-size="11.00" fill="#000000"> &#160;</text>
<polygon fill="#ffffff" stroke="transparent" points="385.5,-614.7 385.5,-633.7 501.5,-633.7 501.5,-614.7 385.5,-614.7"/>
<polygon fill="none" stroke="#000000" points="385.5,-614.7 385.5,-633.7 501.5,-633.7 501.5,-614.7 385.5,-614.7"/>
<text text-anchor="start" x="482.9053" y="-620.8" font-family="Helvetica,sans-Serif" font-size="11.00" fill="#000000">0 &gt;</text>
<polygon fill="none" stroke="#000000" stroke-width="2" points="223,-613.7 223,-701.7 502,-701.7 502,-613.7 223,-613.7"/>
</a>
</g>
</g>
<!-- package_export_config&#45;&gt;package_group -->
<g id="edge6" class="edge">
<title>package_export_config:w&#45;&gt;package_group:e</title>
<path fill="none" stroke="#000000" d="M214.019,-665.3108C163.7472,-650.189 239.9263,-516.7 173.5,-516.7"/>
<polygon fill="#000000" stroke="#000000" points="224.2325,-662.6296 223.1813,-670.5602 221.5952,-670.35 222.6464,-662.4193 224.2325,-662.6296"/>
<polyline fill="none" stroke="#000000" points="224.5,-666.7 220.5347,-666.1744 "/>
<ellipse fill="none" stroke="#000000" cx="217.3624" cy="-665.7539" rx="3.2" ry="3.2"/>
</g>
<!-- package_member_role -->
<g id="node8" class="node">
<title>package_member_role</title>
<g id="a_node8"><a xlink:href="../../tables/package_member_role.html" xlink:title="package_member_role" target="_top">
<polygon fill="#ffffff" stroke="transparent" points="278,-530.2 278,-591.2 447,-591.2 447,-530.2 278,-530.2"/>
<polygon fill="#f5f5f5" stroke="transparent" points="278.5,-567.7 278.5,-590.7 447.5,-590.7 447.5,-567.7 278.5,-567.7"/>
<polygon fill="none" stroke="#000000" points="278.5,-567.7 278.5,-590.7 447.5,-590.7 447.5,-567.7 278.5,-567.7"/>
<text text-anchor="start" x="283.5" y="-576.3" font-family="Helvetica,sans-Serif" font-weight="bold" font-size="11.00" fill="#000000">package_member_role</text>
<text text-anchor="start" x="413.0219" y="-575.8" font-family="Helvetica,sans-Serif" font-size="11.00" fill="#000000">[table]</text>
<polygon fill="none" stroke="#000000" points="278.5,-548.7 278.5,-567.7 447.5,-567.7 447.5,-548.7 278.5,-548.7"/>
<text text-anchor="start" x="281.5" y="-554.8" font-family="Helvetica,sans-Serif" font-size="11.00" fill="#000000">...</text>
<polygon fill="#ffffff" stroke="transparent" points="278.5,-529.7 278.5,-548.7 361.5,-548.7 361.5,-529.7 278.5,-529.7"/>
<polygon fill="none" stroke="#000000" points="278.5,-529.7 278.5,-548.7 361.5,-548.7 361.5,-529.7 278.5,-529.7"/>
<text text-anchor="start" x="281.5" y="-535.8" font-family="Helvetica,sans-Serif" font-size="11.00" fill="#000000">&lt; 1</text>
<polygon fill="#ffffff" stroke="transparent" points="361.5,-529.7 361.5,-548.7 404.5,-548.7 404.5,-529.7 361.5,-529.7"/>
<polygon fill="none" stroke="#000000" points="361.5,-529.7 361.5,-548.7 404.5,-548.7 404.5,-529.7 361.5,-529.7"/>
<text text-anchor="start" x="395.3862" y="-535.8" font-family="Helvetica,sans-Serif" font-size="11.00" fill="#000000"> &#160;</text>
<polygon fill="#ffffff" stroke="transparent" points="404.5,-529.7 404.5,-548.7 447.5,-548.7 447.5,-529.7 404.5,-529.7"/>
<polygon fill="none" stroke="#000000" points="404.5,-529.7 404.5,-548.7 447.5,-548.7 447.5,-529.7 404.5,-529.7"/>
<text text-anchor="start" x="438.3862" y="-535.8" font-family="Helvetica,sans-Serif" font-size="11.00" fill="#000000"> &#160;</text>
</a>
</g>
</g>
<!-- package_member_role&#45;&gt;package_group -->
<g id="edge7" class="edge">
<title>package_member_role:w&#45;&gt;package_group:e</title>
<path fill="none" stroke="#000000" d="M264.0539,-556.428C226.8847,-549.5076 218.3144,-516.7 173.5,-516.7"/>
<polygon fill="#000000" stroke="#000000" points="270.5308,-556.9983 278.1842,-561.2861 274.5154,-557.3491 278.5,-557.7 278.5,-557.7 278.5,-557.7 274.5154,-557.3491 278.8158,-554.1139 270.5308,-556.9983 270.5308,-556.9983"/>
<ellipse fill="none" stroke="#000000" cx="267.3432" cy="-556.7176" rx="3.2" ry="3.2"/>
</g>
<!-- package_service -->
<g id="node9" class="node">
<title>package_service</title>
<g id="a_node9"><a xlink:href="../../tables/package_service.html" xlink:title="package_service" target="_top">
<polygon fill="#ffffff" stroke="transparent" points="295,-448.2 295,-509.2 430,-509.2 430,-448.2 295,-448.2"/>
<polygon fill="#f5f5f5" stroke="transparent" points="295.5,-485.7 295.5,-508.7 430.5,-508.7 430.5,-485.7 295.5,-485.7"/>
<polygon fill="none" stroke="#000000" points="295.5,-485.7 295.5,-508.7 430.5,-508.7 430.5,-485.7 295.5,-485.7"/>
<text text-anchor="start" x="300.5" y="-494.3" font-family="Helvetica,sans-Serif" font-weight="bold" font-size="11.00" fill="#000000">package_service</text>
<text text-anchor="start" x="396.0219" y="-493.8" font-family="Helvetica,sans-Serif" font-size="11.00" fill="#000000">[table]</text>
<polygon fill="none" stroke="#000000" points="295.5,-466.7 295.5,-485.7 430.5,-485.7 430.5,-466.7 295.5,-466.7"/>
<text text-anchor="start" x="298.5" y="-472.8" font-family="Helvetica,sans-Serif" font-size="11.00" fill="#000000">...</text>
<polygon fill="#ffffff" stroke="transparent" points="295.5,-447.7 295.5,-466.7 361.5,-466.7 361.5,-447.7 295.5,-447.7"/>
<polygon fill="none" stroke="#000000" points="295.5,-447.7 295.5,-466.7 361.5,-466.7 361.5,-447.7 295.5,-447.7"/>
<text text-anchor="start" x="298.5" y="-453.8" font-family="Helvetica,sans-Serif" font-size="11.00" fill="#000000">&lt; 2</text>
<polygon fill="#ffffff" stroke="transparent" points="361.5,-447.7 361.5,-466.7 395.5,-466.7 395.5,-447.7 361.5,-447.7"/>
<polygon fill="none" stroke="#000000" points="361.5,-447.7 361.5,-466.7 395.5,-466.7 395.5,-447.7 361.5,-447.7"/>
<text text-anchor="start" x="386.3862" y="-453.8" font-family="Helvetica,sans-Serif" font-size="11.00" fill="#000000"> &#160;</text>
<polygon fill="#ffffff" stroke="transparent" points="395.5,-447.7 395.5,-466.7 430.5,-466.7 430.5,-447.7 395.5,-447.7"/>
<polygon fill="none" stroke="#000000" points="395.5,-447.7 395.5,-466.7 430.5,-466.7 430.5,-447.7 395.5,-447.7"/>
<text text-anchor="start" x="421.3862" y="-453.8" font-family="Helvetica,sans-Serif" font-size="11.00" fill="#000000"> &#160;</text>
</a>
</g>
</g>
<!-- package_service&#45;&gt;package_group -->
<g id="edge8" class="edge">
<title>package_service:w&#45;&gt;package_group:e</title>
<path fill="none" stroke="#000000" d="M280.9243,-475.1724C236.4852,-476.9324 225.4513,-511.2508 173.5,-516.7"/>
<polygon fill="#000000" stroke="#000000" points="287.5052,-475.4106 295.3697,-479.2976 291.5026,-475.5553 295.5,-475.7 295.5,-475.7 295.5,-475.7 291.5026,-475.5553 295.6303,-472.1024 287.5052,-475.4106 287.5052,-475.4106"/>
<ellipse fill="none" stroke="#000000" cx="284.3073" cy="-475.2948" rx="3.2" ry="3.2"/>
</g>
<!-- package_service&#45;&gt;package_group -->
<g id="edge9" class="edge">
<title>package_service:w&#45;&gt;package_group:e</title>
<path fill="none" stroke="#000000" d="M281.2115,-478.3506C236.5325,-489.6797 225.563,-523.0711 173.5,-516.7"/>
<polygon fill="#000000" stroke="#000000" points="287.6342,-477.1592 296.1566,-479.2396 291.5671,-476.4296 295.5,-475.7 295.5,-475.7 295.5,-475.7 291.5671,-476.4296 294.8434,-472.1604 287.6342,-477.1592 287.6342,-477.1592"/>
<ellipse fill="none" stroke="#000000" cx="284.4879" cy="-477.7429" rx="3.2" ry="3.2"/>
</g>
<!-- published_data -->
<g id="node10" class="node">
<title>published_data</title>
<g id="a_node10"><a xlink:href="../../tables/published_data.html" xlink:title="published_data" target="_top">
<polygon fill="#ffffff" stroke="transparent" points="299,-366.2 299,-427.2 426,-427.2 426,-366.2 299,-366.2"/>
<polygon fill="#f5f5f5" stroke="transparent" points="299.5,-403.7 299.5,-426.7 426.5,-426.7 426.5,-403.7 299.5,-403.7"/>
<polygon fill="none" stroke="#000000" points="299.5,-403.7 299.5,-426.7 426.5,-426.7 426.5,-403.7 299.5,-403.7"/>
<text text-anchor="start" x="304.5" y="-412.3" font-family="Helvetica,sans-Serif" font-weight="bold" font-size="11.00" fill="#000000">published_data</text>
<text text-anchor="start" x="392.0219" y="-411.8" font-family="Helvetica,sans-Serif" font-size="11.00" fill="#000000">[table]</text>
<polygon fill="none" stroke="#000000" points="299.5,-384.7 299.5,-403.7 426.5,-403.7 426.5,-384.7 299.5,-384.7"/>
<text text-anchor="start" x="302.5" y="-390.8" font-family="Helvetica,sans-Serif" font-size="11.00" fill="#000000">...</text>
<polygon fill="#ffffff" stroke="transparent" points="299.5,-365.7 299.5,-384.7 356.5,-384.7 356.5,-365.7 299.5,-365.7"/>
<polygon fill="none" stroke="#000000" points="299.5,-365.7 299.5,-384.7 356.5,-384.7 356.5,-365.7 299.5,-365.7"/>
<text text-anchor="start" x="302.5" y="-371.8" font-family="Helvetica,sans-Serif" font-size="11.00" fill="#000000">&lt; 1</text>
<polygon fill="#ffffff" stroke="transparent" points="356.5,-365.7 356.5,-384.7 386.5,-384.7 386.5,-365.7 356.5,-365.7"/>
<polygon fill="none" stroke="#000000" points="356.5,-365.7 356.5,-384.7 386.5,-384.7 386.5,-365.7 356.5,-365.7"/>
<text text-anchor="start" x="377.3862" y="-371.8" font-family="Helvetica,sans-Serif" font-size="11.00" fill="#000000"> &#160;</text>
<polygon fill="#ffffff" stroke="transparent" points="386.5,-365.7 386.5,-384.7 426.5,-384.7 426.5,-365.7 386.5,-365.7"/>
<polygon fill="none" stroke="#000000" points="386.5,-365.7 386.5,-384.7 426.5,-384.7 426.5,-365.7 386.5,-365.7"/>
<text text-anchor="start" x="407.9053" y="-371.8" font-family="Helvetica,sans-Serif" font-size="11.00" fill="#000000">2 &gt;</text>
</a>
</g>
</g>
<!-- published_data&#45;&gt;package_group -->
<g id="edge10" class="edge">
<title>published_data:w&#45;&gt;package_group:e</title>
<path fill="none" stroke="#000000" d="M284.7946,-394.3502C253.3461,-397.3969 240.4214,-411.2375 214,-437.7 186.1219,-465.6214 212.9562,-516.7 173.5,-516.7"/>
<polygon fill="#000000" stroke="#000000" points="291.5078,-394.0534 299.659,-397.2965 295.5039,-393.8767 299.5,-393.7 299.5,-393.7 299.5,-393.7 295.5039,-393.8767 299.341,-390.1035 291.5078,-394.0534 291.5078,-394.0534"/>
<ellipse fill="none" stroke="#000000" cx="288.3109" cy="-394.1948" rx="3.2" ry="3.2"/>
</g>
<!-- published_document_open_count -->
<g id="node11" class="node">
<title>published_document_open_count</title>
<g id="a_node11"><a xlink:href="../../tables/published_document_open_count.html" xlink:title="published_document_open_count" target="_top">
<polygon fill="#ffffff" stroke="transparent" points="245.5,-284.2 245.5,-345.2 479.5,-345.2 479.5,-284.2 245.5,-284.2"/>
<polygon fill="#f5f5f5" stroke="transparent" points="245.5,-321.7 245.5,-344.7 479.5,-344.7 479.5,-321.7 245.5,-321.7"/>
<polygon fill="none" stroke="#000000" points="245.5,-321.7 245.5,-344.7 479.5,-344.7 479.5,-321.7 245.5,-321.7"/>
<text text-anchor="start" x="250.5" y="-330.3" font-family="Helvetica,sans-Serif" font-weight="bold" font-size="11.00" fill="#000000">published_document_open_count</text>
<text text-anchor="start" x="445.0219" y="-329.8" font-family="Helvetica,sans-Serif" font-size="11.00" fill="#000000">[table]</text>
<polygon fill="none" stroke="#000000" points="245.5,-302.7 245.5,-321.7 479.5,-321.7 479.5,-302.7 245.5,-302.7"/>
<text text-anchor="start" x="248.5" y="-308.8" font-family="Helvetica,sans-Serif" font-size="11.00" fill="#000000">...</text>
<polygon fill="#ffffff" stroke="transparent" points="245.5,-283.7 245.5,-302.7 360.5,-302.7 360.5,-283.7 245.5,-283.7"/>
<polygon fill="none" stroke="#000000" points="245.5,-283.7 245.5,-302.7 360.5,-302.7 360.5,-283.7 245.5,-283.7"/>
<text text-anchor="start" x="248.5" y="-289.8" font-family="Helvetica,sans-Serif" font-size="11.00" fill="#000000">&lt; 1</text>
<polygon fill="#ffffff" stroke="transparent" points="360.5,-283.7 360.5,-302.7 419.5,-302.7 419.5,-283.7 360.5,-283.7"/>
<polygon fill="none" stroke="#000000" points="360.5,-283.7 360.5,-302.7 419.5,-302.7 419.5,-283.7 360.5,-283.7"/>
<text text-anchor="start" x="410.3862" y="-289.8" font-family="Helvetica,sans-Serif" font-size="11.00" fill="#000000"> &#160;</text>
<polygon fill="#ffffff" stroke="transparent" points="419.5,-283.7 419.5,-302.7 479.5,-302.7 479.5,-283.7 419.5,-283.7"/>
<polygon fill="none" stroke="#000000" points="419.5,-283.7 419.5,-302.7 479.5,-302.7 479.5,-283.7 419.5,-283.7"/>
<text text-anchor="start" x="470.3862" y="-289.8" font-family="Helvetica,sans-Serif" font-size="11.00" fill="#000000"> &#160;</text>
</a>
</g>
</g>
<!-- published_document_open_count&#45;&gt;package_group -->
<g id="edge11" class="edge">
<title>published_document_open_count:w&#45;&gt;package_group:e</title>
<path fill="none" stroke="#000000" d="M231.1073,-313.5985C161.9566,-334.265 264.5976,-516.7 173.5,-516.7"/>
<polygon fill="#000000" stroke="#000000" points="237.5687,-312.7462 245.9708,-315.2691 241.5344,-312.2231 245.5,-311.7 245.5,-311.7 245.5,-311.7 241.5344,-312.2231 245.0292,-308.1309 237.5687,-312.7462 237.5687,-312.7462"/>
<ellipse fill="none" stroke="#000000" cx="234.3962" cy="-313.1647" rx="3.2" ry="3.2"/>
</g>
<!-- published_version -->
<g id="node12" class="node">
<title>published_version</title>
<g id="a_node12"><a xlink:href="../../tables/published_version.html" xlink:title="published_version" target="_top">
<polygon fill="#ffffff" stroke="transparent" points="290,-202.2 290,-263.2 435,-263.2 435,-202.2 290,-202.2"/>
<polygon fill="#f5f5f5" stroke="transparent" points="290.5,-239.7 290.5,-262.7 435.5,-262.7 435.5,-239.7 290.5,-239.7"/>
<polygon fill="none" stroke="#000000" points="290.5,-239.7 290.5,-262.7 435.5,-262.7 435.5,-239.7 290.5,-239.7"/>
<text text-anchor="start" x="295.5" y="-248.3" font-family="Helvetica,sans-Serif" font-weight="bold" font-size="11.00" fill="#000000">published_version</text>
<text text-anchor="start" x="401.0219" y="-247.8" font-family="Helvetica,sans-Serif" font-size="11.00" fill="#000000">[table]</text>
<polygon fill="none" stroke="#000000" points="290.5,-220.7 290.5,-239.7 435.5,-239.7 435.5,-220.7 290.5,-220.7"/>
<text text-anchor="start" x="293.5" y="-226.8" font-family="Helvetica,sans-Serif" font-size="11.00" fill="#000000">...</text>
<polygon fill="#ffffff" stroke="transparent" points="290.5,-201.7 290.5,-220.7 353.5,-220.7 353.5,-201.7 290.5,-201.7"/>
<polygon fill="none" stroke="#000000" points="290.5,-201.7 290.5,-220.7 353.5,-220.7 353.5,-201.7 290.5,-201.7"/>
<text text-anchor="start" x="293.5" y="-207.8" font-family="Helvetica,sans-Serif" font-size="11.00" fill="#000000">&lt; 1</text>
<polygon fill="#ffffff" stroke="transparent" points="353.5,-201.7 353.5,-220.7 386.5,-220.7 386.5,-201.7 353.5,-201.7"/>
<polygon fill="none" stroke="#000000" points="353.5,-201.7 353.5,-220.7 386.5,-220.7 386.5,-201.7 353.5,-201.7"/>
<text text-anchor="start" x="377.3862" y="-207.8" font-family="Helvetica,sans-Serif" font-size="11.00" fill="#000000"> &#160;</text>
<polygon fill="#ffffff" stroke="transparent" points="386.5,-201.7 386.5,-220.7 435.5,-220.7 435.5,-201.7 386.5,-201.7"/>
<polygon fill="none" stroke="#000000" points="386.5,-201.7 386.5,-220.7 435.5,-220.7 435.5,-201.7 386.5,-201.7"/>
<text text-anchor="start" x="410.7904" y="-207.8" font-family="Helvetica,sans-Serif" font-size="11.00" fill="#000000">18 &gt;</text>
</a>
</g>
</g>
<!-- published_version&#45;&gt;package_group -->
<g id="edge12" class="edge">
<title>published_version:w&#45;&gt;package_group:e</title>
<path fill="none" stroke="#000000" d="M276.0846,-230.3438C247.1865,-233.1905 233.4013,-245.7625 214,-273.7 182.7735,-318.6656 228.2449,-516.7 173.5,-516.7"/>
<polygon fill="#000000" stroke="#000000" points="282.508,-230.057 290.6606,-233.2964 286.504,-229.8785 290.5,-229.7 290.5,-229.7 290.5,-229.7 286.504,-229.8785 290.3394,-226.1036 282.508,-230.057 282.508,-230.057"/>
<ellipse fill="none" stroke="#000000" cx="279.3112" cy="-230.1998" rx="3.2" ry="3.2"/>
</g>
<!-- published_version_open_count -->
<g id="node13" class="node">
<title>published_version_open_count</title>
<g id="a_node13"><a xlink:href="../../tables/published_version_open_count.html" xlink:title="published_version_open_count" target="_top">
<polygon fill="#ffffff" stroke="transparent" points="253,-120.2 253,-181.2 472,-181.2 472,-120.2 253,-120.2"/>
<polygon fill="#f5f5f5" stroke="transparent" points="253.5,-157.7 253.5,-180.7 472.5,-180.7 472.5,-157.7 253.5,-157.7"/>
<polygon fill="none" stroke="#000000" points="253.5,-157.7 253.5,-180.7 472.5,-180.7 472.5,-157.7 253.5,-157.7"/>
<text text-anchor="start" x="258.5" y="-166.3" font-family="Helvetica,sans-Serif" font-weight="bold" font-size="11.00" fill="#000000">published_version_open_count</text>
<text text-anchor="start" x="438.0219" y="-165.8" font-family="Helvetica,sans-Serif" font-size="11.00" fill="#000000">[table]</text>
<polygon fill="none" stroke="#000000" points="253.5,-138.7 253.5,-157.7 472.5,-157.7 472.5,-138.7 253.5,-138.7"/>
<text text-anchor="start" x="256.5" y="-144.8" font-family="Helvetica,sans-Serif" font-size="11.00" fill="#000000">...</text>
<polygon fill="#ffffff" stroke="transparent" points="253.5,-119.7 253.5,-138.7 361.5,-138.7 361.5,-119.7 253.5,-119.7"/>
<polygon fill="none" stroke="#000000" points="253.5,-119.7 253.5,-138.7 361.5,-138.7 361.5,-119.7 253.5,-119.7"/>
<text text-anchor="start" x="256.5" y="-125.8" font-family="Helvetica,sans-Serif" font-size="11.00" fill="#000000">&lt; 1</text>
<polygon fill="#ffffff" stroke="transparent" points="361.5,-119.7 361.5,-138.7 416.5,-138.7 416.5,-119.7 361.5,-119.7"/>
<polygon fill="none" stroke="#000000" points="361.5,-119.7 361.5,-138.7 416.5,-138.7 416.5,-119.7 361.5,-119.7"/>
<text text-anchor="start" x="407.3862" y="-125.8" font-family="Helvetica,sans-Serif" font-size="11.00" fill="#000000"> &#160;</text>
<polygon fill="#ffffff" stroke="transparent" points="416.5,-119.7 416.5,-138.7 472.5,-138.7 472.5,-119.7 416.5,-119.7"/>
<polygon fill="none" stroke="#000000" points="416.5,-119.7 416.5,-138.7 472.5,-138.7 472.5,-119.7 416.5,-119.7"/>
<text text-anchor="start" x="463.3862" y="-125.8" font-family="Helvetica,sans-Serif" font-size="11.00" fill="#000000"> &#160;</text>
</a>
</g>
</g>
<!-- published_version_open_count&#45;&gt;package_group -->
<g id="edge13" class="edge">
<title>published_version_open_count:w&#45;&gt;package_group:e</title>
<path fill="none" stroke="#000000" d="M239.3531,-150.4135C225.7953,-156.6716 222.5171,-173.019 214,-191.7 183.8076,-257.9229 246.2808,-516.7 173.5,-516.7"/>
<polygon fill="#000000" stroke="#000000" points="245.6432,-149.2071 254.1782,-151.2355 249.5716,-148.4535 253.5,-147.7 253.5,-147.7 253.5,-147.7 249.5716,-148.4535 252.8218,-144.1645 245.6432,-149.2071 245.6432,-149.2071"/>
<ellipse fill="none" stroke="#000000" cx="242.5005" cy="-149.8099" rx="3.2" ry="3.2"/>
</g>
<!-- shared_url_info -->
<g id="node14" class="node">
<title>shared_url_info</title>
<g id="a_node14"><a xlink:href="../../tables/shared_url_info.html" xlink:title="shared_url_info" target="_top">
<polygon fill="#ffffff" stroke="transparent" points="298,-38.2 298,-99.2 427,-99.2 427,-38.2 298,-38.2"/>
<polygon fill="#f5f5f5" stroke="transparent" points="298.5,-75.7 298.5,-98.7 427.5,-98.7 427.5,-75.7 298.5,-75.7"/>
<polygon fill="none" stroke="#000000" points="298.5,-75.7 298.5,-98.7 427.5,-98.7 427.5,-75.7 298.5,-75.7"/>
<text text-anchor="start" x="303.5" y="-84.3" font-family="Helvetica,sans-Serif" font-weight="bold" font-size="11.00" fill="#000000">shared_url_info</text>
<text text-anchor="start" x="393.0219" y="-83.8" font-family="Helvetica,sans-Serif" font-size="11.00" fill="#000000">[table]</text>
<polygon fill="none" stroke="#000000" points="298.5,-56.7 298.5,-75.7 427.5,-75.7 427.5,-56.7 298.5,-56.7"/>
<text text-anchor="start" x="301.5" y="-62.8" font-family="Helvetica,sans-Serif" font-size="11.00" fill="#000000">...</text>
<polygon fill="#ffffff" stroke="transparent" points="298.5,-37.7 298.5,-56.7 361.5,-56.7 361.5,-37.7 298.5,-37.7"/>
<polygon fill="none" stroke="#000000" points="298.5,-37.7 298.5,-56.7 361.5,-56.7 361.5,-37.7 298.5,-37.7"/>
<text text-anchor="start" x="301.5" y="-43.8" font-family="Helvetica,sans-Serif" font-size="11.00" fill="#000000">&lt; 1</text>
<polygon fill="#ffffff" stroke="transparent" points="361.5,-37.7 361.5,-56.7 394.5,-56.7 394.5,-37.7 361.5,-37.7"/>
<polygon fill="none" stroke="#000000" points="361.5,-37.7 361.5,-56.7 394.5,-56.7 394.5,-37.7 361.5,-37.7"/>
<text text-anchor="start" x="385.3862" y="-43.8" font-family="Helvetica,sans-Serif" font-size="11.00" fill="#000000"> &#160;</text>
<polygon fill="#ffffff" stroke="transparent" points="394.5,-37.7 394.5,-56.7 427.5,-56.7 427.5,-37.7 394.5,-37.7"/>
<polygon fill="none" stroke="#000000" points="394.5,-37.7 394.5,-56.7 427.5,-56.7 427.5,-37.7 394.5,-37.7"/>
<text text-anchor="start" x="418.3862" y="-43.8" font-family="Helvetica,sans-Serif" font-size="11.00" fill="#000000"> &#160;</text>
</a>
</g>
</g>
<!-- shared_url_info&#45;&gt;package_group -->
<g id="edge14" class="edge">
<title>shared_url_info:w&#45;&gt;package_group:e</title>
<path fill="none" stroke="#000000" d="M283.6857,-66.1523C251.4685,-68.3417 234.7649,-79.0167 214,-109.7 163.0585,-184.9739 264.3911,-516.7 173.5,-516.7"/>
<polygon fill="#000000" stroke="#000000" points="290.5037,-65.9442 298.6099,-69.2983 294.5019,-65.8221 298.5,-65.7 298.5,-65.7 298.5,-65.7 294.5019,-65.8221 298.3901,-62.1017 290.5037,-65.9442 290.5037,-65.9442"/>
<ellipse fill="none" stroke="#000000" cx="287.3052" cy="-66.0419" rx="3.2" ry="3.2"/>
</g>
</g>
</svg>
