<?xml version="1.0" encoding="UTF-8" standalone="no"?>
<!DOCTYPE svg PUBLIC "-//W3C//DTD SVG 1.1//EN"
 "http://www.w3.org/Graphics/SVG/1.1/DTD/svg11.dtd">
<!-- Generated by graphviz version 2.40.1 (20161225.0304)
 -->
<!-- Title: twoDegreesRelationshipsDiagram Pages: 1 -->
<svg width="552pt" height="1147pt"
 viewBox="0.00 0.00 552.00 1147.20" xmlns="http://www.w3.org/2000/svg" xmlns:xlink="http://www.w3.org/1999/xlink">
<g id="graph0" class="graph" transform="scale(1 1) rotate(0) translate(4 1143.2)">
<title>twoDegreesRelationshipsDiagram</title>
<polygon fill="#ffffff" stroke="transparent" points="-4,4 -4,-1143.2 548,-1143.2 548,4 -4,4"/>
<text text-anchor="middle" x="72.4936" y="-7.3" font-family="Helvetica,sans-Serif" font-size="11.00" fill="#000000">Generated by SchemaSpy</text>
<!-- activity_tracking -->
<g id="node1" class="node">
<title>activity_tracking</title>
<g id="a_node1"><a xlink:href="../../tables/activity_tracking.html" xlink:title="activity_tracking" target="_top">
<polygon fill="#ffffff" stroke="transparent" points="312.5,-1074.2 312.5,-1135.2 445.5,-1135.2 445.5,-1074.2 312.5,-1074.2"/>
<polygon fill="#f5f5f5" stroke="transparent" points="313,-1111.7 313,-1134.7 446,-1134.7 446,-1111.7 313,-1111.7"/>
<polygon fill="none" stroke="#000000" points="313,-1111.7 313,-1134.7 446,-1134.7 446,-1111.7 313,-1111.7"/>
<text text-anchor="start" x="318" y="-1120.3" font-family="Helvetica,sans-Serif" font-weight="bold" font-size="11.00" fill="#000000">activity_tracking</text>
<text text-anchor="start" x="411.5219" y="-1119.8" font-family="Helvetica,sans-Serif" font-size="11.00" fill="#000000">[table]</text>
<polygon fill="none" stroke="#000000" points="313,-1092.7 313,-1111.7 446,-1111.7 446,-1092.7 313,-1092.7"/>
<text text-anchor="start" x="316" y="-1098.8" font-family="Helvetica,sans-Serif" font-size="11.00" fill="#000000">...</text>
<polygon fill="#ffffff" stroke="transparent" points="313,-1073.7 313,-1092.7 378,-1092.7 378,-1073.7 313,-1073.7"/>
<polygon fill="none" stroke="#000000" points="313,-1073.7 313,-1092.7 378,-1092.7 378,-1073.7 313,-1073.7"/>
<text text-anchor="start" x="316" y="-1079.8" font-family="Helvetica,sans-Serif" font-size="11.00" fill="#000000">&lt; 1</text>
<polygon fill="#ffffff" stroke="transparent" points="378,-1073.7 378,-1092.7 412,-1092.7 412,-1073.7 378,-1073.7"/>
<polygon fill="none" stroke="#000000" points="378,-1073.7 378,-1092.7 412,-1092.7 412,-1073.7 378,-1073.7"/>
<text text-anchor="start" x="402.8862" y="-1079.8" font-family="Helvetica,sans-Serif" font-size="11.00" fill="#000000"> &#160;</text>
<polygon fill="#ffffff" stroke="transparent" points="412,-1073.7 412,-1092.7 446,-1092.7 446,-1073.7 412,-1073.7"/>
<polygon fill="none" stroke="#000000" points="412,-1073.7 412,-1092.7 446,-1092.7 446,-1073.7 412,-1073.7"/>
<text text-anchor="start" x="436.8862" y="-1079.8" font-family="Helvetica,sans-Serif" font-size="11.00" fill="#000000"> &#160;</text>
</a>
</g>
</g>
<!-- package_group -->
<g id="node2" class="node">
<title>package_group</title>
<g id="a_node2"><a xlink:href="../../tables/package_group.html" xlink:title="package_group" target="_top">
<polygon fill="#ffffff" stroke="transparent" points="8,-498.2 8,-603.2 173,-603.2 173,-498.2 8,-498.2"/>
<polygon fill="#f5f5f5" stroke="transparent" points="8.5,-579.7 8.5,-602.7 173.5,-602.7 173.5,-579.7 8.5,-579.7"/>
<polygon fill="none" stroke="#000000" points="8.5,-579.7 8.5,-602.7 173.5,-602.7 173.5,-579.7 8.5,-579.7"/>
<text text-anchor="start" x="13.5" y="-588.3" font-family="Helvetica,sans-Serif" font-weight="bold" font-size="11.00" fill="#000000">package_group</text>
<text text-anchor="start" x="138.5437" y="-587.8" font-family="Helvetica,sans-Serif" font-size="11.00" fill="#000000">[table]</text>
<polygon fill="none" stroke="#000000" points="8.5,-557.7 8.5,-579.7 173.5,-579.7 173.5,-557.7 8.5,-557.7"/>
<image xlink:href="../../images/primaryKeys.png" width="11px" height="12px" preserveAspectRatio="xMinYMin meet" x="13.5" y="-574.7"/>
<text text-anchor="start" x="28.5" y="-564.8" font-family="Helvetica,sans-Serif" font-size="11.00" fill="#000000">id</text>
<polygon fill="none" stroke="#000000" points="8.5,-535.7 8.5,-557.7 173.5,-557.7 173.5,-535.7 8.5,-535.7"/>
<image xlink:href="../../images/foreignKeys.png" width="11px" height="12px" preserveAspectRatio="xMinYMin meet" x="13.5" y="-552.7"/>
<text text-anchor="start" x="28.5" y="-542.8" font-family="Helvetica,sans-Serif" font-size="11.00" fill="#000000">parent_id</text>
<polygon fill="none" stroke="#000000" points="8.5,-516.7 8.5,-535.7 173.5,-535.7 173.5,-516.7 8.5,-516.7"/>
<text text-anchor="start" x="11.5" y="-522.8" font-family="Helvetica,sans-Serif" font-size="11.00" fill="#000000">...</text>
<polygon fill="#ffffff" stroke="transparent" points="8.5,-497.7 8.5,-516.7 81.5,-516.7 81.5,-497.7 8.5,-497.7"/>
<polygon fill="none" stroke="#000000" points="8.5,-497.7 8.5,-516.7 81.5,-516.7 81.5,-497.7 8.5,-497.7"/>
<text text-anchor="start" x="11.5" y="-503.8" font-family="Helvetica,sans-Serif" font-size="11.00" fill="#000000">&lt; 1</text>
<polygon fill="#ffffff" stroke="transparent" points="81.5,-497.7 81.5,-516.7 119.5,-516.7 119.5,-497.7 81.5,-497.7"/>
<polygon fill="none" stroke="#000000" points="81.5,-497.7 81.5,-516.7 119.5,-516.7 119.5,-497.7 81.5,-497.7"/>
<text text-anchor="start" x="110.3862" y="-503.8" font-family="Helvetica,sans-Serif" font-size="11.00" fill="#000000"> &#160;</text>
<polygon fill="#ffffff" stroke="transparent" points="119.5,-497.7 119.5,-516.7 173.5,-516.7 173.5,-497.7 119.5,-497.7"/>
<polygon fill="none" stroke="#000000" points="119.5,-497.7 119.5,-516.7 173.5,-516.7 173.5,-497.7 119.5,-497.7"/>
<text text-anchor="start" x="148.7904" y="-503.8" font-family="Helvetica,sans-Serif" font-size="11.00" fill="#000000">15 &gt;</text>
</a>
</g>
</g>
<!-- activity_tracking&#45;&gt;package_group -->
<g id="edge1" class="edge">
<title>activity_tracking:w&#45;&gt;package_group:e</title>
<path fill="none" stroke="#000000" d="M298.3427,-1101.6413C260.6493,-1101.1907 239.1672,-1097.2935 214,-1063.7 180.9133,-1019.5353 228.6838,-568.7 173.5,-568.7"/>
<polygon fill="#000000" stroke="#000000" points="305.0001,-1101.6679 312.9856,-1105.3 309,-1101.684 313,-1101.7 313,-1101.7 313,-1101.7 309,-1101.684 313.0144,-1098.1 305.0001,-1101.6679 305.0001,-1101.6679"/>
<ellipse fill="none" stroke="#000000" cx="301.8001" cy="-1101.6551" rx="3.2" ry="3.2"/>
</g>
<!-- build -->
<g id="node3" class="node">
<title>build</title>
<g id="a_node3"><a xlink:href="../../tables/build.html" xlink:title="build" target="_top">
<polygon fill="#ffffff" stroke="transparent" points="345.5,-992.2 345.5,-1053.2 412.5,-1053.2 412.5,-992.2 345.5,-992.2"/>
<polygon fill="#f5f5f5" stroke="transparent" points="346,-1029.7 346,-1052.7 413,-1052.7 413,-1029.7 346,-1029.7"/>
<polygon fill="none" stroke="#000000" points="346,-1029.7 346,-1052.7 413,-1052.7 413,-1029.7 346,-1029.7"/>
<text text-anchor="start" x="351" y="-1038.3" font-family="Helvetica,sans-Serif" font-weight="bold" font-size="11.00" fill="#000000">build</text>
<text text-anchor="start" x="378.5219" y="-1037.8" font-family="Helvetica,sans-Serif" font-size="11.00" fill="#000000">[table]</text>
<polygon fill="none" stroke="#000000" points="346,-1010.7 346,-1029.7 413,-1029.7 413,-1010.7 346,-1010.7"/>
<text text-anchor="start" x="349" y="-1016.8" font-family="Helvetica,sans-Serif" font-size="11.00" fill="#000000">...</text>
<polygon fill="#ffffff" stroke="transparent" points="346,-991.7 346,-1010.7 373,-1010.7 373,-991.7 346,-991.7"/>
<polygon fill="none" stroke="#000000" points="346,-991.7 346,-1010.7 373,-1010.7 373,-991.7 346,-991.7"/>
<text text-anchor="start" x="349" y="-997.8" font-family="Helvetica,sans-Serif" font-size="11.00" fill="#000000">&lt; 1</text>
<polygon fill="#ffffff" stroke="transparent" points="373,-991.7 373,-1010.7 388,-1010.7 388,-991.7 373,-991.7"/>
<polygon fill="none" stroke="#000000" points="373,-991.7 373,-1010.7 388,-1010.7 388,-991.7 373,-991.7"/>
<text text-anchor="start" x="378.8862" y="-997.8" font-family="Helvetica,sans-Serif" font-size="11.00" fill="#000000"> &#160;</text>
<polygon fill="#ffffff" stroke="transparent" points="388,-991.7 388,-1010.7 413,-1010.7 413,-991.7 388,-991.7"/>
<polygon fill="none" stroke="#000000" points="388,-991.7 388,-1010.7 413,-1010.7 413,-991.7 388,-991.7"/>
<text text-anchor="start" x="394.4053" y="-997.8" font-family="Helvetica,sans-Serif" font-size="11.00" fill="#000000">5 &gt;</text>
</a>
</g>
</g>
<!-- build&#45;&gt;package_group -->
<g id="edge2" class="edge">
<title>build:w&#45;&gt;package_group:e</title>
<path fill="none" stroke="#000000" d="M331.5446,-1019.8444C279.6695,-1020.7882 249.8503,-1024.7742 214,-981.7 155.007,-910.8199 265.718,-568.7 173.5,-568.7"/>
<polygon fill="#000000" stroke="#000000" points="338.0004,-1019.78 346.036,-1023.2998 342.0002,-1019.74 346,-1019.7 346,-1019.7 346,-1019.7 342.0002,-1019.74 345.964,-1016.1002 338.0004,-1019.78 338.0004,-1019.78"/>
<ellipse fill="none" stroke="#000000" cx="334.8006" cy="-1019.8119" rx="3.2" ry="3.2"/>
</g>
<!-- favorite_packages -->
<g id="node4" class="node">
<title>favorite_packages</title>
<g id="a_node4"><a xlink:href="../../tables/favorite_packages.html" xlink:title="favorite_packages" target="_top">
<polygon fill="#ffffff" stroke="transparent" points="307.5,-910.2 307.5,-971.2 450.5,-971.2 450.5,-910.2 307.5,-910.2"/>
<polygon fill="#f5f5f5" stroke="transparent" points="308,-947.7 308,-970.7 451,-970.7 451,-947.7 308,-947.7"/>
<polygon fill="none" stroke="#000000" points="308,-947.7 308,-970.7 451,-970.7 451,-947.7 308,-947.7"/>
<text text-anchor="start" x="313" y="-956.3" font-family="Helvetica,sans-Serif" font-weight="bold" font-size="11.00" fill="#000000">favorite_packages</text>
<text text-anchor="start" x="416.5219" y="-955.8" font-family="Helvetica,sans-Serif" font-size="11.00" fill="#000000">[table]</text>
<polygon fill="none" stroke="#000000" points="308,-928.7 308,-947.7 451,-947.7 451,-928.7 308,-928.7"/>
<text text-anchor="start" x="311" y="-934.8" font-family="Helvetica,sans-Serif" font-size="11.00" fill="#000000">...</text>
<polygon fill="#ffffff" stroke="transparent" points="308,-909.7 308,-928.7 378,-928.7 378,-909.7 308,-909.7"/>
<polygon fill="none" stroke="#000000" points="308,-909.7 308,-928.7 378,-928.7 378,-909.7 308,-909.7"/>
<text text-anchor="start" x="311" y="-915.8" font-family="Helvetica,sans-Serif" font-size="11.00" fill="#000000">&lt; 2</text>
<polygon fill="#ffffff" stroke="transparent" points="378,-909.7 378,-928.7 414,-928.7 414,-909.7 378,-909.7"/>
<polygon fill="none" stroke="#000000" points="378,-909.7 378,-928.7 414,-928.7 414,-909.7 378,-909.7"/>
<text text-anchor="start" x="404.8862" y="-915.8" font-family="Helvetica,sans-Serif" font-size="11.00" fill="#000000"> &#160;</text>
<polygon fill="#ffffff" stroke="transparent" points="414,-909.7 414,-928.7 451,-928.7 451,-909.7 414,-909.7"/>
<polygon fill="none" stroke="#000000" points="414,-909.7 414,-928.7 451,-928.7 451,-909.7 414,-909.7"/>
<text text-anchor="start" x="441.8862" y="-915.8" font-family="Helvetica,sans-Serif" font-size="11.00" fill="#000000"> &#160;</text>
</a>
</g>
</g>
<!-- favorite_packages&#45;&gt;package_group -->
<g id="edge3" class="edge">
<title>favorite_packages:w&#45;&gt;package_group:e</title>
<path fill="none" stroke="#000000" d="M293.5495,-937.5683C257.987,-936.7621 238.3149,-931.4081 214,-899.7 168.9065,-840.8953 247.6041,-568.7 173.5,-568.7"/>
<polygon fill="#000000" stroke="#000000" points="300.0003,-937.627 307.9672,-941.2999 304.0002,-937.6635 308,-937.7 308,-937.7 308,-937.7 304.0002,-937.6635 308.0328,-934.1001 300.0003,-937.627 300.0003,-937.627"/>
<ellipse fill="none" stroke="#000000" cx="296.8005" cy="-937.5978" rx="3.2" ry="3.2"/>
</g>
<!-- migrated_version -->
<g id="node5" class="node">
<title>migrated_version</title>
<g id="a_node5"><a xlink:href="../../tables/migrated_version.html" xlink:title="migrated_version" target="_top">
<polygon fill="#ffffff" stroke="transparent" points="309.5,-828.2 309.5,-889.2 448.5,-889.2 448.5,-828.2 309.5,-828.2"/>
<polygon fill="#f5f5f5" stroke="transparent" points="310,-865.7 310,-888.7 449,-888.7 449,-865.7 310,-865.7"/>
<polygon fill="none" stroke="#000000" points="310,-865.7 310,-888.7 449,-888.7 449,-865.7 310,-865.7"/>
<text text-anchor="start" x="315" y="-874.3" font-family="Helvetica,sans-Serif" font-weight="bold" font-size="11.00" fill="#000000">migrated_version</text>
<text text-anchor="start" x="414.5219" y="-873.8" font-family="Helvetica,sans-Serif" font-size="11.00" fill="#000000">[table]</text>
<polygon fill="none" stroke="#000000" points="310,-846.7 310,-865.7 449,-865.7 449,-846.7 310,-846.7"/>
<text text-anchor="start" x="313" y="-852.8" font-family="Helvetica,sans-Serif" font-size="11.00" fill="#000000">...</text>
<polygon fill="#ffffff" stroke="transparent" points="310,-827.7 310,-846.7 378,-846.7 378,-827.7 310,-827.7"/>
<polygon fill="none" stroke="#000000" points="310,-827.7 310,-846.7 378,-846.7 378,-827.7 310,-827.7"/>
<text text-anchor="start" x="313" y="-833.8" font-family="Helvetica,sans-Serif" font-size="11.00" fill="#000000">&lt; 1</text>
<polygon fill="#ffffff" stroke="transparent" points="378,-827.7 378,-846.7 413,-846.7 413,-827.7 378,-827.7"/>
<polygon fill="none" stroke="#000000" points="378,-827.7 378,-846.7 413,-846.7 413,-827.7 378,-827.7"/>
<text text-anchor="start" x="403.8862" y="-833.8" font-family="Helvetica,sans-Serif" font-size="11.00" fill="#000000"> &#160;</text>
<polygon fill="#ffffff" stroke="transparent" points="413,-827.7 413,-846.7 449,-846.7 449,-827.7 413,-827.7"/>
<polygon fill="none" stroke="#000000" points="413,-827.7 413,-846.7 449,-846.7 449,-827.7 413,-827.7"/>
<text text-anchor="start" x="439.8862" y="-833.8" font-family="Helvetica,sans-Serif" font-size="11.00" fill="#000000"> &#160;</text>
</a>
</g>
</g>
<!-- migrated_version&#45;&gt;package_group -->
<g id="edge4" class="edge">
<title>migrated_version:w&#45;&gt;package_group:e</title>
<path fill="none" stroke="#000000" d="M295.3037,-855.568C259.181,-854.7606 239.5081,-849.4013 214,-817.7 178.8559,-774.0231 229.5605,-568.7 173.5,-568.7"/>
<polygon fill="#000000" stroke="#000000" points="302.0003,-855.6281 309.9676,-859.2999 306.0002,-855.664 310,-855.7 310,-855.7 310,-855.7 306.0002,-855.664 310.0324,-852.1001 302.0003,-855.6281 302.0003,-855.6281"/>
<ellipse fill="none" stroke="#000000" cx="298.8005" cy="-855.5993" rx="3.2" ry="3.2"/>
</g>
<!-- operation_open_count -->
<g id="node6" class="node">
<title>operation_open_count</title>
<g id="a_node6"><a xlink:href="../../tables/operation_open_count.html" xlink:title="operation_open_count" target="_top">
<polygon fill="#ffffff" stroke="transparent" points="295,-746.2 295,-807.2 463,-807.2 463,-746.2 295,-746.2"/>
<polygon fill="#f5f5f5" stroke="transparent" points="295,-783.7 295,-806.7 463,-806.7 463,-783.7 295,-783.7"/>
<polygon fill="none" stroke="#000000" points="295,-783.7 295,-806.7 463,-806.7 463,-783.7 295,-783.7"/>
<text text-anchor="start" x="300" y="-792.3" font-family="Helvetica,sans-Serif" font-weight="bold" font-size="11.00" fill="#000000">operation_open_count</text>
<text text-anchor="start" x="428.5219" y="-791.8" font-family="Helvetica,sans-Serif" font-size="11.00" fill="#000000">[table]</text>
<polygon fill="none" stroke="#000000" points="295,-764.7 295,-783.7 463,-783.7 463,-764.7 295,-764.7"/>
<text text-anchor="start" x="298" y="-770.8" font-family="Helvetica,sans-Serif" font-size="11.00" fill="#000000">...</text>
<polygon fill="#ffffff" stroke="transparent" points="295,-745.7 295,-764.7 377,-764.7 377,-745.7 295,-745.7"/>
<polygon fill="none" stroke="#000000" points="295,-745.7 295,-764.7 377,-764.7 377,-745.7 295,-745.7"/>
<text text-anchor="start" x="298" y="-751.8" font-family="Helvetica,sans-Serif" font-size="11.00" fill="#000000">&lt; 1</text>
<polygon fill="#ffffff" stroke="transparent" points="377,-745.7 377,-764.7 420,-764.7 420,-745.7 377,-745.7"/>
<polygon fill="none" stroke="#000000" points="377,-745.7 377,-764.7 420,-764.7 420,-745.7 377,-745.7"/>
<text text-anchor="start" x="410.8862" y="-751.8" font-family="Helvetica,sans-Serif" font-size="11.00" fill="#000000"> &#160;</text>
<polygon fill="#ffffff" stroke="transparent" points="420,-745.7 420,-764.7 463,-764.7 463,-745.7 420,-745.7"/>
<polygon fill="none" stroke="#000000" points="420,-745.7 420,-764.7 463,-764.7 463,-745.7 420,-745.7"/>
<text text-anchor="start" x="453.8862" y="-751.8" font-family="Helvetica,sans-Serif" font-size="11.00" fill="#000000"> &#160;</text>
</a>
</g>
</g>
<!-- operation_open_count&#45;&gt;package_group -->
<g id="edge5" class="edge">
<title>operation_open_count:w&#45;&gt;package_group:e</title>
<path fill="none" stroke="#000000" d="M280.333,-773.2803C250.8048,-771.3698 235.8176,-762.404 214,-735.7 165.6785,-676.5563 249.8737,-568.7 173.5,-568.7"/>
<polygon fill="#000000" stroke="#000000" points="287.0033,-773.4711 294.897,-777.2985 291.0016,-773.5856 295,-773.7 295,-773.7 295,-773.7 291.0016,-773.5856 295.103,-770.1015 287.0033,-773.4711 287.0033,-773.4711"/>
<ellipse fill="none" stroke="#000000" cx="283.8046" cy="-773.3796" rx="3.2" ry="3.2"/>
</g>
<!-- package_export_config -->
<g id="node7" class="node">
<title>package_export_config</title>
<g id="a_node7"><a xlink:href="../../tables/package_export_config.html" xlink:title="package_export_config" target="_top">
<polygon fill="#ffffff" stroke="transparent" points="292.5,-664.2 292.5,-725.2 465.5,-725.2 465.5,-664.2 292.5,-664.2"/>
<polygon fill="#f5f5f5" stroke="transparent" points="293,-701.7 293,-724.7 466,-724.7 466,-701.7 293,-701.7"/>
<polygon fill="none" stroke="#000000" points="293,-701.7 293,-724.7 466,-724.7 466,-701.7 293,-701.7"/>
<text text-anchor="start" x="298" y="-710.3" font-family="Helvetica,sans-Serif" font-weight="bold" font-size="11.00" fill="#000000">package_export_config</text>
<text text-anchor="start" x="431.5219" y="-709.8" font-family="Helvetica,sans-Serif" font-size="11.00" fill="#000000">[table]</text>
<polygon fill="none" stroke="#000000" points="293,-682.7 293,-701.7 466,-701.7 466,-682.7 293,-682.7"/>
<text text-anchor="start" x="296" y="-688.8" font-family="Helvetica,sans-Serif" font-size="11.00" fill="#000000">...</text>
<polygon fill="#ffffff" stroke="transparent" points="293,-663.7 293,-682.7 378,-682.7 378,-663.7 293,-663.7"/>
<polygon fill="none" stroke="#000000" points="293,-663.7 293,-682.7 378,-682.7 378,-663.7 293,-663.7"/>
<text text-anchor="start" x="296" y="-669.8" font-family="Helvetica,sans-Serif" font-size="11.00" fill="#000000">&lt; 1</text>
<polygon fill="#ffffff" stroke="transparent" points="378,-663.7 378,-682.7 422,-682.7 422,-663.7 378,-663.7"/>
<polygon fill="none" stroke="#000000" points="378,-663.7 378,-682.7 422,-682.7 422,-663.7 378,-663.7"/>
<text text-anchor="start" x="412.8862" y="-669.8" font-family="Helvetica,sans-Serif" font-size="11.00" fill="#000000"> &#160;</text>
<polygon fill="#ffffff" stroke="transparent" points="422,-663.7 422,-682.7 466,-682.7 466,-663.7 422,-663.7"/>
<polygon fill="none" stroke="#000000" points="422,-663.7 422,-682.7 466,-682.7 466,-663.7 422,-663.7"/>
<text text-anchor="start" x="456.8862" y="-669.8" font-family="Helvetica,sans-Serif" font-size="11.00" fill="#000000"> &#160;</text>
</a>
</g>
</g>
<!-- package_export_config&#45;&gt;package_group -->
<g id="edge6" class="edge">
<title>package_export_config:w&#45;&gt;package_group:e</title>
<path fill="none" stroke="#000000" d="M282.3028,-691.3961C251.4465,-689.5049 238.8138,-678.6056 214,-653.7 184.4645,-624.0552 215.3469,-568.7 173.5,-568.7"/>
<polygon fill="#000000" stroke="#000000" points="292.3139,-687.6789 292.0867,-695.6757 290.4874,-695.6302 290.7146,-687.6334 292.3139,-687.6789"/>
<polyline fill="none" stroke="#000000" points="293,-691.7 289.0016,-691.5864 "/>
<ellipse fill="none" stroke="#000000" cx="285.8029" cy="-691.4955" rx="3.2" ry="3.2"/>
</g>
<!-- package_member_role -->
<g id="node8" class="node">
<title>package_member_role</title>
<g id="a_node8"><a xlink:href="../../tables/package_member_role.html" xlink:title="package_member_role" target="_top">
<polygon fill="#ffffff" stroke="transparent" points="294.5,-582.2 294.5,-643.2 463.5,-643.2 463.5,-582.2 294.5,-582.2"/>
<polygon fill="#f5f5f5" stroke="transparent" points="295,-619.7 295,-642.7 464,-642.7 464,-619.7 295,-619.7"/>
<polygon fill="none" stroke="#000000" points="295,-619.7 295,-642.7 464,-642.7 464,-619.7 295,-619.7"/>
<text text-anchor="start" x="300" y="-628.3" font-family="Helvetica,sans-Serif" font-weight="bold" font-size="11.00" fill="#000000">package_member_role</text>
<text text-anchor="start" x="429.5219" y="-627.8" font-family="Helvetica,sans-Serif" font-size="11.00" fill="#000000">[table]</text>
<polygon fill="none" stroke="#000000" points="295,-600.7 295,-619.7 464,-619.7 464,-600.7 295,-600.7"/>
<text text-anchor="start" x="298" y="-606.8" font-family="Helvetica,sans-Serif" font-size="11.00" fill="#000000">...</text>
<polygon fill="#ffffff" stroke="transparent" points="295,-581.7 295,-600.7 378,-600.7 378,-581.7 295,-581.7"/>
<polygon fill="none" stroke="#000000" points="295,-581.7 295,-600.7 378,-600.7 378,-581.7 295,-581.7"/>
<text text-anchor="start" x="298" y="-587.8" font-family="Helvetica,sans-Serif" font-size="11.00" fill="#000000">&lt; 1</text>
<polygon fill="#ffffff" stroke="transparent" points="378,-581.7 378,-600.7 421,-600.7 421,-581.7 378,-581.7"/>
<polygon fill="none" stroke="#000000" points="378,-581.7 378,-600.7 421,-600.7 421,-581.7 378,-581.7"/>
<text text-anchor="start" x="411.8862" y="-587.8" font-family="Helvetica,sans-Serif" font-size="11.00" fill="#000000"> &#160;</text>
<polygon fill="#ffffff" stroke="transparent" points="421,-581.7 421,-600.7 464,-600.7 464,-581.7 421,-581.7"/>
<polygon fill="none" stroke="#000000" points="421,-581.7 421,-600.7 464,-600.7 464,-581.7 421,-581.7"/>
<text text-anchor="start" x="454.8862" y="-587.8" font-family="Helvetica,sans-Serif" font-size="11.00" fill="#000000"> &#160;</text>
</a>
</g>
</g>
<!-- package_member_role&#45;&gt;package_group -->
<g id="edge7" class="edge">
<title>package_member_role:w&#45;&gt;package_group:e</title>
<path fill="none" stroke="#000000" d="M280.4792,-608.727C236.2114,-602.5181 225.26,-568.7 173.5,-568.7"/>
<polygon fill="#000000" stroke="#000000" points="287.0179,-609.1651 294.7593,-613.2919 291.009,-609.4325 295,-609.7 295,-609.7 295,-609.7 291.009,-609.4325 295.2407,-606.1081 287.0179,-609.1651 287.0179,-609.1651"/>
<ellipse fill="none" stroke="#000000" cx="283.8251" cy="-608.9511" rx="3.2" ry="3.2"/>
</g>
<!-- package_service -->
<g id="node9" class="node">
<title>package_service</title>
<g id="a_node9"><a xlink:href="../../tables/package_service.html" xlink:title="package_service" target="_top">
<polygon fill="#ffffff" stroke="transparent" points="311.5,-500.2 311.5,-561.2 446.5,-561.2 446.5,-500.2 311.5,-500.2"/>
<polygon fill="#f5f5f5" stroke="transparent" points="312,-537.7 312,-560.7 447,-560.7 447,-537.7 312,-537.7"/>
<polygon fill="none" stroke="#000000" points="312,-537.7 312,-560.7 447,-560.7 447,-537.7 312,-537.7"/>
<text text-anchor="start" x="317" y="-546.3" font-family="Helvetica,sans-Serif" font-weight="bold" font-size="11.00" fill="#000000">package_service</text>
<text text-anchor="start" x="412.5219" y="-545.8" font-family="Helvetica,sans-Serif" font-size="11.00" fill="#000000">[table]</text>
<polygon fill="none" stroke="#000000" points="312,-518.7 312,-537.7 447,-537.7 447,-518.7 312,-518.7"/>
<text text-anchor="start" x="315" y="-524.8" font-family="Helvetica,sans-Serif" font-size="11.00" fill="#000000">...</text>
<polygon fill="#ffffff" stroke="transparent" points="312,-499.7 312,-518.7 378,-518.7 378,-499.7 312,-499.7"/>
<polygon fill="none" stroke="#000000" points="312,-499.7 312,-518.7 378,-518.7 378,-499.7 312,-499.7"/>
<text text-anchor="start" x="315" y="-505.8" font-family="Helvetica,sans-Serif" font-size="11.00" fill="#000000">&lt; 2</text>
<polygon fill="#ffffff" stroke="transparent" points="378,-499.7 378,-518.7 412,-518.7 412,-499.7 378,-499.7"/>
<polygon fill="none" stroke="#000000" points="378,-499.7 378,-518.7 412,-518.7 412,-499.7 378,-499.7"/>
<text text-anchor="start" x="402.8862" y="-505.8" font-family="Helvetica,sans-Serif" font-size="11.00" fill="#000000"> &#160;</text>
<polygon fill="#ffffff" stroke="transparent" points="412,-499.7 412,-518.7 447,-518.7 447,-499.7 412,-499.7"/>
<polygon fill="none" stroke="#000000" points="412,-499.7 412,-518.7 447,-518.7 447,-499.7 412,-499.7"/>
<text text-anchor="start" x="437.8862" y="-505.8" font-family="Helvetica,sans-Serif" font-size="11.00" fill="#000000"> &#160;</text>
</a>
</g>
</g>
<!-- package_service&#45;&gt;package_group -->
<g id="edge8" class="edge">
<title>package_service:w&#45;&gt;package_group:e</title>
<path fill="none" stroke="#000000" d="M297.5629,-527.1206C245.8382,-528.042 232.5554,-563.1805 173.5,-568.7"/>
<polygon fill="#000000" stroke="#000000" points="304.0064,-527.3792 311.8556,-531.2971 308.0032,-527.5396 312,-527.7 312,-527.7 312,-527.7 308.0032,-527.5396 312.1444,-524.1029 304.0064,-527.3792 304.0064,-527.3792"/>
<ellipse fill="none" stroke="#000000" cx="300.809" cy="-527.2508" rx="3.2" ry="3.2"/>
</g>
<!-- package_service&#45;&gt;package_group -->
<g id="edge9" class="edge">
<title>package_service:w&#45;&gt;package_group:e</title>
<path fill="none" stroke="#000000" d="M297.5629,-529.9936C245.8382,-540.9586 232.5554,-575.1395 173.5,-568.7"/>
<polygon fill="#000000" stroke="#000000" points="304.0991,-528.9553 312.5649,-531.2554 308.0495,-528.3276 312,-527.7 312,-527.7 312,-527.7 308.0495,-528.3276 311.4351,-524.1446 304.0991,-528.9553 304.0991,-528.9553"/>
<ellipse fill="none" stroke="#000000" cx="300.9387" cy="-529.4574" rx="3.2" ry="3.2"/>
</g>
<!-- published_data -->
<g id="node10" class="node">
<title>published_data</title>
<g id="a_node10"><a xlink:href="../../tables/published_data.html" xlink:title="published_data" target="_top">
<polygon fill="#ffffff" stroke="transparent" points="315.5,-418.2 315.5,-479.2 442.5,-479.2 442.5,-418.2 315.5,-418.2"/>
<polygon fill="#f5f5f5" stroke="transparent" points="316,-455.7 316,-478.7 443,-478.7 443,-455.7 316,-455.7"/>
<polygon fill="none" stroke="#000000" points="316,-455.7 316,-478.7 443,-478.7 443,-455.7 316,-455.7"/>
<text text-anchor="start" x="321" y="-464.3" font-family="Helvetica,sans-Serif" font-weight="bold" font-size="11.00" fill="#000000">published_data</text>
<text text-anchor="start" x="408.5219" y="-463.8" font-family="Helvetica,sans-Serif" font-size="11.00" fill="#000000">[table]</text>
<polygon fill="none" stroke="#000000" points="316,-436.7 316,-455.7 443,-455.7 443,-436.7 316,-436.7"/>
<text text-anchor="start" x="319" y="-442.8" font-family="Helvetica,sans-Serif" font-size="11.00" fill="#000000">...</text>
<polygon fill="#ffffff" stroke="transparent" points="316,-417.7 316,-436.7 373,-436.7 373,-417.7 316,-417.7"/>
<polygon fill="none" stroke="#000000" points="316,-417.7 316,-436.7 373,-436.7 373,-417.7 316,-417.7"/>
<text text-anchor="start" x="319" y="-423.8" font-family="Helvetica,sans-Serif" font-size="11.00" fill="#000000">&lt; 1</text>
<polygon fill="#ffffff" stroke="transparent" points="373,-417.7 373,-436.7 403,-436.7 403,-417.7 373,-417.7"/>
<polygon fill="none" stroke="#000000" points="373,-417.7 373,-436.7 403,-436.7 403,-417.7 373,-417.7"/>
<text text-anchor="start" x="393.8862" y="-423.8" font-family="Helvetica,sans-Serif" font-size="11.00" fill="#000000"> &#160;</text>
<polygon fill="#ffffff" stroke="transparent" points="403,-417.7 403,-436.7 443,-436.7 443,-417.7 403,-417.7"/>
<polygon fill="none" stroke="#000000" points="403,-417.7 403,-436.7 443,-436.7 443,-417.7 403,-417.7"/>
<text text-anchor="start" x="424.4053" y="-423.8" font-family="Helvetica,sans-Serif" font-size="11.00" fill="#000000">2 &gt;</text>
</a>
</g>
</g>
<!-- published_data&#45;&gt;package_group -->
<g id="edge10" class="edge">
<title>published_data:w&#45;&gt;package_group:e</title>
<path fill="none" stroke="#000000" d="M301.4116,-446.0581C262.9153,-448.127 246.2492,-459.5261 214,-489.7 185.1886,-516.6573 212.9562,-568.7 173.5,-568.7"/>
<polygon fill="#000000" stroke="#000000" points="308.0024,-445.8964 316.0884,-449.2989 312.0012,-445.7982 316,-445.7 316,-445.7 316,-445.7 312.0012,-445.7982 315.9116,-442.1011 308.0024,-445.8964 308.0024,-445.8964"/>
<ellipse fill="none" stroke="#000000" cx="304.8034" cy="-445.975" rx="3.2" ry="3.2"/>
</g>
<!-- published_document_open_count -->
<g id="node11" class="node">
<title>published_document_open_count</title>
<g id="a_node11"><a xlink:href="../../tables/published_document_open_count.html" xlink:title="published_document_open_count" target="_top">
<polygon fill="#ffffff" stroke="transparent" points="262,-336.2 262,-397.2 496,-397.2 496,-336.2 262,-336.2"/>
<polygon fill="#f5f5f5" stroke="transparent" points="262,-373.7 262,-396.7 496,-396.7 496,-373.7 262,-373.7"/>
<polygon fill="none" stroke="#000000" points="262,-373.7 262,-396.7 496,-396.7 496,-373.7 262,-373.7"/>
<text text-anchor="start" x="267" y="-382.3" font-family="Helvetica,sans-Serif" font-weight="bold" font-size="11.00" fill="#000000">published_document_open_count</text>
<text text-anchor="start" x="461.5219" y="-381.8" font-family="Helvetica,sans-Serif" font-size="11.00" fill="#000000">[table]</text>
<polygon fill="none" stroke="#000000" points="262,-354.7 262,-373.7 496,-373.7 496,-354.7 262,-354.7"/>
<text text-anchor="start" x="265" y="-360.8" font-family="Helvetica,sans-Serif" font-size="11.00" fill="#000000">...</text>
<polygon fill="#ffffff" stroke="transparent" points="262,-335.7 262,-354.7 377,-354.7 377,-335.7 262,-335.7"/>
<polygon fill="none" stroke="#000000" points="262,-335.7 262,-354.7 377,-354.7 377,-335.7 262,-335.7"/>
<text text-anchor="start" x="265" y="-341.8" font-family="Helvetica,sans-Serif" font-size="11.00" fill="#000000">&lt; 1</text>
<polygon fill="#ffffff" stroke="transparent" points="377,-335.7 377,-354.7 436,-354.7 436,-335.7 377,-335.7"/>
<polygon fill="none" stroke="#000000" points="377,-335.7 377,-354.7 436,-354.7 436,-335.7 377,-335.7"/>
<text text-anchor="start" x="426.8862" y="-341.8" font-family="Helvetica,sans-Serif" font-size="11.00" fill="#000000"> &#160;</text>
<polygon fill="#ffffff" stroke="transparent" points="436,-335.7 436,-354.7 496,-354.7 496,-335.7 436,-335.7"/>
<polygon fill="none" stroke="#000000" points="436,-335.7 436,-354.7 496,-354.7 496,-335.7 436,-335.7"/>
<text text-anchor="start" x="486.8862" y="-341.8" font-family="Helvetica,sans-Serif" font-size="11.00" fill="#000000"> &#160;</text>
</a>
</g>
</g>
<!-- published_document_open_count&#45;&gt;package_group -->
<g id="edge11" class="edge">
<title>published_document_open_count:w&#45;&gt;package_group:e</title>
<path fill="none" stroke="#000000" d="M247.6068,-365.7907C231.0003,-371.3957 225.926,-387.6977 214,-407.7 176.2138,-471.0751 247.2848,-568.7 173.5,-568.7"/>
<polygon fill="#000000" stroke="#000000" points="254.0831,-364.85 262.5175,-367.2626 258.0415,-364.275 262,-363.7 262,-363.7 262,-363.7 258.0415,-364.275 261.4825,-360.1374 254.0831,-364.85 254.0831,-364.85"/>
<ellipse fill="none" stroke="#000000" cx="250.9163" cy="-365.31" rx="3.2" ry="3.2"/>
</g>
<!-- published_version -->
<g id="node12" class="node">
<title>published_version</title>
<g id="a_node12"><a xlink:href="../../tables/published_version.html" xlink:title="published_version" target="_top">
<polygon fill="#ffffff" stroke="transparent" points="306.5,-254.2 306.5,-315.2 451.5,-315.2 451.5,-254.2 306.5,-254.2"/>
<polygon fill="#f5f5f5" stroke="transparent" points="307,-291.7 307,-314.7 452,-314.7 452,-291.7 307,-291.7"/>
<polygon fill="none" stroke="#000000" points="307,-291.7 307,-314.7 452,-314.7 452,-291.7 307,-291.7"/>
<text text-anchor="start" x="312" y="-300.3" font-family="Helvetica,sans-Serif" font-weight="bold" font-size="11.00" fill="#000000">published_version</text>
<text text-anchor="start" x="417.5219" y="-299.8" font-family="Helvetica,sans-Serif" font-size="11.00" fill="#000000">[table]</text>
<polygon fill="none" stroke="#000000" points="307,-272.7 307,-291.7 452,-291.7 452,-272.7 307,-272.7"/>
<text text-anchor="start" x="310" y="-278.8" font-family="Helvetica,sans-Serif" font-size="11.00" fill="#000000">...</text>
<polygon fill="#ffffff" stroke="transparent" points="307,-253.7 307,-272.7 370,-272.7 370,-253.7 307,-253.7"/>
<polygon fill="none" stroke="#000000" points="307,-253.7 307,-272.7 370,-272.7 370,-253.7 307,-253.7"/>
<text text-anchor="start" x="310" y="-259.8" font-family="Helvetica,sans-Serif" font-size="11.00" fill="#000000">&lt; 1</text>
<polygon fill="#ffffff" stroke="transparent" points="370,-253.7 370,-272.7 403,-272.7 403,-253.7 370,-253.7"/>
<polygon fill="none" stroke="#000000" points="370,-253.7 370,-272.7 403,-272.7 403,-253.7 370,-253.7"/>
<text text-anchor="start" x="393.8862" y="-259.8" font-family="Helvetica,sans-Serif" font-size="11.00" fill="#000000"> &#160;</text>
<polygon fill="#ffffff" stroke="transparent" points="403,-253.7 403,-272.7 452,-272.7 452,-253.7 403,-253.7"/>
<polygon fill="none" stroke="#000000" points="403,-253.7 403,-272.7 452,-272.7 452,-253.7 403,-253.7"/>
<text text-anchor="start" x="427.2904" y="-259.8" font-family="Helvetica,sans-Serif" font-size="11.00" fill="#000000">18 &gt;</text>
</a>
</g>
</g>
<!-- published_version&#45;&gt;package_group -->
<g id="edge12" class="edge">
<title>published_version:w&#45;&gt;package_group:e</title>
<path fill="none" stroke="#000000" d="M292.4126,-282.0205C256.7077,-283.7746 238.4415,-293.3489 214,-325.7 180.9993,-369.3801 228.2449,-568.7 173.5,-568.7"/>
<polygon fill="#000000" stroke="#000000" points="299.0019,-281.8758 307.0791,-285.2991 303.001,-281.7879 307,-281.7 307,-281.7 307,-281.7 303.001,-281.7879 306.9209,-278.1009 299.0019,-281.8758 299.0019,-281.8758"/>
<ellipse fill="none" stroke="#000000" cx="295.8027" cy="-281.9461" rx="3.2" ry="3.2"/>
</g>
<!-- published_version_open_count -->
<g id="node13" class="node">
<title>published_version_open_count</title>
<g id="a_node13"><a xlink:href="../../tables/published_version_open_count.html" xlink:title="published_version_open_count" target="_top">
<polygon fill="#ffffff" stroke="transparent" points="222,-120.7 222,-232.7 536,-232.7 536,-120.7 222,-120.7"/>
<polygon fill="#f5f5f5" stroke="transparent" points="224,-207.7 224,-230.7 534,-230.7 534,-207.7 224,-207.7"/>
<polygon fill="none" stroke="#000000" points="224,-207.7 224,-230.7 534,-230.7 534,-207.7 224,-207.7"/>
<text text-anchor="start" x="229" y="-216.3" font-family="Helvetica,sans-Serif" font-weight="bold" font-size="11.00" fill="#000000">published_version_open_count</text>
<text text-anchor="start" x="499.0437" y="-215.8" font-family="Helvetica,sans-Serif" font-size="11.00" fill="#000000">[table]</text>
<polygon fill="none" stroke="#000000" points="224,-185.7 224,-207.7 425,-207.7 425,-185.7 224,-185.7"/>
<image xlink:href="../../images/primaryKeys.png" width="11px" height="12px" preserveAspectRatio="xMinYMin meet" x="229" y="-202.7"/>
<text text-anchor="start" x="244" y="-192.8" font-family="Helvetica,sans-Serif" font-size="11.00" fill="#000000">package_id</text>
<polygon fill="none" stroke="#000000" points="425,-185.7 425,-207.7 534,-207.7 534,-185.7 425,-185.7"/>
<text text-anchor="start" x="427.5344" y="-193.4" font-family="Helvetica,sans-Serif" font-size="11.00" fill="#000000">varchar[2147483647]</text>
<polygon fill="none" stroke="#000000" points="224,-163.7 224,-185.7 425,-185.7 425,-163.7 224,-163.7"/>
<image xlink:href="../../images/primaryKeys.png" width="11px" height="12px" preserveAspectRatio="xMinYMin meet" x="229" y="-180.7"/>
<text text-anchor="start" x="244" y="-170.8" font-family="Helvetica,sans-Serif" font-size="11.00" fill="#000000">version</text>
<polygon fill="none" stroke="#000000" points="425,-163.7 425,-185.7 534,-185.7 534,-163.7 425,-163.7"/>
<text text-anchor="start" x="427.5344" y="-171.4" font-family="Helvetica,sans-Serif" font-size="11.00" fill="#000000">varchar[2147483647]</text>
<polygon fill="none" stroke="#000000" points="224,-141.7 224,-163.7 425,-163.7 425,-141.7 224,-141.7"/>
<text text-anchor="start" x="244" y="-148.8" font-family="Helvetica,sans-Serif" font-size="11.00" fill="#000000">open_count</text>
<polygon fill="none" stroke="#000000" points="425,-141.7 425,-163.7 534,-163.7 534,-141.7 425,-141.7"/>
<text text-anchor="start" x="428" y="-149.4" font-family="Helvetica,sans-Serif" font-size="11.00" fill="#000000">int8[19]</text>
<polygon fill="#ffffff" stroke="transparent" points="224,-122.7 224,-141.7 329,-141.7 329,-122.7 224,-122.7"/>
<polygon fill="none" stroke="#000000" points="224,-122.7 224,-141.7 329,-141.7 329,-122.7 224,-122.7"/>
<text text-anchor="start" x="227" y="-128.8" font-family="Helvetica,sans-Serif" font-size="11.00" fill="#000000">&lt; 1</text>
<polygon fill="#ffffff" stroke="transparent" points="329,-122.7 329,-141.7 425,-141.7 425,-122.7 329,-122.7"/>
<polygon fill="none" stroke="#000000" points="329,-122.7 329,-141.7 425,-141.7 425,-122.7 329,-122.7"/>
<text text-anchor="start" x="415.8862" y="-128.8" font-family="Helvetica,sans-Serif" font-size="11.00" fill="#000000"> &#160;</text>
<polygon fill="#ffffff" stroke="transparent" points="425,-122.7 425,-141.7 534,-141.7 534,-122.7 425,-122.7"/>
<polygon fill="none" stroke="#000000" points="425,-122.7 425,-141.7 534,-141.7 534,-122.7 425,-122.7"/>
<text text-anchor="start" x="515.4053" y="-128.8" font-family="Helvetica,sans-Serif" font-size="11.00" fill="#000000">0 &gt;</text>
<polygon fill="none" stroke="#000000" stroke-width="2" points="223,-121.7 223,-231.7 535,-231.7 535,-121.7 223,-121.7"/>
</a>
</g>
</g>
<!-- published_version_open_count&#45;&gt;package_group -->
<g id="edge13" class="edge">
<title>published_version_open_count:w&#45;&gt;package_group:e</title>
<path fill="none" stroke="#000000" d="M210.2517,-201.1369C154.7434,-243.1078 251.5479,-568.7 173.5,-568.7"/>
<polygon fill="#000000" stroke="#000000" points="216.3866,-199.157 225.1057,-200.126 220.1933,-197.9285 224,-196.7 224,-196.7 224,-196.7 220.1933,-197.9285 222.8943,-193.274 216.3866,-199.157 216.3866,-199.157"/>
<ellipse fill="none" stroke="#000000" cx="213.3413" cy="-200.1399" rx="3.2" ry="3.2"/>
</g>
<!-- shared_url_info -->
<g id="node14" class="node">
<title>shared_url_info</title>
<g id="a_node14"><a xlink:href="../../tables/shared_url_info.html" xlink:title="shared_url_info" target="_top">
<polygon fill="#ffffff" stroke="transparent" points="314.5,-38.2 314.5,-99.2 443.5,-99.2 443.5,-38.2 314.5,-38.2"/>
<polygon fill="#f5f5f5" stroke="transparent" points="315,-75.7 315,-98.7 444,-98.7 444,-75.7 315,-75.7"/>
<polygon fill="none" stroke="#000000" points="315,-75.7 315,-98.7 444,-98.7 444,-75.7 315,-75.7"/>
<text text-anchor="start" x="320" y="-84.3" font-family="Helvetica,sans-Serif" font-weight="bold" font-size="11.00" fill="#000000">shared_url_info</text>
<text text-anchor="start" x="409.5219" y="-83.8" font-family="Helvetica,sans-Serif" font-size="11.00" fill="#000000">[table]</text>
<polygon fill="none" stroke="#000000" points="315,-56.7 315,-75.7 444,-75.7 444,-56.7 315,-56.7"/>
<text text-anchor="start" x="318" y="-62.8" font-family="Helvetica,sans-Serif" font-size="11.00" fill="#000000">...</text>
<polygon fill="#ffffff" stroke="transparent" points="315,-37.7 315,-56.7 378,-56.7 378,-37.7 315,-37.7"/>
<polygon fill="none" stroke="#000000" points="315,-37.7 315,-56.7 378,-56.7 378,-37.7 315,-37.7"/>
<text text-anchor="start" x="318" y="-43.8" font-family="Helvetica,sans-Serif" font-size="11.00" fill="#000000">&lt; 1</text>
<polygon fill="#ffffff" stroke="transparent" points="378,-37.7 378,-56.7 411,-56.7 411,-37.7 378,-37.7"/>
<polygon fill="none" stroke="#000000" points="378,-37.7 378,-56.7 411,-56.7 411,-37.7 378,-37.7"/>
<text text-anchor="start" x="401.8862" y="-43.8" font-family="Helvetica,sans-Serif" font-size="11.00" fill="#000000"> &#160;</text>
<polygon fill="#ffffff" stroke="transparent" points="411,-37.7 411,-56.7 444,-56.7 444,-37.7 411,-37.7"/>
<polygon fill="none" stroke="#000000" points="411,-37.7 411,-56.7 444,-56.7 444,-37.7 411,-37.7"/>
<text text-anchor="start" x="434.8862" y="-43.8" font-family="Helvetica,sans-Serif" font-size="11.00" fill="#000000"> &#160;</text>
</a>
</g>
</g>
<!-- shared_url_info&#45;&gt;package_group -->
<g id="edge14" class="edge">
<title>shared_url_info:w&#45;&gt;package_group:e</title>
<path fill="none" stroke="#000000" d="M300.5349,-65.8941C260.9759,-67.1105 239.5953,-74.8421 214,-110.7 184.3195,-152.2812 224.5875,-568.7 173.5,-568.7"/>
<polygon fill="#000000" stroke="#000000" points="307.0007,-65.8074 315.0483,-69.2997 311.0004,-65.7537 315,-65.7 315,-65.7 315,-65.7 311.0004,-65.7537 314.9517,-62.1003 307.0007,-65.8074 307.0007,-65.8074"/>
<ellipse fill="none" stroke="#000000" cx="303.801" cy="-65.8503" rx="3.2" ry="3.2"/>
</g>
</g>
</svg>
