<?xml version="1.0" encoding="UTF-8" standalone="no"?>
<!DOCTYPE svg PUBLIC "-//W3C//DTD SVG 1.1//EN"
 "http://www.w3.org/Graphics/SVG/1.1/DTD/svg11.dtd">
<!-- Generated by graphviz version 2.40.1 (20161225.0304)
 -->
<!-- Title: oneDegreeRelationshipsDiagram Pages: 1 -->
<svg width="519pt" height="205pt"
 viewBox="0.00 0.00 519.00 204.70" xmlns="http://www.w3.org/2000/svg" xmlns:xlink="http://www.w3.org/1999/xlink">
<g id="graph0" class="graph" transform="scale(1 1) rotate(0) translate(4 200.7)">
<title>oneDegreeRelationshipsDiagram</title>
<polygon fill="#ffffff" stroke="transparent" points="-4,4 -4,-200.7 515,-200.7 515,4 -4,4"/>
<text text-anchor="middle" x="72.4936" y="-7.3" font-family="Helvetica,sans-Serif" font-size="11.00" fill="#000000">Generated by SchemaSpy</text>
<!-- published_sources -->
<g id="node1" class="node">
<title>published_sources</title>
<g id="a_node1"><a xlink:href="../../tables/published_sources.html" xlink:title="published_sources" target="_top">
<polygon fill="#ffffff" stroke="transparent" points="355,-43.7 355,-192.7 503,-192.7 503,-43.7 355,-43.7"/>
<polygon fill="#f5f5f5" stroke="transparent" points="355,-169.2 355,-192.2 503,-192.2 503,-169.2 355,-169.2"/>
<polygon fill="none" stroke="#000000" points="355,-169.2 355,-192.2 503,-192.2 503,-169.2 355,-169.2"/>
<text text-anchor="start" x="360" y="-177.8" font-family="Helvetica,sans-Serif" font-weight="bold" font-size="11.00" fill="#000000">published_sources</text>
<text text-anchor="start" x="468.5219" y="-177.3" font-family="Helvetica,sans-Serif" font-size="11.00" fill="#000000">[table]</text>
<polygon fill="#ffffff" stroke="transparent" points="355,-147.2 355,-169.2 503,-169.2 503,-147.2 355,-147.2"/>
<polygon fill="none" stroke="#000000" points="355,-147.2 355,-169.2 503,-169.2 503,-147.2 355,-147.2"/>
<image xlink:href="../../images/foreignKeys.png" width="11px" height="12px" preserveAspectRatio="xMinYMin meet" x="360" y="-164.2"/>
<text text-anchor="start" x="384" y="-154.3" font-family="Helvetica,sans-Serif" font-size="11.00" fill="#000000">package_id</text>
<polygon fill="#ffffff" stroke="transparent" points="355,-125.2 355,-147.2 503,-147.2 503,-125.2 355,-125.2"/>
<polygon fill="none" stroke="#000000" points="355,-125.2 355,-147.2 503,-147.2 503,-125.2 355,-125.2"/>
<image xlink:href="../../images/foreignKeys.png" width="11px" height="12px" preserveAspectRatio="xMinYMin meet" x="360" y="-142.2"/>
<text text-anchor="start" x="384" y="-132.3" font-family="Helvetica,sans-Serif" font-size="11.00" fill="#000000">version</text>
<polygon fill="#ffffff" stroke="transparent" points="355,-103.2 355,-125.2 503,-125.2 503,-103.2 355,-103.2"/>
<polygon fill="none" stroke="#000000" points="355,-103.2 355,-125.2 503,-125.2 503,-103.2 355,-103.2"/>
<image xlink:href="../../images/foreignKeys.png" width="11px" height="12px" preserveAspectRatio="xMinYMin meet" x="360" y="-120.2"/>
<text text-anchor="start" x="384" y="-110.3" font-family="Helvetica,sans-Serif" font-size="11.00" fill="#000000">revision</text>
<polygon fill="none" stroke="#000000" points="355,-81.2 355,-103.2 503,-103.2 503,-81.2 355,-81.2"/>
<image xlink:href="../../images/foreignKeys.png" width="11px" height="12px" preserveAspectRatio="xMinYMin meet" x="360" y="-98.2"/>
<text text-anchor="start" x="384" y="-88.3" font-family="Helvetica,sans-Serif" font-size="11.00" fill="#000000">archive_checksum</text>
<polygon fill="none" stroke="#000000" points="355,-62.2 355,-81.2 503,-81.2 503,-62.2 355,-62.2"/>
<text text-anchor="start" x="358" y="-68.3" font-family="Helvetica,sans-Serif" font-size="11.00" fill="#000000">...</text>
<polygon fill="#ffffff" stroke="transparent" points="355,-43.2 355,-62.2 427,-62.2 427,-43.2 355,-43.2"/>
<polygon fill="none" stroke="#000000" points="355,-43.2 355,-62.2 427,-62.2 427,-43.2 355,-43.2"/>
<text text-anchor="start" x="358" y="-49.3" font-family="Helvetica,sans-Serif" font-size="11.00" fill="#000000">&lt; 4</text>
<polygon fill="#ffffff" stroke="transparent" points="427,-43.2 427,-62.2 465,-62.2 465,-43.2 427,-43.2"/>
<polygon fill="none" stroke="#000000" points="427,-43.2 427,-62.2 465,-62.2 465,-43.2 427,-43.2"/>
<text text-anchor="start" x="455.8862" y="-49.3" font-family="Helvetica,sans-Serif" font-size="11.00" fill="#000000"> &#160;</text>
<polygon fill="#ffffff" stroke="transparent" points="465,-43.2 465,-62.2 503,-62.2 503,-43.2 465,-43.2"/>
<polygon fill="none" stroke="#000000" points="465,-43.2 465,-62.2 503,-62.2 503,-43.2 465,-43.2"/>
<text text-anchor="start" x="493.8862" y="-49.3" font-family="Helvetica,sans-Serif" font-size="11.00" fill="#000000"> &#160;</text>
</a>
</g>
</g>
<!-- published_sources_archives -->
<g id="node2" class="node">
<title>published_sources_archives</title>
<g id="a_node2"><a xlink:href="../../tables/published_sources_archives.html" xlink:title="published_sources_archives" target="_top">
<polygon fill="#ffffff" stroke="transparent" points="8,-38.2 8,-128.2 306,-128.2 306,-38.2 8,-38.2"/>
<polygon fill="#f5f5f5" stroke="transparent" points="10,-103.2 10,-126.2 304,-126.2 304,-103.2 10,-103.2"/>
<polygon fill="none" stroke="#000000" points="10,-103.2 10,-126.2 304,-126.2 304,-103.2 10,-103.2"/>
<text text-anchor="start" x="15" y="-111.8" font-family="Helvetica,sans-Serif" font-weight="bold" font-size="11.00" fill="#000000">published_sources_archives</text>
<text text-anchor="start" x="269.0437" y="-111.3" font-family="Helvetica,sans-Serif" font-size="11.00" fill="#000000">[table]</text>
<polygon fill="none" stroke="#000000" points="10,-81.2 10,-103.2 195,-103.2 195,-81.2 10,-81.2"/>
<image xlink:href="../../images/primaryKeys.png" width="11px" height="12px" preserveAspectRatio="xMinYMin meet" x="15" y="-98.2"/>
<text text-anchor="start" x="30" y="-88.3" font-family="Helvetica,sans-Serif" font-size="11.00" fill="#000000">checksum</text>
<polygon fill="none" stroke="#000000" points="195,-81.2 195,-103.2 304,-103.2 304,-81.2 195,-81.2"/>
<text text-anchor="start" x="197.5344" y="-88.9" font-family="Helvetica,sans-Serif" font-size="11.00" fill="#000000">varchar[2147483647]</text>
<polygon fill="none" stroke="#000000" points="10,-59.2 10,-81.2 195,-81.2 195,-59.2 10,-59.2"/>
<text text-anchor="start" x="30" y="-66.3" font-family="Helvetica,sans-Serif" font-size="11.00" fill="#000000">data</text>
<polygon fill="none" stroke="#000000" points="195,-59.2 195,-81.2 304,-81.2 304,-59.2 195,-59.2"/>
<text text-anchor="start" x="198" y="-66.9" font-family="Helvetica,sans-Serif" font-size="11.00" fill="#000000">bytea[2147483647]</text>
<polygon fill="#ffffff" stroke="transparent" points="10,-40.2 10,-59.2 107,-59.2 107,-40.2 10,-40.2"/>
<polygon fill="none" stroke="#000000" points="10,-40.2 10,-59.2 107,-59.2 107,-40.2 10,-40.2"/>
<text text-anchor="start" x="13" y="-46.3" font-family="Helvetica,sans-Serif" font-size="11.00" fill="#000000">&lt; 0</text>
<polygon fill="#ffffff" stroke="transparent" points="107,-40.2 107,-59.2 195,-59.2 195,-40.2 107,-40.2"/>
<polygon fill="none" stroke="#000000" points="107,-40.2 107,-59.2 195,-59.2 195,-40.2 107,-40.2"/>
<text text-anchor="start" x="185.8862" y="-46.3" font-family="Helvetica,sans-Serif" font-size="11.00" fill="#000000"> &#160;</text>
<polygon fill="#ffffff" stroke="transparent" points="195,-40.2 195,-59.2 304,-59.2 304,-40.2 195,-40.2"/>
<polygon fill="none" stroke="#000000" points="195,-40.2 195,-59.2 304,-59.2 304,-40.2 195,-40.2"/>
<text text-anchor="start" x="285.4053" y="-46.3" font-family="Helvetica,sans-Serif" font-size="11.00" fill="#000000">1 &gt;</text>
<polygon fill="none" stroke="#000000" stroke-width="2" points="9,-39.2 9,-127.2 305,-127.2 305,-39.2 9,-39.2"/>
</a>
</g>
</g>
<!-- published_sources&#45;&gt;published_sources_archives -->
<g id="edge1" class="edge">
<title>published_sources:w&#45;&gt;published_sources_archives:e</title>
<path fill="none" stroke="#000000" d="M340.276,-92.2C328.2815,-92.2 320.8229,-92.2 304,-92.2"/>
<polygon fill="#000000" stroke="#000000" points="347,-92.2001 355,-95.8 351,-92.2 355,-92.2 355,-92.2 355,-92.2 351,-92.2 355,-88.6 347,-92.2001 347,-92.2001"/>
<ellipse fill="none" stroke="#000000" cx="343.8" cy="-92.2001" rx="3.2" ry="3.2"/>
</g>
</g>
</svg>
