<?xml version="1.0" encoding="UTF-8" standalone="no"?>
<!DOCTYPE svg PUBLIC "-//W3C//DTD SVG 1.1//EN"
 "http://www.w3.org/Graphics/SVG/1.1/DTD/svg11.dtd">
<!-- Generated by graphviz version 2.40.1 (20161225.0304)
 -->
<!-- Title: oneDegreeRelationshipsDiagram Pages: 1 -->
<svg width="307pt" height="206pt"
 viewBox="0.00 0.00 307.00 206.20" xmlns="http://www.w3.org/2000/svg" xmlns:xlink="http://www.w3.org/1999/xlink">
<g id="graph0" class="graph" transform="scale(1 1) rotate(0) translate(4 202.2)">
<title>oneDegreeRelationshipsDiagram</title>
<polygon fill="#ffffff" stroke="transparent" points="-4,4 -4,-202.2 303,-202.2 303,4 -4,4"/>
<text text-anchor="middle" x="72.4936" y="-7.3" font-family="Helvetica,sans-Serif" font-size="11.00" fill="#000000">Generated by SchemaSpy</text>
<!-- stored_schema_migration -->
<g id="node1" class="node">
<title>stored_schema_migration</title>
<g id="a_node1"><a xlink:href="../../tables/stored_schema_migration.html" xlink:title="stored_schema_migration" target="_top">
<polygon fill="#ffffff" stroke="transparent" points="8,-38.2 8,-194.2 291,-194.2 291,-38.2 8,-38.2"/>
<polygon fill="#f5f5f5" stroke="transparent" points="10.5,-169.2 10.5,-192.2 289.5,-192.2 289.5,-169.2 10.5,-169.2"/>
<polygon fill="none" stroke="#000000" points="10.5,-169.2 10.5,-192.2 289.5,-192.2 289.5,-169.2 10.5,-169.2"/>
<text text-anchor="start" x="15.5" y="-177.8" font-family="Helvetica,sans-Serif" font-weight="bold" font-size="11.00" fill="#000000">stored_schema_migration</text>
<text text-anchor="start" x="254.5437" y="-177.3" font-family="Helvetica,sans-Serif" font-size="11.00" fill="#000000">[table]</text>
<polygon fill="none" stroke="#000000" points="10.5,-147.2 10.5,-169.2 180.5,-169.2 180.5,-147.2 10.5,-147.2"/>
<image xlink:href="../../images/primaryKeys.png" width="11px" height="12px" preserveAspectRatio="xMinYMin meet" x="15.5" y="-164.2"/>
<text text-anchor="start" x="30.5" y="-154.3" font-family="Helvetica,sans-Serif" font-size="11.00" fill="#000000">num</text>
<polygon fill="none" stroke="#000000" points="180.5,-147.2 180.5,-169.2 289.5,-169.2 289.5,-147.2 180.5,-147.2"/>
<text text-anchor="start" x="183.5" y="-154.9" font-family="Helvetica,sans-Serif" font-size="11.00" fill="#000000">int4[10]</text>
<polygon fill="none" stroke="#000000" points="10.5,-125.2 10.5,-147.2 180.5,-147.2 180.5,-125.2 10.5,-125.2"/>
<text text-anchor="start" x="30.5" y="-132.3" font-family="Helvetica,sans-Serif" font-size="11.00" fill="#000000">up_hash</text>
<polygon fill="none" stroke="#000000" points="180.5,-125.2 180.5,-147.2 289.5,-147.2 289.5,-125.2 180.5,-125.2"/>
<text text-anchor="start" x="183.0344" y="-132.9" font-family="Helvetica,sans-Serif" font-size="11.00" fill="#000000">varchar[2147483647]</text>
<polygon fill="none" stroke="#000000" points="10.5,-103.2 10.5,-125.2 180.5,-125.2 180.5,-103.2 10.5,-103.2"/>
<text text-anchor="start" x="30.5" y="-110.3" font-family="Helvetica,sans-Serif" font-size="11.00" fill="#000000">sql_up</text>
<polygon fill="none" stroke="#000000" points="180.5,-103.2 180.5,-125.2 289.5,-125.2 289.5,-103.2 180.5,-103.2"/>
<text text-anchor="start" x="183.0344" y="-110.9" font-family="Helvetica,sans-Serif" font-size="11.00" fill="#000000">varchar[2147483647]</text>
<polygon fill="none" stroke="#000000" points="10.5,-81.2 10.5,-103.2 180.5,-103.2 180.5,-81.2 10.5,-81.2"/>
<text text-anchor="start" x="30.5" y="-88.3" font-family="Helvetica,sans-Serif" font-size="11.00" fill="#000000">down_hash</text>
<polygon fill="none" stroke="#000000" points="180.5,-81.2 180.5,-103.2 289.5,-103.2 289.5,-81.2 180.5,-81.2"/>
<text text-anchor="start" x="183.0344" y="-88.9" font-family="Helvetica,sans-Serif" font-size="11.00" fill="#000000">varchar[2147483647]</text>
<polygon fill="none" stroke="#000000" points="10.5,-59.2 10.5,-81.2 180.5,-81.2 180.5,-59.2 10.5,-59.2"/>
<text text-anchor="start" x="30.5" y="-66.3" font-family="Helvetica,sans-Serif" font-size="11.00" fill="#000000">sql_down</text>
<polygon fill="none" stroke="#000000" points="180.5,-59.2 180.5,-81.2 289.5,-81.2 289.5,-59.2 180.5,-59.2"/>
<text text-anchor="start" x="183.0344" y="-66.9" font-family="Helvetica,sans-Serif" font-size="11.00" fill="#000000">varchar[2147483647]</text>
<polygon fill="#ffffff" stroke="transparent" points="10.5,-40.2 10.5,-59.2 99.5,-59.2 99.5,-40.2 10.5,-40.2"/>
<polygon fill="none" stroke="#000000" points="10.5,-40.2 10.5,-59.2 99.5,-59.2 99.5,-40.2 10.5,-40.2"/>
<text text-anchor="start" x="13.5" y="-46.3" font-family="Helvetica,sans-Serif" font-size="11.00" fill="#000000">&lt; 0</text>
<polygon fill="#ffffff" stroke="transparent" points="99.5,-40.2 99.5,-59.2 180.5,-59.2 180.5,-40.2 99.5,-40.2"/>
<polygon fill="none" stroke="#000000" points="99.5,-40.2 99.5,-59.2 180.5,-59.2 180.5,-40.2 99.5,-40.2"/>
<text text-anchor="start" x="171.3862" y="-46.3" font-family="Helvetica,sans-Serif" font-size="11.00" fill="#000000"> &#160;</text>
<polygon fill="#ffffff" stroke="transparent" points="180.5,-40.2 180.5,-59.2 289.5,-59.2 289.5,-40.2 180.5,-40.2"/>
<polygon fill="none" stroke="#000000" points="180.5,-40.2 180.5,-59.2 289.5,-59.2 289.5,-40.2 180.5,-40.2"/>
<text text-anchor="start" x="270.9053" y="-46.3" font-family="Helvetica,sans-Serif" font-size="11.00" fill="#000000">0 &gt;</text>
<polygon fill="none" stroke="#000000" stroke-width="2" points="9,-39.2 9,-193.2 290,-193.2 290,-39.2 9,-39.2"/>
</a>
</g>
</g>
</g>
</svg>
