<?xml version="1.0" encoding="UTF-8" standalone="no"?>
<!DOCTYPE svg PUBLIC "-//W3C//DTD SVG 1.1//EN"
 "http://www.w3.org/Graphics/SVG/1.1/DTD/svg11.dtd">
<!-- Generated by graphviz version 2.40.1 (20161225.0304)
 -->
<!-- Title: twoDegreesRelationshipsDiagram Pages: 1 -->
<svg width="488pt" height="431pt"
 viewBox="0.00 0.00 488.00 431.20" xmlns="http://www.w3.org/2000/svg" xmlns:xlink="http://www.w3.org/1999/xlink">
<g id="graph0" class="graph" transform="scale(1 1) rotate(0) translate(4 427.2)">
<title>twoDegreesRelationshipsDiagram</title>
<polygon fill="#ffffff" stroke="transparent" points="-4,4 -4,-427.2 484,-427.2 484,4 -4,4"/>
<text text-anchor="middle" x="72.4936" y="-7.3" font-family="Helvetica,sans-Serif" font-size="11.00" fill="#000000">Generated by SchemaSpy</text>
<!-- operation -->
<g id="node1" class="node">
<title>operation</title>
<g id="a_node1"><a xlink:href="../../tables/operation.html" xlink:title="operation" target="_top">
<polygon fill="#ffffff" stroke="transparent" points="280.5,-358.2 280.5,-419.2 373.5,-419.2 373.5,-358.2 280.5,-358.2"/>
<polygon fill="#f5f5f5" stroke="transparent" points="281,-395.7 281,-418.7 374,-418.7 374,-395.7 281,-395.7"/>
<polygon fill="none" stroke="#000000" points="281,-395.7 281,-418.7 374,-418.7 374,-395.7 281,-395.7"/>
<text text-anchor="start" x="286" y="-404.3" font-family="Helvetica,sans-Serif" font-weight="bold" font-size="11.00" fill="#000000">operation</text>
<text text-anchor="start" x="339.5219" y="-403.8" font-family="Helvetica,sans-Serif" font-size="11.00" fill="#000000">[table]</text>
<polygon fill="none" stroke="#000000" points="281,-376.7 281,-395.7 374,-395.7 374,-376.7 281,-376.7"/>
<text text-anchor="start" x="284" y="-382.8" font-family="Helvetica,sans-Serif" font-size="11.00" fill="#000000">...</text>
<polygon fill="#ffffff" stroke="transparent" points="281,-357.7 281,-376.7 321,-376.7 321,-357.7 281,-357.7"/>
<polygon fill="none" stroke="#000000" points="281,-357.7 281,-376.7 321,-376.7 321,-357.7 281,-357.7"/>
<text text-anchor="start" x="284" y="-363.8" font-family="Helvetica,sans-Serif" font-size="11.00" fill="#000000">&lt; 4</text>
<polygon fill="#ffffff" stroke="transparent" points="321,-357.7 321,-376.7 343,-376.7 343,-357.7 321,-357.7"/>
<polygon fill="none" stroke="#000000" points="321,-357.7 321,-376.7 343,-376.7 343,-357.7 321,-357.7"/>
<text text-anchor="start" x="333.8862" y="-363.8" font-family="Helvetica,sans-Serif" font-size="11.00" fill="#000000"> &#160;</text>
<polygon fill="#ffffff" stroke="transparent" points="343,-357.7 343,-376.7 374,-376.7 374,-357.7 343,-357.7"/>
<polygon fill="none" stroke="#000000" points="343,-357.7 343,-376.7 374,-376.7 374,-357.7 343,-357.7"/>
<text text-anchor="start" x="355.4053" y="-363.8" font-family="Helvetica,sans-Serif" font-size="11.00" fill="#000000">4 &gt;</text>
</a>
</g>
</g>
<!-- operation_data -->
<g id="node2" class="node">
<title>operation_data</title>
<g id="a_node2"><a xlink:href="../../tables/operation_data.html" xlink:title="operation_data" target="_top">
<polygon fill="#ffffff" stroke="transparent" points="8,-175.2 8,-258.2 133,-258.2 133,-175.2 8,-175.2"/>
<polygon fill="#f5f5f5" stroke="transparent" points="8.5,-234.7 8.5,-257.7 133.5,-257.7 133.5,-234.7 8.5,-234.7"/>
<polygon fill="none" stroke="#000000" points="8.5,-234.7 8.5,-257.7 133.5,-257.7 133.5,-234.7 8.5,-234.7"/>
<text text-anchor="start" x="13.5" y="-243.3" font-family="Helvetica,sans-Serif" font-weight="bold" font-size="11.00" fill="#000000">operation_data</text>
<text text-anchor="start" x="99.0219" y="-242.8" font-family="Helvetica,sans-Serif" font-size="11.00" fill="#000000">[table]</text>
<polygon fill="none" stroke="#000000" points="8.5,-212.7 8.5,-234.7 133.5,-234.7 133.5,-212.7 8.5,-212.7"/>
<image xlink:href="../../images/primaryKeys.png" width="11px" height="12px" preserveAspectRatio="xMinYMin meet" x="13.5" y="-229.7"/>
<text text-anchor="start" x="37.5" y="-219.8" font-family="Helvetica,sans-Serif" font-size="11.00" fill="#000000">data_hash</text>
<polygon fill="none" stroke="#000000" points="8.5,-193.7 8.5,-212.7 133.5,-212.7 133.5,-193.7 8.5,-193.7"/>
<text text-anchor="start" x="11.5" y="-199.8" font-family="Helvetica,sans-Serif" font-size="11.00" fill="#000000">...</text>
<polygon fill="#ffffff" stroke="transparent" points="8.5,-174.7 8.5,-193.7 60.5,-193.7 60.5,-174.7 8.5,-174.7"/>
<polygon fill="none" stroke="#000000" points="8.5,-174.7 8.5,-193.7 60.5,-193.7 60.5,-174.7 8.5,-174.7"/>
<text text-anchor="start" x="11.5" y="-180.8" font-family="Helvetica,sans-Serif" font-size="11.00" fill="#000000"> &#160;</text>
<polygon fill="#ffffff" stroke="transparent" points="60.5,-174.7 60.5,-193.7 92.5,-193.7 92.5,-174.7 60.5,-174.7"/>
<polygon fill="none" stroke="#000000" points="60.5,-174.7 60.5,-193.7 92.5,-193.7 92.5,-174.7 60.5,-174.7"/>
<text text-anchor="start" x="83.3862" y="-180.8" font-family="Helvetica,sans-Serif" font-size="11.00" fill="#000000"> &#160;</text>
<polygon fill="#ffffff" stroke="transparent" points="92.5,-174.7 92.5,-193.7 133.5,-193.7 133.5,-174.7 92.5,-174.7"/>
<polygon fill="none" stroke="#000000" points="92.5,-174.7 92.5,-193.7 133.5,-193.7 133.5,-174.7 92.5,-174.7"/>
<text text-anchor="start" x="114.9053" y="-180.8" font-family="Helvetica,sans-Serif" font-size="11.00" fill="#000000">4 &gt;</text>
</a>
</g>
</g>
<!-- operation&#45;&gt;operation_data -->
<g id="edge1" class="edge">
<title>operation:w&#45;&gt;operation_data:e</title>
<path fill="none" stroke="#000000" d="M266.4809,-385.6084C226.0626,-384.9681 205.648,-380.1673 174,-347.7 133.5319,-306.1842 191.4762,-223.7 133.5,-223.7"/>
<polygon fill="#000000" stroke="#000000" points="273.0002,-385.6495 280.9773,-389.2999 277.0001,-385.6747 281,-385.7 281,-385.7 281,-385.7 277.0001,-385.6747 281.0227,-382.1001 273.0002,-385.6495 273.0002,-385.6495"/>
<ellipse fill="none" stroke="#000000" cx="269.8002" cy="-385.6293" rx="3.2" ry="3.2"/>
</g>
<!-- ts_graphql_operation_data -->
<g id="node3" class="node">
<title>ts_graphql_operation_data</title>
<g id="a_node3"><a xlink:href="../../tables/ts_graphql_operation_data.html" xlink:title="ts_graphql_operation_data" target="_top">
<polygon fill="#ffffff" stroke="transparent" points="182,-202.7 182,-336.7 472,-336.7 472,-202.7 182,-202.7"/>
<polygon fill="#f5f5f5" stroke="transparent" points="184,-311.7 184,-334.7 470,-334.7 470,-311.7 184,-311.7"/>
<polygon fill="none" stroke="#000000" points="184,-311.7 184,-334.7 470,-334.7 470,-311.7 184,-311.7"/>
<text text-anchor="start" x="189" y="-320.3" font-family="Helvetica,sans-Serif" font-weight="bold" font-size="11.00" fill="#000000">ts_graphql_operation_data</text>
<text text-anchor="start" x="435.0437" y="-319.8" font-family="Helvetica,sans-Serif" font-size="11.00" fill="#000000">[table]</text>
<polygon fill="none" stroke="#000000" points="184,-289.7 184,-311.7 359,-311.7 359,-289.7 184,-289.7"/>
<image xlink:href="../../images/primaryKeys.png" width="11px" height="12px" preserveAspectRatio="xMinYMin meet" x="189" y="-306.7"/>
<text text-anchor="start" x="204" y="-296.8" font-family="Helvetica,sans-Serif" font-size="11.00" fill="#000000">data_hash</text>
<polygon fill="none" stroke="#000000" points="359,-289.7 359,-311.7 470,-311.7 470,-289.7 359,-289.7"/>
<text text-anchor="start" x="362" y="-297.4" font-family="Helvetica,sans-Serif" font-size="11.00" fill="#000000">varchar[2147483647]</text>
<polygon fill="#ffffff" stroke="transparent" points="184,-267.7 184,-289.7 359,-289.7 359,-267.7 184,-267.7"/>
<polygon fill="none" stroke="#000000" points="184,-267.7 184,-289.7 359,-289.7 359,-267.7 184,-267.7"/>
<text text-anchor="start" x="204" y="-274.8" font-family="Helvetica,sans-Serif" font-size="11.00" fill="#000000">scope_argument</text>
<polygon fill="none" stroke="#000000" points="359,-267.7 359,-289.7 470,-289.7 470,-267.7 359,-267.7"/>
<text text-anchor="start" x="361.6159" y="-275.4" font-family="Helvetica,sans-Serif" font-size="11.00" fill="#000000">tsvector[2147483647]</text>
<polygon fill="#ffffff" stroke="transparent" points="184,-245.7 184,-267.7 359,-267.7 359,-245.7 184,-245.7"/>
<polygon fill="none" stroke="#000000" points="184,-245.7 184,-267.7 359,-267.7 359,-245.7 184,-245.7"/>
<text text-anchor="start" x="204" y="-252.8" font-family="Helvetica,sans-Serif" font-size="11.00" fill="#000000">scope_property</text>
<polygon fill="none" stroke="#000000" points="359,-245.7 359,-267.7 470,-267.7 470,-245.7 359,-245.7"/>
<text text-anchor="start" x="361.6159" y="-253.4" font-family="Helvetica,sans-Serif" font-size="11.00" fill="#000000">tsvector[2147483647]</text>
<polygon fill="#ffffff" stroke="transparent" points="184,-223.7 184,-245.7 359,-245.7 359,-223.7 184,-223.7"/>
<polygon fill="none" stroke="#000000" points="184,-223.7 184,-245.7 359,-245.7 359,-223.7 184,-223.7"/>
<text text-anchor="start" x="204" y="-230.8" font-family="Helvetica,sans-Serif" font-size="11.00" fill="#000000">scope_annotation</text>
<polygon fill="none" stroke="#000000" points="359,-223.7 359,-245.7 470,-245.7 470,-223.7 359,-223.7"/>
<text text-anchor="start" x="361.6159" y="-231.4" font-family="Helvetica,sans-Serif" font-size="11.00" fill="#000000">tsvector[2147483647]</text>
<polygon fill="#ffffff" stroke="transparent" points="184,-204.7 184,-223.7 276,-223.7 276,-204.7 184,-204.7"/>
<polygon fill="none" stroke="#000000" points="184,-204.7 184,-223.7 276,-223.7 276,-204.7 184,-204.7"/>
<text text-anchor="start" x="187" y="-210.8" font-family="Helvetica,sans-Serif" font-size="11.00" fill="#000000">&lt; 1</text>
<polygon fill="#ffffff" stroke="transparent" points="276,-204.7 276,-223.7 359,-223.7 359,-204.7 276,-204.7"/>
<polygon fill="none" stroke="#000000" points="276,-204.7 276,-223.7 359,-223.7 359,-204.7 276,-204.7"/>
<text text-anchor="start" x="349.8862" y="-210.8" font-family="Helvetica,sans-Serif" font-size="11.00" fill="#000000"> &#160;</text>
<polygon fill="#ffffff" stroke="transparent" points="359,-204.7 359,-223.7 470,-223.7 470,-204.7 359,-204.7"/>
<polygon fill="none" stroke="#000000" points="359,-204.7 359,-223.7 470,-223.7 470,-204.7 359,-204.7"/>
<text text-anchor="start" x="451.4053" y="-210.8" font-family="Helvetica,sans-Serif" font-size="11.00" fill="#000000">0 &gt;</text>
<polygon fill="none" stroke="#000000" stroke-width="2" points="183,-203.7 183,-335.7 471,-335.7 471,-203.7 183,-203.7"/>
</a>
</g>
</g>
<!-- ts_graphql_operation_data&#45;&gt;operation_data -->
<g id="edge2" class="edge">
<title>ts_graphql_operation_data:w&#45;&gt;operation_data:e</title>
<path fill="none" stroke="#000000" d="M173.6156,-298.4786C148.697,-285.8536 170.2692,-223.7 133.5,-223.7"/>
<polygon fill="#000000" stroke="#000000" points="184.0545,-296.6211 182.3809,-304.4441 180.8163,-304.1094 182.4899,-296.2864 184.0545,-296.6211"/>
<polyline fill="none" stroke="#000000" points="184,-300.7 180.0885,-299.8632 "/>
<ellipse fill="none" stroke="#000000" cx="176.9593" cy="-299.1938" rx="3.2" ry="3.2"/>
</g>
<!-- ts_operation_data -->
<g id="node4" class="node">
<title>ts_operation_data</title>
<g id="a_node4"><a xlink:href="../../tables/ts_operation_data.html" xlink:title="ts_operation_data" target="_top">
<polygon fill="#ffffff" stroke="transparent" points="256,-120.2 256,-181.2 398,-181.2 398,-120.2 256,-120.2"/>
<polygon fill="#f5f5f5" stroke="transparent" points="256,-157.7 256,-180.7 398,-180.7 398,-157.7 256,-157.7"/>
<polygon fill="none" stroke="#000000" points="256,-157.7 256,-180.7 398,-180.7 398,-157.7 256,-157.7"/>
<text text-anchor="start" x="261" y="-166.3" font-family="Helvetica,sans-Serif" font-weight="bold" font-size="11.00" fill="#000000">ts_operation_data</text>
<text text-anchor="start" x="363.5219" y="-165.8" font-family="Helvetica,sans-Serif" font-size="11.00" fill="#000000">[table]</text>
<polygon fill="none" stroke="#000000" points="256,-138.7 256,-157.7 398,-157.7 398,-138.7 256,-138.7"/>
<text text-anchor="start" x="259" y="-144.8" font-family="Helvetica,sans-Serif" font-size="11.00" fill="#000000">...</text>
<polygon fill="#ffffff" stroke="transparent" points="256,-119.7 256,-138.7 325,-138.7 325,-119.7 256,-119.7"/>
<polygon fill="none" stroke="#000000" points="256,-119.7 256,-138.7 325,-138.7 325,-119.7 256,-119.7"/>
<text text-anchor="start" x="259" y="-125.8" font-family="Helvetica,sans-Serif" font-size="11.00" fill="#000000">&lt; 1</text>
<polygon fill="#ffffff" stroke="transparent" points="325,-119.7 325,-138.7 361,-138.7 361,-119.7 325,-119.7"/>
<polygon fill="none" stroke="#000000" points="325,-119.7 325,-138.7 361,-138.7 361,-119.7 325,-119.7"/>
<text text-anchor="start" x="351.8862" y="-125.8" font-family="Helvetica,sans-Serif" font-size="11.00" fill="#000000"> &#160;</text>
<polygon fill="#ffffff" stroke="transparent" points="361,-119.7 361,-138.7 398,-138.7 398,-119.7 361,-119.7"/>
<polygon fill="none" stroke="#000000" points="361,-119.7 361,-138.7 398,-138.7 398,-119.7 361,-119.7"/>
<text text-anchor="start" x="388.8862" y="-125.8" font-family="Helvetica,sans-Serif" font-size="11.00" fill="#000000"> &#160;</text>
</a>
</g>
</g>
<!-- ts_operation_data&#45;&gt;operation_data -->
<g id="edge3" class="edge">
<title>ts_operation_data:w&#45;&gt;operation_data:e</title>
<path fill="none" stroke="#000000" d="M245.2027,-148.27C213.1214,-151.885 205.5625,-172.1291 174,-192.7 155.0096,-205.077 156.1678,-223.7 133.5,-223.7"/>
<polygon fill="#000000" stroke="#000000" points="254.9902,-143.7477 255.412,-151.7366 253.8142,-151.821 253.3924,-143.8321 254.9902,-143.7477"/>
<polyline fill="none" stroke="#000000" points="256,-147.7 252.0056,-147.9109 "/>
<ellipse fill="none" stroke="#000000" cx="248.81" cy="-148.0796" rx="3.2" ry="3.2"/>
</g>
<!-- ts_rest_operation_data -->
<g id="node5" class="node">
<title>ts_rest_operation_data</title>
<g id="a_node5"><a xlink:href="../../tables/ts_rest_operation_data.html" xlink:title="ts_rest_operation_data" target="_top">
<polygon fill="#ffffff" stroke="transparent" points="241.5,-38.2 241.5,-99.2 412.5,-99.2 412.5,-38.2 241.5,-38.2"/>
<polygon fill="#f5f5f5" stroke="transparent" points="242,-75.7 242,-98.7 413,-98.7 413,-75.7 242,-75.7"/>
<polygon fill="none" stroke="#000000" points="242,-75.7 242,-98.7 413,-98.7 413,-75.7 242,-75.7"/>
<text text-anchor="start" x="247" y="-84.3" font-family="Helvetica,sans-Serif" font-weight="bold" font-size="11.00" fill="#000000">ts_rest_operation_data</text>
<text text-anchor="start" x="378.5219" y="-83.8" font-family="Helvetica,sans-Serif" font-size="11.00" fill="#000000">[table]</text>
<polygon fill="none" stroke="#000000" points="242,-56.7 242,-75.7 413,-75.7 413,-56.7 242,-56.7"/>
<text text-anchor="start" x="245" y="-62.8" font-family="Helvetica,sans-Serif" font-size="11.00" fill="#000000">...</text>
<polygon fill="#ffffff" stroke="transparent" points="242,-37.7 242,-56.7 326,-56.7 326,-37.7 242,-37.7"/>
<polygon fill="none" stroke="#000000" points="242,-37.7 242,-56.7 326,-56.7 326,-37.7 242,-37.7"/>
<text text-anchor="start" x="245" y="-43.8" font-family="Helvetica,sans-Serif" font-size="11.00" fill="#000000">&lt; 1</text>
<polygon fill="#ffffff" stroke="transparent" points="326,-37.7 326,-56.7 369,-56.7 369,-37.7 326,-37.7"/>
<polygon fill="none" stroke="#000000" points="326,-37.7 326,-56.7 369,-56.7 369,-37.7 326,-37.7"/>
<text text-anchor="start" x="359.8862" y="-43.8" font-family="Helvetica,sans-Serif" font-size="11.00" fill="#000000"> &#160;</text>
<polygon fill="#ffffff" stroke="transparent" points="369,-37.7 369,-56.7 413,-56.7 413,-37.7 369,-37.7"/>
<polygon fill="none" stroke="#000000" points="369,-37.7 369,-56.7 413,-56.7 413,-37.7 369,-37.7"/>
<text text-anchor="start" x="403.8862" y="-43.8" font-family="Helvetica,sans-Serif" font-size="11.00" fill="#000000"> &#160;</text>
</a>
</g>
</g>
<!-- ts_rest_operation_data&#45;&gt;operation_data -->
<g id="edge4" class="edge">
<title>ts_rest_operation_data:w&#45;&gt;operation_data:e</title>
<path fill="none" stroke="#000000" d="M231.4428,-66.2221C203.8204,-69.1633 193.969,-84.4389 174,-109.7 140.6556,-151.8813 187.2691,-223.7 133.5,-223.7"/>
<polygon fill="#000000" stroke="#000000" points="241.0034,-61.7444 241.3986,-69.7346 239.8005,-69.8137 239.4053,-61.8234 241.0034,-61.7444"/>
<polyline fill="none" stroke="#000000" points="242,-65.7 238.0049,-65.8976 "/>
<ellipse fill="none" stroke="#000000" cx="234.8088" cy="-66.0557" rx="3.2" ry="3.2"/>
</g>
</g>
</svg>
