<?xml version="1.0" encoding="UTF-8" standalone="no"?>
<!DOCTYPE svg PUBLIC "-//W3C//DTD SVG 1.1//EN"
 "http://www.w3.org/Graphics/SVG/1.1/DTD/svg11.dtd">
<!-- Generated by graphviz version 2.40.1 (20161225.0304)
 -->
<!-- Title: twoDegreesRelationshipsDiagram Pages: 1 -->
<svg width="466pt" height="475pt"
 viewBox="0.00 0.00 466.00 474.70" xmlns="http://www.w3.org/2000/svg" xmlns:xlink="http://www.w3.org/1999/xlink">
<g id="graph0" class="graph" transform="scale(1 1) rotate(0) translate(4 470.7)">
<title>twoDegreesRelationshipsDiagram</title>
<polygon fill="#ffffff" stroke="transparent" points="-4,4 -4,-470.7 462,-470.7 462,4 -4,4"/>
<text text-anchor="middle" x="72.4936" y="-7.3" font-family="Helvetica,sans-Serif" font-size="11.00" fill="#000000">Generated by SchemaSpy</text>
<!-- operation -->
<g id="node1" class="node">
<title>operation</title>
<g id="a_node1"><a xlink:href="../../tables/operation.html" xlink:title="operation" target="_top">
<polygon fill="#ffffff" stroke="transparent" points="269.5,-401.7 269.5,-462.7 362.5,-462.7 362.5,-401.7 269.5,-401.7"/>
<polygon fill="#f5f5f5" stroke="transparent" points="270,-439.2 270,-462.2 363,-462.2 363,-439.2 270,-439.2"/>
<polygon fill="none" stroke="#000000" points="270,-439.2 270,-462.2 363,-462.2 363,-439.2 270,-439.2"/>
<text text-anchor="start" x="275" y="-447.8" font-family="Helvetica,sans-Serif" font-weight="bold" font-size="11.00" fill="#000000">operation</text>
<text text-anchor="start" x="328.5219" y="-447.3" font-family="Helvetica,sans-Serif" font-size="11.00" fill="#000000">[table]</text>
<polygon fill="none" stroke="#000000" points="270,-420.2 270,-439.2 363,-439.2 363,-420.2 270,-420.2"/>
<text text-anchor="start" x="273" y="-426.3" font-family="Helvetica,sans-Serif" font-size="11.00" fill="#000000">...</text>
<polygon fill="#ffffff" stroke="transparent" points="270,-401.2 270,-420.2 310,-420.2 310,-401.2 270,-401.2"/>
<polygon fill="none" stroke="#000000" points="270,-401.2 270,-420.2 310,-420.2 310,-401.2 270,-401.2"/>
<text text-anchor="start" x="273" y="-407.3" font-family="Helvetica,sans-Serif" font-size="11.00" fill="#000000">&lt; 4</text>
<polygon fill="#ffffff" stroke="transparent" points="310,-401.2 310,-420.2 332,-420.2 332,-401.2 310,-401.2"/>
<polygon fill="none" stroke="#000000" points="310,-401.2 310,-420.2 332,-420.2 332,-401.2 310,-401.2"/>
<text text-anchor="start" x="322.8862" y="-407.3" font-family="Helvetica,sans-Serif" font-size="11.00" fill="#000000"> &#160;</text>
<polygon fill="#ffffff" stroke="transparent" points="332,-401.2 332,-420.2 363,-420.2 363,-401.2 332,-401.2"/>
<polygon fill="none" stroke="#000000" points="332,-401.2 332,-420.2 363,-420.2 363,-401.2 332,-401.2"/>
<text text-anchor="start" x="344.4053" y="-407.3" font-family="Helvetica,sans-Serif" font-size="11.00" fill="#000000">4 &gt;</text>
</a>
</g>
</g>
<!-- operation_data -->
<g id="node2" class="node">
<title>operation_data</title>
<g id="a_node2"><a xlink:href="../../tables/operation_data.html" xlink:title="operation_data" target="_top">
<polygon fill="#ffffff" stroke="transparent" points="8,-257.7 8,-340.7 133,-340.7 133,-257.7 8,-257.7"/>
<polygon fill="#f5f5f5" stroke="transparent" points="8.5,-317.2 8.5,-340.2 133.5,-340.2 133.5,-317.2 8.5,-317.2"/>
<polygon fill="none" stroke="#000000" points="8.5,-317.2 8.5,-340.2 133.5,-340.2 133.5,-317.2 8.5,-317.2"/>
<text text-anchor="start" x="13.5" y="-325.8" font-family="Helvetica,sans-Serif" font-weight="bold" font-size="11.00" fill="#000000">operation_data</text>
<text text-anchor="start" x="99.0219" y="-325.3" font-family="Helvetica,sans-Serif" font-size="11.00" fill="#000000">[table]</text>
<polygon fill="none" stroke="#000000" points="8.5,-295.2 8.5,-317.2 133.5,-317.2 133.5,-295.2 8.5,-295.2"/>
<image xlink:href="../../images/primaryKeys.png" width="11px" height="12px" preserveAspectRatio="xMinYMin meet" x="13.5" y="-312.2"/>
<text text-anchor="start" x="37.5" y="-302.3" font-family="Helvetica,sans-Serif" font-size="11.00" fill="#000000">data_hash</text>
<polygon fill="none" stroke="#000000" points="8.5,-276.2 8.5,-295.2 133.5,-295.2 133.5,-276.2 8.5,-276.2"/>
<text text-anchor="start" x="11.5" y="-282.3" font-family="Helvetica,sans-Serif" font-size="11.00" fill="#000000">...</text>
<polygon fill="#ffffff" stroke="transparent" points="8.5,-257.2 8.5,-276.2 60.5,-276.2 60.5,-257.2 8.5,-257.2"/>
<polygon fill="none" stroke="#000000" points="8.5,-257.2 8.5,-276.2 60.5,-276.2 60.5,-257.2 8.5,-257.2"/>
<text text-anchor="start" x="11.5" y="-263.3" font-family="Helvetica,sans-Serif" font-size="11.00" fill="#000000"> &#160;</text>
<polygon fill="#ffffff" stroke="transparent" points="60.5,-257.2 60.5,-276.2 92.5,-276.2 92.5,-257.2 60.5,-257.2"/>
<polygon fill="none" stroke="#000000" points="60.5,-257.2 60.5,-276.2 92.5,-276.2 92.5,-257.2 60.5,-257.2"/>
<text text-anchor="start" x="83.3862" y="-263.3" font-family="Helvetica,sans-Serif" font-size="11.00" fill="#000000"> &#160;</text>
<polygon fill="#ffffff" stroke="transparent" points="92.5,-257.2 92.5,-276.2 133.5,-276.2 133.5,-257.2 92.5,-257.2"/>
<polygon fill="none" stroke="#000000" points="92.5,-257.2 92.5,-276.2 133.5,-276.2 133.5,-257.2 92.5,-257.2"/>
<text text-anchor="start" x="114.9053" y="-263.3" font-family="Helvetica,sans-Serif" font-size="11.00" fill="#000000">4 &gt;</text>
</a>
</g>
</g>
<!-- operation&#45;&gt;operation_data -->
<g id="edge1" class="edge">
<title>operation:w&#45;&gt;operation_data:e</title>
<path fill="none" stroke="#000000" d="M255.4662,-428.9171C220.1374,-427.3724 203.7296,-418.981 174,-391.2 143.4248,-362.6288 175.3469,-306.2 133.5,-306.2"/>
<polygon fill="#000000" stroke="#000000" points="262.0015,-429.0442 269.9299,-432.7993 266.0008,-429.1221 270,-429.2 270,-429.2 270,-429.2 266.0008,-429.1221 270.0701,-425.6007 262.0015,-429.0442 262.0015,-429.0442"/>
<ellipse fill="none" stroke="#000000" cx="258.8021" cy="-428.9819" rx="3.2" ry="3.2"/>
</g>
<!-- ts_graphql_operation_data -->
<g id="node3" class="node">
<title>ts_graphql_operation_data</title>
<g id="a_node3"><a xlink:href="../../tables/ts_graphql_operation_data.html" xlink:title="ts_graphql_operation_data" target="_top">
<polygon fill="#ffffff" stroke="transparent" points="219.5,-319.7 219.5,-380.7 412.5,-380.7 412.5,-319.7 219.5,-319.7"/>
<polygon fill="#f5f5f5" stroke="transparent" points="220,-357.2 220,-380.2 413,-380.2 413,-357.2 220,-357.2"/>
<polygon fill="none" stroke="#000000" points="220,-357.2 220,-380.2 413,-380.2 413,-357.2 220,-357.2"/>
<text text-anchor="start" x="225" y="-365.8" font-family="Helvetica,sans-Serif" font-weight="bold" font-size="11.00" fill="#000000">ts_graphql_operation_data</text>
<text text-anchor="start" x="378.5219" y="-365.3" font-family="Helvetica,sans-Serif" font-size="11.00" fill="#000000">[table]</text>
<polygon fill="none" stroke="#000000" points="220,-338.2 220,-357.2 413,-357.2 413,-338.2 220,-338.2"/>
<text text-anchor="start" x="223" y="-344.3" font-family="Helvetica,sans-Serif" font-size="11.00" fill="#000000">...</text>
<polygon fill="#ffffff" stroke="transparent" points="220,-319.2 220,-338.2 315,-338.2 315,-319.2 220,-319.2"/>
<polygon fill="none" stroke="#000000" points="220,-319.2 220,-338.2 315,-338.2 315,-319.2 220,-319.2"/>
<text text-anchor="start" x="223" y="-325.3" font-family="Helvetica,sans-Serif" font-size="11.00" fill="#000000">&lt; 1</text>
<polygon fill="#ffffff" stroke="transparent" points="315,-319.2 315,-338.2 364,-338.2 364,-319.2 315,-319.2"/>
<polygon fill="none" stroke="#000000" points="315,-319.2 315,-338.2 364,-338.2 364,-319.2 315,-319.2"/>
<text text-anchor="start" x="354.8862" y="-325.3" font-family="Helvetica,sans-Serif" font-size="11.00" fill="#000000"> &#160;</text>
<polygon fill="#ffffff" stroke="transparent" points="364,-319.2 364,-338.2 413,-338.2 413,-319.2 364,-319.2"/>
<polygon fill="none" stroke="#000000" points="364,-319.2 364,-338.2 413,-338.2 413,-319.2 364,-319.2"/>
<text text-anchor="start" x="403.8862" y="-325.3" font-family="Helvetica,sans-Serif" font-size="11.00" fill="#000000"> &#160;</text>
</a>
</g>
</g>
<!-- ts_graphql_operation_data&#45;&gt;operation_data -->
<g id="edge2" class="edge">
<title>ts_graphql_operation_data:w&#45;&gt;operation_data:e</title>
<path fill="none" stroke="#000000" d="M209.4694,-346.2666C176.87,-340.1638 172.222,-306.2 133.5,-306.2"/>
<polygon fill="#000000" stroke="#000000" points="219.5563,-343.145 218.8499,-351.1137 217.2562,-350.9725 217.9626,-343.0037 219.5563,-343.145"/>
<polyline fill="none" stroke="#000000" points="220,-347.2 216.0156,-346.8468 "/>
<ellipse fill="none" stroke="#000000" cx="212.8281" cy="-346.5643" rx="3.2" ry="3.2"/>
</g>
<!-- ts_operation_data -->
<g id="node4" class="node">
<title>ts_operation_data</title>
<g id="a_node4"><a xlink:href="../../tables/ts_operation_data.html" xlink:title="ts_operation_data" target="_top">
<polygon fill="#ffffff" stroke="transparent" points="245,-237.7 245,-298.7 387,-298.7 387,-237.7 245,-237.7"/>
<polygon fill="#f5f5f5" stroke="transparent" points="245,-275.2 245,-298.2 387,-298.2 387,-275.2 245,-275.2"/>
<polygon fill="none" stroke="#000000" points="245,-275.2 245,-298.2 387,-298.2 387,-275.2 245,-275.2"/>
<text text-anchor="start" x="250" y="-283.8" font-family="Helvetica,sans-Serif" font-weight="bold" font-size="11.00" fill="#000000">ts_operation_data</text>
<text text-anchor="start" x="352.5219" y="-283.3" font-family="Helvetica,sans-Serif" font-size="11.00" fill="#000000">[table]</text>
<polygon fill="none" stroke="#000000" points="245,-256.2 245,-275.2 387,-275.2 387,-256.2 245,-256.2"/>
<text text-anchor="start" x="248" y="-262.3" font-family="Helvetica,sans-Serif" font-size="11.00" fill="#000000">...</text>
<polygon fill="#ffffff" stroke="transparent" points="245,-237.2 245,-256.2 314,-256.2 314,-237.2 245,-237.2"/>
<polygon fill="none" stroke="#000000" points="245,-237.2 245,-256.2 314,-256.2 314,-237.2 245,-237.2"/>
<text text-anchor="start" x="248" y="-243.3" font-family="Helvetica,sans-Serif" font-size="11.00" fill="#000000">&lt; 1</text>
<polygon fill="#ffffff" stroke="transparent" points="314,-237.2 314,-256.2 350,-256.2 350,-237.2 314,-237.2"/>
<polygon fill="none" stroke="#000000" points="314,-237.2 314,-256.2 350,-256.2 350,-237.2 314,-237.2"/>
<text text-anchor="start" x="340.8862" y="-243.3" font-family="Helvetica,sans-Serif" font-size="11.00" fill="#000000"> &#160;</text>
<polygon fill="#ffffff" stroke="transparent" points="350,-237.2 350,-256.2 387,-256.2 387,-237.2 350,-237.2"/>
<polygon fill="none" stroke="#000000" points="350,-237.2 350,-256.2 387,-256.2 387,-237.2 350,-237.2"/>
<text text-anchor="start" x="377.8862" y="-243.3" font-family="Helvetica,sans-Serif" font-size="11.00" fill="#000000"> &#160;</text>
</a>
</g>
</g>
<!-- ts_operation_data&#45;&gt;operation_data -->
<g id="edge3" class="edge">
<title>ts_operation_data:w&#45;&gt;operation_data:e</title>
<path fill="none" stroke="#000000" d="M234.5256,-265.7796C191.1387,-270.7629 182.5872,-306.2 133.5,-306.2"/>
<polygon fill="#000000" stroke="#000000" points="243.9802,-261.2503 244.4223,-269.2381 242.8247,-269.3265 242.3826,-261.3387 243.9802,-261.2503"/>
<polyline fill="none" stroke="#000000" points="245,-265.2 241.0061,-265.421 "/>
<ellipse fill="none" stroke="#000000" cx="237.811" cy="-265.5979" rx="3.2" ry="3.2"/>
</g>
<!-- ts_rest_operation_data -->
<g id="node5" class="node">
<title>ts_rest_operation_data</title>
<g id="a_node5"><a xlink:href="../../tables/ts_rest_operation_data.html" xlink:title="ts_rest_operation_data" target="_top">
<polygon fill="#ffffff" stroke="transparent" points="182,-38.2 182,-216.2 450,-216.2 450,-38.2 182,-38.2"/>
<polygon fill="#f5f5f5" stroke="transparent" points="184,-191.2 184,-214.2 448,-214.2 448,-191.2 184,-191.2"/>
<polygon fill="none" stroke="#000000" points="184,-191.2 184,-214.2 448,-214.2 448,-191.2 184,-191.2"/>
<text text-anchor="start" x="189" y="-199.8" font-family="Helvetica,sans-Serif" font-weight="bold" font-size="11.00" fill="#000000">ts_rest_operation_data</text>
<text text-anchor="start" x="413.0437" y="-199.3" font-family="Helvetica,sans-Serif" font-size="11.00" fill="#000000">[table]</text>
<polygon fill="none" stroke="#000000" points="184,-169.2 184,-191.2 337,-191.2 337,-169.2 184,-169.2"/>
<image xlink:href="../../images/primaryKeys.png" width="11px" height="12px" preserveAspectRatio="xMinYMin meet" x="189" y="-186.2"/>
<text text-anchor="start" x="204" y="-176.3" font-family="Helvetica,sans-Serif" font-size="11.00" fill="#000000">data_hash</text>
<polygon fill="none" stroke="#000000" points="337,-169.2 337,-191.2 448,-191.2 448,-169.2 337,-169.2"/>
<text text-anchor="start" x="340" y="-176.9" font-family="Helvetica,sans-Serif" font-size="11.00" fill="#000000">varchar[2147483647]</text>
<polygon fill="#ffffff" stroke="transparent" points="184,-147.2 184,-169.2 337,-169.2 337,-147.2 184,-147.2"/>
<polygon fill="none" stroke="#000000" points="184,-147.2 184,-169.2 337,-169.2 337,-147.2 184,-147.2"/>
<text text-anchor="start" x="204" y="-154.3" font-family="Helvetica,sans-Serif" font-size="11.00" fill="#000000">scope_request</text>
<polygon fill="none" stroke="#000000" points="337,-147.2 337,-169.2 448,-169.2 448,-147.2 337,-147.2"/>
<text text-anchor="start" x="339.6159" y="-154.9" font-family="Helvetica,sans-Serif" font-size="11.00" fill="#000000">tsvector[2147483647]</text>
<polygon fill="#ffffff" stroke="transparent" points="184,-125.2 184,-147.2 337,-147.2 337,-125.2 184,-125.2"/>
<polygon fill="none" stroke="#000000" points="184,-125.2 184,-147.2 337,-147.2 337,-125.2 184,-125.2"/>
<text text-anchor="start" x="204" y="-132.3" font-family="Helvetica,sans-Serif" font-size="11.00" fill="#000000">scope_response</text>
<polygon fill="none" stroke="#000000" points="337,-125.2 337,-147.2 448,-147.2 448,-125.2 337,-125.2"/>
<text text-anchor="start" x="339.6159" y="-132.9" font-family="Helvetica,sans-Serif" font-size="11.00" fill="#000000">tsvector[2147483647]</text>
<polygon fill="#ffffff" stroke="transparent" points="184,-103.2 184,-125.2 337,-125.2 337,-103.2 184,-103.2"/>
<polygon fill="none" stroke="#000000" points="184,-103.2 184,-125.2 337,-125.2 337,-103.2 184,-103.2"/>
<text text-anchor="start" x="204" y="-110.3" font-family="Helvetica,sans-Serif" font-size="11.00" fill="#000000">scope_annotation</text>
<polygon fill="none" stroke="#000000" points="337,-103.2 337,-125.2 448,-125.2 448,-103.2 337,-103.2"/>
<text text-anchor="start" x="339.6159" y="-110.9" font-family="Helvetica,sans-Serif" font-size="11.00" fill="#000000">tsvector[2147483647]</text>
<polygon fill="#ffffff" stroke="transparent" points="184,-81.2 184,-103.2 337,-103.2 337,-81.2 184,-81.2"/>
<polygon fill="none" stroke="#000000" points="184,-81.2 184,-103.2 337,-103.2 337,-81.2 184,-81.2"/>
<text text-anchor="start" x="204" y="-88.3" font-family="Helvetica,sans-Serif" font-size="11.00" fill="#000000">scope_properties</text>
<polygon fill="none" stroke="#000000" points="337,-81.2 337,-103.2 448,-103.2 448,-81.2 337,-81.2"/>
<text text-anchor="start" x="339.6159" y="-88.9" font-family="Helvetica,sans-Serif" font-size="11.00" fill="#000000">tsvector[2147483647]</text>
<polygon fill="#ffffff" stroke="transparent" points="184,-59.2 184,-81.2 337,-81.2 337,-59.2 184,-59.2"/>
<polygon fill="none" stroke="#000000" points="184,-59.2 184,-81.2 337,-81.2 337,-59.2 184,-59.2"/>
<text text-anchor="start" x="204" y="-66.3" font-family="Helvetica,sans-Serif" font-size="11.00" fill="#000000">scope_examples</text>
<polygon fill="none" stroke="#000000" points="337,-59.2 337,-81.2 448,-81.2 448,-59.2 337,-59.2"/>
<text text-anchor="start" x="339.6159" y="-66.9" font-family="Helvetica,sans-Serif" font-size="11.00" fill="#000000">tsvector[2147483647]</text>
<polygon fill="#ffffff" stroke="transparent" points="184,-40.2 184,-59.2 265,-59.2 265,-40.2 184,-40.2"/>
<polygon fill="none" stroke="#000000" points="184,-40.2 184,-59.2 265,-59.2 265,-40.2 184,-40.2"/>
<text text-anchor="start" x="187" y="-46.3" font-family="Helvetica,sans-Serif" font-size="11.00" fill="#000000">&lt; 1</text>
<polygon fill="#ffffff" stroke="transparent" points="265,-40.2 265,-59.2 337,-59.2 337,-40.2 265,-40.2"/>
<polygon fill="none" stroke="#000000" points="265,-40.2 265,-59.2 337,-59.2 337,-40.2 265,-40.2"/>
<text text-anchor="start" x="327.8862" y="-46.3" font-family="Helvetica,sans-Serif" font-size="11.00" fill="#000000"> &#160;</text>
<polygon fill="#ffffff" stroke="transparent" points="337,-40.2 337,-59.2 448,-59.2 448,-40.2 337,-40.2"/>
<polygon fill="none" stroke="#000000" points="337,-40.2 337,-59.2 448,-59.2 448,-40.2 337,-40.2"/>
<text text-anchor="start" x="429.4053" y="-46.3" font-family="Helvetica,sans-Serif" font-size="11.00" fill="#000000">0 &gt;</text>
<polygon fill="none" stroke="#000000" stroke-width="2" points="183,-39.2 183,-215.2 449,-215.2 449,-39.2 183,-39.2"/>
</a>
</g>
</g>
<!-- ts_rest_operation_data&#45;&gt;operation_data -->
<g id="edge4" class="edge">
<title>ts_rest_operation_data:w&#45;&gt;operation_data:e</title>
<path fill="none" stroke="#000000" d="M173.6309,-181.7931C132.4124,-196.3787 189.8241,-306.2 133.5,-306.2"/>
<polygon fill="#000000" stroke="#000000" points="182.6018,-176.3679 183.8167,-184.2751 182.2353,-184.5181 181.0204,-176.6109 182.6018,-176.3679"/>
<polyline fill="none" stroke="#000000" points="184,-180.2 180.0464,-180.8075 "/>
<ellipse fill="none" stroke="#000000" cx="176.8835" cy="-181.2934" rx="3.2" ry="3.2"/>
</g>
</g>
</svg>
