<?xml version="1.0" encoding="UTF-8" standalone="no"?>
<!DOCTYPE svg PUBLIC "-//W3C//DTD SVG 1.1//EN"
 "http://www.w3.org/Graphics/SVG/1.1/DTD/svg11.dtd">
<!-- Generated by graphviz version 2.40.1 (20161225.0304)
 -->
<!-- Title: oneDegreeRelationshipsDiagram Pages: 1 -->
<svg width="256pt" height="162pt"
 viewBox="0.00 0.00 256.00 162.20" xmlns="http://www.w3.org/2000/svg" xmlns:xlink="http://www.w3.org/1999/xlink">
<g id="graph0" class="graph" transform="scale(1 1) rotate(0) translate(4 158.2)">
<title>oneDegreeRelationshipsDiagram</title>
<polygon fill="#ffffff" stroke="transparent" points="-4,4 -4,-158.2 252,-158.2 252,4 -4,4"/>
<text text-anchor="middle" x="72.4936" y="-7.3" font-family="Helvetica,sans-Serif" font-size="11.00" fill="#000000">Generated by SchemaSpy</text>
<!-- user_avatar_data -->
<g id="node1" class="node">
<title>user_avatar_data</title>
<g id="a_node1"><a xlink:href="../../tables/user_avatar_data.html" xlink:title="user_avatar_data" target="_top">
<polygon fill="#ffffff" stroke="transparent" points="8,-38.2 8,-150.2 240,-150.2 240,-38.2 8,-38.2"/>
<polygon fill="#f5f5f5" stroke="transparent" points="10,-125.2 10,-148.2 238,-148.2 238,-125.2 10,-125.2"/>
<polygon fill="none" stroke="#000000" points="10,-125.2 10,-148.2 238,-148.2 238,-125.2 10,-125.2"/>
<text text-anchor="start" x="15" y="-133.8" font-family="Helvetica,sans-Serif" font-weight="bold" font-size="11.00" fill="#000000">user_avatar_data</text>
<text text-anchor="start" x="203.0437" y="-133.3" font-family="Helvetica,sans-Serif" font-size="11.00" fill="#000000">[table]</text>
<polygon fill="none" stroke="#000000" points="10,-103.2 10,-125.2 129,-125.2 129,-103.2 10,-103.2"/>
<image xlink:href="../../images/primaryKeys.png" width="11px" height="12px" preserveAspectRatio="xMinYMin meet" x="15" y="-120.2"/>
<text text-anchor="start" x="30" y="-110.3" font-family="Helvetica,sans-Serif" font-size="11.00" fill="#000000">user_id</text>
<polygon fill="none" stroke="#000000" points="129,-103.2 129,-125.2 238,-125.2 238,-103.2 129,-103.2"/>
<text text-anchor="start" x="131.5344" y="-110.9" font-family="Helvetica,sans-Serif" font-size="11.00" fill="#000000">varchar[2147483647]</text>
<polygon fill="none" stroke="#000000" points="10,-81.2 10,-103.2 129,-103.2 129,-81.2 10,-81.2"/>
<text text-anchor="start" x="30" y="-88.3" font-family="Helvetica,sans-Serif" font-size="11.00" fill="#000000">avatar</text>
<polygon fill="none" stroke="#000000" points="129,-81.2 129,-103.2 238,-103.2 238,-81.2 129,-81.2"/>
<text text-anchor="start" x="132" y="-88.9" font-family="Helvetica,sans-Serif" font-size="11.00" fill="#000000">bytea[2147483647]</text>
<polygon fill="none" stroke="#000000" points="10,-59.2 10,-81.2 129,-81.2 129,-59.2 10,-59.2"/>
<text text-anchor="start" x="30" y="-66.3" font-family="Helvetica,sans-Serif" font-size="11.00" fill="#000000">checksum</text>
<polygon fill="none" stroke="#000000" points="129,-59.2 129,-81.2 238,-81.2 238,-59.2 129,-59.2"/>
<text text-anchor="start" x="132" y="-66.9" font-family="Helvetica,sans-Serif" font-size="11.00" fill="#000000">bytea[2147483647]</text>
<polygon fill="#ffffff" stroke="transparent" points="10,-40.2 10,-59.2 74,-59.2 74,-40.2 10,-40.2"/>
<polygon fill="none" stroke="#000000" points="10,-40.2 10,-59.2 74,-59.2 74,-40.2 10,-40.2"/>
<text text-anchor="start" x="13" y="-46.3" font-family="Helvetica,sans-Serif" font-size="11.00" fill="#000000">&lt; 0</text>
<polygon fill="#ffffff" stroke="transparent" points="74,-40.2 74,-59.2 129,-59.2 129,-40.2 74,-40.2"/>
<polygon fill="none" stroke="#000000" points="74,-40.2 74,-59.2 129,-59.2 129,-40.2 74,-40.2"/>
<text text-anchor="start" x="119.8862" y="-46.3" font-family="Helvetica,sans-Serif" font-size="11.00" fill="#000000"> &#160;</text>
<polygon fill="#ffffff" stroke="transparent" points="129,-40.2 129,-59.2 238,-59.2 238,-40.2 129,-40.2"/>
<polygon fill="none" stroke="#000000" points="129,-40.2 129,-59.2 238,-59.2 238,-40.2 129,-40.2"/>
<text text-anchor="start" x="219.4053" y="-46.3" font-family="Helvetica,sans-Serif" font-size="11.00" fill="#000000">0 &gt;</text>
<polygon fill="none" stroke="#000000" stroke-width="2" points="9,-39.2 9,-149.2 239,-149.2 239,-39.2 9,-39.2"/>
</a>
</g>
</g>
</g>
</svg>
