<?xml version="1.0" encoding="UTF-8" standalone="no"?>
<!DOCTYPE svg PUBLIC "-//W3C//DTD SVG 1.1//EN"
 "http://www.w3.org/Graphics/SVG/1.1/DTD/svg11.dtd">
<!-- Generated by graphviz version 2.40.1 (20161225.0304)
 -->
<!-- Title: oneDegreeRelationshipsDiagram Pages: 1 -->
<svg width="499pt" height="543pt"
 viewBox="0.00 0.00 499.00 542.70" xmlns="http://www.w3.org/2000/svg" xmlns:xlink="http://www.w3.org/1999/xlink">
<g id="graph0" class="graph" transform="scale(1 1) rotate(0) translate(4 538.7)">
<title>oneDegreeRelationshipsDiagram</title>
<polygon fill="#ffffff" stroke="transparent" points="-4,4 -4,-538.7 495,-538.7 495,4 -4,4"/>
<text text-anchor="middle" x="72.4936" y="-7.3" font-family="Helvetica,sans-Serif" font-size="11.00" fill="#000000">Generated by SchemaSpy</text>
<!-- external_identity -->
<g id="node1" class="node">
<title>external_identity</title>
<g id="a_node1"><a xlink:href="../../tables/external_identity.html" xlink:title="external_identity" target="_top">
<polygon fill="#ffffff" stroke="transparent" points="325.5,-400.7 325.5,-530.7 459.5,-530.7 459.5,-400.7 325.5,-400.7"/>
<polygon fill="#f5f5f5" stroke="transparent" points="325.5,-507.7 325.5,-530.7 459.5,-530.7 459.5,-507.7 325.5,-507.7"/>
<polygon fill="none" stroke="#000000" points="325.5,-507.7 325.5,-530.7 459.5,-530.7 459.5,-507.7 325.5,-507.7"/>
<text text-anchor="start" x="330.5" y="-516.3" font-family="Helvetica,sans-Serif" font-weight="bold" font-size="11.00" fill="#000000">external_identity</text>
<text text-anchor="start" x="425.0219" y="-515.8" font-family="Helvetica,sans-Serif" font-size="11.00" fill="#000000">[table]</text>
<polygon fill="none" stroke="#000000" points="325.5,-485.7 325.5,-507.7 459.5,-507.7 459.5,-485.7 325.5,-485.7"/>
<image xlink:href="../../images/primaryKeys.png" width="11px" height="12px" preserveAspectRatio="xMinYMin meet" x="330.5" y="-502.7"/>
<text text-anchor="start" x="354.5" y="-492.8" font-family="Helvetica,sans-Serif" font-size="11.00" fill="#000000">provider</text>
<polygon fill="none" stroke="#000000" points="325.5,-463.7 325.5,-485.7 459.5,-485.7 459.5,-463.7 325.5,-463.7"/>
<image xlink:href="../../images/primaryKeys.png" width="11px" height="12px" preserveAspectRatio="xMinYMin meet" x="330.5" y="-480.7"/>
<text text-anchor="start" x="354.5" y="-470.8" font-family="Helvetica,sans-Serif" font-size="11.00" fill="#000000">external_id</text>
<polygon fill="none" stroke="#000000" points="325.5,-441.7 325.5,-463.7 459.5,-463.7 459.5,-441.7 325.5,-441.7"/>
<image xlink:href="../../images/foreignKeys.png" width="11px" height="12px" preserveAspectRatio="xMinYMin meet" x="330.5" y="-458.7"/>
<text text-anchor="start" x="354.5" y="-448.8" font-family="Helvetica,sans-Serif" font-size="11.00" fill="#000000">internal_id</text>
<polygon fill="none" stroke="#000000" points="325.5,-419.7 325.5,-441.7 459.5,-441.7 459.5,-419.7 325.5,-419.7"/>
<image xlink:href="../../images/primaryKeys.png" width="11px" height="12px" preserveAspectRatio="xMinYMin meet" x="330.5" y="-436.7"/>
<text text-anchor="start" x="354.5" y="-426.8" font-family="Helvetica,sans-Serif" font-size="11.00" fill="#000000">provider_id</text>
<polygon fill="#ffffff" stroke="transparent" points="325.5,-400.7 325.5,-419.7 390.5,-419.7 390.5,-400.7 325.5,-400.7"/>
<polygon fill="none" stroke="#000000" points="325.5,-400.7 325.5,-419.7 390.5,-419.7 390.5,-400.7 325.5,-400.7"/>
<text text-anchor="start" x="328.5" y="-406.8" font-family="Helvetica,sans-Serif" font-size="11.00" fill="#000000">&lt; 1</text>
<polygon fill="#ffffff" stroke="transparent" points="390.5,-400.7 390.5,-419.7 424.5,-419.7 424.5,-400.7 390.5,-400.7"/>
<polygon fill="none" stroke="#000000" points="390.5,-400.7 390.5,-419.7 424.5,-419.7 424.5,-400.7 390.5,-400.7"/>
<text text-anchor="start" x="415.3862" y="-406.8" font-family="Helvetica,sans-Serif" font-size="11.00" fill="#000000"> &#160;</text>
<polygon fill="#ffffff" stroke="transparent" points="424.5,-400.7 424.5,-419.7 459.5,-419.7 459.5,-400.7 424.5,-400.7"/>
<polygon fill="none" stroke="#000000" points="424.5,-400.7 424.5,-419.7 459.5,-419.7 459.5,-400.7 424.5,-400.7"/>
<text text-anchor="start" x="450.3862" y="-406.8" font-family="Helvetica,sans-Serif" font-size="11.00" fill="#000000"> &#160;</text>
</a>
</g>
</g>
<!-- user_data -->
<g id="node2" class="node">
<title>user_data</title>
<g id="a_node2"><a xlink:href="../../tables/user_data.html" xlink:title="user_data" target="_top">
<polygon fill="#ffffff" stroke="transparent" points="8,-149.7 8,-327.7 253,-327.7 253,-149.7 8,-149.7"/>
<polygon fill="#f5f5f5" stroke="transparent" points="10.5,-302.7 10.5,-325.7 251.5,-325.7 251.5,-302.7 10.5,-302.7"/>
<polygon fill="none" stroke="#000000" points="10.5,-302.7 10.5,-325.7 251.5,-325.7 251.5,-302.7 10.5,-302.7"/>
<text text-anchor="start" x="15.5" y="-311.3" font-family="Helvetica,sans-Serif" font-weight="bold" font-size="11.00" fill="#000000">user_data</text>
<text text-anchor="start" x="216.5437" y="-310.8" font-family="Helvetica,sans-Serif" font-size="11.00" fill="#000000">[table]</text>
<polygon fill="none" stroke="#000000" points="10.5,-280.7 10.5,-302.7 142.5,-302.7 142.5,-280.7 10.5,-280.7"/>
<image xlink:href="../../images/primaryKeys.png" width="11px" height="12px" preserveAspectRatio="xMinYMin meet" x="15.5" y="-297.7"/>
<text text-anchor="start" x="30.5" y="-287.8" font-family="Helvetica,sans-Serif" font-size="11.00" fill="#000000">user_id</text>
<polygon fill="none" stroke="#000000" points="142.5,-280.7 142.5,-302.7 251.5,-302.7 251.5,-280.7 142.5,-280.7"/>
<text text-anchor="start" x="145.0344" y="-288.4" font-family="Helvetica,sans-Serif" font-size="11.00" fill="#000000">varchar[2147483647]</text>
<polygon fill="#ffffff" stroke="transparent" points="10.5,-258.7 10.5,-280.7 142.5,-280.7 142.5,-258.7 10.5,-258.7"/>
<polygon fill="none" stroke="#000000" points="10.5,-258.7 10.5,-280.7 142.5,-280.7 142.5,-258.7 10.5,-258.7"/>
<text text-anchor="start" x="30.5" y="-265.8" font-family="Helvetica,sans-Serif" font-size="11.00" fill="#000000">email</text>
<polygon fill="none" stroke="#000000" points="142.5,-258.7 142.5,-280.7 251.5,-280.7 251.5,-258.7 142.5,-258.7"/>
<text text-anchor="start" x="145.0344" y="-266.4" font-family="Helvetica,sans-Serif" font-size="11.00" fill="#000000">varchar[2147483647]</text>
<polygon fill="none" stroke="#000000" points="10.5,-236.7 10.5,-258.7 142.5,-258.7 142.5,-236.7 10.5,-236.7"/>
<text text-anchor="start" x="30.5" y="-243.8" font-family="Helvetica,sans-Serif" font-size="11.00" fill="#000000">name</text>
<polygon fill="none" stroke="#000000" points="142.5,-236.7 142.5,-258.7 251.5,-258.7 251.5,-236.7 142.5,-236.7"/>
<text text-anchor="start" x="145.0344" y="-244.4" font-family="Helvetica,sans-Serif" font-size="11.00" fill="#000000">varchar[2147483647]</text>
<polygon fill="none" stroke="#000000" points="10.5,-214.7 10.5,-236.7 142.5,-236.7 142.5,-214.7 10.5,-214.7"/>
<text text-anchor="start" x="30.5" y="-221.8" font-family="Helvetica,sans-Serif" font-size="11.00" fill="#000000">avatar_url</text>
<polygon fill="none" stroke="#000000" points="142.5,-214.7 142.5,-236.7 251.5,-236.7 251.5,-214.7 142.5,-214.7"/>
<text text-anchor="start" x="145.0344" y="-222.4" font-family="Helvetica,sans-Serif" font-size="11.00" fill="#000000">varchar[2147483647]</text>
<polygon fill="none" stroke="#000000" points="10.5,-192.7 10.5,-214.7 142.5,-214.7 142.5,-192.7 10.5,-192.7"/>
<text text-anchor="start" x="30.5" y="-199.8" font-family="Helvetica,sans-Serif" font-size="11.00" fill="#000000">password</text>
<polygon fill="none" stroke="#000000" points="142.5,-192.7 142.5,-214.7 251.5,-214.7 251.5,-192.7 142.5,-192.7"/>
<text text-anchor="start" x="145.5" y="-200.4" font-family="Helvetica,sans-Serif" font-size="11.00" fill="#000000">bytea[2147483647]</text>
<polygon fill="#ffffff" stroke="transparent" points="10.5,-170.7 10.5,-192.7 142.5,-192.7 142.5,-170.7 10.5,-170.7"/>
<polygon fill="none" stroke="#000000" points="10.5,-170.7 10.5,-192.7 142.5,-192.7 142.5,-170.7 10.5,-170.7"/>
<text text-anchor="start" x="30.5" y="-177.8" font-family="Helvetica,sans-Serif" font-size="11.00" fill="#000000">private_package_id</text>
<polygon fill="none" stroke="#000000" points="142.5,-170.7 142.5,-192.7 251.5,-192.7 251.5,-170.7 142.5,-170.7"/>
<text text-anchor="start" x="145.0344" y="-178.4" font-family="Helvetica,sans-Serif" font-size="11.00" fill="#000000">varchar[2147483647]</text>
<polygon fill="#ffffff" stroke="transparent" points="10.5,-151.7 10.5,-170.7 80.5,-170.7 80.5,-151.7 10.5,-151.7"/>
<polygon fill="none" stroke="#000000" points="10.5,-151.7 10.5,-170.7 80.5,-170.7 80.5,-151.7 10.5,-151.7"/>
<text text-anchor="start" x="13.5" y="-157.8" font-family="Helvetica,sans-Serif" font-size="11.00" fill="#000000">&lt; 0</text>
<polygon fill="#ffffff" stroke="transparent" points="80.5,-151.7 80.5,-170.7 142.5,-170.7 142.5,-151.7 80.5,-151.7"/>
<polygon fill="none" stroke="#000000" points="80.5,-151.7 80.5,-170.7 142.5,-170.7 142.5,-151.7 80.5,-151.7"/>
<text text-anchor="start" x="133.3862" y="-157.8" font-family="Helvetica,sans-Serif" font-size="11.00" fill="#000000"> &#160;</text>
<polygon fill="#ffffff" stroke="transparent" points="142.5,-151.7 142.5,-170.7 251.5,-170.7 251.5,-151.7 142.5,-151.7"/>
<polygon fill="none" stroke="#000000" points="142.5,-151.7 142.5,-170.7 251.5,-170.7 251.5,-151.7 142.5,-151.7"/>
<text text-anchor="start" x="232.9053" y="-157.8" font-family="Helvetica,sans-Serif" font-size="11.00" fill="#000000">4 &gt;</text>
<polygon fill="none" stroke="#000000" stroke-width="2" points="9,-150.7 9,-326.7 252,-326.7 252,-150.7 9,-150.7"/>
</a>
</g>
</g>
<!-- external_identity&#45;&gt;user_data -->
<g id="edge1" class="edge">
<title>external_identity:w&#45;&gt;user_data:e</title>
<path fill="none" stroke="#000000" d="M311.182,-450.4241C257.6886,-430.8553 324.7147,-291.7 251.5,-291.7"/>
<polygon fill="#000000" stroke="#000000" points="317.5992,-451.4441 324.9348,-456.2554 321.5496,-452.072 325.5,-452.7 325.5,-452.7 325.5,-452.7 321.5496,-452.072 326.0652,-449.1446 317.5992,-451.4441 317.5992,-451.4441"/>
<ellipse fill="none" stroke="#000000" cx="314.4389" cy="-450.9417" rx="3.2" ry="3.2"/>
</g>
<!-- favorite_packages -->
<g id="node3" class="node">
<title>favorite_packages</title>
<g id="a_node3"><a xlink:href="../../tables/favorite_packages.html" xlink:title="favorite_packages" target="_top">
<polygon fill="#ffffff" stroke="transparent" points="321,-293.7 321,-379.7 464,-379.7 464,-293.7 321,-293.7"/>
<polygon fill="#f5f5f5" stroke="transparent" points="321.5,-356.7 321.5,-379.7 464.5,-379.7 464.5,-356.7 321.5,-356.7"/>
<polygon fill="none" stroke="#000000" points="321.5,-356.7 321.5,-379.7 464.5,-379.7 464.5,-356.7 321.5,-356.7"/>
<text text-anchor="start" x="326.5" y="-365.3" font-family="Helvetica,sans-Serif" font-weight="bold" font-size="11.00" fill="#000000">favorite_packages</text>
<text text-anchor="start" x="430.0219" y="-364.8" font-family="Helvetica,sans-Serif" font-size="11.00" fill="#000000">[table]</text>
<polygon fill="none" stroke="#000000" points="321.5,-334.7 321.5,-356.7 464.5,-356.7 464.5,-334.7 321.5,-334.7"/>
<image xlink:href="../../images/primaryKeys.png" width="11px" height="12px" preserveAspectRatio="xMinYMin meet" x="326.5" y="-351.7"/>
<text text-anchor="start" x="350.5" y="-341.8" font-family="Helvetica,sans-Serif" font-size="11.00" fill="#000000">user_id</text>
<polygon fill="none" stroke="#000000" points="321.5,-312.7 321.5,-334.7 464.5,-334.7 464.5,-312.7 321.5,-312.7"/>
<image xlink:href="../../images/primaryKeys.png" width="11px" height="12px" preserveAspectRatio="xMinYMin meet" x="326.5" y="-329.7"/>
<text text-anchor="start" x="350.5" y="-319.8" font-family="Helvetica,sans-Serif" font-size="11.00" fill="#000000">package_id</text>
<polygon fill="#ffffff" stroke="transparent" points="321.5,-293.7 321.5,-312.7 391.5,-312.7 391.5,-293.7 321.5,-293.7"/>
<polygon fill="none" stroke="#000000" points="321.5,-293.7 321.5,-312.7 391.5,-312.7 391.5,-293.7 321.5,-293.7"/>
<text text-anchor="start" x="324.5" y="-299.8" font-family="Helvetica,sans-Serif" font-size="11.00" fill="#000000">&lt; 2</text>
<polygon fill="#ffffff" stroke="transparent" points="391.5,-293.7 391.5,-312.7 427.5,-312.7 427.5,-293.7 391.5,-293.7"/>
<polygon fill="none" stroke="#000000" points="391.5,-293.7 391.5,-312.7 427.5,-312.7 427.5,-293.7 391.5,-293.7"/>
<text text-anchor="start" x="418.3862" y="-299.8" font-family="Helvetica,sans-Serif" font-size="11.00" fill="#000000"> &#160;</text>
<polygon fill="#ffffff" stroke="transparent" points="427.5,-293.7 427.5,-312.7 464.5,-312.7 464.5,-293.7 427.5,-293.7"/>
<polygon fill="none" stroke="#000000" points="427.5,-293.7 427.5,-312.7 464.5,-312.7 464.5,-293.7 427.5,-293.7"/>
<text text-anchor="start" x="455.3862" y="-299.8" font-family="Helvetica,sans-Serif" font-size="11.00" fill="#000000"> &#160;</text>
</a>
</g>
</g>
<!-- favorite_packages&#45;&gt;user_data -->
<g id="edge2" class="edge">
<title>favorite_packages:w&#45;&gt;user_data:e</title>
<path fill="none" stroke="#000000" d="M307.1743,-342.642C283.689,-331.2186 285.1135,-291.7 251.5,-291.7"/>
<polygon fill="#000000" stroke="#000000" points="313.6763,-344.0299 320.7484,-349.2207 317.5881,-344.8649 321.5,-345.7 321.5,-345.7 321.5,-345.7 317.5881,-344.8649 322.2516,-342.1793 313.6763,-344.0299 313.6763,-344.0299"/>
<ellipse fill="none" stroke="#000000" cx="310.5468" cy="-343.3618" rx="3.2" ry="3.2"/>
</g>
<!-- favorite_projects -->
<g id="node4" class="node">
<title>favorite_projects</title>
<g id="a_node4"><a xlink:href="../../tables/favorite_projects.html" xlink:title="favorite_projects" target="_top">
<polygon fill="#ffffff" stroke="transparent" points="325,-186.7 325,-272.7 460,-272.7 460,-186.7 325,-186.7"/>
<polygon fill="#f5f5f5" stroke="transparent" points="325.5,-249.7 325.5,-272.7 460.5,-272.7 460.5,-249.7 325.5,-249.7"/>
<polygon fill="none" stroke="#000000" points="325.5,-249.7 325.5,-272.7 460.5,-272.7 460.5,-249.7 325.5,-249.7"/>
<text text-anchor="start" x="330.5" y="-258.3" font-family="Helvetica,sans-Serif" font-weight="bold" font-size="11.00" fill="#000000">favorite_projects</text>
<text text-anchor="start" x="426.0219" y="-257.8" font-family="Helvetica,sans-Serif" font-size="11.00" fill="#000000">[table]</text>
<polygon fill="none" stroke="#000000" points="325.5,-227.7 325.5,-249.7 460.5,-249.7 460.5,-227.7 325.5,-227.7"/>
<image xlink:href="../../images/primaryKeys.png" width="11px" height="12px" preserveAspectRatio="xMinYMin meet" x="330.5" y="-244.7"/>
<text text-anchor="start" x="354.5" y="-234.8" font-family="Helvetica,sans-Serif" font-size="11.00" fill="#000000">user_id</text>
<polygon fill="none" stroke="#000000" points="325.5,-205.7 325.5,-227.7 460.5,-227.7 460.5,-205.7 325.5,-205.7"/>
<image xlink:href="../../images/primaryKeys.png" width="11px" height="12px" preserveAspectRatio="xMinYMin meet" x="330.5" y="-222.7"/>
<text text-anchor="start" x="354.5" y="-212.8" font-family="Helvetica,sans-Serif" font-size="11.00" fill="#000000">project_id</text>
<polygon fill="#ffffff" stroke="transparent" points="325.5,-186.7 325.5,-205.7 391.5,-205.7 391.5,-186.7 325.5,-186.7"/>
<polygon fill="none" stroke="#000000" points="325.5,-186.7 325.5,-205.7 391.5,-205.7 391.5,-186.7 325.5,-186.7"/>
<text text-anchor="start" x="328.5" y="-192.8" font-family="Helvetica,sans-Serif" font-size="11.00" fill="#000000">&lt; 2</text>
<polygon fill="#ffffff" stroke="transparent" points="391.5,-186.7 391.5,-205.7 425.5,-205.7 425.5,-186.7 391.5,-186.7"/>
<polygon fill="none" stroke="#000000" points="391.5,-186.7 391.5,-205.7 425.5,-205.7 425.5,-186.7 391.5,-186.7"/>
<text text-anchor="start" x="416.3862" y="-192.8" font-family="Helvetica,sans-Serif" font-size="11.00" fill="#000000"> &#160;</text>
<polygon fill="#ffffff" stroke="transparent" points="425.5,-186.7 425.5,-205.7 460.5,-205.7 460.5,-186.7 425.5,-186.7"/>
<polygon fill="none" stroke="#000000" points="425.5,-186.7 425.5,-205.7 460.5,-205.7 460.5,-186.7 425.5,-186.7"/>
<text text-anchor="start" x="451.3862" y="-192.8" font-family="Helvetica,sans-Serif" font-size="11.00" fill="#000000"> &#160;</text>
</a>
</g>
</g>
<!-- favorite_projects&#45;&gt;user_data -->
<g id="edge3" class="edge">
<title>favorite_projects:w&#45;&gt;user_data:e</title>
<path fill="none" stroke="#000000" d="M311.3213,-241.4011C286.0495,-252.2015 286.4234,-291.7 251.5,-291.7"/>
<polygon fill="#000000" stroke="#000000" points="317.6413,-240.1972 326.1737,-242.2364 321.5707,-239.4486 325.5,-238.7 325.5,-238.7 325.5,-238.7 321.5707,-239.4486 324.8263,-235.1636 317.6413,-240.1972 317.6413,-240.1972"/>
<ellipse fill="none" stroke="#000000" cx="314.4979" cy="-240.796" rx="3.2" ry="3.2"/>
</g>
<!-- personal_access_tokens -->
<g id="node5" class="node">
<title>personal_access_tokens</title>
<g id="a_node5"><a xlink:href="../../tables/personal_access_tokens.html" xlink:title="personal_access_tokens" target="_top">
<polygon fill="#ffffff" stroke="transparent" points="302,-38.2 302,-165.2 483,-165.2 483,-38.2 302,-38.2"/>
<polygon fill="#f5f5f5" stroke="transparent" points="302.5,-141.7 302.5,-164.7 483.5,-164.7 483.5,-141.7 302.5,-141.7"/>
<polygon fill="none" stroke="#000000" points="302.5,-141.7 302.5,-164.7 483.5,-164.7 483.5,-141.7 302.5,-141.7"/>
<text text-anchor="start" x="307.5" y="-150.3" font-family="Helvetica,sans-Serif" font-weight="bold" font-size="11.00" fill="#000000">personal_access_tokens</text>
<text text-anchor="start" x="449.0219" y="-149.8" font-family="Helvetica,sans-Serif" font-size="11.00" fill="#000000">[table]</text>
<polygon fill="none" stroke="#000000" points="302.5,-119.7 302.5,-141.7 483.5,-141.7 483.5,-119.7 302.5,-119.7"/>
<image xlink:href="../../images/primaryKeys.png" width="11px" height="12px" preserveAspectRatio="xMinYMin meet" x="307.5" y="-136.7"/>
<text text-anchor="start" x="331.5" y="-126.8" font-family="Helvetica,sans-Serif" font-size="11.00" fill="#000000">id</text>
<polygon fill="none" stroke="#000000" points="302.5,-97.7 302.5,-119.7 483.5,-119.7 483.5,-97.7 302.5,-97.7"/>
<image xlink:href="../../images/foreignKeys.png" width="11px" height="12px" preserveAspectRatio="xMinYMin meet" x="307.5" y="-114.7"/>
<text text-anchor="start" x="331.5" y="-104.8" font-family="Helvetica,sans-Serif" font-size="11.00" fill="#000000">user_id</text>
<polygon fill="#ffffff" stroke="transparent" points="302.5,-75.7 302.5,-97.7 483.5,-97.7 483.5,-75.7 302.5,-75.7"/>
<polygon fill="none" stroke="#000000" points="302.5,-75.7 302.5,-97.7 483.5,-97.7 483.5,-75.7 302.5,-75.7"/>
<text text-anchor="start" x="331.5" y="-82.8" font-family="Helvetica,sans-Serif" font-size="11.00" fill="#000000">token_hash</text>
<polygon fill="none" stroke="#000000" points="302.5,-56.7 302.5,-75.7 483.5,-75.7 483.5,-56.7 302.5,-56.7"/>
<text text-anchor="start" x="305.5" y="-62.8" font-family="Helvetica,sans-Serif" font-size="11.00" fill="#000000">...</text>
<polygon fill="#ffffff" stroke="transparent" points="302.5,-37.7 302.5,-56.7 391.5,-56.7 391.5,-37.7 302.5,-37.7"/>
<polygon fill="none" stroke="#000000" points="302.5,-37.7 302.5,-56.7 391.5,-56.7 391.5,-37.7 302.5,-37.7"/>
<text text-anchor="start" x="305.5" y="-43.8" font-family="Helvetica,sans-Serif" font-size="11.00" fill="#000000">&lt; 1</text>
<polygon fill="#ffffff" stroke="transparent" points="391.5,-37.7 391.5,-56.7 437.5,-56.7 437.5,-37.7 391.5,-37.7"/>
<polygon fill="none" stroke="#000000" points="391.5,-37.7 391.5,-56.7 437.5,-56.7 437.5,-37.7 391.5,-37.7"/>
<text text-anchor="start" x="428.3862" y="-43.8" font-family="Helvetica,sans-Serif" font-size="11.00" fill="#000000"> &#160;</text>
<polygon fill="#ffffff" stroke="transparent" points="437.5,-37.7 437.5,-56.7 483.5,-56.7 483.5,-37.7 437.5,-37.7"/>
<polygon fill="none" stroke="#000000" points="437.5,-37.7 437.5,-56.7 483.5,-56.7 483.5,-37.7 437.5,-37.7"/>
<text text-anchor="start" x="474.3862" y="-43.8" font-family="Helvetica,sans-Serif" font-size="11.00" fill="#000000"> &#160;</text>
</a>
</g>
</g>
<!-- personal_access_tokens&#45;&gt;user_data -->
<g id="edge4" class="edge">
<title>personal_access_tokens:w&#45;&gt;user_data:e</title>
<path fill="none" stroke="#000000" d="M288.2372,-111.0138C232.8292,-132.1977 330.3259,-291.7 251.5,-291.7"/>
<polygon fill="#000000" stroke="#000000" points="294.6032,-109.9811 303.0765,-112.2535 298.5516,-109.3406 302.5,-108.7 302.5,-108.7 302.5,-108.7 298.5516,-109.3406 301.9235,-105.1465 294.6032,-109.9811 294.6032,-109.9811"/>
<ellipse fill="none" stroke="#000000" cx="291.4445" cy="-110.4936" rx="3.2" ry="3.2"/>
</g>
</g>
</svg>
