<?xml version="1.0" encoding="UTF-8" standalone="no"?>
<!DOCTYPE svg PUBLIC "-//W3C//DTD SVG 1.1//EN"
 "http://www.w3.org/Graphics/SVG/1.1/DTD/svg11.dtd">
<!-- Generated by graphviz version 2.40.1 (20161225.0304)
 -->
<!-- Title: oneDegreeRelationshipsDiagram Pages: 1 -->
<svg width="485pt" height="206pt"
 viewBox="0.00 0.00 485.00 206.20" xmlns="http://www.w3.org/2000/svg" xmlns:xlink="http://www.w3.org/1999/xlink">
<g id="graph0" class="graph" transform="scale(1 1) rotate(0) translate(4 202.2)">
<title>oneDegreeRelationshipsDiagram</title>
<polygon fill="#ffffff" stroke="transparent" points="-4,4 -4,-202.2 481,-202.2 481,4 -4,4"/>
<text text-anchor="middle" x="72.4936" y="-7.3" font-family="Helvetica,sans-Serif" font-size="11.00" fill="#000000">Generated by SchemaSpy</text>
<!-- branch_draft_reference -->
<g id="node1" class="node">
<title>branch_draft_reference</title>
<g id="a_node1"><a xlink:href="../../tables/branch_draft_reference.html" xlink:title="branch_draft_reference" target="_top">
<polygon fill="#ffffff" stroke="transparent" points="201,-38.2 201,-194.2 469,-194.2 469,-38.2 201,-38.2"/>
<polygon fill="#f5f5f5" stroke="transparent" points="203,-169.2 203,-192.2 467,-192.2 467,-169.2 203,-169.2"/>
<polygon fill="none" stroke="#000000" points="203,-169.2 203,-192.2 467,-192.2 467,-169.2 203,-169.2"/>
<text text-anchor="start" x="208" y="-177.8" font-family="Helvetica,sans-Serif" font-weight="bold" font-size="11.00" fill="#000000">branch_draft_reference</text>
<text text-anchor="start" x="432.0437" y="-177.3" font-family="Helvetica,sans-Serif" font-size="11.00" fill="#000000">[table]</text>
<polygon fill="none" stroke="#000000" points="203,-147.2 203,-169.2 358,-169.2 358,-147.2 203,-147.2"/>
<image xlink:href="../../images/primaryKeys.png" width="11px" height="12px" preserveAspectRatio="xMinYMin meet" x="208" y="-164.2"/>
<text text-anchor="start" x="223" y="-154.3" font-family="Helvetica,sans-Serif" font-size="11.00" fill="#000000">project_id</text>
<polygon fill="none" stroke="#000000" points="358,-147.2 358,-169.2 467,-169.2 467,-147.2 358,-147.2"/>
<text text-anchor="start" x="360.5344" y="-154.9" font-family="Helvetica,sans-Serif" font-size="11.00" fill="#000000">varchar[2147483647]</text>
<polygon fill="none" stroke="#000000" points="203,-125.2 203,-147.2 358,-147.2 358,-125.2 203,-125.2"/>
<image xlink:href="../../images/primaryKeys.png" width="11px" height="12px" preserveAspectRatio="xMinYMin meet" x="208" y="-142.2"/>
<text text-anchor="start" x="223" y="-132.3" font-family="Helvetica,sans-Serif" font-size="11.00" fill="#000000">branch_name</text>
<polygon fill="none" stroke="#000000" points="358,-125.2 358,-147.2 467,-147.2 467,-125.2 358,-125.2"/>
<text text-anchor="start" x="360.5344" y="-132.9" font-family="Helvetica,sans-Serif" font-size="11.00" fill="#000000">varchar[2147483647]</text>
<polygon fill="none" stroke="#000000" points="203,-103.2 203,-125.2 358,-125.2 358,-103.2 203,-103.2"/>
<image xlink:href="../../images/primaryKeys.png" width="11px" height="12px" preserveAspectRatio="xMinYMin meet" x="208" y="-120.2"/>
<text text-anchor="start" x="223" y="-110.3" font-family="Helvetica,sans-Serif" font-size="11.00" fill="#000000">reference_package_id</text>
<polygon fill="none" stroke="#000000" points="358,-103.2 358,-125.2 467,-125.2 467,-103.2 358,-103.2"/>
<text text-anchor="start" x="360.5344" y="-110.9" font-family="Helvetica,sans-Serif" font-size="11.00" fill="#000000">varchar[2147483647]</text>
<polygon fill="none" stroke="#000000" points="203,-81.2 203,-103.2 358,-103.2 358,-81.2 203,-81.2"/>
<image xlink:href="../../images/primaryKeys.png" width="11px" height="12px" preserveAspectRatio="xMinYMin meet" x="208" y="-98.2"/>
<text text-anchor="start" x="223" y="-88.3" font-family="Helvetica,sans-Serif" font-size="11.00" fill="#000000">reference_version</text>
<polygon fill="none" stroke="#000000" points="358,-81.2 358,-103.2 467,-103.2 467,-81.2 358,-81.2"/>
<text text-anchor="start" x="360.5344" y="-88.9" font-family="Helvetica,sans-Serif" font-size="11.00" fill="#000000">varchar[2147483647]</text>
<polygon fill="none" stroke="#000000" points="203,-59.2 203,-81.2 358,-81.2 358,-59.2 203,-59.2"/>
<text text-anchor="start" x="223" y="-66.3" font-family="Helvetica,sans-Serif" font-size="11.00" fill="#000000">status</text>
<polygon fill="none" stroke="#000000" points="358,-59.2 358,-81.2 467,-81.2 467,-59.2 358,-59.2"/>
<text text-anchor="start" x="360.5344" y="-66.9" font-family="Helvetica,sans-Serif" font-size="11.00" fill="#000000">varchar[2147483647]</text>
<polygon fill="#ffffff" stroke="transparent" points="203,-40.2 203,-59.2 285,-59.2 285,-40.2 203,-40.2"/>
<polygon fill="none" stroke="#000000" points="203,-40.2 203,-59.2 285,-59.2 285,-40.2 203,-40.2"/>
<text text-anchor="start" x="206" y="-46.3" font-family="Helvetica,sans-Serif" font-size="11.00" fill="#000000">&lt; 1</text>
<polygon fill="#ffffff" stroke="transparent" points="285,-40.2 285,-59.2 358,-59.2 358,-40.2 285,-40.2"/>
<polygon fill="none" stroke="#000000" points="285,-40.2 285,-59.2 358,-59.2 358,-40.2 285,-40.2"/>
<text text-anchor="start" x="348.8862" y="-46.3" font-family="Helvetica,sans-Serif" font-size="11.00" fill="#000000"> &#160;</text>
<polygon fill="#ffffff" stroke="transparent" points="358,-40.2 358,-59.2 467,-59.2 467,-40.2 358,-40.2"/>
<polygon fill="none" stroke="#000000" points="358,-40.2 358,-59.2 467,-59.2 467,-40.2 358,-40.2"/>
<text text-anchor="start" x="448.4053" y="-46.3" font-family="Helvetica,sans-Serif" font-size="11.00" fill="#000000">0 &gt;</text>
<polygon fill="none" stroke="#000000" stroke-width="2" points="202,-39.2 202,-193.2 468,-193.2 468,-39.2 202,-39.2"/>
</a>
</g>
</g>
<!-- project -->
<g id="node2" class="node">
<title>project</title>
<g id="a_node2"><a xlink:href="../../tables/project.html" xlink:title="project" target="_top">
<polygon fill="#ffffff" stroke="transparent" points="8,-109.7 8,-192.7 152,-192.7 152,-109.7 8,-109.7"/>
<polygon fill="#f5f5f5" stroke="transparent" points="8,-169.2 8,-192.2 152,-192.2 152,-169.2 8,-169.2"/>
<polygon fill="none" stroke="#000000" points="8,-169.2 8,-192.2 152,-192.2 152,-169.2 8,-169.2"/>
<text text-anchor="start" x="13" y="-177.8" font-family="Helvetica,sans-Serif" font-weight="bold" font-size="11.00" fill="#000000">project</text>
<text text-anchor="start" x="117.0437" y="-177.3" font-family="Helvetica,sans-Serif" font-size="11.00" fill="#000000">[table]</text>
<polygon fill="none" stroke="#000000" points="8,-147.2 8,-169.2 152,-169.2 152,-147.2 8,-147.2"/>
<image xlink:href="../../images/primaryKeys.png" width="11px" height="12px" preserveAspectRatio="xMinYMin meet" x="13" y="-164.2"/>
<text text-anchor="start" x="28" y="-154.3" font-family="Helvetica,sans-Serif" font-size="11.00" fill="#000000">id</text>
<polygon fill="none" stroke="#000000" points="8,-128.2 8,-147.2 152,-147.2 152,-128.2 8,-128.2"/>
<text text-anchor="start" x="11" y="-134.3" font-family="Helvetica,sans-Serif" font-size="11.00" fill="#000000">...</text>
<polygon fill="#ffffff" stroke="transparent" points="8,-109.2 8,-128.2 69,-128.2 69,-109.2 8,-109.2"/>
<polygon fill="none" stroke="#000000" points="8,-109.2 8,-128.2 69,-128.2 69,-109.2 8,-109.2"/>
<text text-anchor="start" x="11" y="-115.3" font-family="Helvetica,sans-Serif" font-size="11.00" fill="#000000"> &#160;</text>
<polygon fill="#ffffff" stroke="transparent" points="69,-109.2 69,-128.2 106,-128.2 106,-109.2 69,-109.2"/>
<polygon fill="none" stroke="#000000" points="69,-109.2 69,-128.2 106,-128.2 106,-109.2 69,-109.2"/>
<text text-anchor="start" x="96.8862" y="-115.3" font-family="Helvetica,sans-Serif" font-size="11.00" fill="#000000"> &#160;</text>
<polygon fill="#ffffff" stroke="transparent" points="106,-109.2 106,-128.2 152,-128.2 152,-109.2 106,-109.2"/>
<polygon fill="none" stroke="#000000" points="106,-109.2 106,-128.2 152,-128.2 152,-109.2 106,-109.2"/>
<text text-anchor="start" x="133.4053" y="-115.3" font-family="Helvetica,sans-Serif" font-size="11.00" fill="#000000">4 &gt;</text>
</a>
</g>
</g>
<!-- branch_draft_reference&#45;&gt;project -->
<g id="edge1" class="edge">
<title>branch_draft_reference:w&#45;&gt;project:e</title>
<path fill="none" stroke="#000000" d="M188.276,-158.2C176.2815,-158.2 168.8229,-158.2 152,-158.2"/>
<polygon fill="#000000" stroke="#000000" points="195,-158.2001 203,-161.8 199,-158.2 203,-158.2 203,-158.2 203,-158.2 199,-158.2 203,-154.6 195,-158.2001 195,-158.2001"/>
<ellipse fill="none" stroke="#000000" cx="191.8" cy="-158.2001" rx="3.2" ry="3.2"/>
</g>
</g>
</svg>
