<?xml version="1.0" encoding="UTF-8" standalone="no"?>
<!DOCTYPE svg PUBLIC "-//W3C//DTD SVG 1.1//EN"
 "http://www.w3.org/Graphics/SVG/1.1/DTD/svg11.dtd">
<!-- Generated by graphviz version 2.40.1 (20161225.0304)
 -->
<!-- Title: oneDegreeRelationshipsDiagram Pages: 1 -->
<svg width="481pt" height="580pt"
 viewBox="0.00 0.00 481.00 580.20" xmlns="http://www.w3.org/2000/svg" xmlns:xlink="http://www.w3.org/1999/xlink">
<g id="graph0" class="graph" transform="scale(1 1) rotate(0) translate(4 576.2)">
<title>oneDegreeRelationshipsDiagram</title>
<polygon fill="#ffffff" stroke="transparent" points="-4,4 -4,-576.2 477,-576.2 477,4 -4,4"/>
<text text-anchor="middle" x="72.4936" y="-7.3" font-family="Helvetica,sans-Serif" font-size="11.00" fill="#000000">Generated by SchemaSpy</text>
<!-- branch_draft_content -->
<g id="node1" class="node">
<title>branch_draft_content</title>
<g id="a_node1"><a xlink:href="../../tables/branch_draft_content.html" xlink:title="branch_draft_content" target="_top">
<polygon fill="#ffffff" stroke="transparent" points="201,-38.2 201,-568.2 465,-568.2 465,-38.2 201,-38.2"/>
<polygon fill="#f5f5f5" stroke="transparent" points="203,-543.2 203,-566.2 463,-566.2 463,-543.2 203,-543.2"/>
<polygon fill="none" stroke="#000000" points="203,-543.2 203,-566.2 463,-566.2 463,-543.2 203,-543.2"/>
<text text-anchor="start" x="208" y="-551.8" font-family="Helvetica,sans-Serif" font-weight="bold" font-size="11.00" fill="#000000">branch_draft_content</text>
<text text-anchor="start" x="428.0437" y="-551.3" font-family="Helvetica,sans-Serif" font-size="11.00" fill="#000000">[table]</text>
<polygon fill="none" stroke="#000000" points="203,-521.2 203,-543.2 347,-543.2 347,-521.2 203,-521.2"/>
<image xlink:href="../../images/primaryKeys.png" width="11px" height="12px" preserveAspectRatio="xMinYMin meet" x="208" y="-538.2"/>
<text text-anchor="start" x="223" y="-528.3" font-family="Helvetica,sans-Serif" font-size="11.00" fill="#000000">project_id</text>
<polygon fill="none" stroke="#000000" points="347,-521.2 347,-543.2 463,-543.2 463,-521.2 347,-521.2"/>
<text text-anchor="start" x="350" y="-528.9" font-family="Helvetica,sans-Serif" font-size="11.00" fill="#000000">varchar[2147483647]</text>
<polygon fill="none" stroke="#000000" points="203,-499.2 203,-521.2 347,-521.2 347,-499.2 203,-499.2"/>
<image xlink:href="../../images/primaryKeys.png" width="11px" height="12px" preserveAspectRatio="xMinYMin meet" x="208" y="-516.2"/>
<text text-anchor="start" x="223" y="-506.3" font-family="Helvetica,sans-Serif" font-size="11.00" fill="#000000">branch_name</text>
<polygon fill="none" stroke="#000000" points="347,-499.2 347,-521.2 463,-521.2 463,-499.2 347,-499.2"/>
<text text-anchor="start" x="350" y="-506.9" font-family="Helvetica,sans-Serif" font-size="11.00" fill="#000000">varchar[2147483647]</text>
<polygon fill="none" stroke="#000000" points="203,-477.2 203,-499.2 347,-499.2 347,-477.2 203,-477.2"/>
<text text-anchor="start" x="223" y="-484.3" font-family="Helvetica,sans-Serif" font-size="11.00" fill="#000000">index</text>
<polygon fill="none" stroke="#000000" points="347,-477.2 347,-499.2 463,-499.2 463,-477.2 347,-477.2"/>
<text text-anchor="start" x="350" y="-484.9" font-family="Helvetica,sans-Serif" font-size="11.00" fill="#000000">int4[10]</text>
<polygon fill="none" stroke="#000000" points="203,-455.2 203,-477.2 347,-477.2 347,-455.2 203,-455.2"/>
<text text-anchor="start" x="223" y="-462.3" font-family="Helvetica,sans-Serif" font-size="11.00" fill="#000000">name</text>
<polygon fill="none" stroke="#000000" points="347,-455.2 347,-477.2 463,-477.2 463,-455.2 347,-455.2"/>
<text text-anchor="start" x="350" y="-462.9" font-family="Helvetica,sans-Serif" font-size="11.00" fill="#000000">varchar[2147483647]</text>
<polygon fill="none" stroke="#000000" points="203,-433.2 203,-455.2 347,-455.2 347,-433.2 203,-433.2"/>
<image xlink:href="../../images/primaryKeys.png" width="11px" height="12px" preserveAspectRatio="xMinYMin meet" x="208" y="-450.2"/>
<text text-anchor="start" x="223" y="-440.3" font-family="Helvetica,sans-Serif" font-size="11.00" fill="#000000">file_id</text>
<polygon fill="none" stroke="#000000" points="347,-433.2 347,-455.2 463,-455.2 463,-433.2 347,-433.2"/>
<text text-anchor="start" x="350" y="-440.9" font-family="Helvetica,sans-Serif" font-size="11.00" fill="#000000">varchar[2147483647]</text>
<polygon fill="none" stroke="#000000" points="203,-411.2 203,-433.2 347,-433.2 347,-411.2 203,-411.2"/>
<text text-anchor="start" x="223" y="-418.3" font-family="Helvetica,sans-Serif" font-size="11.00" fill="#000000">path</text>
<polygon fill="none" stroke="#000000" points="347,-411.2 347,-433.2 463,-433.2 463,-411.2 347,-411.2"/>
<text text-anchor="start" x="350" y="-418.9" font-family="Helvetica,sans-Serif" font-size="11.00" fill="#000000">varchar[2147483647]</text>
<polygon fill="none" stroke="#000000" points="203,-389.2 203,-411.2 347,-411.2 347,-389.2 203,-389.2"/>
<text text-anchor="start" x="223" y="-396.3" font-family="Helvetica,sans-Serif" font-size="11.00" fill="#000000">data_type</text>
<polygon fill="none" stroke="#000000" points="347,-389.2 347,-411.2 463,-411.2 463,-389.2 347,-389.2"/>
<text text-anchor="start" x="350" y="-396.9" font-family="Helvetica,sans-Serif" font-size="11.00" fill="#000000">varchar[2147483647]</text>
<polygon fill="none" stroke="#000000" points="203,-367.2 203,-389.2 347,-389.2 347,-367.2 203,-367.2"/>
<text text-anchor="start" x="223" y="-374.3" font-family="Helvetica,sans-Serif" font-size="11.00" fill="#000000">data</text>
<polygon fill="none" stroke="#000000" points="347,-367.2 347,-389.2 463,-389.2 463,-367.2 347,-367.2"/>
<text text-anchor="start" x="350" y="-374.9" font-family="Helvetica,sans-Serif" font-size="11.00" fill="#000000">bytea[2147483647]</text>
<polygon fill="none" stroke="#000000" points="203,-345.2 203,-367.2 347,-367.2 347,-345.2 203,-345.2"/>
<text text-anchor="start" x="223" y="-352.3" font-family="Helvetica,sans-Serif" font-size="11.00" fill="#000000">media_type</text>
<polygon fill="none" stroke="#000000" points="347,-345.2 347,-367.2 463,-367.2 463,-345.2 347,-345.2"/>
<text text-anchor="start" x="350" y="-352.9" font-family="Helvetica,sans-Serif" font-size="11.00" fill="#000000">varchar[2147483647]</text>
<polygon fill="none" stroke="#000000" points="203,-323.2 203,-345.2 347,-345.2 347,-323.2 203,-323.2"/>
<text text-anchor="start" x="223" y="-330.3" font-family="Helvetica,sans-Serif" font-size="11.00" fill="#000000">status</text>
<polygon fill="none" stroke="#000000" points="347,-323.2 347,-345.2 463,-345.2 463,-323.2 347,-323.2"/>
<text text-anchor="start" x="350" y="-330.9" font-family="Helvetica,sans-Serif" font-size="11.00" fill="#000000">varchar[2147483647]</text>
<polygon fill="none" stroke="#000000" points="203,-301.2 203,-323.2 347,-323.2 347,-301.2 203,-301.2"/>
<text text-anchor="start" x="223" y="-308.3" font-family="Helvetica,sans-Serif" font-size="11.00" fill="#000000">moved_from</text>
<polygon fill="none" stroke="#000000" points="347,-301.2 347,-323.2 463,-323.2 463,-301.2 347,-301.2"/>
<text text-anchor="start" x="350" y="-308.9" font-family="Helvetica,sans-Serif" font-size="11.00" fill="#000000">varchar[2147483647]</text>
<polygon fill="none" stroke="#000000" points="203,-279.2 203,-301.2 347,-301.2 347,-279.2 203,-279.2"/>
<text text-anchor="start" x="223" y="-286.3" font-family="Helvetica,sans-Serif" font-size="11.00" fill="#000000">commit_id</text>
<polygon fill="none" stroke="#000000" points="347,-279.2 347,-301.2 463,-301.2 463,-279.2 347,-279.2"/>
<text text-anchor="start" x="350" y="-286.9" font-family="Helvetica,sans-Serif" font-size="11.00" fill="#000000">varchar[2147483647]</text>
<polygon fill="none" stroke="#000000" points="203,-257.2 203,-279.2 347,-279.2 347,-257.2 203,-257.2"/>
<text text-anchor="start" x="223" y="-264.3" font-family="Helvetica,sans-Serif" font-size="11.00" fill="#000000">publish</text>
<polygon fill="none" stroke="#000000" points="347,-257.2 347,-279.2 463,-279.2 463,-257.2 347,-257.2"/>
<text text-anchor="start" x="350" y="-264.9" font-family="Helvetica,sans-Serif" font-size="11.00" fill="#000000">bool[1]</text>
<polygon fill="none" stroke="#000000" points="203,-235.2 203,-257.2 347,-257.2 347,-235.2 203,-235.2"/>
<text text-anchor="start" x="223" y="-242.3" font-family="Helvetica,sans-Serif" font-size="11.00" fill="#000000">labels</text>
<polygon fill="none" stroke="#000000" points="347,-235.2 347,-257.2 463,-257.2 463,-235.2 347,-235.2"/>
<text text-anchor="start" x="349.9769" y="-242.9" font-family="Helvetica,sans-Serif" font-size="11.00" fill="#000000">_varchar[2147483647]</text>
<polygon fill="none" stroke="#000000" points="203,-213.2 203,-235.2 347,-235.2 347,-213.2 203,-213.2"/>
<text text-anchor="start" x="223" y="-220.3" font-family="Helvetica,sans-Serif" font-size="11.00" fill="#000000">last_status</text>
<polygon fill="none" stroke="#000000" points="347,-213.2 347,-235.2 463,-235.2 463,-213.2 347,-213.2"/>
<text text-anchor="start" x="350" y="-220.9" font-family="Helvetica,sans-Serif" font-size="11.00" fill="#000000">varchar[2147483647]</text>
<polygon fill="none" stroke="#000000" points="203,-191.2 203,-213.2 347,-213.2 347,-191.2 203,-191.2"/>
<text text-anchor="start" x="223" y="-198.3" font-family="Helvetica,sans-Serif" font-size="11.00" fill="#000000">conflicted_commit_id</text>
<polygon fill="none" stroke="#000000" points="347,-191.2 347,-213.2 463,-213.2 463,-191.2 347,-191.2"/>
<text text-anchor="start" x="350" y="-198.9" font-family="Helvetica,sans-Serif" font-size="11.00" fill="#000000">varchar[2147483647]</text>
<polygon fill="none" stroke="#000000" points="203,-169.2 203,-191.2 347,-191.2 347,-169.2 203,-169.2"/>
<text text-anchor="start" x="223" y="-176.3" font-family="Helvetica,sans-Serif" font-size="11.00" fill="#000000">conflicted_file_id</text>
<polygon fill="none" stroke="#000000" points="347,-169.2 347,-191.2 463,-191.2 463,-169.2 347,-169.2"/>
<text text-anchor="start" x="350" y="-176.9" font-family="Helvetica,sans-Serif" font-size="11.00" fill="#000000">varchar[2147483647]</text>
<polygon fill="none" stroke="#000000" points="203,-147.2 203,-169.2 347,-169.2 347,-147.2 203,-147.2"/>
<text text-anchor="start" x="223" y="-154.3" font-family="Helvetica,sans-Serif" font-size="11.00" fill="#000000">included</text>
<polygon fill="none" stroke="#000000" points="347,-147.2 347,-169.2 463,-169.2 463,-147.2 347,-147.2"/>
<text text-anchor="start" x="350" y="-154.9" font-family="Helvetica,sans-Serif" font-size="11.00" fill="#000000">bool[1]</text>
<polygon fill="none" stroke="#000000" points="203,-125.2 203,-147.2 347,-147.2 347,-125.2 203,-125.2"/>
<text text-anchor="start" x="223" y="-132.3" font-family="Helvetica,sans-Serif" font-size="11.00" fill="#000000">is_folder</text>
<polygon fill="none" stroke="#000000" points="347,-125.2 347,-147.2 463,-147.2 463,-125.2 347,-125.2"/>
<text text-anchor="start" x="350" y="-132.9" font-family="Helvetica,sans-Serif" font-size="11.00" fill="#000000">bool[1]</text>
<polygon fill="none" stroke="#000000" points="203,-103.2 203,-125.2 347,-125.2 347,-103.2 203,-103.2"/>
<text text-anchor="start" x="223" y="-110.3" font-family="Helvetica,sans-Serif" font-size="11.00" fill="#000000">from_folder</text>
<polygon fill="none" stroke="#000000" points="347,-103.2 347,-125.2 463,-125.2 463,-103.2 347,-103.2"/>
<text text-anchor="start" x="350" y="-110.9" font-family="Helvetica,sans-Serif" font-size="11.00" fill="#000000">bool[1]</text>
<polygon fill="none" stroke="#000000" points="203,-81.2 203,-103.2 347,-103.2 347,-81.2 203,-81.2"/>
<text text-anchor="start" x="223" y="-88.3" font-family="Helvetica,sans-Serif" font-size="11.00" fill="#000000">blob_id</text>
<polygon fill="none" stroke="#000000" points="347,-81.2 347,-103.2 463,-103.2 463,-81.2 347,-81.2"/>
<text text-anchor="start" x="350" y="-88.9" font-family="Helvetica,sans-Serif" font-size="11.00" fill="#000000">varchar[2147483647]</text>
<polygon fill="none" stroke="#000000" points="203,-59.2 203,-81.2 347,-81.2 347,-59.2 203,-59.2"/>
<text text-anchor="start" x="223" y="-66.3" font-family="Helvetica,sans-Serif" font-size="11.00" fill="#000000">conflicted_blob_id</text>
<polygon fill="none" stroke="#000000" points="347,-59.2 347,-81.2 463,-81.2 463,-59.2 347,-59.2"/>
<text text-anchor="start" x="350" y="-66.9" font-family="Helvetica,sans-Serif" font-size="11.00" fill="#000000">varchar[2147483647]</text>
<polygon fill="#ffffff" stroke="transparent" points="203,-40.2 203,-59.2 279,-59.2 279,-40.2 203,-40.2"/>
<polygon fill="none" stroke="#000000" points="203,-40.2 203,-59.2 279,-59.2 279,-40.2 203,-40.2"/>
<text text-anchor="start" x="206" y="-46.3" font-family="Helvetica,sans-Serif" font-size="11.00" fill="#000000">&lt; 1</text>
<polygon fill="#ffffff" stroke="transparent" points="279,-40.2 279,-59.2 347,-59.2 347,-40.2 279,-40.2"/>
<polygon fill="none" stroke="#000000" points="279,-40.2 279,-59.2 347,-59.2 347,-40.2 279,-40.2"/>
<text text-anchor="start" x="337.8862" y="-46.3" font-family="Helvetica,sans-Serif" font-size="11.00" fill="#000000"> &#160;</text>
<polygon fill="#ffffff" stroke="transparent" points="347,-40.2 347,-59.2 463,-59.2 463,-40.2 347,-40.2"/>
<polygon fill="none" stroke="#000000" points="347,-40.2 347,-59.2 463,-59.2 463,-40.2 347,-40.2"/>
<text text-anchor="start" x="444.4053" y="-46.3" font-family="Helvetica,sans-Serif" font-size="11.00" fill="#000000">0 &gt;</text>
<polygon fill="none" stroke="#000000" stroke-width="2" points="202,-39.2 202,-567.2 464,-567.2 464,-39.2 202,-39.2"/>
</a>
</g>
</g>
<!-- project -->
<g id="node2" class="node">
<title>project</title>
<g id="a_node2"><a xlink:href="../../tables/project.html" xlink:title="project" target="_top">
<polygon fill="#ffffff" stroke="transparent" points="8,-483.7 8,-566.7 152,-566.7 152,-483.7 8,-483.7"/>
<polygon fill="#f5f5f5" stroke="transparent" points="8,-543.2 8,-566.2 152,-566.2 152,-543.2 8,-543.2"/>
<polygon fill="none" stroke="#000000" points="8,-543.2 8,-566.2 152,-566.2 152,-543.2 8,-543.2"/>
<text text-anchor="start" x="13" y="-551.8" font-family="Helvetica,sans-Serif" font-weight="bold" font-size="11.00" fill="#000000">project</text>
<text text-anchor="start" x="117.0437" y="-551.3" font-family="Helvetica,sans-Serif" font-size="11.00" fill="#000000">[table]</text>
<polygon fill="none" stroke="#000000" points="8,-521.2 8,-543.2 152,-543.2 152,-521.2 8,-521.2"/>
<image xlink:href="../../images/primaryKeys.png" width="11px" height="12px" preserveAspectRatio="xMinYMin meet" x="13" y="-538.2"/>
<text text-anchor="start" x="28" y="-528.3" font-family="Helvetica,sans-Serif" font-size="11.00" fill="#000000">id</text>
<polygon fill="none" stroke="#000000" points="8,-502.2 8,-521.2 152,-521.2 152,-502.2 8,-502.2"/>
<text text-anchor="start" x="11" y="-508.3" font-family="Helvetica,sans-Serif" font-size="11.00" fill="#000000">...</text>
<polygon fill="#ffffff" stroke="transparent" points="8,-483.2 8,-502.2 69,-502.2 69,-483.2 8,-483.2"/>
<polygon fill="none" stroke="#000000" points="8,-483.2 8,-502.2 69,-502.2 69,-483.2 8,-483.2"/>
<text text-anchor="start" x="11" y="-489.3" font-family="Helvetica,sans-Serif" font-size="11.00" fill="#000000"> &#160;</text>
<polygon fill="#ffffff" stroke="transparent" points="69,-483.2 69,-502.2 106,-502.2 106,-483.2 69,-483.2"/>
<polygon fill="none" stroke="#000000" points="69,-483.2 69,-502.2 106,-502.2 106,-483.2 69,-483.2"/>
<text text-anchor="start" x="96.8862" y="-489.3" font-family="Helvetica,sans-Serif" font-size="11.00" fill="#000000"> &#160;</text>
<polygon fill="#ffffff" stroke="transparent" points="106,-483.2 106,-502.2 152,-502.2 152,-483.2 106,-483.2"/>
<polygon fill="none" stroke="#000000" points="106,-483.2 106,-502.2 152,-502.2 152,-483.2 106,-483.2"/>
<text text-anchor="start" x="133.4053" y="-489.3" font-family="Helvetica,sans-Serif" font-size="11.00" fill="#000000">4 &gt;</text>
</a>
</g>
</g>
<!-- branch_draft_content&#45;&gt;project -->
<g id="edge1" class="edge">
<title>branch_draft_content:w&#45;&gt;project:e</title>
<path fill="none" stroke="#000000" d="M188.276,-532.2C176.2815,-532.2 168.8229,-532.2 152,-532.2"/>
<polygon fill="#000000" stroke="#000000" points="195,-532.2001 203,-535.8 199,-532.2 203,-532.2 203,-532.2 203,-532.2 199,-532.2 203,-528.6 195,-532.2001 195,-532.2001"/>
<ellipse fill="none" stroke="#000000" cx="191.8" cy="-532.2001" rx="3.2" ry="3.2"/>
</g>
</g>
</svg>
