<?xml version="1.0" encoding="UTF-8" standalone="no"?>
<!DOCTYPE svg PUBLIC "-//W3C//DTD SVG 1.1//EN"
 "http://www.w3.org/Graphics/SVG/1.1/DTD/svg11.dtd">
<!-- Generated by graphviz version 2.40.1 (20161225.0304)
 -->
<!-- Title: twoDegreesRelationshipsDiagram Pages: 1 -->
<svg width="481pt" height="827pt"
 viewBox="0.00 0.00 481.00 826.70" xmlns="http://www.w3.org/2000/svg" xmlns:xlink="http://www.w3.org/1999/xlink">
<g id="graph0" class="graph" transform="scale(1 1) rotate(0) translate(4 822.7)">
<title>twoDegreesRelationshipsDiagram</title>
<polygon fill="#ffffff" stroke="transparent" points="-4,4 -4,-822.7 477,-822.7 477,4 -4,4"/>
<text text-anchor="middle" x="72.4936" y="-7.3" font-family="Helvetica,sans-Serif" font-size="11.00" fill="#000000">Generated by SchemaSpy</text>
<!-- branch_draft_content -->
<g id="node1" class="node">
<title>branch_draft_content</title>
<g id="a_node1"><a xlink:href="../../tables/branch_draft_content.html" xlink:title="branch_draft_content" target="_top">
<polygon fill="#ffffff" stroke="transparent" points="201,-284.7 201,-814.7 465,-814.7 465,-284.7 201,-284.7"/>
<polygon fill="#f5f5f5" stroke="transparent" points="203,-789.7 203,-812.7 463,-812.7 463,-789.7 203,-789.7"/>
<polygon fill="none" stroke="#000000" points="203,-789.7 203,-812.7 463,-812.7 463,-789.7 203,-789.7"/>
<text text-anchor="start" x="208" y="-798.3" font-family="Helvetica,sans-Serif" font-weight="bold" font-size="11.00" fill="#000000">branch_draft_content</text>
<text text-anchor="start" x="428.0437" y="-797.8" font-family="Helvetica,sans-Serif" font-size="11.00" fill="#000000">[table]</text>
<polygon fill="none" stroke="#000000" points="203,-767.7 203,-789.7 347,-789.7 347,-767.7 203,-767.7"/>
<image xlink:href="../../images/primaryKeys.png" width="11px" height="12px" preserveAspectRatio="xMinYMin meet" x="208" y="-784.7"/>
<text text-anchor="start" x="223" y="-774.8" font-family="Helvetica,sans-Serif" font-size="11.00" fill="#000000">project_id</text>
<polygon fill="none" stroke="#000000" points="347,-767.7 347,-789.7 463,-789.7 463,-767.7 347,-767.7"/>
<text text-anchor="start" x="350" y="-775.4" font-family="Helvetica,sans-Serif" font-size="11.00" fill="#000000">varchar[2147483647]</text>
<polygon fill="none" stroke="#000000" points="203,-745.7 203,-767.7 347,-767.7 347,-745.7 203,-745.7"/>
<image xlink:href="../../images/primaryKeys.png" width="11px" height="12px" preserveAspectRatio="xMinYMin meet" x="208" y="-762.7"/>
<text text-anchor="start" x="223" y="-752.8" font-family="Helvetica,sans-Serif" font-size="11.00" fill="#000000">branch_name</text>
<polygon fill="none" stroke="#000000" points="347,-745.7 347,-767.7 463,-767.7 463,-745.7 347,-745.7"/>
<text text-anchor="start" x="350" y="-753.4" font-family="Helvetica,sans-Serif" font-size="11.00" fill="#000000">varchar[2147483647]</text>
<polygon fill="none" stroke="#000000" points="203,-723.7 203,-745.7 347,-745.7 347,-723.7 203,-723.7"/>
<text text-anchor="start" x="223" y="-730.8" font-family="Helvetica,sans-Serif" font-size="11.00" fill="#000000">index</text>
<polygon fill="none" stroke="#000000" points="347,-723.7 347,-745.7 463,-745.7 463,-723.7 347,-723.7"/>
<text text-anchor="start" x="350" y="-731.4" font-family="Helvetica,sans-Serif" font-size="11.00" fill="#000000">int4[10]</text>
<polygon fill="none" stroke="#000000" points="203,-701.7 203,-723.7 347,-723.7 347,-701.7 203,-701.7"/>
<text text-anchor="start" x="223" y="-708.8" font-family="Helvetica,sans-Serif" font-size="11.00" fill="#000000">name</text>
<polygon fill="none" stroke="#000000" points="347,-701.7 347,-723.7 463,-723.7 463,-701.7 347,-701.7"/>
<text text-anchor="start" x="350" y="-709.4" font-family="Helvetica,sans-Serif" font-size="11.00" fill="#000000">varchar[2147483647]</text>
<polygon fill="none" stroke="#000000" points="203,-679.7 203,-701.7 347,-701.7 347,-679.7 203,-679.7"/>
<image xlink:href="../../images/primaryKeys.png" width="11px" height="12px" preserveAspectRatio="xMinYMin meet" x="208" y="-696.7"/>
<text text-anchor="start" x="223" y="-686.8" font-family="Helvetica,sans-Serif" font-size="11.00" fill="#000000">file_id</text>
<polygon fill="none" stroke="#000000" points="347,-679.7 347,-701.7 463,-701.7 463,-679.7 347,-679.7"/>
<text text-anchor="start" x="350" y="-687.4" font-family="Helvetica,sans-Serif" font-size="11.00" fill="#000000">varchar[2147483647]</text>
<polygon fill="none" stroke="#000000" points="203,-657.7 203,-679.7 347,-679.7 347,-657.7 203,-657.7"/>
<text text-anchor="start" x="223" y="-664.8" font-family="Helvetica,sans-Serif" font-size="11.00" fill="#000000">path</text>
<polygon fill="none" stroke="#000000" points="347,-657.7 347,-679.7 463,-679.7 463,-657.7 347,-657.7"/>
<text text-anchor="start" x="350" y="-665.4" font-family="Helvetica,sans-Serif" font-size="11.00" fill="#000000">varchar[2147483647]</text>
<polygon fill="none" stroke="#000000" points="203,-635.7 203,-657.7 347,-657.7 347,-635.7 203,-635.7"/>
<text text-anchor="start" x="223" y="-642.8" font-family="Helvetica,sans-Serif" font-size="11.00" fill="#000000">data_type</text>
<polygon fill="none" stroke="#000000" points="347,-635.7 347,-657.7 463,-657.7 463,-635.7 347,-635.7"/>
<text text-anchor="start" x="350" y="-643.4" font-family="Helvetica,sans-Serif" font-size="11.00" fill="#000000">varchar[2147483647]</text>
<polygon fill="none" stroke="#000000" points="203,-613.7 203,-635.7 347,-635.7 347,-613.7 203,-613.7"/>
<text text-anchor="start" x="223" y="-620.8" font-family="Helvetica,sans-Serif" font-size="11.00" fill="#000000">data</text>
<polygon fill="none" stroke="#000000" points="347,-613.7 347,-635.7 463,-635.7 463,-613.7 347,-613.7"/>
<text text-anchor="start" x="350" y="-621.4" font-family="Helvetica,sans-Serif" font-size="11.00" fill="#000000">bytea[2147483647]</text>
<polygon fill="none" stroke="#000000" points="203,-591.7 203,-613.7 347,-613.7 347,-591.7 203,-591.7"/>
<text text-anchor="start" x="223" y="-598.8" font-family="Helvetica,sans-Serif" font-size="11.00" fill="#000000">media_type</text>
<polygon fill="none" stroke="#000000" points="347,-591.7 347,-613.7 463,-613.7 463,-591.7 347,-591.7"/>
<text text-anchor="start" x="350" y="-599.4" font-family="Helvetica,sans-Serif" font-size="11.00" fill="#000000">varchar[2147483647]</text>
<polygon fill="none" stroke="#000000" points="203,-569.7 203,-591.7 347,-591.7 347,-569.7 203,-569.7"/>
<text text-anchor="start" x="223" y="-576.8" font-family="Helvetica,sans-Serif" font-size="11.00" fill="#000000">status</text>
<polygon fill="none" stroke="#000000" points="347,-569.7 347,-591.7 463,-591.7 463,-569.7 347,-569.7"/>
<text text-anchor="start" x="350" y="-577.4" font-family="Helvetica,sans-Serif" font-size="11.00" fill="#000000">varchar[2147483647]</text>
<polygon fill="none" stroke="#000000" points="203,-547.7 203,-569.7 347,-569.7 347,-547.7 203,-547.7"/>
<text text-anchor="start" x="223" y="-554.8" font-family="Helvetica,sans-Serif" font-size="11.00" fill="#000000">moved_from</text>
<polygon fill="none" stroke="#000000" points="347,-547.7 347,-569.7 463,-569.7 463,-547.7 347,-547.7"/>
<text text-anchor="start" x="350" y="-555.4" font-family="Helvetica,sans-Serif" font-size="11.00" fill="#000000">varchar[2147483647]</text>
<polygon fill="none" stroke="#000000" points="203,-525.7 203,-547.7 347,-547.7 347,-525.7 203,-525.7"/>
<text text-anchor="start" x="223" y="-532.8" font-family="Helvetica,sans-Serif" font-size="11.00" fill="#000000">commit_id</text>
<polygon fill="none" stroke="#000000" points="347,-525.7 347,-547.7 463,-547.7 463,-525.7 347,-525.7"/>
<text text-anchor="start" x="350" y="-533.4" font-family="Helvetica,sans-Serif" font-size="11.00" fill="#000000">varchar[2147483647]</text>
<polygon fill="none" stroke="#000000" points="203,-503.7 203,-525.7 347,-525.7 347,-503.7 203,-503.7"/>
<text text-anchor="start" x="223" y="-510.8" font-family="Helvetica,sans-Serif" font-size="11.00" fill="#000000">publish</text>
<polygon fill="none" stroke="#000000" points="347,-503.7 347,-525.7 463,-525.7 463,-503.7 347,-503.7"/>
<text text-anchor="start" x="350" y="-511.4" font-family="Helvetica,sans-Serif" font-size="11.00" fill="#000000">bool[1]</text>
<polygon fill="none" stroke="#000000" points="203,-481.7 203,-503.7 347,-503.7 347,-481.7 203,-481.7"/>
<text text-anchor="start" x="223" y="-488.8" font-family="Helvetica,sans-Serif" font-size="11.00" fill="#000000">labels</text>
<polygon fill="none" stroke="#000000" points="347,-481.7 347,-503.7 463,-503.7 463,-481.7 347,-481.7"/>
<text text-anchor="start" x="349.9769" y="-489.4" font-family="Helvetica,sans-Serif" font-size="11.00" fill="#000000">_varchar[2147483647]</text>
<polygon fill="none" stroke="#000000" points="203,-459.7 203,-481.7 347,-481.7 347,-459.7 203,-459.7"/>
<text text-anchor="start" x="223" y="-466.8" font-family="Helvetica,sans-Serif" font-size="11.00" fill="#000000">last_status</text>
<polygon fill="none" stroke="#000000" points="347,-459.7 347,-481.7 463,-481.7 463,-459.7 347,-459.7"/>
<text text-anchor="start" x="350" y="-467.4" font-family="Helvetica,sans-Serif" font-size="11.00" fill="#000000">varchar[2147483647]</text>
<polygon fill="none" stroke="#000000" points="203,-437.7 203,-459.7 347,-459.7 347,-437.7 203,-437.7"/>
<text text-anchor="start" x="223" y="-444.8" font-family="Helvetica,sans-Serif" font-size="11.00" fill="#000000">conflicted_commit_id</text>
<polygon fill="none" stroke="#000000" points="347,-437.7 347,-459.7 463,-459.7 463,-437.7 347,-437.7"/>
<text text-anchor="start" x="350" y="-445.4" font-family="Helvetica,sans-Serif" font-size="11.00" fill="#000000">varchar[2147483647]</text>
<polygon fill="none" stroke="#000000" points="203,-415.7 203,-437.7 347,-437.7 347,-415.7 203,-415.7"/>
<text text-anchor="start" x="223" y="-422.8" font-family="Helvetica,sans-Serif" font-size="11.00" fill="#000000">conflicted_file_id</text>
<polygon fill="none" stroke="#000000" points="347,-415.7 347,-437.7 463,-437.7 463,-415.7 347,-415.7"/>
<text text-anchor="start" x="350" y="-423.4" font-family="Helvetica,sans-Serif" font-size="11.00" fill="#000000">varchar[2147483647]</text>
<polygon fill="none" stroke="#000000" points="203,-393.7 203,-415.7 347,-415.7 347,-393.7 203,-393.7"/>
<text text-anchor="start" x="223" y="-400.8" font-family="Helvetica,sans-Serif" font-size="11.00" fill="#000000">included</text>
<polygon fill="none" stroke="#000000" points="347,-393.7 347,-415.7 463,-415.7 463,-393.7 347,-393.7"/>
<text text-anchor="start" x="350" y="-401.4" font-family="Helvetica,sans-Serif" font-size="11.00" fill="#000000">bool[1]</text>
<polygon fill="none" stroke="#000000" points="203,-371.7 203,-393.7 347,-393.7 347,-371.7 203,-371.7"/>
<text text-anchor="start" x="223" y="-378.8" font-family="Helvetica,sans-Serif" font-size="11.00" fill="#000000">is_folder</text>
<polygon fill="none" stroke="#000000" points="347,-371.7 347,-393.7 463,-393.7 463,-371.7 347,-371.7"/>
<text text-anchor="start" x="350" y="-379.4" font-family="Helvetica,sans-Serif" font-size="11.00" fill="#000000">bool[1]</text>
<polygon fill="none" stroke="#000000" points="203,-349.7 203,-371.7 347,-371.7 347,-349.7 203,-349.7"/>
<text text-anchor="start" x="223" y="-356.8" font-family="Helvetica,sans-Serif" font-size="11.00" fill="#000000">from_folder</text>
<polygon fill="none" stroke="#000000" points="347,-349.7 347,-371.7 463,-371.7 463,-349.7 347,-349.7"/>
<text text-anchor="start" x="350" y="-357.4" font-family="Helvetica,sans-Serif" font-size="11.00" fill="#000000">bool[1]</text>
<polygon fill="none" stroke="#000000" points="203,-327.7 203,-349.7 347,-349.7 347,-327.7 203,-327.7"/>
<text text-anchor="start" x="223" y="-334.8" font-family="Helvetica,sans-Serif" font-size="11.00" fill="#000000">blob_id</text>
<polygon fill="none" stroke="#000000" points="347,-327.7 347,-349.7 463,-349.7 463,-327.7 347,-327.7"/>
<text text-anchor="start" x="350" y="-335.4" font-family="Helvetica,sans-Serif" font-size="11.00" fill="#000000">varchar[2147483647]</text>
<polygon fill="none" stroke="#000000" points="203,-305.7 203,-327.7 347,-327.7 347,-305.7 203,-305.7"/>
<text text-anchor="start" x="223" y="-312.8" font-family="Helvetica,sans-Serif" font-size="11.00" fill="#000000">conflicted_blob_id</text>
<polygon fill="none" stroke="#000000" points="347,-305.7 347,-327.7 463,-327.7 463,-305.7 347,-305.7"/>
<text text-anchor="start" x="350" y="-313.4" font-family="Helvetica,sans-Serif" font-size="11.00" fill="#000000">varchar[2147483647]</text>
<polygon fill="#ffffff" stroke="transparent" points="203,-286.7 203,-305.7 279,-305.7 279,-286.7 203,-286.7"/>
<polygon fill="none" stroke="#000000" points="203,-286.7 203,-305.7 279,-305.7 279,-286.7 203,-286.7"/>
<text text-anchor="start" x="206" y="-292.8" font-family="Helvetica,sans-Serif" font-size="11.00" fill="#000000">&lt; 1</text>
<polygon fill="#ffffff" stroke="transparent" points="279,-286.7 279,-305.7 347,-305.7 347,-286.7 279,-286.7"/>
<polygon fill="none" stroke="#000000" points="279,-286.7 279,-305.7 347,-305.7 347,-286.7 279,-286.7"/>
<text text-anchor="start" x="337.8862" y="-292.8" font-family="Helvetica,sans-Serif" font-size="11.00" fill="#000000"> &#160;</text>
<polygon fill="#ffffff" stroke="transparent" points="347,-286.7 347,-305.7 463,-305.7 463,-286.7 347,-286.7"/>
<polygon fill="none" stroke="#000000" points="347,-286.7 347,-305.7 463,-305.7 463,-286.7 347,-286.7"/>
<text text-anchor="start" x="444.4053" y="-292.8" font-family="Helvetica,sans-Serif" font-size="11.00" fill="#000000">0 &gt;</text>
<polygon fill="none" stroke="#000000" stroke-width="2" points="202,-285.7 202,-813.7 464,-813.7 464,-285.7 202,-285.7"/>
</a>
</g>
</g>
<!-- project -->
<g id="node2" class="node">
<title>project</title>
<g id="a_node2"><a xlink:href="../../tables/project.html" xlink:title="project" target="_top">
<polygon fill="#ffffff" stroke="transparent" points="8,-140.2 8,-223.2 152,-223.2 152,-140.2 8,-140.2"/>
<polygon fill="#f5f5f5" stroke="transparent" points="8,-199.7 8,-222.7 152,-222.7 152,-199.7 8,-199.7"/>
<polygon fill="none" stroke="#000000" points="8,-199.7 8,-222.7 152,-222.7 152,-199.7 8,-199.7"/>
<text text-anchor="start" x="13" y="-208.3" font-family="Helvetica,sans-Serif" font-weight="bold" font-size="11.00" fill="#000000">project</text>
<text text-anchor="start" x="117.0437" y="-207.8" font-family="Helvetica,sans-Serif" font-size="11.00" fill="#000000">[table]</text>
<polygon fill="none" stroke="#000000" points="8,-177.7 8,-199.7 152,-199.7 152,-177.7 8,-177.7"/>
<image xlink:href="../../images/primaryKeys.png" width="11px" height="12px" preserveAspectRatio="xMinYMin meet" x="13" y="-194.7"/>
<text text-anchor="start" x="28" y="-184.8" font-family="Helvetica,sans-Serif" font-size="11.00" fill="#000000">id</text>
<polygon fill="none" stroke="#000000" points="8,-158.7 8,-177.7 152,-177.7 152,-158.7 8,-158.7"/>
<text text-anchor="start" x="11" y="-164.8" font-family="Helvetica,sans-Serif" font-size="11.00" fill="#000000">...</text>
<polygon fill="#ffffff" stroke="transparent" points="8,-139.7 8,-158.7 69,-158.7 69,-139.7 8,-139.7"/>
<polygon fill="none" stroke="#000000" points="8,-139.7 8,-158.7 69,-158.7 69,-139.7 8,-139.7"/>
<text text-anchor="start" x="11" y="-145.8" font-family="Helvetica,sans-Serif" font-size="11.00" fill="#000000"> &#160;</text>
<polygon fill="#ffffff" stroke="transparent" points="69,-139.7 69,-158.7 106,-158.7 106,-139.7 69,-139.7"/>
<polygon fill="none" stroke="#000000" points="69,-139.7 69,-158.7 106,-158.7 106,-139.7 69,-139.7"/>
<text text-anchor="start" x="96.8862" y="-145.8" font-family="Helvetica,sans-Serif" font-size="11.00" fill="#000000"> &#160;</text>
<polygon fill="#ffffff" stroke="transparent" points="106,-139.7 106,-158.7 152,-158.7 152,-139.7 106,-139.7"/>
<polygon fill="none" stroke="#000000" points="106,-139.7 106,-158.7 152,-158.7 152,-139.7 106,-139.7"/>
<text text-anchor="start" x="133.4053" y="-145.8" font-family="Helvetica,sans-Serif" font-size="11.00" fill="#000000">4 &gt;</text>
</a>
</g>
</g>
<!-- branch_draft_content&#45;&gt;project -->
<g id="edge1" class="edge">
<title>branch_draft_content:w&#45;&gt;project:e</title>
<path fill="none" stroke="#000000" d="M191.1899,-770.3596C147.8106,-698.6481 213.1735,-188.7 152,-188.7"/>
<polygon fill="#000000" stroke="#000000" points="196.4653,-774.0851 200.9233,-781.6406 199.7326,-776.3925 203,-778.7 203,-778.7 203,-778.7 199.7326,-776.3925 205.0767,-775.7594 196.4653,-774.0851 196.4653,-774.0851"/>
<ellipse fill="none" stroke="#000000" cx="193.8514" cy="-772.2391" rx="3.2" ry="3.2"/>
</g>
<!-- branch_draft_reference -->
<g id="node3" class="node">
<title>branch_draft_reference</title>
<g id="a_node3"><a xlink:href="../../tables/branch_draft_reference.html" xlink:title="branch_draft_reference" target="_top">
<polygon fill="#ffffff" stroke="transparent" points="246.5,-202.2 246.5,-263.2 419.5,-263.2 419.5,-202.2 246.5,-202.2"/>
<polygon fill="#f5f5f5" stroke="transparent" points="247,-239.7 247,-262.7 420,-262.7 420,-239.7 247,-239.7"/>
<polygon fill="none" stroke="#000000" points="247,-239.7 247,-262.7 420,-262.7 420,-239.7 247,-239.7"/>
<text text-anchor="start" x="252" y="-248.3" font-family="Helvetica,sans-Serif" font-weight="bold" font-size="11.00" fill="#000000">branch_draft_reference</text>
<text text-anchor="start" x="385.5219" y="-247.8" font-family="Helvetica,sans-Serif" font-size="11.00" fill="#000000">[table]</text>
<polygon fill="none" stroke="#000000" points="247,-220.7 247,-239.7 420,-239.7 420,-220.7 247,-220.7"/>
<text text-anchor="start" x="250" y="-226.8" font-family="Helvetica,sans-Serif" font-size="11.00" fill="#000000">...</text>
<polygon fill="#ffffff" stroke="transparent" points="247,-201.7 247,-220.7 332,-220.7 332,-201.7 247,-201.7"/>
<polygon fill="none" stroke="#000000" points="247,-201.7 247,-220.7 332,-220.7 332,-201.7 247,-201.7"/>
<text text-anchor="start" x="250" y="-207.8" font-family="Helvetica,sans-Serif" font-size="11.00" fill="#000000">&lt; 1</text>
<polygon fill="#ffffff" stroke="transparent" points="332,-201.7 332,-220.7 376,-220.7 376,-201.7 332,-201.7"/>
<polygon fill="none" stroke="#000000" points="332,-201.7 332,-220.7 376,-220.7 376,-201.7 332,-201.7"/>
<text text-anchor="start" x="366.8862" y="-207.8" font-family="Helvetica,sans-Serif" font-size="11.00" fill="#000000"> &#160;</text>
<polygon fill="#ffffff" stroke="transparent" points="376,-201.7 376,-220.7 420,-220.7 420,-201.7 376,-201.7"/>
<polygon fill="none" stroke="#000000" points="376,-201.7 376,-220.7 420,-220.7 420,-201.7 376,-201.7"/>
<text text-anchor="start" x="410.8862" y="-207.8" font-family="Helvetica,sans-Serif" font-size="11.00" fill="#000000"> &#160;</text>
</a>
</g>
</g>
<!-- branch_draft_reference&#45;&gt;project -->
<g id="edge2" class="edge">
<title>branch_draft_reference:w&#45;&gt;project:e</title>
<path fill="none" stroke="#000000" d="M232.4645,-228.1428C199.714,-220.6537 192.5975,-188.7 152,-188.7"/>
<polygon fill="#000000" stroke="#000000" points="239.0455,-228.8478 246.6165,-233.2795 243.0228,-229.2739 247,-229.7 247,-229.7 247,-229.7 243.0228,-229.2739 247.3835,-226.1205 239.0455,-228.8478 239.0455,-228.8478"/>
<ellipse fill="none" stroke="#000000" cx="235.8637" cy="-228.5069" rx="3.2" ry="3.2"/>
</g>
<!-- drafted_branches -->
<g id="node4" class="node">
<title>drafted_branches</title>
<g id="a_node4"><a xlink:href="../../tables/drafted_branches.html" xlink:title="drafted_branches" target="_top">
<polygon fill="#ffffff" stroke="transparent" points="263.5,-120.2 263.5,-181.2 402.5,-181.2 402.5,-120.2 263.5,-120.2"/>
<polygon fill="#f5f5f5" stroke="transparent" points="264,-157.7 264,-180.7 403,-180.7 403,-157.7 264,-157.7"/>
<polygon fill="none" stroke="#000000" points="264,-157.7 264,-180.7 403,-180.7 403,-157.7 264,-157.7"/>
<text text-anchor="start" x="269" y="-166.3" font-family="Helvetica,sans-Serif" font-weight="bold" font-size="11.00" fill="#000000">drafted_branches</text>
<text text-anchor="start" x="368.5219" y="-165.8" font-family="Helvetica,sans-Serif" font-size="11.00" fill="#000000">[table]</text>
<polygon fill="none" stroke="#000000" points="264,-138.7 264,-157.7 403,-157.7 403,-138.7 264,-138.7"/>
<text text-anchor="start" x="267" y="-144.8" font-family="Helvetica,sans-Serif" font-size="11.00" fill="#000000">...</text>
<polygon fill="#ffffff" stroke="transparent" points="264,-119.7 264,-138.7 332,-138.7 332,-119.7 264,-119.7"/>
<polygon fill="none" stroke="#000000" points="264,-119.7 264,-138.7 332,-138.7 332,-119.7 264,-119.7"/>
<text text-anchor="start" x="267" y="-125.8" font-family="Helvetica,sans-Serif" font-size="11.00" fill="#000000">&lt; 1</text>
<polygon fill="#ffffff" stroke="transparent" points="332,-119.7 332,-138.7 367,-138.7 367,-119.7 332,-119.7"/>
<polygon fill="none" stroke="#000000" points="332,-119.7 332,-138.7 367,-138.7 367,-119.7 332,-119.7"/>
<text text-anchor="start" x="357.8862" y="-125.8" font-family="Helvetica,sans-Serif" font-size="11.00" fill="#000000"> &#160;</text>
<polygon fill="#ffffff" stroke="transparent" points="367,-119.7 367,-138.7 403,-138.7 403,-119.7 367,-119.7"/>
<polygon fill="none" stroke="#000000" points="367,-119.7 367,-138.7 403,-138.7 403,-119.7 367,-119.7"/>
<text text-anchor="start" x="393.8862" y="-125.8" font-family="Helvetica,sans-Serif" font-size="11.00" fill="#000000"> &#160;</text>
</a>
</g>
</g>
<!-- drafted_branches&#45;&gt;project -->
<g id="edge3" class="edge">
<title>drafted_branches:w&#45;&gt;project:e</title>
<path fill="none" stroke="#000000" d="M249.4664,-148.8394C209.3331,-155.4612 199.7281,-188.7 152,-188.7"/>
<polygon fill="#000000" stroke="#000000" points="256.0245,-148.3253 264.2814,-151.289 260.0122,-148.0126 264,-147.7 264,-147.7 264,-147.7 260.0122,-148.0126 263.7186,-144.111 256.0245,-148.3253 256.0245,-148.3253"/>
<ellipse fill="none" stroke="#000000" cx="252.8343" cy="-148.5754" rx="3.2" ry="3.2"/>
</g>
<!-- favorite_projects -->
<g id="node5" class="node">
<title>favorite_projects</title>
<g id="a_node5"><a xlink:href="../../tables/favorite_projects.html" xlink:title="favorite_projects" target="_top">
<polygon fill="#ffffff" stroke="transparent" points="265.5,-38.2 265.5,-99.2 400.5,-99.2 400.5,-38.2 265.5,-38.2"/>
<polygon fill="#f5f5f5" stroke="transparent" points="266,-75.7 266,-98.7 401,-98.7 401,-75.7 266,-75.7"/>
<polygon fill="none" stroke="#000000" points="266,-75.7 266,-98.7 401,-98.7 401,-75.7 266,-75.7"/>
<text text-anchor="start" x="271" y="-84.3" font-family="Helvetica,sans-Serif" font-weight="bold" font-size="11.00" fill="#000000">favorite_projects</text>
<text text-anchor="start" x="366.5219" y="-83.8" font-family="Helvetica,sans-Serif" font-size="11.00" fill="#000000">[table]</text>
<polygon fill="none" stroke="#000000" points="266,-56.7 266,-75.7 401,-75.7 401,-56.7 266,-56.7"/>
<text text-anchor="start" x="269" y="-62.8" font-family="Helvetica,sans-Serif" font-size="11.00" fill="#000000">...</text>
<polygon fill="#ffffff" stroke="transparent" points="266,-37.7 266,-56.7 332,-56.7 332,-37.7 266,-37.7"/>
<polygon fill="none" stroke="#000000" points="266,-37.7 266,-56.7 332,-56.7 332,-37.7 266,-37.7"/>
<text text-anchor="start" x="269" y="-43.8" font-family="Helvetica,sans-Serif" font-size="11.00" fill="#000000">&lt; 2</text>
<polygon fill="#ffffff" stroke="transparent" points="332,-37.7 332,-56.7 366,-56.7 366,-37.7 332,-37.7"/>
<polygon fill="none" stroke="#000000" points="332,-37.7 332,-56.7 366,-56.7 366,-37.7 332,-37.7"/>
<text text-anchor="start" x="356.8862" y="-43.8" font-family="Helvetica,sans-Serif" font-size="11.00" fill="#000000"> &#160;</text>
<polygon fill="#ffffff" stroke="transparent" points="366,-37.7 366,-56.7 401,-56.7 401,-37.7 366,-37.7"/>
<polygon fill="none" stroke="#000000" points="366,-37.7 366,-56.7 401,-56.7 401,-37.7 366,-37.7"/>
<text text-anchor="start" x="391.8862" y="-43.8" font-family="Helvetica,sans-Serif" font-size="11.00" fill="#000000"> &#160;</text>
</a>
</g>
</g>
<!-- favorite_projects&#45;&gt;project -->
<g id="edge4" class="edge">
<title>favorite_projects:w&#45;&gt;project:e</title>
<path fill="none" stroke="#000000" d="M251.5939,-66.6571C225.2002,-70.5276 215.275,-85.9586 193,-109.7 165.9333,-138.5485 191.5581,-188.7 152,-188.7"/>
<polygon fill="#000000" stroke="#000000" points="258.0176,-66.2304 266.2387,-69.2921 262.0088,-65.9652 266,-65.7 266,-65.7 266,-65.7 262.0088,-65.9652 265.7613,-62.1079 258.0176,-66.2304 258.0176,-66.2304"/>
<ellipse fill="none" stroke="#000000" cx="254.8246" cy="-66.4426" rx="3.2" ry="3.2"/>
</g>
</g>
</svg>
