<?xml version="1.0" encoding="UTF-8" standalone="no"?>
<!DOCTYPE svg PUBLIC "-//W3C//DTD SVG 1.1//EN"
 "http://www.w3.org/Graphics/SVG/1.1/DTD/svg11.dtd">
<!-- Generated by graphviz version 2.40.1 (20161225.0304)
 -->
<!-- Title: twoDegreesRelationshipsDiagram Pages: 1 -->
<svg width="533pt" height="409pt"
 viewBox="0.00 0.00 533.00 409.20" xmlns="http://www.w3.org/2000/svg" xmlns:xlink="http://www.w3.org/1999/xlink">
<g id="graph0" class="graph" transform="scale(1 1) rotate(0) translate(4 405.2)">
<title>twoDegreesRelationshipsDiagram</title>
<polygon fill="#ffffff" stroke="transparent" points="-4,4 -4,-405.2 529,-405.2 529,4 -4,4"/>
<text text-anchor="middle" x="72.4936" y="-7.3" font-family="Helvetica,sans-Serif" font-size="11.00" fill="#000000">Generated by SchemaSpy</text>
<!-- build -->
<g id="node1" class="node">
<title>build</title>
<g id="a_node1"><a xlink:href="../../tables/build.html" xlink:title="build" target="_top">
<polygon fill="#ffffff" stroke="transparent" points="184,-189.2 184,-316.2 281,-316.2 281,-189.2 184,-189.2"/>
<polygon fill="#f5f5f5" stroke="transparent" points="184.5,-292.7 184.5,-315.7 281.5,-315.7 281.5,-292.7 184.5,-292.7"/>
<polygon fill="none" stroke="#000000" points="184.5,-292.7 184.5,-315.7 281.5,-315.7 281.5,-292.7 184.5,-292.7"/>
<text text-anchor="start" x="189.5" y="-301.3" font-family="Helvetica,sans-Serif" font-weight="bold" font-size="11.00" fill="#000000">build</text>
<text text-anchor="start" x="246.5437" y="-300.8" font-family="Helvetica,sans-Serif" font-size="11.00" fill="#000000">[table]</text>
<polygon fill="none" stroke="#000000" points="184.5,-270.7 184.5,-292.7 281.5,-292.7 281.5,-270.7 184.5,-270.7"/>
<image xlink:href="../../images/primaryKeys.png" width="11px" height="12px" preserveAspectRatio="xMinYMin meet" x="189.5" y="-287.7"/>
<text text-anchor="start" x="204.5" y="-277.8" font-family="Helvetica,sans-Serif" font-size="11.00" fill="#000000">build_id</text>
<polygon fill="#ffffff" stroke="transparent" points="184.5,-248.7 184.5,-270.7 281.5,-270.7 281.5,-248.7 184.5,-248.7"/>
<polygon fill="none" stroke="#000000" points="184.5,-248.7 184.5,-270.7 281.5,-270.7 281.5,-248.7 184.5,-248.7"/>
<text text-anchor="start" x="204.5" y="-255.8" font-family="Helvetica,sans-Serif" font-size="11.00" fill="#000000">status</text>
<polygon fill="none" stroke="#000000" points="184.5,-226.7 184.5,-248.7 281.5,-248.7 281.5,-226.7 184.5,-226.7"/>
<image xlink:href="../../images/foreignKeys.png" width="11px" height="12px" preserveAspectRatio="xMinYMin meet" x="189.5" y="-243.7"/>
<text text-anchor="start" x="204.5" y="-233.8" font-family="Helvetica,sans-Serif" font-size="11.00" fill="#000000">package_id</text>
<polygon fill="none" stroke="#000000" points="184.5,-207.7 184.5,-226.7 281.5,-226.7 281.5,-207.7 184.5,-207.7"/>
<text text-anchor="start" x="187.5" y="-213.8" font-family="Helvetica,sans-Serif" font-size="11.00" fill="#000000">...</text>
<polygon fill="#ffffff" stroke="transparent" points="184.5,-188.7 184.5,-207.7 226.5,-207.7 226.5,-188.7 184.5,-188.7"/>
<polygon fill="none" stroke="#000000" points="184.5,-188.7 184.5,-207.7 226.5,-207.7 226.5,-188.7 184.5,-188.7"/>
<text text-anchor="start" x="187.5" y="-194.8" font-family="Helvetica,sans-Serif" font-size="11.00" fill="#000000">&lt; 1</text>
<polygon fill="#ffffff" stroke="transparent" points="226.5,-188.7 226.5,-207.7 249.5,-207.7 249.5,-188.7 226.5,-188.7"/>
<polygon fill="none" stroke="#000000" points="226.5,-188.7 226.5,-207.7 249.5,-207.7 249.5,-188.7 226.5,-188.7"/>
<text text-anchor="start" x="240.3862" y="-194.8" font-family="Helvetica,sans-Serif" font-size="11.00" fill="#000000"> &#160;</text>
<polygon fill="#ffffff" stroke="transparent" points="249.5,-188.7 249.5,-207.7 281.5,-207.7 281.5,-188.7 249.5,-188.7"/>
<polygon fill="none" stroke="#000000" points="249.5,-188.7 249.5,-207.7 281.5,-207.7 281.5,-188.7 249.5,-188.7"/>
<text text-anchor="start" x="262.9053" y="-194.8" font-family="Helvetica,sans-Serif" font-size="11.00" fill="#000000">5 &gt;</text>
</a>
</g>
</g>
<!-- package_group -->
<g id="node2" class="node">
<title>package_group</title>
<g id="a_node2"><a xlink:href="../../tables/package_group.html" xlink:title="package_group" target="_top">
<polygon fill="#ffffff" stroke="transparent" points="8,-210.2 8,-271.2 135,-271.2 135,-210.2 8,-210.2"/>
<polygon fill="#f5f5f5" stroke="transparent" points="8.5,-247.7 8.5,-270.7 135.5,-270.7 135.5,-247.7 8.5,-247.7"/>
<polygon fill="none" stroke="#000000" points="8.5,-247.7 8.5,-270.7 135.5,-270.7 135.5,-247.7 8.5,-247.7"/>
<text text-anchor="start" x="13.5" y="-256.3" font-family="Helvetica,sans-Serif" font-weight="bold" font-size="11.00" fill="#000000">package_group</text>
<text text-anchor="start" x="101.0219" y="-255.8" font-family="Helvetica,sans-Serif" font-size="11.00" fill="#000000">[table]</text>
<polygon fill="none" stroke="#000000" points="8.5,-228.7 8.5,-247.7 135.5,-247.7 135.5,-228.7 8.5,-228.7"/>
<text text-anchor="start" x="11.5" y="-234.8" font-family="Helvetica,sans-Serif" font-size="11.00" fill="#000000">...</text>
<polygon fill="#ffffff" stroke="transparent" points="8.5,-209.7 8.5,-228.7 62.5,-228.7 62.5,-209.7 8.5,-209.7"/>
<polygon fill="none" stroke="#000000" points="8.5,-209.7 8.5,-228.7 62.5,-228.7 62.5,-209.7 8.5,-209.7"/>
<text text-anchor="start" x="11.5" y="-215.8" font-family="Helvetica,sans-Serif" font-size="11.00" fill="#000000">&lt; 1</text>
<polygon fill="#ffffff" stroke="transparent" points="62.5,-209.7 62.5,-228.7 91.5,-228.7 91.5,-209.7 62.5,-209.7"/>
<polygon fill="none" stroke="#000000" points="62.5,-209.7 62.5,-228.7 91.5,-228.7 91.5,-209.7 62.5,-209.7"/>
<text text-anchor="start" x="82.3862" y="-215.8" font-family="Helvetica,sans-Serif" font-size="11.00" fill="#000000"> &#160;</text>
<polygon fill="#ffffff" stroke="transparent" points="91.5,-209.7 91.5,-228.7 135.5,-228.7 135.5,-209.7 91.5,-209.7"/>
<polygon fill="none" stroke="#000000" points="91.5,-209.7 91.5,-228.7 135.5,-228.7 135.5,-209.7 91.5,-209.7"/>
<text text-anchor="start" x="110.7904" y="-215.8" font-family="Helvetica,sans-Serif" font-size="11.00" fill="#000000">14 &gt;</text>
</a>
</g>
</g>
<!-- build&#45;&gt;package_group -->
<g id="edge1" class="edge">
<title>build:w&#45;&gt;package_group:e</title>
<path fill="none" stroke="#000000" d="M169.9909,-237.7C158.6774,-237.7 151.4931,-237.7 135.5,-237.7"/>
<polygon fill="#000000" stroke="#000000" points="176.5,-237.7001 184.5,-241.3 180.5,-237.7 184.5,-237.7 184.5,-237.7 184.5,-237.7 180.5,-237.7 184.5,-234.1 176.5,-237.7001 176.5,-237.7001"/>
<ellipse fill="none" stroke="#000000" cx="173.3" cy="-237.7001" rx="3.2" ry="3.2"/>
</g>
<!-- build_depends -->
<g id="node3" class="node">
<title>build_depends</title>
<g id="a_node3"><a xlink:href="../../tables/build_depends.html" xlink:title="build_depends" target="_top">
<polygon fill="#ffffff" stroke="transparent" points="362,-336.2 362,-397.2 485,-397.2 485,-336.2 362,-336.2"/>
<polygon fill="#f5f5f5" stroke="transparent" points="362.5,-373.7 362.5,-396.7 485.5,-396.7 485.5,-373.7 362.5,-373.7"/>
<polygon fill="none" stroke="#000000" points="362.5,-373.7 362.5,-396.7 485.5,-396.7 485.5,-373.7 362.5,-373.7"/>
<text text-anchor="start" x="367.5" y="-382.3" font-family="Helvetica,sans-Serif" font-weight="bold" font-size="11.00" fill="#000000">build_depends</text>
<text text-anchor="start" x="451.0219" y="-381.8" font-family="Helvetica,sans-Serif" font-size="11.00" fill="#000000">[table]</text>
<polygon fill="none" stroke="#000000" points="362.5,-354.7 362.5,-373.7 485.5,-373.7 485.5,-354.7 362.5,-354.7"/>
<text text-anchor="start" x="365.5" y="-360.8" font-family="Helvetica,sans-Serif" font-size="11.00" fill="#000000">...</text>
<polygon fill="#ffffff" stroke="transparent" points="362.5,-335.7 362.5,-354.7 422.5,-354.7 422.5,-335.7 362.5,-335.7"/>
<polygon fill="none" stroke="#000000" points="362.5,-335.7 362.5,-354.7 422.5,-354.7 422.5,-335.7 362.5,-335.7"/>
<text text-anchor="start" x="365.5" y="-341.8" font-family="Helvetica,sans-Serif" font-size="11.00" fill="#000000">&lt; 2</text>
<polygon fill="#ffffff" stroke="transparent" points="422.5,-335.7 422.5,-354.7 453.5,-354.7 453.5,-335.7 422.5,-335.7"/>
<polygon fill="none" stroke="#000000" points="422.5,-335.7 422.5,-354.7 453.5,-354.7 453.5,-335.7 422.5,-335.7"/>
<text text-anchor="start" x="444.3862" y="-341.8" font-family="Helvetica,sans-Serif" font-size="11.00" fill="#000000"> &#160;</text>
<polygon fill="#ffffff" stroke="transparent" points="453.5,-335.7 453.5,-354.7 485.5,-354.7 485.5,-335.7 453.5,-335.7"/>
<polygon fill="none" stroke="#000000" points="453.5,-335.7 453.5,-354.7 485.5,-354.7 485.5,-335.7 453.5,-335.7"/>
<text text-anchor="start" x="476.3862" y="-341.8" font-family="Helvetica,sans-Serif" font-size="11.00" fill="#000000"> &#160;</text>
</a>
</g>
</g>
<!-- build_depends&#45;&gt;build -->
<g id="edge2" class="edge">
<title>build_depends:w&#45;&gt;build:e</title>
<path fill="none" stroke="#000000" d="M349.2383,-357.5969C337.5494,-348.5777 335.4343,-333.2634 322,-319.7 303.2962,-300.8165 308.0786,-275.7 281.5,-281.7"/>
<polygon fill="#000000" stroke="#000000" points="355.2326,-360.3555 360.995,-366.9703 358.8663,-362.0277 362.5,-363.7 362.5,-363.7 362.5,-363.7 358.8663,-362.0277 364.005,-360.4297 355.2326,-360.3555 355.2326,-360.3555"/>
<ellipse fill="none" stroke="#000000" cx="352.3257" cy="-359.0177" rx="3.2" ry="3.2"/>
</g>
<!-- build_depends&#45;&gt;build -->
<g id="edge3" class="edge">
<title>build_depends:w&#45;&gt;build:e</title>
<path fill="none" stroke="#000000" d="M347.867,-364.1586C337.3601,-360.3431 334.8915,-345.7154 322,-332.7 303.2962,-313.8165 308.0786,-288.7 281.5,-281.7"/>
<polygon fill="#000000" stroke="#000000" points="354.5039,-363.9506 362.6128,-367.2982 358.502,-363.8253 362.5,-363.7 362.5,-363.7 362.5,-363.7 358.502,-363.8253 362.3872,-360.1018 354.5039,-363.9506 354.5039,-363.9506"/>
<ellipse fill="none" stroke="#000000" cx="351.3055" cy="-364.0509" rx="3.2" ry="3.2"/>
</g>
<!-- build_result -->
<g id="node4" class="node">
<title>build_result</title>
<g id="a_node4"><a xlink:href="../../tables/build_result.html" xlink:title="build_result" target="_top">
<polygon fill="#ffffff" stroke="transparent" points="370,-254.2 370,-315.2 477,-315.2 477,-254.2 370,-254.2"/>
<polygon fill="#f5f5f5" stroke="transparent" points="370.5,-291.7 370.5,-314.7 477.5,-314.7 477.5,-291.7 370.5,-291.7"/>
<polygon fill="none" stroke="#000000" points="370.5,-291.7 370.5,-314.7 477.5,-314.7 477.5,-291.7 370.5,-291.7"/>
<text text-anchor="start" x="375.5" y="-300.3" font-family="Helvetica,sans-Serif" font-weight="bold" font-size="11.00" fill="#000000">build_result</text>
<text text-anchor="start" x="443.0219" y="-299.8" font-family="Helvetica,sans-Serif" font-size="11.00" fill="#000000">[table]</text>
<polygon fill="none" stroke="#000000" points="370.5,-272.7 370.5,-291.7 477.5,-291.7 477.5,-272.7 370.5,-272.7"/>
<text text-anchor="start" x="373.5" y="-278.8" font-family="Helvetica,sans-Serif" font-size="11.00" fill="#000000">...</text>
<polygon fill="#ffffff" stroke="transparent" points="370.5,-253.7 370.5,-272.7 422.5,-272.7 422.5,-253.7 370.5,-253.7"/>
<polygon fill="none" stroke="#000000" points="370.5,-253.7 370.5,-272.7 422.5,-272.7 422.5,-253.7 370.5,-253.7"/>
<text text-anchor="start" x="373.5" y="-259.8" font-family="Helvetica,sans-Serif" font-size="11.00" fill="#000000">&lt; 1</text>
<polygon fill="#ffffff" stroke="transparent" points="422.5,-253.7 422.5,-272.7 449.5,-272.7 449.5,-253.7 422.5,-253.7"/>
<polygon fill="none" stroke="#000000" points="422.5,-253.7 422.5,-272.7 449.5,-272.7 449.5,-253.7 422.5,-253.7"/>
<text text-anchor="start" x="440.3862" y="-259.8" font-family="Helvetica,sans-Serif" font-size="11.00" fill="#000000"> &#160;</text>
<polygon fill="#ffffff" stroke="transparent" points="449.5,-253.7 449.5,-272.7 477.5,-272.7 477.5,-253.7 449.5,-253.7"/>
<polygon fill="none" stroke="#000000" points="449.5,-253.7 449.5,-272.7 477.5,-272.7 477.5,-253.7 449.5,-253.7"/>
<text text-anchor="start" x="468.3862" y="-259.8" font-family="Helvetica,sans-Serif" font-size="11.00" fill="#000000"> &#160;</text>
</a>
</g>
</g>
<!-- build_result&#45;&gt;build -->
<g id="edge4" class="edge">
<title>build_result:w&#45;&gt;build:e</title>
<path fill="none" stroke="#000000" d="M355.788,-281.7C327.6859,-281.7 315.6476,-281.7 281.5,-281.7"/>
<polygon fill="#000000" stroke="#000000" points="362.5,-281.7001 370.5,-285.3 366.5,-281.7 370.5,-281.7 370.5,-281.7 370.5,-281.7 366.5,-281.7 370.5,-278.1 362.5,-281.7001 362.5,-281.7001"/>
<ellipse fill="none" stroke="#000000" cx="359.3" cy="-281.7001" rx="3.2" ry="3.2"/>
</g>
<!-- build_src -->
<g id="node5" class="node">
<title>build_src</title>
<g id="a_node5"><a xlink:href="../../tables/build_src.html" xlink:title="build_src" target="_top">
<polygon fill="#ffffff" stroke="transparent" points="330,-120.7 330,-232.7 517,-232.7 517,-120.7 330,-120.7"/>
<polygon fill="#f5f5f5" stroke="transparent" points="332.5,-207.7 332.5,-230.7 515.5,-230.7 515.5,-207.7 332.5,-207.7"/>
<polygon fill="none" stroke="#000000" points="332.5,-207.7 332.5,-230.7 515.5,-230.7 515.5,-207.7 332.5,-207.7"/>
<text text-anchor="start" x="337.5" y="-216.3" font-family="Helvetica,sans-Serif" font-weight="bold" font-size="11.00" fill="#000000">build_src</text>
<text text-anchor="start" x="480.5437" y="-215.8" font-family="Helvetica,sans-Serif" font-size="11.00" fill="#000000">[table]</text>
<polygon fill="none" stroke="#000000" points="332.5,-185.7 332.5,-207.7 406.5,-207.7 406.5,-185.7 332.5,-185.7"/>
<image xlink:href="../../images/foreignKeys.png" width="11px" height="12px" preserveAspectRatio="xMinYMin meet" x="337.5" y="-202.7"/>
<text text-anchor="start" x="352.5" y="-192.8" font-family="Helvetica,sans-Serif" font-size="11.00" fill="#000000">build_id</text>
<polygon fill="none" stroke="#000000" points="406.5,-185.7 406.5,-207.7 515.5,-207.7 515.5,-185.7 406.5,-185.7"/>
<text text-anchor="start" x="409.0344" y="-193.4" font-family="Helvetica,sans-Serif" font-size="11.00" fill="#000000">varchar[2147483647]</text>
<polygon fill="none" stroke="#000000" points="332.5,-163.7 332.5,-185.7 406.5,-185.7 406.5,-163.7 332.5,-163.7"/>
<text text-anchor="start" x="352.5" y="-170.8" font-family="Helvetica,sans-Serif" font-size="11.00" fill="#000000">source</text>
<polygon fill="none" stroke="#000000" points="406.5,-163.7 406.5,-185.7 515.5,-185.7 515.5,-163.7 406.5,-163.7"/>
<text text-anchor="start" x="409.5" y="-171.4" font-family="Helvetica,sans-Serif" font-size="11.00" fill="#000000">bytea[2147483647]</text>
<polygon fill="none" stroke="#000000" points="332.5,-141.7 332.5,-163.7 406.5,-163.7 406.5,-141.7 332.5,-141.7"/>
<text text-anchor="start" x="352.5" y="-148.8" font-family="Helvetica,sans-Serif" font-size="11.00" fill="#000000">config</text>
<polygon fill="none" stroke="#000000" points="406.5,-141.7 406.5,-163.7 515.5,-163.7 515.5,-141.7 406.5,-141.7"/>
<text text-anchor="start" x="409.5" y="-149.4" font-family="Helvetica,sans-Serif" font-size="11.00" fill="#000000">jsonb[2147483647]</text>
<polygon fill="#ffffff" stroke="transparent" points="332.5,-122.7 332.5,-141.7 373.5,-141.7 373.5,-122.7 332.5,-122.7"/>
<polygon fill="none" stroke="#000000" points="332.5,-122.7 332.5,-141.7 373.5,-141.7 373.5,-122.7 332.5,-122.7"/>
<text text-anchor="start" x="335.5" y="-128.8" font-family="Helvetica,sans-Serif" font-size="11.00" fill="#000000">&lt; 1</text>
<polygon fill="#ffffff" stroke="transparent" points="373.5,-122.7 373.5,-141.7 406.5,-141.7 406.5,-122.7 373.5,-122.7"/>
<polygon fill="none" stroke="#000000" points="373.5,-122.7 373.5,-141.7 406.5,-141.7 406.5,-122.7 373.5,-122.7"/>
<text text-anchor="start" x="397.3862" y="-128.8" font-family="Helvetica,sans-Serif" font-size="11.00" fill="#000000"> &#160;</text>
<polygon fill="#ffffff" stroke="transparent" points="406.5,-122.7 406.5,-141.7 515.5,-141.7 515.5,-122.7 406.5,-122.7"/>
<polygon fill="none" stroke="#000000" points="406.5,-122.7 406.5,-141.7 515.5,-141.7 515.5,-122.7 406.5,-122.7"/>
<text text-anchor="start" x="496.9053" y="-128.8" font-family="Helvetica,sans-Serif" font-size="11.00" fill="#000000">0 &gt;</text>
<polygon fill="none" stroke="#000000" stroke-width="2" points="331,-121.7 331,-231.7 516,-231.7 516,-121.7 331,-121.7"/>
</a>
</g>
</g>
<!-- build_src&#45;&gt;build -->
<g id="edge5" class="edge">
<title>build_src:w&#45;&gt;build:e</title>
<path fill="none" stroke="#000000" d="M318.5669,-201.032C297.0746,-218.3534 319.5328,-281.7 281.5,-281.7"/>
<polygon fill="#000000" stroke="#000000" points="324.8607,-199.0752 333.5688,-200.1377 328.6804,-197.8876 332.5,-196.7 332.5,-196.7 332.5,-196.7 328.6804,-197.8876 331.4312,-193.2623 324.8607,-199.0752 324.8607,-199.0752"/>
<ellipse fill="none" stroke="#000000" cx="321.805" cy="-200.0253" rx="3.2" ry="3.2"/>
</g>
<!-- builder_notifications -->
<g id="node6" class="node">
<title>builder_notifications</title>
<g id="a_node6"><a xlink:href="../../tables/builder_notifications.html" xlink:title="builder_notifications" target="_top">
<polygon fill="#ffffff" stroke="transparent" points="345,-38.2 345,-99.2 502,-99.2 502,-38.2 345,-38.2"/>
<polygon fill="#f5f5f5" stroke="transparent" points="345.5,-75.7 345.5,-98.7 502.5,-98.7 502.5,-75.7 345.5,-75.7"/>
<polygon fill="none" stroke="#000000" points="345.5,-75.7 345.5,-98.7 502.5,-98.7 502.5,-75.7 345.5,-75.7"/>
<text text-anchor="start" x="350.5" y="-84.3" font-family="Helvetica,sans-Serif" font-weight="bold" font-size="11.00" fill="#000000">builder_notifications</text>
<text text-anchor="start" x="468.0219" y="-83.8" font-family="Helvetica,sans-Serif" font-size="11.00" fill="#000000">[table]</text>
<polygon fill="none" stroke="#000000" points="345.5,-56.7 345.5,-75.7 502.5,-75.7 502.5,-56.7 345.5,-56.7"/>
<text text-anchor="start" x="348.5" y="-62.8" font-family="Helvetica,sans-Serif" font-size="11.00" fill="#000000">...</text>
<polygon fill="#ffffff" stroke="transparent" points="345.5,-37.7 345.5,-56.7 422.5,-56.7 422.5,-37.7 345.5,-37.7"/>
<polygon fill="none" stroke="#000000" points="345.5,-37.7 345.5,-56.7 422.5,-56.7 422.5,-37.7 345.5,-37.7"/>
<text text-anchor="start" x="348.5" y="-43.8" font-family="Helvetica,sans-Serif" font-size="11.00" fill="#000000">&lt; 1</text>
<polygon fill="#ffffff" stroke="transparent" points="422.5,-37.7 422.5,-56.7 462.5,-56.7 462.5,-37.7 422.5,-37.7"/>
<polygon fill="none" stroke="#000000" points="422.5,-37.7 422.5,-56.7 462.5,-56.7 462.5,-37.7 422.5,-37.7"/>
<text text-anchor="start" x="453.3862" y="-43.8" font-family="Helvetica,sans-Serif" font-size="11.00" fill="#000000"> &#160;</text>
<polygon fill="#ffffff" stroke="transparent" points="462.5,-37.7 462.5,-56.7 502.5,-56.7 502.5,-37.7 462.5,-37.7"/>
<polygon fill="none" stroke="#000000" points="462.5,-37.7 462.5,-56.7 502.5,-56.7 502.5,-37.7 462.5,-37.7"/>
<text text-anchor="start" x="493.3862" y="-43.8" font-family="Helvetica,sans-Serif" font-size="11.00" fill="#000000"> &#160;</text>
</a>
</g>
</g>
<!-- builder_notifications&#45;&gt;build -->
<g id="edge6" class="edge">
<title>builder_notifications:w&#45;&gt;build:e</title>
<path fill="none" stroke="#000000" d="M331.1167,-67.5673C259.5701,-88.679 376.1497,-281.7 281.5,-281.7"/>
<polygon fill="#000000" stroke="#000000" points="337.5666,-66.73 345.9635,-69.27 341.5333,-66.215 345.5,-65.7 345.5,-65.7 345.5,-65.7 341.5333,-66.215 345.0365,-62.13 337.5666,-66.73 337.5666,-66.73"/>
<ellipse fill="none" stroke="#000000" cx="334.3932" cy="-67.142" rx="3.2" ry="3.2"/>
</g>
</g>
</svg>
