<?xml version="1.0" encoding="UTF-8" standalone="no"?>
<!DOCTYPE svg PUBLIC "-//W3C//DTD SVG 1.1//EN"
 "http://www.w3.org/Graphics/SVG/1.1/DTD/svg11.dtd">
<!-- Generated by graphviz version 2.40.1 (20161225.0304)
 -->
<!-- Title: oneDegreeRelationshipsDiagram Pages: 1 -->
<svg width="265pt" height="294pt"
 viewBox="0.00 0.00 265.00 294.20" xmlns="http://www.w3.org/2000/svg" xmlns:xlink="http://www.w3.org/1999/xlink">
<g id="graph0" class="graph" transform="scale(1 1) rotate(0) translate(4 290.2)">
<title>oneDegreeRelationshipsDiagram</title>
<polygon fill="#ffffff" stroke="transparent" points="-4,4 -4,-290.2 261,-290.2 261,4 -4,4"/>
<text text-anchor="middle" x="72.4936" y="-7.3" font-family="Helvetica,sans-Serif" font-size="11.00" fill="#000000">Generated by SchemaSpy</text>
<!-- build_cleanup_run -->
<g id="node1" class="node">
<title>build_cleanup_run</title>
<g id="a_node1"><a xlink:href="../../tables/build_cleanup_run.html" xlink:title="build_cleanup_run" target="_top">
<polygon fill="#ffffff" stroke="transparent" points="8,-38.2 8,-282.2 249,-282.2 249,-38.2 8,-38.2"/>
<polygon fill="#f5f5f5" stroke="transparent" points="10.5,-257.2 10.5,-280.2 247.5,-280.2 247.5,-257.2 10.5,-257.2"/>
<polygon fill="none" stroke="#000000" points="10.5,-257.2 10.5,-280.2 247.5,-280.2 247.5,-257.2 10.5,-257.2"/>
<text text-anchor="start" x="15.5" y="-265.8" font-family="Helvetica,sans-Serif" font-weight="bold" font-size="11.00" fill="#000000">build_cleanup_run</text>
<text text-anchor="start" x="212.5437" y="-265.3" font-family="Helvetica,sans-Serif" font-size="11.00" fill="#000000">[table]</text>
<polygon fill="none" stroke="#000000" points="10.5,-235.2 10.5,-257.2 163.5,-257.2 163.5,-235.2 10.5,-235.2"/>
<image xlink:href="../../images/primaryKeys.png" width="11px" height="12px" preserveAspectRatio="xMinYMin meet" x="15.5" y="-252.2"/>
<text text-anchor="start" x="30.5" y="-242.3" font-family="Helvetica,sans-Serif" font-size="11.00" fill="#000000">run_id</text>
<polygon fill="none" stroke="#000000" points="163.5,-235.2 163.5,-257.2 247.5,-257.2 247.5,-235.2 163.5,-235.2"/>
<text text-anchor="start" x="166.5" y="-242.9" font-family="Helvetica,sans-Serif" font-size="11.00" fill="#000000">int4[10]</text>
<polygon fill="none" stroke="#000000" points="10.5,-213.2 10.5,-235.2 163.5,-235.2 163.5,-213.2 10.5,-213.2"/>
<text text-anchor="start" x="30.5" y="-220.3" font-family="Helvetica,sans-Serif" font-size="11.00" fill="#000000">scheduled_at</text>
<polygon fill="none" stroke="#000000" points="163.5,-213.2 163.5,-235.2 247.5,-235.2 247.5,-213.2 163.5,-213.2"/>
<text text-anchor="start" x="166.3807" y="-220.9" font-family="Helvetica,sans-Serif" font-size="11.00" fill="#000000">timestamp[29,6]</text>
<polygon fill="none" stroke="#000000" points="10.5,-191.2 10.5,-213.2 163.5,-213.2 163.5,-191.2 10.5,-191.2"/>
<text text-anchor="start" x="30.5" y="-198.3" font-family="Helvetica,sans-Serif" font-size="11.00" fill="#000000">deleted_rows</text>
<polygon fill="none" stroke="#000000" points="163.5,-191.2 163.5,-213.2 247.5,-213.2 247.5,-191.2 163.5,-191.2"/>
<text text-anchor="start" x="166.5" y="-198.9" font-family="Helvetica,sans-Serif" font-size="11.00" fill="#000000">int4[10]</text>
<polygon fill="none" stroke="#000000" points="10.5,-169.2 10.5,-191.2 163.5,-191.2 163.5,-169.2 10.5,-169.2"/>
<text text-anchor="start" x="30.5" y="-176.3" font-family="Helvetica,sans-Serif" font-size="11.00" fill="#000000">build_result</text>
<polygon fill="none" stroke="#000000" points="163.5,-169.2 163.5,-191.2 247.5,-191.2 247.5,-169.2 163.5,-169.2"/>
<text text-anchor="start" x="166.5" y="-176.9" font-family="Helvetica,sans-Serif" font-size="11.00" fill="#000000">int4[10]</text>
<polygon fill="none" stroke="#000000" points="10.5,-147.2 10.5,-169.2 163.5,-169.2 163.5,-147.2 10.5,-147.2"/>
<text text-anchor="start" x="30.5" y="-154.3" font-family="Helvetica,sans-Serif" font-size="11.00" fill="#000000">build_src</text>
<polygon fill="none" stroke="#000000" points="163.5,-147.2 163.5,-169.2 247.5,-169.2 247.5,-147.2 163.5,-147.2"/>
<text text-anchor="start" x="166.5" y="-154.9" font-family="Helvetica,sans-Serif" font-size="11.00" fill="#000000">int4[10]</text>
<polygon fill="none" stroke="#000000" points="10.5,-125.2 10.5,-147.2 163.5,-147.2 163.5,-125.2 10.5,-125.2"/>
<text text-anchor="start" x="30.5" y="-132.3" font-family="Helvetica,sans-Serif" font-size="11.00" fill="#000000">operation_data</text>
<polygon fill="none" stroke="#000000" points="163.5,-125.2 163.5,-147.2 247.5,-147.2 247.5,-125.2 163.5,-125.2"/>
<text text-anchor="start" x="166.5" y="-132.9" font-family="Helvetica,sans-Serif" font-size="11.00" fill="#000000">int4[10]</text>
<polygon fill="none" stroke="#000000" points="10.5,-103.2 10.5,-125.2 163.5,-125.2 163.5,-103.2 10.5,-103.2"/>
<text text-anchor="start" x="30.5" y="-110.3" font-family="Helvetica,sans-Serif" font-size="11.00" fill="#000000">ts_operation_data</text>
<polygon fill="none" stroke="#000000" points="163.5,-103.2 163.5,-125.2 247.5,-125.2 247.5,-103.2 163.5,-103.2"/>
<text text-anchor="start" x="166.5" y="-110.9" font-family="Helvetica,sans-Serif" font-size="11.00" fill="#000000">int4[10]</text>
<polygon fill="none" stroke="#000000" points="10.5,-81.2 10.5,-103.2 163.5,-103.2 163.5,-81.2 10.5,-81.2"/>
<text text-anchor="start" x="30.5" y="-88.3" font-family="Helvetica,sans-Serif" font-size="11.00" fill="#000000">ts_rest_operation_data</text>
<polygon fill="none" stroke="#000000" points="163.5,-81.2 163.5,-103.2 247.5,-103.2 247.5,-81.2 163.5,-81.2"/>
<text text-anchor="start" x="166.5" y="-88.9" font-family="Helvetica,sans-Serif" font-size="11.00" fill="#000000">int4[10]</text>
<polygon fill="none" stroke="#000000" points="10.5,-59.2 10.5,-81.2 163.5,-81.2 163.5,-59.2 10.5,-59.2"/>
<text text-anchor="start" x="30.5" y="-66.3" font-family="Helvetica,sans-Serif" font-size="11.00" fill="#000000">ts_gql_operation_data</text>
<polygon fill="none" stroke="#000000" points="163.5,-59.2 163.5,-81.2 247.5,-81.2 247.5,-59.2 163.5,-59.2"/>
<text text-anchor="start" x="166.5" y="-66.9" font-family="Helvetica,sans-Serif" font-size="11.00" fill="#000000">int4[10]</text>
<polygon fill="#ffffff" stroke="transparent" points="10.5,-40.2 10.5,-59.2 91.5,-59.2 91.5,-40.2 10.5,-40.2"/>
<polygon fill="none" stroke="#000000" points="10.5,-40.2 10.5,-59.2 91.5,-59.2 91.5,-40.2 10.5,-40.2"/>
<text text-anchor="start" x="13.5" y="-46.3" font-family="Helvetica,sans-Serif" font-size="11.00" fill="#000000">&lt; 0</text>
<polygon fill="#ffffff" stroke="transparent" points="91.5,-40.2 91.5,-59.2 163.5,-59.2 163.5,-40.2 91.5,-40.2"/>
<polygon fill="none" stroke="#000000" points="91.5,-40.2 91.5,-59.2 163.5,-59.2 163.5,-40.2 91.5,-40.2"/>
<text text-anchor="start" x="154.3862" y="-46.3" font-family="Helvetica,sans-Serif" font-size="11.00" fill="#000000"> &#160;</text>
<polygon fill="#ffffff" stroke="transparent" points="163.5,-40.2 163.5,-59.2 247.5,-59.2 247.5,-40.2 163.5,-40.2"/>
<polygon fill="none" stroke="#000000" points="163.5,-40.2 163.5,-59.2 247.5,-59.2 247.5,-40.2 163.5,-40.2"/>
<text text-anchor="start" x="228.9053" y="-46.3" font-family="Helvetica,sans-Serif" font-size="11.00" fill="#000000">0 &gt;</text>
<polygon fill="none" stroke="#000000" stroke-width="2" points="9,-39.2 9,-281.2 248,-281.2 248,-39.2 9,-39.2"/>
</a>
</g>
</g>
</g>
</svg>
