<?xml version="1.0" encoding="UTF-8" standalone="no"?>
<!DOCTYPE svg PUBLIC "-//W3C//DTD SVG 1.1//EN"
 "http://www.w3.org/Graphics/SVG/1.1/DTD/svg11.dtd">
<!-- Generated by graphviz version 2.40.1 (20161225.0304)
 -->
<!-- Title: oneDegreeRelationshipsDiagram Pages: 1 -->
<svg width="357pt" height="179pt"
 viewBox="0.00 0.00 357.00 178.70" xmlns="http://www.w3.org/2000/svg" xmlns:xlink="http://www.w3.org/1999/xlink">
<g id="graph0" class="graph" transform="scale(1 1) rotate(0) translate(4 174.7)">
<title>oneDegreeRelationshipsDiagram</title>
<polygon fill="#ffffff" stroke="transparent" points="-4,4 -4,-174.7 353,-174.7 353,4 -4,4"/>
<text text-anchor="middle" x="72.4936" y="-7.3" font-family="Helvetica,sans-Serif" font-size="11.00" fill="#000000">Generated by SchemaSpy</text>
<!-- build_src -->
<g id="node1" class="node">
<title>build_src</title>
<g id="a_node1"><a xlink:href="../../tables/build_src.html" xlink:title="build_src" target="_top">
<polygon fill="#ffffff" stroke="transparent" points="154,-54.7 154,-166.7 341,-166.7 341,-54.7 154,-54.7"/>
<polygon fill="#f5f5f5" stroke="transparent" points="156.5,-141.7 156.5,-164.7 339.5,-164.7 339.5,-141.7 156.5,-141.7"/>
<polygon fill="none" stroke="#000000" points="156.5,-141.7 156.5,-164.7 339.5,-164.7 339.5,-141.7 156.5,-141.7"/>
<text text-anchor="start" x="161.5" y="-150.3" font-family="Helvetica,sans-Serif" font-weight="bold" font-size="11.00" fill="#000000">build_src</text>
<text text-anchor="start" x="304.5437" y="-149.8" font-family="Helvetica,sans-Serif" font-size="11.00" fill="#000000">[table]</text>
<polygon fill="none" stroke="#000000" points="156.5,-119.7 156.5,-141.7 230.5,-141.7 230.5,-119.7 156.5,-119.7"/>
<image xlink:href="../../images/foreignKeys.png" width="11px" height="12px" preserveAspectRatio="xMinYMin meet" x="161.5" y="-136.7"/>
<text text-anchor="start" x="176.5" y="-126.8" font-family="Helvetica,sans-Serif" font-size="11.00" fill="#000000">build_id</text>
<polygon fill="none" stroke="#000000" points="230.5,-119.7 230.5,-141.7 339.5,-141.7 339.5,-119.7 230.5,-119.7"/>
<text text-anchor="start" x="233.0344" y="-127.4" font-family="Helvetica,sans-Serif" font-size="11.00" fill="#000000">varchar[2147483647]</text>
<polygon fill="none" stroke="#000000" points="156.5,-97.7 156.5,-119.7 230.5,-119.7 230.5,-97.7 156.5,-97.7"/>
<text text-anchor="start" x="176.5" y="-104.8" font-family="Helvetica,sans-Serif" font-size="11.00" fill="#000000">source</text>
<polygon fill="none" stroke="#000000" points="230.5,-97.7 230.5,-119.7 339.5,-119.7 339.5,-97.7 230.5,-97.7"/>
<text text-anchor="start" x="233.5" y="-105.4" font-family="Helvetica,sans-Serif" font-size="11.00" fill="#000000">bytea[2147483647]</text>
<polygon fill="none" stroke="#000000" points="156.5,-75.7 156.5,-97.7 230.5,-97.7 230.5,-75.7 156.5,-75.7"/>
<text text-anchor="start" x="176.5" y="-82.8" font-family="Helvetica,sans-Serif" font-size="11.00" fill="#000000">config</text>
<polygon fill="none" stroke="#000000" points="230.5,-75.7 230.5,-97.7 339.5,-97.7 339.5,-75.7 230.5,-75.7"/>
<text text-anchor="start" x="233.5" y="-83.4" font-family="Helvetica,sans-Serif" font-size="11.00" fill="#000000">jsonb[2147483647]</text>
<polygon fill="#ffffff" stroke="transparent" points="156.5,-56.7 156.5,-75.7 197.5,-75.7 197.5,-56.7 156.5,-56.7"/>
<polygon fill="none" stroke="#000000" points="156.5,-56.7 156.5,-75.7 197.5,-75.7 197.5,-56.7 156.5,-56.7"/>
<text text-anchor="start" x="159.5" y="-62.8" font-family="Helvetica,sans-Serif" font-size="11.00" fill="#000000">&lt; 1</text>
<polygon fill="#ffffff" stroke="transparent" points="197.5,-56.7 197.5,-75.7 230.5,-75.7 230.5,-56.7 197.5,-56.7"/>
<polygon fill="none" stroke="#000000" points="197.5,-56.7 197.5,-75.7 230.5,-75.7 230.5,-56.7 197.5,-56.7"/>
<text text-anchor="start" x="221.3862" y="-62.8" font-family="Helvetica,sans-Serif" font-size="11.00" fill="#000000"> &#160;</text>
<polygon fill="#ffffff" stroke="transparent" points="230.5,-56.7 230.5,-75.7 339.5,-75.7 339.5,-56.7 230.5,-56.7"/>
<polygon fill="none" stroke="#000000" points="230.5,-56.7 230.5,-75.7 339.5,-75.7 339.5,-56.7 230.5,-56.7"/>
<text text-anchor="start" x="320.9053" y="-62.8" font-family="Helvetica,sans-Serif" font-size="11.00" fill="#000000">0 &gt;</text>
<polygon fill="none" stroke="#000000" stroke-width="2" points="155,-55.7 155,-165.7 340,-165.7 340,-55.7 155,-55.7"/>
</a>
</g>
</g>
<!-- build -->
<g id="node2" class="node">
<title>build</title>
<g id="a_node2"><a xlink:href="../../tables/build.html" xlink:title="build" target="_top">
<polygon fill="#ffffff" stroke="transparent" points="8,-38.2 8,-165.2 105,-165.2 105,-38.2 8,-38.2"/>
<polygon fill="#f5f5f5" stroke="transparent" points="8.5,-141.7 8.5,-164.7 105.5,-164.7 105.5,-141.7 8.5,-141.7"/>
<polygon fill="none" stroke="#000000" points="8.5,-141.7 8.5,-164.7 105.5,-164.7 105.5,-141.7 8.5,-141.7"/>
<text text-anchor="start" x="13.5" y="-150.3" font-family="Helvetica,sans-Serif" font-weight="bold" font-size="11.00" fill="#000000">build</text>
<text text-anchor="start" x="70.5437" y="-149.8" font-family="Helvetica,sans-Serif" font-size="11.00" fill="#000000">[table]</text>
<polygon fill="none" stroke="#000000" points="8.5,-119.7 8.5,-141.7 105.5,-141.7 105.5,-119.7 8.5,-119.7"/>
<image xlink:href="../../images/primaryKeys.png" width="11px" height="12px" preserveAspectRatio="xMinYMin meet" x="13.5" y="-136.7"/>
<text text-anchor="start" x="28.5" y="-126.8" font-family="Helvetica,sans-Serif" font-size="11.00" fill="#000000">build_id</text>
<polygon fill="#ffffff" stroke="transparent" points="8.5,-97.7 8.5,-119.7 105.5,-119.7 105.5,-97.7 8.5,-97.7"/>
<polygon fill="none" stroke="#000000" points="8.5,-97.7 8.5,-119.7 105.5,-119.7 105.5,-97.7 8.5,-97.7"/>
<text text-anchor="start" x="28.5" y="-104.8" font-family="Helvetica,sans-Serif" font-size="11.00" fill="#000000">status</text>
<polygon fill="none" stroke="#000000" points="8.5,-75.7 8.5,-97.7 105.5,-97.7 105.5,-75.7 8.5,-75.7"/>
<image xlink:href="../../images/foreignKeys.png" width="11px" height="12px" preserveAspectRatio="xMinYMin meet" x="13.5" y="-92.7"/>
<text text-anchor="start" x="28.5" y="-82.8" font-family="Helvetica,sans-Serif" font-size="11.00" fill="#000000">package_id</text>
<polygon fill="none" stroke="#000000" points="8.5,-56.7 8.5,-75.7 105.5,-75.7 105.5,-56.7 8.5,-56.7"/>
<text text-anchor="start" x="11.5" y="-62.8" font-family="Helvetica,sans-Serif" font-size="11.00" fill="#000000">...</text>
<polygon fill="#ffffff" stroke="transparent" points="8.5,-37.7 8.5,-56.7 50.5,-56.7 50.5,-37.7 8.5,-37.7"/>
<polygon fill="none" stroke="#000000" points="8.5,-37.7 8.5,-56.7 50.5,-56.7 50.5,-37.7 8.5,-37.7"/>
<text text-anchor="start" x="11.5" y="-43.8" font-family="Helvetica,sans-Serif" font-size="11.00" fill="#000000">&lt; 1</text>
<polygon fill="#ffffff" stroke="transparent" points="50.5,-37.7 50.5,-56.7 73.5,-56.7 73.5,-37.7 50.5,-37.7"/>
<polygon fill="none" stroke="#000000" points="50.5,-37.7 50.5,-56.7 73.5,-56.7 73.5,-37.7 50.5,-37.7"/>
<text text-anchor="start" x="64.3862" y="-43.8" font-family="Helvetica,sans-Serif" font-size="11.00" fill="#000000"> &#160;</text>
<polygon fill="#ffffff" stroke="transparent" points="73.5,-37.7 73.5,-56.7 105.5,-56.7 105.5,-37.7 73.5,-37.7"/>
<polygon fill="none" stroke="#000000" points="73.5,-37.7 73.5,-56.7 105.5,-56.7 105.5,-37.7 73.5,-37.7"/>
<text text-anchor="start" x="86.9053" y="-43.8" font-family="Helvetica,sans-Serif" font-size="11.00" fill="#000000">5 &gt;</text>
</a>
</g>
</g>
<!-- build_src&#45;&gt;build -->
<g id="edge1" class="edge">
<title>build_src:w&#45;&gt;build:e</title>
<path fill="none" stroke="#000000" d="M141.776,-130.7C129.7815,-130.7 122.3229,-130.7 105.5,-130.7"/>
<polygon fill="#000000" stroke="#000000" points="148.5,-130.7001 156.5,-134.3 152.5,-130.7 156.5,-130.7 156.5,-130.7 156.5,-130.7 152.5,-130.7 156.5,-127.1 148.5,-130.7001 148.5,-130.7001"/>
<ellipse fill="none" stroke="#000000" cx="145.3" cy="-130.7001" rx="3.2" ry="3.2"/>
</g>
</g>
</svg>
