<?xml version="1.0" encoding="UTF-8" standalone="no"?>
<!DOCTYPE svg PUBLIC "-//W3C//DTD SVG 1.1//EN"
 "http://www.w3.org/Graphics/SVG/1.1/DTD/svg11.dtd">
<!-- Generated by graphviz version 2.40.1 (20161225.0304)
 -->
<!-- Title: twoDegreesRelationshipsDiagram Pages: 1 -->
<svg width="564pt" height="387pt"
 viewBox="0.00 0.00 564.00 386.70" xmlns="http://www.w3.org/2000/svg" xmlns:xlink="http://www.w3.org/1999/xlink">
<g id="graph0" class="graph" transform="scale(1 1) rotate(0) translate(4 382.7)">
<title>twoDegreesRelationshipsDiagram</title>
<polygon fill="#ffffff" stroke="transparent" points="-4,4 -4,-382.7 560,-382.7 560,4 -4,4"/>
<text text-anchor="middle" x="72.4936" y="-7.3" font-family="Helvetica,sans-Serif" font-size="11.00" fill="#000000">Generated by SchemaSpy</text>
<!-- build -->
<g id="node1" class="node">
<title>build</title>
<g id="a_node1"><a xlink:href="../../tables/build.html" xlink:title="build" target="_top">
<polygon fill="#ffffff" stroke="transparent" points="184,-137.2 184,-264.2 281,-264.2 281,-137.2 184,-137.2"/>
<polygon fill="#f5f5f5" stroke="transparent" points="184.5,-240.7 184.5,-263.7 281.5,-263.7 281.5,-240.7 184.5,-240.7"/>
<polygon fill="none" stroke="#000000" points="184.5,-240.7 184.5,-263.7 281.5,-263.7 281.5,-240.7 184.5,-240.7"/>
<text text-anchor="start" x="189.5" y="-249.3" font-family="Helvetica,sans-Serif" font-weight="bold" font-size="11.00" fill="#000000">build</text>
<text text-anchor="start" x="246.5437" y="-248.8" font-family="Helvetica,sans-Serif" font-size="11.00" fill="#000000">[table]</text>
<polygon fill="none" stroke="#000000" points="184.5,-218.7 184.5,-240.7 281.5,-240.7 281.5,-218.7 184.5,-218.7"/>
<image xlink:href="../../images/primaryKeys.png" width="11px" height="12px" preserveAspectRatio="xMinYMin meet" x="189.5" y="-235.7"/>
<text text-anchor="start" x="204.5" y="-225.8" font-family="Helvetica,sans-Serif" font-size="11.00" fill="#000000">build_id</text>
<polygon fill="#ffffff" stroke="transparent" points="184.5,-196.7 184.5,-218.7 281.5,-218.7 281.5,-196.7 184.5,-196.7"/>
<polygon fill="none" stroke="#000000" points="184.5,-196.7 184.5,-218.7 281.5,-218.7 281.5,-196.7 184.5,-196.7"/>
<text text-anchor="start" x="204.5" y="-203.8" font-family="Helvetica,sans-Serif" font-size="11.00" fill="#000000">status</text>
<polygon fill="none" stroke="#000000" points="184.5,-174.7 184.5,-196.7 281.5,-196.7 281.5,-174.7 184.5,-174.7"/>
<image xlink:href="../../images/foreignKeys.png" width="11px" height="12px" preserveAspectRatio="xMinYMin meet" x="189.5" y="-191.7"/>
<text text-anchor="start" x="204.5" y="-181.8" font-family="Helvetica,sans-Serif" font-size="11.00" fill="#000000">package_id</text>
<polygon fill="none" stroke="#000000" points="184.5,-155.7 184.5,-174.7 281.5,-174.7 281.5,-155.7 184.5,-155.7"/>
<text text-anchor="start" x="187.5" y="-161.8" font-family="Helvetica,sans-Serif" font-size="11.00" fill="#000000">...</text>
<polygon fill="#ffffff" stroke="transparent" points="184.5,-136.7 184.5,-155.7 226.5,-155.7 226.5,-136.7 184.5,-136.7"/>
<polygon fill="none" stroke="#000000" points="184.5,-136.7 184.5,-155.7 226.5,-155.7 226.5,-136.7 184.5,-136.7"/>
<text text-anchor="start" x="187.5" y="-142.8" font-family="Helvetica,sans-Serif" font-size="11.00" fill="#000000">&lt; 1</text>
<polygon fill="#ffffff" stroke="transparent" points="226.5,-136.7 226.5,-155.7 249.5,-155.7 249.5,-136.7 226.5,-136.7"/>
<polygon fill="none" stroke="#000000" points="226.5,-136.7 226.5,-155.7 249.5,-155.7 249.5,-136.7 226.5,-136.7"/>
<text text-anchor="start" x="240.3862" y="-142.8" font-family="Helvetica,sans-Serif" font-size="11.00" fill="#000000"> &#160;</text>
<polygon fill="#ffffff" stroke="transparent" points="249.5,-136.7 249.5,-155.7 281.5,-155.7 281.5,-136.7 249.5,-136.7"/>
<polygon fill="none" stroke="#000000" points="249.5,-136.7 249.5,-155.7 281.5,-155.7 281.5,-136.7 249.5,-136.7"/>
<text text-anchor="start" x="262.9053" y="-142.8" font-family="Helvetica,sans-Serif" font-size="11.00" fill="#000000">5 &gt;</text>
</a>
</g>
</g>
<!-- package_group -->
<g id="node2" class="node">
<title>package_group</title>
<g id="a_node2"><a xlink:href="../../tables/package_group.html" xlink:title="package_group" target="_top">
<polygon fill="#ffffff" stroke="transparent" points="8,-158.2 8,-219.2 135,-219.2 135,-158.2 8,-158.2"/>
<polygon fill="#f5f5f5" stroke="transparent" points="8.5,-195.7 8.5,-218.7 135.5,-218.7 135.5,-195.7 8.5,-195.7"/>
<polygon fill="none" stroke="#000000" points="8.5,-195.7 8.5,-218.7 135.5,-218.7 135.5,-195.7 8.5,-195.7"/>
<text text-anchor="start" x="13.5" y="-204.3" font-family="Helvetica,sans-Serif" font-weight="bold" font-size="11.00" fill="#000000">package_group</text>
<text text-anchor="start" x="101.0219" y="-203.8" font-family="Helvetica,sans-Serif" font-size="11.00" fill="#000000">[table]</text>
<polygon fill="none" stroke="#000000" points="8.5,-176.7 8.5,-195.7 135.5,-195.7 135.5,-176.7 8.5,-176.7"/>
<text text-anchor="start" x="11.5" y="-182.8" font-family="Helvetica,sans-Serif" font-size="11.00" fill="#000000">...</text>
<polygon fill="#ffffff" stroke="transparent" points="8.5,-157.7 8.5,-176.7 62.5,-176.7 62.5,-157.7 8.5,-157.7"/>
<polygon fill="none" stroke="#000000" points="8.5,-157.7 8.5,-176.7 62.5,-176.7 62.5,-157.7 8.5,-157.7"/>
<text text-anchor="start" x="11.5" y="-163.8" font-family="Helvetica,sans-Serif" font-size="11.00" fill="#000000">&lt; 1</text>
<polygon fill="#ffffff" stroke="transparent" points="62.5,-157.7 62.5,-176.7 91.5,-176.7 91.5,-157.7 62.5,-157.7"/>
<polygon fill="none" stroke="#000000" points="62.5,-157.7 62.5,-176.7 91.5,-176.7 91.5,-157.7 62.5,-157.7"/>
<text text-anchor="start" x="82.3862" y="-163.8" font-family="Helvetica,sans-Serif" font-size="11.00" fill="#000000"> &#160;</text>
<polygon fill="#ffffff" stroke="transparent" points="91.5,-157.7 91.5,-176.7 135.5,-176.7 135.5,-157.7 91.5,-157.7"/>
<polygon fill="none" stroke="#000000" points="91.5,-157.7 91.5,-176.7 135.5,-176.7 135.5,-157.7 91.5,-157.7"/>
<text text-anchor="start" x="110.7904" y="-163.8" font-family="Helvetica,sans-Serif" font-size="11.00" fill="#000000">14 &gt;</text>
</a>
</g>
</g>
<!-- build&#45;&gt;package_group -->
<g id="edge1" class="edge">
<title>build:w&#45;&gt;package_group:e</title>
<path fill="none" stroke="#000000" d="M169.9909,-185.7C158.6774,-185.7 151.4931,-185.7 135.5,-185.7"/>
<polygon fill="#000000" stroke="#000000" points="176.5,-185.7001 184.5,-189.3 180.5,-185.7 184.5,-185.7 184.5,-185.7 184.5,-185.7 180.5,-185.7 184.5,-182.1 176.5,-185.7001 176.5,-185.7001"/>
<ellipse fill="none" stroke="#000000" cx="173.3" cy="-185.7001" rx="3.2" ry="3.2"/>
</g>
<!-- build_depends -->
<g id="node3" class="node">
<title>build_depends</title>
<g id="a_node3"><a xlink:href="../../tables/build_depends.html" xlink:title="build_depends" target="_top">
<polygon fill="#ffffff" stroke="transparent" points="330,-284.7 330,-374.7 548,-374.7 548,-284.7 330,-284.7"/>
<polygon fill="#f5f5f5" stroke="transparent" points="332,-349.7 332,-372.7 546,-372.7 546,-349.7 332,-349.7"/>
<polygon fill="none" stroke="#000000" points="332,-349.7 332,-372.7 546,-372.7 546,-349.7 332,-349.7"/>
<text text-anchor="start" x="337" y="-358.3" font-family="Helvetica,sans-Serif" font-weight="bold" font-size="11.00" fill="#000000">build_depends</text>
<text text-anchor="start" x="511.0437" y="-357.8" font-family="Helvetica,sans-Serif" font-size="11.00" fill="#000000">[table]</text>
<polygon fill="none" stroke="#000000" points="332,-327.7 332,-349.7 437,-349.7 437,-327.7 332,-327.7"/>
<image xlink:href="../../images/foreignKeys.png" width="11px" height="12px" preserveAspectRatio="xMinYMin meet" x="337" y="-344.7"/>
<text text-anchor="start" x="352" y="-334.8" font-family="Helvetica,sans-Serif" font-size="11.00" fill="#000000">build_id</text>
<polygon fill="none" stroke="#000000" points="437,-327.7 437,-349.7 546,-349.7 546,-327.7 437,-327.7"/>
<text text-anchor="start" x="439.5344" y="-335.4" font-family="Helvetica,sans-Serif" font-size="11.00" fill="#000000">varchar[2147483647]</text>
<polygon fill="#ffffff" stroke="transparent" points="332,-305.7 332,-327.7 437,-327.7 437,-305.7 332,-305.7"/>
<polygon fill="none" stroke="#000000" points="332,-305.7 332,-327.7 437,-327.7 437,-305.7 332,-305.7"/>
<image xlink:href="../../images/foreignKeys.png" width="11px" height="12px" preserveAspectRatio="xMinYMin meet" x="337" y="-322.7"/>
<text text-anchor="start" x="352" y="-312.8" font-family="Helvetica,sans-Serif" font-size="11.00" fill="#000000">depend_id</text>
<polygon fill="none" stroke="#000000" points="437,-305.7 437,-327.7 546,-327.7 546,-305.7 437,-305.7"/>
<text text-anchor="start" x="439.5344" y="-313.4" font-family="Helvetica,sans-Serif" font-size="11.00" fill="#000000">varchar[2147483647]</text>
<polygon fill="#ffffff" stroke="transparent" points="332,-286.7 332,-305.7 389,-305.7 389,-286.7 332,-286.7"/>
<polygon fill="none" stroke="#000000" points="332,-286.7 332,-305.7 389,-305.7 389,-286.7 332,-286.7"/>
<text text-anchor="start" x="335" y="-292.8" font-family="Helvetica,sans-Serif" font-size="11.00" fill="#000000">&lt; 2</text>
<polygon fill="#ffffff" stroke="transparent" points="389,-286.7 389,-305.7 437,-305.7 437,-286.7 389,-286.7"/>
<polygon fill="none" stroke="#000000" points="389,-286.7 389,-305.7 437,-305.7 437,-286.7 389,-286.7"/>
<text text-anchor="start" x="427.8862" y="-292.8" font-family="Helvetica,sans-Serif" font-size="11.00" fill="#000000"> &#160;</text>
<polygon fill="#ffffff" stroke="transparent" points="437,-286.7 437,-305.7 546,-305.7 546,-286.7 437,-286.7"/>
<polygon fill="none" stroke="#000000" points="437,-286.7 437,-305.7 546,-305.7 546,-286.7 437,-286.7"/>
<text text-anchor="start" x="527.4053" y="-292.8" font-family="Helvetica,sans-Serif" font-size="11.00" fill="#000000">0 &gt;</text>
<polygon fill="none" stroke="#000000" stroke-width="2" points="331,-285.7 331,-373.7 547,-373.7 547,-285.7 331,-285.7"/>
</a>
</g>
</g>
<!-- build_depends&#45;&gt;build -->
<g id="edge2" class="edge">
<title>build_depends:w&#45;&gt;build:e</title>
<path fill="none" stroke="#000000" d="M317.7587,-334.8206C289.9529,-315.4034 328.843,-229.7 281.5,-229.7"/>
<polygon fill="#000000" stroke="#000000" points="324.2813,-336.5974 331.0538,-342.1734 328.1406,-337.6487 332,-338.7 332,-338.7 332,-338.7 328.1406,-337.6487 332.9462,-335.2266 324.2813,-336.5974 324.2813,-336.5974"/>
<ellipse fill="none" stroke="#000000" cx="321.1938" cy="-335.7563" rx="3.2" ry="3.2"/>
</g>
<!-- build_depends&#45;&gt;build -->
<g id="edge3" class="edge">
<title>build_depends:w&#45;&gt;build:e</title>
<path fill="none" stroke="#000000" d="M318.2198,-312.5038C296.1537,-295.1252 320.2708,-229.7 281.5,-229.7"/>
<polygon fill="#000000" stroke="#000000" points="324.347,-314.3695 330.9513,-320.1439 328.1735,-315.5348 332,-316.7 332,-316.7 332,-316.7 328.1735,-315.5348 333.0487,-313.2561 324.347,-314.3695 324.347,-314.3695"/>
<ellipse fill="none" stroke="#000000" cx="321.2857" cy="-313.4373" rx="3.2" ry="3.2"/>
</g>
<!-- build_result -->
<g id="node4" class="node">
<title>build_result</title>
<g id="a_node4"><a xlink:href="../../tables/build_result.html" xlink:title="build_result" target="_top">
<polygon fill="#ffffff" stroke="transparent" points="385.5,-202.2 385.5,-263.2 492.5,-263.2 492.5,-202.2 385.5,-202.2"/>
<polygon fill="#f5f5f5" stroke="transparent" points="386,-239.7 386,-262.7 493,-262.7 493,-239.7 386,-239.7"/>
<polygon fill="none" stroke="#000000" points="386,-239.7 386,-262.7 493,-262.7 493,-239.7 386,-239.7"/>
<text text-anchor="start" x="391" y="-248.3" font-family="Helvetica,sans-Serif" font-weight="bold" font-size="11.00" fill="#000000">build_result</text>
<text text-anchor="start" x="458.5219" y="-247.8" font-family="Helvetica,sans-Serif" font-size="11.00" fill="#000000">[table]</text>
<polygon fill="none" stroke="#000000" points="386,-220.7 386,-239.7 493,-239.7 493,-220.7 386,-220.7"/>
<text text-anchor="start" x="389" y="-226.8" font-family="Helvetica,sans-Serif" font-size="11.00" fill="#000000">...</text>
<polygon fill="#ffffff" stroke="transparent" points="386,-201.7 386,-220.7 438,-220.7 438,-201.7 386,-201.7"/>
<polygon fill="none" stroke="#000000" points="386,-201.7 386,-220.7 438,-220.7 438,-201.7 386,-201.7"/>
<text text-anchor="start" x="389" y="-207.8" font-family="Helvetica,sans-Serif" font-size="11.00" fill="#000000">&lt; 1</text>
<polygon fill="#ffffff" stroke="transparent" points="438,-201.7 438,-220.7 465,-220.7 465,-201.7 438,-201.7"/>
<polygon fill="none" stroke="#000000" points="438,-201.7 438,-220.7 465,-220.7 465,-201.7 438,-201.7"/>
<text text-anchor="start" x="455.8862" y="-207.8" font-family="Helvetica,sans-Serif" font-size="11.00" fill="#000000"> &#160;</text>
<polygon fill="#ffffff" stroke="transparent" points="465,-201.7 465,-220.7 493,-220.7 493,-201.7 465,-201.7"/>
<polygon fill="none" stroke="#000000" points="465,-201.7 465,-220.7 493,-220.7 493,-201.7 465,-201.7"/>
<text text-anchor="start" x="483.8862" y="-207.8" font-family="Helvetica,sans-Serif" font-size="11.00" fill="#000000"> &#160;</text>
</a>
</g>
</g>
<!-- build_result&#45;&gt;build -->
<g id="edge4" class="edge">
<title>build_result:w&#45;&gt;build:e</title>
<path fill="none" stroke="#000000" d="M371.4559,-229.7C336.4779,-229.7 322.6832,-229.7 281.5,-229.7"/>
<polygon fill="#000000" stroke="#000000" points="378,-229.7001 386,-233.3 382,-229.7 386,-229.7 386,-229.7 386,-229.7 382,-229.7 386,-226.1 378,-229.7001 378,-229.7001"/>
<ellipse fill="none" stroke="#000000" cx="374.8" cy="-229.7001" rx="3.2" ry="3.2"/>
</g>
<!-- build_src -->
<g id="node5" class="node">
<title>build_src</title>
<g id="a_node5"><a xlink:href="../../tables/build_src.html" xlink:title="build_src" target="_top">
<polygon fill="#ffffff" stroke="transparent" points="393,-120.2 393,-181.2 485,-181.2 485,-120.2 393,-120.2"/>
<polygon fill="#f5f5f5" stroke="transparent" points="393,-157.7 393,-180.7 485,-180.7 485,-157.7 393,-157.7"/>
<polygon fill="none" stroke="#000000" points="393,-157.7 393,-180.7 485,-180.7 485,-157.7 393,-157.7"/>
<text text-anchor="start" x="398" y="-166.3" font-family="Helvetica,sans-Serif" font-weight="bold" font-size="11.00" fill="#000000">build_src</text>
<text text-anchor="start" x="450.5219" y="-165.8" font-family="Helvetica,sans-Serif" font-size="11.00" fill="#000000">[table]</text>
<polygon fill="none" stroke="#000000" points="393,-138.7 393,-157.7 485,-157.7 485,-138.7 393,-138.7"/>
<text text-anchor="start" x="396" y="-144.8" font-family="Helvetica,sans-Serif" font-size="11.00" fill="#000000">...</text>
<polygon fill="#ffffff" stroke="transparent" points="393,-119.7 393,-138.7 437,-138.7 437,-119.7 393,-119.7"/>
<polygon fill="none" stroke="#000000" points="393,-119.7 393,-138.7 437,-138.7 437,-119.7 393,-119.7"/>
<text text-anchor="start" x="396" y="-125.8" font-family="Helvetica,sans-Serif" font-size="11.00" fill="#000000">&lt; 1</text>
<polygon fill="#ffffff" stroke="transparent" points="437,-119.7 437,-138.7 461,-138.7 461,-119.7 437,-119.7"/>
<polygon fill="none" stroke="#000000" points="437,-119.7 437,-138.7 461,-138.7 461,-119.7 437,-119.7"/>
<text text-anchor="start" x="451.8862" y="-125.8" font-family="Helvetica,sans-Serif" font-size="11.00" fill="#000000"> &#160;</text>
<polygon fill="#ffffff" stroke="transparent" points="461,-119.7 461,-138.7 485,-138.7 485,-119.7 461,-119.7"/>
<polygon fill="none" stroke="#000000" points="461,-119.7 461,-138.7 485,-138.7 485,-119.7 461,-119.7"/>
<text text-anchor="start" x="475.8862" y="-125.8" font-family="Helvetica,sans-Serif" font-size="11.00" fill="#000000"> &#160;</text>
</a>
</g>
</g>
<!-- build_src&#45;&gt;build -->
<g id="edge5" class="edge">
<title>build_src:w&#45;&gt;build:e</title>
<path fill="none" stroke="#000000" d="M378.4414,-149.0491C354.0132,-154.0821 347.0866,-172.4632 322,-191.7 302.4131,-206.7196 306.1827,-229.7 281.5,-229.7"/>
<polygon fill="#000000" stroke="#000000" points="385.0341,-148.4382 393.3322,-151.2846 389.0171,-148.0691 393,-147.7 393,-147.7 393,-147.7 389.0171,-148.0691 392.6678,-144.1154 385.0341,-148.4382 385.0341,-148.4382"/>
<ellipse fill="none" stroke="#000000" cx="381.8478" cy="-148.7335" rx="3.2" ry="3.2"/>
</g>
<!-- builder_notifications -->
<g id="node6" class="node">
<title>builder_notifications</title>
<g id="a_node6"><a xlink:href="../../tables/builder_notifications.html" xlink:title="builder_notifications" target="_top">
<polygon fill="#ffffff" stroke="transparent" points="360.5,-38.2 360.5,-99.2 517.5,-99.2 517.5,-38.2 360.5,-38.2"/>
<polygon fill="#f5f5f5" stroke="transparent" points="361,-75.7 361,-98.7 518,-98.7 518,-75.7 361,-75.7"/>
<polygon fill="none" stroke="#000000" points="361,-75.7 361,-98.7 518,-98.7 518,-75.7 361,-75.7"/>
<text text-anchor="start" x="366" y="-84.3" font-family="Helvetica,sans-Serif" font-weight="bold" font-size="11.00" fill="#000000">builder_notifications</text>
<text text-anchor="start" x="483.5219" y="-83.8" font-family="Helvetica,sans-Serif" font-size="11.00" fill="#000000">[table]</text>
<polygon fill="none" stroke="#000000" points="361,-56.7 361,-75.7 518,-75.7 518,-56.7 361,-56.7"/>
<text text-anchor="start" x="364" y="-62.8" font-family="Helvetica,sans-Serif" font-size="11.00" fill="#000000">...</text>
<polygon fill="#ffffff" stroke="transparent" points="361,-37.7 361,-56.7 438,-56.7 438,-37.7 361,-37.7"/>
<polygon fill="none" stroke="#000000" points="361,-37.7 361,-56.7 438,-56.7 438,-37.7 361,-37.7"/>
<text text-anchor="start" x="364" y="-43.8" font-family="Helvetica,sans-Serif" font-size="11.00" fill="#000000">&lt; 1</text>
<polygon fill="#ffffff" stroke="transparent" points="438,-37.7 438,-56.7 478,-56.7 478,-37.7 438,-37.7"/>
<polygon fill="none" stroke="#000000" points="438,-37.7 438,-56.7 478,-56.7 478,-37.7 438,-37.7"/>
<text text-anchor="start" x="468.8862" y="-43.8" font-family="Helvetica,sans-Serif" font-size="11.00" fill="#000000"> &#160;</text>
<polygon fill="#ffffff" stroke="transparent" points="478,-37.7 478,-56.7 518,-56.7 518,-37.7 478,-37.7"/>
<polygon fill="none" stroke="#000000" points="478,-37.7 478,-56.7 518,-56.7 518,-37.7 478,-37.7"/>
<text text-anchor="start" x="508.8862" y="-43.8" font-family="Helvetica,sans-Serif" font-size="11.00" fill="#000000"> &#160;</text>
</a>
</g>
</g>
<!-- builder_notifications&#45;&gt;build -->
<g id="edge6" class="edge">
<title>builder_notifications:w&#45;&gt;build:e</title>
<path fill="none" stroke="#000000" d="M346.8374,-68.7596C334.291,-75.4558 332.1365,-92.2144 322,-109.7 293.7696,-158.3979 337.7889,-229.7 281.5,-229.7"/>
<polygon fill="#000000" stroke="#000000" points="353.1804,-67.3893 361.7602,-69.2188 357.0902,-66.5447 361,-65.7 361,-65.7 361,-65.7 357.0902,-66.5447 360.2398,-62.1812 353.1804,-67.3893 353.1804,-67.3893"/>
<ellipse fill="none" stroke="#000000" cx="350.0525" cy="-68.0651" rx="3.2" ry="3.2"/>
</g>
</g>
</svg>
