<?xml version="1.0" encoding="UTF-8" standalone="no"?>
<!DOCTYPE svg PUBLIC "-//W3C//DTD SVG 1.1//EN"
 "http://www.w3.org/Graphics/SVG/1.1/DTD/svg11.dtd">
<!-- Generated by graphviz version 2.40.1 (20161225.0304)
 -->
<!-- Title: oneDegreeRelationshipsDiagram Pages: 1 -->
<svg width="422pt" height="184pt"
 viewBox="0.00 0.00 422.00 184.20" xmlns="http://www.w3.org/2000/svg" xmlns:xlink="http://www.w3.org/1999/xlink">
<g id="graph0" class="graph" transform="scale(1 1) rotate(0) translate(4 180.2)">
<title>oneDegreeRelationshipsDiagram</title>
<polygon fill="#ffffff" stroke="transparent" points="-4,4 -4,-180.2 418,-180.2 418,4 -4,4"/>
<text text-anchor="middle" x="72.4936" y="-7.3" font-family="Helvetica,sans-Serif" font-size="11.00" fill="#000000">Generated by SchemaSpy</text>
<!-- builder_notifications -->
<g id="node1" class="node">
<title>builder_notifications</title>
<g id="a_node1"><a xlink:href="../../tables/builder_notifications.html" xlink:title="builder_notifications" target="_top">
<polygon fill="#ffffff" stroke="transparent" points="154,-38.2 154,-172.2 406,-172.2 406,-38.2 154,-38.2"/>
<polygon fill="#f5f5f5" stroke="transparent" points="156,-147.2 156,-170.2 404,-170.2 404,-147.2 156,-147.2"/>
<polygon fill="none" stroke="#000000" points="156,-147.2 156,-170.2 404,-170.2 404,-147.2 156,-147.2"/>
<text text-anchor="start" x="161" y="-155.8" font-family="Helvetica,sans-Serif" font-weight="bold" font-size="11.00" fill="#000000">builder_notifications</text>
<text text-anchor="start" x="369.0437" y="-155.3" font-family="Helvetica,sans-Serif" font-size="11.00" fill="#000000">[table]</text>
<polygon fill="none" stroke="#000000" points="156,-125.2 156,-147.2 295,-147.2 295,-125.2 156,-125.2"/>
<image xlink:href="../../images/foreignKeys.png" width="11px" height="12px" preserveAspectRatio="xMinYMin meet" x="161" y="-142.2"/>
<text text-anchor="start" x="176" y="-132.3" font-family="Helvetica,sans-Serif" font-size="11.00" fill="#000000">build_id</text>
<polygon fill="none" stroke="#000000" points="295,-125.2 295,-147.2 404,-147.2 404,-125.2 295,-125.2"/>
<text text-anchor="start" x="297.5344" y="-132.9" font-family="Helvetica,sans-Serif" font-size="11.00" fill="#000000">varchar[2147483647]</text>
<polygon fill="none" stroke="#000000" points="156,-103.2 156,-125.2 295,-125.2 295,-103.2 156,-103.2"/>
<text text-anchor="start" x="176" y="-110.3" font-family="Helvetica,sans-Serif" font-size="11.00" fill="#000000">severity</text>
<polygon fill="none" stroke="#000000" points="295,-103.2 295,-125.2 404,-125.2 404,-103.2 295,-103.2"/>
<text text-anchor="start" x="297.5344" y="-110.9" font-family="Helvetica,sans-Serif" font-size="11.00" fill="#000000">varchar[2147483647]</text>
<polygon fill="none" stroke="#000000" points="156,-81.2 156,-103.2 295,-103.2 295,-81.2 156,-81.2"/>
<text text-anchor="start" x="176" y="-88.3" font-family="Helvetica,sans-Serif" font-size="11.00" fill="#000000">message</text>
<polygon fill="none" stroke="#000000" points="295,-81.2 295,-103.2 404,-103.2 404,-81.2 295,-81.2"/>
<text text-anchor="start" x="297.5344" y="-88.9" font-family="Helvetica,sans-Serif" font-size="11.00" fill="#000000">varchar[2147483647]</text>
<polygon fill="none" stroke="#000000" points="156,-59.2 156,-81.2 295,-81.2 295,-59.2 156,-59.2"/>
<text text-anchor="start" x="176" y="-66.3" font-family="Helvetica,sans-Serif" font-size="11.00" fill="#000000">file_id</text>
<polygon fill="none" stroke="#000000" points="295,-59.2 295,-81.2 404,-81.2 404,-59.2 295,-59.2"/>
<text text-anchor="start" x="297.5344" y="-66.9" font-family="Helvetica,sans-Serif" font-size="11.00" fill="#000000">varchar[2147483647]</text>
<polygon fill="#ffffff" stroke="transparent" points="156,-40.2 156,-59.2 230,-59.2 230,-40.2 156,-40.2"/>
<polygon fill="none" stroke="#000000" points="156,-40.2 156,-59.2 230,-59.2 230,-40.2 156,-40.2"/>
<text text-anchor="start" x="159" y="-46.3" font-family="Helvetica,sans-Serif" font-size="11.00" fill="#000000">&lt; 1</text>
<polygon fill="#ffffff" stroke="transparent" points="230,-40.2 230,-59.2 295,-59.2 295,-40.2 230,-40.2"/>
<polygon fill="none" stroke="#000000" points="230,-40.2 230,-59.2 295,-59.2 295,-40.2 230,-40.2"/>
<text text-anchor="start" x="285.8862" y="-46.3" font-family="Helvetica,sans-Serif" font-size="11.00" fill="#000000"> &#160;</text>
<polygon fill="#ffffff" stroke="transparent" points="295,-40.2 295,-59.2 404,-59.2 404,-40.2 295,-40.2"/>
<polygon fill="none" stroke="#000000" points="295,-40.2 295,-59.2 404,-59.2 404,-40.2 295,-40.2"/>
<text text-anchor="start" x="385.4053" y="-46.3" font-family="Helvetica,sans-Serif" font-size="11.00" fill="#000000">0 &gt;</text>
<polygon fill="none" stroke="#000000" stroke-width="2" points="155,-39.2 155,-171.2 405,-171.2 405,-39.2 155,-39.2"/>
</a>
</g>
</g>
<!-- build -->
<g id="node2" class="node">
<title>build</title>
<g id="a_node2"><a xlink:href="../../tables/build.html" xlink:title="build" target="_top">
<polygon fill="#ffffff" stroke="transparent" points="8,-43.7 8,-170.7 105,-170.7 105,-43.7 8,-43.7"/>
<polygon fill="#f5f5f5" stroke="transparent" points="8.5,-147.2 8.5,-170.2 105.5,-170.2 105.5,-147.2 8.5,-147.2"/>
<polygon fill="none" stroke="#000000" points="8.5,-147.2 8.5,-170.2 105.5,-170.2 105.5,-147.2 8.5,-147.2"/>
<text text-anchor="start" x="13.5" y="-155.8" font-family="Helvetica,sans-Serif" font-weight="bold" font-size="11.00" fill="#000000">build</text>
<text text-anchor="start" x="70.5437" y="-155.3" font-family="Helvetica,sans-Serif" font-size="11.00" fill="#000000">[table]</text>
<polygon fill="none" stroke="#000000" points="8.5,-125.2 8.5,-147.2 105.5,-147.2 105.5,-125.2 8.5,-125.2"/>
<image xlink:href="../../images/primaryKeys.png" width="11px" height="12px" preserveAspectRatio="xMinYMin meet" x="13.5" y="-142.2"/>
<text text-anchor="start" x="28.5" y="-132.3" font-family="Helvetica,sans-Serif" font-size="11.00" fill="#000000">build_id</text>
<polygon fill="#ffffff" stroke="transparent" points="8.5,-103.2 8.5,-125.2 105.5,-125.2 105.5,-103.2 8.5,-103.2"/>
<polygon fill="none" stroke="#000000" points="8.5,-103.2 8.5,-125.2 105.5,-125.2 105.5,-103.2 8.5,-103.2"/>
<text text-anchor="start" x="28.5" y="-110.3" font-family="Helvetica,sans-Serif" font-size="11.00" fill="#000000">status</text>
<polygon fill="none" stroke="#000000" points="8.5,-81.2 8.5,-103.2 105.5,-103.2 105.5,-81.2 8.5,-81.2"/>
<image xlink:href="../../images/foreignKeys.png" width="11px" height="12px" preserveAspectRatio="xMinYMin meet" x="13.5" y="-98.2"/>
<text text-anchor="start" x="28.5" y="-88.3" font-family="Helvetica,sans-Serif" font-size="11.00" fill="#000000">package_id</text>
<polygon fill="none" stroke="#000000" points="8.5,-62.2 8.5,-81.2 105.5,-81.2 105.5,-62.2 8.5,-62.2"/>
<text text-anchor="start" x="11.5" y="-68.3" font-family="Helvetica,sans-Serif" font-size="11.00" fill="#000000">...</text>
<polygon fill="#ffffff" stroke="transparent" points="8.5,-43.2 8.5,-62.2 50.5,-62.2 50.5,-43.2 8.5,-43.2"/>
<polygon fill="none" stroke="#000000" points="8.5,-43.2 8.5,-62.2 50.5,-62.2 50.5,-43.2 8.5,-43.2"/>
<text text-anchor="start" x="11.5" y="-49.3" font-family="Helvetica,sans-Serif" font-size="11.00" fill="#000000">&lt; 1</text>
<polygon fill="#ffffff" stroke="transparent" points="50.5,-43.2 50.5,-62.2 73.5,-62.2 73.5,-43.2 50.5,-43.2"/>
<polygon fill="none" stroke="#000000" points="50.5,-43.2 50.5,-62.2 73.5,-62.2 73.5,-43.2 50.5,-43.2"/>
<text text-anchor="start" x="64.3862" y="-49.3" font-family="Helvetica,sans-Serif" font-size="11.00" fill="#000000"> &#160;</text>
<polygon fill="#ffffff" stroke="transparent" points="73.5,-43.2 73.5,-62.2 105.5,-62.2 105.5,-43.2 73.5,-43.2"/>
<polygon fill="none" stroke="#000000" points="73.5,-43.2 73.5,-62.2 105.5,-62.2 105.5,-43.2 73.5,-43.2"/>
<text text-anchor="start" x="86.9053" y="-49.3" font-family="Helvetica,sans-Serif" font-size="11.00" fill="#000000">5 &gt;</text>
</a>
</g>
</g>
<!-- builder_notifications&#45;&gt;build -->
<g id="edge1" class="edge">
<title>builder_notifications:w&#45;&gt;build:e</title>
<path fill="none" stroke="#000000" d="M141.4203,-136.2C129.5435,-136.2 122.158,-136.2 105.5,-136.2"/>
<polygon fill="#000000" stroke="#000000" points="148,-136.2001 156,-139.8 152,-136.2 156,-136.2 156,-136.2 156,-136.2 152,-136.2 156,-132.6 148,-136.2001 148,-136.2001"/>
<ellipse fill="none" stroke="#000000" cx="144.8" cy="-136.2001" rx="3.2" ry="3.2"/>
</g>
</g>
</svg>
