<?xml version="1.0" encoding="UTF-8" standalone="no"?>
<!DOCTYPE svg PUBLIC "-//W3C//DTD SVG 1.1//EN"
 "http://www.w3.org/Graphics/SVG/1.1/DTD/svg11.dtd">
<!-- Generated by graphviz version 2.40.1 (20161225.0304)
 -->
<!-- Title: twoDegreesRelationshipsDiagram Pages: 1 -->
<svg width="458pt" height="475pt"
 viewBox="0.00 0.00 458.00 475.20" xmlns="http://www.w3.org/2000/svg" xmlns:xlink="http://www.w3.org/1999/xlink">
<g id="graph0" class="graph" transform="scale(1 1) rotate(0) translate(4 471.2)">
<title>twoDegreesRelationshipsDiagram</title>
<polygon fill="#ffffff" stroke="transparent" points="-4,4 -4,-471.2 454,-471.2 454,4 -4,4"/>
<text text-anchor="middle" x="72.4936" y="-7.3" font-family="Helvetica,sans-Serif" font-size="11.00" fill="#000000">Generated by SchemaSpy</text>
<!-- branch_draft_content -->
<g id="node1" class="node">
<title>branch_draft_content</title>
<g id="a_node1"><a xlink:href="../../tables/branch_draft_content.html" xlink:title="branch_draft_content" target="_top">
<polygon fill="#ffffff" stroke="transparent" points="240.5,-402.2 240.5,-463.2 402.5,-463.2 402.5,-402.2 240.5,-402.2"/>
<polygon fill="#f5f5f5" stroke="transparent" points="240.5,-439.7 240.5,-462.7 402.5,-462.7 402.5,-439.7 240.5,-439.7"/>
<polygon fill="none" stroke="#000000" points="240.5,-439.7 240.5,-462.7 402.5,-462.7 402.5,-439.7 240.5,-439.7"/>
<text text-anchor="start" x="245.5" y="-448.3" font-family="Helvetica,sans-Serif" font-weight="bold" font-size="11.00" fill="#000000">branch_draft_content</text>
<text text-anchor="start" x="368.0219" y="-447.8" font-family="Helvetica,sans-Serif" font-size="11.00" fill="#000000">[table]</text>
<polygon fill="none" stroke="#000000" points="240.5,-420.7 240.5,-439.7 402.5,-439.7 402.5,-420.7 240.5,-420.7"/>
<text text-anchor="start" x="243.5" y="-426.8" font-family="Helvetica,sans-Serif" font-size="11.00" fill="#000000">...</text>
<polygon fill="#ffffff" stroke="transparent" points="240.5,-401.7 240.5,-420.7 319.5,-420.7 319.5,-401.7 240.5,-401.7"/>
<polygon fill="none" stroke="#000000" points="240.5,-401.7 240.5,-420.7 319.5,-420.7 319.5,-401.7 240.5,-401.7"/>
<text text-anchor="start" x="243.5" y="-407.8" font-family="Helvetica,sans-Serif" font-size="11.00" fill="#000000">&lt; 1</text>
<polygon fill="#ffffff" stroke="transparent" points="319.5,-401.7 319.5,-420.7 360.5,-420.7 360.5,-401.7 319.5,-401.7"/>
<polygon fill="none" stroke="#000000" points="319.5,-401.7 319.5,-420.7 360.5,-420.7 360.5,-401.7 319.5,-401.7"/>
<text text-anchor="start" x="351.3862" y="-407.8" font-family="Helvetica,sans-Serif" font-size="11.00" fill="#000000"> &#160;</text>
<polygon fill="#ffffff" stroke="transparent" points="360.5,-401.7 360.5,-420.7 402.5,-420.7 402.5,-401.7 360.5,-401.7"/>
<polygon fill="none" stroke="#000000" points="360.5,-401.7 360.5,-420.7 402.5,-420.7 402.5,-401.7 360.5,-401.7"/>
<text text-anchor="start" x="393.3862" y="-407.8" font-family="Helvetica,sans-Serif" font-size="11.00" fill="#000000"> &#160;</text>
</a>
</g>
</g>
<!-- project -->
<g id="node2" class="node">
<title>project</title>
<g id="a_node2"><a xlink:href="../../tables/project.html" xlink:title="project" target="_top">
<polygon fill="#ffffff" stroke="transparent" points="8,-256.2 8,-339.2 152,-339.2 152,-256.2 8,-256.2"/>
<polygon fill="#f5f5f5" stroke="transparent" points="8,-315.7 8,-338.7 152,-338.7 152,-315.7 8,-315.7"/>
<polygon fill="none" stroke="#000000" points="8,-315.7 8,-338.7 152,-338.7 152,-315.7 8,-315.7"/>
<text text-anchor="start" x="13" y="-324.3" font-family="Helvetica,sans-Serif" font-weight="bold" font-size="11.00" fill="#000000">project</text>
<text text-anchor="start" x="117.0437" y="-323.8" font-family="Helvetica,sans-Serif" font-size="11.00" fill="#000000">[table]</text>
<polygon fill="none" stroke="#000000" points="8,-293.7 8,-315.7 152,-315.7 152,-293.7 8,-293.7"/>
<image xlink:href="../../images/primaryKeys.png" width="11px" height="12px" preserveAspectRatio="xMinYMin meet" x="13" y="-310.7"/>
<text text-anchor="start" x="28" y="-300.8" font-family="Helvetica,sans-Serif" font-size="11.00" fill="#000000">id</text>
<polygon fill="none" stroke="#000000" points="8,-274.7 8,-293.7 152,-293.7 152,-274.7 8,-274.7"/>
<text text-anchor="start" x="11" y="-280.8" font-family="Helvetica,sans-Serif" font-size="11.00" fill="#000000">...</text>
<polygon fill="#ffffff" stroke="transparent" points="8,-255.7 8,-274.7 69,-274.7 69,-255.7 8,-255.7"/>
<polygon fill="none" stroke="#000000" points="8,-255.7 8,-274.7 69,-274.7 69,-255.7 8,-255.7"/>
<text text-anchor="start" x="11" y="-261.8" font-family="Helvetica,sans-Serif" font-size="11.00" fill="#000000"> &#160;</text>
<polygon fill="#ffffff" stroke="transparent" points="69,-255.7 69,-274.7 106,-274.7 106,-255.7 69,-255.7"/>
<polygon fill="none" stroke="#000000" points="69,-255.7 69,-274.7 106,-274.7 106,-255.7 69,-255.7"/>
<text text-anchor="start" x="96.8862" y="-261.8" font-family="Helvetica,sans-Serif" font-size="11.00" fill="#000000"> &#160;</text>
<polygon fill="#ffffff" stroke="transparent" points="106,-255.7 106,-274.7 152,-274.7 152,-255.7 106,-255.7"/>
<polygon fill="none" stroke="#000000" points="106,-255.7 106,-274.7 152,-274.7 152,-255.7 106,-255.7"/>
<text text-anchor="start" x="133.4053" y="-261.8" font-family="Helvetica,sans-Serif" font-size="11.00" fill="#000000">4 &gt;</text>
</a>
</g>
</g>
<!-- branch_draft_content&#45;&gt;project -->
<g id="edge1" class="edge">
<title>branch_draft_content:w&#45;&gt;project:e</title>
<path fill="none" stroke="#000000" d="M226.1635,-427.576C211.3178,-422.4236 206.2176,-408.4445 193,-391.7 166.5153,-358.1483 194.7453,-304.7 152,-304.7"/>
<polygon fill="#000000" stroke="#000000" points="232.5864,-428.5275 239.9724,-433.2611 236.5432,-429.1138 240.5,-429.7 240.5,-429.7 240.5,-429.7 236.5432,-429.1138 241.0276,-426.1389 232.5864,-428.5275 232.5864,-428.5275"/>
<ellipse fill="none" stroke="#000000" cx="229.4209" cy="-428.0586" rx="3.2" ry="3.2"/>
</g>
<!-- branch_draft_reference -->
<g id="node3" class="node">
<title>branch_draft_reference</title>
<g id="a_node3"><a xlink:href="../../tables/branch_draft_reference.html" xlink:title="branch_draft_reference" target="_top">
<polygon fill="#ffffff" stroke="transparent" points="235,-320.2 235,-381.2 408,-381.2 408,-320.2 235,-320.2"/>
<polygon fill="#f5f5f5" stroke="transparent" points="235.5,-357.7 235.5,-380.7 408.5,-380.7 408.5,-357.7 235.5,-357.7"/>
<polygon fill="none" stroke="#000000" points="235.5,-357.7 235.5,-380.7 408.5,-380.7 408.5,-357.7 235.5,-357.7"/>
<text text-anchor="start" x="240.5" y="-366.3" font-family="Helvetica,sans-Serif" font-weight="bold" font-size="11.00" fill="#000000">branch_draft_reference</text>
<text text-anchor="start" x="374.0219" y="-365.8" font-family="Helvetica,sans-Serif" font-size="11.00" fill="#000000">[table]</text>
<polygon fill="none" stroke="#000000" points="235.5,-338.7 235.5,-357.7 408.5,-357.7 408.5,-338.7 235.5,-338.7"/>
<text text-anchor="start" x="238.5" y="-344.8" font-family="Helvetica,sans-Serif" font-size="11.00" fill="#000000">...</text>
<polygon fill="#ffffff" stroke="transparent" points="235.5,-319.7 235.5,-338.7 320.5,-338.7 320.5,-319.7 235.5,-319.7"/>
<polygon fill="none" stroke="#000000" points="235.5,-319.7 235.5,-338.7 320.5,-338.7 320.5,-319.7 235.5,-319.7"/>
<text text-anchor="start" x="238.5" y="-325.8" font-family="Helvetica,sans-Serif" font-size="11.00" fill="#000000">&lt; 1</text>
<polygon fill="#ffffff" stroke="transparent" points="320.5,-319.7 320.5,-338.7 364.5,-338.7 364.5,-319.7 320.5,-319.7"/>
<polygon fill="none" stroke="#000000" points="320.5,-319.7 320.5,-338.7 364.5,-338.7 364.5,-319.7 320.5,-319.7"/>
<text text-anchor="start" x="355.3862" y="-325.8" font-family="Helvetica,sans-Serif" font-size="11.00" fill="#000000"> &#160;</text>
<polygon fill="#ffffff" stroke="transparent" points="364.5,-319.7 364.5,-338.7 408.5,-338.7 408.5,-319.7 364.5,-319.7"/>
<polygon fill="none" stroke="#000000" points="364.5,-319.7 364.5,-338.7 408.5,-338.7 408.5,-319.7 364.5,-319.7"/>
<text text-anchor="start" x="399.3862" y="-325.8" font-family="Helvetica,sans-Serif" font-size="11.00" fill="#000000"> &#160;</text>
</a>
</g>
</g>
<!-- branch_draft_reference&#45;&gt;project -->
<g id="edge2" class="edge">
<title>branch_draft_reference:w&#45;&gt;project:e</title>
<path fill="none" stroke="#000000" d="M220.8807,-345.626C193.0173,-337.0366 188.1989,-304.7 152,-304.7"/>
<polygon fill="#000000" stroke="#000000" points="227.5793,-346.5763 234.9943,-351.2643 231.5397,-347.1381 235.5,-347.7 235.5,-347.7 235.5,-347.7 231.5397,-347.1381 236.0057,-344.1357 227.5793,-346.5763 227.5793,-346.5763"/>
<ellipse fill="none" stroke="#000000" cx="224.411" cy="-346.1268" rx="3.2" ry="3.2"/>
</g>
<!-- drafted_branches -->
<g id="node4" class="node">
<title>drafted_branches</title>
<g id="a_node4"><a xlink:href="../../tables/drafted_branches.html" xlink:title="drafted_branches" target="_top">
<polygon fill="#ffffff" stroke="transparent" points="201,-120.7 201,-298.7 442,-298.7 442,-120.7 201,-120.7"/>
<polygon fill="#f5f5f5" stroke="transparent" points="203.5,-273.7 203.5,-296.7 440.5,-296.7 440.5,-273.7 203.5,-273.7"/>
<polygon fill="none" stroke="#000000" points="203.5,-273.7 203.5,-296.7 440.5,-296.7 440.5,-273.7 203.5,-273.7"/>
<text text-anchor="start" x="208.5" y="-282.3" font-family="Helvetica,sans-Serif" font-weight="bold" font-size="11.00" fill="#000000">drafted_branches</text>
<text text-anchor="start" x="405.5437" y="-281.8" font-family="Helvetica,sans-Serif" font-size="11.00" fill="#000000">[table]</text>
<polygon fill="none" stroke="#000000" points="203.5,-251.7 203.5,-273.7 324.5,-273.7 324.5,-251.7 203.5,-251.7"/>
<image xlink:href="../../images/primaryKeys.png" width="11px" height="12px" preserveAspectRatio="xMinYMin meet" x="208.5" y="-268.7"/>
<text text-anchor="start" x="223.5" y="-258.8" font-family="Helvetica,sans-Serif" font-size="11.00" fill="#000000">project_id</text>
<polygon fill="none" stroke="#000000" points="324.5,-251.7 324.5,-273.7 440.5,-273.7 440.5,-251.7 324.5,-251.7"/>
<text text-anchor="start" x="327.5" y="-259.4" font-family="Helvetica,sans-Serif" font-size="11.00" fill="#000000">varchar[2147483647]</text>
<polygon fill="none" stroke="#000000" points="203.5,-229.7 203.5,-251.7 324.5,-251.7 324.5,-229.7 203.5,-229.7"/>
<image xlink:href="../../images/primaryKeys.png" width="11px" height="12px" preserveAspectRatio="xMinYMin meet" x="208.5" y="-246.7"/>
<text text-anchor="start" x="223.5" y="-236.8" font-family="Helvetica,sans-Serif" font-size="11.00" fill="#000000">branch_name</text>
<polygon fill="none" stroke="#000000" points="324.5,-229.7 324.5,-251.7 440.5,-251.7 440.5,-229.7 324.5,-229.7"/>
<text text-anchor="start" x="327.5" y="-237.4" font-family="Helvetica,sans-Serif" font-size="11.00" fill="#000000">varchar[2147483647]</text>
<polygon fill="none" stroke="#000000" points="203.5,-207.7 203.5,-229.7 324.5,-229.7 324.5,-207.7 203.5,-207.7"/>
<text text-anchor="start" x="223.5" y="-214.8" font-family="Helvetica,sans-Serif" font-size="11.00" fill="#000000">change_type</text>
<polygon fill="none" stroke="#000000" points="324.5,-207.7 324.5,-229.7 440.5,-229.7 440.5,-207.7 324.5,-207.7"/>
<text text-anchor="start" x="327.5" y="-215.4" font-family="Helvetica,sans-Serif" font-size="11.00" fill="#000000">varchar[2147483647]</text>
<polygon fill="none" stroke="#000000" points="203.5,-185.7 203.5,-207.7 324.5,-207.7 324.5,-185.7 203.5,-185.7"/>
<text text-anchor="start" x="223.5" y="-192.8" font-family="Helvetica,sans-Serif" font-size="11.00" fill="#000000">original_config</text>
<polygon fill="none" stroke="#000000" points="324.5,-185.7 324.5,-207.7 440.5,-207.7 440.5,-185.7 324.5,-185.7"/>
<text text-anchor="start" x="327.5" y="-193.4" font-family="Helvetica,sans-Serif" font-size="11.00" fill="#000000">bytea[2147483647]</text>
<polygon fill="none" stroke="#000000" points="203.5,-163.7 203.5,-185.7 324.5,-185.7 324.5,-163.7 203.5,-163.7"/>
<text text-anchor="start" x="223.5" y="-170.8" font-family="Helvetica,sans-Serif" font-size="11.00" fill="#000000">editors</text>
<polygon fill="none" stroke="#000000" points="324.5,-163.7 324.5,-185.7 440.5,-185.7 440.5,-163.7 324.5,-163.7"/>
<text text-anchor="start" x="327.4769" y="-171.4" font-family="Helvetica,sans-Serif" font-size="11.00" fill="#000000">_varchar[2147483647]</text>
<polygon fill="none" stroke="#000000" points="203.5,-141.7 203.5,-163.7 324.5,-163.7 324.5,-141.7 203.5,-141.7"/>
<text text-anchor="start" x="223.5" y="-148.8" font-family="Helvetica,sans-Serif" font-size="11.00" fill="#000000">commit_id</text>
<polygon fill="none" stroke="#000000" points="324.5,-141.7 324.5,-163.7 440.5,-163.7 440.5,-141.7 324.5,-141.7"/>
<text text-anchor="start" x="327.5" y="-149.4" font-family="Helvetica,sans-Serif" font-size="11.00" fill="#000000">varchar[2147483647]</text>
<polygon fill="#ffffff" stroke="transparent" points="203.5,-122.7 203.5,-141.7 268.5,-141.7 268.5,-122.7 203.5,-122.7"/>
<polygon fill="none" stroke="#000000" points="203.5,-122.7 203.5,-141.7 268.5,-141.7 268.5,-122.7 203.5,-122.7"/>
<text text-anchor="start" x="206.5" y="-128.8" font-family="Helvetica,sans-Serif" font-size="11.00" fill="#000000">&lt; 1</text>
<polygon fill="#ffffff" stroke="transparent" points="268.5,-122.7 268.5,-141.7 324.5,-141.7 324.5,-122.7 268.5,-122.7"/>
<polygon fill="none" stroke="#000000" points="268.5,-122.7 268.5,-141.7 324.5,-141.7 324.5,-122.7 268.5,-122.7"/>
<text text-anchor="start" x="315.3862" y="-128.8" font-family="Helvetica,sans-Serif" font-size="11.00" fill="#000000"> &#160;</text>
<polygon fill="#ffffff" stroke="transparent" points="324.5,-122.7 324.5,-141.7 440.5,-141.7 440.5,-122.7 324.5,-122.7"/>
<polygon fill="none" stroke="#000000" points="324.5,-122.7 324.5,-141.7 440.5,-141.7 440.5,-122.7 324.5,-122.7"/>
<text text-anchor="start" x="421.9053" y="-128.8" font-family="Helvetica,sans-Serif" font-size="11.00" fill="#000000">0 &gt;</text>
<polygon fill="none" stroke="#000000" stroke-width="2" points="202,-121.7 202,-297.7 441,-297.7 441,-121.7 202,-121.7"/>
</a>
</g>
</g>
<!-- drafted_branches&#45;&gt;project -->
<g id="edge3" class="edge">
<title>drafted_branches:w&#45;&gt;project:e</title>
<path fill="none" stroke="#000000" d="M189.4729,-267.1947C175.5092,-278.0296 175.5361,-304.7 152,-304.7"/>
<polygon fill="#000000" stroke="#000000" points="195.8816,-265.1412 204.5986,-266.1283 199.6908,-263.9206 203.5,-262.7 203.5,-262.7 203.5,-262.7 199.6908,-263.9206 202.4014,-259.2717 195.8816,-265.1412 195.8816,-265.1412"/>
<ellipse fill="none" stroke="#000000" cx="192.8342" cy="-266.1177" rx="3.2" ry="3.2"/>
</g>
<!-- favorite_projects -->
<g id="node5" class="node">
<title>favorite_projects</title>
<g id="a_node5"><a xlink:href="../../tables/favorite_projects.html" xlink:title="favorite_projects" target="_top">
<polygon fill="#ffffff" stroke="transparent" points="254,-38.2 254,-99.2 389,-99.2 389,-38.2 254,-38.2"/>
<polygon fill="#f5f5f5" stroke="transparent" points="254.5,-75.7 254.5,-98.7 389.5,-98.7 389.5,-75.7 254.5,-75.7"/>
<polygon fill="none" stroke="#000000" points="254.5,-75.7 254.5,-98.7 389.5,-98.7 389.5,-75.7 254.5,-75.7"/>
<text text-anchor="start" x="259.5" y="-84.3" font-family="Helvetica,sans-Serif" font-weight="bold" font-size="11.00" fill="#000000">favorite_projects</text>
<text text-anchor="start" x="355.0219" y="-83.8" font-family="Helvetica,sans-Serif" font-size="11.00" fill="#000000">[table]</text>
<polygon fill="none" stroke="#000000" points="254.5,-56.7 254.5,-75.7 389.5,-75.7 389.5,-56.7 254.5,-56.7"/>
<text text-anchor="start" x="257.5" y="-62.8" font-family="Helvetica,sans-Serif" font-size="11.00" fill="#000000">...</text>
<polygon fill="#ffffff" stroke="transparent" points="254.5,-37.7 254.5,-56.7 320.5,-56.7 320.5,-37.7 254.5,-37.7"/>
<polygon fill="none" stroke="#000000" points="254.5,-37.7 254.5,-56.7 320.5,-56.7 320.5,-37.7 254.5,-37.7"/>
<text text-anchor="start" x="257.5" y="-43.8" font-family="Helvetica,sans-Serif" font-size="11.00" fill="#000000">&lt; 2</text>
<polygon fill="#ffffff" stroke="transparent" points="320.5,-37.7 320.5,-56.7 354.5,-56.7 354.5,-37.7 320.5,-37.7"/>
<polygon fill="none" stroke="#000000" points="320.5,-37.7 320.5,-56.7 354.5,-56.7 354.5,-37.7 320.5,-37.7"/>
<text text-anchor="start" x="345.3862" y="-43.8" font-family="Helvetica,sans-Serif" font-size="11.00" fill="#000000"> &#160;</text>
<polygon fill="#ffffff" stroke="transparent" points="354.5,-37.7 354.5,-56.7 389.5,-56.7 389.5,-37.7 354.5,-37.7"/>
<polygon fill="none" stroke="#000000" points="354.5,-37.7 354.5,-56.7 389.5,-56.7 389.5,-37.7 354.5,-37.7"/>
<text text-anchor="start" x="380.3862" y="-43.8" font-family="Helvetica,sans-Serif" font-size="11.00" fill="#000000"> &#160;</text>
</a>
</g>
</g>
<!-- favorite_projects&#45;&gt;project -->
<g id="edge4" class="edge">
<title>favorite_projects:w&#45;&gt;project:e</title>
<path fill="none" stroke="#000000" d="M239.9828,-66.9546C217.4341,-71.3073 208.4379,-86.8092 193,-110.7 145.1705,-184.718 240.1267,-304.7 152,-304.7"/>
<polygon fill="#000000" stroke="#000000" points="246.5297,-66.3889 254.81,-69.2866 250.5149,-66.0444 254.5,-65.7 254.5,-65.7 254.5,-65.7 250.5149,-66.0444 254.19,-62.1134 246.5297,-66.3889 246.5297,-66.3889"/>
<ellipse fill="none" stroke="#000000" cx="243.3416" cy="-66.6644" rx="3.2" ry="3.2"/>
</g>
</g>
</svg>
