<?xml version="1.0" encoding="UTF-8" standalone="no"?>
<!DOCTYPE svg PUBLIC "-//W3C//DTD SVG 1.1//EN"
 "http://www.w3.org/Graphics/SVG/1.1/DTD/svg11.dtd">
<!-- Generated by graphviz version 2.40.1 (20161225.0304)
 -->
<!-- Title: oneDegreeRelationshipsDiagram Pages: 1 -->
<svg width="458pt" height="228pt"
 viewBox="0.00 0.00 458.00 228.20" xmlns="http://www.w3.org/2000/svg" xmlns:xlink="http://www.w3.org/1999/xlink">
<g id="graph0" class="graph" transform="scale(1 1) rotate(0) translate(4 224.2)">
<title>oneDegreeRelationshipsDiagram</title>
<polygon fill="#ffffff" stroke="transparent" points="-4,4 -4,-224.2 454,-224.2 454,4 -4,4"/>
<text text-anchor="middle" x="72.4936" y="-7.3" font-family="Helvetica,sans-Serif" font-size="11.00" fill="#000000">Generated by SchemaSpy</text>
<!-- drafted_branches -->
<g id="node1" class="node">
<title>drafted_branches</title>
<g id="a_node1"><a xlink:href="../../tables/drafted_branches.html" xlink:title="drafted_branches" target="_top">
<polygon fill="#ffffff" stroke="transparent" points="201,-38.2 201,-216.2 442,-216.2 442,-38.2 201,-38.2"/>
<polygon fill="#f5f5f5" stroke="transparent" points="203.5,-191.2 203.5,-214.2 440.5,-214.2 440.5,-191.2 203.5,-191.2"/>
<polygon fill="none" stroke="#000000" points="203.5,-191.2 203.5,-214.2 440.5,-214.2 440.5,-191.2 203.5,-191.2"/>
<text text-anchor="start" x="208.5" y="-199.8" font-family="Helvetica,sans-Serif" font-weight="bold" font-size="11.00" fill="#000000">drafted_branches</text>
<text text-anchor="start" x="405.5437" y="-199.3" font-family="Helvetica,sans-Serif" font-size="11.00" fill="#000000">[table]</text>
<polygon fill="none" stroke="#000000" points="203.5,-169.2 203.5,-191.2 324.5,-191.2 324.5,-169.2 203.5,-169.2"/>
<image xlink:href="../../images/primaryKeys.png" width="11px" height="12px" preserveAspectRatio="xMinYMin meet" x="208.5" y="-186.2"/>
<text text-anchor="start" x="223.5" y="-176.3" font-family="Helvetica,sans-Serif" font-size="11.00" fill="#000000">project_id</text>
<polygon fill="none" stroke="#000000" points="324.5,-169.2 324.5,-191.2 440.5,-191.2 440.5,-169.2 324.5,-169.2"/>
<text text-anchor="start" x="327.5" y="-176.9" font-family="Helvetica,sans-Serif" font-size="11.00" fill="#000000">varchar[2147483647]</text>
<polygon fill="none" stroke="#000000" points="203.5,-147.2 203.5,-169.2 324.5,-169.2 324.5,-147.2 203.5,-147.2"/>
<image xlink:href="../../images/primaryKeys.png" width="11px" height="12px" preserveAspectRatio="xMinYMin meet" x="208.5" y="-164.2"/>
<text text-anchor="start" x="223.5" y="-154.3" font-family="Helvetica,sans-Serif" font-size="11.00" fill="#000000">branch_name</text>
<polygon fill="none" stroke="#000000" points="324.5,-147.2 324.5,-169.2 440.5,-169.2 440.5,-147.2 324.5,-147.2"/>
<text text-anchor="start" x="327.5" y="-154.9" font-family="Helvetica,sans-Serif" font-size="11.00" fill="#000000">varchar[2147483647]</text>
<polygon fill="none" stroke="#000000" points="203.5,-125.2 203.5,-147.2 324.5,-147.2 324.5,-125.2 203.5,-125.2"/>
<text text-anchor="start" x="223.5" y="-132.3" font-family="Helvetica,sans-Serif" font-size="11.00" fill="#000000">change_type</text>
<polygon fill="none" stroke="#000000" points="324.5,-125.2 324.5,-147.2 440.5,-147.2 440.5,-125.2 324.5,-125.2"/>
<text text-anchor="start" x="327.5" y="-132.9" font-family="Helvetica,sans-Serif" font-size="11.00" fill="#000000">varchar[2147483647]</text>
<polygon fill="none" stroke="#000000" points="203.5,-103.2 203.5,-125.2 324.5,-125.2 324.5,-103.2 203.5,-103.2"/>
<text text-anchor="start" x="223.5" y="-110.3" font-family="Helvetica,sans-Serif" font-size="11.00" fill="#000000">original_config</text>
<polygon fill="none" stroke="#000000" points="324.5,-103.2 324.5,-125.2 440.5,-125.2 440.5,-103.2 324.5,-103.2"/>
<text text-anchor="start" x="327.5" y="-110.9" font-family="Helvetica,sans-Serif" font-size="11.00" fill="#000000">bytea[2147483647]</text>
<polygon fill="none" stroke="#000000" points="203.5,-81.2 203.5,-103.2 324.5,-103.2 324.5,-81.2 203.5,-81.2"/>
<text text-anchor="start" x="223.5" y="-88.3" font-family="Helvetica,sans-Serif" font-size="11.00" fill="#000000">editors</text>
<polygon fill="none" stroke="#000000" points="324.5,-81.2 324.5,-103.2 440.5,-103.2 440.5,-81.2 324.5,-81.2"/>
<text text-anchor="start" x="327.4769" y="-88.9" font-family="Helvetica,sans-Serif" font-size="11.00" fill="#000000">_varchar[2147483647]</text>
<polygon fill="none" stroke="#000000" points="203.5,-59.2 203.5,-81.2 324.5,-81.2 324.5,-59.2 203.5,-59.2"/>
<text text-anchor="start" x="223.5" y="-66.3" font-family="Helvetica,sans-Serif" font-size="11.00" fill="#000000">commit_id</text>
<polygon fill="none" stroke="#000000" points="324.5,-59.2 324.5,-81.2 440.5,-81.2 440.5,-59.2 324.5,-59.2"/>
<text text-anchor="start" x="327.5" y="-66.9" font-family="Helvetica,sans-Serif" font-size="11.00" fill="#000000">varchar[2147483647]</text>
<polygon fill="#ffffff" stroke="transparent" points="203.5,-40.2 203.5,-59.2 268.5,-59.2 268.5,-40.2 203.5,-40.2"/>
<polygon fill="none" stroke="#000000" points="203.5,-40.2 203.5,-59.2 268.5,-59.2 268.5,-40.2 203.5,-40.2"/>
<text text-anchor="start" x="206.5" y="-46.3" font-family="Helvetica,sans-Serif" font-size="11.00" fill="#000000">&lt; 1</text>
<polygon fill="#ffffff" stroke="transparent" points="268.5,-40.2 268.5,-59.2 324.5,-59.2 324.5,-40.2 268.5,-40.2"/>
<polygon fill="none" stroke="#000000" points="268.5,-40.2 268.5,-59.2 324.5,-59.2 324.5,-40.2 268.5,-40.2"/>
<text text-anchor="start" x="315.3862" y="-46.3" font-family="Helvetica,sans-Serif" font-size="11.00" fill="#000000"> &#160;</text>
<polygon fill="#ffffff" stroke="transparent" points="324.5,-40.2 324.5,-59.2 440.5,-59.2 440.5,-40.2 324.5,-40.2"/>
<polygon fill="none" stroke="#000000" points="324.5,-40.2 324.5,-59.2 440.5,-59.2 440.5,-40.2 324.5,-40.2"/>
<text text-anchor="start" x="421.9053" y="-46.3" font-family="Helvetica,sans-Serif" font-size="11.00" fill="#000000">0 &gt;</text>
<polygon fill="none" stroke="#000000" stroke-width="2" points="202,-39.2 202,-215.2 441,-215.2 441,-39.2 202,-39.2"/>
</a>
</g>
</g>
<!-- project -->
<g id="node2" class="node">
<title>project</title>
<g id="a_node2"><a xlink:href="../../tables/project.html" xlink:title="project" target="_top">
<polygon fill="#ffffff" stroke="transparent" points="8,-131.7 8,-214.7 152,-214.7 152,-131.7 8,-131.7"/>
<polygon fill="#f5f5f5" stroke="transparent" points="8,-191.2 8,-214.2 152,-214.2 152,-191.2 8,-191.2"/>
<polygon fill="none" stroke="#000000" points="8,-191.2 8,-214.2 152,-214.2 152,-191.2 8,-191.2"/>
<text text-anchor="start" x="13" y="-199.8" font-family="Helvetica,sans-Serif" font-weight="bold" font-size="11.00" fill="#000000">project</text>
<text text-anchor="start" x="117.0437" y="-199.3" font-family="Helvetica,sans-Serif" font-size="11.00" fill="#000000">[table]</text>
<polygon fill="none" stroke="#000000" points="8,-169.2 8,-191.2 152,-191.2 152,-169.2 8,-169.2"/>
<image xlink:href="../../images/primaryKeys.png" width="11px" height="12px" preserveAspectRatio="xMinYMin meet" x="13" y="-186.2"/>
<text text-anchor="start" x="28" y="-176.3" font-family="Helvetica,sans-Serif" font-size="11.00" fill="#000000">id</text>
<polygon fill="none" stroke="#000000" points="8,-150.2 8,-169.2 152,-169.2 152,-150.2 8,-150.2"/>
<text text-anchor="start" x="11" y="-156.3" font-family="Helvetica,sans-Serif" font-size="11.00" fill="#000000">...</text>
<polygon fill="#ffffff" stroke="transparent" points="8,-131.2 8,-150.2 69,-150.2 69,-131.2 8,-131.2"/>
<polygon fill="none" stroke="#000000" points="8,-131.2 8,-150.2 69,-150.2 69,-131.2 8,-131.2"/>
<text text-anchor="start" x="11" y="-137.3" font-family="Helvetica,sans-Serif" font-size="11.00" fill="#000000"> &#160;</text>
<polygon fill="#ffffff" stroke="transparent" points="69,-131.2 69,-150.2 106,-150.2 106,-131.2 69,-131.2"/>
<polygon fill="none" stroke="#000000" points="69,-131.2 69,-150.2 106,-150.2 106,-131.2 69,-131.2"/>
<text text-anchor="start" x="96.8862" y="-137.3" font-family="Helvetica,sans-Serif" font-size="11.00" fill="#000000"> &#160;</text>
<polygon fill="#ffffff" stroke="transparent" points="106,-131.2 106,-150.2 152,-150.2 152,-131.2 106,-131.2"/>
<polygon fill="none" stroke="#000000" points="106,-131.2 106,-150.2 152,-150.2 152,-131.2 106,-131.2"/>
<text text-anchor="start" x="133.4053" y="-137.3" font-family="Helvetica,sans-Serif" font-size="11.00" fill="#000000">4 &gt;</text>
</a>
</g>
</g>
<!-- drafted_branches&#45;&gt;project -->
<g id="edge1" class="edge">
<title>drafted_branches:w&#45;&gt;project:e</title>
<path fill="none" stroke="#000000" d="M189.0156,-180.2C176.6771,-180.2 169.1667,-180.2 152,-180.2"/>
<polygon fill="#000000" stroke="#000000" points="195.5,-180.2001 203.5,-183.8 199.5,-180.2 203.5,-180.2 203.5,-180.2 203.5,-180.2 199.5,-180.2 203.5,-176.6 195.5,-180.2001 195.5,-180.2001"/>
<ellipse fill="none" stroke="#000000" cx="192.3" cy="-180.2001" rx="3.2" ry="3.2"/>
</g>
</g>
</svg>
