<?xml version="1.0" encoding="UTF-8" standalone="no"?>
<!DOCTYPE svg PUBLIC "-//W3C//DTD SVG 1.1//EN"
 "http://www.w3.org/Graphics/SVG/1.1/DTD/svg11.dtd">
<!-- Generated by graphviz version 2.40.1 (20161225.0304)
 -->
<!-- Title: oneDegreeRelationshipsDiagram Pages: 1 -->
<svg width="434pt" height="223pt"
 viewBox="0.00 0.00 434.00 222.70" xmlns="http://www.w3.org/2000/svg" xmlns:xlink="http://www.w3.org/1999/xlink">
<g id="graph0" class="graph" transform="scale(1 1) rotate(0) translate(4 218.7)">
<title>oneDegreeRelationshipsDiagram</title>
<polygon fill="#ffffff" stroke="transparent" points="-4,4 -4,-218.7 430,-218.7 430,4 -4,4"/>
<text text-anchor="middle" x="72.4936" y="-7.3" font-family="Helvetica,sans-Serif" font-size="11.00" fill="#000000">Generated by SchemaSpy</text>
<!-- external_identity -->
<g id="node1" class="node">
<title>external_identity</title>
<g id="a_node1"><a xlink:href="../../tables/external_identity.html" xlink:title="external_identity" target="_top">
<polygon fill="#ffffff" stroke="transparent" points="189,-76.7 189,-210.7 418,-210.7 418,-76.7 189,-76.7"/>
<polygon fill="#f5f5f5" stroke="transparent" points="191.5,-185.7 191.5,-208.7 416.5,-208.7 416.5,-185.7 191.5,-185.7"/>
<polygon fill="none" stroke="#000000" points="191.5,-185.7 191.5,-208.7 416.5,-208.7 416.5,-185.7 191.5,-185.7"/>
<text text-anchor="start" x="196.5" y="-194.3" font-family="Helvetica,sans-Serif" font-weight="bold" font-size="11.00" fill="#000000">external_identity</text>
<text text-anchor="start" x="381.5437" y="-193.8" font-family="Helvetica,sans-Serif" font-size="11.00" fill="#000000">[table]</text>
<polygon fill="none" stroke="#000000" points="191.5,-163.7 191.5,-185.7 307.5,-185.7 307.5,-163.7 191.5,-163.7"/>
<image xlink:href="../../images/primaryKeys.png" width="11px" height="12px" preserveAspectRatio="xMinYMin meet" x="196.5" y="-180.7"/>
<text text-anchor="start" x="211.5" y="-170.8" font-family="Helvetica,sans-Serif" font-size="11.00" fill="#000000">provider</text>
<polygon fill="none" stroke="#000000" points="307.5,-163.7 307.5,-185.7 416.5,-185.7 416.5,-163.7 307.5,-163.7"/>
<text text-anchor="start" x="310.0344" y="-171.4" font-family="Helvetica,sans-Serif" font-size="11.00" fill="#000000">varchar[2147483647]</text>
<polygon fill="none" stroke="#000000" points="191.5,-141.7 191.5,-163.7 307.5,-163.7 307.5,-141.7 191.5,-141.7"/>
<image xlink:href="../../images/primaryKeys.png" width="11px" height="12px" preserveAspectRatio="xMinYMin meet" x="196.5" y="-158.7"/>
<text text-anchor="start" x="211.5" y="-148.8" font-family="Helvetica,sans-Serif" font-size="11.00" fill="#000000">external_id</text>
<polygon fill="none" stroke="#000000" points="307.5,-141.7 307.5,-163.7 416.5,-163.7 416.5,-141.7 307.5,-141.7"/>
<text text-anchor="start" x="310.0344" y="-149.4" font-family="Helvetica,sans-Serif" font-size="11.00" fill="#000000">varchar[2147483647]</text>
<polygon fill="none" stroke="#000000" points="191.5,-119.7 191.5,-141.7 307.5,-141.7 307.5,-119.7 191.5,-119.7"/>
<image xlink:href="../../images/foreignKeys.png" width="11px" height="12px" preserveAspectRatio="xMinYMin meet" x="196.5" y="-136.7"/>
<text text-anchor="start" x="211.5" y="-126.8" font-family="Helvetica,sans-Serif" font-size="11.00" fill="#000000">internal_id</text>
<polygon fill="none" stroke="#000000" points="307.5,-119.7 307.5,-141.7 416.5,-141.7 416.5,-119.7 307.5,-119.7"/>
<text text-anchor="start" x="310.0344" y="-127.4" font-family="Helvetica,sans-Serif" font-size="11.00" fill="#000000">varchar[2147483647]</text>
<polygon fill="none" stroke="#000000" points="191.5,-97.7 191.5,-119.7 307.5,-119.7 307.5,-97.7 191.5,-97.7"/>
<image xlink:href="../../images/primaryKeys.png" width="11px" height="12px" preserveAspectRatio="xMinYMin meet" x="196.5" y="-114.7"/>
<text text-anchor="start" x="211.5" y="-104.8" font-family="Helvetica,sans-Serif" font-size="11.00" fill="#000000">provider_id</text>
<polygon fill="none" stroke="#000000" points="307.5,-97.7 307.5,-119.7 416.5,-119.7 416.5,-97.7 307.5,-97.7"/>
<text text-anchor="start" x="310.0344" y="-105.4" font-family="Helvetica,sans-Serif" font-size="11.00" fill="#000000">varchar[2147483647]</text>
<polygon fill="#ffffff" stroke="transparent" points="191.5,-78.7 191.5,-97.7 253.5,-97.7 253.5,-78.7 191.5,-78.7"/>
<polygon fill="none" stroke="#000000" points="191.5,-78.7 191.5,-97.7 253.5,-97.7 253.5,-78.7 191.5,-78.7"/>
<text text-anchor="start" x="194.5" y="-84.8" font-family="Helvetica,sans-Serif" font-size="11.00" fill="#000000">&lt; 1</text>
<polygon fill="#ffffff" stroke="transparent" points="253.5,-78.7 253.5,-97.7 307.5,-97.7 307.5,-78.7 253.5,-78.7"/>
<polygon fill="none" stroke="#000000" points="253.5,-78.7 253.5,-97.7 307.5,-97.7 307.5,-78.7 253.5,-78.7"/>
<text text-anchor="start" x="298.3862" y="-84.8" font-family="Helvetica,sans-Serif" font-size="11.00" fill="#000000"> &#160;</text>
<polygon fill="#ffffff" stroke="transparent" points="307.5,-78.7 307.5,-97.7 416.5,-97.7 416.5,-78.7 307.5,-78.7"/>
<polygon fill="none" stroke="#000000" points="307.5,-78.7 307.5,-97.7 416.5,-97.7 416.5,-78.7 307.5,-78.7"/>
<text text-anchor="start" x="397.9053" y="-84.8" font-family="Helvetica,sans-Serif" font-size="11.00" fill="#000000">0 &gt;</text>
<polygon fill="none" stroke="#000000" stroke-width="2" points="190,-77.7 190,-209.7 417,-209.7 417,-77.7 190,-77.7"/>
</a>
</g>
</g>
<!-- user_data -->
<g id="node2" class="node">
<title>user_data</title>
<g id="a_node2"><a xlink:href="../../tables/user_data.html" xlink:title="user_data" target="_top">
<polygon fill="#ffffff" stroke="transparent" points="8,-38.2 8,-165.2 140,-165.2 140,-38.2 8,-38.2"/>
<polygon fill="#f5f5f5" stroke="transparent" points="8,-141.7 8,-164.7 140,-164.7 140,-141.7 8,-141.7"/>
<polygon fill="none" stroke="#000000" points="8,-141.7 8,-164.7 140,-164.7 140,-141.7 8,-141.7"/>
<text text-anchor="start" x="13" y="-150.3" font-family="Helvetica,sans-Serif" font-weight="bold" font-size="11.00" fill="#000000">user_data</text>
<text text-anchor="start" x="105.0437" y="-149.8" font-family="Helvetica,sans-Serif" font-size="11.00" fill="#000000">[table]</text>
<polygon fill="none" stroke="#000000" points="8,-119.7 8,-141.7 140,-141.7 140,-119.7 8,-119.7"/>
<image xlink:href="../../images/primaryKeys.png" width="11px" height="12px" preserveAspectRatio="xMinYMin meet" x="13" y="-136.7"/>
<text text-anchor="start" x="28" y="-126.8" font-family="Helvetica,sans-Serif" font-size="11.00" fill="#000000">user_id</text>
<polygon fill="#ffffff" stroke="transparent" points="8,-97.7 8,-119.7 140,-119.7 140,-97.7 8,-97.7"/>
<polygon fill="none" stroke="#000000" points="8,-97.7 8,-119.7 140,-119.7 140,-97.7 8,-97.7"/>
<text text-anchor="start" x="28" y="-104.8" font-family="Helvetica,sans-Serif" font-size="11.00" fill="#000000">email</text>
<polygon fill="#ffffff" stroke="transparent" points="8,-75.7 8,-97.7 140,-97.7 140,-75.7 8,-75.7"/>
<polygon fill="none" stroke="#000000" points="8,-75.7 8,-97.7 140,-97.7 140,-75.7 8,-75.7"/>
<text text-anchor="start" x="28" y="-82.8" font-family="Helvetica,sans-Serif" font-size="11.00" fill="#000000">private_package_id</text>
<polygon fill="none" stroke="#000000" points="8,-56.7 8,-75.7 140,-75.7 140,-56.7 8,-56.7"/>
<text text-anchor="start" x="11" y="-62.8" font-family="Helvetica,sans-Serif" font-size="11.00" fill="#000000">...</text>
<polygon fill="#ffffff" stroke="transparent" points="8,-37.7 8,-56.7 63,-56.7 63,-37.7 8,-37.7"/>
<polygon fill="none" stroke="#000000" points="8,-37.7 8,-56.7 63,-56.7 63,-37.7 8,-37.7"/>
<text text-anchor="start" x="11" y="-43.8" font-family="Helvetica,sans-Serif" font-size="11.00" fill="#000000"> &#160;</text>
<polygon fill="#ffffff" stroke="transparent" points="63,-37.7 63,-56.7 97,-56.7 97,-37.7 63,-37.7"/>
<polygon fill="none" stroke="#000000" points="63,-37.7 63,-56.7 97,-56.7 97,-37.7 63,-37.7"/>
<text text-anchor="start" x="87.8862" y="-43.8" font-family="Helvetica,sans-Serif" font-size="11.00" fill="#000000"> &#160;</text>
<polygon fill="#ffffff" stroke="transparent" points="97,-37.7 97,-56.7 140,-56.7 140,-37.7 97,-37.7"/>
<polygon fill="none" stroke="#000000" points="97,-37.7 97,-56.7 140,-56.7 140,-37.7 97,-37.7"/>
<text text-anchor="start" x="121.4053" y="-43.8" font-family="Helvetica,sans-Serif" font-size="11.00" fill="#000000">4 &gt;</text>
</a>
</g>
</g>
<!-- external_identity&#45;&gt;user_data -->
<g id="edge1" class="edge">
<title>external_identity:w&#45;&gt;user_data:e</title>
<path fill="none" stroke="#000000" d="M177.0156,-130.7C164.6771,-130.7 157.1667,-130.7 140,-130.7"/>
<polygon fill="#000000" stroke="#000000" points="183.5,-130.7001 191.5,-134.3 187.5,-130.7 191.5,-130.7 191.5,-130.7 191.5,-130.7 187.5,-130.7 191.5,-127.1 183.5,-130.7001 183.5,-130.7001"/>
<ellipse fill="none" stroke="#000000" cx="180.3" cy="-130.7001" rx="3.2" ry="3.2"/>
</g>
</g>
</svg>
