<?xml version="1.0" encoding="UTF-8" standalone="no"?>
<!DOCTYPE svg PUBLIC "-//W3C//DTD SVG 1.1//EN"
 "http://www.w3.org/Graphics/SVG/1.1/DTD/svg11.dtd">
<!-- Generated by graphviz version 2.40.1 (20161225.0304)
 -->
<!-- Title: twoDegreesRelationshipsDiagram Pages: 1 -->
<svg width="434pt" height="349pt"
 viewBox="0.00 0.00 434.00 348.70" xmlns="http://www.w3.org/2000/svg" xmlns:xlink="http://www.w3.org/1999/xlink">
<g id="graph0" class="graph" transform="scale(1 1) rotate(0) translate(4 344.7)">
<title>twoDegreesRelationshipsDiagram</title>
<polygon fill="#ffffff" stroke="transparent" points="-4,4 -4,-344.7 430,-344.7 430,4 -4,4"/>
<text text-anchor="middle" x="72.4936" y="-7.3" font-family="Helvetica,sans-Serif" font-size="11.00" fill="#000000">Generated by SchemaSpy</text>
<!-- external_identity -->
<g id="node1" class="node">
<title>external_identity</title>
<g id="a_node1"><a xlink:href="../../tables/external_identity.html" xlink:title="external_identity" target="_top">
<polygon fill="#ffffff" stroke="transparent" points="189,-202.7 189,-336.7 418,-336.7 418,-202.7 189,-202.7"/>
<polygon fill="#f5f5f5" stroke="transparent" points="191.5,-311.7 191.5,-334.7 416.5,-334.7 416.5,-311.7 191.5,-311.7"/>
<polygon fill="none" stroke="#000000" points="191.5,-311.7 191.5,-334.7 416.5,-334.7 416.5,-311.7 191.5,-311.7"/>
<text text-anchor="start" x="196.5" y="-320.3" font-family="Helvetica,sans-Serif" font-weight="bold" font-size="11.00" fill="#000000">external_identity</text>
<text text-anchor="start" x="381.5437" y="-319.8" font-family="Helvetica,sans-Serif" font-size="11.00" fill="#000000">[table]</text>
<polygon fill="none" stroke="#000000" points="191.5,-289.7 191.5,-311.7 307.5,-311.7 307.5,-289.7 191.5,-289.7"/>
<image xlink:href="../../images/primaryKeys.png" width="11px" height="12px" preserveAspectRatio="xMinYMin meet" x="196.5" y="-306.7"/>
<text text-anchor="start" x="211.5" y="-296.8" font-family="Helvetica,sans-Serif" font-size="11.00" fill="#000000">provider</text>
<polygon fill="none" stroke="#000000" points="307.5,-289.7 307.5,-311.7 416.5,-311.7 416.5,-289.7 307.5,-289.7"/>
<text text-anchor="start" x="310.0344" y="-297.4" font-family="Helvetica,sans-Serif" font-size="11.00" fill="#000000">varchar[2147483647]</text>
<polygon fill="none" stroke="#000000" points="191.5,-267.7 191.5,-289.7 307.5,-289.7 307.5,-267.7 191.5,-267.7"/>
<image xlink:href="../../images/primaryKeys.png" width="11px" height="12px" preserveAspectRatio="xMinYMin meet" x="196.5" y="-284.7"/>
<text text-anchor="start" x="211.5" y="-274.8" font-family="Helvetica,sans-Serif" font-size="11.00" fill="#000000">external_id</text>
<polygon fill="none" stroke="#000000" points="307.5,-267.7 307.5,-289.7 416.5,-289.7 416.5,-267.7 307.5,-267.7"/>
<text text-anchor="start" x="310.0344" y="-275.4" font-family="Helvetica,sans-Serif" font-size="11.00" fill="#000000">varchar[2147483647]</text>
<polygon fill="none" stroke="#000000" points="191.5,-245.7 191.5,-267.7 307.5,-267.7 307.5,-245.7 191.5,-245.7"/>
<image xlink:href="../../images/foreignKeys.png" width="11px" height="12px" preserveAspectRatio="xMinYMin meet" x="196.5" y="-262.7"/>
<text text-anchor="start" x="211.5" y="-252.8" font-family="Helvetica,sans-Serif" font-size="11.00" fill="#000000">internal_id</text>
<polygon fill="none" stroke="#000000" points="307.5,-245.7 307.5,-267.7 416.5,-267.7 416.5,-245.7 307.5,-245.7"/>
<text text-anchor="start" x="310.0344" y="-253.4" font-family="Helvetica,sans-Serif" font-size="11.00" fill="#000000">varchar[2147483647]</text>
<polygon fill="none" stroke="#000000" points="191.5,-223.7 191.5,-245.7 307.5,-245.7 307.5,-223.7 191.5,-223.7"/>
<image xlink:href="../../images/primaryKeys.png" width="11px" height="12px" preserveAspectRatio="xMinYMin meet" x="196.5" y="-240.7"/>
<text text-anchor="start" x="211.5" y="-230.8" font-family="Helvetica,sans-Serif" font-size="11.00" fill="#000000">provider_id</text>
<polygon fill="none" stroke="#000000" points="307.5,-223.7 307.5,-245.7 416.5,-245.7 416.5,-223.7 307.5,-223.7"/>
<text text-anchor="start" x="310.0344" y="-231.4" font-family="Helvetica,sans-Serif" font-size="11.00" fill="#000000">varchar[2147483647]</text>
<polygon fill="#ffffff" stroke="transparent" points="191.5,-204.7 191.5,-223.7 253.5,-223.7 253.5,-204.7 191.5,-204.7"/>
<polygon fill="none" stroke="#000000" points="191.5,-204.7 191.5,-223.7 253.5,-223.7 253.5,-204.7 191.5,-204.7"/>
<text text-anchor="start" x="194.5" y="-210.8" font-family="Helvetica,sans-Serif" font-size="11.00" fill="#000000">&lt; 1</text>
<polygon fill="#ffffff" stroke="transparent" points="253.5,-204.7 253.5,-223.7 307.5,-223.7 307.5,-204.7 253.5,-204.7"/>
<polygon fill="none" stroke="#000000" points="253.5,-204.7 253.5,-223.7 307.5,-223.7 307.5,-204.7 253.5,-204.7"/>
<text text-anchor="start" x="298.3862" y="-210.8" font-family="Helvetica,sans-Serif" font-size="11.00" fill="#000000"> &#160;</text>
<polygon fill="#ffffff" stroke="transparent" points="307.5,-204.7 307.5,-223.7 416.5,-223.7 416.5,-204.7 307.5,-204.7"/>
<polygon fill="none" stroke="#000000" points="307.5,-204.7 307.5,-223.7 416.5,-223.7 416.5,-204.7 307.5,-204.7"/>
<text text-anchor="start" x="397.9053" y="-210.8" font-family="Helvetica,sans-Serif" font-size="11.00" fill="#000000">0 &gt;</text>
<polygon fill="none" stroke="#000000" stroke-width="2" points="190,-203.7 190,-335.7 417,-335.7 417,-203.7 190,-203.7"/>
</a>
</g>
</g>
<!-- user_data -->
<g id="node2" class="node">
<title>user_data</title>
<g id="a_node2"><a xlink:href="../../tables/user_data.html" xlink:title="user_data" target="_top">
<polygon fill="#ffffff" stroke="transparent" points="8,-55.2 8,-182.2 140,-182.2 140,-55.2 8,-55.2"/>
<polygon fill="#f5f5f5" stroke="transparent" points="8,-158.7 8,-181.7 140,-181.7 140,-158.7 8,-158.7"/>
<polygon fill="none" stroke="#000000" points="8,-158.7 8,-181.7 140,-181.7 140,-158.7 8,-158.7"/>
<text text-anchor="start" x="13" y="-167.3" font-family="Helvetica,sans-Serif" font-weight="bold" font-size="11.00" fill="#000000">user_data</text>
<text text-anchor="start" x="105.0437" y="-166.8" font-family="Helvetica,sans-Serif" font-size="11.00" fill="#000000">[table]</text>
<polygon fill="none" stroke="#000000" points="8,-136.7 8,-158.7 140,-158.7 140,-136.7 8,-136.7"/>
<image xlink:href="../../images/primaryKeys.png" width="11px" height="12px" preserveAspectRatio="xMinYMin meet" x="13" y="-153.7"/>
<text text-anchor="start" x="28" y="-143.8" font-family="Helvetica,sans-Serif" font-size="11.00" fill="#000000">user_id</text>
<polygon fill="#ffffff" stroke="transparent" points="8,-114.7 8,-136.7 140,-136.7 140,-114.7 8,-114.7"/>
<polygon fill="none" stroke="#000000" points="8,-114.7 8,-136.7 140,-136.7 140,-114.7 8,-114.7"/>
<text text-anchor="start" x="28" y="-121.8" font-family="Helvetica,sans-Serif" font-size="11.00" fill="#000000">email</text>
<polygon fill="#ffffff" stroke="transparent" points="8,-92.7 8,-114.7 140,-114.7 140,-92.7 8,-92.7"/>
<polygon fill="none" stroke="#000000" points="8,-92.7 8,-114.7 140,-114.7 140,-92.7 8,-92.7"/>
<text text-anchor="start" x="28" y="-99.8" font-family="Helvetica,sans-Serif" font-size="11.00" fill="#000000">private_package_id</text>
<polygon fill="none" stroke="#000000" points="8,-73.7 8,-92.7 140,-92.7 140,-73.7 8,-73.7"/>
<text text-anchor="start" x="11" y="-79.8" font-family="Helvetica,sans-Serif" font-size="11.00" fill="#000000">...</text>
<polygon fill="#ffffff" stroke="transparent" points="8,-54.7 8,-73.7 63,-73.7 63,-54.7 8,-54.7"/>
<polygon fill="none" stroke="#000000" points="8,-54.7 8,-73.7 63,-73.7 63,-54.7 8,-54.7"/>
<text text-anchor="start" x="11" y="-60.8" font-family="Helvetica,sans-Serif" font-size="11.00" fill="#000000"> &#160;</text>
<polygon fill="#ffffff" stroke="transparent" points="63,-54.7 63,-73.7 97,-73.7 97,-54.7 63,-54.7"/>
<polygon fill="none" stroke="#000000" points="63,-54.7 63,-73.7 97,-73.7 97,-54.7 63,-54.7"/>
<text text-anchor="start" x="87.8862" y="-60.8" font-family="Helvetica,sans-Serif" font-size="11.00" fill="#000000"> &#160;</text>
<polygon fill="#ffffff" stroke="transparent" points="97,-54.7 97,-73.7 140,-73.7 140,-54.7 97,-54.7"/>
<polygon fill="none" stroke="#000000" points="97,-54.7 97,-73.7 140,-73.7 140,-54.7 97,-54.7"/>
<text text-anchor="start" x="121.4053" y="-60.8" font-family="Helvetica,sans-Serif" font-size="11.00" fill="#000000">3 &gt;</text>
</a>
</g>
</g>
<!-- external_identity&#45;&gt;user_data -->
<g id="edge1" class="edge">
<title>external_identity:w&#45;&gt;user_data:e</title>
<path fill="none" stroke="#000000" d="M177.5538,-253.0734C148.7891,-234.1602 187.7193,-147.7 140,-147.7"/>
<polygon fill="#000000" stroke="#000000" points="183.7575,-254.6866 190.594,-260.1841 187.6288,-255.6933 191.5,-256.7 191.5,-256.7 191.5,-256.7 187.6288,-255.6933 192.406,-253.2159 183.7575,-254.6866 183.7575,-254.6866"/>
<ellipse fill="none" stroke="#000000" cx="180.6605" cy="-253.8812" rx="3.2" ry="3.2"/>
</g>
<!-- favorite_packages -->
<g id="node3" class="node">
<title>favorite_packages</title>
<g id="a_node3"><a xlink:href="../../tables/favorite_packages.html" xlink:title="favorite_packages" target="_top">
<polygon fill="#ffffff" stroke="transparent" points="232,-120.2 232,-181.2 375,-181.2 375,-120.2 232,-120.2"/>
<polygon fill="#f5f5f5" stroke="transparent" points="232.5,-157.7 232.5,-180.7 375.5,-180.7 375.5,-157.7 232.5,-157.7"/>
<polygon fill="none" stroke="#000000" points="232.5,-157.7 232.5,-180.7 375.5,-180.7 375.5,-157.7 232.5,-157.7"/>
<text text-anchor="start" x="237.5" y="-166.3" font-family="Helvetica,sans-Serif" font-weight="bold" font-size="11.00" fill="#000000">favorite_packages</text>
<text text-anchor="start" x="341.0219" y="-165.8" font-family="Helvetica,sans-Serif" font-size="11.00" fill="#000000">[table]</text>
<polygon fill="none" stroke="#000000" points="232.5,-138.7 232.5,-157.7 375.5,-157.7 375.5,-138.7 232.5,-138.7"/>
<text text-anchor="start" x="235.5" y="-144.8" font-family="Helvetica,sans-Serif" font-size="11.00" fill="#000000">...</text>
<polygon fill="#ffffff" stroke="transparent" points="232.5,-119.7 232.5,-138.7 302.5,-138.7 302.5,-119.7 232.5,-119.7"/>
<polygon fill="none" stroke="#000000" points="232.5,-119.7 232.5,-138.7 302.5,-138.7 302.5,-119.7 232.5,-119.7"/>
<text text-anchor="start" x="235.5" y="-125.8" font-family="Helvetica,sans-Serif" font-size="11.00" fill="#000000">&lt; 2</text>
<polygon fill="#ffffff" stroke="transparent" points="302.5,-119.7 302.5,-138.7 338.5,-138.7 338.5,-119.7 302.5,-119.7"/>
<polygon fill="none" stroke="#000000" points="302.5,-119.7 302.5,-138.7 338.5,-138.7 338.5,-119.7 302.5,-119.7"/>
<text text-anchor="start" x="329.3862" y="-125.8" font-family="Helvetica,sans-Serif" font-size="11.00" fill="#000000"> &#160;</text>
<polygon fill="#ffffff" stroke="transparent" points="338.5,-119.7 338.5,-138.7 375.5,-138.7 375.5,-119.7 338.5,-119.7"/>
<polygon fill="none" stroke="#000000" points="338.5,-119.7 338.5,-138.7 375.5,-138.7 375.5,-119.7 338.5,-119.7"/>
<text text-anchor="start" x="366.3862" y="-125.8" font-family="Helvetica,sans-Serif" font-size="11.00" fill="#000000"> &#160;</text>
</a>
</g>
</g>
<!-- favorite_packages&#45;&gt;user_data -->
<g id="edge2" class="edge">
<title>favorite_packages:w&#45;&gt;user_data:e</title>
<path fill="none" stroke="#000000" d="M218.0065,-147.7C188.2268,-147.7 175.8116,-147.7 140,-147.7"/>
<polygon fill="#000000" stroke="#000000" points="224.5,-147.7001 232.5,-151.3 228.5,-147.7 232.5,-147.7 232.5,-147.7 232.5,-147.7 228.5,-147.7 232.5,-144.1 224.5,-147.7001 224.5,-147.7001"/>
<ellipse fill="none" stroke="#000000" cx="221.3" cy="-147.7001" rx="3.2" ry="3.2"/>
</g>
<!-- personal_access_tokens -->
<g id="node4" class="node">
<title>personal_access_tokens</title>
<g id="a_node4"><a xlink:href="../../tables/personal_access_tokens.html" xlink:title="personal_access_tokens" target="_top">
<polygon fill="#ffffff" stroke="transparent" points="213,-38.2 213,-99.2 394,-99.2 394,-38.2 213,-38.2"/>
<polygon fill="#f5f5f5" stroke="transparent" points="213.5,-75.7 213.5,-98.7 394.5,-98.7 394.5,-75.7 213.5,-75.7"/>
<polygon fill="none" stroke="#000000" points="213.5,-75.7 213.5,-98.7 394.5,-98.7 394.5,-75.7 213.5,-75.7"/>
<text text-anchor="start" x="218.5" y="-84.3" font-family="Helvetica,sans-Serif" font-weight="bold" font-size="11.00" fill="#000000">personal_access_tokens</text>
<text text-anchor="start" x="360.0219" y="-83.8" font-family="Helvetica,sans-Serif" font-size="11.00" fill="#000000">[table]</text>
<polygon fill="none" stroke="#000000" points="213.5,-56.7 213.5,-75.7 394.5,-75.7 394.5,-56.7 213.5,-56.7"/>
<text text-anchor="start" x="216.5" y="-62.8" font-family="Helvetica,sans-Serif" font-size="11.00" fill="#000000">...</text>
<polygon fill="#ffffff" stroke="transparent" points="213.5,-37.7 213.5,-56.7 302.5,-56.7 302.5,-37.7 213.5,-37.7"/>
<polygon fill="none" stroke="#000000" points="213.5,-37.7 213.5,-56.7 302.5,-56.7 302.5,-37.7 213.5,-37.7"/>
<text text-anchor="start" x="216.5" y="-43.8" font-family="Helvetica,sans-Serif" font-size="11.00" fill="#000000">&lt; 1</text>
<polygon fill="#ffffff" stroke="transparent" points="302.5,-37.7 302.5,-56.7 348.5,-56.7 348.5,-37.7 302.5,-37.7"/>
<polygon fill="none" stroke="#000000" points="302.5,-37.7 302.5,-56.7 348.5,-56.7 348.5,-37.7 302.5,-37.7"/>
<text text-anchor="start" x="339.3862" y="-43.8" font-family="Helvetica,sans-Serif" font-size="11.00" fill="#000000"> &#160;</text>
<polygon fill="#ffffff" stroke="transparent" points="348.5,-37.7 348.5,-56.7 394.5,-56.7 394.5,-37.7 348.5,-37.7"/>
<polygon fill="none" stroke="#000000" points="348.5,-37.7 348.5,-56.7 394.5,-56.7 394.5,-37.7 348.5,-37.7"/>
<text text-anchor="start" x="385.3862" y="-43.8" font-family="Helvetica,sans-Serif" font-size="11.00" fill="#000000"> &#160;</text>
</a>
</g>
</g>
<!-- personal_access_tokens&#45;&gt;user_data -->
<g id="edge3" class="edge">
<title>personal_access_tokens:w&#45;&gt;user_data:e</title>
<path fill="none" stroke="#000000" d="M199.0788,-68.8144C169.2661,-83.7927 183.2065,-147.7 140,-147.7"/>
<polygon fill="#000000" stroke="#000000" points="205.6803,-67.3888 214.2599,-69.2189 209.5901,-66.5444 213.5,-65.7 213.5,-65.7 213.5,-65.7 209.5901,-66.5444 212.7401,-62.1811 205.6803,-67.3888 205.6803,-67.3888"/>
<ellipse fill="none" stroke="#000000" cx="202.5524" cy="-68.0643" rx="3.2" ry="3.2"/>
</g>
</g>
</svg>
