<?xml version="1.0" encoding="UTF-8" standalone="no"?>
<!DOCTYPE svg PUBLIC "-//W3C//DTD SVG 1.1//EN"
 "http://www.w3.org/Graphics/SVG/1.1/DTD/svg11.dtd">
<!-- Generated by graphviz version 2.40.1 (20161225.0304)
 -->
<!-- Title: twoDegreesRelationshipsDiagram Pages: 1 -->
<svg width="434pt" height="431pt"
 viewBox="0.00 0.00 434.00 430.70" xmlns="http://www.w3.org/2000/svg" xmlns:xlink="http://www.w3.org/1999/xlink">
<g id="graph0" class="graph" transform="scale(1 1) rotate(0) translate(4 426.7)">
<title>twoDegreesRelationshipsDiagram</title>
<polygon fill="#ffffff" stroke="transparent" points="-4,4 -4,-426.7 430,-426.7 430,4 -4,4"/>
<text text-anchor="middle" x="72.4936" y="-7.3" font-family="Helvetica,sans-Serif" font-size="11.00" fill="#000000">Generated by SchemaSpy</text>
<!-- external_identity -->
<g id="node1" class="node">
<title>external_identity</title>
<g id="a_node1"><a xlink:href="../../tables/external_identity.html" xlink:title="external_identity" target="_top">
<polygon fill="#ffffff" stroke="transparent" points="189,-284.7 189,-418.7 418,-418.7 418,-284.7 189,-284.7"/>
<polygon fill="#f5f5f5" stroke="transparent" points="191.5,-393.7 191.5,-416.7 416.5,-416.7 416.5,-393.7 191.5,-393.7"/>
<polygon fill="none" stroke="#000000" points="191.5,-393.7 191.5,-416.7 416.5,-416.7 416.5,-393.7 191.5,-393.7"/>
<text text-anchor="start" x="196.5" y="-402.3" font-family="Helvetica,sans-Serif" font-weight="bold" font-size="11.00" fill="#000000">external_identity</text>
<text text-anchor="start" x="381.5437" y="-401.8" font-family="Helvetica,sans-Serif" font-size="11.00" fill="#000000">[table]</text>
<polygon fill="none" stroke="#000000" points="191.5,-371.7 191.5,-393.7 307.5,-393.7 307.5,-371.7 191.5,-371.7"/>
<image xlink:href="../../images/primaryKeys.png" width="11px" height="12px" preserveAspectRatio="xMinYMin meet" x="196.5" y="-388.7"/>
<text text-anchor="start" x="211.5" y="-378.8" font-family="Helvetica,sans-Serif" font-size="11.00" fill="#000000">provider</text>
<polygon fill="none" stroke="#000000" points="307.5,-371.7 307.5,-393.7 416.5,-393.7 416.5,-371.7 307.5,-371.7"/>
<text text-anchor="start" x="310.0344" y="-379.4" font-family="Helvetica,sans-Serif" font-size="11.00" fill="#000000">varchar[2147483647]</text>
<polygon fill="none" stroke="#000000" points="191.5,-349.7 191.5,-371.7 307.5,-371.7 307.5,-349.7 191.5,-349.7"/>
<image xlink:href="../../images/primaryKeys.png" width="11px" height="12px" preserveAspectRatio="xMinYMin meet" x="196.5" y="-366.7"/>
<text text-anchor="start" x="211.5" y="-356.8" font-family="Helvetica,sans-Serif" font-size="11.00" fill="#000000">external_id</text>
<polygon fill="none" stroke="#000000" points="307.5,-349.7 307.5,-371.7 416.5,-371.7 416.5,-349.7 307.5,-349.7"/>
<text text-anchor="start" x="310.0344" y="-357.4" font-family="Helvetica,sans-Serif" font-size="11.00" fill="#000000">varchar[2147483647]</text>
<polygon fill="none" stroke="#000000" points="191.5,-327.7 191.5,-349.7 307.5,-349.7 307.5,-327.7 191.5,-327.7"/>
<image xlink:href="../../images/foreignKeys.png" width="11px" height="12px" preserveAspectRatio="xMinYMin meet" x="196.5" y="-344.7"/>
<text text-anchor="start" x="211.5" y="-334.8" font-family="Helvetica,sans-Serif" font-size="11.00" fill="#000000">internal_id</text>
<polygon fill="none" stroke="#000000" points="307.5,-327.7 307.5,-349.7 416.5,-349.7 416.5,-327.7 307.5,-327.7"/>
<text text-anchor="start" x="310.0344" y="-335.4" font-family="Helvetica,sans-Serif" font-size="11.00" fill="#000000">varchar[2147483647]</text>
<polygon fill="none" stroke="#000000" points="191.5,-305.7 191.5,-327.7 307.5,-327.7 307.5,-305.7 191.5,-305.7"/>
<image xlink:href="../../images/primaryKeys.png" width="11px" height="12px" preserveAspectRatio="xMinYMin meet" x="196.5" y="-322.7"/>
<text text-anchor="start" x="211.5" y="-312.8" font-family="Helvetica,sans-Serif" font-size="11.00" fill="#000000">provider_id</text>
<polygon fill="none" stroke="#000000" points="307.5,-305.7 307.5,-327.7 416.5,-327.7 416.5,-305.7 307.5,-305.7"/>
<text text-anchor="start" x="310.0344" y="-313.4" font-family="Helvetica,sans-Serif" font-size="11.00" fill="#000000">varchar[2147483647]</text>
<polygon fill="#ffffff" stroke="transparent" points="191.5,-286.7 191.5,-305.7 253.5,-305.7 253.5,-286.7 191.5,-286.7"/>
<polygon fill="none" stroke="#000000" points="191.5,-286.7 191.5,-305.7 253.5,-305.7 253.5,-286.7 191.5,-286.7"/>
<text text-anchor="start" x="194.5" y="-292.8" font-family="Helvetica,sans-Serif" font-size="11.00" fill="#000000">&lt; 1</text>
<polygon fill="#ffffff" stroke="transparent" points="253.5,-286.7 253.5,-305.7 307.5,-305.7 307.5,-286.7 253.5,-286.7"/>
<polygon fill="none" stroke="#000000" points="253.5,-286.7 253.5,-305.7 307.5,-305.7 307.5,-286.7 253.5,-286.7"/>
<text text-anchor="start" x="298.3862" y="-292.8" font-family="Helvetica,sans-Serif" font-size="11.00" fill="#000000"> &#160;</text>
<polygon fill="#ffffff" stroke="transparent" points="307.5,-286.7 307.5,-305.7 416.5,-305.7 416.5,-286.7 307.5,-286.7"/>
<polygon fill="none" stroke="#000000" points="307.5,-286.7 307.5,-305.7 416.5,-305.7 416.5,-286.7 307.5,-286.7"/>
<text text-anchor="start" x="397.9053" y="-292.8" font-family="Helvetica,sans-Serif" font-size="11.00" fill="#000000">0 &gt;</text>
<polygon fill="none" stroke="#000000" stroke-width="2" points="190,-285.7 190,-417.7 417,-417.7 417,-285.7 190,-285.7"/>
</a>
</g>
</g>
<!-- user_data -->
<g id="node2" class="node">
<title>user_data</title>
<g id="a_node2"><a xlink:href="../../tables/user_data.html" xlink:title="user_data" target="_top">
<polygon fill="#ffffff" stroke="transparent" points="8,-96.2 8,-223.2 140,-223.2 140,-96.2 8,-96.2"/>
<polygon fill="#f5f5f5" stroke="transparent" points="8,-199.7 8,-222.7 140,-222.7 140,-199.7 8,-199.7"/>
<polygon fill="none" stroke="#000000" points="8,-199.7 8,-222.7 140,-222.7 140,-199.7 8,-199.7"/>
<text text-anchor="start" x="13" y="-208.3" font-family="Helvetica,sans-Serif" font-weight="bold" font-size="11.00" fill="#000000">user_data</text>
<text text-anchor="start" x="105.0437" y="-207.8" font-family="Helvetica,sans-Serif" font-size="11.00" fill="#000000">[table]</text>
<polygon fill="none" stroke="#000000" points="8,-177.7 8,-199.7 140,-199.7 140,-177.7 8,-177.7"/>
<image xlink:href="../../images/primaryKeys.png" width="11px" height="12px" preserveAspectRatio="xMinYMin meet" x="13" y="-194.7"/>
<text text-anchor="start" x="28" y="-184.8" font-family="Helvetica,sans-Serif" font-size="11.00" fill="#000000">user_id</text>
<polygon fill="#ffffff" stroke="transparent" points="8,-155.7 8,-177.7 140,-177.7 140,-155.7 8,-155.7"/>
<polygon fill="none" stroke="#000000" points="8,-155.7 8,-177.7 140,-177.7 140,-155.7 8,-155.7"/>
<text text-anchor="start" x="28" y="-162.8" font-family="Helvetica,sans-Serif" font-size="11.00" fill="#000000">email</text>
<polygon fill="#ffffff" stroke="transparent" points="8,-133.7 8,-155.7 140,-155.7 140,-133.7 8,-133.7"/>
<polygon fill="none" stroke="#000000" points="8,-133.7 8,-155.7 140,-155.7 140,-133.7 8,-133.7"/>
<text text-anchor="start" x="28" y="-140.8" font-family="Helvetica,sans-Serif" font-size="11.00" fill="#000000">private_package_id</text>
<polygon fill="none" stroke="#000000" points="8,-114.7 8,-133.7 140,-133.7 140,-114.7 8,-114.7"/>
<text text-anchor="start" x="11" y="-120.8" font-family="Helvetica,sans-Serif" font-size="11.00" fill="#000000">...</text>
<polygon fill="#ffffff" stroke="transparent" points="8,-95.7 8,-114.7 63,-114.7 63,-95.7 8,-95.7"/>
<polygon fill="none" stroke="#000000" points="8,-95.7 8,-114.7 63,-114.7 63,-95.7 8,-95.7"/>
<text text-anchor="start" x="11" y="-101.8" font-family="Helvetica,sans-Serif" font-size="11.00" fill="#000000"> &#160;</text>
<polygon fill="#ffffff" stroke="transparent" points="63,-95.7 63,-114.7 97,-114.7 97,-95.7 63,-95.7"/>
<polygon fill="none" stroke="#000000" points="63,-95.7 63,-114.7 97,-114.7 97,-95.7 63,-95.7"/>
<text text-anchor="start" x="87.8862" y="-101.8" font-family="Helvetica,sans-Serif" font-size="11.00" fill="#000000"> &#160;</text>
<polygon fill="#ffffff" stroke="transparent" points="97,-95.7 97,-114.7 140,-114.7 140,-95.7 97,-95.7"/>
<polygon fill="none" stroke="#000000" points="97,-95.7 97,-114.7 140,-114.7 140,-95.7 97,-95.7"/>
<text text-anchor="start" x="121.4053" y="-101.8" font-family="Helvetica,sans-Serif" font-size="11.00" fill="#000000">4 &gt;</text>
</a>
</g>
</g>
<!-- external_identity&#45;&gt;user_data -->
<g id="edge1" class="edge">
<title>external_identity:w&#45;&gt;user_data:e</title>
<path fill="none" stroke="#000000" d="M177.2063,-335.8375C134.6163,-315.1 204.7044,-188.7 140,-188.7"/>
<polygon fill="#000000" stroke="#000000" points="183.6558,-337.129 190.7931,-342.2299 187.5779,-337.9145 191.5,-338.7 191.5,-338.7 191.5,-338.7 187.5779,-337.9145 192.2069,-335.1701 183.6558,-337.129 183.6558,-337.129"/>
<ellipse fill="none" stroke="#000000" cx="180.5181" cy="-336.5007" rx="3.2" ry="3.2"/>
</g>
<!-- favorite_packages -->
<g id="node3" class="node">
<title>favorite_packages</title>
<g id="a_node3"><a xlink:href="../../tables/favorite_packages.html" xlink:title="favorite_packages" target="_top">
<polygon fill="#ffffff" stroke="transparent" points="232,-202.2 232,-263.2 375,-263.2 375,-202.2 232,-202.2"/>
<polygon fill="#f5f5f5" stroke="transparent" points="232.5,-239.7 232.5,-262.7 375.5,-262.7 375.5,-239.7 232.5,-239.7"/>
<polygon fill="none" stroke="#000000" points="232.5,-239.7 232.5,-262.7 375.5,-262.7 375.5,-239.7 232.5,-239.7"/>
<text text-anchor="start" x="237.5" y="-248.3" font-family="Helvetica,sans-Serif" font-weight="bold" font-size="11.00" fill="#000000">favorite_packages</text>
<text text-anchor="start" x="341.0219" y="-247.8" font-family="Helvetica,sans-Serif" font-size="11.00" fill="#000000">[table]</text>
<polygon fill="none" stroke="#000000" points="232.5,-220.7 232.5,-239.7 375.5,-239.7 375.5,-220.7 232.5,-220.7"/>
<text text-anchor="start" x="235.5" y="-226.8" font-family="Helvetica,sans-Serif" font-size="11.00" fill="#000000">...</text>
<polygon fill="#ffffff" stroke="transparent" points="232.5,-201.7 232.5,-220.7 302.5,-220.7 302.5,-201.7 232.5,-201.7"/>
<polygon fill="none" stroke="#000000" points="232.5,-201.7 232.5,-220.7 302.5,-220.7 302.5,-201.7 232.5,-201.7"/>
<text text-anchor="start" x="235.5" y="-207.8" font-family="Helvetica,sans-Serif" font-size="11.00" fill="#000000">&lt; 2</text>
<polygon fill="#ffffff" stroke="transparent" points="302.5,-201.7 302.5,-220.7 338.5,-220.7 338.5,-201.7 302.5,-201.7"/>
<polygon fill="none" stroke="#000000" points="302.5,-201.7 302.5,-220.7 338.5,-220.7 338.5,-201.7 302.5,-201.7"/>
<text text-anchor="start" x="329.3862" y="-207.8" font-family="Helvetica,sans-Serif" font-size="11.00" fill="#000000"> &#160;</text>
<polygon fill="#ffffff" stroke="transparent" points="338.5,-201.7 338.5,-220.7 375.5,-220.7 375.5,-201.7 338.5,-201.7"/>
<polygon fill="none" stroke="#000000" points="338.5,-201.7 338.5,-220.7 375.5,-220.7 375.5,-201.7 338.5,-201.7"/>
<text text-anchor="start" x="366.3862" y="-207.8" font-family="Helvetica,sans-Serif" font-size="11.00" fill="#000000"> &#160;</text>
</a>
</g>
</g>
<!-- favorite_packages&#45;&gt;user_data -->
<g id="edge2" class="edge">
<title>favorite_packages:w&#45;&gt;user_data:e</title>
<path fill="none" stroke="#000000" d="M217.8786,-228.042C186.2889,-220.3715 179.5232,-188.7 140,-188.7"/>
<polygon fill="#000000" stroke="#000000" points="224.5509,-228.7985 232.0943,-233.2771 228.5255,-229.2493 232.5,-229.7 232.5,-229.7 232.5,-229.7 228.5255,-229.2493 232.9057,-226.1229 224.5509,-228.7985 224.5509,-228.7985"/>
<ellipse fill="none" stroke="#000000" cx="221.3713" cy="-228.438" rx="3.2" ry="3.2"/>
</g>
<!-- favorite_projects -->
<g id="node4" class="node">
<title>favorite_projects</title>
<g id="a_node4"><a xlink:href="../../tables/favorite_projects.html" xlink:title="favorite_projects" target="_top">
<polygon fill="#ffffff" stroke="transparent" points="236,-120.2 236,-181.2 371,-181.2 371,-120.2 236,-120.2"/>
<polygon fill="#f5f5f5" stroke="transparent" points="236.5,-157.7 236.5,-180.7 371.5,-180.7 371.5,-157.7 236.5,-157.7"/>
<polygon fill="none" stroke="#000000" points="236.5,-157.7 236.5,-180.7 371.5,-180.7 371.5,-157.7 236.5,-157.7"/>
<text text-anchor="start" x="241.5" y="-166.3" font-family="Helvetica,sans-Serif" font-weight="bold" font-size="11.00" fill="#000000">favorite_projects</text>
<text text-anchor="start" x="337.0219" y="-165.8" font-family="Helvetica,sans-Serif" font-size="11.00" fill="#000000">[table]</text>
<polygon fill="none" stroke="#000000" points="236.5,-138.7 236.5,-157.7 371.5,-157.7 371.5,-138.7 236.5,-138.7"/>
<text text-anchor="start" x="239.5" y="-144.8" font-family="Helvetica,sans-Serif" font-size="11.00" fill="#000000">...</text>
<polygon fill="#ffffff" stroke="transparent" points="236.5,-119.7 236.5,-138.7 302.5,-138.7 302.5,-119.7 236.5,-119.7"/>
<polygon fill="none" stroke="#000000" points="236.5,-119.7 236.5,-138.7 302.5,-138.7 302.5,-119.7 236.5,-119.7"/>
<text text-anchor="start" x="239.5" y="-125.8" font-family="Helvetica,sans-Serif" font-size="11.00" fill="#000000">&lt; 2</text>
<polygon fill="#ffffff" stroke="transparent" points="302.5,-119.7 302.5,-138.7 336.5,-138.7 336.5,-119.7 302.5,-119.7"/>
<polygon fill="none" stroke="#000000" points="302.5,-119.7 302.5,-138.7 336.5,-138.7 336.5,-119.7 302.5,-119.7"/>
<text text-anchor="start" x="327.3862" y="-125.8" font-family="Helvetica,sans-Serif" font-size="11.00" fill="#000000"> &#160;</text>
<polygon fill="#ffffff" stroke="transparent" points="336.5,-119.7 336.5,-138.7 371.5,-138.7 371.5,-119.7 336.5,-119.7"/>
<polygon fill="none" stroke="#000000" points="336.5,-119.7 336.5,-138.7 371.5,-138.7 371.5,-119.7 336.5,-119.7"/>
<text text-anchor="start" x="362.3862" y="-125.8" font-family="Helvetica,sans-Serif" font-size="11.00" fill="#000000"> &#160;</text>
</a>
</g>
</g>
<!-- favorite_projects&#45;&gt;user_data -->
<g id="edge3" class="edge">
<title>favorite_projects:w&#45;&gt;user_data:e</title>
<path fill="none" stroke="#000000" d="M221.7619,-149.2572C188.5323,-156.7463 181.1386,-188.7 140,-188.7"/>
<polygon fill="#000000" stroke="#000000" points="228.5443,-148.5406 236.8783,-151.2801 232.5221,-148.1203 236.5,-147.7 236.5,-147.7 236.5,-147.7 232.5221,-148.1203 236.1217,-144.1199 228.5443,-148.5406 228.5443,-148.5406"/>
<ellipse fill="none" stroke="#000000" cx="225.362" cy="-148.8769" rx="3.2" ry="3.2"/>
</g>
<!-- personal_access_tokens -->
<g id="node5" class="node">
<title>personal_access_tokens</title>
<g id="a_node5"><a xlink:href="../../tables/personal_access_tokens.html" xlink:title="personal_access_tokens" target="_top">
<polygon fill="#ffffff" stroke="transparent" points="213,-38.2 213,-99.2 394,-99.2 394,-38.2 213,-38.2"/>
<polygon fill="#f5f5f5" stroke="transparent" points="213.5,-75.7 213.5,-98.7 394.5,-98.7 394.5,-75.7 213.5,-75.7"/>
<polygon fill="none" stroke="#000000" points="213.5,-75.7 213.5,-98.7 394.5,-98.7 394.5,-75.7 213.5,-75.7"/>
<text text-anchor="start" x="218.5" y="-84.3" font-family="Helvetica,sans-Serif" font-weight="bold" font-size="11.00" fill="#000000">personal_access_tokens</text>
<text text-anchor="start" x="360.0219" y="-83.8" font-family="Helvetica,sans-Serif" font-size="11.00" fill="#000000">[table]</text>
<polygon fill="none" stroke="#000000" points="213.5,-56.7 213.5,-75.7 394.5,-75.7 394.5,-56.7 213.5,-56.7"/>
<text text-anchor="start" x="216.5" y="-62.8" font-family="Helvetica,sans-Serif" font-size="11.00" fill="#000000">...</text>
<polygon fill="#ffffff" stroke="transparent" points="213.5,-37.7 213.5,-56.7 302.5,-56.7 302.5,-37.7 213.5,-37.7"/>
<polygon fill="none" stroke="#000000" points="213.5,-37.7 213.5,-56.7 302.5,-56.7 302.5,-37.7 213.5,-37.7"/>
<text text-anchor="start" x="216.5" y="-43.8" font-family="Helvetica,sans-Serif" font-size="11.00" fill="#000000">&lt; 1</text>
<polygon fill="#ffffff" stroke="transparent" points="302.5,-37.7 302.5,-56.7 348.5,-56.7 348.5,-37.7 302.5,-37.7"/>
<polygon fill="none" stroke="#000000" points="302.5,-37.7 302.5,-56.7 348.5,-56.7 348.5,-37.7 302.5,-37.7"/>
<text text-anchor="start" x="339.3862" y="-43.8" font-family="Helvetica,sans-Serif" font-size="11.00" fill="#000000"> &#160;</text>
<polygon fill="#ffffff" stroke="transparent" points="348.5,-37.7 348.5,-56.7 394.5,-56.7 394.5,-37.7 348.5,-37.7"/>
<polygon fill="none" stroke="#000000" points="348.5,-37.7 348.5,-56.7 394.5,-56.7 394.5,-37.7 348.5,-37.7"/>
<text text-anchor="start" x="385.3862" y="-43.8" font-family="Helvetica,sans-Serif" font-size="11.00" fill="#000000"> &#160;</text>
</a>
</g>
</g>
<!-- personal_access_tokens&#45;&gt;user_data -->
<g id="edge4" class="edge">
<title>personal_access_tokens:w&#45;&gt;user_data:e</title>
<path fill="none" stroke="#000000" d="M199.273,-68.3834C158.3774,-86.3709 198.0861,-188.7 140,-188.7"/>
<polygon fill="#000000" stroke="#000000" points="205.6386,-67.1828 214.1673,-69.2376 209.5693,-66.4414 213.5,-65.7 213.5,-65.7 213.5,-65.7 209.5693,-66.4414 212.8327,-62.1624 205.6386,-67.1828 205.6386,-67.1828"/>
<ellipse fill="none" stroke="#000000" cx="202.4941" cy="-67.7759" rx="3.2" ry="3.2"/>
</g>
</g>
</svg>
