<?xml version="1.0" encoding="UTF-8" standalone="no"?>
<!DOCTYPE svg PUBLIC "-//W3C//DTD SVG 1.1//EN"
 "http://www.w3.org/Graphics/SVG/1.1/DTD/svg11.dtd">
<!-- Generated by graphviz version 2.40.1 (20161225.0304)
 -->
<!-- Title: oneDegreeRelationshipsDiagram Pages: 1 -->
<svg width="447pt" height="281pt"
 viewBox="0.00 0.00 447.00 281.20" xmlns="http://www.w3.org/2000/svg" xmlns:xlink="http://www.w3.org/1999/xlink">
<g id="graph0" class="graph" transform="scale(1 1) rotate(0) translate(4 277.2)">
<title>oneDegreeRelationshipsDiagram</title>
<polygon fill="#ffffff" stroke="transparent" points="-4,4 -4,-277.2 443,-277.2 443,4 -4,4"/>
<text text-anchor="middle" x="72.4936" y="-7.3" font-family="Helvetica,sans-Serif" font-size="11.00" fill="#000000">Generated by SchemaSpy</text>
<!-- favorite_projects -->
<g id="node1" class="node">
<title>favorite_projects</title>
<g id="a_node1"><a xlink:href="../../tables/favorite_projects.html" xlink:title="favorite_projects" target="_top">
<polygon fill="#ffffff" stroke="transparent" points="201,-117.7 201,-207.7 431,-207.7 431,-117.7 201,-117.7"/>
<polygon fill="#f5f5f5" stroke="transparent" points="203,-182.7 203,-205.7 429,-205.7 429,-182.7 203,-182.7"/>
<polygon fill="none" stroke="#000000" points="203,-182.7 203,-205.7 429,-205.7 429,-182.7 203,-182.7"/>
<text text-anchor="start" x="208" y="-191.3" font-family="Helvetica,sans-Serif" font-weight="bold" font-size="11.00" fill="#000000">favorite_projects</text>
<text text-anchor="start" x="394.0437" y="-190.8" font-family="Helvetica,sans-Serif" font-size="11.00" fill="#000000">[table]</text>
<polygon fill="none" stroke="#000000" points="203,-160.7 203,-182.7 320,-182.7 320,-160.7 203,-160.7"/>
<image xlink:href="../../images/primaryKeys.png" width="11px" height="12px" preserveAspectRatio="xMinYMin meet" x="208" y="-177.7"/>
<text text-anchor="start" x="223" y="-167.8" font-family="Helvetica,sans-Serif" font-size="11.00" fill="#000000">user_id</text>
<polygon fill="none" stroke="#000000" points="320,-160.7 320,-182.7 429,-182.7 429,-160.7 320,-160.7"/>
<text text-anchor="start" x="322.5344" y="-168.4" font-family="Helvetica,sans-Serif" font-size="11.00" fill="#000000">varchar[2147483647]</text>
<polygon fill="none" stroke="#000000" points="203,-138.7 203,-160.7 320,-160.7 320,-138.7 203,-138.7"/>
<image xlink:href="../../images/primaryKeys.png" width="11px" height="12px" preserveAspectRatio="xMinYMin meet" x="208" y="-155.7"/>
<text text-anchor="start" x="223" y="-145.8" font-family="Helvetica,sans-Serif" font-size="11.00" fill="#000000">project_id</text>
<polygon fill="none" stroke="#000000" points="320,-138.7 320,-160.7 429,-160.7 429,-138.7 320,-138.7"/>
<text text-anchor="start" x="322.5344" y="-146.4" font-family="Helvetica,sans-Serif" font-size="11.00" fill="#000000">varchar[2147483647]</text>
<polygon fill="#ffffff" stroke="transparent" points="203,-119.7 203,-138.7 266,-138.7 266,-119.7 203,-119.7"/>
<polygon fill="none" stroke="#000000" points="203,-119.7 203,-138.7 266,-138.7 266,-119.7 203,-119.7"/>
<text text-anchor="start" x="206" y="-125.8" font-family="Helvetica,sans-Serif" font-size="11.00" fill="#000000">&lt; 2</text>
<polygon fill="#ffffff" stroke="transparent" points="266,-119.7 266,-138.7 320,-138.7 320,-119.7 266,-119.7"/>
<polygon fill="none" stroke="#000000" points="266,-119.7 266,-138.7 320,-138.7 320,-119.7 266,-119.7"/>
<text text-anchor="start" x="310.8862" y="-125.8" font-family="Helvetica,sans-Serif" font-size="11.00" fill="#000000"> &#160;</text>
<polygon fill="#ffffff" stroke="transparent" points="320,-119.7 320,-138.7 429,-138.7 429,-119.7 320,-119.7"/>
<polygon fill="none" stroke="#000000" points="320,-119.7 320,-138.7 429,-138.7 429,-119.7 320,-119.7"/>
<text text-anchor="start" x="410.4053" y="-125.8" font-family="Helvetica,sans-Serif" font-size="11.00" fill="#000000">0 &gt;</text>
<polygon fill="none" stroke="#000000" stroke-width="2" points="202,-118.7 202,-206.7 430,-206.7 430,-118.7 202,-118.7"/>
</a>
</g>
</g>
<!-- project -->
<g id="node2" class="node">
<title>project</title>
<g id="a_node2"><a xlink:href="../../tables/project.html" xlink:title="project" target="_top">
<polygon fill="#ffffff" stroke="transparent" points="8,-38.2 8,-121.2 152,-121.2 152,-38.2 8,-38.2"/>
<polygon fill="#f5f5f5" stroke="transparent" points="8,-97.7 8,-120.7 152,-120.7 152,-97.7 8,-97.7"/>
<polygon fill="none" stroke="#000000" points="8,-97.7 8,-120.7 152,-120.7 152,-97.7 8,-97.7"/>
<text text-anchor="start" x="13" y="-106.3" font-family="Helvetica,sans-Serif" font-weight="bold" font-size="11.00" fill="#000000">project</text>
<text text-anchor="start" x="117.0437" y="-105.8" font-family="Helvetica,sans-Serif" font-size="11.00" fill="#000000">[table]</text>
<polygon fill="none" stroke="#000000" points="8,-75.7 8,-97.7 152,-97.7 152,-75.7 8,-75.7"/>
<image xlink:href="../../images/primaryKeys.png" width="11px" height="12px" preserveAspectRatio="xMinYMin meet" x="13" y="-92.7"/>
<text text-anchor="start" x="28" y="-82.8" font-family="Helvetica,sans-Serif" font-size="11.00" fill="#000000">id</text>
<polygon fill="none" stroke="#000000" points="8,-56.7 8,-75.7 152,-75.7 152,-56.7 8,-56.7"/>
<text text-anchor="start" x="11" y="-62.8" font-family="Helvetica,sans-Serif" font-size="11.00" fill="#000000">...</text>
<polygon fill="#ffffff" stroke="transparent" points="8,-37.7 8,-56.7 69,-56.7 69,-37.7 8,-37.7"/>
<polygon fill="none" stroke="#000000" points="8,-37.7 8,-56.7 69,-56.7 69,-37.7 8,-37.7"/>
<text text-anchor="start" x="11" y="-43.8" font-family="Helvetica,sans-Serif" font-size="11.00" fill="#000000"> &#160;</text>
<polygon fill="#ffffff" stroke="transparent" points="69,-37.7 69,-56.7 106,-56.7 106,-37.7 69,-37.7"/>
<polygon fill="none" stroke="#000000" points="69,-37.7 69,-56.7 106,-56.7 106,-37.7 69,-37.7"/>
<text text-anchor="start" x="96.8862" y="-43.8" font-family="Helvetica,sans-Serif" font-size="11.00" fill="#000000"> &#160;</text>
<polygon fill="#ffffff" stroke="transparent" points="106,-37.7 106,-56.7 152,-56.7 152,-37.7 106,-37.7"/>
<polygon fill="none" stroke="#000000" points="106,-37.7 106,-56.7 152,-56.7 152,-37.7 106,-37.7"/>
<text text-anchor="start" x="133.4053" y="-43.8" font-family="Helvetica,sans-Serif" font-size="11.00" fill="#000000">4 &gt;</text>
</a>
</g>
</g>
<!-- favorite_projects&#45;&gt;project -->
<g id="edge1" class="edge">
<title>favorite_projects:w&#45;&gt;project:e</title>
<path fill="none" stroke="#000000" d="M188.9033,-144.7565C172.525,-129.9048 181.8329,-86.7 152,-86.7"/>
<polygon fill="#000000" stroke="#000000" points="195.4507,-147.0526 201.8087,-153.0972 199.2254,-148.3763 203,-149.7 203,-149.7 203,-149.7 199.2254,-148.3763 204.1913,-146.3028 195.4507,-147.0526 195.4507,-147.0526"/>
<ellipse fill="none" stroke="#000000" cx="192.431" cy="-145.9936" rx="3.2" ry="3.2"/>
</g>
<!-- user_data -->
<g id="node3" class="node">
<title>user_data</title>
<g id="a_node3"><a xlink:href="../../tables/user_data.html" xlink:title="user_data" target="_top">
<polygon fill="#ffffff" stroke="transparent" points="14,-142.2 14,-269.2 146,-269.2 146,-142.2 14,-142.2"/>
<polygon fill="#f5f5f5" stroke="transparent" points="14,-245.7 14,-268.7 146,-268.7 146,-245.7 14,-245.7"/>
<polygon fill="none" stroke="#000000" points="14,-245.7 14,-268.7 146,-268.7 146,-245.7 14,-245.7"/>
<text text-anchor="start" x="19" y="-254.3" font-family="Helvetica,sans-Serif" font-weight="bold" font-size="11.00" fill="#000000">user_data</text>
<text text-anchor="start" x="111.0437" y="-253.8" font-family="Helvetica,sans-Serif" font-size="11.00" fill="#000000">[table]</text>
<polygon fill="none" stroke="#000000" points="14,-223.7 14,-245.7 146,-245.7 146,-223.7 14,-223.7"/>
<image xlink:href="../../images/primaryKeys.png" width="11px" height="12px" preserveAspectRatio="xMinYMin meet" x="19" y="-240.7"/>
<text text-anchor="start" x="34" y="-230.8" font-family="Helvetica,sans-Serif" font-size="11.00" fill="#000000">user_id</text>
<polygon fill="#ffffff" stroke="transparent" points="14,-201.7 14,-223.7 146,-223.7 146,-201.7 14,-201.7"/>
<polygon fill="none" stroke="#000000" points="14,-201.7 14,-223.7 146,-223.7 146,-201.7 14,-201.7"/>
<text text-anchor="start" x="34" y="-208.8" font-family="Helvetica,sans-Serif" font-size="11.00" fill="#000000">email</text>
<polygon fill="#ffffff" stroke="transparent" points="14,-179.7 14,-201.7 146,-201.7 146,-179.7 14,-179.7"/>
<polygon fill="none" stroke="#000000" points="14,-179.7 14,-201.7 146,-201.7 146,-179.7 14,-179.7"/>
<text text-anchor="start" x="34" y="-186.8" font-family="Helvetica,sans-Serif" font-size="11.00" fill="#000000">private_package_id</text>
<polygon fill="none" stroke="#000000" points="14,-160.7 14,-179.7 146,-179.7 146,-160.7 14,-160.7"/>
<text text-anchor="start" x="17" y="-166.8" font-family="Helvetica,sans-Serif" font-size="11.00" fill="#000000">...</text>
<polygon fill="#ffffff" stroke="transparent" points="14,-141.7 14,-160.7 69,-160.7 69,-141.7 14,-141.7"/>
<polygon fill="none" stroke="#000000" points="14,-141.7 14,-160.7 69,-160.7 69,-141.7 14,-141.7"/>
<text text-anchor="start" x="17" y="-147.8" font-family="Helvetica,sans-Serif" font-size="11.00" fill="#000000"> &#160;</text>
<polygon fill="#ffffff" stroke="transparent" points="69,-141.7 69,-160.7 103,-160.7 103,-141.7 69,-141.7"/>
<polygon fill="none" stroke="#000000" points="69,-141.7 69,-160.7 103,-160.7 103,-141.7 69,-141.7"/>
<text text-anchor="start" x="93.8862" y="-147.8" font-family="Helvetica,sans-Serif" font-size="11.00" fill="#000000"> &#160;</text>
<polygon fill="#ffffff" stroke="transparent" points="103,-141.7 103,-160.7 146,-160.7 146,-141.7 103,-141.7"/>
<polygon fill="none" stroke="#000000" points="103,-141.7 103,-160.7 146,-160.7 146,-141.7 103,-141.7"/>
<text text-anchor="start" x="127.4053" y="-147.8" font-family="Helvetica,sans-Serif" font-size="11.00" fill="#000000">4 &gt;</text>
</a>
</g>
</g>
<!-- favorite_projects&#45;&gt;user_data -->
<g id="edge2" class="edge">
<title>favorite_projects:w&#45;&gt;user_data:e</title>
<path fill="none" stroke="#000000" d="M188.9928,-175.8336C169.6537,-189.8494 177.8596,-234.7 146,-234.7"/>
<polygon fill="#000000" stroke="#000000" points="195.3271,-173.9644 204.019,-175.1528 199.1636,-172.8322 203,-171.7 203,-171.7 203,-171.7 199.1636,-172.8322 201.981,-168.2472 195.3271,-173.9644 195.3271,-173.9644"/>
<ellipse fill="none" stroke="#000000" cx="192.258" cy="-174.8701" rx="3.2" ry="3.2"/>
</g>
</g>
</svg>
