<?xml version="1.0" encoding="UTF-8" standalone="no"?>
<!DOCTYPE svg PUBLIC "-//W3C//DTD SVG 1.1//EN"
 "http://www.w3.org/Graphics/SVG/1.1/DTD/svg11.dtd">
<!-- Generated by graphviz version 2.40.1 (20161225.0304)
 -->
<!-- Title: twoDegreesRelationshipsDiagram Pages: 1 -->
<svg width="441pt" height="469pt"
 viewBox="0.00 0.00 441.00 468.70" xmlns="http://www.w3.org/2000/svg" xmlns:xlink="http://www.w3.org/1999/xlink">
<g id="graph0" class="graph" transform="scale(1 1) rotate(0) translate(4 464.7)">
<title>twoDegreesRelationshipsDiagram</title>
<polygon fill="#ffffff" stroke="transparent" points="-4,4 -4,-464.7 437,-464.7 437,4 -4,4"/>
<text text-anchor="middle" x="72.4936" y="-7.3" font-family="Helvetica,sans-Serif" font-size="11.00" fill="#000000">Generated by SchemaSpy</text>
<!-- fts_operation_data -->
<g id="node1" class="node">
<title>fts_operation_data</title>
<g id="a_node1"><a xlink:href="../../tables/fts_operation_data.html" xlink:title="fts_operation_data" target="_top">
<polygon fill="#ffffff" stroke="transparent" points="182,-366.7 182,-456.7 425,-456.7 425,-366.7 182,-366.7"/>
<polygon fill="#f5f5f5" stroke="transparent" points="184.5,-431.7 184.5,-454.7 423.5,-454.7 423.5,-431.7 184.5,-431.7"/>
<polygon fill="none" stroke="#000000" points="184.5,-431.7 184.5,-454.7 423.5,-454.7 423.5,-431.7 184.5,-431.7"/>
<text text-anchor="start" x="189.5" y="-440.3" font-family="Helvetica,sans-Serif" font-weight="bold" font-size="11.00" fill="#000000">fts_operation_data</text>
<text text-anchor="start" x="388.5437" y="-439.8" font-family="Helvetica,sans-Serif" font-size="11.00" fill="#000000">[table]</text>
<polygon fill="none" stroke="#000000" points="184.5,-409.7 184.5,-431.7 312.5,-431.7 312.5,-409.7 184.5,-409.7"/>
<image xlink:href="../../images/primaryKeys.png" width="11px" height="12px" preserveAspectRatio="xMinYMin meet" x="189.5" y="-426.7"/>
<text text-anchor="start" x="204.5" y="-416.8" font-family="Helvetica,sans-Serif" font-size="11.00" fill="#000000">data_hash</text>
<polygon fill="none" stroke="#000000" points="312.5,-409.7 312.5,-431.7 423.5,-431.7 423.5,-409.7 312.5,-409.7"/>
<text text-anchor="start" x="315.5" y="-417.4" font-family="Helvetica,sans-Serif" font-size="11.00" fill="#000000">varchar[2147483647]</text>
<polygon fill="#ffffff" stroke="transparent" points="184.5,-387.7 184.5,-409.7 312.5,-409.7 312.5,-387.7 184.5,-387.7"/>
<polygon fill="none" stroke="#000000" points="184.5,-387.7 184.5,-409.7 312.5,-409.7 312.5,-387.7 184.5,-387.7"/>
<text text-anchor="start" x="204.5" y="-394.8" font-family="Helvetica,sans-Serif" font-size="11.00" fill="#000000">data_vector</text>
<polygon fill="none" stroke="#000000" points="312.5,-387.7 312.5,-409.7 423.5,-409.7 423.5,-387.7 312.5,-387.7"/>
<text text-anchor="start" x="315.1159" y="-395.4" font-family="Helvetica,sans-Serif" font-size="11.00" fill="#000000">tsvector[2147483647]</text>
<polygon fill="#ffffff" stroke="transparent" points="184.5,-368.7 184.5,-387.7 252.5,-387.7 252.5,-368.7 184.5,-368.7"/>
<polygon fill="none" stroke="#000000" points="184.5,-368.7 184.5,-387.7 252.5,-387.7 252.5,-368.7 184.5,-368.7"/>
<text text-anchor="start" x="187.5" y="-374.8" font-family="Helvetica,sans-Serif" font-size="11.00" fill="#000000">&lt; 1</text>
<polygon fill="#ffffff" stroke="transparent" points="252.5,-368.7 252.5,-387.7 312.5,-387.7 312.5,-368.7 252.5,-368.7"/>
<polygon fill="none" stroke="#000000" points="252.5,-368.7 252.5,-387.7 312.5,-387.7 312.5,-368.7 252.5,-368.7"/>
<text text-anchor="start" x="303.3862" y="-374.8" font-family="Helvetica,sans-Serif" font-size="11.00" fill="#000000"> &#160;</text>
<polygon fill="#ffffff" stroke="transparent" points="312.5,-368.7 312.5,-387.7 423.5,-387.7 423.5,-368.7 312.5,-368.7"/>
<polygon fill="none" stroke="#000000" points="312.5,-368.7 312.5,-387.7 423.5,-387.7 423.5,-368.7 312.5,-368.7"/>
<text text-anchor="start" x="404.9053" y="-374.8" font-family="Helvetica,sans-Serif" font-size="11.00" fill="#000000">0 &gt;</text>
<polygon fill="none" stroke="#000000" stroke-width="2" points="183,-367.7 183,-455.7 424,-455.7 424,-367.7 183,-367.7"/>
</a>
</g>
</g>
<!-- operation_data -->
<g id="node2" class="node">
<title>operation_data</title>
<g id="a_node2"><a xlink:href="../../tables/operation_data.html" xlink:title="operation_data" target="_top">
<polygon fill="#ffffff" stroke="transparent" points="8,-181.2 8,-264.2 133,-264.2 133,-181.2 8,-181.2"/>
<polygon fill="#f5f5f5" stroke="transparent" points="8.5,-240.7 8.5,-263.7 133.5,-263.7 133.5,-240.7 8.5,-240.7"/>
<polygon fill="none" stroke="#000000" points="8.5,-240.7 8.5,-263.7 133.5,-263.7 133.5,-240.7 8.5,-240.7"/>
<text text-anchor="start" x="13.5" y="-249.3" font-family="Helvetica,sans-Serif" font-weight="bold" font-size="11.00" fill="#000000">operation_data</text>
<text text-anchor="start" x="99.0219" y="-248.8" font-family="Helvetica,sans-Serif" font-size="11.00" fill="#000000">[table]</text>
<polygon fill="none" stroke="#000000" points="8.5,-218.7 8.5,-240.7 133.5,-240.7 133.5,-218.7 8.5,-218.7"/>
<image xlink:href="../../images/primaryKeys.png" width="11px" height="12px" preserveAspectRatio="xMinYMin meet" x="13.5" y="-235.7"/>
<text text-anchor="start" x="37.5" y="-225.8" font-family="Helvetica,sans-Serif" font-size="11.00" fill="#000000">data_hash</text>
<polygon fill="none" stroke="#000000" points="8.5,-199.7 8.5,-218.7 133.5,-218.7 133.5,-199.7 8.5,-199.7"/>
<text text-anchor="start" x="11.5" y="-205.8" font-family="Helvetica,sans-Serif" font-size="11.00" fill="#000000">...</text>
<polygon fill="#ffffff" stroke="transparent" points="8.5,-180.7 8.5,-199.7 60.5,-199.7 60.5,-180.7 8.5,-180.7"/>
<polygon fill="none" stroke="#000000" points="8.5,-180.7 8.5,-199.7 60.5,-199.7 60.5,-180.7 8.5,-180.7"/>
<text text-anchor="start" x="11.5" y="-186.8" font-family="Helvetica,sans-Serif" font-size="11.00" fill="#000000"> &#160;</text>
<polygon fill="#ffffff" stroke="transparent" points="60.5,-180.7 60.5,-199.7 92.5,-199.7 92.5,-180.7 60.5,-180.7"/>
<polygon fill="none" stroke="#000000" points="60.5,-180.7 60.5,-199.7 92.5,-199.7 92.5,-180.7 60.5,-180.7"/>
<text text-anchor="start" x="83.3862" y="-186.8" font-family="Helvetica,sans-Serif" font-size="11.00" fill="#000000"> &#160;</text>
<polygon fill="#ffffff" stroke="transparent" points="92.5,-180.7 92.5,-199.7 133.5,-199.7 133.5,-180.7 92.5,-180.7"/>
<polygon fill="none" stroke="#000000" points="92.5,-180.7 92.5,-199.7 133.5,-199.7 133.5,-180.7 92.5,-180.7"/>
<text text-anchor="start" x="114.9053" y="-186.8" font-family="Helvetica,sans-Serif" font-size="11.00" fill="#000000">5 &gt;</text>
</a>
</g>
</g>
<!-- fts_operation_data&#45;&gt;operation_data -->
<g id="edge1" class="edge">
<title>fts_operation_data:w&#45;&gt;operation_data:e</title>
<path fill="none" stroke="#000000" d="M173.9075,-419.5783C107.4139,-403.9253 217.416,-229.7 133.5,-229.7"/>
<polygon fill="#000000" stroke="#000000" points="184.1257,-416.638 183.2832,-424.5935 181.6921,-424.425 182.5346,-416.4695 184.1257,-416.638"/>
<polyline fill="none" stroke="#000000" points="184.5,-420.7 180.5222,-420.2787 "/>
<ellipse fill="none" stroke="#000000" cx="177.34" cy="-419.9417" rx="3.2" ry="3.2"/>
</g>
<!-- operation -->
<g id="node3" class="node">
<title>operation</title>
<g id="a_node3"><a xlink:href="../../tables/operation.html" xlink:title="operation" target="_top">
<polygon fill="#ffffff" stroke="transparent" points="257,-284.2 257,-345.2 350,-345.2 350,-284.2 257,-284.2"/>
<polygon fill="#f5f5f5" stroke="transparent" points="257.5,-321.7 257.5,-344.7 350.5,-344.7 350.5,-321.7 257.5,-321.7"/>
<polygon fill="none" stroke="#000000" points="257.5,-321.7 257.5,-344.7 350.5,-344.7 350.5,-321.7 257.5,-321.7"/>
<text text-anchor="start" x="262.5" y="-330.3" font-family="Helvetica,sans-Serif" font-weight="bold" font-size="11.00" fill="#000000">operation</text>
<text text-anchor="start" x="316.0219" y="-329.8" font-family="Helvetica,sans-Serif" font-size="11.00" fill="#000000">[table]</text>
<polygon fill="none" stroke="#000000" points="257.5,-302.7 257.5,-321.7 350.5,-321.7 350.5,-302.7 257.5,-302.7"/>
<text text-anchor="start" x="260.5" y="-308.8" font-family="Helvetica,sans-Serif" font-size="11.00" fill="#000000">...</text>
<polygon fill="#ffffff" stroke="transparent" points="257.5,-283.7 257.5,-302.7 297.5,-302.7 297.5,-283.7 257.5,-283.7"/>
<polygon fill="none" stroke="#000000" points="257.5,-283.7 257.5,-302.7 297.5,-302.7 297.5,-283.7 257.5,-283.7"/>
<text text-anchor="start" x="260.5" y="-289.8" font-family="Helvetica,sans-Serif" font-size="11.00" fill="#000000">&lt; 4</text>
<polygon fill="#ffffff" stroke="transparent" points="297.5,-283.7 297.5,-302.7 319.5,-302.7 319.5,-283.7 297.5,-283.7"/>
<polygon fill="none" stroke="#000000" points="297.5,-283.7 297.5,-302.7 319.5,-302.7 319.5,-283.7 297.5,-283.7"/>
<text text-anchor="start" x="310.3862" y="-289.8" font-family="Helvetica,sans-Serif" font-size="11.00" fill="#000000"> &#160;</text>
<polygon fill="#ffffff" stroke="transparent" points="319.5,-283.7 319.5,-302.7 350.5,-302.7 350.5,-283.7 319.5,-283.7"/>
<polygon fill="none" stroke="#000000" points="319.5,-283.7 319.5,-302.7 350.5,-302.7 350.5,-283.7 319.5,-283.7"/>
<text text-anchor="start" x="331.9053" y="-289.8" font-family="Helvetica,sans-Serif" font-size="11.00" fill="#000000">4 &gt;</text>
</a>
</g>
</g>
<!-- operation&#45;&gt;operation_data -->
<g id="edge2" class="edge">
<title>operation:w&#45;&gt;operation_data:e</title>
<path fill="none" stroke="#000000" d="M242.7709,-310.9649C213.7369,-307.7865 202.6341,-294.4435 174,-273.7 152.4759,-258.1072 160.0786,-229.7 133.5,-229.7"/>
<polygon fill="#000000" stroke="#000000" points="249.5099,-311.3012 257.3205,-315.2955 253.505,-311.5006 257.5,-311.7 257.5,-311.7 257.5,-311.7 253.505,-311.5006 257.6795,-308.1045 249.5099,-311.3012 249.5099,-311.3012"/>
<ellipse fill="none" stroke="#000000" cx="246.3139" cy="-311.1416" rx="3.2" ry="3.2"/>
</g>
<!-- ts_graphql_operation_data -->
<g id="node4" class="node">
<title>ts_graphql_operation_data</title>
<g id="a_node4"><a xlink:href="../../tables/ts_graphql_operation_data.html" xlink:title="ts_graphql_operation_data" target="_top">
<polygon fill="#ffffff" stroke="transparent" points="207,-202.2 207,-263.2 400,-263.2 400,-202.2 207,-202.2"/>
<polygon fill="#f5f5f5" stroke="transparent" points="207.5,-239.7 207.5,-262.7 400.5,-262.7 400.5,-239.7 207.5,-239.7"/>
<polygon fill="none" stroke="#000000" points="207.5,-239.7 207.5,-262.7 400.5,-262.7 400.5,-239.7 207.5,-239.7"/>
<text text-anchor="start" x="212.5" y="-248.3" font-family="Helvetica,sans-Serif" font-weight="bold" font-size="11.00" fill="#000000">ts_graphql_operation_data</text>
<text text-anchor="start" x="366.0219" y="-247.8" font-family="Helvetica,sans-Serif" font-size="11.00" fill="#000000">[table]</text>
<polygon fill="none" stroke="#000000" points="207.5,-220.7 207.5,-239.7 400.5,-239.7 400.5,-220.7 207.5,-220.7"/>
<text text-anchor="start" x="210.5" y="-226.8" font-family="Helvetica,sans-Serif" font-size="11.00" fill="#000000">...</text>
<polygon fill="#ffffff" stroke="transparent" points="207.5,-201.7 207.5,-220.7 302.5,-220.7 302.5,-201.7 207.5,-201.7"/>
<polygon fill="none" stroke="#000000" points="207.5,-201.7 207.5,-220.7 302.5,-220.7 302.5,-201.7 207.5,-201.7"/>
<text text-anchor="start" x="210.5" y="-207.8" font-family="Helvetica,sans-Serif" font-size="11.00" fill="#000000">&lt; 1</text>
<polygon fill="#ffffff" stroke="transparent" points="302.5,-201.7 302.5,-220.7 351.5,-220.7 351.5,-201.7 302.5,-201.7"/>
<polygon fill="none" stroke="#000000" points="302.5,-201.7 302.5,-220.7 351.5,-220.7 351.5,-201.7 302.5,-201.7"/>
<text text-anchor="start" x="342.3862" y="-207.8" font-family="Helvetica,sans-Serif" font-size="11.00" fill="#000000"> &#160;</text>
<polygon fill="#ffffff" stroke="transparent" points="351.5,-201.7 351.5,-220.7 400.5,-220.7 400.5,-201.7 351.5,-201.7"/>
<polygon fill="none" stroke="#000000" points="351.5,-201.7 351.5,-220.7 400.5,-220.7 400.5,-201.7 351.5,-201.7"/>
<text text-anchor="start" x="391.3862" y="-207.8" font-family="Helvetica,sans-Serif" font-size="11.00" fill="#000000"> &#160;</text>
</a>
</g>
</g>
<!-- ts_graphql_operation_data&#45;&gt;operation_data -->
<g id="edge3" class="edge">
<title>ts_graphql_operation_data:w&#45;&gt;operation_data:e</title>
<path fill="none" stroke="#000000" d="M196.8743,-229.7C172.3453,-229.7 162.5347,-229.7 133.5,-229.7"/>
<polygon fill="#000000" stroke="#000000" points="206.7,-225.7 206.7,-233.7 205.1,-233.7 205.1,-225.7 206.7,-225.7"/>
<polyline fill="none" stroke="#000000" points="207.5,-229.7 203.5,-229.7 "/>
<ellipse fill="none" stroke="#000000" cx="200.3" cy="-229.7001" rx="3.2" ry="3.2"/>
</g>
<!-- ts_operation_data -->
<g id="node5" class="node">
<title>ts_operation_data</title>
<g id="a_node5"><a xlink:href="../../tables/ts_operation_data.html" xlink:title="ts_operation_data" target="_top">
<polygon fill="#ffffff" stroke="transparent" points="232.5,-120.2 232.5,-181.2 374.5,-181.2 374.5,-120.2 232.5,-120.2"/>
<polygon fill="#f5f5f5" stroke="transparent" points="232.5,-157.7 232.5,-180.7 374.5,-180.7 374.5,-157.7 232.5,-157.7"/>
<polygon fill="none" stroke="#000000" points="232.5,-157.7 232.5,-180.7 374.5,-180.7 374.5,-157.7 232.5,-157.7"/>
<text text-anchor="start" x="237.5" y="-166.3" font-family="Helvetica,sans-Serif" font-weight="bold" font-size="11.00" fill="#000000">ts_operation_data</text>
<text text-anchor="start" x="340.0219" y="-165.8" font-family="Helvetica,sans-Serif" font-size="11.00" fill="#000000">[table]</text>
<polygon fill="none" stroke="#000000" points="232.5,-138.7 232.5,-157.7 374.5,-157.7 374.5,-138.7 232.5,-138.7"/>
<text text-anchor="start" x="235.5" y="-144.8" font-family="Helvetica,sans-Serif" font-size="11.00" fill="#000000">...</text>
<polygon fill="#ffffff" stroke="transparent" points="232.5,-119.7 232.5,-138.7 301.5,-138.7 301.5,-119.7 232.5,-119.7"/>
<polygon fill="none" stroke="#000000" points="232.5,-119.7 232.5,-138.7 301.5,-138.7 301.5,-119.7 232.5,-119.7"/>
<text text-anchor="start" x="235.5" y="-125.8" font-family="Helvetica,sans-Serif" font-size="11.00" fill="#000000">&lt; 1</text>
<polygon fill="#ffffff" stroke="transparent" points="301.5,-119.7 301.5,-138.7 337.5,-138.7 337.5,-119.7 301.5,-119.7"/>
<polygon fill="none" stroke="#000000" points="301.5,-119.7 301.5,-138.7 337.5,-138.7 337.5,-119.7 301.5,-119.7"/>
<text text-anchor="start" x="328.3862" y="-125.8" font-family="Helvetica,sans-Serif" font-size="11.00" fill="#000000"> &#160;</text>
<polygon fill="#ffffff" stroke="transparent" points="337.5,-119.7 337.5,-138.7 374.5,-138.7 374.5,-119.7 337.5,-119.7"/>
<polygon fill="none" stroke="#000000" points="337.5,-119.7 337.5,-138.7 374.5,-138.7 374.5,-119.7 337.5,-119.7"/>
<text text-anchor="start" x="365.3862" y="-125.8" font-family="Helvetica,sans-Serif" font-size="11.00" fill="#000000"> &#160;</text>
</a>
</g>
</g>
<!-- ts_operation_data&#45;&gt;operation_data -->
<g id="edge4" class="edge">
<title>ts_operation_data:w&#45;&gt;operation_data:e</title>
<path fill="none" stroke="#000000" d="M221.9673,-148.6698C199.3587,-153.254 195.8842,-173.2966 174,-191.7 155.1092,-207.5862 158.1827,-229.7 133.5,-229.7"/>
<polygon fill="#000000" stroke="#000000" points="231.3366,-143.7902 232.0701,-151.7565 230.4769,-151.9032 229.7433,-143.9369 231.3366,-143.7902"/>
<polyline fill="none" stroke="#000000" points="232.5,-147.7 228.5168,-148.0668 "/>
<ellipse fill="none" stroke="#000000" cx="225.3303" cy="-148.3602" rx="3.2" ry="3.2"/>
</g>
<!-- ts_rest_operation_data -->
<g id="node6" class="node">
<title>ts_rest_operation_data</title>
<g id="a_node6"><a xlink:href="../../tables/ts_rest_operation_data.html" xlink:title="ts_rest_operation_data" target="_top">
<polygon fill="#ffffff" stroke="transparent" points="218,-38.2 218,-99.2 389,-99.2 389,-38.2 218,-38.2"/>
<polygon fill="#f5f5f5" stroke="transparent" points="218.5,-75.7 218.5,-98.7 389.5,-98.7 389.5,-75.7 218.5,-75.7"/>
<polygon fill="none" stroke="#000000" points="218.5,-75.7 218.5,-98.7 389.5,-98.7 389.5,-75.7 218.5,-75.7"/>
<text text-anchor="start" x="223.5" y="-84.3" font-family="Helvetica,sans-Serif" font-weight="bold" font-size="11.00" fill="#000000">ts_rest_operation_data</text>
<text text-anchor="start" x="355.0219" y="-83.8" font-family="Helvetica,sans-Serif" font-size="11.00" fill="#000000">[table]</text>
<polygon fill="none" stroke="#000000" points="218.5,-56.7 218.5,-75.7 389.5,-75.7 389.5,-56.7 218.5,-56.7"/>
<text text-anchor="start" x="221.5" y="-62.8" font-family="Helvetica,sans-Serif" font-size="11.00" fill="#000000">...</text>
<polygon fill="#ffffff" stroke="transparent" points="218.5,-37.7 218.5,-56.7 302.5,-56.7 302.5,-37.7 218.5,-37.7"/>
<polygon fill="none" stroke="#000000" points="218.5,-37.7 218.5,-56.7 302.5,-56.7 302.5,-37.7 218.5,-37.7"/>
<text text-anchor="start" x="221.5" y="-43.8" font-family="Helvetica,sans-Serif" font-size="11.00" fill="#000000">&lt; 1</text>
<polygon fill="#ffffff" stroke="transparent" points="302.5,-37.7 302.5,-56.7 345.5,-56.7 345.5,-37.7 302.5,-37.7"/>
<polygon fill="none" stroke="#000000" points="302.5,-37.7 302.5,-56.7 345.5,-56.7 345.5,-37.7 302.5,-37.7"/>
<text text-anchor="start" x="336.3862" y="-43.8" font-family="Helvetica,sans-Serif" font-size="11.00" fill="#000000"> &#160;</text>
<polygon fill="#ffffff" stroke="transparent" points="345.5,-37.7 345.5,-56.7 389.5,-56.7 389.5,-37.7 345.5,-37.7"/>
<polygon fill="none" stroke="#000000" points="345.5,-37.7 345.5,-56.7 389.5,-56.7 389.5,-37.7 345.5,-37.7"/>
<text text-anchor="start" x="380.3862" y="-43.8" font-family="Helvetica,sans-Serif" font-size="11.00" fill="#000000"> &#160;</text>
</a>
</g>
</g>
<!-- ts_rest_operation_data&#45;&gt;operation_data -->
<g id="edge5" class="edge">
<title>ts_rest_operation_data:w&#45;&gt;operation_data:e</title>
<path fill="none" stroke="#000000" d="M207.6974,-66.9927C189.8252,-71.8292 186.5463,-89.6112 174,-109.7 144.1826,-157.4427 189.7889,-229.7 133.5,-229.7"/>
<polygon fill="#000000" stroke="#000000" points="217.2303,-61.8234 218.181,-69.7667 216.5923,-69.9569 215.6417,-62.0135 217.2303,-61.8234"/>
<polyline fill="none" stroke="#000000" points="218.5,-65.7 214.5283,-66.1753 "/>
<ellipse fill="none" stroke="#000000" cx="211.351" cy="-66.5556" rx="3.2" ry="3.2"/>
</g>
</g>
</svg>
