<?xml version="1.0" encoding="UTF-8" standalone="no"?>
<!DOCTYPE svg PUBLIC "-//W3C//DTD SVG 1.1//EN"
 "http://www.w3.org/Graphics/SVG/1.1/DTD/svg11.dtd">
<!-- Generated by graphviz version 2.40.1 (20161225.0304)
 -->
<!-- Title: twoDegreesRelationshipsDiagram Pages: 1 -->
<svg width="685pt" height="457pt"
 viewBox="0.00 0.00 685.00 457.20" xmlns="http://www.w3.org/2000/svg" xmlns:xlink="http://www.w3.org/1999/xlink">
<g id="graph0" class="graph" transform="scale(1 1) rotate(0) translate(4 453.2)">
<title>twoDegreesRelationshipsDiagram</title>
<polygon fill="#ffffff" stroke="transparent" points="-4,4 -4,-453.2 681,-453.2 681,4 -4,4"/>
<text text-anchor="middle" x="72.4936" y="-7.3" font-family="Helvetica,sans-Serif" font-size="11.00" fill="#000000">Generated by SchemaSpy</text>
<!-- grouped_operation -->
<g id="node1" class="node">
<title>grouped_operation</title>
<g id="a_node1"><a xlink:href="../../tables/grouped_operation.html" xlink:title="grouped_operation" target="_top">
<polygon fill="#ffffff" stroke="transparent" points="426,-98.7 426,-254.7 669,-254.7 669,-98.7 426,-98.7"/>
<polygon fill="#f5f5f5" stroke="transparent" points="428.5,-229.7 428.5,-252.7 667.5,-252.7 667.5,-229.7 428.5,-229.7"/>
<polygon fill="none" stroke="#000000" points="428.5,-229.7 428.5,-252.7 667.5,-252.7 667.5,-229.7 428.5,-229.7"/>
<text text-anchor="start" x="433.5" y="-238.3" font-family="Helvetica,sans-Serif" font-weight="bold" font-size="11.00" fill="#000000">grouped_operation</text>
<text text-anchor="start" x="632.5437" y="-237.8" font-family="Helvetica,sans-Serif" font-size="11.00" fill="#000000">[table]</text>
<polygon fill="#ffffff" stroke="transparent" points="428.5,-207.7 428.5,-229.7 558.5,-229.7 558.5,-207.7 428.5,-207.7"/>
<polygon fill="none" stroke="#000000" points="428.5,-207.7 428.5,-229.7 558.5,-229.7 558.5,-207.7 428.5,-207.7"/>
<image xlink:href="../../images/foreignKeys.png" width="11px" height="12px" preserveAspectRatio="xMinYMin meet" x="433.5" y="-224.7"/>
<text text-anchor="start" x="448.5" y="-214.8" font-family="Helvetica,sans-Serif" font-size="11.00" fill="#000000">group_id</text>
<polygon fill="none" stroke="#000000" points="558.5,-207.7 558.5,-229.7 667.5,-229.7 667.5,-207.7 558.5,-207.7"/>
<text text-anchor="start" x="561.0344" y="-215.4" font-family="Helvetica,sans-Serif" font-size="11.00" fill="#000000">varchar[2147483647]</text>
<polygon fill="#ffffff" stroke="transparent" points="428.5,-185.7 428.5,-207.7 558.5,-207.7 558.5,-185.7 428.5,-185.7"/>
<polygon fill="none" stroke="#000000" points="428.5,-185.7 428.5,-207.7 558.5,-207.7 558.5,-185.7 428.5,-185.7"/>
<image xlink:href="../../images/foreignKeys.png" width="11px" height="12px" preserveAspectRatio="xMinYMin meet" x="433.5" y="-202.7"/>
<text text-anchor="start" x="448.5" y="-192.8" font-family="Helvetica,sans-Serif" font-size="11.00" fill="#000000">package_id</text>
<polygon fill="none" stroke="#000000" points="558.5,-185.7 558.5,-207.7 667.5,-207.7 667.5,-185.7 558.5,-185.7"/>
<text text-anchor="start" x="561.0344" y="-193.4" font-family="Helvetica,sans-Serif" font-size="11.00" fill="#000000">varchar[2147483647]</text>
<polygon fill="#ffffff" stroke="transparent" points="428.5,-163.7 428.5,-185.7 558.5,-185.7 558.5,-163.7 428.5,-163.7"/>
<polygon fill="none" stroke="#000000" points="428.5,-163.7 428.5,-185.7 558.5,-185.7 558.5,-163.7 428.5,-163.7"/>
<image xlink:href="../../images/foreignKeys.png" width="11px" height="12px" preserveAspectRatio="xMinYMin meet" x="433.5" y="-180.7"/>
<text text-anchor="start" x="448.5" y="-170.8" font-family="Helvetica,sans-Serif" font-size="11.00" fill="#000000">version</text>
<polygon fill="none" stroke="#000000" points="558.5,-163.7 558.5,-185.7 667.5,-185.7 667.5,-163.7 558.5,-163.7"/>
<text text-anchor="start" x="561.0344" y="-171.4" font-family="Helvetica,sans-Serif" font-size="11.00" fill="#000000">varchar[2147483647]</text>
<polygon fill="#ffffff" stroke="transparent" points="428.5,-141.7 428.5,-163.7 558.5,-163.7 558.5,-141.7 428.5,-141.7"/>
<polygon fill="none" stroke="#000000" points="428.5,-141.7 428.5,-163.7 558.5,-163.7 558.5,-141.7 428.5,-141.7"/>
<image xlink:href="../../images/foreignKeys.png" width="11px" height="12px" preserveAspectRatio="xMinYMin meet" x="433.5" y="-158.7"/>
<text text-anchor="start" x="448.5" y="-148.8" font-family="Helvetica,sans-Serif" font-size="11.00" fill="#000000">revision</text>
<polygon fill="none" stroke="#000000" points="558.5,-141.7 558.5,-163.7 667.5,-163.7 667.5,-141.7 558.5,-141.7"/>
<text text-anchor="start" x="561.5" y="-149.4" font-family="Helvetica,sans-Serif" font-size="11.00" fill="#000000">int4[10]</text>
<polygon fill="#ffffff" stroke="transparent" points="428.5,-119.7 428.5,-141.7 558.5,-141.7 558.5,-119.7 428.5,-119.7"/>
<polygon fill="none" stroke="#000000" points="428.5,-119.7 428.5,-141.7 558.5,-141.7 558.5,-119.7 428.5,-119.7"/>
<image xlink:href="../../images/foreignKeys.png" width="11px" height="12px" preserveAspectRatio="xMinYMin meet" x="433.5" y="-136.7"/>
<text text-anchor="start" x="448.5" y="-126.8" font-family="Helvetica,sans-Serif" font-size="11.00" fill="#000000">operation_id</text>
<polygon fill="none" stroke="#000000" points="558.5,-119.7 558.5,-141.7 667.5,-141.7 667.5,-119.7 558.5,-119.7"/>
<text text-anchor="start" x="561.0344" y="-127.4" font-family="Helvetica,sans-Serif" font-size="11.00" fill="#000000">varchar[2147483647]</text>
<polygon fill="#ffffff" stroke="transparent" points="428.5,-100.7 428.5,-119.7 497.5,-119.7 497.5,-100.7 428.5,-100.7"/>
<polygon fill="none" stroke="#000000" points="428.5,-100.7 428.5,-119.7 497.5,-119.7 497.5,-100.7 428.5,-100.7"/>
<text text-anchor="start" x="431.5" y="-106.8" font-family="Helvetica,sans-Serif" font-size="11.00" fill="#000000">&lt; 5</text>
<polygon fill="#ffffff" stroke="transparent" points="497.5,-100.7 497.5,-119.7 558.5,-119.7 558.5,-100.7 497.5,-100.7"/>
<polygon fill="none" stroke="#000000" points="497.5,-100.7 497.5,-119.7 558.5,-119.7 558.5,-100.7 497.5,-100.7"/>
<text text-anchor="start" x="549.3862" y="-106.8" font-family="Helvetica,sans-Serif" font-size="11.00" fill="#000000"> &#160;</text>
<polygon fill="#ffffff" stroke="transparent" points="558.5,-100.7 558.5,-119.7 667.5,-119.7 667.5,-100.7 558.5,-100.7"/>
<polygon fill="none" stroke="#000000" points="558.5,-100.7 558.5,-119.7 667.5,-119.7 667.5,-100.7 558.5,-100.7"/>
<text text-anchor="start" x="648.9053" y="-106.8" font-family="Helvetica,sans-Serif" font-size="11.00" fill="#000000">0 &gt;</text>
<polygon fill="none" stroke="#000000" stroke-width="2" points="427,-99.7 427,-253.7 668,-253.7 668,-99.7 427,-99.7"/>
</a>
</g>
</g>
<!-- operation_group -->
<g id="node2" class="node">
<title>operation_group</title>
<g id="a_node2"><a xlink:href="../../tables/operation_group.html" xlink:title="operation_group" target="_top">
<polygon fill="#ffffff" stroke="transparent" points="222,-252.2 222,-445.2 357,-445.2 357,-252.2 222,-252.2"/>
<polygon fill="#f5f5f5" stroke="transparent" points="222.5,-421.7 222.5,-444.7 357.5,-444.7 357.5,-421.7 222.5,-421.7"/>
<polygon fill="none" stroke="#000000" points="222.5,-421.7 222.5,-444.7 357.5,-444.7 357.5,-421.7 222.5,-421.7"/>
<text text-anchor="start" x="227.5" y="-430.3" font-family="Helvetica,sans-Serif" font-weight="bold" font-size="11.00" fill="#000000">operation_group</text>
<text text-anchor="start" x="323.0219" y="-429.8" font-family="Helvetica,sans-Serif" font-size="11.00" fill="#000000">[table]</text>
<polygon fill="none" stroke="#000000" points="222.5,-399.7 222.5,-421.7 357.5,-421.7 357.5,-399.7 222.5,-399.7"/>
<image xlink:href="../../images/primaryKeys.png" width="11px" height="12px" preserveAspectRatio="xMinYMin meet" x="227.5" y="-416.7"/>
<text text-anchor="start" x="242.5" y="-406.8" font-family="Helvetica,sans-Serif" font-size="11.00" fill="#000000">package_id</text>
<polygon fill="none" stroke="#000000" points="222.5,-377.7 222.5,-399.7 357.5,-399.7 357.5,-377.7 222.5,-377.7"/>
<image xlink:href="../../images/primaryKeys.png" width="11px" height="12px" preserveAspectRatio="xMinYMin meet" x="227.5" y="-394.7"/>
<text text-anchor="start" x="242.5" y="-384.8" font-family="Helvetica,sans-Serif" font-size="11.00" fill="#000000">version</text>
<polygon fill="none" stroke="#000000" points="222.5,-355.7 222.5,-377.7 357.5,-377.7 357.5,-355.7 222.5,-355.7"/>
<image xlink:href="../../images/primaryKeys.png" width="11px" height="12px" preserveAspectRatio="xMinYMin meet" x="227.5" y="-372.7"/>
<text text-anchor="start" x="242.5" y="-362.8" font-family="Helvetica,sans-Serif" font-size="11.00" fill="#000000">revision</text>
<polygon fill="none" stroke="#000000" points="222.5,-333.7 222.5,-355.7 357.5,-355.7 357.5,-333.7 222.5,-333.7"/>
<image xlink:href="../../images/primaryKeys.png" width="11px" height="12px" preserveAspectRatio="xMinYMin meet" x="227.5" y="-350.7"/>
<text text-anchor="start" x="242.5" y="-340.8" font-family="Helvetica,sans-Serif" font-size="11.00" fill="#000000">api_type</text>
<polygon fill="none" stroke="#000000" points="222.5,-311.7 222.5,-333.7 357.5,-333.7 357.5,-311.7 222.5,-311.7"/>
<image xlink:href="../../images/primaryKeys.png" width="11px" height="12px" preserveAspectRatio="xMinYMin meet" x="227.5" y="-328.7"/>
<text text-anchor="start" x="242.5" y="-318.8" font-family="Helvetica,sans-Serif" font-size="11.00" fill="#000000">group_name</text>
<polygon fill="#ffffff" stroke="transparent" points="222.5,-289.7 222.5,-311.7 357.5,-311.7 357.5,-289.7 222.5,-289.7"/>
<polygon fill="none" stroke="#000000" points="222.5,-289.7 222.5,-311.7 357.5,-311.7 357.5,-289.7 222.5,-289.7"/>
<text text-anchor="start" x="242.5" y="-296.8" font-family="Helvetica,sans-Serif" font-size="11.00" fill="#000000">group_id</text>
<polygon fill="none" stroke="#000000" points="222.5,-270.7 222.5,-289.7 357.5,-289.7 357.5,-270.7 222.5,-270.7"/>
<text text-anchor="start" x="225.5" y="-276.8" font-family="Helvetica,sans-Serif" font-size="11.00" fill="#000000">...</text>
<polygon fill="#ffffff" stroke="transparent" points="222.5,-251.7 222.5,-270.7 283.5,-270.7 283.5,-251.7 222.5,-251.7"/>
<polygon fill="none" stroke="#000000" points="222.5,-251.7 222.5,-270.7 283.5,-270.7 283.5,-251.7 222.5,-251.7"/>
<text text-anchor="start" x="225.5" y="-257.8" font-family="Helvetica,sans-Serif" font-size="11.00" fill="#000000">&lt; 3</text>
<polygon fill="#ffffff" stroke="transparent" points="283.5,-251.7 283.5,-270.7 315.5,-270.7 315.5,-251.7 283.5,-251.7"/>
<polygon fill="none" stroke="#000000" points="283.5,-251.7 283.5,-270.7 315.5,-270.7 315.5,-251.7 283.5,-251.7"/>
<text text-anchor="start" x="306.3862" y="-257.8" font-family="Helvetica,sans-Serif" font-size="11.00" fill="#000000"> &#160;</text>
<polygon fill="#ffffff" stroke="transparent" points="315.5,-251.7 315.5,-270.7 357.5,-270.7 357.5,-251.7 315.5,-251.7"/>
<polygon fill="none" stroke="#000000" points="315.5,-251.7 315.5,-270.7 357.5,-270.7 357.5,-251.7 315.5,-251.7"/>
<text text-anchor="start" x="338.9053" y="-257.8" font-family="Helvetica,sans-Serif" font-size="11.00" fill="#000000">2 &gt;</text>
</a>
</g>
</g>
<!-- grouped_operation&#45;&gt;operation_group -->
<g id="edge1" class="edge">
<title>grouped_operation:w&#45;&gt;operation_group:e</title>
<path fill="none" stroke="#000000" d="M414.3483,-221.8144C385.2382,-236.7927 400.0581,-300.7 357.5,-300.7"/>
<polygon fill="#000000" stroke="#000000" points="420.687,-220.4195 429.2738,-222.2159 424.5935,-219.5597 428.5,-218.7 428.5,-218.7 428.5,-218.7 424.5935,-219.5597 427.7262,-215.1841 420.687,-220.4195 420.687,-220.4195"/>
<ellipse fill="none" stroke="#000000" cx="417.5617" cy="-221.1072" rx="3.2" ry="3.2"/>
</g>
<!-- operation -->
<g id="node3" class="node">
<title>operation</title>
<g id="a_node3"><a xlink:href="../../tables/operation.html" xlink:title="operation" target="_top">
<polygon fill="#ffffff" stroke="transparent" points="202,-38.2 202,-231.2 377,-231.2 377,-38.2 202,-38.2"/>
<polygon fill="#f5f5f5" stroke="transparent" points="202.5,-207.7 202.5,-230.7 377.5,-230.7 377.5,-207.7 202.5,-207.7"/>
<polygon fill="none" stroke="#000000" points="202.5,-207.7 202.5,-230.7 377.5,-230.7 377.5,-207.7 202.5,-207.7"/>
<text text-anchor="start" x="207.5" y="-216.3" font-family="Helvetica,sans-Serif" font-weight="bold" font-size="11.00" fill="#000000">operation</text>
<text text-anchor="start" x="342.5437" y="-215.8" font-family="Helvetica,sans-Serif" font-size="11.00" fill="#000000">[table]</text>
<polygon fill="none" stroke="#000000" points="202.5,-185.7 202.5,-207.7 377.5,-207.7 377.5,-185.7 202.5,-185.7"/>
<image xlink:href="../../images/primaryKeys.png" width="11px" height="12px" preserveAspectRatio="xMinYMin meet" x="207.5" y="-202.7"/>
<text text-anchor="start" x="222.5" y="-192.8" font-family="Helvetica,sans-Serif" font-size="11.00" fill="#000000">package_id</text>
<polygon fill="none" stroke="#000000" points="202.5,-163.7 202.5,-185.7 377.5,-185.7 377.5,-163.7 202.5,-163.7"/>
<image xlink:href="../../images/primaryKeys.png" width="11px" height="12px" preserveAspectRatio="xMinYMin meet" x="207.5" y="-180.7"/>
<text text-anchor="start" x="222.5" y="-170.8" font-family="Helvetica,sans-Serif" font-size="11.00" fill="#000000">version</text>
<polygon fill="none" stroke="#000000" points="202.5,-141.7 202.5,-163.7 377.5,-163.7 377.5,-141.7 202.5,-141.7"/>
<image xlink:href="../../images/primaryKeys.png" width="11px" height="12px" preserveAspectRatio="xMinYMin meet" x="207.5" y="-158.7"/>
<text text-anchor="start" x="222.5" y="-148.8" font-family="Helvetica,sans-Serif" font-size="11.00" fill="#000000">revision</text>
<polygon fill="none" stroke="#000000" points="202.5,-119.7 202.5,-141.7 377.5,-141.7 377.5,-119.7 202.5,-119.7"/>
<image xlink:href="../../images/primaryKeys.png" width="11px" height="12px" preserveAspectRatio="xMinYMin meet" x="207.5" y="-136.7"/>
<text text-anchor="start" x="222.5" y="-126.8" font-family="Helvetica,sans-Serif" font-size="11.00" fill="#000000">operation_id</text>
<polygon fill="#ffffff" stroke="transparent" points="202.5,-97.7 202.5,-119.7 377.5,-119.7 377.5,-97.7 202.5,-97.7"/>
<polygon fill="none" stroke="#000000" points="202.5,-97.7 202.5,-119.7 377.5,-119.7 377.5,-97.7 202.5,-97.7"/>
<image xlink:href="../../images/foreignKeys.png" width="11px" height="12px" preserveAspectRatio="xMinYMin meet" x="207.5" y="-114.7"/>
<text text-anchor="start" x="222.5" y="-104.8" font-family="Helvetica,sans-Serif" font-size="11.00" fill="#000000">data_hash</text>
<polygon fill="#ffffff" stroke="transparent" points="202.5,-75.7 202.5,-97.7 377.5,-97.7 377.5,-75.7 202.5,-75.7"/>
<polygon fill="none" stroke="#000000" points="202.5,-75.7 202.5,-97.7 377.5,-97.7 377.5,-75.7 202.5,-75.7"/>
<text text-anchor="start" x="222.5" y="-82.8" font-family="Helvetica,sans-Serif" font-size="11.00" fill="#000000">type</text>
<polygon fill="none" stroke="#000000" points="202.5,-56.7 202.5,-75.7 377.5,-75.7 377.5,-56.7 202.5,-56.7"/>
<text text-anchor="start" x="205.5" y="-62.8" font-family="Helvetica,sans-Serif" font-size="11.00" fill="#000000">...</text>
<polygon fill="#ffffff" stroke="transparent" points="202.5,-37.7 202.5,-56.7 283.5,-56.7 283.5,-37.7 202.5,-37.7"/>
<polygon fill="none" stroke="#000000" points="202.5,-37.7 202.5,-56.7 283.5,-56.7 283.5,-37.7 202.5,-37.7"/>
<text text-anchor="start" x="205.5" y="-43.8" font-family="Helvetica,sans-Serif" font-size="11.00" fill="#000000">&lt; 4</text>
<polygon fill="#ffffff" stroke="transparent" points="283.5,-37.7 283.5,-56.7 325.5,-56.7 325.5,-37.7 283.5,-37.7"/>
<polygon fill="none" stroke="#000000" points="283.5,-37.7 283.5,-56.7 325.5,-56.7 325.5,-37.7 283.5,-37.7"/>
<text text-anchor="start" x="316.3862" y="-43.8" font-family="Helvetica,sans-Serif" font-size="11.00" fill="#000000"> &#160;</text>
<polygon fill="#ffffff" stroke="transparent" points="325.5,-37.7 325.5,-56.7 377.5,-56.7 377.5,-37.7 325.5,-37.7"/>
<polygon fill="none" stroke="#000000" points="325.5,-37.7 325.5,-56.7 377.5,-56.7 377.5,-37.7 325.5,-37.7"/>
<text text-anchor="start" x="358.9053" y="-43.8" font-family="Helvetica,sans-Serif" font-size="11.00" fill="#000000">4 &gt;</text>
</a>
</g>
</g>
<!-- grouped_operation&#45;&gt;operation -->
<g id="edge2" class="edge">
<title>grouped_operation:w&#45;&gt;operation:e</title>
<path fill="none" stroke="#000000" d="M413.776,-130.7C401.7815,-130.7 394.3229,-130.7 377.5,-130.7"/>
<polygon fill="#000000" stroke="#000000" points="420.5,-130.7001 428.5,-134.3 424.5,-130.7 428.5,-130.7 428.5,-130.7 428.5,-130.7 424.5,-130.7 428.5,-127.1 420.5,-130.7001 420.5,-130.7001"/>
<ellipse fill="none" stroke="#000000" cx="417.3" cy="-130.7001" rx="3.2" ry="3.2"/>
</g>
<!-- grouped_operation&#45;&gt;operation -->
<g id="edge3" class="edge">
<title>grouped_operation:w&#45;&gt;operation:e</title>
<path fill="none" stroke="#000000" d="M413.776,-196.7C401.7815,-196.7 394.3229,-196.7 377.5,-196.7"/>
<polygon fill="#000000" stroke="#000000" points="420.5,-196.7001 428.5,-200.3 424.5,-196.7 428.5,-196.7 428.5,-196.7 428.5,-196.7 424.5,-196.7 428.5,-193.1 420.5,-196.7001 420.5,-196.7001"/>
<ellipse fill="none" stroke="#000000" cx="417.3" cy="-196.7001" rx="3.2" ry="3.2"/>
</g>
<!-- grouped_operation&#45;&gt;operation -->
<g id="edge4" class="edge">
<title>grouped_operation:w&#45;&gt;operation:e</title>
<path fill="none" stroke="#000000" d="M413.776,-152.7C401.7815,-152.7 394.3229,-152.7 377.5,-152.7"/>
<polygon fill="#000000" stroke="#000000" points="420.5,-152.7001 428.5,-156.3 424.5,-152.7 428.5,-152.7 428.5,-152.7 428.5,-152.7 424.5,-152.7 428.5,-149.1 420.5,-152.7001 420.5,-152.7001"/>
<ellipse fill="none" stroke="#000000" cx="417.3" cy="-152.7001" rx="3.2" ry="3.2"/>
</g>
<!-- grouped_operation&#45;&gt;operation -->
<g id="edge5" class="edge">
<title>grouped_operation:w&#45;&gt;operation:e</title>
<path fill="none" stroke="#000000" d="M413.776,-174.7C401.7815,-174.7 394.3229,-174.7 377.5,-174.7"/>
<polygon fill="#000000" stroke="#000000" points="420.5,-174.7001 428.5,-178.3 424.5,-174.7 428.5,-174.7 428.5,-174.7 428.5,-174.7 424.5,-174.7 428.5,-171.1 420.5,-174.7001 420.5,-174.7001"/>
<ellipse fill="none" stroke="#000000" cx="417.3" cy="-174.7001" rx="3.2" ry="3.2"/>
</g>
<!-- published_version -->
<g id="node5" class="node">
<title>published_version</title>
<g id="a_node5"><a xlink:href="../../tables/published_version.html" xlink:title="published_version" target="_top">
<polygon fill="#ffffff" stroke="transparent" points="8,-254.2 8,-315.2 153,-315.2 153,-254.2 8,-254.2"/>
<polygon fill="#f5f5f5" stroke="transparent" points="8.5,-291.7 8.5,-314.7 153.5,-314.7 153.5,-291.7 8.5,-291.7"/>
<polygon fill="none" stroke="#000000" points="8.5,-291.7 8.5,-314.7 153.5,-314.7 153.5,-291.7 8.5,-291.7"/>
<text text-anchor="start" x="13.5" y="-300.3" font-family="Helvetica,sans-Serif" font-weight="bold" font-size="11.00" fill="#000000">published_version</text>
<text text-anchor="start" x="119.0219" y="-299.8" font-family="Helvetica,sans-Serif" font-size="11.00" fill="#000000">[table]</text>
<polygon fill="none" stroke="#000000" points="8.5,-272.7 8.5,-291.7 153.5,-291.7 153.5,-272.7 8.5,-272.7"/>
<text text-anchor="start" x="11.5" y="-278.8" font-family="Helvetica,sans-Serif" font-size="11.00" fill="#000000">...</text>
<polygon fill="#ffffff" stroke="transparent" points="8.5,-253.7 8.5,-272.7 71.5,-272.7 71.5,-253.7 8.5,-253.7"/>
<polygon fill="none" stroke="#000000" points="8.5,-253.7 8.5,-272.7 71.5,-272.7 71.5,-253.7 8.5,-253.7"/>
<text text-anchor="start" x="11.5" y="-259.8" font-family="Helvetica,sans-Serif" font-size="11.00" fill="#000000">&lt; 1</text>
<polygon fill="#ffffff" stroke="transparent" points="71.5,-253.7 71.5,-272.7 104.5,-272.7 104.5,-253.7 71.5,-253.7"/>
<polygon fill="none" stroke="#000000" points="71.5,-253.7 71.5,-272.7 104.5,-272.7 104.5,-253.7 71.5,-253.7"/>
<text text-anchor="start" x="95.3862" y="-259.8" font-family="Helvetica,sans-Serif" font-size="11.00" fill="#000000"> &#160;</text>
<polygon fill="#ffffff" stroke="transparent" points="104.5,-253.7 104.5,-272.7 153.5,-272.7 153.5,-253.7 104.5,-253.7"/>
<polygon fill="none" stroke="#000000" points="104.5,-253.7 104.5,-272.7 153.5,-272.7 153.5,-253.7 104.5,-253.7"/>
<text text-anchor="start" x="128.7904" y="-259.8" font-family="Helvetica,sans-Serif" font-size="11.00" fill="#000000">18 &gt;</text>
</a>
</g>
</g>
<!-- operation_group&#45;&gt;published_version -->
<g id="edge10" class="edge">
<title>operation_group:w&#45;&gt;published_version:e</title>
<path fill="none" stroke="#000000" d="M208.1063,-407.8857C167.2361,-389.0207 212.805,-281.7 153.5,-281.7"/>
<polygon fill="#000000" stroke="#000000" points="214.6487,-409.1648 221.8092,-414.2331 218.5743,-409.9324 222.5,-410.7 222.5,-410.7 222.5,-410.7 218.5743,-409.9324 223.1908,-407.1669 214.6487,-409.1648 214.6487,-409.1648"/>
<ellipse fill="none" stroke="#000000" cx="211.5081" cy="-408.5508" rx="3.2" ry="3.2"/>
</g>
<!-- operation_group&#45;&gt;published_version -->
<g id="edge11" class="edge">
<title>operation_group:w&#45;&gt;published_version:e</title>
<path fill="none" stroke="#000000" d="M208.3171,-363.4717C179.4215,-347.9454 196.4559,-281.7 153.5,-281.7"/>
<polygon fill="#000000" stroke="#000000" points="214.6995,-364.9244 221.701,-370.2102 218.5998,-365.8122 222.5,-366.7 222.5,-366.7 222.5,-366.7 218.5998,-365.8122 223.299,-363.1898 214.6995,-364.9244 214.6995,-364.9244"/>
<ellipse fill="none" stroke="#000000" cx="211.5793" cy="-364.2142" rx="3.2" ry="3.2"/>
</g>
<!-- operation_group&#45;&gt;published_version -->
<g id="edge12" class="edge">
<title>operation_group:w&#45;&gt;published_version:e</title>
<path fill="none" stroke="#000000" d="M208.1658,-385.6131C173.8471,-368.0693 204.339,-281.7 153.5,-281.7"/>
<polygon fill="#000000" stroke="#000000" points="214.6793,-387.0157 221.7421,-392.2193 218.5896,-387.8579 222.5,-388.7 222.5,-388.7 222.5,-388.7 218.5896,-387.8579 223.2579,-385.1807 214.6793,-387.0157 214.6793,-387.0157"/>
<ellipse fill="none" stroke="#000000" cx="211.551" cy="-386.342" rx="3.2" ry="3.2"/>
</g>
<!-- operation_data -->
<g id="node4" class="node">
<title>operation_data</title>
<g id="a_node4"><a xlink:href="../../tables/operation_data.html" xlink:title="operation_data" target="_top">
<polygon fill="#ffffff" stroke="transparent" points="18,-81.2 18,-142.2 143,-142.2 143,-81.2 18,-81.2"/>
<polygon fill="#f5f5f5" stroke="transparent" points="18.5,-118.7 18.5,-141.7 143.5,-141.7 143.5,-118.7 18.5,-118.7"/>
<polygon fill="none" stroke="#000000" points="18.5,-118.7 18.5,-141.7 143.5,-141.7 143.5,-118.7 18.5,-118.7"/>
<text text-anchor="start" x="23.5" y="-127.3" font-family="Helvetica,sans-Serif" font-weight="bold" font-size="11.00" fill="#000000">operation_data</text>
<text text-anchor="start" x="109.0219" y="-126.8" font-family="Helvetica,sans-Serif" font-size="11.00" fill="#000000">[table]</text>
<polygon fill="none" stroke="#000000" points="18.5,-99.7 18.5,-118.7 143.5,-118.7 143.5,-99.7 18.5,-99.7"/>
<text text-anchor="start" x="21.5" y="-105.8" font-family="Helvetica,sans-Serif" font-size="11.00" fill="#000000">...</text>
<polygon fill="#ffffff" stroke="transparent" points="18.5,-80.7 18.5,-99.7 70.5,-99.7 70.5,-80.7 18.5,-80.7"/>
<polygon fill="none" stroke="#000000" points="18.5,-80.7 18.5,-99.7 70.5,-99.7 70.5,-80.7 18.5,-80.7"/>
<text text-anchor="start" x="21.5" y="-86.8" font-family="Helvetica,sans-Serif" font-size="11.00" fill="#000000"> &#160;</text>
<polygon fill="#ffffff" stroke="transparent" points="70.5,-80.7 70.5,-99.7 102.5,-99.7 102.5,-80.7 70.5,-80.7"/>
<polygon fill="none" stroke="#000000" points="70.5,-80.7 70.5,-99.7 102.5,-99.7 102.5,-80.7 70.5,-80.7"/>
<text text-anchor="start" x="93.3862" y="-86.8" font-family="Helvetica,sans-Serif" font-size="11.00" fill="#000000"> &#160;</text>
<polygon fill="#ffffff" stroke="transparent" points="102.5,-80.7 102.5,-99.7 143.5,-99.7 143.5,-80.7 102.5,-80.7"/>
<polygon fill="none" stroke="#000000" points="102.5,-80.7 102.5,-99.7 143.5,-99.7 143.5,-80.7 102.5,-80.7"/>
<text text-anchor="start" x="124.9053" y="-86.8" font-family="Helvetica,sans-Serif" font-size="11.00" fill="#000000">5 &gt;</text>
</a>
</g>
</g>
<!-- operation&#45;&gt;operation_data -->
<g id="edge6" class="edge">
<title>operation:w&#45;&gt;operation_data:e</title>
<path fill="none" stroke="#000000" d="M187.7032,-108.7C172.4686,-108.7 163.9861,-108.7 143.5,-108.7"/>
<polygon fill="#000000" stroke="#000000" points="194.5,-108.7001 202.5,-112.3 198.5,-108.7 202.5,-108.7 202.5,-108.7 202.5,-108.7 198.5,-108.7 202.5,-105.1 194.5,-108.7001 194.5,-108.7001"/>
<ellipse fill="none" stroke="#000000" cx="191.3" cy="-108.7001" rx="3.2" ry="3.2"/>
</g>
<!-- operation&#45;&gt;published_version -->
<g id="edge7" class="edge">
<title>operation:w&#45;&gt;published_version:e</title>
<path fill="none" stroke="#000000" d="M188.5028,-201.27C168.0234,-218.9253 190.9734,-281.7 153.5,-281.7"/>
<polygon fill="#000000" stroke="#000000" points="194.8951,-199.183 203.6173,-200.1222 198.6975,-197.9415 202.5,-196.7 202.5,-196.7 202.5,-196.7 198.6975,-197.9415 201.3827,-193.2778 194.8951,-199.183 194.8951,-199.183"/>
<ellipse fill="none" stroke="#000000" cx="191.8531" cy="-200.1762" rx="3.2" ry="3.2"/>
</g>
<!-- operation&#45;&gt;published_version -->
<g id="edge8" class="edge">
<title>operation:w&#45;&gt;published_version:e</title>
<path fill="none" stroke="#000000" d="M188.1429,-156.1504C154.2693,-176.6651 208.8408,-281.7 153.5,-281.7"/>
<polygon fill="#000000" stroke="#000000" points="194.7215,-154.5694 203.3413,-156.2003 198.6107,-153.6347 202.5,-152.7 202.5,-152.7 202.5,-152.7 198.6107,-153.6347 201.6587,-149.1997 194.7215,-154.5694 194.7215,-154.5694"/>
<ellipse fill="none" stroke="#000000" cx="191.6101" cy="-155.3172" rx="3.2" ry="3.2"/>
</g>
<!-- operation&#45;&gt;published_version -->
<g id="edge9" class="edge">
<title>operation:w&#45;&gt;published_version:e</title>
<path fill="none" stroke="#000000" d="M188.5652,-178.5082C161.4094,-197.5691 199.8797,-281.7 153.5,-281.7"/>
<polygon fill="#000000" stroke="#000000" points="194.783,-176.809 203.4491,-178.1727 198.6415,-175.7545 202.5,-174.7 202.5,-174.7 202.5,-174.7 198.6415,-175.7545 201.5509,-171.2273 194.783,-176.809 194.783,-176.809"/>
<ellipse fill="none" stroke="#000000" cx="191.6962" cy="-177.6526" rx="3.2" ry="3.2"/>
</g>
<!-- transformed_content_data -->
<g id="node6" class="node">
<title>transformed_content_data</title>
<g id="a_node6"><a xlink:href="../../tables/transformed_content_data.html" xlink:title="transformed_content_data" target="_top">
<polygon fill="#ffffff" stroke="transparent" points="452.5,-276.2 452.5,-337.2 642.5,-337.2 642.5,-276.2 452.5,-276.2"/>
<polygon fill="#f5f5f5" stroke="transparent" points="452.5,-313.7 452.5,-336.7 642.5,-336.7 642.5,-313.7 452.5,-313.7"/>
<polygon fill="none" stroke="#000000" points="452.5,-313.7 452.5,-336.7 642.5,-336.7 642.5,-313.7 452.5,-313.7"/>
<text text-anchor="start" x="457.5" y="-322.3" font-family="Helvetica,sans-Serif" font-weight="bold" font-size="11.00" fill="#000000">transformed_content_data</text>
<text text-anchor="start" x="608.0219" y="-321.8" font-family="Helvetica,sans-Serif" font-size="11.00" fill="#000000">[table]</text>
<polygon fill="none" stroke="#000000" points="452.5,-294.7 452.5,-313.7 642.5,-313.7 642.5,-294.7 452.5,-294.7"/>
<text text-anchor="start" x="455.5" y="-300.8" font-family="Helvetica,sans-Serif" font-size="11.00" fill="#000000">...</text>
<polygon fill="#ffffff" stroke="transparent" points="452.5,-275.7 452.5,-294.7 545.5,-294.7 545.5,-275.7 452.5,-275.7"/>
<polygon fill="none" stroke="#000000" points="452.5,-275.7 452.5,-294.7 545.5,-294.7 545.5,-275.7 452.5,-275.7"/>
<text text-anchor="start" x="455.5" y="-281.8" font-family="Helvetica,sans-Serif" font-size="11.00" fill="#000000">&lt; 1</text>
<polygon fill="#ffffff" stroke="transparent" points="545.5,-275.7 545.5,-294.7 593.5,-294.7 593.5,-275.7 545.5,-275.7"/>
<polygon fill="none" stroke="#000000" points="545.5,-275.7 545.5,-294.7 593.5,-294.7 593.5,-275.7 545.5,-275.7"/>
<text text-anchor="start" x="584.3862" y="-281.8" font-family="Helvetica,sans-Serif" font-size="11.00" fill="#000000"> &#160;</text>
<polygon fill="#ffffff" stroke="transparent" points="593.5,-275.7 593.5,-294.7 642.5,-294.7 642.5,-275.7 593.5,-275.7"/>
<polygon fill="none" stroke="#000000" points="593.5,-275.7 593.5,-294.7 642.5,-294.7 642.5,-275.7 593.5,-275.7"/>
<text text-anchor="start" x="633.3862" y="-281.8" font-family="Helvetica,sans-Serif" font-size="11.00" fill="#000000"> &#160;</text>
</a>
</g>
</g>
<!-- transformed_content_data&#45;&gt;operation_group -->
<g id="edge13" class="edge">
<title>transformed_content_data:w&#45;&gt;operation_group:e</title>
<path fill="none" stroke="#000000" d="M438.0222,-303.5711C407.1326,-302.9969 394.4629,-300.7 357.5,-300.7"/>
<polygon fill="#000000" stroke="#000000" points="444.5003,-303.6287 452.4679,-307.2999 448.5002,-303.6644 452.5,-303.7 452.5,-303.7 452.5,-303.7 448.5002,-303.6644 452.5321,-300.1001 444.5003,-303.6287 444.5003,-303.6287"/>
<ellipse fill="none" stroke="#000000" cx="441.3004" cy="-303.6002" rx="3.2" ry="3.2"/>
</g>
</g>
</svg>
