<?xml version="1.0" encoding="UTF-8" standalone="no"?>
<!DOCTYPE svg PUBLIC "-//W3C//DTD SVG 1.1//EN"
 "http://www.w3.org/Graphics/SVG/1.1/DTD/svg11.dtd">
<!-- Generated by graphviz version 2.40.1 (20161225.0304)
 -->
<!-- Title: oneDegreeRelationshipsDiagram Pages: 1 -->
<svg width="491pt" height="457pt"
 viewBox="0.00 0.00 491.00 457.20" xmlns="http://www.w3.org/2000/svg" xmlns:xlink="http://www.w3.org/1999/xlink">
<g id="graph0" class="graph" transform="scale(1 1) rotate(0) translate(4 453.2)">
<title>oneDegreeRelationshipsDiagram</title>
<polygon fill="#ffffff" stroke="transparent" points="-4,4 -4,-453.2 487,-453.2 487,4 -4,4"/>
<text text-anchor="middle" x="72.4936" y="-7.3" font-family="Helvetica,sans-Serif" font-size="11.00" fill="#000000">Generated by SchemaSpy</text>
<!-- grouped_operation -->
<g id="node1" class="node">
<title>grouped_operation</title>
<g id="a_node1"><a xlink:href="../../tables/grouped_operation.html" xlink:title="grouped_operation" target="_top">
<polygon fill="#ffffff" stroke="transparent" points="232,-98.7 232,-254.7 475,-254.7 475,-98.7 232,-98.7"/>
<polygon fill="#f5f5f5" stroke="transparent" points="234.5,-229.7 234.5,-252.7 473.5,-252.7 473.5,-229.7 234.5,-229.7"/>
<polygon fill="none" stroke="#000000" points="234.5,-229.7 234.5,-252.7 473.5,-252.7 473.5,-229.7 234.5,-229.7"/>
<text text-anchor="start" x="239.5" y="-238.3" font-family="Helvetica,sans-Serif" font-weight="bold" font-size="11.00" fill="#000000">grouped_operation</text>
<text text-anchor="start" x="438.5437" y="-237.8" font-family="Helvetica,sans-Serif" font-size="11.00" fill="#000000">[table]</text>
<polygon fill="#ffffff" stroke="transparent" points="234.5,-207.7 234.5,-229.7 364.5,-229.7 364.5,-207.7 234.5,-207.7"/>
<polygon fill="none" stroke="#000000" points="234.5,-207.7 234.5,-229.7 364.5,-229.7 364.5,-207.7 234.5,-207.7"/>
<image xlink:href="../../images/foreignKeys.png" width="11px" height="12px" preserveAspectRatio="xMinYMin meet" x="239.5" y="-224.7"/>
<text text-anchor="start" x="254.5" y="-214.8" font-family="Helvetica,sans-Serif" font-size="11.00" fill="#000000">group_id</text>
<polygon fill="none" stroke="#000000" points="364.5,-207.7 364.5,-229.7 473.5,-229.7 473.5,-207.7 364.5,-207.7"/>
<text text-anchor="start" x="367.0344" y="-215.4" font-family="Helvetica,sans-Serif" font-size="11.00" fill="#000000">varchar[2147483647]</text>
<polygon fill="#ffffff" stroke="transparent" points="234.5,-185.7 234.5,-207.7 364.5,-207.7 364.5,-185.7 234.5,-185.7"/>
<polygon fill="none" stroke="#000000" points="234.5,-185.7 234.5,-207.7 364.5,-207.7 364.5,-185.7 234.5,-185.7"/>
<image xlink:href="../../images/foreignKeys.png" width="11px" height="12px" preserveAspectRatio="xMinYMin meet" x="239.5" y="-202.7"/>
<text text-anchor="start" x="254.5" y="-192.8" font-family="Helvetica,sans-Serif" font-size="11.00" fill="#000000">package_id</text>
<polygon fill="none" stroke="#000000" points="364.5,-185.7 364.5,-207.7 473.5,-207.7 473.5,-185.7 364.5,-185.7"/>
<text text-anchor="start" x="367.0344" y="-193.4" font-family="Helvetica,sans-Serif" font-size="11.00" fill="#000000">varchar[2147483647]</text>
<polygon fill="#ffffff" stroke="transparent" points="234.5,-163.7 234.5,-185.7 364.5,-185.7 364.5,-163.7 234.5,-163.7"/>
<polygon fill="none" stroke="#000000" points="234.5,-163.7 234.5,-185.7 364.5,-185.7 364.5,-163.7 234.5,-163.7"/>
<image xlink:href="../../images/foreignKeys.png" width="11px" height="12px" preserveAspectRatio="xMinYMin meet" x="239.5" y="-180.7"/>
<text text-anchor="start" x="254.5" y="-170.8" font-family="Helvetica,sans-Serif" font-size="11.00" fill="#000000">version</text>
<polygon fill="none" stroke="#000000" points="364.5,-163.7 364.5,-185.7 473.5,-185.7 473.5,-163.7 364.5,-163.7"/>
<text text-anchor="start" x="367.0344" y="-171.4" font-family="Helvetica,sans-Serif" font-size="11.00" fill="#000000">varchar[2147483647]</text>
<polygon fill="#ffffff" stroke="transparent" points="234.5,-141.7 234.5,-163.7 364.5,-163.7 364.5,-141.7 234.5,-141.7"/>
<polygon fill="none" stroke="#000000" points="234.5,-141.7 234.5,-163.7 364.5,-163.7 364.5,-141.7 234.5,-141.7"/>
<image xlink:href="../../images/foreignKeys.png" width="11px" height="12px" preserveAspectRatio="xMinYMin meet" x="239.5" y="-158.7"/>
<text text-anchor="start" x="254.5" y="-148.8" font-family="Helvetica,sans-Serif" font-size="11.00" fill="#000000">revision</text>
<polygon fill="none" stroke="#000000" points="364.5,-141.7 364.5,-163.7 473.5,-163.7 473.5,-141.7 364.5,-141.7"/>
<text text-anchor="start" x="367.5" y="-149.4" font-family="Helvetica,sans-Serif" font-size="11.00" fill="#000000">int4[10]</text>
<polygon fill="#ffffff" stroke="transparent" points="234.5,-119.7 234.5,-141.7 364.5,-141.7 364.5,-119.7 234.5,-119.7"/>
<polygon fill="none" stroke="#000000" points="234.5,-119.7 234.5,-141.7 364.5,-141.7 364.5,-119.7 234.5,-119.7"/>
<image xlink:href="../../images/foreignKeys.png" width="11px" height="12px" preserveAspectRatio="xMinYMin meet" x="239.5" y="-136.7"/>
<text text-anchor="start" x="254.5" y="-126.8" font-family="Helvetica,sans-Serif" font-size="11.00" fill="#000000">operation_id</text>
<polygon fill="none" stroke="#000000" points="364.5,-119.7 364.5,-141.7 473.5,-141.7 473.5,-119.7 364.5,-119.7"/>
<text text-anchor="start" x="367.0344" y="-127.4" font-family="Helvetica,sans-Serif" font-size="11.00" fill="#000000">varchar[2147483647]</text>
<polygon fill="#ffffff" stroke="transparent" points="234.5,-100.7 234.5,-119.7 303.5,-119.7 303.5,-100.7 234.5,-100.7"/>
<polygon fill="none" stroke="#000000" points="234.5,-100.7 234.5,-119.7 303.5,-119.7 303.5,-100.7 234.5,-100.7"/>
<text text-anchor="start" x="237.5" y="-106.8" font-family="Helvetica,sans-Serif" font-size="11.00" fill="#000000">&lt; 5</text>
<polygon fill="#ffffff" stroke="transparent" points="303.5,-100.7 303.5,-119.7 364.5,-119.7 364.5,-100.7 303.5,-100.7"/>
<polygon fill="none" stroke="#000000" points="303.5,-100.7 303.5,-119.7 364.5,-119.7 364.5,-100.7 303.5,-100.7"/>
<text text-anchor="start" x="355.3862" y="-106.8" font-family="Helvetica,sans-Serif" font-size="11.00" fill="#000000"> &#160;</text>
<polygon fill="#ffffff" stroke="transparent" points="364.5,-100.7 364.5,-119.7 473.5,-119.7 473.5,-100.7 364.5,-100.7"/>
<polygon fill="none" stroke="#000000" points="364.5,-100.7 364.5,-119.7 473.5,-119.7 473.5,-100.7 364.5,-100.7"/>
<text text-anchor="start" x="454.9053" y="-106.8" font-family="Helvetica,sans-Serif" font-size="11.00" fill="#000000">0 &gt;</text>
<polygon fill="none" stroke="#000000" stroke-width="2" points="233,-99.7 233,-253.7 474,-253.7 474,-99.7 233,-99.7"/>
</a>
</g>
</g>
<!-- operation_group -->
<g id="node2" class="node">
<title>operation_group</title>
<g id="a_node2"><a xlink:href="../../tables/operation_group.html" xlink:title="operation_group" target="_top">
<polygon fill="#ffffff" stroke="transparent" points="28,-252.2 28,-445.2 163,-445.2 163,-252.2 28,-252.2"/>
<polygon fill="#f5f5f5" stroke="transparent" points="28.5,-421.7 28.5,-444.7 163.5,-444.7 163.5,-421.7 28.5,-421.7"/>
<polygon fill="none" stroke="#000000" points="28.5,-421.7 28.5,-444.7 163.5,-444.7 163.5,-421.7 28.5,-421.7"/>
<text text-anchor="start" x="33.5" y="-430.3" font-family="Helvetica,sans-Serif" font-weight="bold" font-size="11.00" fill="#000000">operation_group</text>
<text text-anchor="start" x="129.0219" y="-429.8" font-family="Helvetica,sans-Serif" font-size="11.00" fill="#000000">[table]</text>
<polygon fill="none" stroke="#000000" points="28.5,-399.7 28.5,-421.7 163.5,-421.7 163.5,-399.7 28.5,-399.7"/>
<image xlink:href="../../images/primaryKeys.png" width="11px" height="12px" preserveAspectRatio="xMinYMin meet" x="33.5" y="-416.7"/>
<text text-anchor="start" x="48.5" y="-406.8" font-family="Helvetica,sans-Serif" font-size="11.00" fill="#000000">package_id</text>
<polygon fill="none" stroke="#000000" points="28.5,-377.7 28.5,-399.7 163.5,-399.7 163.5,-377.7 28.5,-377.7"/>
<image xlink:href="../../images/primaryKeys.png" width="11px" height="12px" preserveAspectRatio="xMinYMin meet" x="33.5" y="-394.7"/>
<text text-anchor="start" x="48.5" y="-384.8" font-family="Helvetica,sans-Serif" font-size="11.00" fill="#000000">version</text>
<polygon fill="none" stroke="#000000" points="28.5,-355.7 28.5,-377.7 163.5,-377.7 163.5,-355.7 28.5,-355.7"/>
<image xlink:href="../../images/primaryKeys.png" width="11px" height="12px" preserveAspectRatio="xMinYMin meet" x="33.5" y="-372.7"/>
<text text-anchor="start" x="48.5" y="-362.8" font-family="Helvetica,sans-Serif" font-size="11.00" fill="#000000">revision</text>
<polygon fill="none" stroke="#000000" points="28.5,-333.7 28.5,-355.7 163.5,-355.7 163.5,-333.7 28.5,-333.7"/>
<image xlink:href="../../images/primaryKeys.png" width="11px" height="12px" preserveAspectRatio="xMinYMin meet" x="33.5" y="-350.7"/>
<text text-anchor="start" x="48.5" y="-340.8" font-family="Helvetica,sans-Serif" font-size="11.00" fill="#000000">api_type</text>
<polygon fill="none" stroke="#000000" points="28.5,-311.7 28.5,-333.7 163.5,-333.7 163.5,-311.7 28.5,-311.7"/>
<image xlink:href="../../images/primaryKeys.png" width="11px" height="12px" preserveAspectRatio="xMinYMin meet" x="33.5" y="-328.7"/>
<text text-anchor="start" x="48.5" y="-318.8" font-family="Helvetica,sans-Serif" font-size="11.00" fill="#000000">group_name</text>
<polygon fill="#ffffff" stroke="transparent" points="28.5,-289.7 28.5,-311.7 163.5,-311.7 163.5,-289.7 28.5,-289.7"/>
<polygon fill="none" stroke="#000000" points="28.5,-289.7 28.5,-311.7 163.5,-311.7 163.5,-289.7 28.5,-289.7"/>
<text text-anchor="start" x="48.5" y="-296.8" font-family="Helvetica,sans-Serif" font-size="11.00" fill="#000000">group_id</text>
<polygon fill="none" stroke="#000000" points="28.5,-270.7 28.5,-289.7 163.5,-289.7 163.5,-270.7 28.5,-270.7"/>
<text text-anchor="start" x="31.5" y="-276.8" font-family="Helvetica,sans-Serif" font-size="11.00" fill="#000000">...</text>
<polygon fill="#ffffff" stroke="transparent" points="28.5,-251.7 28.5,-270.7 89.5,-270.7 89.5,-251.7 28.5,-251.7"/>
<polygon fill="none" stroke="#000000" points="28.5,-251.7 28.5,-270.7 89.5,-270.7 89.5,-251.7 28.5,-251.7"/>
<text text-anchor="start" x="31.5" y="-257.8" font-family="Helvetica,sans-Serif" font-size="11.00" fill="#000000">&lt; 3</text>
<polygon fill="#ffffff" stroke="transparent" points="89.5,-251.7 89.5,-270.7 121.5,-270.7 121.5,-251.7 89.5,-251.7"/>
<polygon fill="none" stroke="#000000" points="89.5,-251.7 89.5,-270.7 121.5,-270.7 121.5,-251.7 89.5,-251.7"/>
<text text-anchor="start" x="112.3862" y="-257.8" font-family="Helvetica,sans-Serif" font-size="11.00" fill="#000000"> &#160;</text>
<polygon fill="#ffffff" stroke="transparent" points="121.5,-251.7 121.5,-270.7 163.5,-270.7 163.5,-251.7 121.5,-251.7"/>
<polygon fill="none" stroke="#000000" points="121.5,-251.7 121.5,-270.7 163.5,-270.7 163.5,-251.7 121.5,-251.7"/>
<text text-anchor="start" x="144.9053" y="-257.8" font-family="Helvetica,sans-Serif" font-size="11.00" fill="#000000">2 &gt;</text>
</a>
</g>
</g>
<!-- grouped_operation&#45;&gt;operation_group -->
<g id="edge1" class="edge">
<title>grouped_operation:w&#45;&gt;operation_group:e</title>
<path fill="none" stroke="#000000" d="M220.3483,-221.8144C191.2382,-236.7927 206.0581,-300.7 163.5,-300.7"/>
<polygon fill="#000000" stroke="#000000" points="226.687,-220.4195 235.2738,-222.2159 230.5935,-219.5597 234.5,-218.7 234.5,-218.7 234.5,-218.7 230.5935,-219.5597 233.7262,-215.1841 226.687,-220.4195 226.687,-220.4195"/>
<ellipse fill="none" stroke="#000000" cx="223.5617" cy="-221.1072" rx="3.2" ry="3.2"/>
</g>
<!-- operation -->
<g id="node3" class="node">
<title>operation</title>
<g id="a_node3"><a xlink:href="../../tables/operation.html" xlink:title="operation" target="_top">
<polygon fill="#ffffff" stroke="transparent" points="8,-38.2 8,-231.2 183,-231.2 183,-38.2 8,-38.2"/>
<polygon fill="#f5f5f5" stroke="transparent" points="8.5,-207.7 8.5,-230.7 183.5,-230.7 183.5,-207.7 8.5,-207.7"/>
<polygon fill="none" stroke="#000000" points="8.5,-207.7 8.5,-230.7 183.5,-230.7 183.5,-207.7 8.5,-207.7"/>
<text text-anchor="start" x="13.5" y="-216.3" font-family="Helvetica,sans-Serif" font-weight="bold" font-size="11.00" fill="#000000">operation</text>
<text text-anchor="start" x="148.5437" y="-215.8" font-family="Helvetica,sans-Serif" font-size="11.00" fill="#000000">[table]</text>
<polygon fill="none" stroke="#000000" points="8.5,-185.7 8.5,-207.7 183.5,-207.7 183.5,-185.7 8.5,-185.7"/>
<image xlink:href="../../images/primaryKeys.png" width="11px" height="12px" preserveAspectRatio="xMinYMin meet" x="13.5" y="-202.7"/>
<text text-anchor="start" x="28.5" y="-192.8" font-family="Helvetica,sans-Serif" font-size="11.00" fill="#000000">package_id</text>
<polygon fill="none" stroke="#000000" points="8.5,-163.7 8.5,-185.7 183.5,-185.7 183.5,-163.7 8.5,-163.7"/>
<image xlink:href="../../images/primaryKeys.png" width="11px" height="12px" preserveAspectRatio="xMinYMin meet" x="13.5" y="-180.7"/>
<text text-anchor="start" x="28.5" y="-170.8" font-family="Helvetica,sans-Serif" font-size="11.00" fill="#000000">version</text>
<polygon fill="none" stroke="#000000" points="8.5,-141.7 8.5,-163.7 183.5,-163.7 183.5,-141.7 8.5,-141.7"/>
<image xlink:href="../../images/primaryKeys.png" width="11px" height="12px" preserveAspectRatio="xMinYMin meet" x="13.5" y="-158.7"/>
<text text-anchor="start" x="28.5" y="-148.8" font-family="Helvetica,sans-Serif" font-size="11.00" fill="#000000">revision</text>
<polygon fill="none" stroke="#000000" points="8.5,-119.7 8.5,-141.7 183.5,-141.7 183.5,-119.7 8.5,-119.7"/>
<image xlink:href="../../images/primaryKeys.png" width="11px" height="12px" preserveAspectRatio="xMinYMin meet" x="13.5" y="-136.7"/>
<text text-anchor="start" x="28.5" y="-126.8" font-family="Helvetica,sans-Serif" font-size="11.00" fill="#000000">operation_id</text>
<polygon fill="#ffffff" stroke="transparent" points="8.5,-97.7 8.5,-119.7 183.5,-119.7 183.5,-97.7 8.5,-97.7"/>
<polygon fill="none" stroke="#000000" points="8.5,-97.7 8.5,-119.7 183.5,-119.7 183.5,-97.7 8.5,-97.7"/>
<image xlink:href="../../images/foreignKeys.png" width="11px" height="12px" preserveAspectRatio="xMinYMin meet" x="13.5" y="-114.7"/>
<text text-anchor="start" x="28.5" y="-104.8" font-family="Helvetica,sans-Serif" font-size="11.00" fill="#000000">data_hash</text>
<polygon fill="#ffffff" stroke="transparent" points="8.5,-75.7 8.5,-97.7 183.5,-97.7 183.5,-75.7 8.5,-75.7"/>
<polygon fill="none" stroke="#000000" points="8.5,-75.7 8.5,-97.7 183.5,-97.7 183.5,-75.7 8.5,-75.7"/>
<text text-anchor="start" x="28.5" y="-82.8" font-family="Helvetica,sans-Serif" font-size="11.00" fill="#000000">type</text>
<polygon fill="none" stroke="#000000" points="8.5,-56.7 8.5,-75.7 183.5,-75.7 183.5,-56.7 8.5,-56.7"/>
<text text-anchor="start" x="11.5" y="-62.8" font-family="Helvetica,sans-Serif" font-size="11.00" fill="#000000">...</text>
<polygon fill="#ffffff" stroke="transparent" points="8.5,-37.7 8.5,-56.7 89.5,-56.7 89.5,-37.7 8.5,-37.7"/>
<polygon fill="none" stroke="#000000" points="8.5,-37.7 8.5,-56.7 89.5,-56.7 89.5,-37.7 8.5,-37.7"/>
<text text-anchor="start" x="11.5" y="-43.8" font-family="Helvetica,sans-Serif" font-size="11.00" fill="#000000">&lt; 4</text>
<polygon fill="#ffffff" stroke="transparent" points="89.5,-37.7 89.5,-56.7 131.5,-56.7 131.5,-37.7 89.5,-37.7"/>
<polygon fill="none" stroke="#000000" points="89.5,-37.7 89.5,-56.7 131.5,-56.7 131.5,-37.7 89.5,-37.7"/>
<text text-anchor="start" x="122.3862" y="-43.8" font-family="Helvetica,sans-Serif" font-size="11.00" fill="#000000"> &#160;</text>
<polygon fill="#ffffff" stroke="transparent" points="131.5,-37.7 131.5,-56.7 183.5,-56.7 183.5,-37.7 131.5,-37.7"/>
<polygon fill="none" stroke="#000000" points="131.5,-37.7 131.5,-56.7 183.5,-56.7 183.5,-37.7 131.5,-37.7"/>
<text text-anchor="start" x="164.9053" y="-43.8" font-family="Helvetica,sans-Serif" font-size="11.00" fill="#000000">4 &gt;</text>
</a>
</g>
</g>
<!-- grouped_operation&#45;&gt;operation -->
<g id="edge2" class="edge">
<title>grouped_operation:w&#45;&gt;operation:e</title>
<path fill="none" stroke="#000000" d="M219.776,-130.7C207.7815,-130.7 200.3229,-130.7 183.5,-130.7"/>
<polygon fill="#000000" stroke="#000000" points="226.5,-130.7001 234.5,-134.3 230.5,-130.7 234.5,-130.7 234.5,-130.7 234.5,-130.7 230.5,-130.7 234.5,-127.1 226.5,-130.7001 226.5,-130.7001"/>
<ellipse fill="none" stroke="#000000" cx="223.3" cy="-130.7001" rx="3.2" ry="3.2"/>
</g>
<!-- grouped_operation&#45;&gt;operation -->
<g id="edge3" class="edge">
<title>grouped_operation:w&#45;&gt;operation:e</title>
<path fill="none" stroke="#000000" d="M219.776,-196.7C207.7815,-196.7 200.3229,-196.7 183.5,-196.7"/>
<polygon fill="#000000" stroke="#000000" points="226.5,-196.7001 234.5,-200.3 230.5,-196.7 234.5,-196.7 234.5,-196.7 234.5,-196.7 230.5,-196.7 234.5,-193.1 226.5,-196.7001 226.5,-196.7001"/>
<ellipse fill="none" stroke="#000000" cx="223.3" cy="-196.7001" rx="3.2" ry="3.2"/>
</g>
<!-- grouped_operation&#45;&gt;operation -->
<g id="edge4" class="edge">
<title>grouped_operation:w&#45;&gt;operation:e</title>
<path fill="none" stroke="#000000" d="M219.776,-152.7C207.7815,-152.7 200.3229,-152.7 183.5,-152.7"/>
<polygon fill="#000000" stroke="#000000" points="226.5,-152.7001 234.5,-156.3 230.5,-152.7 234.5,-152.7 234.5,-152.7 234.5,-152.7 230.5,-152.7 234.5,-149.1 226.5,-152.7001 226.5,-152.7001"/>
<ellipse fill="none" stroke="#000000" cx="223.3" cy="-152.7001" rx="3.2" ry="3.2"/>
</g>
<!-- grouped_operation&#45;&gt;operation -->
<g id="edge5" class="edge">
<title>grouped_operation:w&#45;&gt;operation:e</title>
<path fill="none" stroke="#000000" d="M219.776,-174.7C207.7815,-174.7 200.3229,-174.7 183.5,-174.7"/>
<polygon fill="#000000" stroke="#000000" points="226.5,-174.7001 234.5,-178.3 230.5,-174.7 234.5,-174.7 234.5,-174.7 234.5,-174.7 230.5,-174.7 234.5,-171.1 226.5,-174.7001 226.5,-174.7001"/>
<ellipse fill="none" stroke="#000000" cx="223.3" cy="-174.7001" rx="3.2" ry="3.2"/>
</g>
</g>
</svg>
