<?xml version="1.0" encoding="UTF-8" standalone="no"?>
<!DOCTYPE svg PUBLIC "-//W3C//DTD SVG 1.1//EN"
 "http://www.w3.org/Graphics/SVG/1.1/DTD/svg11.dtd">
<!-- Generated by graphviz version 2.40.1 (20161225.0304)
 -->
<!-- Title: twoDegreesRelationshipsDiagram Pages: 1 -->
<svg width="472pt" height="1257pt"
 viewBox="0.00 0.00 472.00 1257.20" xmlns="http://www.w3.org/2000/svg" xmlns:xlink="http://www.w3.org/1999/xlink">
<g id="graph0" class="graph" transform="scale(1 1) rotate(0) translate(4 1253.2)">
<title>twoDegreesRelationshipsDiagram</title>
<polygon fill="#ffffff" stroke="transparent" points="-4,4 -4,-1253.2 468,-1253.2 468,4 -4,4"/>
<text text-anchor="middle" x="72.4936" y="-7.3" font-family="Helvetica,sans-Serif" font-size="11.00" fill="#000000">Generated by SchemaSpy</text>
<!-- activity_tracking -->
<g id="node1" class="node">
<title>activity_tracking</title>
<g id="a_node1"><a xlink:href="../../tables/activity_tracking.html" xlink:title="activity_tracking" target="_top">
<polygon fill="#ffffff" stroke="transparent" points="272.5,-1184.2 272.5,-1245.2 405.5,-1245.2 405.5,-1184.2 272.5,-1184.2"/>
<polygon fill="#f5f5f5" stroke="transparent" points="273,-1221.7 273,-1244.7 406,-1244.7 406,-1221.7 273,-1221.7"/>
<polygon fill="none" stroke="#000000" points="273,-1221.7 273,-1244.7 406,-1244.7 406,-1221.7 273,-1221.7"/>
<text text-anchor="start" x="278" y="-1230.3" font-family="Helvetica,sans-Serif" font-weight="bold" font-size="11.00" fill="#000000">activity_tracking</text>
<text text-anchor="start" x="371.5219" y="-1229.8" font-family="Helvetica,sans-Serif" font-size="11.00" fill="#000000">[table]</text>
<polygon fill="none" stroke="#000000" points="273,-1202.7 273,-1221.7 406,-1221.7 406,-1202.7 273,-1202.7"/>
<text text-anchor="start" x="276" y="-1208.8" font-family="Helvetica,sans-Serif" font-size="11.00" fill="#000000">...</text>
<polygon fill="#ffffff" stroke="transparent" points="273,-1183.7 273,-1202.7 338,-1202.7 338,-1183.7 273,-1183.7"/>
<polygon fill="none" stroke="#000000" points="273,-1183.7 273,-1202.7 338,-1202.7 338,-1183.7 273,-1183.7"/>
<text text-anchor="start" x="276" y="-1189.8" font-family="Helvetica,sans-Serif" font-size="11.00" fill="#000000">&lt; 1</text>
<polygon fill="#ffffff" stroke="transparent" points="338,-1183.7 338,-1202.7 372,-1202.7 372,-1183.7 338,-1183.7"/>
<polygon fill="none" stroke="#000000" points="338,-1183.7 338,-1202.7 372,-1202.7 372,-1183.7 338,-1183.7"/>
<text text-anchor="start" x="362.8862" y="-1189.8" font-family="Helvetica,sans-Serif" font-size="11.00" fill="#000000"> &#160;</text>
<polygon fill="#ffffff" stroke="transparent" points="372,-1183.7 372,-1202.7 406,-1202.7 406,-1183.7 372,-1183.7"/>
<polygon fill="none" stroke="#000000" points="372,-1183.7 372,-1202.7 406,-1202.7 406,-1183.7 372,-1183.7"/>
<text text-anchor="start" x="396.8862" y="-1189.8" font-family="Helvetica,sans-Serif" font-size="11.00" fill="#000000"> &#160;</text>
</a>
</g>
</g>
<!-- package_group -->
<g id="node2" class="node">
<title>package_group</title>
<g id="a_node2"><a xlink:href="../../tables/package_group.html" xlink:title="package_group" target="_top">
<polygon fill="#ffffff" stroke="transparent" points="8,-446.2 8,-551.2 173,-551.2 173,-446.2 8,-446.2"/>
<polygon fill="#f5f5f5" stroke="transparent" points="8.5,-527.7 8.5,-550.7 173.5,-550.7 173.5,-527.7 8.5,-527.7"/>
<polygon fill="none" stroke="#000000" points="8.5,-527.7 8.5,-550.7 173.5,-550.7 173.5,-527.7 8.5,-527.7"/>
<text text-anchor="start" x="13.5" y="-536.3" font-family="Helvetica,sans-Serif" font-weight="bold" font-size="11.00" fill="#000000">package_group</text>
<text text-anchor="start" x="138.5437" y="-535.8" font-family="Helvetica,sans-Serif" font-size="11.00" fill="#000000">[table]</text>
<polygon fill="none" stroke="#000000" points="8.5,-505.7 8.5,-527.7 173.5,-527.7 173.5,-505.7 8.5,-505.7"/>
<image xlink:href="../../images/primaryKeys.png" width="11px" height="12px" preserveAspectRatio="xMinYMin meet" x="13.5" y="-522.7"/>
<text text-anchor="start" x="28.5" y="-512.8" font-family="Helvetica,sans-Serif" font-size="11.00" fill="#000000">id</text>
<polygon fill="none" stroke="#000000" points="8.5,-483.7 8.5,-505.7 173.5,-505.7 173.5,-483.7 8.5,-483.7"/>
<image xlink:href="../../images/foreignKeys.png" width="11px" height="12px" preserveAspectRatio="xMinYMin meet" x="13.5" y="-500.7"/>
<text text-anchor="start" x="28.5" y="-490.8" font-family="Helvetica,sans-Serif" font-size="11.00" fill="#000000">parent_id</text>
<polygon fill="none" stroke="#000000" points="8.5,-464.7 8.5,-483.7 173.5,-483.7 173.5,-464.7 8.5,-464.7"/>
<text text-anchor="start" x="11.5" y="-470.8" font-family="Helvetica,sans-Serif" font-size="11.00" fill="#000000">...</text>
<polygon fill="#ffffff" stroke="transparent" points="8.5,-445.7 8.5,-464.7 81.5,-464.7 81.5,-445.7 8.5,-445.7"/>
<polygon fill="none" stroke="#000000" points="8.5,-445.7 8.5,-464.7 81.5,-464.7 81.5,-445.7 8.5,-445.7"/>
<text text-anchor="start" x="11.5" y="-451.8" font-family="Helvetica,sans-Serif" font-size="11.00" fill="#000000">&lt; 1</text>
<polygon fill="#ffffff" stroke="transparent" points="81.5,-445.7 81.5,-464.7 119.5,-464.7 119.5,-445.7 81.5,-445.7"/>
<polygon fill="none" stroke="#000000" points="81.5,-445.7 81.5,-464.7 119.5,-464.7 119.5,-445.7 81.5,-445.7"/>
<text text-anchor="start" x="110.3862" y="-451.8" font-family="Helvetica,sans-Serif" font-size="11.00" fill="#000000"> &#160;</text>
<polygon fill="#ffffff" stroke="transparent" points="119.5,-445.7 119.5,-464.7 173.5,-464.7 173.5,-445.7 119.5,-445.7"/>
<polygon fill="none" stroke="#000000" points="119.5,-445.7 119.5,-464.7 173.5,-464.7 173.5,-445.7 119.5,-445.7"/>
<text text-anchor="start" x="148.7904" y="-451.8" font-family="Helvetica,sans-Serif" font-size="11.00" fill="#000000">15 &gt;</text>
</a>
</g>
</g>
<!-- activity_tracking&#45;&gt;package_group -->
<g id="edge1" class="edge">
<title>activity_tracking:w&#45;&gt;package_group:e</title>
<path fill="none" stroke="#000000" d="M258.4985,-1210.6932C237.5608,-1207.4205 227.0596,-1195.9848 214,-1173.7 177.0207,-1110.5986 246.6386,-516.7 173.5,-516.7"/>
<polygon fill="#000000" stroke="#000000" points="265.0192,-1211.1458 272.7506,-1215.2914 269.0096,-1211.4229 273,-1211.7 273,-1211.7 273,-1211.7 269.0096,-1211.4229 273.2494,-1208.1086 265.0192,-1211.1458 265.0192,-1211.1458"/>
<ellipse fill="none" stroke="#000000" cx="261.8269" cy="-1210.9242" rx="3.2" ry="3.2"/>
</g>
<!-- build -->
<g id="node3" class="node">
<title>build</title>
<g id="a_node3"><a xlink:href="../../tables/build.html" xlink:title="build" target="_top">
<polygon fill="#ffffff" stroke="transparent" points="305.5,-1102.2 305.5,-1163.2 372.5,-1163.2 372.5,-1102.2 305.5,-1102.2"/>
<polygon fill="#f5f5f5" stroke="transparent" points="306,-1139.7 306,-1162.7 373,-1162.7 373,-1139.7 306,-1139.7"/>
<polygon fill="none" stroke="#000000" points="306,-1139.7 306,-1162.7 373,-1162.7 373,-1139.7 306,-1139.7"/>
<text text-anchor="start" x="311" y="-1148.3" font-family="Helvetica,sans-Serif" font-weight="bold" font-size="11.00" fill="#000000">build</text>
<text text-anchor="start" x="338.5219" y="-1147.8" font-family="Helvetica,sans-Serif" font-size="11.00" fill="#000000">[table]</text>
<polygon fill="none" stroke="#000000" points="306,-1120.7 306,-1139.7 373,-1139.7 373,-1120.7 306,-1120.7"/>
<text text-anchor="start" x="309" y="-1126.8" font-family="Helvetica,sans-Serif" font-size="11.00" fill="#000000">...</text>
<polygon fill="#ffffff" stroke="transparent" points="306,-1101.7 306,-1120.7 333,-1120.7 333,-1101.7 306,-1101.7"/>
<polygon fill="none" stroke="#000000" points="306,-1101.7 306,-1120.7 333,-1120.7 333,-1101.7 306,-1101.7"/>
<text text-anchor="start" x="309" y="-1107.8" font-family="Helvetica,sans-Serif" font-size="11.00" fill="#000000">&lt; 1</text>
<polygon fill="#ffffff" stroke="transparent" points="333,-1101.7 333,-1120.7 348,-1120.7 348,-1101.7 333,-1101.7"/>
<polygon fill="none" stroke="#000000" points="333,-1101.7 333,-1120.7 348,-1120.7 348,-1101.7 333,-1101.7"/>
<text text-anchor="start" x="338.8862" y="-1107.8" font-family="Helvetica,sans-Serif" font-size="11.00" fill="#000000"> &#160;</text>
<polygon fill="#ffffff" stroke="transparent" points="348,-1101.7 348,-1120.7 373,-1120.7 373,-1101.7 348,-1101.7"/>
<polygon fill="none" stroke="#000000" points="348,-1101.7 348,-1120.7 373,-1120.7 373,-1101.7 348,-1101.7"/>
<text text-anchor="start" x="354.4053" y="-1107.8" font-family="Helvetica,sans-Serif" font-size="11.00" fill="#000000">5 &gt;</text>
</a>
</g>
</g>
<!-- build&#45;&gt;package_group -->
<g id="edge2" class="edge">
<title>build:w&#45;&gt;package_group:e</title>
<path fill="none" stroke="#000000" d="M291.3256,-1129.5619C256.5761,-1128.7404 236.8418,-1123.379 214,-1091.7 176.5414,-1039.7491 237.5472,-516.7 173.5,-516.7"/>
<polygon fill="#000000" stroke="#000000" points="298.0004,-1129.6247 305.9661,-1133.2998 302.0002,-1129.6623 306,-1129.7 306,-1129.7 306,-1129.7 302.0002,-1129.6623 306.0339,-1126.1002 298.0004,-1129.6247 298.0004,-1129.6247"/>
<ellipse fill="none" stroke="#000000" cx="294.8005" cy="-1129.5945" rx="3.2" ry="3.2"/>
</g>
<!-- favorite_packages -->
<g id="node4" class="node">
<title>favorite_packages</title>
<g id="a_node4"><a xlink:href="../../tables/favorite_packages.html" xlink:title="favorite_packages" target="_top">
<polygon fill="#ffffff" stroke="transparent" points="267.5,-1020.2 267.5,-1081.2 410.5,-1081.2 410.5,-1020.2 267.5,-1020.2"/>
<polygon fill="#f5f5f5" stroke="transparent" points="268,-1057.7 268,-1080.7 411,-1080.7 411,-1057.7 268,-1057.7"/>
<polygon fill="none" stroke="#000000" points="268,-1057.7 268,-1080.7 411,-1080.7 411,-1057.7 268,-1057.7"/>
<text text-anchor="start" x="273" y="-1066.3" font-family="Helvetica,sans-Serif" font-weight="bold" font-size="11.00" fill="#000000">favorite_packages</text>
<text text-anchor="start" x="376.5219" y="-1065.8" font-family="Helvetica,sans-Serif" font-size="11.00" fill="#000000">[table]</text>
<polygon fill="none" stroke="#000000" points="268,-1038.7 268,-1057.7 411,-1057.7 411,-1038.7 268,-1038.7"/>
<text text-anchor="start" x="271" y="-1044.8" font-family="Helvetica,sans-Serif" font-size="11.00" fill="#000000">...</text>
<polygon fill="#ffffff" stroke="transparent" points="268,-1019.7 268,-1038.7 338,-1038.7 338,-1019.7 268,-1019.7"/>
<polygon fill="none" stroke="#000000" points="268,-1019.7 268,-1038.7 338,-1038.7 338,-1019.7 268,-1019.7"/>
<text text-anchor="start" x="271" y="-1025.8" font-family="Helvetica,sans-Serif" font-size="11.00" fill="#000000">&lt; 2</text>
<polygon fill="#ffffff" stroke="transparent" points="338,-1019.7 338,-1038.7 374,-1038.7 374,-1019.7 338,-1019.7"/>
<polygon fill="none" stroke="#000000" points="338,-1019.7 338,-1038.7 374,-1038.7 374,-1019.7 338,-1019.7"/>
<text text-anchor="start" x="364.8862" y="-1025.8" font-family="Helvetica,sans-Serif" font-size="11.00" fill="#000000"> &#160;</text>
<polygon fill="#ffffff" stroke="transparent" points="374,-1019.7 374,-1038.7 411,-1038.7 411,-1019.7 374,-1019.7"/>
<polygon fill="none" stroke="#000000" points="374,-1019.7 374,-1038.7 411,-1038.7 411,-1019.7 374,-1019.7"/>
<text text-anchor="start" x="401.8862" y="-1025.8" font-family="Helvetica,sans-Serif" font-size="11.00" fill="#000000"> &#160;</text>
</a>
</g>
</g>
<!-- favorite_packages&#45;&gt;package_group -->
<g id="edge3" class="edge">
<title>favorite_packages:w&#45;&gt;package_group:e</title>
<path fill="none" stroke="#000000" d="M253.6378,-1046.4305C234.8014,-1042.6633 225.9001,-1030.4946 214,-1009.7 186.7009,-961.9966 228.4623,-516.7 173.5,-516.7"/>
<polygon fill="#000000" stroke="#000000" points="260.0311,-1046.9956 267.683,-1051.286 264.0155,-1047.3478 268,-1047.7 268,-1047.7 268,-1047.7 264.0155,-1047.3478 268.317,-1044.114 260.0311,-1046.9956 260.0311,-1046.9956"/>
<ellipse fill="none" stroke="#000000" cx="256.8435" cy="-1046.7138" rx="3.2" ry="3.2"/>
</g>
<!-- migrated_version -->
<g id="node5" class="node">
<title>migrated_version</title>
<g id="a_node5"><a xlink:href="../../tables/migrated_version.html" xlink:title="migrated_version" target="_top">
<polygon fill="#ffffff" stroke="transparent" points="222,-776.7 222,-998.7 456,-998.7 456,-776.7 222,-776.7"/>
<polygon fill="#f5f5f5" stroke="transparent" points="224,-973.7 224,-996.7 454,-996.7 454,-973.7 224,-973.7"/>
<polygon fill="none" stroke="#000000" points="224,-973.7 224,-996.7 454,-996.7 454,-973.7 224,-973.7"/>
<text text-anchor="start" x="229" y="-982.3" font-family="Helvetica,sans-Serif" font-weight="bold" font-size="11.00" fill="#000000">migrated_version</text>
<text text-anchor="start" x="419.0437" y="-981.8" font-family="Helvetica,sans-Serif" font-size="11.00" fill="#000000">[table]</text>
<polygon fill="none" stroke="#000000" points="224,-951.7 224,-973.7 345,-973.7 345,-951.7 224,-951.7"/>
<image xlink:href="../../images/foreignKeys.png" width="11px" height="12px" preserveAspectRatio="xMinYMin meet" x="229" y="-968.7"/>
<text text-anchor="start" x="244" y="-958.8" font-family="Helvetica,sans-Serif" font-size="11.00" fill="#000000">package_id</text>
<polygon fill="none" stroke="#000000" points="345,-951.7 345,-973.7 454,-973.7 454,-951.7 345,-951.7"/>
<text text-anchor="start" x="347.5344" y="-959.4" font-family="Helvetica,sans-Serif" font-size="11.00" fill="#000000">varchar[2147483647]</text>
<polygon fill="none" stroke="#000000" points="224,-929.7 224,-951.7 345,-951.7 345,-929.7 224,-929.7"/>
<text text-anchor="start" x="244" y="-936.8" font-family="Helvetica,sans-Serif" font-size="11.00" fill="#000000">version</text>
<polygon fill="none" stroke="#000000" points="345,-929.7 345,-951.7 454,-951.7 454,-929.7 345,-929.7"/>
<text text-anchor="start" x="347.5344" y="-937.4" font-family="Helvetica,sans-Serif" font-size="11.00" fill="#000000">varchar[2147483647]</text>
<polygon fill="none" stroke="#000000" points="224,-907.7 224,-929.7 345,-929.7 345,-907.7 224,-907.7"/>
<text text-anchor="start" x="244" y="-914.8" font-family="Helvetica,sans-Serif" font-size="11.00" fill="#000000">revision</text>
<polygon fill="none" stroke="#000000" points="345,-907.7 345,-929.7 454,-929.7 454,-907.7 345,-907.7"/>
<text text-anchor="start" x="348" y="-915.4" font-family="Helvetica,sans-Serif" font-size="11.00" fill="#000000">int4[10]</text>
<polygon fill="none" stroke="#000000" points="224,-885.7 224,-907.7 345,-907.7 345,-885.7 224,-885.7"/>
<text text-anchor="start" x="244" y="-892.8" font-family="Helvetica,sans-Serif" font-size="11.00" fill="#000000">error</text>
<polygon fill="none" stroke="#000000" points="345,-885.7 345,-907.7 454,-907.7 454,-885.7 345,-885.7"/>
<text text-anchor="start" x="347.5344" y="-893.4" font-family="Helvetica,sans-Serif" font-size="11.00" fill="#000000">varchar[2147483647]</text>
<polygon fill="none" stroke="#000000" points="224,-863.7 224,-885.7 345,-885.7 345,-863.7 224,-863.7"/>
<text text-anchor="start" x="244" y="-870.8" font-family="Helvetica,sans-Serif" font-size="11.00" fill="#000000">build_id</text>
<polygon fill="none" stroke="#000000" points="345,-863.7 345,-885.7 454,-885.7 454,-863.7 345,-863.7"/>
<text text-anchor="start" x="347.5344" y="-871.4" font-family="Helvetica,sans-Serif" font-size="11.00" fill="#000000">varchar[2147483647]</text>
<polygon fill="none" stroke="#000000" points="224,-841.7 224,-863.7 345,-863.7 345,-841.7 224,-841.7"/>
<text text-anchor="start" x="244" y="-848.8" font-family="Helvetica,sans-Serif" font-size="11.00" fill="#000000">migration_id</text>
<polygon fill="none" stroke="#000000" points="345,-841.7 345,-863.7 454,-863.7 454,-841.7 345,-841.7"/>
<text text-anchor="start" x="347.5344" y="-849.4" font-family="Helvetica,sans-Serif" font-size="11.00" fill="#000000">varchar[2147483647]</text>
<polygon fill="none" stroke="#000000" points="224,-819.7 224,-841.7 345,-841.7 345,-819.7 224,-819.7"/>
<text text-anchor="start" x="244" y="-826.8" font-family="Helvetica,sans-Serif" font-size="11.00" fill="#000000">build_type</text>
<polygon fill="none" stroke="#000000" points="345,-819.7 345,-841.7 454,-841.7 454,-819.7 345,-819.7"/>
<text text-anchor="start" x="347.5344" y="-827.4" font-family="Helvetica,sans-Serif" font-size="11.00" fill="#000000">varchar[2147483647]</text>
<polygon fill="none" stroke="#000000" points="224,-797.7 224,-819.7 345,-819.7 345,-797.7 224,-797.7"/>
<text text-anchor="start" x="244" y="-804.8" font-family="Helvetica,sans-Serif" font-size="11.00" fill="#000000">no_changelog</text>
<polygon fill="none" stroke="#000000" points="345,-797.7 345,-819.7 454,-819.7 454,-797.7 345,-797.7"/>
<text text-anchor="start" x="348" y="-805.4" font-family="Helvetica,sans-Serif" font-size="11.00" fill="#000000">bool[1]</text>
<polygon fill="#ffffff" stroke="transparent" points="224,-778.7 224,-797.7 289,-797.7 289,-778.7 224,-778.7"/>
<polygon fill="none" stroke="#000000" points="224,-778.7 224,-797.7 289,-797.7 289,-778.7 224,-778.7"/>
<text text-anchor="start" x="227" y="-784.8" font-family="Helvetica,sans-Serif" font-size="11.00" fill="#000000">&lt; 1</text>
<polygon fill="#ffffff" stroke="transparent" points="289,-778.7 289,-797.7 345,-797.7 345,-778.7 289,-778.7"/>
<polygon fill="none" stroke="#000000" points="289,-778.7 289,-797.7 345,-797.7 345,-778.7 289,-778.7"/>
<text text-anchor="start" x="335.8862" y="-784.8" font-family="Helvetica,sans-Serif" font-size="11.00" fill="#000000"> &#160;</text>
<polygon fill="#ffffff" stroke="transparent" points="345,-778.7 345,-797.7 454,-797.7 454,-778.7 345,-778.7"/>
<polygon fill="none" stroke="#000000" points="345,-778.7 345,-797.7 454,-797.7 454,-778.7 345,-778.7"/>
<text text-anchor="start" x="435.4053" y="-784.8" font-family="Helvetica,sans-Serif" font-size="11.00" fill="#000000">0 &gt;</text>
<polygon fill="none" stroke="#000000" stroke-width="2" points="223,-777.7 223,-997.7 455,-997.7 455,-777.7 223,-777.7"/>
</a>
</g>
</g>
<!-- migrated_version&#45;&gt;package_group -->
<g id="edge4" class="edge">
<title>migrated_version:w&#45;&gt;package_group:e</title>
<path fill="none" stroke="#000000" d="M209.786,-958.8443C139.8073,-915.2526 267.7897,-516.7 173.5,-516.7"/>
<polygon fill="#000000" stroke="#000000" points="216.279,-960.6056 223.0575,-966.1744 220.1395,-961.6528 224,-962.7 224,-962.7 224,-962.7 220.1395,-961.6528 224.9425,-959.2256 216.279,-960.6056 216.279,-960.6056"/>
<ellipse fill="none" stroke="#000000" cx="213.1906" cy="-959.7678" rx="3.2" ry="3.2"/>
</g>
<!-- operation_open_count -->
<g id="node6" class="node">
<title>operation_open_count</title>
<g id="a_node6"><a xlink:href="../../tables/operation_open_count.html" xlink:title="operation_open_count" target="_top">
<polygon fill="#ffffff" stroke="transparent" points="255,-694.2 255,-755.2 423,-755.2 423,-694.2 255,-694.2"/>
<polygon fill="#f5f5f5" stroke="transparent" points="255,-731.7 255,-754.7 423,-754.7 423,-731.7 255,-731.7"/>
<polygon fill="none" stroke="#000000" points="255,-731.7 255,-754.7 423,-754.7 423,-731.7 255,-731.7"/>
<text text-anchor="start" x="260" y="-740.3" font-family="Helvetica,sans-Serif" font-weight="bold" font-size="11.00" fill="#000000">operation_open_count</text>
<text text-anchor="start" x="388.5219" y="-739.8" font-family="Helvetica,sans-Serif" font-size="11.00" fill="#000000">[table]</text>
<polygon fill="none" stroke="#000000" points="255,-712.7 255,-731.7 423,-731.7 423,-712.7 255,-712.7"/>
<text text-anchor="start" x="258" y="-718.8" font-family="Helvetica,sans-Serif" font-size="11.00" fill="#000000">...</text>
<polygon fill="#ffffff" stroke="transparent" points="255,-693.7 255,-712.7 337,-712.7 337,-693.7 255,-693.7"/>
<polygon fill="none" stroke="#000000" points="255,-693.7 255,-712.7 337,-712.7 337,-693.7 255,-693.7"/>
<text text-anchor="start" x="258" y="-699.8" font-family="Helvetica,sans-Serif" font-size="11.00" fill="#000000">&lt; 1</text>
<polygon fill="#ffffff" stroke="transparent" points="337,-693.7 337,-712.7 380,-712.7 380,-693.7 337,-693.7"/>
<polygon fill="none" stroke="#000000" points="337,-693.7 337,-712.7 380,-712.7 380,-693.7 337,-693.7"/>
<text text-anchor="start" x="370.8862" y="-699.8" font-family="Helvetica,sans-Serif" font-size="11.00" fill="#000000"> &#160;</text>
<polygon fill="#ffffff" stroke="transparent" points="380,-693.7 380,-712.7 423,-712.7 423,-693.7 380,-693.7"/>
<polygon fill="none" stroke="#000000" points="380,-693.7 380,-712.7 423,-712.7 423,-693.7 380,-693.7"/>
<text text-anchor="start" x="413.8862" y="-699.8" font-family="Helvetica,sans-Serif" font-size="11.00" fill="#000000"> &#160;</text>
</a>
</g>
</g>
<!-- operation_open_count&#45;&gt;package_group -->
<g id="edge5" class="edge">
<title>operation_open_count:w&#45;&gt;package_group:e</title>
<path fill="none" stroke="#000000" d="M240.6454,-719.1199C227.9822,-713.6653 223.6268,-700.1063 214,-683.7 175.3485,-617.8289 249.8737,-516.7 173.5,-516.7"/>
<polygon fill="#000000" stroke="#000000" points="247.1262,-720.2847 254.3631,-725.2432 251.0631,-720.9924 255,-721.7 255,-721.7 255,-721.7 251.0631,-720.9924 255.6369,-718.1568 247.1262,-720.2847 247.1262,-720.2847"/>
<ellipse fill="none" stroke="#000000" cx="243.9766" cy="-719.7186" rx="3.2" ry="3.2"/>
</g>
<!-- package_export_config -->
<g id="node7" class="node">
<title>package_export_config</title>
<g id="a_node7"><a xlink:href="../../tables/package_export_config.html" xlink:title="package_export_config" target="_top">
<polygon fill="#ffffff" stroke="transparent" points="252.5,-612.2 252.5,-673.2 425.5,-673.2 425.5,-612.2 252.5,-612.2"/>
<polygon fill="#f5f5f5" stroke="transparent" points="253,-649.7 253,-672.7 426,-672.7 426,-649.7 253,-649.7"/>
<polygon fill="none" stroke="#000000" points="253,-649.7 253,-672.7 426,-672.7 426,-649.7 253,-649.7"/>
<text text-anchor="start" x="258" y="-658.3" font-family="Helvetica,sans-Serif" font-weight="bold" font-size="11.00" fill="#000000">package_export_config</text>
<text text-anchor="start" x="391.5219" y="-657.8" font-family="Helvetica,sans-Serif" font-size="11.00" fill="#000000">[table]</text>
<polygon fill="none" stroke="#000000" points="253,-630.7 253,-649.7 426,-649.7 426,-630.7 253,-630.7"/>
<text text-anchor="start" x="256" y="-636.8" font-family="Helvetica,sans-Serif" font-size="11.00" fill="#000000">...</text>
<polygon fill="#ffffff" stroke="transparent" points="253,-611.7 253,-630.7 338,-630.7 338,-611.7 253,-611.7"/>
<polygon fill="none" stroke="#000000" points="253,-611.7 253,-630.7 338,-630.7 338,-611.7 253,-611.7"/>
<text text-anchor="start" x="256" y="-617.8" font-family="Helvetica,sans-Serif" font-size="11.00" fill="#000000">&lt; 1</text>
<polygon fill="#ffffff" stroke="transparent" points="338,-611.7 338,-630.7 382,-630.7 382,-611.7 338,-611.7"/>
<polygon fill="none" stroke="#000000" points="338,-611.7 338,-630.7 382,-630.7 382,-611.7 338,-611.7"/>
<text text-anchor="start" x="372.8862" y="-617.8" font-family="Helvetica,sans-Serif" font-size="11.00" fill="#000000"> &#160;</text>
<polygon fill="#ffffff" stroke="transparent" points="382,-611.7 382,-630.7 426,-630.7 426,-611.7 382,-611.7"/>
<polygon fill="none" stroke="#000000" points="382,-611.7 382,-630.7 426,-630.7 426,-611.7 382,-611.7"/>
<text text-anchor="start" x="416.8862" y="-617.8" font-family="Helvetica,sans-Serif" font-size="11.00" fill="#000000"> &#160;</text>
</a>
</g>
</g>
<!-- package_export_config&#45;&gt;package_group -->
<g id="edge6" class="edge">
<title>package_export_config:w&#45;&gt;package_group:e</title>
<path fill="none" stroke="#000000" d="M242.4162,-638.1622C228.1605,-633.361 225.6694,-617.9935 214,-601.7 189.6339,-567.6786 215.3469,-516.7 173.5,-516.7"/>
<polygon fill="#000000" stroke="#000000" points="252.7835,-635.6265 251.6331,-643.5434 250.0497,-643.3133 251.2001,-635.3965 252.7835,-635.6265"/>
<polyline fill="none" stroke="#000000" points="253,-639.7 249.0416,-639.1248 "/>
<ellipse fill="none" stroke="#000000" cx="245.8748" cy="-638.6647" rx="3.2" ry="3.2"/>
</g>
<!-- package_member_role -->
<g id="node8" class="node">
<title>package_member_role</title>
<g id="a_node8"><a xlink:href="../../tables/package_member_role.html" xlink:title="package_member_role" target="_top">
<polygon fill="#ffffff" stroke="transparent" points="254.5,-530.2 254.5,-591.2 423.5,-591.2 423.5,-530.2 254.5,-530.2"/>
<polygon fill="#f5f5f5" stroke="transparent" points="255,-567.7 255,-590.7 424,-590.7 424,-567.7 255,-567.7"/>
<polygon fill="none" stroke="#000000" points="255,-567.7 255,-590.7 424,-590.7 424,-567.7 255,-567.7"/>
<text text-anchor="start" x="260" y="-576.3" font-family="Helvetica,sans-Serif" font-weight="bold" font-size="11.00" fill="#000000">package_member_role</text>
<text text-anchor="start" x="389.5219" y="-575.8" font-family="Helvetica,sans-Serif" font-size="11.00" fill="#000000">[table]</text>
<polygon fill="none" stroke="#000000" points="255,-548.7 255,-567.7 424,-567.7 424,-548.7 255,-548.7"/>
<text text-anchor="start" x="258" y="-554.8" font-family="Helvetica,sans-Serif" font-size="11.00" fill="#000000">...</text>
<polygon fill="#ffffff" stroke="transparent" points="255,-529.7 255,-548.7 338,-548.7 338,-529.7 255,-529.7"/>
<polygon fill="none" stroke="#000000" points="255,-529.7 255,-548.7 338,-548.7 338,-529.7 255,-529.7"/>
<text text-anchor="start" x="258" y="-535.8" font-family="Helvetica,sans-Serif" font-size="11.00" fill="#000000">&lt; 1</text>
<polygon fill="#ffffff" stroke="transparent" points="338,-529.7 338,-548.7 381,-548.7 381,-529.7 338,-529.7"/>
<polygon fill="none" stroke="#000000" points="338,-529.7 338,-548.7 381,-548.7 381,-529.7 338,-529.7"/>
<text text-anchor="start" x="371.8862" y="-535.8" font-family="Helvetica,sans-Serif" font-size="11.00" fill="#000000"> &#160;</text>
<polygon fill="#ffffff" stroke="transparent" points="381,-529.7 381,-548.7 424,-548.7 424,-529.7 381,-529.7"/>
<polygon fill="none" stroke="#000000" points="381,-529.7 381,-548.7 424,-548.7 424,-529.7 381,-529.7"/>
<text text-anchor="start" x="414.8862" y="-535.8" font-family="Helvetica,sans-Serif" font-size="11.00" fill="#000000"> &#160;</text>
</a>
</g>
</g>
<!-- package_member_role&#45;&gt;package_group -->
<g id="edge7" class="edge">
<title>package_member_role:w&#45;&gt;package_group:e</title>
<path fill="none" stroke="#000000" d="M240.4151,-555.6104C213.5914,-547.2554 208.5039,-516.7 173.5,-516.7"/>
<polygon fill="#000000" stroke="#000000" points="247.0809,-556.5654 254.4894,-561.2636 251.0404,-557.1327 255,-557.7 255,-557.7 255,-557.7 251.0404,-557.1327 255.5106,-554.1364 247.0809,-556.5654 247.0809,-556.5654"/>
<ellipse fill="none" stroke="#000000" cx="243.9132" cy="-556.1115" rx="3.2" ry="3.2"/>
</g>
<!-- package_service -->
<g id="node9" class="node">
<title>package_service</title>
<g id="a_node9"><a xlink:href="../../tables/package_service.html" xlink:title="package_service" target="_top">
<polygon fill="#ffffff" stroke="transparent" points="271.5,-448.2 271.5,-509.2 406.5,-509.2 406.5,-448.2 271.5,-448.2"/>
<polygon fill="#f5f5f5" stroke="transparent" points="272,-485.7 272,-508.7 407,-508.7 407,-485.7 272,-485.7"/>
<polygon fill="none" stroke="#000000" points="272,-485.7 272,-508.7 407,-508.7 407,-485.7 272,-485.7"/>
<text text-anchor="start" x="277" y="-494.3" font-family="Helvetica,sans-Serif" font-weight="bold" font-size="11.00" fill="#000000">package_service</text>
<text text-anchor="start" x="372.5219" y="-493.8" font-family="Helvetica,sans-Serif" font-size="11.00" fill="#000000">[table]</text>
<polygon fill="none" stroke="#000000" points="272,-466.7 272,-485.7 407,-485.7 407,-466.7 272,-466.7"/>
<text text-anchor="start" x="275" y="-472.8" font-family="Helvetica,sans-Serif" font-size="11.00" fill="#000000">...</text>
<polygon fill="#ffffff" stroke="transparent" points="272,-447.7 272,-466.7 338,-466.7 338,-447.7 272,-447.7"/>
<polygon fill="none" stroke="#000000" points="272,-447.7 272,-466.7 338,-466.7 338,-447.7 272,-447.7"/>
<text text-anchor="start" x="275" y="-453.8" font-family="Helvetica,sans-Serif" font-size="11.00" fill="#000000">&lt; 2</text>
<polygon fill="#ffffff" stroke="transparent" points="338,-447.7 338,-466.7 372,-466.7 372,-447.7 338,-447.7"/>
<polygon fill="none" stroke="#000000" points="338,-447.7 338,-466.7 372,-466.7 372,-447.7 338,-447.7"/>
<text text-anchor="start" x="362.8862" y="-453.8" font-family="Helvetica,sans-Serif" font-size="11.00" fill="#000000"> &#160;</text>
<polygon fill="#ffffff" stroke="transparent" points="372,-447.7 372,-466.7 407,-466.7 407,-447.7 372,-447.7"/>
<polygon fill="none" stroke="#000000" points="372,-447.7 372,-466.7 407,-466.7 407,-447.7 372,-447.7"/>
<text text-anchor="start" x="397.8862" y="-453.8" font-family="Helvetica,sans-Serif" font-size="11.00" fill="#000000"> &#160;</text>
</a>
</g>
</g>
<!-- package_service&#45;&gt;package_group -->
<g id="edge8" class="edge">
<title>package_service:w&#45;&gt;package_group:e</title>
<path fill="none" stroke="#000000" d="M257.4423,-475.3511C223.1899,-478.5399 215.5471,-511.3797 173.5,-516.7"/>
<polygon fill="#000000" stroke="#000000" points="264.0023,-475.5083 271.9137,-479.299 268.0011,-475.6041 272,-475.7 272,-475.7 272,-475.7 268.0011,-475.6041 272.0863,-472.101 264.0023,-475.5083 264.0023,-475.5083"/>
<ellipse fill="none" stroke="#000000" cx="260.8032" cy="-475.4316" rx="3.2" ry="3.2"/>
</g>
<!-- package_service&#45;&gt;package_group -->
<g id="edge9" class="edge">
<title>package_service:w&#45;&gt;package_group:e</title>
<path fill="none" stroke="#000000" d="M257.8966,-479.1098C223.2566,-491.0945 215.7324,-522.9344 173.5,-516.7"/>
<polygon fill="#000000" stroke="#000000" points="264.224,-477.58 272.846,-479.1992 268.112,-476.64 272,-475.7 272,-475.7 272,-475.7 268.112,-476.64 271.154,-472.2008 264.224,-477.58 264.224,-477.58"/>
<ellipse fill="none" stroke="#000000" cx="261.1136" cy="-478.3321" rx="3.2" ry="3.2"/>
</g>
<!-- published_data -->
<g id="node10" class="node">
<title>published_data</title>
<g id="a_node10"><a xlink:href="../../tables/published_data.html" xlink:title="published_data" target="_top">
<polygon fill="#ffffff" stroke="transparent" points="275.5,-366.2 275.5,-427.2 402.5,-427.2 402.5,-366.2 275.5,-366.2"/>
<polygon fill="#f5f5f5" stroke="transparent" points="276,-403.7 276,-426.7 403,-426.7 403,-403.7 276,-403.7"/>
<polygon fill="none" stroke="#000000" points="276,-403.7 276,-426.7 403,-426.7 403,-403.7 276,-403.7"/>
<text text-anchor="start" x="281" y="-412.3" font-family="Helvetica,sans-Serif" font-weight="bold" font-size="11.00" fill="#000000">published_data</text>
<text text-anchor="start" x="368.5219" y="-411.8" font-family="Helvetica,sans-Serif" font-size="11.00" fill="#000000">[table]</text>
<polygon fill="none" stroke="#000000" points="276,-384.7 276,-403.7 403,-403.7 403,-384.7 276,-384.7"/>
<text text-anchor="start" x="279" y="-390.8" font-family="Helvetica,sans-Serif" font-size="11.00" fill="#000000">...</text>
<polygon fill="#ffffff" stroke="transparent" points="276,-365.7 276,-384.7 333,-384.7 333,-365.7 276,-365.7"/>
<polygon fill="none" stroke="#000000" points="276,-365.7 276,-384.7 333,-384.7 333,-365.7 276,-365.7"/>
<text text-anchor="start" x="279" y="-371.8" font-family="Helvetica,sans-Serif" font-size="11.00" fill="#000000">&lt; 1</text>
<polygon fill="#ffffff" stroke="transparent" points="333,-365.7 333,-384.7 363,-384.7 363,-365.7 333,-365.7"/>
<polygon fill="none" stroke="#000000" points="333,-365.7 333,-384.7 363,-384.7 363,-365.7 333,-365.7"/>
<text text-anchor="start" x="353.8862" y="-371.8" font-family="Helvetica,sans-Serif" font-size="11.00" fill="#000000"> &#160;</text>
<polygon fill="#ffffff" stroke="transparent" points="363,-365.7 363,-384.7 403,-384.7 403,-365.7 363,-365.7"/>
<polygon fill="none" stroke="#000000" points="363,-365.7 363,-384.7 403,-384.7 403,-365.7 363,-365.7"/>
<text text-anchor="start" x="384.4053" y="-371.8" font-family="Helvetica,sans-Serif" font-size="11.00" fill="#000000">2 &gt;</text>
</a>
</g>
</g>
<!-- published_data&#45;&gt;package_group -->
<g id="edge10" class="edge">
<title>published_data:w&#45;&gt;package_group:e</title>
<path fill="none" stroke="#000000" d="M261.4127,-395.1401C239.7803,-399.9467 232.49,-416.347 214,-437.7 188.1717,-467.5276 212.9562,-516.7 173.5,-516.7"/>
<polygon fill="#000000" stroke="#000000" points="268.0387,-394.486 276.3537,-397.2826 272.0194,-394.093 276,-393.7 276,-393.7 276,-393.7 272.0194,-394.093 275.6463,-390.1174 268.0387,-394.486 268.0387,-394.486"/>
<ellipse fill="none" stroke="#000000" cx="264.8542" cy="-394.8004" rx="3.2" ry="3.2"/>
</g>
<!-- published_document_open_count -->
<g id="node11" class="node">
<title>published_document_open_count</title>
<g id="a_node11"><a xlink:href="../../tables/published_document_open_count.html" xlink:title="published_document_open_count" target="_top">
<polygon fill="#ffffff" stroke="transparent" points="222,-284.2 222,-345.2 456,-345.2 456,-284.2 222,-284.2"/>
<polygon fill="#f5f5f5" stroke="transparent" points="222,-321.7 222,-344.7 456,-344.7 456,-321.7 222,-321.7"/>
<polygon fill="none" stroke="#000000" points="222,-321.7 222,-344.7 456,-344.7 456,-321.7 222,-321.7"/>
<text text-anchor="start" x="227" y="-330.3" font-family="Helvetica,sans-Serif" font-weight="bold" font-size="11.00" fill="#000000">published_document_open_count</text>
<text text-anchor="start" x="421.5219" y="-329.8" font-family="Helvetica,sans-Serif" font-size="11.00" fill="#000000">[table]</text>
<polygon fill="none" stroke="#000000" points="222,-302.7 222,-321.7 456,-321.7 456,-302.7 222,-302.7"/>
<text text-anchor="start" x="225" y="-308.8" font-family="Helvetica,sans-Serif" font-size="11.00" fill="#000000">...</text>
<polygon fill="#ffffff" stroke="transparent" points="222,-283.7 222,-302.7 337,-302.7 337,-283.7 222,-283.7"/>
<polygon fill="none" stroke="#000000" points="222,-283.7 222,-302.7 337,-302.7 337,-283.7 222,-283.7"/>
<text text-anchor="start" x="225" y="-289.8" font-family="Helvetica,sans-Serif" font-size="11.00" fill="#000000">&lt; 1</text>
<polygon fill="#ffffff" stroke="transparent" points="337,-283.7 337,-302.7 396,-302.7 396,-283.7 337,-283.7"/>
<polygon fill="none" stroke="#000000" points="337,-283.7 337,-302.7 396,-302.7 396,-283.7 337,-283.7"/>
<text text-anchor="start" x="386.8862" y="-289.8" font-family="Helvetica,sans-Serif" font-size="11.00" fill="#000000"> &#160;</text>
<polygon fill="#ffffff" stroke="transparent" points="396,-283.7 396,-302.7 456,-302.7 456,-283.7 396,-283.7"/>
<polygon fill="none" stroke="#000000" points="396,-283.7 396,-302.7 456,-302.7 456,-283.7 396,-283.7"/>
<text text-anchor="start" x="446.8862" y="-289.8" font-family="Helvetica,sans-Serif" font-size="11.00" fill="#000000"> &#160;</text>
</a>
</g>
</g>
<!-- published_document_open_count&#45;&gt;package_group -->
<g id="edge11" class="edge">
<title>published_document_open_count:w&#45;&gt;package_group:e</title>
<path fill="none" stroke="#000000" d="M207.4462,-313.8635C144.3239,-335.7727 261.4575,-516.7 173.5,-516.7"/>
<polygon fill="#000000" stroke="#000000" points="214.087,-312.8764 222.5294,-315.2609 218.0435,-312.2882 222,-311.7 222,-311.7 222,-311.7 218.0435,-312.2882 221.4706,-308.1391 214.087,-312.8764 214.087,-312.8764"/>
<ellipse fill="none" stroke="#000000" cx="210.9217" cy="-313.3469" rx="3.2" ry="3.2"/>
</g>
<!-- published_version -->
<g id="node12" class="node">
<title>published_version</title>
<g id="a_node12"><a xlink:href="../../tables/published_version.html" xlink:title="published_version" target="_top">
<polygon fill="#ffffff" stroke="transparent" points="266.5,-202.2 266.5,-263.2 411.5,-263.2 411.5,-202.2 266.5,-202.2"/>
<polygon fill="#f5f5f5" stroke="transparent" points="267,-239.7 267,-262.7 412,-262.7 412,-239.7 267,-239.7"/>
<polygon fill="none" stroke="#000000" points="267,-239.7 267,-262.7 412,-262.7 412,-239.7 267,-239.7"/>
<text text-anchor="start" x="272" y="-248.3" font-family="Helvetica,sans-Serif" font-weight="bold" font-size="11.00" fill="#000000">published_version</text>
<text text-anchor="start" x="377.5219" y="-247.8" font-family="Helvetica,sans-Serif" font-size="11.00" fill="#000000">[table]</text>
<polygon fill="none" stroke="#000000" points="267,-220.7 267,-239.7 412,-239.7 412,-220.7 267,-220.7"/>
<text text-anchor="start" x="270" y="-226.8" font-family="Helvetica,sans-Serif" font-size="11.00" fill="#000000">...</text>
<polygon fill="#ffffff" stroke="transparent" points="267,-201.7 267,-220.7 330,-220.7 330,-201.7 267,-201.7"/>
<polygon fill="none" stroke="#000000" points="267,-201.7 267,-220.7 330,-220.7 330,-201.7 267,-201.7"/>
<text text-anchor="start" x="270" y="-207.8" font-family="Helvetica,sans-Serif" font-size="11.00" fill="#000000">&lt; 1</text>
<polygon fill="#ffffff" stroke="transparent" points="330,-201.7 330,-220.7 363,-220.7 363,-201.7 330,-201.7"/>
<polygon fill="none" stroke="#000000" points="330,-201.7 330,-220.7 363,-220.7 363,-201.7 330,-201.7"/>
<text text-anchor="start" x="353.8862" y="-207.8" font-family="Helvetica,sans-Serif" font-size="11.00" fill="#000000"> &#160;</text>
<polygon fill="#ffffff" stroke="transparent" points="363,-201.7 363,-220.7 412,-220.7 412,-201.7 363,-201.7"/>
<polygon fill="none" stroke="#000000" points="363,-201.7 363,-220.7 412,-220.7 412,-201.7 363,-201.7"/>
<text text-anchor="start" x="387.2904" y="-207.8" font-family="Helvetica,sans-Serif" font-size="11.00" fill="#000000">18 &gt;</text>
</a>
</g>
</g>
<!-- published_version&#45;&gt;package_group -->
<g id="edge12" class="edge">
<title>published_version:w&#45;&gt;package_group:e</title>
<path fill="none" stroke="#000000" d="M252.5878,-231.3422C233.5596,-236.2664 226.512,-251.9248 214,-273.7 186.7256,-321.1669 228.2449,-516.7 173.5,-516.7"/>
<polygon fill="#000000" stroke="#000000" points="259.0514,-230.6058 267.4076,-233.2769 263.0257,-230.1529 267,-229.7 267,-229.7 267,-229.7 263.0257,-230.1529 266.5924,-226.1231 259.0514,-230.6058 259.0514,-230.6058"/>
<ellipse fill="none" stroke="#000000" cx="255.872" cy="-230.9681" rx="3.2" ry="3.2"/>
</g>
<!-- published_version_open_count -->
<g id="node13" class="node">
<title>published_version_open_count</title>
<g id="a_node13"><a xlink:href="../../tables/published_version_open_count.html" xlink:title="published_version_open_count" target="_top">
<polygon fill="#ffffff" stroke="transparent" points="229.5,-120.2 229.5,-181.2 448.5,-181.2 448.5,-120.2 229.5,-120.2"/>
<polygon fill="#f5f5f5" stroke="transparent" points="230,-157.7 230,-180.7 449,-180.7 449,-157.7 230,-157.7"/>
<polygon fill="none" stroke="#000000" points="230,-157.7 230,-180.7 449,-180.7 449,-157.7 230,-157.7"/>
<text text-anchor="start" x="235" y="-166.3" font-family="Helvetica,sans-Serif" font-weight="bold" font-size="11.00" fill="#000000">published_version_open_count</text>
<text text-anchor="start" x="414.5219" y="-165.8" font-family="Helvetica,sans-Serif" font-size="11.00" fill="#000000">[table]</text>
<polygon fill="none" stroke="#000000" points="230,-138.7 230,-157.7 449,-157.7 449,-138.7 230,-138.7"/>
<text text-anchor="start" x="233" y="-144.8" font-family="Helvetica,sans-Serif" font-size="11.00" fill="#000000">...</text>
<polygon fill="#ffffff" stroke="transparent" points="230,-119.7 230,-138.7 338,-138.7 338,-119.7 230,-119.7"/>
<polygon fill="none" stroke="#000000" points="230,-119.7 230,-138.7 338,-138.7 338,-119.7 230,-119.7"/>
<text text-anchor="start" x="233" y="-125.8" font-family="Helvetica,sans-Serif" font-size="11.00" fill="#000000">&lt; 1</text>
<polygon fill="#ffffff" stroke="transparent" points="338,-119.7 338,-138.7 393,-138.7 393,-119.7 338,-119.7"/>
<polygon fill="none" stroke="#000000" points="338,-119.7 338,-138.7 393,-138.7 393,-119.7 338,-119.7"/>
<text text-anchor="start" x="383.8862" y="-125.8" font-family="Helvetica,sans-Serif" font-size="11.00" fill="#000000"> &#160;</text>
<polygon fill="#ffffff" stroke="transparent" points="393,-119.7 393,-138.7 449,-138.7 449,-119.7 393,-119.7"/>
<polygon fill="none" stroke="#000000" points="393,-119.7 393,-138.7 449,-138.7 449,-119.7 393,-119.7"/>
<text text-anchor="start" x="439.8862" y="-125.8" font-family="Helvetica,sans-Serif" font-size="11.00" fill="#000000"> &#160;</text>
</a>
</g>
</g>
<!-- published_version_open_count&#45;&gt;package_group -->
<g id="edge13" class="edge">
<title>published_version_open_count:w&#45;&gt;package_group:e</title>
<path fill="none" stroke="#000000" d="M216.2541,-152.1011C160.349,-193.7335 251.1089,-516.7 173.5,-516.7"/>
<polygon fill="#000000" stroke="#000000" points="222.381,-150.1395 231.0978,-151.1286 226.1905,-148.9197 230,-147.7 230,-147.7 230,-147.7 226.1905,-148.9197 228.9022,-144.2714 222.381,-150.1395 222.381,-150.1395"/>
<ellipse fill="none" stroke="#000000" cx="219.3334" cy="-151.1152" rx="3.2" ry="3.2"/>
</g>
<!-- shared_url_info -->
<g id="node14" class="node">
<title>shared_url_info</title>
<g id="a_node14"><a xlink:href="../../tables/shared_url_info.html" xlink:title="shared_url_info" target="_top">
<polygon fill="#ffffff" stroke="transparent" points="274.5,-38.2 274.5,-99.2 403.5,-99.2 403.5,-38.2 274.5,-38.2"/>
<polygon fill="#f5f5f5" stroke="transparent" points="275,-75.7 275,-98.7 404,-98.7 404,-75.7 275,-75.7"/>
<polygon fill="none" stroke="#000000" points="275,-75.7 275,-98.7 404,-98.7 404,-75.7 275,-75.7"/>
<text text-anchor="start" x="280" y="-84.3" font-family="Helvetica,sans-Serif" font-weight="bold" font-size="11.00" fill="#000000">shared_url_info</text>
<text text-anchor="start" x="369.5219" y="-83.8" font-family="Helvetica,sans-Serif" font-size="11.00" fill="#000000">[table]</text>
<polygon fill="none" stroke="#000000" points="275,-56.7 275,-75.7 404,-75.7 404,-56.7 275,-56.7"/>
<text text-anchor="start" x="278" y="-62.8" font-family="Helvetica,sans-Serif" font-size="11.00" fill="#000000">...</text>
<polygon fill="#ffffff" stroke="transparent" points="275,-37.7 275,-56.7 338,-56.7 338,-37.7 275,-37.7"/>
<polygon fill="none" stroke="#000000" points="275,-37.7 275,-56.7 338,-56.7 338,-37.7 275,-37.7"/>
<text text-anchor="start" x="278" y="-43.8" font-family="Helvetica,sans-Serif" font-size="11.00" fill="#000000">&lt; 1</text>
<polygon fill="#ffffff" stroke="transparent" points="338,-37.7 338,-56.7 371,-56.7 371,-37.7 338,-37.7"/>
<polygon fill="none" stroke="#000000" points="338,-37.7 338,-56.7 371,-56.7 371,-37.7 338,-37.7"/>
<text text-anchor="start" x="361.8862" y="-43.8" font-family="Helvetica,sans-Serif" font-size="11.00" fill="#000000"> &#160;</text>
<polygon fill="#ffffff" stroke="transparent" points="371,-37.7 371,-56.7 404,-56.7 404,-37.7 371,-37.7"/>
<polygon fill="none" stroke="#000000" points="371,-37.7 371,-56.7 404,-56.7 404,-37.7 371,-37.7"/>
<text text-anchor="start" x="394.8862" y="-43.8" font-family="Helvetica,sans-Serif" font-size="11.00" fill="#000000"> &#160;</text>
</a>
</g>
</g>
<!-- shared_url_info&#45;&gt;package_group -->
<g id="edge14" class="edge">
<title>shared_url_info:w&#45;&gt;package_group:e</title>
<path fill="none" stroke="#000000" d="M260.5569,-66.8523C237.9356,-70.8726 228.0116,-85.3722 214,-109.7 191.3187,-149.0809 218.9456,-516.7 173.5,-516.7"/>
<polygon fill="#000000" stroke="#000000" points="267.0253,-66.3363 275.2863,-69.2886 271.0127,-66.0181 275,-65.7 275,-65.7 275,-65.7 271.0127,-66.0181 274.7137,-62.1114 267.0253,-66.3363 267.0253,-66.3363"/>
<ellipse fill="none" stroke="#000000" cx="263.8355" cy="-66.5908" rx="3.2" ry="3.2"/>
</g>
</g>
</svg>
