<?xml version="1.0" encoding="UTF-8" standalone="no"?>
<!DOCTYPE svg PUBLIC "-//W3C//DTD SVG 1.1//EN"
 "http://www.w3.org/Graphics/SVG/1.1/DTD/svg11.dtd">
<!-- Generated by graphviz version 2.40.1 (20161225.0304)
 -->
<!-- Title: oneDegreeRelationshipsDiagram Pages: 1 -->
<svg width="268pt" height="140pt"
 viewBox="0.00 0.00 268.00 140.20" xmlns="http://www.w3.org/2000/svg" xmlns:xlink="http://www.w3.org/1999/xlink">
<g id="graph0" class="graph" transform="scale(1 1) rotate(0) translate(4 136.2)">
<title>oneDegreeRelationshipsDiagram</title>
<polygon fill="#ffffff" stroke="transparent" points="-4,4 -4,-136.2 264,-136.2 264,4 -4,4"/>
<text text-anchor="middle" x="72.4936" y="-7.3" font-family="Helvetica,sans-Serif" font-size="11.00" fill="#000000">Generated by SchemaSpy</text>
<!-- migration_changes -->
<g id="node1" class="node">
<title>migration_changes</title>
<g id="a_node1"><a xlink:href="../../tables/migration_changes.html" xlink:title="migration_changes" target="_top">
<polygon fill="#ffffff" stroke="transparent" points="8,-38.2 8,-128.2 252,-128.2 252,-38.2 8,-38.2"/>
<polygon fill="#f5f5f5" stroke="transparent" points="10,-103.2 10,-126.2 250,-126.2 250,-103.2 10,-103.2"/>
<polygon fill="none" stroke="#000000" points="10,-103.2 10,-126.2 250,-126.2 250,-103.2 10,-103.2"/>
<text text-anchor="start" x="15" y="-111.8" font-family="Helvetica,sans-Serif" font-weight="bold" font-size="11.00" fill="#000000">migration_changes</text>
<text text-anchor="start" x="215.0437" y="-111.3" font-family="Helvetica,sans-Serif" font-size="11.00" fill="#000000">[table]</text>
<polygon fill="none" stroke="#000000" points="10,-81.2 10,-103.2 141,-103.2 141,-81.2 10,-81.2"/>
<image xlink:href="../../images/primaryKeys.png" width="11px" height="12px" preserveAspectRatio="xMinYMin meet" x="15" y="-98.2"/>
<text text-anchor="start" x="30" y="-88.3" font-family="Helvetica,sans-Serif" font-size="11.00" fill="#000000">migration_id</text>
<polygon fill="none" stroke="#000000" points="141,-81.2 141,-103.2 250,-103.2 250,-81.2 141,-81.2"/>
<text text-anchor="start" x="143.5344" y="-88.9" font-family="Helvetica,sans-Serif" font-size="11.00" fill="#000000">varchar[2147483647]</text>
<polygon fill="none" stroke="#000000" points="10,-59.2 10,-81.2 141,-81.2 141,-59.2 10,-59.2"/>
<text text-anchor="start" x="30" y="-66.3" font-family="Helvetica,sans-Serif" font-size="11.00" fill="#000000">changes</text>
<polygon fill="none" stroke="#000000" points="141,-59.2 141,-81.2 250,-81.2 250,-59.2 141,-59.2"/>
<text text-anchor="start" x="144" y="-66.9" font-family="Helvetica,sans-Serif" font-size="11.00" fill="#000000">jsonb[2147483647]</text>
<polygon fill="#ffffff" stroke="transparent" points="10,-40.2 10,-59.2 80,-59.2 80,-40.2 10,-40.2"/>
<polygon fill="none" stroke="#000000" points="10,-40.2 10,-59.2 80,-59.2 80,-40.2 10,-40.2"/>
<text text-anchor="start" x="13" y="-46.3" font-family="Helvetica,sans-Serif" font-size="11.00" fill="#000000">&lt; 0</text>
<polygon fill="#ffffff" stroke="transparent" points="80,-40.2 80,-59.2 141,-59.2 141,-40.2 80,-40.2"/>
<polygon fill="none" stroke="#000000" points="80,-40.2 80,-59.2 141,-59.2 141,-40.2 80,-40.2"/>
<text text-anchor="start" x="131.8862" y="-46.3" font-family="Helvetica,sans-Serif" font-size="11.00" fill="#000000"> &#160;</text>
<polygon fill="#ffffff" stroke="transparent" points="141,-40.2 141,-59.2 250,-59.2 250,-40.2 141,-40.2"/>
<polygon fill="none" stroke="#000000" points="141,-40.2 141,-59.2 250,-59.2 250,-40.2 141,-40.2"/>
<text text-anchor="start" x="231.4053" y="-46.3" font-family="Helvetica,sans-Serif" font-size="11.00" fill="#000000">0 &gt;</text>
<polygon fill="none" stroke="#000000" stroke-width="2" points="9,-39.2 9,-127.2 251,-127.2 251,-39.2 9,-39.2"/>
</a>
</g>
</g>
</g>
</svg>
