<?xml version="1.0" encoding="UTF-8" standalone="no"?>
<!DOCTYPE svg PUBLIC "-//W3C//DTD SVG 1.1//EN"
 "http://www.w3.org/Graphics/SVG/1.1/DTD/svg11.dtd">
<!-- Generated by graphviz version 2.40.1 (20161225.0304)
 -->
<!-- Title: oneDegreeRelationshipsDiagram Pages: 1 -->
<svg width="319pt" height="492pt"
 viewBox="0.00 0.00 319.00 492.20" xmlns="http://www.w3.org/2000/svg" xmlns:xlink="http://www.w3.org/1999/xlink">
<g id="graph0" class="graph" transform="scale(1 1) rotate(0) translate(4 488.2)">
<title>oneDegreeRelationshipsDiagram</title>
<polygon fill="#ffffff" stroke="transparent" points="-4,4 -4,-488.2 315,-488.2 315,4 -4,4"/>
<text text-anchor="middle" x="72.4936" y="-7.3" font-family="Helvetica,sans-Serif" font-size="11.00" fill="#000000">Generated by SchemaSpy</text>
<!-- migration_run -->
<g id="node1" class="node">
<title>migration_run</title>
<g id="a_node1"><a xlink:href="../../tables/migration_run.html" xlink:title="migration_run" target="_top">
<polygon fill="#ffffff" stroke="transparent" points="8,-38.2 8,-480.2 303,-480.2 303,-38.2 8,-38.2"/>
<polygon fill="#f5f5f5" stroke="transparent" points="10.5,-455.2 10.5,-478.2 301.5,-478.2 301.5,-455.2 10.5,-455.2"/>
<polygon fill="none" stroke="#000000" points="10.5,-455.2 10.5,-478.2 301.5,-478.2 301.5,-455.2 10.5,-455.2"/>
<text text-anchor="start" x="15.5" y="-463.8" font-family="Helvetica,sans-Serif" font-weight="bold" font-size="11.00" fill="#000000">migration_run</text>
<text text-anchor="start" x="266.5437" y="-463.3" font-family="Helvetica,sans-Serif" font-size="11.00" fill="#000000">[table]</text>
<polygon fill="none" stroke="#000000" points="10.5,-433.2 10.5,-455.2 185.5,-455.2 185.5,-433.2 10.5,-433.2"/>
<text text-anchor="start" x="30.5" y="-440.3" font-family="Helvetica,sans-Serif" font-size="11.00" fill="#000000">id</text>
<polygon fill="none" stroke="#000000" points="185.5,-433.2 185.5,-455.2 301.5,-455.2 301.5,-433.2 185.5,-433.2"/>
<text text-anchor="start" x="188.5" y="-440.9" font-family="Helvetica,sans-Serif" font-size="11.00" fill="#000000">varchar[2147483647]</text>
<polygon fill="none" stroke="#000000" points="10.5,-411.2 10.5,-433.2 185.5,-433.2 185.5,-411.2 10.5,-411.2"/>
<text text-anchor="start" x="30.5" y="-418.3" font-family="Helvetica,sans-Serif" font-size="11.00" fill="#000000">started_at</text>
<polygon fill="none" stroke="#000000" points="185.5,-411.2 185.5,-433.2 301.5,-433.2 301.5,-411.2 185.5,-411.2"/>
<text text-anchor="start" x="188.5" y="-418.9" font-family="Helvetica,sans-Serif" font-size="11.00" fill="#000000">timestamp[29,6]</text>
<polygon fill="none" stroke="#000000" points="10.5,-389.2 10.5,-411.2 185.5,-411.2 185.5,-389.2 10.5,-389.2"/>
<text text-anchor="start" x="30.5" y="-396.3" font-family="Helvetica,sans-Serif" font-size="11.00" fill="#000000">status</text>
<polygon fill="none" stroke="#000000" points="185.5,-389.2 185.5,-411.2 301.5,-411.2 301.5,-389.2 185.5,-389.2"/>
<text text-anchor="start" x="188.5" y="-396.9" font-family="Helvetica,sans-Serif" font-size="11.00" fill="#000000">varchar[2147483647]</text>
<polygon fill="none" stroke="#000000" points="10.5,-367.2 10.5,-389.2 185.5,-389.2 185.5,-367.2 10.5,-367.2"/>
<text text-anchor="start" x="30.5" y="-374.3" font-family="Helvetica,sans-Serif" font-size="11.00" fill="#000000">stage</text>
<polygon fill="none" stroke="#000000" points="185.5,-367.2 185.5,-389.2 301.5,-389.2 301.5,-367.2 185.5,-367.2"/>
<text text-anchor="start" x="188.5" y="-374.9" font-family="Helvetica,sans-Serif" font-size="11.00" fill="#000000">varchar[2147483647]</text>
<polygon fill="none" stroke="#000000" points="10.5,-345.2 10.5,-367.2 185.5,-367.2 185.5,-345.2 10.5,-345.2"/>
<text text-anchor="start" x="30.5" y="-352.3" font-family="Helvetica,sans-Serif" font-size="11.00" fill="#000000">package_ids</text>
<polygon fill="none" stroke="#000000" points="185.5,-345.2 185.5,-367.2 301.5,-367.2 301.5,-345.2 185.5,-345.2"/>
<text text-anchor="start" x="188.4769" y="-352.9" font-family="Helvetica,sans-Serif" font-size="11.00" fill="#000000">_varchar[2147483647]</text>
<polygon fill="none" stroke="#000000" points="10.5,-323.2 10.5,-345.2 185.5,-345.2 185.5,-323.2 10.5,-323.2"/>
<text text-anchor="start" x="30.5" y="-330.3" font-family="Helvetica,sans-Serif" font-size="11.00" fill="#000000">versions</text>
<polygon fill="none" stroke="#000000" points="185.5,-323.2 185.5,-345.2 301.5,-345.2 301.5,-323.2 185.5,-323.2"/>
<text text-anchor="start" x="188.4769" y="-330.9" font-family="Helvetica,sans-Serif" font-size="11.00" fill="#000000">_varchar[2147483647]</text>
<polygon fill="none" stroke="#000000" points="10.5,-301.2 10.5,-323.2 185.5,-323.2 185.5,-301.2 10.5,-301.2"/>
<text text-anchor="start" x="30.5" y="-308.3" font-family="Helvetica,sans-Serif" font-size="11.00" fill="#000000">is_rebuild</text>
<polygon fill="none" stroke="#000000" points="185.5,-301.2 185.5,-323.2 301.5,-323.2 301.5,-301.2 185.5,-301.2"/>
<text text-anchor="start" x="188.5" y="-308.9" font-family="Helvetica,sans-Serif" font-size="11.00" fill="#000000">bool[1]</text>
<polygon fill="none" stroke="#000000" points="10.5,-279.2 10.5,-301.2 185.5,-301.2 185.5,-279.2 10.5,-279.2"/>
<text text-anchor="start" x="30.5" y="-286.3" font-family="Helvetica,sans-Serif" font-size="11.00" fill="#000000">is_rebuild_changelog_only</text>
<polygon fill="none" stroke="#000000" points="185.5,-279.2 185.5,-301.2 301.5,-301.2 301.5,-279.2 185.5,-279.2"/>
<text text-anchor="start" x="188.5" y="-286.9" font-family="Helvetica,sans-Serif" font-size="11.00" fill="#000000">bool[1]</text>
<polygon fill="none" stroke="#000000" points="10.5,-257.2 10.5,-279.2 185.5,-279.2 185.5,-257.2 10.5,-257.2"/>
<text text-anchor="start" x="30.5" y="-264.3" font-family="Helvetica,sans-Serif" font-size="11.00" fill="#000000">current_builder_version</text>
<polygon fill="none" stroke="#000000" points="185.5,-257.2 185.5,-279.2 301.5,-279.2 301.5,-257.2 185.5,-257.2"/>
<text text-anchor="start" x="188.5" y="-264.9" font-family="Helvetica,sans-Serif" font-size="11.00" fill="#000000">varchar[2147483647]</text>
<polygon fill="none" stroke="#000000" points="10.5,-235.2 10.5,-257.2 185.5,-257.2 185.5,-235.2 10.5,-235.2"/>
<text text-anchor="start" x="30.5" y="-242.3" font-family="Helvetica,sans-Serif" font-size="11.00" fill="#000000">error_details</text>
<polygon fill="none" stroke="#000000" points="185.5,-235.2 185.5,-257.2 301.5,-257.2 301.5,-235.2 185.5,-235.2"/>
<text text-anchor="start" x="188.5" y="-242.9" font-family="Helvetica,sans-Serif" font-size="11.00" fill="#000000">varchar[2147483647]</text>
<polygon fill="none" stroke="#000000" points="10.5,-213.2 10.5,-235.2 185.5,-235.2 185.5,-213.2 10.5,-213.2"/>
<text text-anchor="start" x="30.5" y="-220.3" font-family="Helvetica,sans-Serif" font-size="11.00" fill="#000000">finished_at</text>
<polygon fill="none" stroke="#000000" points="185.5,-213.2 185.5,-235.2 301.5,-235.2 301.5,-213.2 185.5,-213.2"/>
<text text-anchor="start" x="188.5" y="-220.9" font-family="Helvetica,sans-Serif" font-size="11.00" fill="#000000">timestamp[29,6]</text>
<polygon fill="none" stroke="#000000" points="10.5,-191.2 10.5,-213.2 185.5,-213.2 185.5,-191.2 10.5,-191.2"/>
<text text-anchor="start" x="30.5" y="-198.3" font-family="Helvetica,sans-Serif" font-size="11.00" fill="#000000">updated_at</text>
<polygon fill="none" stroke="#000000" points="185.5,-191.2 185.5,-213.2 301.5,-213.2 301.5,-191.2 185.5,-191.2"/>
<text text-anchor="start" x="188.5" y="-198.9" font-family="Helvetica,sans-Serif" font-size="11.00" fill="#000000">timestamp[29,6]</text>
<polygon fill="none" stroke="#000000" points="10.5,-169.2 10.5,-191.2 185.5,-191.2 185.5,-169.2 10.5,-169.2"/>
<text text-anchor="start" x="30.5" y="-176.3" font-family="Helvetica,sans-Serif" font-size="11.00" fill="#000000">skip_validation</text>
<polygon fill="none" stroke="#000000" points="185.5,-169.2 185.5,-191.2 301.5,-191.2 301.5,-169.2 185.5,-169.2"/>
<text text-anchor="start" x="188.5" y="-176.9" font-family="Helvetica,sans-Serif" font-size="11.00" fill="#000000">bool[1]</text>
<polygon fill="none" stroke="#000000" points="10.5,-147.2 10.5,-169.2 185.5,-169.2 185.5,-147.2 10.5,-147.2"/>
<text text-anchor="start" x="30.5" y="-154.3" font-family="Helvetica,sans-Serif" font-size="11.00" fill="#000000">instance_id</text>
<polygon fill="none" stroke="#000000" points="185.5,-147.2 185.5,-169.2 301.5,-169.2 301.5,-147.2 185.5,-147.2"/>
<text text-anchor="start" x="188.5" y="-154.9" font-family="Helvetica,sans-Serif" font-size="11.00" fill="#000000">varchar[2147483647]</text>
<polygon fill="#ffffff" stroke="transparent" points="10.5,-125.2 10.5,-147.2 185.5,-147.2 185.5,-125.2 10.5,-125.2"/>
<polygon fill="none" stroke="#000000" points="10.5,-125.2 10.5,-147.2 185.5,-147.2 185.5,-125.2 10.5,-125.2"/>
<text text-anchor="start" x="30.5" y="-132.3" font-family="Helvetica,sans-Serif" font-size="11.00" fill="#000000">sequence_number</text>
<polygon fill="none" stroke="#000000" points="185.5,-125.2 185.5,-147.2 301.5,-147.2 301.5,-125.2 185.5,-125.2"/>
<text text-anchor="start" x="188.5" y="-132.9" font-family="Helvetica,sans-Serif" font-size="11.00" fill="#000000">serial[10]</text>
<polygon fill="none" stroke="#000000" points="10.5,-103.2 10.5,-125.2 185.5,-125.2 185.5,-103.2 10.5,-103.2"/>
<text text-anchor="start" x="30.5" y="-110.3" font-family="Helvetica,sans-Serif" font-size="11.00" fill="#000000">post_check_result</text>
<polygon fill="none" stroke="#000000" points="185.5,-103.2 185.5,-125.2 301.5,-125.2 301.5,-103.2 185.5,-103.2"/>
<text text-anchor="start" x="188.5" y="-110.9" font-family="Helvetica,sans-Serif" font-size="11.00" fill="#000000">jsonb[2147483647]</text>
<polygon fill="none" stroke="#000000" points="10.5,-81.2 10.5,-103.2 185.5,-103.2 185.5,-81.2 10.5,-81.2"/>
<text text-anchor="start" x="30.5" y="-88.3" font-family="Helvetica,sans-Serif" font-size="11.00" fill="#000000">retry_count</text>
<polygon fill="none" stroke="#000000" points="185.5,-81.2 185.5,-103.2 301.5,-103.2 301.5,-81.2 185.5,-81.2"/>
<text text-anchor="start" x="188.5" y="-88.9" font-family="Helvetica,sans-Serif" font-size="11.00" fill="#000000">int4[10]</text>
<polygon fill="none" stroke="#000000" points="10.5,-59.2 10.5,-81.2 185.5,-81.2 185.5,-59.2 10.5,-59.2"/>
<text text-anchor="start" x="30.5" y="-66.3" font-family="Helvetica,sans-Serif" font-size="11.00" fill="#000000">stages_execution</text>
<polygon fill="none" stroke="#000000" points="185.5,-59.2 185.5,-81.2 301.5,-81.2 301.5,-59.2 185.5,-59.2"/>
<text text-anchor="start" x="188.5" y="-66.9" font-family="Helvetica,sans-Serif" font-size="11.00" fill="#000000">jsonb[2147483647]</text>
<polygon fill="#ffffff" stroke="transparent" points="10.5,-40.2 10.5,-59.2 102.5,-59.2 102.5,-40.2 10.5,-40.2"/>
<polygon fill="none" stroke="#000000" points="10.5,-40.2 10.5,-59.2 102.5,-59.2 102.5,-40.2 10.5,-40.2"/>
<text text-anchor="start" x="13.5" y="-46.3" font-family="Helvetica,sans-Serif" font-size="11.00" fill="#000000">&lt; 0</text>
<polygon fill="#ffffff" stroke="transparent" points="102.5,-40.2 102.5,-59.2 185.5,-59.2 185.5,-40.2 102.5,-40.2"/>
<polygon fill="none" stroke="#000000" points="102.5,-40.2 102.5,-59.2 185.5,-59.2 185.5,-40.2 102.5,-40.2"/>
<text text-anchor="start" x="176.3862" y="-46.3" font-family="Helvetica,sans-Serif" font-size="11.00" fill="#000000"> &#160;</text>
<polygon fill="#ffffff" stroke="transparent" points="185.5,-40.2 185.5,-59.2 301.5,-59.2 301.5,-40.2 185.5,-40.2"/>
<polygon fill="none" stroke="#000000" points="185.5,-40.2 185.5,-59.2 301.5,-59.2 301.5,-40.2 185.5,-40.2"/>
<text text-anchor="start" x="282.9053" y="-46.3" font-family="Helvetica,sans-Serif" font-size="11.00" fill="#000000">0 &gt;</text>
<polygon fill="none" stroke="#000000" stroke-width="2" points="9,-39.2 9,-479.2 302,-479.2 302,-39.2 9,-39.2"/>
</a>
</g>
</g>
</g>
</svg>
