<?xml version="1.0" encoding="UTF-8" standalone="no"?>
<!DOCTYPE svg PUBLIC "-//W3C//DTD SVG 1.1//EN"
 "http://www.w3.org/Graphics/SVG/1.1/DTD/svg11.dtd">
<!-- Generated by graphviz version 2.40.1 (20161225.0304)
 -->
<!-- Title: oneDegreeRelationshipsDiagram Pages: 1 -->
<svg width="472pt" height="272pt"
 viewBox="0.00 0.00 472.00 272.20" xmlns="http://www.w3.org/2000/svg" xmlns:xlink="http://www.w3.org/1999/xlink">
<g id="graph0" class="graph" transform="scale(1 1) rotate(0) translate(4 268.2)">
<title>oneDegreeRelationshipsDiagram</title>
<polygon fill="#ffffff" stroke="transparent" points="-4,4 -4,-268.2 468,-268.2 468,4 -4,4"/>
<text text-anchor="middle" x="72.4936" y="-7.3" font-family="Helvetica,sans-Serif" font-size="11.00" fill="#000000">Generated by SchemaSpy</text>
<!-- migrated_version -->
<g id="node1" class="node">
<title>migrated_version</title>
<g id="a_node1"><a xlink:href="../../tables/migrated_version.html" xlink:title="migrated_version" target="_top">
<polygon fill="#ffffff" stroke="transparent" points="222,-38.2 222,-260.2 456,-260.2 456,-38.2 222,-38.2"/>
<polygon fill="#f5f5f5" stroke="transparent" points="224,-235.2 224,-258.2 454,-258.2 454,-235.2 224,-235.2"/>
<polygon fill="none" stroke="#000000" points="224,-235.2 224,-258.2 454,-258.2 454,-235.2 224,-235.2"/>
<text text-anchor="start" x="229" y="-243.8" font-family="Helvetica,sans-Serif" font-weight="bold" font-size="11.00" fill="#000000">migrated_version</text>
<text text-anchor="start" x="419.0437" y="-243.3" font-family="Helvetica,sans-Serif" font-size="11.00" fill="#000000">[table]</text>
<polygon fill="none" stroke="#000000" points="224,-213.2 224,-235.2 345,-235.2 345,-213.2 224,-213.2"/>
<image xlink:href="../../images/foreignKeys.png" width="11px" height="12px" preserveAspectRatio="xMinYMin meet" x="229" y="-230.2"/>
<text text-anchor="start" x="244" y="-220.3" font-family="Helvetica,sans-Serif" font-size="11.00" fill="#000000">package_id</text>
<polygon fill="none" stroke="#000000" points="345,-213.2 345,-235.2 454,-235.2 454,-213.2 345,-213.2"/>
<text text-anchor="start" x="347.5344" y="-220.9" font-family="Helvetica,sans-Serif" font-size="11.00" fill="#000000">varchar[2147483647]</text>
<polygon fill="none" stroke="#000000" points="224,-191.2 224,-213.2 345,-213.2 345,-191.2 224,-191.2"/>
<text text-anchor="start" x="244" y="-198.3" font-family="Helvetica,sans-Serif" font-size="11.00" fill="#000000">version</text>
<polygon fill="none" stroke="#000000" points="345,-191.2 345,-213.2 454,-213.2 454,-191.2 345,-191.2"/>
<text text-anchor="start" x="347.5344" y="-198.9" font-family="Helvetica,sans-Serif" font-size="11.00" fill="#000000">varchar[2147483647]</text>
<polygon fill="none" stroke="#000000" points="224,-169.2 224,-191.2 345,-191.2 345,-169.2 224,-169.2"/>
<text text-anchor="start" x="244" y="-176.3" font-family="Helvetica,sans-Serif" font-size="11.00" fill="#000000">revision</text>
<polygon fill="none" stroke="#000000" points="345,-169.2 345,-191.2 454,-191.2 454,-169.2 345,-169.2"/>
<text text-anchor="start" x="348" y="-176.9" font-family="Helvetica,sans-Serif" font-size="11.00" fill="#000000">int4[10]</text>
<polygon fill="none" stroke="#000000" points="224,-147.2 224,-169.2 345,-169.2 345,-147.2 224,-147.2"/>
<text text-anchor="start" x="244" y="-154.3" font-family="Helvetica,sans-Serif" font-size="11.00" fill="#000000">error</text>
<polygon fill="none" stroke="#000000" points="345,-147.2 345,-169.2 454,-169.2 454,-147.2 345,-147.2"/>
<text text-anchor="start" x="347.5344" y="-154.9" font-family="Helvetica,sans-Serif" font-size="11.00" fill="#000000">varchar[2147483647]</text>
<polygon fill="none" stroke="#000000" points="224,-125.2 224,-147.2 345,-147.2 345,-125.2 224,-125.2"/>
<text text-anchor="start" x="244" y="-132.3" font-family="Helvetica,sans-Serif" font-size="11.00" fill="#000000">build_id</text>
<polygon fill="none" stroke="#000000" points="345,-125.2 345,-147.2 454,-147.2 454,-125.2 345,-125.2"/>
<text text-anchor="start" x="347.5344" y="-132.9" font-family="Helvetica,sans-Serif" font-size="11.00" fill="#000000">varchar[2147483647]</text>
<polygon fill="none" stroke="#000000" points="224,-103.2 224,-125.2 345,-125.2 345,-103.2 224,-103.2"/>
<text text-anchor="start" x="244" y="-110.3" font-family="Helvetica,sans-Serif" font-size="11.00" fill="#000000">migration_id</text>
<polygon fill="none" stroke="#000000" points="345,-103.2 345,-125.2 454,-125.2 454,-103.2 345,-103.2"/>
<text text-anchor="start" x="347.5344" y="-110.9" font-family="Helvetica,sans-Serif" font-size="11.00" fill="#000000">varchar[2147483647]</text>
<polygon fill="none" stroke="#000000" points="224,-81.2 224,-103.2 345,-103.2 345,-81.2 224,-81.2"/>
<text text-anchor="start" x="244" y="-88.3" font-family="Helvetica,sans-Serif" font-size="11.00" fill="#000000">build_type</text>
<polygon fill="none" stroke="#000000" points="345,-81.2 345,-103.2 454,-103.2 454,-81.2 345,-81.2"/>
<text text-anchor="start" x="347.5344" y="-88.9" font-family="Helvetica,sans-Serif" font-size="11.00" fill="#000000">varchar[2147483647]</text>
<polygon fill="none" stroke="#000000" points="224,-59.2 224,-81.2 345,-81.2 345,-59.2 224,-59.2"/>
<text text-anchor="start" x="244" y="-66.3" font-family="Helvetica,sans-Serif" font-size="11.00" fill="#000000">no_changelog</text>
<polygon fill="none" stroke="#000000" points="345,-59.2 345,-81.2 454,-81.2 454,-59.2 345,-59.2"/>
<text text-anchor="start" x="348" y="-66.9" font-family="Helvetica,sans-Serif" font-size="11.00" fill="#000000">bool[1]</text>
<polygon fill="#ffffff" stroke="transparent" points="224,-40.2 224,-59.2 289,-59.2 289,-40.2 224,-40.2"/>
<polygon fill="none" stroke="#000000" points="224,-40.2 224,-59.2 289,-59.2 289,-40.2 224,-40.2"/>
<text text-anchor="start" x="227" y="-46.3" font-family="Helvetica,sans-Serif" font-size="11.00" fill="#000000">&lt; 1</text>
<polygon fill="#ffffff" stroke="transparent" points="289,-40.2 289,-59.2 345,-59.2 345,-40.2 289,-40.2"/>
<polygon fill="none" stroke="#000000" points="289,-40.2 289,-59.2 345,-59.2 345,-40.2 289,-40.2"/>
<text text-anchor="start" x="335.8862" y="-46.3" font-family="Helvetica,sans-Serif" font-size="11.00" fill="#000000"> &#160;</text>
<polygon fill="#ffffff" stroke="transparent" points="345,-40.2 345,-59.2 454,-59.2 454,-40.2 345,-40.2"/>
<polygon fill="none" stroke="#000000" points="345,-40.2 345,-59.2 454,-59.2 454,-40.2 345,-40.2"/>
<text text-anchor="start" x="435.4053" y="-46.3" font-family="Helvetica,sans-Serif" font-size="11.00" fill="#000000">0 &gt;</text>
<polygon fill="none" stroke="#000000" stroke-width="2" points="223,-39.2 223,-259.2 455,-259.2 455,-39.2 223,-39.2"/>
</a>
</g>
</g>
<!-- package_group -->
<g id="node2" class="node">
<title>package_group</title>
<g id="a_node2"><a xlink:href="../../tables/package_group.html" xlink:title="package_group" target="_top">
<polygon fill="#ffffff" stroke="transparent" points="8,-153.7 8,-258.7 173,-258.7 173,-153.7 8,-153.7"/>
<polygon fill="#f5f5f5" stroke="transparent" points="8.5,-235.2 8.5,-258.2 173.5,-258.2 173.5,-235.2 8.5,-235.2"/>
<polygon fill="none" stroke="#000000" points="8.5,-235.2 8.5,-258.2 173.5,-258.2 173.5,-235.2 8.5,-235.2"/>
<text text-anchor="start" x="13.5" y="-243.8" font-family="Helvetica,sans-Serif" font-weight="bold" font-size="11.00" fill="#000000">package_group</text>
<text text-anchor="start" x="138.5437" y="-243.3" font-family="Helvetica,sans-Serif" font-size="11.00" fill="#000000">[table]</text>
<polygon fill="none" stroke="#000000" points="8.5,-213.2 8.5,-235.2 173.5,-235.2 173.5,-213.2 8.5,-213.2"/>
<image xlink:href="../../images/primaryKeys.png" width="11px" height="12px" preserveAspectRatio="xMinYMin meet" x="13.5" y="-230.2"/>
<text text-anchor="start" x="28.5" y="-220.3" font-family="Helvetica,sans-Serif" font-size="11.00" fill="#000000">id</text>
<polygon fill="none" stroke="#000000" points="8.5,-191.2 8.5,-213.2 173.5,-213.2 173.5,-191.2 8.5,-191.2"/>
<image xlink:href="../../images/foreignKeys.png" width="11px" height="12px" preserveAspectRatio="xMinYMin meet" x="13.5" y="-208.2"/>
<text text-anchor="start" x="28.5" y="-198.3" font-family="Helvetica,sans-Serif" font-size="11.00" fill="#000000">parent_id</text>
<polygon fill="none" stroke="#000000" points="8.5,-172.2 8.5,-191.2 173.5,-191.2 173.5,-172.2 8.5,-172.2"/>
<text text-anchor="start" x="11.5" y="-178.3" font-family="Helvetica,sans-Serif" font-size="11.00" fill="#000000">...</text>
<polygon fill="#ffffff" stroke="transparent" points="8.5,-153.2 8.5,-172.2 81.5,-172.2 81.5,-153.2 8.5,-153.2"/>
<polygon fill="none" stroke="#000000" points="8.5,-153.2 8.5,-172.2 81.5,-172.2 81.5,-153.2 8.5,-153.2"/>
<text text-anchor="start" x="11.5" y="-159.3" font-family="Helvetica,sans-Serif" font-size="11.00" fill="#000000">&lt; 1</text>
<polygon fill="#ffffff" stroke="transparent" points="81.5,-153.2 81.5,-172.2 119.5,-172.2 119.5,-153.2 81.5,-153.2"/>
<polygon fill="none" stroke="#000000" points="81.5,-153.2 81.5,-172.2 119.5,-172.2 119.5,-153.2 81.5,-153.2"/>
<text text-anchor="start" x="110.3862" y="-159.3" font-family="Helvetica,sans-Serif" font-size="11.00" fill="#000000"> &#160;</text>
<polygon fill="#ffffff" stroke="transparent" points="119.5,-153.2 119.5,-172.2 173.5,-172.2 173.5,-153.2 119.5,-153.2"/>
<polygon fill="none" stroke="#000000" points="119.5,-153.2 119.5,-172.2 173.5,-172.2 173.5,-153.2 119.5,-153.2"/>
<text text-anchor="start" x="148.7904" y="-159.3" font-family="Helvetica,sans-Serif" font-size="11.00" fill="#000000">15 &gt;</text>
</a>
</g>
</g>
<!-- migrated_version&#45;&gt;package_group -->
<g id="edge1" class="edge">
<title>migrated_version:w&#45;&gt;package_group:e</title>
<path fill="none" stroke="#000000" d="M209.4203,-224.2C197.5435,-224.2 190.158,-224.2 173.5,-224.2"/>
<polygon fill="#000000" stroke="#000000" points="216,-224.2001 224,-227.8 220,-224.2 224,-224.2 224,-224.2 224,-224.2 220,-224.2 224,-220.6 216,-224.2001 216,-224.2001"/>
<ellipse fill="none" stroke="#000000" cx="212.8" cy="-224.2001" rx="3.2" ry="3.2"/>
</g>
</g>
</svg>
