<?xml version="1.0" encoding="UTF-8" standalone="no"?>
<!DOCTYPE svg PUBLIC "-//W3C//DTD SVG 1.1//EN"
 "http://www.w3.org/Graphics/SVG/1.1/DTD/svg11.dtd">
<!-- Generated by graphviz version 2.40.1 (20161225.0304)
 -->
<!-- Title: oneDegreeRelationshipsDiagram Pages: 1 -->
<svg width="486pt" height="675pt"
 viewBox="0.00 0.00 486.00 674.70" xmlns="http://www.w3.org/2000/svg" xmlns:xlink="http://www.w3.org/1999/xlink">
<g id="graph0" class="graph" transform="scale(1 1) rotate(0) translate(4 670.7)">
<title>oneDegreeRelationshipsDiagram</title>
<polygon fill="#ffffff" stroke="transparent" points="-4,4 -4,-670.7 482,-670.7 482,4 -4,4"/>
<text text-anchor="middle" x="72.4936" y="-7.3" font-family="Helvetica,sans-Serif" font-size="11.00" fill="#000000">Generated by SchemaSpy</text>
<!-- operation -->
<g id="node1" class="node">
<title>operation</title>
<g id="a_node1"><a xlink:href="../../tables/operation.html" xlink:title="operation" target="_top">
<polygon fill="#ffffff" stroke="transparent" points="286,-491.7 286,-662.7 461,-662.7 461,-491.7 286,-491.7"/>
<polygon fill="#f5f5f5" stroke="transparent" points="286.5,-639.2 286.5,-662.2 461.5,-662.2 461.5,-639.2 286.5,-639.2"/>
<polygon fill="none" stroke="#000000" points="286.5,-639.2 286.5,-662.2 461.5,-662.2 461.5,-639.2 286.5,-639.2"/>
<text text-anchor="start" x="291.5" y="-647.8" font-family="Helvetica,sans-Serif" font-weight="bold" font-size="11.00" fill="#000000">operation</text>
<text text-anchor="start" x="426.5437" y="-647.3" font-family="Helvetica,sans-Serif" font-size="11.00" fill="#000000">[table]</text>
<polygon fill="none" stroke="#000000" points="286.5,-617.2 286.5,-639.2 461.5,-639.2 461.5,-617.2 286.5,-617.2"/>
<image xlink:href="../../images/primaryKeys.png" width="11px" height="12px" preserveAspectRatio="xMinYMin meet" x="291.5" y="-634.2"/>
<text text-anchor="start" x="306.5" y="-624.3" font-family="Helvetica,sans-Serif" font-size="11.00" fill="#000000">package_id</text>
<polygon fill="none" stroke="#000000" points="286.5,-595.2 286.5,-617.2 461.5,-617.2 461.5,-595.2 286.5,-595.2"/>
<image xlink:href="../../images/primaryKeys.png" width="11px" height="12px" preserveAspectRatio="xMinYMin meet" x="291.5" y="-612.2"/>
<text text-anchor="start" x="306.5" y="-602.3" font-family="Helvetica,sans-Serif" font-size="11.00" fill="#000000">version</text>
<polygon fill="none" stroke="#000000" points="286.5,-573.2 286.5,-595.2 461.5,-595.2 461.5,-573.2 286.5,-573.2"/>
<image xlink:href="../../images/primaryKeys.png" width="11px" height="12px" preserveAspectRatio="xMinYMin meet" x="291.5" y="-590.2"/>
<text text-anchor="start" x="306.5" y="-580.3" font-family="Helvetica,sans-Serif" font-size="11.00" fill="#000000">revision</text>
<polygon fill="none" stroke="#000000" points="286.5,-551.2 286.5,-573.2 461.5,-573.2 461.5,-551.2 286.5,-551.2"/>
<image xlink:href="../../images/primaryKeys.png" width="11px" height="12px" preserveAspectRatio="xMinYMin meet" x="291.5" y="-568.2"/>
<text text-anchor="start" x="306.5" y="-558.3" font-family="Helvetica,sans-Serif" font-size="11.00" fill="#000000">operation_id</text>
<polygon fill="none" stroke="#000000" points="286.5,-529.2 286.5,-551.2 461.5,-551.2 461.5,-529.2 286.5,-529.2"/>
<image xlink:href="../../images/foreignKeys.png" width="11px" height="12px" preserveAspectRatio="xMinYMin meet" x="291.5" y="-546.2"/>
<text text-anchor="start" x="306.5" y="-536.3" font-family="Helvetica,sans-Serif" font-size="11.00" fill="#000000">data_hash</text>
<polygon fill="none" stroke="#000000" points="286.5,-510.2 286.5,-529.2 461.5,-529.2 461.5,-510.2 286.5,-510.2"/>
<text text-anchor="start" x="289.5" y="-516.3" font-family="Helvetica,sans-Serif" font-size="11.00" fill="#000000">...</text>
<polygon fill="#ffffff" stroke="transparent" points="286.5,-491.2 286.5,-510.2 367.5,-510.2 367.5,-491.2 286.5,-491.2"/>
<polygon fill="none" stroke="#000000" points="286.5,-491.2 286.5,-510.2 367.5,-510.2 367.5,-491.2 286.5,-491.2"/>
<text text-anchor="start" x="289.5" y="-497.3" font-family="Helvetica,sans-Serif" font-size="11.00" fill="#000000">&lt; 4</text>
<polygon fill="#ffffff" stroke="transparent" points="367.5,-491.2 367.5,-510.2 409.5,-510.2 409.5,-491.2 367.5,-491.2"/>
<polygon fill="none" stroke="#000000" points="367.5,-491.2 367.5,-510.2 409.5,-510.2 409.5,-491.2 367.5,-491.2"/>
<text text-anchor="start" x="400.3862" y="-497.3" font-family="Helvetica,sans-Serif" font-size="11.00" fill="#000000"> &#160;</text>
<polygon fill="#ffffff" stroke="transparent" points="409.5,-491.2 409.5,-510.2 461.5,-510.2 461.5,-491.2 409.5,-491.2"/>
<polygon fill="none" stroke="#000000" points="409.5,-491.2 409.5,-510.2 461.5,-510.2 461.5,-491.2 409.5,-491.2"/>
<text text-anchor="start" x="442.9053" y="-497.3" font-family="Helvetica,sans-Serif" font-size="11.00" fill="#000000">4 &gt;</text>
</a>
</g>
</g>
<!-- operation_data -->
<g id="node2" class="node">
<title>operation_data</title>
<g id="a_node2"><a xlink:href="../../tables/operation_data.html" xlink:title="operation_data" target="_top">
<polygon fill="#ffffff" stroke="transparent" points="8,-284.2 8,-396.2 228,-396.2 228,-284.2 8,-284.2"/>
<polygon fill="#f5f5f5" stroke="transparent" points="10,-371.2 10,-394.2 226,-394.2 226,-371.2 10,-371.2"/>
<polygon fill="none" stroke="#000000" points="10,-371.2 10,-394.2 226,-394.2 226,-371.2 10,-371.2"/>
<text text-anchor="start" x="15" y="-379.8" font-family="Helvetica,sans-Serif" font-weight="bold" font-size="11.00" fill="#000000">operation_data</text>
<text text-anchor="start" x="191.0437" y="-379.3" font-family="Helvetica,sans-Serif" font-size="11.00" fill="#000000">[table]</text>
<polygon fill="none" stroke="#000000" points="10,-349.2 10,-371.2 117,-371.2 117,-349.2 10,-349.2"/>
<image xlink:href="../../images/primaryKeys.png" width="11px" height="12px" preserveAspectRatio="xMinYMin meet" x="15" y="-366.2"/>
<text text-anchor="start" x="30" y="-356.3" font-family="Helvetica,sans-Serif" font-size="11.00" fill="#000000">data_hash</text>
<polygon fill="none" stroke="#000000" points="117,-349.2 117,-371.2 226,-371.2 226,-349.2 117,-349.2"/>
<text text-anchor="start" x="119.5344" y="-356.9" font-family="Helvetica,sans-Serif" font-size="11.00" fill="#000000">varchar[2147483647]</text>
<polygon fill="none" stroke="#000000" points="10,-327.2 10,-349.2 117,-349.2 117,-327.2 10,-327.2"/>
<text text-anchor="start" x="30" y="-334.3" font-family="Helvetica,sans-Serif" font-size="11.00" fill="#000000">data</text>
<polygon fill="none" stroke="#000000" points="117,-327.2 117,-349.2 226,-349.2 226,-327.2 117,-327.2"/>
<text text-anchor="start" x="120" y="-334.9" font-family="Helvetica,sans-Serif" font-size="11.00" fill="#000000">bytea[2147483647]</text>
<polygon fill="none" stroke="#000000" points="10,-305.2 10,-327.2 117,-327.2 117,-305.2 10,-305.2"/>
<text text-anchor="start" x="30" y="-312.3" font-family="Helvetica,sans-Serif" font-size="11.00" fill="#000000">search_scope</text>
<polygon fill="none" stroke="#000000" points="117,-305.2 117,-327.2 226,-327.2 226,-305.2 117,-305.2"/>
<text text-anchor="start" x="120" y="-312.9" font-family="Helvetica,sans-Serif" font-size="11.00" fill="#000000">jsonb[2147483647]</text>
<polygon fill="#ffffff" stroke="transparent" points="10,-286.2 10,-305.2 68,-305.2 68,-286.2 10,-286.2"/>
<polygon fill="none" stroke="#000000" points="10,-286.2 10,-305.2 68,-305.2 68,-286.2 10,-286.2"/>
<text text-anchor="start" x="13" y="-292.3" font-family="Helvetica,sans-Serif" font-size="11.00" fill="#000000">&lt; 0</text>
<polygon fill="#ffffff" stroke="transparent" points="68,-286.2 68,-305.2 117,-305.2 117,-286.2 68,-286.2"/>
<polygon fill="none" stroke="#000000" points="68,-286.2 68,-305.2 117,-305.2 117,-286.2 68,-286.2"/>
<text text-anchor="start" x="107.8862" y="-292.3" font-family="Helvetica,sans-Serif" font-size="11.00" fill="#000000"> &#160;</text>
<polygon fill="#ffffff" stroke="transparent" points="117,-286.2 117,-305.2 226,-305.2 226,-286.2 117,-286.2"/>
<polygon fill="none" stroke="#000000" points="117,-286.2 117,-305.2 226,-305.2 226,-286.2 117,-286.2"/>
<text text-anchor="start" x="207.4053" y="-292.3" font-family="Helvetica,sans-Serif" font-size="11.00" fill="#000000">4 &gt;</text>
<polygon fill="none" stroke="#000000" stroke-width="2" points="9,-285.2 9,-395.2 227,-395.2 227,-285.2 9,-285.2"/>
</a>
</g>
</g>
<!-- operation&#45;&gt;operation_data -->
<g id="edge1" class="edge">
<title>operation:w&#45;&gt;operation_data:e</title>
<path fill="none" stroke="#000000" d="M272.1227,-537.9241C215.6354,-517.0875 304.7934,-360.2 226,-360.2"/>
<polygon fill="#000000" stroke="#000000" points="278.5984,-538.9492 285.9371,-543.7557 282.5492,-539.5746 286.5,-540.2 286.5,-540.2 286.5,-540.2 282.5492,-539.5746 287.0629,-536.6443 278.5984,-538.9492 278.5984,-538.9492"/>
<ellipse fill="none" stroke="#000000" cx="275.4377" cy="-538.4488" rx="3.2" ry="3.2"/>
</g>
<!-- ts_graphql_operation_data -->
<g id="node3" class="node">
<title>ts_graphql_operation_data</title>
<g id="a_node3"><a xlink:href="../../tables/ts_graphql_operation_data.html" xlink:title="ts_graphql_operation_data" target="_top">
<polygon fill="#ffffff" stroke="transparent" points="277,-340.2 277,-470.2 470,-470.2 470,-340.2 277,-340.2"/>
<polygon fill="#f5f5f5" stroke="transparent" points="277.5,-447.2 277.5,-470.2 470.5,-470.2 470.5,-447.2 277.5,-447.2"/>
<polygon fill="none" stroke="#000000" points="277.5,-447.2 277.5,-470.2 470.5,-470.2 470.5,-447.2 277.5,-447.2"/>
<text text-anchor="start" x="282.5" y="-455.8" font-family="Helvetica,sans-Serif" font-weight="bold" font-size="11.00" fill="#000000">ts_graphql_operation_data</text>
<text text-anchor="start" x="436.0219" y="-455.3" font-family="Helvetica,sans-Serif" font-size="11.00" fill="#000000">[table]</text>
<polygon fill="none" stroke="#000000" points="277.5,-425.2 277.5,-447.2 470.5,-447.2 470.5,-425.2 277.5,-425.2"/>
<image xlink:href="../../images/primaryKeys.png" width="11px" height="12px" preserveAspectRatio="xMinYMin meet" x="282.5" y="-442.2"/>
<text text-anchor="start" x="306.5" y="-432.3" font-family="Helvetica,sans-Serif" font-size="11.00" fill="#000000">data_hash</text>
<polygon fill="#ffffff" stroke="transparent" points="277.5,-403.2 277.5,-425.2 470.5,-425.2 470.5,-403.2 277.5,-403.2"/>
<polygon fill="none" stroke="#000000" points="277.5,-403.2 277.5,-425.2 470.5,-425.2 470.5,-403.2 277.5,-403.2"/>
<text text-anchor="start" x="306.5" y="-410.3" font-family="Helvetica,sans-Serif" font-size="11.00" fill="#000000">scope_argument</text>
<polygon fill="#ffffff" stroke="transparent" points="277.5,-381.2 277.5,-403.2 470.5,-403.2 470.5,-381.2 277.5,-381.2"/>
<polygon fill="none" stroke="#000000" points="277.5,-381.2 277.5,-403.2 470.5,-403.2 470.5,-381.2 277.5,-381.2"/>
<text text-anchor="start" x="306.5" y="-388.3" font-family="Helvetica,sans-Serif" font-size="11.00" fill="#000000">scope_property</text>
<polygon fill="#ffffff" stroke="transparent" points="277.5,-359.2 277.5,-381.2 470.5,-381.2 470.5,-359.2 277.5,-359.2"/>
<polygon fill="none" stroke="#000000" points="277.5,-359.2 277.5,-381.2 470.5,-381.2 470.5,-359.2 277.5,-359.2"/>
<text text-anchor="start" x="306.5" y="-366.3" font-family="Helvetica,sans-Serif" font-size="11.00" fill="#000000">scope_annotation</text>
<polygon fill="#ffffff" stroke="transparent" points="277.5,-340.2 277.5,-359.2 372.5,-359.2 372.5,-340.2 277.5,-340.2"/>
<polygon fill="none" stroke="#000000" points="277.5,-340.2 277.5,-359.2 372.5,-359.2 372.5,-340.2 277.5,-340.2"/>
<text text-anchor="start" x="280.5" y="-346.3" font-family="Helvetica,sans-Serif" font-size="11.00" fill="#000000">&lt; 1</text>
<polygon fill="#ffffff" stroke="transparent" points="372.5,-340.2 372.5,-359.2 421.5,-359.2 421.5,-340.2 372.5,-340.2"/>
<polygon fill="none" stroke="#000000" points="372.5,-340.2 372.5,-359.2 421.5,-359.2 421.5,-340.2 372.5,-340.2"/>
<text text-anchor="start" x="412.3862" y="-346.3" font-family="Helvetica,sans-Serif" font-size="11.00" fill="#000000"> &#160;</text>
<polygon fill="#ffffff" stroke="transparent" points="421.5,-340.2 421.5,-359.2 470.5,-359.2 470.5,-340.2 421.5,-340.2"/>
<polygon fill="none" stroke="#000000" points="421.5,-340.2 421.5,-359.2 470.5,-359.2 470.5,-340.2 421.5,-340.2"/>
<text text-anchor="start" x="461.3862" y="-346.3" font-family="Helvetica,sans-Serif" font-size="11.00" fill="#000000"> &#160;</text>
</a>
</g>
</g>
<!-- ts_graphql_operation_data&#45;&gt;operation_data -->
<g id="edge2" class="edge">
<title>ts_graphql_operation_data:w&#45;&gt;operation_data:e</title>
<path fill="none" stroke="#000000" d="M267.1137,-434.0074C242.0812,-421.5464 262.6584,-360.2 226,-360.2"/>
<polygon fill="#000000" stroke="#000000" points="277.5435,-432.121 275.891,-439.9485 274.3255,-439.618 275.978,-431.7905 277.5435,-432.121"/>
<polyline fill="none" stroke="#000000" points="277.5,-436.2 273.5863,-435.3738 "/>
<ellipse fill="none" stroke="#000000" cx="270.4553" cy="-434.7128" rx="3.2" ry="3.2"/>
</g>
<!-- ts_operation_data -->
<g id="node4" class="node">
<title>ts_operation_data</title>
<g id="a_node4"><a xlink:href="../../tables/ts_operation_data.html" xlink:title="ts_operation_data" target="_top">
<polygon fill="#ffffff" stroke="transparent" points="302.5,-233.2 302.5,-319.2 444.5,-319.2 444.5,-233.2 302.5,-233.2"/>
<polygon fill="#f5f5f5" stroke="transparent" points="302.5,-296.2 302.5,-319.2 444.5,-319.2 444.5,-296.2 302.5,-296.2"/>
<polygon fill="none" stroke="#000000" points="302.5,-296.2 302.5,-319.2 444.5,-319.2 444.5,-296.2 302.5,-296.2"/>
<text text-anchor="start" x="307.5" y="-304.8" font-family="Helvetica,sans-Serif" font-weight="bold" font-size="11.00" fill="#000000">ts_operation_data</text>
<text text-anchor="start" x="410.0219" y="-304.3" font-family="Helvetica,sans-Serif" font-size="11.00" fill="#000000">[table]</text>
<polygon fill="none" stroke="#000000" points="302.5,-274.2 302.5,-296.2 444.5,-296.2 444.5,-274.2 302.5,-274.2"/>
<image xlink:href="../../images/primaryKeys.png" width="11px" height="12px" preserveAspectRatio="xMinYMin meet" x="307.5" y="-291.2"/>
<text text-anchor="start" x="331.5" y="-281.3" font-family="Helvetica,sans-Serif" font-size="11.00" fill="#000000">data_hash</text>
<polygon fill="#ffffff" stroke="transparent" points="302.5,-252.2 302.5,-274.2 444.5,-274.2 444.5,-252.2 302.5,-252.2"/>
<polygon fill="none" stroke="#000000" points="302.5,-252.2 302.5,-274.2 444.5,-274.2 444.5,-252.2 302.5,-252.2"/>
<text text-anchor="start" x="331.5" y="-259.3" font-family="Helvetica,sans-Serif" font-size="11.00" fill="#000000">scope_all</text>
<polygon fill="#ffffff" stroke="transparent" points="302.5,-233.2 302.5,-252.2 371.5,-252.2 371.5,-233.2 302.5,-233.2"/>
<polygon fill="none" stroke="#000000" points="302.5,-233.2 302.5,-252.2 371.5,-252.2 371.5,-233.2 302.5,-233.2"/>
<text text-anchor="start" x="305.5" y="-239.3" font-family="Helvetica,sans-Serif" font-size="11.00" fill="#000000">&lt; 1</text>
<polygon fill="#ffffff" stroke="transparent" points="371.5,-233.2 371.5,-252.2 407.5,-252.2 407.5,-233.2 371.5,-233.2"/>
<polygon fill="none" stroke="#000000" points="371.5,-233.2 371.5,-252.2 407.5,-252.2 407.5,-233.2 371.5,-233.2"/>
<text text-anchor="start" x="398.3862" y="-239.3" font-family="Helvetica,sans-Serif" font-size="11.00" fill="#000000"> &#160;</text>
<polygon fill="#ffffff" stroke="transparent" points="407.5,-233.2 407.5,-252.2 444.5,-252.2 444.5,-233.2 407.5,-233.2"/>
<polygon fill="none" stroke="#000000" points="407.5,-233.2 407.5,-252.2 444.5,-252.2 444.5,-233.2 407.5,-233.2"/>
<text text-anchor="start" x="435.3862" y="-239.3" font-family="Helvetica,sans-Serif" font-size="11.00" fill="#000000"> &#160;</text>
</a>
</g>
</g>
<!-- ts_operation_data&#45;&gt;operation_data -->
<g id="edge3" class="edge">
<title>ts_operation_data:w&#45;&gt;operation_data:e</title>
<path fill="none" stroke="#000000" d="M292.0485,-286.6313C257.512,-297 269.7083,-360.2 226,-360.2"/>
<polygon fill="#000000" stroke="#000000" points="301.1647,-281.3455 302.2501,-289.2716 300.6649,-289.4887 299.5795,-281.5626 301.1647,-281.3455"/>
<polyline fill="none" stroke="#000000" points="302.5,-285.2 298.537,-285.7427 "/>
<ellipse fill="none" stroke="#000000" cx="295.3666" cy="-286.1769" rx="3.2" ry="3.2"/>
</g>
<!-- ts_rest_operation_data -->
<g id="node5" class="node">
<title>ts_rest_operation_data</title>
<g id="a_node5"><a xlink:href="../../tables/ts_rest_operation_data.html" xlink:title="ts_rest_operation_data" target="_top">
<polygon fill="#ffffff" stroke="transparent" points="288,-38.2 288,-212.2 459,-212.2 459,-38.2 288,-38.2"/>
<polygon fill="#f5f5f5" stroke="transparent" points="288.5,-189.2 288.5,-212.2 459.5,-212.2 459.5,-189.2 288.5,-189.2"/>
<polygon fill="none" stroke="#000000" points="288.5,-189.2 288.5,-212.2 459.5,-212.2 459.5,-189.2 288.5,-189.2"/>
<text text-anchor="start" x="293.5" y="-197.8" font-family="Helvetica,sans-Serif" font-weight="bold" font-size="11.00" fill="#000000">ts_rest_operation_data</text>
<text text-anchor="start" x="425.0219" y="-197.3" font-family="Helvetica,sans-Serif" font-size="11.00" fill="#000000">[table]</text>
<polygon fill="none" stroke="#000000" points="288.5,-167.2 288.5,-189.2 459.5,-189.2 459.5,-167.2 288.5,-167.2"/>
<image xlink:href="../../images/primaryKeys.png" width="11px" height="12px" preserveAspectRatio="xMinYMin meet" x="293.5" y="-184.2"/>
<text text-anchor="start" x="317.5" y="-174.3" font-family="Helvetica,sans-Serif" font-size="11.00" fill="#000000">data_hash</text>
<polygon fill="#ffffff" stroke="transparent" points="288.5,-145.2 288.5,-167.2 459.5,-167.2 459.5,-145.2 288.5,-145.2"/>
<polygon fill="none" stroke="#000000" points="288.5,-145.2 288.5,-167.2 459.5,-167.2 459.5,-145.2 288.5,-145.2"/>
<text text-anchor="start" x="317.5" y="-152.3" font-family="Helvetica,sans-Serif" font-size="11.00" fill="#000000">scope_request</text>
<polygon fill="#ffffff" stroke="transparent" points="288.5,-123.2 288.5,-145.2 459.5,-145.2 459.5,-123.2 288.5,-123.2"/>
<polygon fill="none" stroke="#000000" points="288.5,-123.2 288.5,-145.2 459.5,-145.2 459.5,-123.2 288.5,-123.2"/>
<text text-anchor="start" x="317.5" y="-130.3" font-family="Helvetica,sans-Serif" font-size="11.00" fill="#000000">scope_response</text>
<polygon fill="#ffffff" stroke="transparent" points="288.5,-101.2 288.5,-123.2 459.5,-123.2 459.5,-101.2 288.5,-101.2"/>
<polygon fill="none" stroke="#000000" points="288.5,-101.2 288.5,-123.2 459.5,-123.2 459.5,-101.2 288.5,-101.2"/>
<text text-anchor="start" x="317.5" y="-108.3" font-family="Helvetica,sans-Serif" font-size="11.00" fill="#000000">scope_annotation</text>
<polygon fill="#ffffff" stroke="transparent" points="288.5,-79.2 288.5,-101.2 459.5,-101.2 459.5,-79.2 288.5,-79.2"/>
<polygon fill="none" stroke="#000000" points="288.5,-79.2 288.5,-101.2 459.5,-101.2 459.5,-79.2 288.5,-79.2"/>
<text text-anchor="start" x="317.5" y="-86.3" font-family="Helvetica,sans-Serif" font-size="11.00" fill="#000000">scope_properties</text>
<polygon fill="#ffffff" stroke="transparent" points="288.5,-57.2 288.5,-79.2 459.5,-79.2 459.5,-57.2 288.5,-57.2"/>
<polygon fill="none" stroke="#000000" points="288.5,-57.2 288.5,-79.2 459.5,-79.2 459.5,-57.2 288.5,-57.2"/>
<text text-anchor="start" x="317.5" y="-64.3" font-family="Helvetica,sans-Serif" font-size="11.00" fill="#000000">scope_examples</text>
<polygon fill="#ffffff" stroke="transparent" points="288.5,-38.2 288.5,-57.2 372.5,-57.2 372.5,-38.2 288.5,-38.2"/>
<polygon fill="none" stroke="#000000" points="288.5,-38.2 288.5,-57.2 372.5,-57.2 372.5,-38.2 288.5,-38.2"/>
<text text-anchor="start" x="291.5" y="-44.3" font-family="Helvetica,sans-Serif" font-size="11.00" fill="#000000">&lt; 1</text>
<polygon fill="#ffffff" stroke="transparent" points="372.5,-38.2 372.5,-57.2 415.5,-57.2 415.5,-38.2 372.5,-38.2"/>
<polygon fill="none" stroke="#000000" points="372.5,-38.2 372.5,-57.2 415.5,-57.2 415.5,-38.2 372.5,-38.2"/>
<text text-anchor="start" x="406.3862" y="-44.3" font-family="Helvetica,sans-Serif" font-size="11.00" fill="#000000"> &#160;</text>
<polygon fill="#ffffff" stroke="transparent" points="415.5,-38.2 415.5,-57.2 459.5,-57.2 459.5,-38.2 415.5,-38.2"/>
<polygon fill="none" stroke="#000000" points="415.5,-38.2 415.5,-57.2 459.5,-57.2 459.5,-38.2 415.5,-38.2"/>
<text text-anchor="start" x="450.3862" y="-44.3" font-family="Helvetica,sans-Serif" font-size="11.00" fill="#000000"> &#160;</text>
</a>
</g>
</g>
<!-- ts_rest_operation_data&#45;&gt;operation_data -->
<g id="edge4" class="edge">
<title>ts_rest_operation_data:w&#45;&gt;operation_data:e</title>
<path fill="none" stroke="#000000" d="M278.1138,-179.2688C212.3355,-194.1843 307.6836,-360.2 226,-360.2"/>
<polygon fill="#000000" stroke="#000000" points="287.2947,-174.3029 288.1137,-182.2609 286.5221,-182.4247 285.7031,-174.4667 287.2947,-174.3029"/>
<polyline fill="none" stroke="#000000" points="288.5,-178.2 284.521,-178.6095 "/>
<ellipse fill="none" stroke="#000000" cx="281.3378" cy="-178.9371" rx="3.2" ry="3.2"/>
</g>
</g>
</svg>
