<?xml version="1.0" encoding="UTF-8" standalone="no"?>
<!DOCTYPE svg PUBLIC "-//W3C//DTD SVG 1.1//EN"
 "http://www.w3.org/Graphics/SVG/1.1/DTD/svg11.dtd">
<!-- Generated by graphviz version 2.40.1 (20161225.0304)
 -->
<!-- Title: twoDegreesRelationshipsDiagram Pages: 1 -->
<svg width="683pt" height="804pt"
 viewBox="0.00 0.00 683.00 803.70" xmlns="http://www.w3.org/2000/svg" xmlns:xlink="http://www.w3.org/1999/xlink">
<g id="graph0" class="graph" transform="scale(1 1) rotate(0) translate(4 799.7)">
<title>twoDegreesRelationshipsDiagram</title>
<polygon fill="#ffffff" stroke="transparent" points="-4,4 -4,-799.7 679,-799.7 679,4 -4,4"/>
<text text-anchor="middle" x="72.4936" y="-7.3" font-family="Helvetica,sans-Serif" font-size="11.00" fill="#000000">Generated by SchemaSpy</text>
<!-- fts_operation_data -->
<g id="node1" class="node">
<title>fts_operation_data</title>
<g id="a_node1"><a xlink:href="../../tables/fts_operation_data.html" xlink:title="fts_operation_data" target="_top">
<polygon fill="#ffffff" stroke="transparent" points="300.5,-491.2 300.5,-577.2 446.5,-577.2 446.5,-491.2 300.5,-491.2"/>
<polygon fill="#f5f5f5" stroke="transparent" points="300.5,-554.2 300.5,-577.2 446.5,-577.2 446.5,-554.2 300.5,-554.2"/>
<polygon fill="none" stroke="#000000" points="300.5,-554.2 300.5,-577.2 446.5,-577.2 446.5,-554.2 300.5,-554.2"/>
<text text-anchor="start" x="305.5" y="-562.8" font-family="Helvetica,sans-Serif" font-weight="bold" font-size="11.00" fill="#000000">fts_operation_data</text>
<text text-anchor="start" x="412.0219" y="-562.3" font-family="Helvetica,sans-Serif" font-size="11.00" fill="#000000">[table]</text>
<polygon fill="none" stroke="#000000" points="300.5,-532.2 300.5,-554.2 446.5,-554.2 446.5,-532.2 300.5,-532.2"/>
<image xlink:href="../../images/primaryKeys.png" width="11px" height="12px" preserveAspectRatio="xMinYMin meet" x="305.5" y="-549.2"/>
<text text-anchor="start" x="329.5" y="-539.3" font-family="Helvetica,sans-Serif" font-size="11.00" fill="#000000">data_hash</text>
<polygon fill="#ffffff" stroke="transparent" points="300.5,-510.2 300.5,-532.2 446.5,-532.2 446.5,-510.2 300.5,-510.2"/>
<polygon fill="none" stroke="#000000" points="300.5,-510.2 300.5,-532.2 446.5,-532.2 446.5,-510.2 300.5,-510.2"/>
<text text-anchor="start" x="329.5" y="-517.3" font-family="Helvetica,sans-Serif" font-size="11.00" fill="#000000">data_vector</text>
<polygon fill="#ffffff" stroke="transparent" points="300.5,-491.2 300.5,-510.2 371.5,-510.2 371.5,-491.2 300.5,-491.2"/>
<polygon fill="none" stroke="#000000" points="300.5,-491.2 300.5,-510.2 371.5,-510.2 371.5,-491.2 300.5,-491.2"/>
<text text-anchor="start" x="303.5" y="-497.3" font-family="Helvetica,sans-Serif" font-size="11.00" fill="#000000">&lt; 1</text>
<polygon fill="#ffffff" stroke="transparent" points="371.5,-491.2 371.5,-510.2 408.5,-510.2 408.5,-491.2 371.5,-491.2"/>
<polygon fill="none" stroke="#000000" points="371.5,-491.2 371.5,-510.2 408.5,-510.2 408.5,-491.2 371.5,-491.2"/>
<text text-anchor="start" x="399.3862" y="-497.3" font-family="Helvetica,sans-Serif" font-size="11.00" fill="#000000"> &#160;</text>
<polygon fill="#ffffff" stroke="transparent" points="408.5,-491.2 408.5,-510.2 446.5,-510.2 446.5,-491.2 408.5,-491.2"/>
<polygon fill="none" stroke="#000000" points="408.5,-491.2 408.5,-510.2 446.5,-510.2 446.5,-491.2 408.5,-491.2"/>
<text text-anchor="start" x="437.3862" y="-497.3" font-family="Helvetica,sans-Serif" font-size="11.00" fill="#000000"> &#160;</text>
</a>
</g>
</g>
<!-- operation_data -->
<g id="node2" class="node">
<title>operation_data</title>
<g id="a_node2"><a xlink:href="../../tables/operation_data.html" xlink:title="operation_data" target="_top">
<polygon fill="#ffffff" stroke="transparent" points="8,-360.2 8,-472.2 228,-472.2 228,-360.2 8,-360.2"/>
<polygon fill="#f5f5f5" stroke="transparent" points="10,-447.2 10,-470.2 226,-470.2 226,-447.2 10,-447.2"/>
<polygon fill="none" stroke="#000000" points="10,-447.2 10,-470.2 226,-470.2 226,-447.2 10,-447.2"/>
<text text-anchor="start" x="15" y="-455.8" font-family="Helvetica,sans-Serif" font-weight="bold" font-size="11.00" fill="#000000">operation_data</text>
<text text-anchor="start" x="191.0437" y="-455.3" font-family="Helvetica,sans-Serif" font-size="11.00" fill="#000000">[table]</text>
<polygon fill="none" stroke="#000000" points="10,-425.2 10,-447.2 117,-447.2 117,-425.2 10,-425.2"/>
<image xlink:href="../../images/primaryKeys.png" width="11px" height="12px" preserveAspectRatio="xMinYMin meet" x="15" y="-442.2"/>
<text text-anchor="start" x="30" y="-432.3" font-family="Helvetica,sans-Serif" font-size="11.00" fill="#000000">data_hash</text>
<polygon fill="none" stroke="#000000" points="117,-425.2 117,-447.2 226,-447.2 226,-425.2 117,-425.2"/>
<text text-anchor="start" x="119.5344" y="-432.9" font-family="Helvetica,sans-Serif" font-size="11.00" fill="#000000">varchar[2147483647]</text>
<polygon fill="none" stroke="#000000" points="10,-403.2 10,-425.2 117,-425.2 117,-403.2 10,-403.2"/>
<text text-anchor="start" x="30" y="-410.3" font-family="Helvetica,sans-Serif" font-size="11.00" fill="#000000">data</text>
<polygon fill="none" stroke="#000000" points="117,-403.2 117,-425.2 226,-425.2 226,-403.2 117,-403.2"/>
<text text-anchor="start" x="120" y="-410.9" font-family="Helvetica,sans-Serif" font-size="11.00" fill="#000000">bytea[2147483647]</text>
<polygon fill="none" stroke="#000000" points="10,-381.2 10,-403.2 117,-403.2 117,-381.2 10,-381.2"/>
<text text-anchor="start" x="30" y="-388.3" font-family="Helvetica,sans-Serif" font-size="11.00" fill="#000000">search_scope</text>
<polygon fill="none" stroke="#000000" points="117,-381.2 117,-403.2 226,-403.2 226,-381.2 117,-381.2"/>
<text text-anchor="start" x="120" y="-388.9" font-family="Helvetica,sans-Serif" font-size="11.00" fill="#000000">jsonb[2147483647]</text>
<polygon fill="#ffffff" stroke="transparent" points="10,-362.2 10,-381.2 68,-381.2 68,-362.2 10,-362.2"/>
<polygon fill="none" stroke="#000000" points="10,-362.2 10,-381.2 68,-381.2 68,-362.2 10,-362.2"/>
<text text-anchor="start" x="13" y="-368.3" font-family="Helvetica,sans-Serif" font-size="11.00" fill="#000000">&lt; 0</text>
<polygon fill="#ffffff" stroke="transparent" points="68,-362.2 68,-381.2 117,-381.2 117,-362.2 68,-362.2"/>
<polygon fill="none" stroke="#000000" points="68,-362.2 68,-381.2 117,-381.2 117,-362.2 68,-362.2"/>
<text text-anchor="start" x="107.8862" y="-368.3" font-family="Helvetica,sans-Serif" font-size="11.00" fill="#000000"> &#160;</text>
<polygon fill="#ffffff" stroke="transparent" points="117,-362.2 117,-381.2 226,-381.2 226,-362.2 117,-362.2"/>
<polygon fill="none" stroke="#000000" points="117,-362.2 117,-381.2 226,-381.2 226,-362.2 117,-362.2"/>
<text text-anchor="start" x="207.4053" y="-368.3" font-family="Helvetica,sans-Serif" font-size="11.00" fill="#000000">5 &gt;</text>
<polygon fill="none" stroke="#000000" stroke-width="2" points="9,-361.2 9,-471.2 227,-471.2 227,-361.2 9,-361.2"/>
</a>
</g>
</g>
<!-- fts_operation_data&#45;&gt;operation_data -->
<g id="edge1" class="edge">
<title>fts_operation_data:w&#45;&gt;operation_data:e</title>
<path fill="none" stroke="#000000" d="M289.9455,-541.7683C247.748,-529.0711 279.986,-436.2 226,-436.2"/>
<polygon fill="#000000" stroke="#000000" points="300.245,-539.1288 299.1696,-547.0562 297.5841,-546.8411 298.6595,-538.9137 300.245,-539.1288"/>
<polyline fill="none" stroke="#000000" points="300.5,-543.2 296.5363,-542.6623 "/>
<ellipse fill="none" stroke="#000000" cx="293.3653" cy="-542.2322" rx="3.2" ry="3.2"/>
</g>
<!-- grouped_operation -->
<g id="node3" class="node">
<title>grouped_operation</title>
<g id="a_node3"><a xlink:href="../../tables/grouped_operation.html" xlink:title="grouped_operation" target="_top">
<polygon fill="#ffffff" stroke="transparent" points="519,-696.7 519,-757.7 667,-757.7 667,-696.7 519,-696.7"/>
<polygon fill="#f5f5f5" stroke="transparent" points="519,-734.2 519,-757.2 667,-757.2 667,-734.2 519,-734.2"/>
<polygon fill="none" stroke="#000000" points="519,-734.2 519,-757.2 667,-757.2 667,-734.2 519,-734.2"/>
<text text-anchor="start" x="524" y="-742.8" font-family="Helvetica,sans-Serif" font-weight="bold" font-size="11.00" fill="#000000">grouped_operation</text>
<text text-anchor="start" x="632.5219" y="-742.3" font-family="Helvetica,sans-Serif" font-size="11.00" fill="#000000">[table]</text>
<polygon fill="none" stroke="#000000" points="519,-715.2 519,-734.2 667,-734.2 667,-715.2 519,-715.2"/>
<text text-anchor="start" x="522" y="-721.3" font-family="Helvetica,sans-Serif" font-size="11.00" fill="#000000">...</text>
<polygon fill="#ffffff" stroke="transparent" points="519,-696.2 519,-715.2 591,-715.2 591,-696.2 519,-696.2"/>
<polygon fill="none" stroke="#000000" points="519,-696.2 519,-715.2 591,-715.2 591,-696.2 519,-696.2"/>
<text text-anchor="start" x="522" y="-702.3" font-family="Helvetica,sans-Serif" font-size="11.00" fill="#000000">&lt; 5</text>
<polygon fill="#ffffff" stroke="transparent" points="591,-696.2 591,-715.2 629,-715.2 629,-696.2 591,-696.2"/>
<polygon fill="none" stroke="#000000" points="591,-696.2 591,-715.2 629,-715.2 629,-696.2 591,-696.2"/>
<text text-anchor="start" x="619.8862" y="-702.3" font-family="Helvetica,sans-Serif" font-size="11.00" fill="#000000"> &#160;</text>
<polygon fill="#ffffff" stroke="transparent" points="629,-696.2 629,-715.2 667,-715.2 667,-696.2 629,-696.2"/>
<polygon fill="none" stroke="#000000" points="629,-696.2 629,-715.2 667,-715.2 667,-696.2 629,-696.2"/>
<text text-anchor="start" x="657.8862" y="-702.3" font-family="Helvetica,sans-Serif" font-size="11.00" fill="#000000"> &#160;</text>
</a>
</g>
</g>
<!-- operation -->
<g id="node4" class="node">
<title>operation</title>
<g id="a_node4"><a xlink:href="../../tables/operation.html" xlink:title="operation" target="_top">
<polygon fill="#ffffff" stroke="transparent" points="286,-598.7 286,-791.7 461,-791.7 461,-598.7 286,-598.7"/>
<polygon fill="#f5f5f5" stroke="transparent" points="286.5,-768.2 286.5,-791.2 461.5,-791.2 461.5,-768.2 286.5,-768.2"/>
<polygon fill="none" stroke="#000000" points="286.5,-768.2 286.5,-791.2 461.5,-791.2 461.5,-768.2 286.5,-768.2"/>
<text text-anchor="start" x="291.5" y="-776.8" font-family="Helvetica,sans-Serif" font-weight="bold" font-size="11.00" fill="#000000">operation</text>
<text text-anchor="start" x="426.5437" y="-776.3" font-family="Helvetica,sans-Serif" font-size="11.00" fill="#000000">[table]</text>
<polygon fill="none" stroke="#000000" points="286.5,-746.2 286.5,-768.2 461.5,-768.2 461.5,-746.2 286.5,-746.2"/>
<image xlink:href="../../images/primaryKeys.png" width="11px" height="12px" preserveAspectRatio="xMinYMin meet" x="291.5" y="-763.2"/>
<text text-anchor="start" x="306.5" y="-753.3" font-family="Helvetica,sans-Serif" font-size="11.00" fill="#000000">package_id</text>
<polygon fill="none" stroke="#000000" points="286.5,-724.2 286.5,-746.2 461.5,-746.2 461.5,-724.2 286.5,-724.2"/>
<image xlink:href="../../images/primaryKeys.png" width="11px" height="12px" preserveAspectRatio="xMinYMin meet" x="291.5" y="-741.2"/>
<text text-anchor="start" x="306.5" y="-731.3" font-family="Helvetica,sans-Serif" font-size="11.00" fill="#000000">version</text>
<polygon fill="none" stroke="#000000" points="286.5,-702.2 286.5,-724.2 461.5,-724.2 461.5,-702.2 286.5,-702.2"/>
<image xlink:href="../../images/primaryKeys.png" width="11px" height="12px" preserveAspectRatio="xMinYMin meet" x="291.5" y="-719.2"/>
<text text-anchor="start" x="306.5" y="-709.3" font-family="Helvetica,sans-Serif" font-size="11.00" fill="#000000">revision</text>
<polygon fill="none" stroke="#000000" points="286.5,-680.2 286.5,-702.2 461.5,-702.2 461.5,-680.2 286.5,-680.2"/>
<image xlink:href="../../images/primaryKeys.png" width="11px" height="12px" preserveAspectRatio="xMinYMin meet" x="291.5" y="-697.2"/>
<text text-anchor="start" x="306.5" y="-687.3" font-family="Helvetica,sans-Serif" font-size="11.00" fill="#000000">operation_id</text>
<polygon fill="#ffffff" stroke="transparent" points="286.5,-658.2 286.5,-680.2 461.5,-680.2 461.5,-658.2 286.5,-658.2"/>
<polygon fill="none" stroke="#000000" points="286.5,-658.2 286.5,-680.2 461.5,-680.2 461.5,-658.2 286.5,-658.2"/>
<image xlink:href="../../images/foreignKeys.png" width="11px" height="12px" preserveAspectRatio="xMinYMin meet" x="291.5" y="-675.2"/>
<text text-anchor="start" x="306.5" y="-665.3" font-family="Helvetica,sans-Serif" font-size="11.00" fill="#000000">data_hash</text>
<polygon fill="#ffffff" stroke="transparent" points="286.5,-636.2 286.5,-658.2 461.5,-658.2 461.5,-636.2 286.5,-636.2"/>
<polygon fill="none" stroke="#000000" points="286.5,-636.2 286.5,-658.2 461.5,-658.2 461.5,-636.2 286.5,-636.2"/>
<text text-anchor="start" x="306.5" y="-643.3" font-family="Helvetica,sans-Serif" font-size="11.00" fill="#000000">type</text>
<polygon fill="none" stroke="#000000" points="286.5,-617.2 286.5,-636.2 461.5,-636.2 461.5,-617.2 286.5,-617.2"/>
<text text-anchor="start" x="289.5" y="-623.3" font-family="Helvetica,sans-Serif" font-size="11.00" fill="#000000">...</text>
<polygon fill="#ffffff" stroke="transparent" points="286.5,-598.2 286.5,-617.2 367.5,-617.2 367.5,-598.2 286.5,-598.2"/>
<polygon fill="none" stroke="#000000" points="286.5,-598.2 286.5,-617.2 367.5,-617.2 367.5,-598.2 286.5,-598.2"/>
<text text-anchor="start" x="289.5" y="-604.3" font-family="Helvetica,sans-Serif" font-size="11.00" fill="#000000">&lt; 4</text>
<polygon fill="#ffffff" stroke="transparent" points="367.5,-598.2 367.5,-617.2 409.5,-617.2 409.5,-598.2 367.5,-598.2"/>
<polygon fill="none" stroke="#000000" points="367.5,-598.2 367.5,-617.2 409.5,-617.2 409.5,-598.2 367.5,-598.2"/>
<text text-anchor="start" x="400.3862" y="-604.3" font-family="Helvetica,sans-Serif" font-size="11.00" fill="#000000"> &#160;</text>
<polygon fill="#ffffff" stroke="transparent" points="409.5,-598.2 409.5,-617.2 461.5,-617.2 461.5,-598.2 409.5,-598.2"/>
<polygon fill="none" stroke="#000000" points="409.5,-598.2 409.5,-617.2 461.5,-617.2 461.5,-598.2 409.5,-598.2"/>
<text text-anchor="start" x="442.9053" y="-604.3" font-family="Helvetica,sans-Serif" font-size="11.00" fill="#000000">4 &gt;</text>
</a>
</g>
</g>
<!-- grouped_operation&#45;&gt;operation -->
<g id="edge2" class="edge">
<title>grouped_operation:w&#45;&gt;operation:e</title>
<path fill="none" stroke="#000000" d="M504.8106,-720.9152C488.915,-712.5682 485.2103,-691.2 461.5,-691.2"/>
<polygon fill="#000000" stroke="#000000" points="511.2061,-722.3957 518.1881,-727.7072 515.1031,-723.2978 519,-724.2 519,-724.2 519,-724.2 515.1031,-723.2978 519.8119,-720.6928 511.2061,-722.3957 511.2061,-722.3957"/>
<ellipse fill="none" stroke="#000000" cx="508.0886" cy="-721.674" rx="3.2" ry="3.2"/>
</g>
<!-- grouped_operation&#45;&gt;operation -->
<g id="edge3" class="edge">
<title>grouped_operation:w&#45;&gt;operation:e</title>
<path fill="none" stroke="#000000" d="M504.8106,-727.4848C488.915,-735.8318 485.2103,-757.2 461.5,-757.2"/>
<polygon fill="#000000" stroke="#000000" points="511.2061,-726.0043 519.8119,-727.7072 515.1031,-725.1022 519,-724.2 519,-724.2 519,-724.2 515.1031,-725.1022 518.1881,-720.6928 511.2061,-726.0043 511.2061,-726.0043"/>
<ellipse fill="none" stroke="#000000" cx="508.0886" cy="-726.726" rx="3.2" ry="3.2"/>
</g>
<!-- grouped_operation&#45;&gt;operation -->
<g id="edge4" class="edge">
<title>grouped_operation:w&#45;&gt;operation:e</title>
<path fill="none" stroke="#000000" d="M504.4457,-722.8512C489.6077,-719.9139 481.8273,-713.2 461.5,-713.2"/>
<polygon fill="#000000" stroke="#000000" points="511.0341,-723.4617 518.6678,-727.7846 515.0171,-723.8309 519,-724.2 519,-724.2 519,-724.2 515.0171,-723.8309 519.3322,-720.6154 511.0341,-723.4617 511.0341,-723.4617"/>
<ellipse fill="none" stroke="#000000" cx="507.8478" cy="-723.1664" rx="3.2" ry="3.2"/>
</g>
<!-- grouped_operation&#45;&gt;operation -->
<g id="edge5" class="edge">
<title>grouped_operation:w&#45;&gt;operation:e</title>
<path fill="none" stroke="#000000" d="M504.4457,-725.5488C489.6077,-728.4861 481.8273,-735.2 461.5,-735.2"/>
<polygon fill="#000000" stroke="#000000" points="511.0341,-724.9383 519.3322,-727.7846 515.0171,-724.5691 519,-724.2 519,-724.2 519,-724.2 515.0171,-724.5691 518.6678,-720.6154 511.0341,-724.9383 511.0341,-724.9383"/>
<ellipse fill="none" stroke="#000000" cx="507.8478" cy="-725.2336" rx="3.2" ry="3.2"/>
</g>
<!-- operation&#45;&gt;operation_data -->
<g id="edge6" class="edge">
<title>operation:w&#45;&gt;operation_data:e</title>
<path fill="none" stroke="#000000" d="M272.1476,-667.4585C194.4265,-646.1368 327.5565,-436.2 226,-436.2"/>
<polygon fill="#000000" stroke="#000000" points="278.5583,-668.2363 286.0663,-672.7738 282.5291,-668.7182 286.5,-669.2 286.5,-669.2 286.5,-669.2 282.5291,-668.7182 286.9337,-665.6262 278.5583,-668.2363 278.5583,-668.2363"/>
<ellipse fill="none" stroke="#000000" cx="275.3816" cy="-667.8508" rx="3.2" ry="3.2"/>
</g>
<!-- published_version -->
<g id="node5" class="node">
<title>published_version</title>
<g id="a_node5"><a xlink:href="../../tables/published_version.html" xlink:title="published_version" target="_top">
<polygon fill="#ffffff" stroke="transparent" points="45.5,-707.7 45.5,-768.7 190.5,-768.7 190.5,-707.7 45.5,-707.7"/>
<polygon fill="#f5f5f5" stroke="transparent" points="46,-745.2 46,-768.2 191,-768.2 191,-745.2 46,-745.2"/>
<polygon fill="none" stroke="#000000" points="46,-745.2 46,-768.2 191,-768.2 191,-745.2 46,-745.2"/>
<text text-anchor="start" x="51" y="-753.8" font-family="Helvetica,sans-Serif" font-weight="bold" font-size="11.00" fill="#000000">published_version</text>
<text text-anchor="start" x="156.5219" y="-753.3" font-family="Helvetica,sans-Serif" font-size="11.00" fill="#000000">[table]</text>
<polygon fill="none" stroke="#000000" points="46,-726.2 46,-745.2 191,-745.2 191,-726.2 46,-726.2"/>
<text text-anchor="start" x="49" y="-732.3" font-family="Helvetica,sans-Serif" font-size="11.00" fill="#000000">...</text>
<polygon fill="#ffffff" stroke="transparent" points="46,-707.2 46,-726.2 109,-726.2 109,-707.2 46,-707.2"/>
<polygon fill="none" stroke="#000000" points="46,-707.2 46,-726.2 109,-726.2 109,-707.2 46,-707.2"/>
<text text-anchor="start" x="49" y="-713.3" font-family="Helvetica,sans-Serif" font-size="11.00" fill="#000000">&lt; 1</text>
<polygon fill="#ffffff" stroke="transparent" points="109,-707.2 109,-726.2 142,-726.2 142,-707.2 109,-707.2"/>
<polygon fill="none" stroke="#000000" points="109,-707.2 109,-726.2 142,-726.2 142,-707.2 109,-707.2"/>
<text text-anchor="start" x="132.8862" y="-713.3" font-family="Helvetica,sans-Serif" font-size="11.00" fill="#000000"> &#160;</text>
<polygon fill="#ffffff" stroke="transparent" points="142,-707.2 142,-726.2 191,-726.2 191,-707.2 142,-707.2"/>
<polygon fill="none" stroke="#000000" points="142,-707.2 142,-726.2 191,-726.2 191,-707.2 142,-707.2"/>
<text text-anchor="start" x="166.2904" y="-713.3" font-family="Helvetica,sans-Serif" font-size="11.00" fill="#000000">18 &gt;</text>
</a>
</g>
</g>
<!-- operation&#45;&gt;published_version -->
<g id="edge7" class="edge">
<title>operation:w&#45;&gt;published_version:e</title>
<path fill="none" stroke="#000000" d="M272.0991,-756.3103C240.3968,-752.1945 229.2817,-735.2 191,-735.2"/>
<polygon fill="#000000" stroke="#000000" points="278.5152,-756.7067 286.278,-760.7931 282.5076,-756.9533 286.5,-757.2 286.5,-757.2 286.5,-757.2 282.5076,-756.9533 286.722,-753.6069 278.5152,-756.7067 278.5152,-756.7067"/>
<ellipse fill="none" stroke="#000000" cx="275.3213" cy="-756.5093" rx="3.2" ry="3.2"/>
</g>
<!-- operation&#45;&gt;published_version -->
<g id="edge8" class="edge">
<title>operation:w&#45;&gt;published_version:e</title>
<path fill="none" stroke="#000000" d="M272.0991,-714.0897C240.3968,-718.2055 229.2817,-735.2 191,-735.2"/>
<polygon fill="#000000" stroke="#000000" points="278.5152,-713.6933 286.722,-716.7931 282.5076,-713.4467 286.5,-713.2 286.5,-713.2 286.5,-713.2 282.5076,-713.4467 286.278,-709.6069 278.5152,-713.6933 278.5152,-713.6933"/>
<ellipse fill="none" stroke="#000000" cx="275.3213" cy="-713.8907" rx="3.2" ry="3.2"/>
</g>
<!-- operation&#45;&gt;published_version -->
<g id="edge9" class="edge">
<title>operation:w&#45;&gt;published_version:e</title>
<path fill="none" stroke="#000000" d="M271.9512,-735.2C240.9054,-735.2 228.1389,-735.2 191,-735.2"/>
<polygon fill="#000000" stroke="#000000" points="278.5,-735.2001 286.5,-738.8 282.5,-735.2 286.5,-735.2 286.5,-735.2 286.5,-735.2 282.5,-735.2 286.5,-731.6 278.5,-735.2001 278.5,-735.2001"/>
<ellipse fill="none" stroke="#000000" cx="275.3" cy="-735.2001" rx="3.2" ry="3.2"/>
</g>
<!-- ts_graphql_operation_data -->
<g id="node6" class="node">
<title>ts_graphql_operation_data</title>
<g id="a_node6"><a xlink:href="../../tables/ts_graphql_operation_data.html" xlink:title="ts_graphql_operation_data" target="_top">
<polygon fill="#ffffff" stroke="transparent" points="277,-340.2 277,-470.2 470,-470.2 470,-340.2 277,-340.2"/>
<polygon fill="#f5f5f5" stroke="transparent" points="277.5,-447.2 277.5,-470.2 470.5,-470.2 470.5,-447.2 277.5,-447.2"/>
<polygon fill="none" stroke="#000000" points="277.5,-447.2 277.5,-470.2 470.5,-470.2 470.5,-447.2 277.5,-447.2"/>
<text text-anchor="start" x="282.5" y="-455.8" font-family="Helvetica,sans-Serif" font-weight="bold" font-size="11.00" fill="#000000">ts_graphql_operation_data</text>
<text text-anchor="start" x="436.0219" y="-455.3" font-family="Helvetica,sans-Serif" font-size="11.00" fill="#000000">[table]</text>
<polygon fill="none" stroke="#000000" points="277.5,-425.2 277.5,-447.2 470.5,-447.2 470.5,-425.2 277.5,-425.2"/>
<image xlink:href="../../images/primaryKeys.png" width="11px" height="12px" preserveAspectRatio="xMinYMin meet" x="282.5" y="-442.2"/>
<text text-anchor="start" x="306.5" y="-432.3" font-family="Helvetica,sans-Serif" font-size="11.00" fill="#000000">data_hash</text>
<polygon fill="#ffffff" stroke="transparent" points="277.5,-403.2 277.5,-425.2 470.5,-425.2 470.5,-403.2 277.5,-403.2"/>
<polygon fill="none" stroke="#000000" points="277.5,-403.2 277.5,-425.2 470.5,-425.2 470.5,-403.2 277.5,-403.2"/>
<text text-anchor="start" x="306.5" y="-410.3" font-family="Helvetica,sans-Serif" font-size="11.00" fill="#000000">scope_argument</text>
<polygon fill="#ffffff" stroke="transparent" points="277.5,-381.2 277.5,-403.2 470.5,-403.2 470.5,-381.2 277.5,-381.2"/>
<polygon fill="none" stroke="#000000" points="277.5,-381.2 277.5,-403.2 470.5,-403.2 470.5,-381.2 277.5,-381.2"/>
<text text-anchor="start" x="306.5" y="-388.3" font-family="Helvetica,sans-Serif" font-size="11.00" fill="#000000">scope_property</text>
<polygon fill="#ffffff" stroke="transparent" points="277.5,-359.2 277.5,-381.2 470.5,-381.2 470.5,-359.2 277.5,-359.2"/>
<polygon fill="none" stroke="#000000" points="277.5,-359.2 277.5,-381.2 470.5,-381.2 470.5,-359.2 277.5,-359.2"/>
<text text-anchor="start" x="306.5" y="-366.3" font-family="Helvetica,sans-Serif" font-size="11.00" fill="#000000">scope_annotation</text>
<polygon fill="#ffffff" stroke="transparent" points="277.5,-340.2 277.5,-359.2 372.5,-359.2 372.5,-340.2 277.5,-340.2"/>
<polygon fill="none" stroke="#000000" points="277.5,-340.2 277.5,-359.2 372.5,-359.2 372.5,-340.2 277.5,-340.2"/>
<text text-anchor="start" x="280.5" y="-346.3" font-family="Helvetica,sans-Serif" font-size="11.00" fill="#000000">&lt; 1</text>
<polygon fill="#ffffff" stroke="transparent" points="372.5,-340.2 372.5,-359.2 421.5,-359.2 421.5,-340.2 372.5,-340.2"/>
<polygon fill="none" stroke="#000000" points="372.5,-340.2 372.5,-359.2 421.5,-359.2 421.5,-340.2 372.5,-340.2"/>
<text text-anchor="start" x="412.3862" y="-346.3" font-family="Helvetica,sans-Serif" font-size="11.00" fill="#000000"> &#160;</text>
<polygon fill="#ffffff" stroke="transparent" points="421.5,-340.2 421.5,-359.2 470.5,-359.2 470.5,-340.2 421.5,-340.2"/>
<polygon fill="none" stroke="#000000" points="421.5,-340.2 421.5,-359.2 470.5,-359.2 470.5,-340.2 421.5,-340.2"/>
<text text-anchor="start" x="461.3862" y="-346.3" font-family="Helvetica,sans-Serif" font-size="11.00" fill="#000000"> &#160;</text>
</a>
</g>
</g>
<!-- ts_graphql_operation_data&#45;&gt;operation_data -->
<g id="edge10" class="edge">
<title>ts_graphql_operation_data:w&#45;&gt;operation_data:e</title>
<path fill="none" stroke="#000000" d="M267.045,-436.2C252.137,-436.2 244.9549,-436.2 226,-436.2"/>
<polygon fill="#000000" stroke="#000000" points="276.7,-432.2 276.7,-440.2 275.1,-440.2 275.1,-432.2 276.7,-432.2"/>
<polyline fill="none" stroke="#000000" points="277.5,-436.2 273.5,-436.2 "/>
<ellipse fill="none" stroke="#000000" cx="270.3" cy="-436.2001" rx="3.2" ry="3.2"/>
</g>
<!-- ts_operation_data -->
<g id="node7" class="node">
<title>ts_operation_data</title>
<g id="a_node7"><a xlink:href="../../tables/ts_operation_data.html" xlink:title="ts_operation_data" target="_top">
<polygon fill="#ffffff" stroke="transparent" points="302.5,-233.2 302.5,-319.2 444.5,-319.2 444.5,-233.2 302.5,-233.2"/>
<polygon fill="#f5f5f5" stroke="transparent" points="302.5,-296.2 302.5,-319.2 444.5,-319.2 444.5,-296.2 302.5,-296.2"/>
<polygon fill="none" stroke="#000000" points="302.5,-296.2 302.5,-319.2 444.5,-319.2 444.5,-296.2 302.5,-296.2"/>
<text text-anchor="start" x="307.5" y="-304.8" font-family="Helvetica,sans-Serif" font-weight="bold" font-size="11.00" fill="#000000">ts_operation_data</text>
<text text-anchor="start" x="410.0219" y="-304.3" font-family="Helvetica,sans-Serif" font-size="11.00" fill="#000000">[table]</text>
<polygon fill="none" stroke="#000000" points="302.5,-274.2 302.5,-296.2 444.5,-296.2 444.5,-274.2 302.5,-274.2"/>
<image xlink:href="../../images/primaryKeys.png" width="11px" height="12px" preserveAspectRatio="xMinYMin meet" x="307.5" y="-291.2"/>
<text text-anchor="start" x="331.5" y="-281.3" font-family="Helvetica,sans-Serif" font-size="11.00" fill="#000000">data_hash</text>
<polygon fill="#ffffff" stroke="transparent" points="302.5,-252.2 302.5,-274.2 444.5,-274.2 444.5,-252.2 302.5,-252.2"/>
<polygon fill="none" stroke="#000000" points="302.5,-252.2 302.5,-274.2 444.5,-274.2 444.5,-252.2 302.5,-252.2"/>
<text text-anchor="start" x="331.5" y="-259.3" font-family="Helvetica,sans-Serif" font-size="11.00" fill="#000000">scope_all</text>
<polygon fill="#ffffff" stroke="transparent" points="302.5,-233.2 302.5,-252.2 371.5,-252.2 371.5,-233.2 302.5,-233.2"/>
<polygon fill="none" stroke="#000000" points="302.5,-233.2 302.5,-252.2 371.5,-252.2 371.5,-233.2 302.5,-233.2"/>
<text text-anchor="start" x="305.5" y="-239.3" font-family="Helvetica,sans-Serif" font-size="11.00" fill="#000000">&lt; 1</text>
<polygon fill="#ffffff" stroke="transparent" points="371.5,-233.2 371.5,-252.2 407.5,-252.2 407.5,-233.2 371.5,-233.2"/>
<polygon fill="none" stroke="#000000" points="371.5,-233.2 371.5,-252.2 407.5,-252.2 407.5,-233.2 371.5,-233.2"/>
<text text-anchor="start" x="398.3862" y="-239.3" font-family="Helvetica,sans-Serif" font-size="11.00" fill="#000000"> &#160;</text>
<polygon fill="#ffffff" stroke="transparent" points="407.5,-233.2 407.5,-252.2 444.5,-252.2 444.5,-233.2 407.5,-233.2"/>
<polygon fill="none" stroke="#000000" points="407.5,-233.2 407.5,-252.2 444.5,-252.2 444.5,-233.2 407.5,-233.2"/>
<text text-anchor="start" x="435.3862" y="-239.3" font-family="Helvetica,sans-Serif" font-size="11.00" fill="#000000"> &#160;</text>
</a>
</g>
</g>
<!-- ts_operation_data&#45;&gt;operation_data -->
<g id="edge11" class="edge">
<title>ts_operation_data:w&#45;&gt;operation_data:e</title>
<path fill="none" stroke="#000000" d="M292.154,-286.3286C234.395,-300.1465 297.4119,-436.2 226,-436.2"/>
<polygon fill="#000000" stroke="#000000" points="301.2709,-281.3104 302.1385,-289.2632 300.548,-289.4367 299.6803,-281.4839 301.2709,-281.3104"/>
<polyline fill="none" stroke="#000000" points="302.5,-285.2 298.5236,-285.6338 "/>
<ellipse fill="none" stroke="#000000" cx="295.3425" cy="-285.9809" rx="3.2" ry="3.2"/>
</g>
<!-- ts_rest_operation_data -->
<g id="node8" class="node">
<title>ts_rest_operation_data</title>
<g id="a_node8"><a xlink:href="../../tables/ts_rest_operation_data.html" xlink:title="ts_rest_operation_data" target="_top">
<polygon fill="#ffffff" stroke="transparent" points="288,-38.2 288,-212.2 459,-212.2 459,-38.2 288,-38.2"/>
<polygon fill="#f5f5f5" stroke="transparent" points="288.5,-189.2 288.5,-212.2 459.5,-212.2 459.5,-189.2 288.5,-189.2"/>
<polygon fill="none" stroke="#000000" points="288.5,-189.2 288.5,-212.2 459.5,-212.2 459.5,-189.2 288.5,-189.2"/>
<text text-anchor="start" x="293.5" y="-197.8" font-family="Helvetica,sans-Serif" font-weight="bold" font-size="11.00" fill="#000000">ts_rest_operation_data</text>
<text text-anchor="start" x="425.0219" y="-197.3" font-family="Helvetica,sans-Serif" font-size="11.00" fill="#000000">[table]</text>
<polygon fill="none" stroke="#000000" points="288.5,-167.2 288.5,-189.2 459.5,-189.2 459.5,-167.2 288.5,-167.2"/>
<image xlink:href="../../images/primaryKeys.png" width="11px" height="12px" preserveAspectRatio="xMinYMin meet" x="293.5" y="-184.2"/>
<text text-anchor="start" x="317.5" y="-174.3" font-family="Helvetica,sans-Serif" font-size="11.00" fill="#000000">data_hash</text>
<polygon fill="#ffffff" stroke="transparent" points="288.5,-145.2 288.5,-167.2 459.5,-167.2 459.5,-145.2 288.5,-145.2"/>
<polygon fill="none" stroke="#000000" points="288.5,-145.2 288.5,-167.2 459.5,-167.2 459.5,-145.2 288.5,-145.2"/>
<text text-anchor="start" x="317.5" y="-152.3" font-family="Helvetica,sans-Serif" font-size="11.00" fill="#000000">scope_request</text>
<polygon fill="#ffffff" stroke="transparent" points="288.5,-123.2 288.5,-145.2 459.5,-145.2 459.5,-123.2 288.5,-123.2"/>
<polygon fill="none" stroke="#000000" points="288.5,-123.2 288.5,-145.2 459.5,-145.2 459.5,-123.2 288.5,-123.2"/>
<text text-anchor="start" x="317.5" y="-130.3" font-family="Helvetica,sans-Serif" font-size="11.00" fill="#000000">scope_response</text>
<polygon fill="#ffffff" stroke="transparent" points="288.5,-101.2 288.5,-123.2 459.5,-123.2 459.5,-101.2 288.5,-101.2"/>
<polygon fill="none" stroke="#000000" points="288.5,-101.2 288.5,-123.2 459.5,-123.2 459.5,-101.2 288.5,-101.2"/>
<text text-anchor="start" x="317.5" y="-108.3" font-family="Helvetica,sans-Serif" font-size="11.00" fill="#000000">scope_annotation</text>
<polygon fill="#ffffff" stroke="transparent" points="288.5,-79.2 288.5,-101.2 459.5,-101.2 459.5,-79.2 288.5,-79.2"/>
<polygon fill="none" stroke="#000000" points="288.5,-79.2 288.5,-101.2 459.5,-101.2 459.5,-79.2 288.5,-79.2"/>
<text text-anchor="start" x="317.5" y="-86.3" font-family="Helvetica,sans-Serif" font-size="11.00" fill="#000000">scope_properties</text>
<polygon fill="#ffffff" stroke="transparent" points="288.5,-57.2 288.5,-79.2 459.5,-79.2 459.5,-57.2 288.5,-57.2"/>
<polygon fill="none" stroke="#000000" points="288.5,-57.2 288.5,-79.2 459.5,-79.2 459.5,-57.2 288.5,-57.2"/>
<text text-anchor="start" x="317.5" y="-64.3" font-family="Helvetica,sans-Serif" font-size="11.00" fill="#000000">scope_examples</text>
<polygon fill="#ffffff" stroke="transparent" points="288.5,-38.2 288.5,-57.2 372.5,-57.2 372.5,-38.2 288.5,-38.2"/>
<polygon fill="none" stroke="#000000" points="288.5,-38.2 288.5,-57.2 372.5,-57.2 372.5,-38.2 288.5,-38.2"/>
<text text-anchor="start" x="291.5" y="-44.3" font-family="Helvetica,sans-Serif" font-size="11.00" fill="#000000">&lt; 1</text>
<polygon fill="#ffffff" stroke="transparent" points="372.5,-38.2 372.5,-57.2 415.5,-57.2 415.5,-38.2 372.5,-38.2"/>
<polygon fill="none" stroke="#000000" points="372.5,-38.2 372.5,-57.2 415.5,-57.2 415.5,-38.2 372.5,-38.2"/>
<text text-anchor="start" x="406.3862" y="-44.3" font-family="Helvetica,sans-Serif" font-size="11.00" fill="#000000"> &#160;</text>
<polygon fill="#ffffff" stroke="transparent" points="415.5,-38.2 415.5,-57.2 459.5,-57.2 459.5,-38.2 415.5,-38.2"/>
<polygon fill="none" stroke="#000000" points="415.5,-38.2 415.5,-57.2 459.5,-57.2 459.5,-38.2 415.5,-38.2"/>
<text text-anchor="start" x="450.3862" y="-44.3" font-family="Helvetica,sans-Serif" font-size="11.00" fill="#000000"> &#160;</text>
</a>
</g>
</g>
<!-- ts_rest_operation_data&#45;&gt;operation_data -->
<g id="edge12" class="edge">
<title>ts_rest_operation_data:w&#45;&gt;operation_data:e</title>
<path fill="none" stroke="#000000" d="M278.4588,-181.2772C236.185,-210.386 281.1894,-436.2 226,-436.2"/>
<polygon fill="#000000" stroke="#000000" points="286.5631,-174.61 288.9072,-182.2589 287.3774,-182.7277 285.0333,-175.0788 286.5631,-174.61"/>
<polyline fill="none" stroke="#000000" points="288.5,-178.2 284.6756,-179.3721 "/>
<ellipse fill="none" stroke="#000000" cx="281.616" cy="-180.3097" rx="3.2" ry="3.2"/>
</g>
</g>
</svg>
