<?xml version="1.0" encoding="UTF-8" standalone="no"?>
<!DOCTYPE svg PUBLIC "-//W3C//DTD SVG 1.1//EN"
 "http://www.w3.org/Graphics/SVG/1.1/DTD/svg11.dtd">
<!-- Generated by graphviz version 2.40.1 (20161225.0304)
 -->
<!-- Title: oneDegreeRelationshipsDiagram Pages: 1 -->
<svg width="501pt" height="184pt"
 viewBox="0.00 0.00 501.00 184.20" xmlns="http://www.w3.org/2000/svg" xmlns:xlink="http://www.w3.org/1999/xlink">
<g id="graph0" class="graph" transform="scale(1 1) rotate(0) translate(4 180.2)">
<title>oneDegreeRelationshipsDiagram</title>
<polygon fill="#ffffff" stroke="transparent" points="-4,4 -4,-180.2 497,-180.2 497,4 -4,4"/>
<text text-anchor="middle" x="72.4936" y="-7.3" font-family="Helvetica,sans-Serif" font-size="11.00" fill="#000000">Generated by SchemaSpy</text>
<!-- operation_open_count -->
<g id="node1" class="node">
<title>operation_open_count</title>
<g id="a_node1"><a xlink:href="../../tables/operation_open_count.html" xlink:title="operation_open_count" target="_top">
<polygon fill="#ffffff" stroke="transparent" points="222,-38.2 222,-172.2 485,-172.2 485,-38.2 222,-38.2"/>
<polygon fill="#f5f5f5" stroke="transparent" points="224.5,-147.2 224.5,-170.2 483.5,-170.2 483.5,-147.2 224.5,-147.2"/>
<polygon fill="none" stroke="#000000" points="224.5,-147.2 224.5,-170.2 483.5,-170.2 483.5,-147.2 224.5,-147.2"/>
<text text-anchor="start" x="229.5" y="-155.8" font-family="Helvetica,sans-Serif" font-weight="bold" font-size="11.00" fill="#000000">operation_open_count</text>
<text text-anchor="start" x="448.5437" y="-155.3" font-family="Helvetica,sans-Serif" font-size="11.00" fill="#000000">[table]</text>
<polygon fill="none" stroke="#000000" points="224.5,-125.2 224.5,-147.2 374.5,-147.2 374.5,-125.2 224.5,-125.2"/>
<image xlink:href="../../images/primaryKeys.png" width="11px" height="12px" preserveAspectRatio="xMinYMin meet" x="229.5" y="-142.2"/>
<text text-anchor="start" x="244.5" y="-132.3" font-family="Helvetica,sans-Serif" font-size="11.00" fill="#000000">package_id</text>
<polygon fill="none" stroke="#000000" points="374.5,-125.2 374.5,-147.2 483.5,-147.2 483.5,-125.2 374.5,-125.2"/>
<text text-anchor="start" x="377.0344" y="-132.9" font-family="Helvetica,sans-Serif" font-size="11.00" fill="#000000">varchar[2147483647]</text>
<polygon fill="none" stroke="#000000" points="224.5,-103.2 224.5,-125.2 374.5,-125.2 374.5,-103.2 224.5,-103.2"/>
<image xlink:href="../../images/primaryKeys.png" width="11px" height="12px" preserveAspectRatio="xMinYMin meet" x="229.5" y="-120.2"/>
<text text-anchor="start" x="244.5" y="-110.3" font-family="Helvetica,sans-Serif" font-size="11.00" fill="#000000">version</text>
<polygon fill="none" stroke="#000000" points="374.5,-103.2 374.5,-125.2 483.5,-125.2 483.5,-103.2 374.5,-103.2"/>
<text text-anchor="start" x="377.0344" y="-110.9" font-family="Helvetica,sans-Serif" font-size="11.00" fill="#000000">varchar[2147483647]</text>
<polygon fill="none" stroke="#000000" points="224.5,-81.2 224.5,-103.2 374.5,-103.2 374.5,-81.2 224.5,-81.2"/>
<image xlink:href="../../images/primaryKeys.png" width="11px" height="12px" preserveAspectRatio="xMinYMin meet" x="229.5" y="-98.2"/>
<text text-anchor="start" x="244.5" y="-88.3" font-family="Helvetica,sans-Serif" font-size="11.00" fill="#000000">operation_id</text>
<polygon fill="none" stroke="#000000" points="374.5,-81.2 374.5,-103.2 483.5,-103.2 483.5,-81.2 374.5,-81.2"/>
<text text-anchor="start" x="377.0344" y="-88.9" font-family="Helvetica,sans-Serif" font-size="11.00" fill="#000000">varchar[2147483647]</text>
<polygon fill="none" stroke="#000000" points="224.5,-59.2 224.5,-81.2 374.5,-81.2 374.5,-59.2 224.5,-59.2"/>
<text text-anchor="start" x="244.5" y="-66.3" font-family="Helvetica,sans-Serif" font-size="11.00" fill="#000000">open_count</text>
<polygon fill="none" stroke="#000000" points="374.5,-59.2 374.5,-81.2 483.5,-81.2 483.5,-59.2 374.5,-59.2"/>
<text text-anchor="start" x="377.5" y="-66.9" font-family="Helvetica,sans-Serif" font-size="11.00" fill="#000000">int8[19]</text>
<polygon fill="#ffffff" stroke="transparent" points="224.5,-40.2 224.5,-59.2 303.5,-59.2 303.5,-40.2 224.5,-40.2"/>
<polygon fill="none" stroke="#000000" points="224.5,-40.2 224.5,-59.2 303.5,-59.2 303.5,-40.2 224.5,-40.2"/>
<text text-anchor="start" x="227.5" y="-46.3" font-family="Helvetica,sans-Serif" font-size="11.00" fill="#000000">&lt; 1</text>
<polygon fill="#ffffff" stroke="transparent" points="303.5,-40.2 303.5,-59.2 374.5,-59.2 374.5,-40.2 303.5,-40.2"/>
<polygon fill="none" stroke="#000000" points="303.5,-40.2 303.5,-59.2 374.5,-59.2 374.5,-40.2 303.5,-40.2"/>
<text text-anchor="start" x="365.3862" y="-46.3" font-family="Helvetica,sans-Serif" font-size="11.00" fill="#000000"> &#160;</text>
<polygon fill="#ffffff" stroke="transparent" points="374.5,-40.2 374.5,-59.2 483.5,-59.2 483.5,-40.2 374.5,-40.2"/>
<polygon fill="none" stroke="#000000" points="374.5,-40.2 374.5,-59.2 483.5,-59.2 483.5,-40.2 374.5,-40.2"/>
<text text-anchor="start" x="464.9053" y="-46.3" font-family="Helvetica,sans-Serif" font-size="11.00" fill="#000000">0 &gt;</text>
<polygon fill="none" stroke="#000000" stroke-width="2" points="223,-39.2 223,-171.2 484,-171.2 484,-39.2 223,-39.2"/>
</a>
</g>
</g>
<!-- package_group -->
<g id="node2" class="node">
<title>package_group</title>
<g id="a_node2"><a xlink:href="../../tables/package_group.html" xlink:title="package_group" target="_top">
<polygon fill="#ffffff" stroke="transparent" points="8,-65.7 8,-170.7 173,-170.7 173,-65.7 8,-65.7"/>
<polygon fill="#f5f5f5" stroke="transparent" points="8.5,-147.2 8.5,-170.2 173.5,-170.2 173.5,-147.2 8.5,-147.2"/>
<polygon fill="none" stroke="#000000" points="8.5,-147.2 8.5,-170.2 173.5,-170.2 173.5,-147.2 8.5,-147.2"/>
<text text-anchor="start" x="13.5" y="-155.8" font-family="Helvetica,sans-Serif" font-weight="bold" font-size="11.00" fill="#000000">package_group</text>
<text text-anchor="start" x="138.5437" y="-155.3" font-family="Helvetica,sans-Serif" font-size="11.00" fill="#000000">[table]</text>
<polygon fill="none" stroke="#000000" points="8.5,-125.2 8.5,-147.2 173.5,-147.2 173.5,-125.2 8.5,-125.2"/>
<image xlink:href="../../images/primaryKeys.png" width="11px" height="12px" preserveAspectRatio="xMinYMin meet" x="13.5" y="-142.2"/>
<text text-anchor="start" x="28.5" y="-132.3" font-family="Helvetica,sans-Serif" font-size="11.00" fill="#000000">id</text>
<polygon fill="none" stroke="#000000" points="8.5,-103.2 8.5,-125.2 173.5,-125.2 173.5,-103.2 8.5,-103.2"/>
<image xlink:href="../../images/foreignKeys.png" width="11px" height="12px" preserveAspectRatio="xMinYMin meet" x="13.5" y="-120.2"/>
<text text-anchor="start" x="28.5" y="-110.3" font-family="Helvetica,sans-Serif" font-size="11.00" fill="#000000">parent_id</text>
<polygon fill="none" stroke="#000000" points="8.5,-84.2 8.5,-103.2 173.5,-103.2 173.5,-84.2 8.5,-84.2"/>
<text text-anchor="start" x="11.5" y="-90.3" font-family="Helvetica,sans-Serif" font-size="11.00" fill="#000000">...</text>
<polygon fill="#ffffff" stroke="transparent" points="8.5,-65.2 8.5,-84.2 81.5,-84.2 81.5,-65.2 8.5,-65.2"/>
<polygon fill="none" stroke="#000000" points="8.5,-65.2 8.5,-84.2 81.5,-84.2 81.5,-65.2 8.5,-65.2"/>
<text text-anchor="start" x="11.5" y="-71.3" font-family="Helvetica,sans-Serif" font-size="11.00" fill="#000000">&lt; 1</text>
<polygon fill="#ffffff" stroke="transparent" points="81.5,-65.2 81.5,-84.2 119.5,-84.2 119.5,-65.2 81.5,-65.2"/>
<polygon fill="none" stroke="#000000" points="81.5,-65.2 81.5,-84.2 119.5,-84.2 119.5,-65.2 81.5,-65.2"/>
<text text-anchor="start" x="110.3862" y="-71.3" font-family="Helvetica,sans-Serif" font-size="11.00" fill="#000000"> &#160;</text>
<polygon fill="#ffffff" stroke="transparent" points="119.5,-65.2 119.5,-84.2 173.5,-84.2 173.5,-65.2 119.5,-65.2"/>
<polygon fill="none" stroke="#000000" points="119.5,-65.2 119.5,-84.2 173.5,-84.2 173.5,-65.2 119.5,-65.2"/>
<text text-anchor="start" x="148.7904" y="-71.3" font-family="Helvetica,sans-Serif" font-size="11.00" fill="#000000">14 &gt;</text>
</a>
</g>
</g>
<!-- operation_open_count&#45;&gt;package_group -->
<g id="edge1" class="edge">
<title>operation_open_count:w&#45;&gt;package_group:e</title>
<path fill="none" stroke="#000000" d="M209.776,-136.2C197.7815,-136.2 190.3229,-136.2 173.5,-136.2"/>
<polygon fill="#000000" stroke="#000000" points="216.5,-136.2001 224.5,-139.8 220.5,-136.2 224.5,-136.2 224.5,-136.2 224.5,-136.2 220.5,-136.2 224.5,-132.6 216.5,-136.2001 216.5,-136.2001"/>
<ellipse fill="none" stroke="#000000" cx="213.3" cy="-136.2001" rx="3.2" ry="3.2"/>
</g>
</g>
</svg>
