<?xml version="1.0" encoding="UTF-8" standalone="no"?>
<!DOCTYPE svg PUBLIC "-//W3C//DTD SVG 1.1//EN"
 "http://www.w3.org/Graphics/SVG/1.1/DTD/svg11.dtd">
<!-- Generated by graphviz version 2.40.1 (20161225.0304)
 -->
<!-- Title: oneDegreeRelationshipsDiagram Pages: 1 -->
<svg width="486pt" height="804pt"
 viewBox="0.00 0.00 486.00 804.20" xmlns="http://www.w3.org/2000/svg" xmlns:xlink="http://www.w3.org/1999/xlink">
<g id="graph0" class="graph" transform="scale(1 1) rotate(0) translate(4 800.2)">
<title>oneDegreeRelationshipsDiagram</title>
<polygon fill="#ffffff" stroke="transparent" points="-4,4 -4,-800.2 482,-800.2 482,4 -4,4"/>
<text text-anchor="middle" x="72.4936" y="-7.3" font-family="Helvetica,sans-Serif" font-size="11.00" fill="#000000">Generated by SchemaSpy</text>
<!-- fts_operation_data -->
<g id="node1" class="node">
<title>fts_operation_data</title>
<g id="a_node1"><a xlink:href="../../tables/fts_operation_data.html" xlink:title="fts_operation_data" target="_top">
<polygon fill="#ffffff" stroke="transparent" points="300.5,-706.2 300.5,-792.2 446.5,-792.2 446.5,-706.2 300.5,-706.2"/>
<polygon fill="#f5f5f5" stroke="transparent" points="300.5,-769.2 300.5,-792.2 446.5,-792.2 446.5,-769.2 300.5,-769.2"/>
<polygon fill="none" stroke="#000000" points="300.5,-769.2 300.5,-792.2 446.5,-792.2 446.5,-769.2 300.5,-769.2"/>
<text text-anchor="start" x="305.5" y="-777.8" font-family="Helvetica,sans-Serif" font-weight="bold" font-size="11.00" fill="#000000">fts_operation_data</text>
<text text-anchor="start" x="412.0219" y="-777.3" font-family="Helvetica,sans-Serif" font-size="11.00" fill="#000000">[table]</text>
<polygon fill="none" stroke="#000000" points="300.5,-747.2 300.5,-769.2 446.5,-769.2 446.5,-747.2 300.5,-747.2"/>
<image xlink:href="../../images/primaryKeys.png" width="11px" height="12px" preserveAspectRatio="xMinYMin meet" x="305.5" y="-764.2"/>
<text text-anchor="start" x="329.5" y="-754.3" font-family="Helvetica,sans-Serif" font-size="11.00" fill="#000000">data_hash</text>
<polygon fill="#ffffff" stroke="transparent" points="300.5,-725.2 300.5,-747.2 446.5,-747.2 446.5,-725.2 300.5,-725.2"/>
<polygon fill="none" stroke="#000000" points="300.5,-725.2 300.5,-747.2 446.5,-747.2 446.5,-725.2 300.5,-725.2"/>
<text text-anchor="start" x="329.5" y="-732.3" font-family="Helvetica,sans-Serif" font-size="11.00" fill="#000000">data_vector</text>
<polygon fill="#ffffff" stroke="transparent" points="300.5,-706.2 300.5,-725.2 371.5,-725.2 371.5,-706.2 300.5,-706.2"/>
<polygon fill="none" stroke="#000000" points="300.5,-706.2 300.5,-725.2 371.5,-725.2 371.5,-706.2 300.5,-706.2"/>
<text text-anchor="start" x="303.5" y="-712.3" font-family="Helvetica,sans-Serif" font-size="11.00" fill="#000000">&lt; 1</text>
<polygon fill="#ffffff" stroke="transparent" points="371.5,-706.2 371.5,-725.2 408.5,-725.2 408.5,-706.2 371.5,-706.2"/>
<polygon fill="none" stroke="#000000" points="371.5,-706.2 371.5,-725.2 408.5,-725.2 408.5,-706.2 371.5,-706.2"/>
<text text-anchor="start" x="399.3862" y="-712.3" font-family="Helvetica,sans-Serif" font-size="11.00" fill="#000000"> &#160;</text>
<polygon fill="#ffffff" stroke="transparent" points="408.5,-706.2 408.5,-725.2 446.5,-725.2 446.5,-706.2 408.5,-706.2"/>
<polygon fill="none" stroke="#000000" points="408.5,-706.2 408.5,-725.2 446.5,-725.2 446.5,-706.2 408.5,-706.2"/>
<text text-anchor="start" x="437.3862" y="-712.3" font-family="Helvetica,sans-Serif" font-size="11.00" fill="#000000"> &#160;</text>
</a>
</g>
</g>
<!-- operation_data -->
<g id="node2" class="node">
<title>operation_data</title>
<g id="a_node2"><a xlink:href="../../tables/operation_data.html" xlink:title="operation_data" target="_top">
<polygon fill="#ffffff" stroke="transparent" points="8,-360.2 8,-472.2 228,-472.2 228,-360.2 8,-360.2"/>
<polygon fill="#f5f5f5" stroke="transparent" points="10,-447.2 10,-470.2 226,-470.2 226,-447.2 10,-447.2"/>
<polygon fill="none" stroke="#000000" points="10,-447.2 10,-470.2 226,-470.2 226,-447.2 10,-447.2"/>
<text text-anchor="start" x="15" y="-455.8" font-family="Helvetica,sans-Serif" font-weight="bold" font-size="11.00" fill="#000000">operation_data</text>
<text text-anchor="start" x="191.0437" y="-455.3" font-family="Helvetica,sans-Serif" font-size="11.00" fill="#000000">[table]</text>
<polygon fill="none" stroke="#000000" points="10,-425.2 10,-447.2 117,-447.2 117,-425.2 10,-425.2"/>
<image xlink:href="../../images/primaryKeys.png" width="11px" height="12px" preserveAspectRatio="xMinYMin meet" x="15" y="-442.2"/>
<text text-anchor="start" x="30" y="-432.3" font-family="Helvetica,sans-Serif" font-size="11.00" fill="#000000">data_hash</text>
<polygon fill="none" stroke="#000000" points="117,-425.2 117,-447.2 226,-447.2 226,-425.2 117,-425.2"/>
<text text-anchor="start" x="119.5344" y="-432.9" font-family="Helvetica,sans-Serif" font-size="11.00" fill="#000000">varchar[2147483647]</text>
<polygon fill="none" stroke="#000000" points="10,-403.2 10,-425.2 117,-425.2 117,-403.2 10,-403.2"/>
<text text-anchor="start" x="30" y="-410.3" font-family="Helvetica,sans-Serif" font-size="11.00" fill="#000000">data</text>
<polygon fill="none" stroke="#000000" points="117,-403.2 117,-425.2 226,-425.2 226,-403.2 117,-403.2"/>
<text text-anchor="start" x="120" y="-410.9" font-family="Helvetica,sans-Serif" font-size="11.00" fill="#000000">bytea[2147483647]</text>
<polygon fill="none" stroke="#000000" points="10,-381.2 10,-403.2 117,-403.2 117,-381.2 10,-381.2"/>
<text text-anchor="start" x="30" y="-388.3" font-family="Helvetica,sans-Serif" font-size="11.00" fill="#000000">search_scope</text>
<polygon fill="none" stroke="#000000" points="117,-381.2 117,-403.2 226,-403.2 226,-381.2 117,-381.2"/>
<text text-anchor="start" x="120" y="-388.9" font-family="Helvetica,sans-Serif" font-size="11.00" fill="#000000">jsonb[2147483647]</text>
<polygon fill="#ffffff" stroke="transparent" points="10,-362.2 10,-381.2 68,-381.2 68,-362.2 10,-362.2"/>
<polygon fill="none" stroke="#000000" points="10,-362.2 10,-381.2 68,-381.2 68,-362.2 10,-362.2"/>
<text text-anchor="start" x="13" y="-368.3" font-family="Helvetica,sans-Serif" font-size="11.00" fill="#000000">&lt; 0</text>
<polygon fill="#ffffff" stroke="transparent" points="68,-362.2 68,-381.2 117,-381.2 117,-362.2 68,-362.2"/>
<polygon fill="none" stroke="#000000" points="68,-362.2 68,-381.2 117,-381.2 117,-362.2 68,-362.2"/>
<text text-anchor="start" x="107.8862" y="-368.3" font-family="Helvetica,sans-Serif" font-size="11.00" fill="#000000"> &#160;</text>
<polygon fill="#ffffff" stroke="transparent" points="117,-362.2 117,-381.2 226,-381.2 226,-362.2 117,-362.2"/>
<polygon fill="none" stroke="#000000" points="117,-362.2 117,-381.2 226,-381.2 226,-362.2 117,-362.2"/>
<text text-anchor="start" x="207.4053" y="-368.3" font-family="Helvetica,sans-Serif" font-size="11.00" fill="#000000">5 &gt;</text>
<polygon fill="none" stroke="#000000" stroke-width="2" points="9,-361.2 9,-471.2 227,-471.2 227,-361.2 9,-361.2"/>
</a>
</g>
</g>
<!-- fts_operation_data&#45;&gt;operation_data -->
<g id="edge1" class="edge">
<title>fts_operation_data:w&#45;&gt;operation_data:e</title>
<path fill="none" stroke="#000000" d="M290.0546,-755.6081C234.2837,-725.1345 295.5727,-436.2 226,-436.2"/>
<polygon fill="#000000" stroke="#000000" points="300.6869,-754.1251 298.7602,-761.8896 297.2073,-761.5042 299.134,-753.7397 300.6869,-754.1251"/>
<polyline fill="none" stroke="#000000" points="300.5,-758.2 296.6177,-757.2366 "/>
<ellipse fill="none" stroke="#000000" cx="293.5119" cy="-756.4659" rx="3.2" ry="3.2"/>
</g>
<!-- operation -->
<g id="node3" class="node">
<title>operation</title>
<g id="a_node3"><a xlink:href="../../tables/operation.html" xlink:title="operation" target="_top">
<polygon fill="#ffffff" stroke="transparent" points="286,-491.7 286,-684.7 461,-684.7 461,-491.7 286,-491.7"/>
<polygon fill="#f5f5f5" stroke="transparent" points="286.5,-661.2 286.5,-684.2 461.5,-684.2 461.5,-661.2 286.5,-661.2"/>
<polygon fill="none" stroke="#000000" points="286.5,-661.2 286.5,-684.2 461.5,-684.2 461.5,-661.2 286.5,-661.2"/>
<text text-anchor="start" x="291.5" y="-669.8" font-family="Helvetica,sans-Serif" font-weight="bold" font-size="11.00" fill="#000000">operation</text>
<text text-anchor="start" x="426.5437" y="-669.3" font-family="Helvetica,sans-Serif" font-size="11.00" fill="#000000">[table]</text>
<polygon fill="none" stroke="#000000" points="286.5,-639.2 286.5,-661.2 461.5,-661.2 461.5,-639.2 286.5,-639.2"/>
<image xlink:href="../../images/primaryKeys.png" width="11px" height="12px" preserveAspectRatio="xMinYMin meet" x="291.5" y="-656.2"/>
<text text-anchor="start" x="306.5" y="-646.3" font-family="Helvetica,sans-Serif" font-size="11.00" fill="#000000">package_id</text>
<polygon fill="none" stroke="#000000" points="286.5,-617.2 286.5,-639.2 461.5,-639.2 461.5,-617.2 286.5,-617.2"/>
<image xlink:href="../../images/primaryKeys.png" width="11px" height="12px" preserveAspectRatio="xMinYMin meet" x="291.5" y="-634.2"/>
<text text-anchor="start" x="306.5" y="-624.3" font-family="Helvetica,sans-Serif" font-size="11.00" fill="#000000">version</text>
<polygon fill="none" stroke="#000000" points="286.5,-595.2 286.5,-617.2 461.5,-617.2 461.5,-595.2 286.5,-595.2"/>
<image xlink:href="../../images/primaryKeys.png" width="11px" height="12px" preserveAspectRatio="xMinYMin meet" x="291.5" y="-612.2"/>
<text text-anchor="start" x="306.5" y="-602.3" font-family="Helvetica,sans-Serif" font-size="11.00" fill="#000000">revision</text>
<polygon fill="none" stroke="#000000" points="286.5,-573.2 286.5,-595.2 461.5,-595.2 461.5,-573.2 286.5,-573.2"/>
<image xlink:href="../../images/primaryKeys.png" width="11px" height="12px" preserveAspectRatio="xMinYMin meet" x="291.5" y="-590.2"/>
<text text-anchor="start" x="306.5" y="-580.3" font-family="Helvetica,sans-Serif" font-size="11.00" fill="#000000">operation_id</text>
<polygon fill="#ffffff" stroke="transparent" points="286.5,-551.2 286.5,-573.2 461.5,-573.2 461.5,-551.2 286.5,-551.2"/>
<polygon fill="none" stroke="#000000" points="286.5,-551.2 286.5,-573.2 461.5,-573.2 461.5,-551.2 286.5,-551.2"/>
<image xlink:href="../../images/foreignKeys.png" width="11px" height="12px" preserveAspectRatio="xMinYMin meet" x="291.5" y="-568.2"/>
<text text-anchor="start" x="306.5" y="-558.3" font-family="Helvetica,sans-Serif" font-size="11.00" fill="#000000">data_hash</text>
<polygon fill="#ffffff" stroke="transparent" points="286.5,-529.2 286.5,-551.2 461.5,-551.2 461.5,-529.2 286.5,-529.2"/>
<polygon fill="none" stroke="#000000" points="286.5,-529.2 286.5,-551.2 461.5,-551.2 461.5,-529.2 286.5,-529.2"/>
<text text-anchor="start" x="306.5" y="-536.3" font-family="Helvetica,sans-Serif" font-size="11.00" fill="#000000">type</text>
<polygon fill="none" stroke="#000000" points="286.5,-510.2 286.5,-529.2 461.5,-529.2 461.5,-510.2 286.5,-510.2"/>
<text text-anchor="start" x="289.5" y="-516.3" font-family="Helvetica,sans-Serif" font-size="11.00" fill="#000000">...</text>
<polygon fill="#ffffff" stroke="transparent" points="286.5,-491.2 286.5,-510.2 367.5,-510.2 367.5,-491.2 286.5,-491.2"/>
<polygon fill="none" stroke="#000000" points="286.5,-491.2 286.5,-510.2 367.5,-510.2 367.5,-491.2 286.5,-491.2"/>
<text text-anchor="start" x="289.5" y="-497.3" font-family="Helvetica,sans-Serif" font-size="11.00" fill="#000000">&lt; 4</text>
<polygon fill="#ffffff" stroke="transparent" points="367.5,-491.2 367.5,-510.2 409.5,-510.2 409.5,-491.2 367.5,-491.2"/>
<polygon fill="none" stroke="#000000" points="367.5,-491.2 367.5,-510.2 409.5,-510.2 409.5,-491.2 367.5,-491.2"/>
<text text-anchor="start" x="400.3862" y="-497.3" font-family="Helvetica,sans-Serif" font-size="11.00" fill="#000000"> &#160;</text>
<polygon fill="#ffffff" stroke="transparent" points="409.5,-491.2 409.5,-510.2 461.5,-510.2 461.5,-491.2 409.5,-491.2"/>
<polygon fill="none" stroke="#000000" points="409.5,-491.2 409.5,-510.2 461.5,-510.2 461.5,-491.2 409.5,-491.2"/>
<text text-anchor="start" x="442.9053" y="-497.3" font-family="Helvetica,sans-Serif" font-size="11.00" fill="#000000">4 &gt;</text>
</a>
</g>
</g>
<!-- operation&#45;&gt;operation_data -->
<g id="edge2" class="edge">
<title>operation:w&#45;&gt;operation_data:e</title>
<path fill="none" stroke="#000000" d="M272.1397,-559.0854C235.2244,-539.6824 282.2971,-436.2 226,-436.2"/>
<polygon fill="#000000" stroke="#000000" points="278.6818,-560.5043 285.7369,-565.7182 282.5909,-561.3521 286.5,-562.2 286.5,-562.2 286.5,-562.2 282.5909,-561.3521 287.2631,-558.6818 278.6818,-560.5043 278.6818,-560.5043"/>
<ellipse fill="none" stroke="#000000" cx="275.5545" cy="-559.826" rx="3.2" ry="3.2"/>
</g>
<!-- ts_graphql_operation_data -->
<g id="node4" class="node">
<title>ts_graphql_operation_data</title>
<g id="a_node4"><a xlink:href="../../tables/ts_graphql_operation_data.html" xlink:title="ts_graphql_operation_data" target="_top">
<polygon fill="#ffffff" stroke="transparent" points="277,-340.2 277,-470.2 470,-470.2 470,-340.2 277,-340.2"/>
<polygon fill="#f5f5f5" stroke="transparent" points="277.5,-447.2 277.5,-470.2 470.5,-470.2 470.5,-447.2 277.5,-447.2"/>
<polygon fill="none" stroke="#000000" points="277.5,-447.2 277.5,-470.2 470.5,-470.2 470.5,-447.2 277.5,-447.2"/>
<text text-anchor="start" x="282.5" y="-455.8" font-family="Helvetica,sans-Serif" font-weight="bold" font-size="11.00" fill="#000000">ts_graphql_operation_data</text>
<text text-anchor="start" x="436.0219" y="-455.3" font-family="Helvetica,sans-Serif" font-size="11.00" fill="#000000">[table]</text>
<polygon fill="none" stroke="#000000" points="277.5,-425.2 277.5,-447.2 470.5,-447.2 470.5,-425.2 277.5,-425.2"/>
<image xlink:href="../../images/primaryKeys.png" width="11px" height="12px" preserveAspectRatio="xMinYMin meet" x="282.5" y="-442.2"/>
<text text-anchor="start" x="306.5" y="-432.3" font-family="Helvetica,sans-Serif" font-size="11.00" fill="#000000">data_hash</text>
<polygon fill="#ffffff" stroke="transparent" points="277.5,-403.2 277.5,-425.2 470.5,-425.2 470.5,-403.2 277.5,-403.2"/>
<polygon fill="none" stroke="#000000" points="277.5,-403.2 277.5,-425.2 470.5,-425.2 470.5,-403.2 277.5,-403.2"/>
<text text-anchor="start" x="306.5" y="-410.3" font-family="Helvetica,sans-Serif" font-size="11.00" fill="#000000">scope_argument</text>
<polygon fill="#ffffff" stroke="transparent" points="277.5,-381.2 277.5,-403.2 470.5,-403.2 470.5,-381.2 277.5,-381.2"/>
<polygon fill="none" stroke="#000000" points="277.5,-381.2 277.5,-403.2 470.5,-403.2 470.5,-381.2 277.5,-381.2"/>
<text text-anchor="start" x="306.5" y="-388.3" font-family="Helvetica,sans-Serif" font-size="11.00" fill="#000000">scope_property</text>
<polygon fill="#ffffff" stroke="transparent" points="277.5,-359.2 277.5,-381.2 470.5,-381.2 470.5,-359.2 277.5,-359.2"/>
<polygon fill="none" stroke="#000000" points="277.5,-359.2 277.5,-381.2 470.5,-381.2 470.5,-359.2 277.5,-359.2"/>
<text text-anchor="start" x="306.5" y="-366.3" font-family="Helvetica,sans-Serif" font-size="11.00" fill="#000000">scope_annotation</text>
<polygon fill="#ffffff" stroke="transparent" points="277.5,-340.2 277.5,-359.2 372.5,-359.2 372.5,-340.2 277.5,-340.2"/>
<polygon fill="none" stroke="#000000" points="277.5,-340.2 277.5,-359.2 372.5,-359.2 372.5,-340.2 277.5,-340.2"/>
<text text-anchor="start" x="280.5" y="-346.3" font-family="Helvetica,sans-Serif" font-size="11.00" fill="#000000">&lt; 1</text>
<polygon fill="#ffffff" stroke="transparent" points="372.5,-340.2 372.5,-359.2 421.5,-359.2 421.5,-340.2 372.5,-340.2"/>
<polygon fill="none" stroke="#000000" points="372.5,-340.2 372.5,-359.2 421.5,-359.2 421.5,-340.2 372.5,-340.2"/>
<text text-anchor="start" x="412.3862" y="-346.3" font-family="Helvetica,sans-Serif" font-size="11.00" fill="#000000"> &#160;</text>
<polygon fill="#ffffff" stroke="transparent" points="421.5,-340.2 421.5,-359.2 470.5,-359.2 470.5,-340.2 421.5,-340.2"/>
<polygon fill="none" stroke="#000000" points="421.5,-340.2 421.5,-359.2 470.5,-359.2 470.5,-340.2 421.5,-340.2"/>
<text text-anchor="start" x="461.3862" y="-346.3" font-family="Helvetica,sans-Serif" font-size="11.00" fill="#000000"> &#160;</text>
</a>
</g>
</g>
<!-- ts_graphql_operation_data&#45;&gt;operation_data -->
<g id="edge3" class="edge">
<title>ts_graphql_operation_data:w&#45;&gt;operation_data:e</title>
<path fill="none" stroke="#000000" d="M267.045,-436.2C252.137,-436.2 244.9549,-436.2 226,-436.2"/>
<polygon fill="#000000" stroke="#000000" points="276.7,-432.2 276.7,-440.2 275.1,-440.2 275.1,-432.2 276.7,-432.2"/>
<polyline fill="none" stroke="#000000" points="277.5,-436.2 273.5,-436.2 "/>
<ellipse fill="none" stroke="#000000" cx="270.3" cy="-436.2001" rx="3.2" ry="3.2"/>
</g>
<!-- ts_operation_data -->
<g id="node5" class="node">
<title>ts_operation_data</title>
<g id="a_node5"><a xlink:href="../../tables/ts_operation_data.html" xlink:title="ts_operation_data" target="_top">
<polygon fill="#ffffff" stroke="transparent" points="302.5,-233.2 302.5,-319.2 444.5,-319.2 444.5,-233.2 302.5,-233.2"/>
<polygon fill="#f5f5f5" stroke="transparent" points="302.5,-296.2 302.5,-319.2 444.5,-319.2 444.5,-296.2 302.5,-296.2"/>
<polygon fill="none" stroke="#000000" points="302.5,-296.2 302.5,-319.2 444.5,-319.2 444.5,-296.2 302.5,-296.2"/>
<text text-anchor="start" x="307.5" y="-304.8" font-family="Helvetica,sans-Serif" font-weight="bold" font-size="11.00" fill="#000000">ts_operation_data</text>
<text text-anchor="start" x="410.0219" y="-304.3" font-family="Helvetica,sans-Serif" font-size="11.00" fill="#000000">[table]</text>
<polygon fill="none" stroke="#000000" points="302.5,-274.2 302.5,-296.2 444.5,-296.2 444.5,-274.2 302.5,-274.2"/>
<image xlink:href="../../images/primaryKeys.png" width="11px" height="12px" preserveAspectRatio="xMinYMin meet" x="307.5" y="-291.2"/>
<text text-anchor="start" x="331.5" y="-281.3" font-family="Helvetica,sans-Serif" font-size="11.00" fill="#000000">data_hash</text>
<polygon fill="#ffffff" stroke="transparent" points="302.5,-252.2 302.5,-274.2 444.5,-274.2 444.5,-252.2 302.5,-252.2"/>
<polygon fill="none" stroke="#000000" points="302.5,-252.2 302.5,-274.2 444.5,-274.2 444.5,-252.2 302.5,-252.2"/>
<text text-anchor="start" x="331.5" y="-259.3" font-family="Helvetica,sans-Serif" font-size="11.00" fill="#000000">scope_all</text>
<polygon fill="#ffffff" stroke="transparent" points="302.5,-233.2 302.5,-252.2 371.5,-252.2 371.5,-233.2 302.5,-233.2"/>
<polygon fill="none" stroke="#000000" points="302.5,-233.2 302.5,-252.2 371.5,-252.2 371.5,-233.2 302.5,-233.2"/>
<text text-anchor="start" x="305.5" y="-239.3" font-family="Helvetica,sans-Serif" font-size="11.00" fill="#000000">&lt; 1</text>
<polygon fill="#ffffff" stroke="transparent" points="371.5,-233.2 371.5,-252.2 407.5,-252.2 407.5,-233.2 371.5,-233.2"/>
<polygon fill="none" stroke="#000000" points="371.5,-233.2 371.5,-252.2 407.5,-252.2 407.5,-233.2 371.5,-233.2"/>
<text text-anchor="start" x="398.3862" y="-239.3" font-family="Helvetica,sans-Serif" font-size="11.00" fill="#000000"> &#160;</text>
<polygon fill="#ffffff" stroke="transparent" points="407.5,-233.2 407.5,-252.2 444.5,-252.2 444.5,-233.2 407.5,-233.2"/>
<polygon fill="none" stroke="#000000" points="407.5,-233.2 407.5,-252.2 444.5,-252.2 444.5,-233.2 407.5,-233.2"/>
<text text-anchor="start" x="435.3862" y="-239.3" font-family="Helvetica,sans-Serif" font-size="11.00" fill="#000000"> &#160;</text>
</a>
</g>
</g>
<!-- ts_operation_data&#45;&gt;operation_data -->
<g id="edge4" class="edge">
<title>ts_operation_data:w&#45;&gt;operation_data:e</title>
<path fill="none" stroke="#000000" d="M292.154,-286.3286C234.395,-300.1465 297.4119,-436.2 226,-436.2"/>
<polygon fill="#000000" stroke="#000000" points="301.2709,-281.3104 302.1385,-289.2632 300.548,-289.4367 299.6803,-281.4839 301.2709,-281.3104"/>
<polyline fill="none" stroke="#000000" points="302.5,-285.2 298.5236,-285.6338 "/>
<ellipse fill="none" stroke="#000000" cx="295.3425" cy="-285.9809" rx="3.2" ry="3.2"/>
</g>
<!-- ts_rest_operation_data -->
<g id="node6" class="node">
<title>ts_rest_operation_data</title>
<g id="a_node6"><a xlink:href="../../tables/ts_rest_operation_data.html" xlink:title="ts_rest_operation_data" target="_top">
<polygon fill="#ffffff" stroke="transparent" points="288,-38.2 288,-212.2 459,-212.2 459,-38.2 288,-38.2"/>
<polygon fill="#f5f5f5" stroke="transparent" points="288.5,-189.2 288.5,-212.2 459.5,-212.2 459.5,-189.2 288.5,-189.2"/>
<polygon fill="none" stroke="#000000" points="288.5,-189.2 288.5,-212.2 459.5,-212.2 459.5,-189.2 288.5,-189.2"/>
<text text-anchor="start" x="293.5" y="-197.8" font-family="Helvetica,sans-Serif" font-weight="bold" font-size="11.00" fill="#000000">ts_rest_operation_data</text>
<text text-anchor="start" x="425.0219" y="-197.3" font-family="Helvetica,sans-Serif" font-size="11.00" fill="#000000">[table]</text>
<polygon fill="none" stroke="#000000" points="288.5,-167.2 288.5,-189.2 459.5,-189.2 459.5,-167.2 288.5,-167.2"/>
<image xlink:href="../../images/primaryKeys.png" width="11px" height="12px" preserveAspectRatio="xMinYMin meet" x="293.5" y="-184.2"/>
<text text-anchor="start" x="317.5" y="-174.3" font-family="Helvetica,sans-Serif" font-size="11.00" fill="#000000">data_hash</text>
<polygon fill="#ffffff" stroke="transparent" points="288.5,-145.2 288.5,-167.2 459.5,-167.2 459.5,-145.2 288.5,-145.2"/>
<polygon fill="none" stroke="#000000" points="288.5,-145.2 288.5,-167.2 459.5,-167.2 459.5,-145.2 288.5,-145.2"/>
<text text-anchor="start" x="317.5" y="-152.3" font-family="Helvetica,sans-Serif" font-size="11.00" fill="#000000">scope_request</text>
<polygon fill="#ffffff" stroke="transparent" points="288.5,-123.2 288.5,-145.2 459.5,-145.2 459.5,-123.2 288.5,-123.2"/>
<polygon fill="none" stroke="#000000" points="288.5,-123.2 288.5,-145.2 459.5,-145.2 459.5,-123.2 288.5,-123.2"/>
<text text-anchor="start" x="317.5" y="-130.3" font-family="Helvetica,sans-Serif" font-size="11.00" fill="#000000">scope_response</text>
<polygon fill="#ffffff" stroke="transparent" points="288.5,-101.2 288.5,-123.2 459.5,-123.2 459.5,-101.2 288.5,-101.2"/>
<polygon fill="none" stroke="#000000" points="288.5,-101.2 288.5,-123.2 459.5,-123.2 459.5,-101.2 288.5,-101.2"/>
<text text-anchor="start" x="317.5" y="-108.3" font-family="Helvetica,sans-Serif" font-size="11.00" fill="#000000">scope_annotation</text>
<polygon fill="#ffffff" stroke="transparent" points="288.5,-79.2 288.5,-101.2 459.5,-101.2 459.5,-79.2 288.5,-79.2"/>
<polygon fill="none" stroke="#000000" points="288.5,-79.2 288.5,-101.2 459.5,-101.2 459.5,-79.2 288.5,-79.2"/>
<text text-anchor="start" x="317.5" y="-86.3" font-family="Helvetica,sans-Serif" font-size="11.00" fill="#000000">scope_properties</text>
<polygon fill="#ffffff" stroke="transparent" points="288.5,-57.2 288.5,-79.2 459.5,-79.2 459.5,-57.2 288.5,-57.2"/>
<polygon fill="none" stroke="#000000" points="288.5,-57.2 288.5,-79.2 459.5,-79.2 459.5,-57.2 288.5,-57.2"/>
<text text-anchor="start" x="317.5" y="-64.3" font-family="Helvetica,sans-Serif" font-size="11.00" fill="#000000">scope_examples</text>
<polygon fill="#ffffff" stroke="transparent" points="288.5,-38.2 288.5,-57.2 372.5,-57.2 372.5,-38.2 288.5,-38.2"/>
<polygon fill="none" stroke="#000000" points="288.5,-38.2 288.5,-57.2 372.5,-57.2 372.5,-38.2 288.5,-38.2"/>
<text text-anchor="start" x="291.5" y="-44.3" font-family="Helvetica,sans-Serif" font-size="11.00" fill="#000000">&lt; 1</text>
<polygon fill="#ffffff" stroke="transparent" points="372.5,-38.2 372.5,-57.2 415.5,-57.2 415.5,-38.2 372.5,-38.2"/>
<polygon fill="none" stroke="#000000" points="372.5,-38.2 372.5,-57.2 415.5,-57.2 415.5,-38.2 372.5,-38.2"/>
<text text-anchor="start" x="406.3862" y="-44.3" font-family="Helvetica,sans-Serif" font-size="11.00" fill="#000000"> &#160;</text>
<polygon fill="#ffffff" stroke="transparent" points="415.5,-38.2 415.5,-57.2 459.5,-57.2 459.5,-38.2 415.5,-38.2"/>
<polygon fill="none" stroke="#000000" points="415.5,-38.2 415.5,-57.2 459.5,-57.2 459.5,-38.2 415.5,-38.2"/>
<text text-anchor="start" x="450.3862" y="-44.3" font-family="Helvetica,sans-Serif" font-size="11.00" fill="#000000"> &#160;</text>
</a>
</g>
</g>
<!-- ts_rest_operation_data&#45;&gt;operation_data -->
<g id="edge5" class="edge">
<title>ts_rest_operation_data:w&#45;&gt;operation_data:e</title>
<path fill="none" stroke="#000000" d="M278.4588,-181.2772C236.185,-210.386 281.1894,-436.2 226,-436.2"/>
<polygon fill="#000000" stroke="#000000" points="286.5631,-174.61 288.9072,-182.2589 287.3774,-182.7277 285.0333,-175.0788 286.5631,-174.61"/>
<polyline fill="none" stroke="#000000" points="288.5,-178.2 284.6756,-179.3721 "/>
<ellipse fill="none" stroke="#000000" cx="281.616" cy="-180.3097" rx="3.2" ry="3.2"/>
</g>
</g>
</svg>
