<?xml version="1.0" encoding="UTF-8" standalone="no"?>
<!DOCTYPE svg PUBLIC "-//W3C//DTD SVG 1.1//EN"
 "http://www.w3.org/Graphics/SVG/1.1/DTD/svg11.dtd">
<!-- Generated by graphviz version 2.40.1 (20161225.0304)
 -->
<!-- Title: oneDegreeRelationshipsDiagram Pages: 1 -->
<svg width="757pt" height="468pt"
 viewBox="0.00 0.00 757.00 468.20" xmlns="http://www.w3.org/2000/svg" xmlns:xlink="http://www.w3.org/1999/xlink">
<g id="graph0" class="graph" transform="scale(1 1) rotate(0) translate(4 464.2)">
<title>oneDegreeRelationshipsDiagram</title>
<polygon fill="#ffffff" stroke="transparent" points="-4,4 -4,-464.2 753,-464.2 753,4 -4,4"/>
<text text-anchor="middle" x="72.4936" y="-7.3" font-family="Helvetica,sans-Serif" font-size="11.00" fill="#000000">Generated by SchemaSpy</text>
<!-- grouped_operation -->
<g id="node1" class="node">
<title>grouped_operation</title>
<g id="a_node1"><a xlink:href="../../tables/grouped_operation.html" xlink:title="grouped_operation" target="_top">
<polygon fill="#ffffff" stroke="transparent" points="593,-304.2 593,-456.2 741,-456.2 741,-304.2 593,-304.2"/>
<polygon fill="#f5f5f5" stroke="transparent" points="593,-433.2 593,-456.2 741,-456.2 741,-433.2 593,-433.2"/>
<polygon fill="none" stroke="#000000" points="593,-433.2 593,-456.2 741,-456.2 741,-433.2 593,-433.2"/>
<text text-anchor="start" x="598" y="-441.8" font-family="Helvetica,sans-Serif" font-weight="bold" font-size="11.00" fill="#000000">grouped_operation</text>
<text text-anchor="start" x="706.5219" y="-441.3" font-family="Helvetica,sans-Serif" font-size="11.00" fill="#000000">[table]</text>
<polygon fill="none" stroke="#000000" points="593,-411.2 593,-433.2 741,-433.2 741,-411.2 593,-411.2"/>
<image xlink:href="../../images/foreignKeys.png" width="11px" height="12px" preserveAspectRatio="xMinYMin meet" x="598" y="-428.2"/>
<text text-anchor="start" x="622" y="-418.3" font-family="Helvetica,sans-Serif" font-size="11.00" fill="#000000">group_id</text>
<polygon fill="#ffffff" stroke="transparent" points="593,-389.2 593,-411.2 741,-411.2 741,-389.2 593,-389.2"/>
<polygon fill="none" stroke="#000000" points="593,-389.2 593,-411.2 741,-411.2 741,-389.2 593,-389.2"/>
<image xlink:href="../../images/foreignKeys.png" width="11px" height="12px" preserveAspectRatio="xMinYMin meet" x="598" y="-406.2"/>
<text text-anchor="start" x="622" y="-396.3" font-family="Helvetica,sans-Serif" font-size="11.00" fill="#000000">package_id</text>
<polygon fill="#ffffff" stroke="transparent" points="593,-367.2 593,-389.2 741,-389.2 741,-367.2 593,-367.2"/>
<polygon fill="none" stroke="#000000" points="593,-367.2 593,-389.2 741,-389.2 741,-367.2 593,-367.2"/>
<image xlink:href="../../images/foreignKeys.png" width="11px" height="12px" preserveAspectRatio="xMinYMin meet" x="598" y="-384.2"/>
<text text-anchor="start" x="622" y="-374.3" font-family="Helvetica,sans-Serif" font-size="11.00" fill="#000000">version</text>
<polygon fill="#ffffff" stroke="transparent" points="593,-345.2 593,-367.2 741,-367.2 741,-345.2 593,-345.2"/>
<polygon fill="none" stroke="#000000" points="593,-345.2 593,-367.2 741,-367.2 741,-345.2 593,-345.2"/>
<image xlink:href="../../images/foreignKeys.png" width="11px" height="12px" preserveAspectRatio="xMinYMin meet" x="598" y="-362.2"/>
<text text-anchor="start" x="622" y="-352.3" font-family="Helvetica,sans-Serif" font-size="11.00" fill="#000000">revision</text>
<polygon fill="#ffffff" stroke="transparent" points="593,-323.2 593,-345.2 741,-345.2 741,-323.2 593,-323.2"/>
<polygon fill="none" stroke="#000000" points="593,-323.2 593,-345.2 741,-345.2 741,-323.2 593,-323.2"/>
<image xlink:href="../../images/foreignKeys.png" width="11px" height="12px" preserveAspectRatio="xMinYMin meet" x="598" y="-340.2"/>
<text text-anchor="start" x="622" y="-330.3" font-family="Helvetica,sans-Serif" font-size="11.00" fill="#000000">operation_id</text>
<polygon fill="#ffffff" stroke="transparent" points="593,-304.2 593,-323.2 665,-323.2 665,-304.2 593,-304.2"/>
<polygon fill="none" stroke="#000000" points="593,-304.2 593,-323.2 665,-323.2 665,-304.2 593,-304.2"/>
<text text-anchor="start" x="596" y="-310.3" font-family="Helvetica,sans-Serif" font-size="11.00" fill="#000000">&lt; 5</text>
<polygon fill="#ffffff" stroke="transparent" points="665,-304.2 665,-323.2 703,-323.2 703,-304.2 665,-304.2"/>
<polygon fill="none" stroke="#000000" points="665,-304.2 665,-323.2 703,-323.2 703,-304.2 665,-304.2"/>
<text text-anchor="start" x="693.8862" y="-310.3" font-family="Helvetica,sans-Serif" font-size="11.00" fill="#000000"> &#160;</text>
<polygon fill="#ffffff" stroke="transparent" points="703,-304.2 703,-323.2 741,-323.2 741,-304.2 703,-304.2"/>
<polygon fill="none" stroke="#000000" points="703,-304.2 703,-323.2 741,-323.2 741,-304.2 703,-304.2"/>
<text text-anchor="start" x="731.8862" y="-310.3" font-family="Helvetica,sans-Serif" font-size="11.00" fill="#000000"> &#160;</text>
</a>
</g>
</g>
<!-- operation -->
<g id="node2" class="node">
<title>operation</title>
<g id="a_node2"><a xlink:href="../../tables/operation.html" xlink:title="operation" target="_top">
<polygon fill="#ffffff" stroke="transparent" points="249,-38.2 249,-436.2 544,-436.2 544,-38.2 249,-38.2"/>
<polygon fill="#f5f5f5" stroke="transparent" points="251.5,-411.2 251.5,-434.2 542.5,-434.2 542.5,-411.2 251.5,-411.2"/>
<polygon fill="none" stroke="#000000" points="251.5,-411.2 251.5,-434.2 542.5,-434.2 542.5,-411.2 251.5,-411.2"/>
<text text-anchor="start" x="256.5" y="-419.8" font-family="Helvetica,sans-Serif" font-weight="bold" font-size="11.00" fill="#000000">operation</text>
<text text-anchor="start" x="507.5437" y="-419.3" font-family="Helvetica,sans-Serif" font-size="11.00" fill="#000000">[table]</text>
<polygon fill="none" stroke="#000000" points="251.5,-389.2 251.5,-411.2 426.5,-411.2 426.5,-389.2 251.5,-389.2"/>
<image xlink:href="../../images/primaryKeys.png" width="11px" height="12px" preserveAspectRatio="xMinYMin meet" x="256.5" y="-406.2"/>
<text text-anchor="start" x="271.5" y="-396.3" font-family="Helvetica,sans-Serif" font-size="11.00" fill="#000000">package_id</text>
<polygon fill="none" stroke="#000000" points="426.5,-389.2 426.5,-411.2 542.5,-411.2 542.5,-389.2 426.5,-389.2"/>
<text text-anchor="start" x="429.5" y="-396.9" font-family="Helvetica,sans-Serif" font-size="11.00" fill="#000000">varchar[2147483647]</text>
<polygon fill="none" stroke="#000000" points="251.5,-367.2 251.5,-389.2 426.5,-389.2 426.5,-367.2 251.5,-367.2"/>
<image xlink:href="../../images/primaryKeys.png" width="11px" height="12px" preserveAspectRatio="xMinYMin meet" x="256.5" y="-384.2"/>
<text text-anchor="start" x="271.5" y="-374.3" font-family="Helvetica,sans-Serif" font-size="11.00" fill="#000000">version</text>
<polygon fill="none" stroke="#000000" points="426.5,-367.2 426.5,-389.2 542.5,-389.2 542.5,-367.2 426.5,-367.2"/>
<text text-anchor="start" x="429.5" y="-374.9" font-family="Helvetica,sans-Serif" font-size="11.00" fill="#000000">varchar[2147483647]</text>
<polygon fill="none" stroke="#000000" points="251.5,-345.2 251.5,-367.2 426.5,-367.2 426.5,-345.2 251.5,-345.2"/>
<image xlink:href="../../images/primaryKeys.png" width="11px" height="12px" preserveAspectRatio="xMinYMin meet" x="256.5" y="-362.2"/>
<text text-anchor="start" x="271.5" y="-352.3" font-family="Helvetica,sans-Serif" font-size="11.00" fill="#000000">revision</text>
<polygon fill="none" stroke="#000000" points="426.5,-345.2 426.5,-367.2 542.5,-367.2 542.5,-345.2 426.5,-345.2"/>
<text text-anchor="start" x="429.5" y="-352.9" font-family="Helvetica,sans-Serif" font-size="11.00" fill="#000000">int4[10]</text>
<polygon fill="none" stroke="#000000" points="251.5,-323.2 251.5,-345.2 426.5,-345.2 426.5,-323.2 251.5,-323.2"/>
<image xlink:href="../../images/primaryKeys.png" width="11px" height="12px" preserveAspectRatio="xMinYMin meet" x="256.5" y="-340.2"/>
<text text-anchor="start" x="271.5" y="-330.3" font-family="Helvetica,sans-Serif" font-size="11.00" fill="#000000">operation_id</text>
<polygon fill="none" stroke="#000000" points="426.5,-323.2 426.5,-345.2 542.5,-345.2 542.5,-323.2 426.5,-323.2"/>
<text text-anchor="start" x="429.5" y="-330.9" font-family="Helvetica,sans-Serif" font-size="11.00" fill="#000000">varchar[2147483647]</text>
<polygon fill="none" stroke="#000000" points="251.5,-301.2 251.5,-323.2 426.5,-323.2 426.5,-301.2 251.5,-301.2"/>
<image xlink:href="../../images/foreignKeys.png" width="11px" height="12px" preserveAspectRatio="xMinYMin meet" x="256.5" y="-318.2"/>
<text text-anchor="start" x="271.5" y="-308.3" font-family="Helvetica,sans-Serif" font-size="11.00" fill="#000000">data_hash</text>
<polygon fill="none" stroke="#000000" points="426.5,-301.2 426.5,-323.2 542.5,-323.2 542.5,-301.2 426.5,-301.2"/>
<text text-anchor="start" x="429.5" y="-308.9" font-family="Helvetica,sans-Serif" font-size="11.00" fill="#000000">varchar[2147483647]</text>
<polygon fill="none" stroke="#000000" points="251.5,-279.2 251.5,-301.2 426.5,-301.2 426.5,-279.2 251.5,-279.2"/>
<text text-anchor="start" x="271.5" y="-286.3" font-family="Helvetica,sans-Serif" font-size="11.00" fill="#000000">deprecated</text>
<polygon fill="none" stroke="#000000" points="426.5,-279.2 426.5,-301.2 542.5,-301.2 542.5,-279.2 426.5,-279.2"/>
<text text-anchor="start" x="429.5" y="-286.9" font-family="Helvetica,sans-Serif" font-size="11.00" fill="#000000">bool[1]</text>
<polygon fill="none" stroke="#000000" points="251.5,-257.2 251.5,-279.2 426.5,-279.2 426.5,-257.2 251.5,-257.2"/>
<text text-anchor="start" x="271.5" y="-264.3" font-family="Helvetica,sans-Serif" font-size="11.00" fill="#000000">kind</text>
<polygon fill="none" stroke="#000000" points="426.5,-257.2 426.5,-279.2 542.5,-279.2 542.5,-257.2 426.5,-257.2"/>
<text text-anchor="start" x="429.5" y="-264.9" font-family="Helvetica,sans-Serif" font-size="11.00" fill="#000000">varchar[2147483647]</text>
<polygon fill="none" stroke="#000000" points="251.5,-235.2 251.5,-257.2 426.5,-257.2 426.5,-235.2 251.5,-235.2"/>
<text text-anchor="start" x="271.5" y="-242.3" font-family="Helvetica,sans-Serif" font-size="11.00" fill="#000000">title</text>
<polygon fill="none" stroke="#000000" points="426.5,-235.2 426.5,-257.2 542.5,-257.2 542.5,-235.2 426.5,-235.2"/>
<text text-anchor="start" x="429.5" y="-242.9" font-family="Helvetica,sans-Serif" font-size="11.00" fill="#000000">varchar[2147483647]</text>
<polygon fill="none" stroke="#000000" points="251.5,-213.2 251.5,-235.2 426.5,-235.2 426.5,-213.2 251.5,-213.2"/>
<text text-anchor="start" x="271.5" y="-220.3" font-family="Helvetica,sans-Serif" font-size="11.00" fill="#000000">metadata</text>
<polygon fill="none" stroke="#000000" points="426.5,-213.2 426.5,-235.2 542.5,-235.2 542.5,-213.2 426.5,-213.2"/>
<text text-anchor="start" x="429.5" y="-220.9" font-family="Helvetica,sans-Serif" font-size="11.00" fill="#000000">jsonb[2147483647]</text>
<polygon fill="none" stroke="#000000" points="251.5,-191.2 251.5,-213.2 426.5,-213.2 426.5,-191.2 251.5,-191.2"/>
<text text-anchor="start" x="271.5" y="-198.3" font-family="Helvetica,sans-Serif" font-size="11.00" fill="#000000">type</text>
<polygon fill="none" stroke="#000000" points="426.5,-191.2 426.5,-213.2 542.5,-213.2 542.5,-191.2 426.5,-191.2"/>
<text text-anchor="start" x="429.5" y="-198.9" font-family="Helvetica,sans-Serif" font-size="11.00" fill="#000000">varchar[2147483647]</text>
<polygon fill="none" stroke="#000000" points="251.5,-169.2 251.5,-191.2 426.5,-191.2 426.5,-169.2 251.5,-169.2"/>
<text text-anchor="start" x="271.5" y="-176.3" font-family="Helvetica,sans-Serif" font-size="11.00" fill="#000000">deprecated_info</text>
<polygon fill="none" stroke="#000000" points="426.5,-169.2 426.5,-191.2 542.5,-191.2 542.5,-169.2 426.5,-169.2"/>
<text text-anchor="start" x="429.5" y="-176.9" font-family="Helvetica,sans-Serif" font-size="11.00" fill="#000000">varchar[2147483647]</text>
<polygon fill="none" stroke="#000000" points="251.5,-147.2 251.5,-169.2 426.5,-169.2 426.5,-147.2 251.5,-147.2"/>
<text text-anchor="start" x="271.5" y="-154.3" font-family="Helvetica,sans-Serif" font-size="11.00" fill="#000000">deprecated_items</text>
<polygon fill="none" stroke="#000000" points="426.5,-147.2 426.5,-169.2 542.5,-169.2 542.5,-147.2 426.5,-147.2"/>
<text text-anchor="start" x="429.5" y="-154.9" font-family="Helvetica,sans-Serif" font-size="11.00" fill="#000000">jsonb[2147483647]</text>
<polygon fill="none" stroke="#000000" points="251.5,-125.2 251.5,-147.2 426.5,-147.2 426.5,-125.2 251.5,-125.2"/>
<text text-anchor="start" x="271.5" y="-132.3" font-family="Helvetica,sans-Serif" font-size="11.00" fill="#000000">previous_release_versions</text>
<polygon fill="none" stroke="#000000" points="426.5,-125.2 426.5,-147.2 542.5,-147.2 542.5,-125.2 426.5,-125.2"/>
<text text-anchor="start" x="429.4769" y="-132.9" font-family="Helvetica,sans-Serif" font-size="11.00" fill="#000000">_varchar[2147483647]</text>
<polygon fill="none" stroke="#000000" points="251.5,-103.2 251.5,-125.2 426.5,-125.2 426.5,-103.2 251.5,-103.2"/>
<text text-anchor="start" x="271.5" y="-110.3" font-family="Helvetica,sans-Serif" font-size="11.00" fill="#000000">models</text>
<polygon fill="none" stroke="#000000" points="426.5,-103.2 426.5,-125.2 542.5,-125.2 542.5,-103.2 426.5,-103.2"/>
<text text-anchor="start" x="429.5" y="-110.9" font-family="Helvetica,sans-Serif" font-size="11.00" fill="#000000">jsonb[2147483647]</text>
<polygon fill="none" stroke="#000000" points="251.5,-81.2 251.5,-103.2 426.5,-103.2 426.5,-81.2 251.5,-81.2"/>
<text text-anchor="start" x="271.5" y="-88.3" font-family="Helvetica,sans-Serif" font-size="11.00" fill="#000000">custom_tags</text>
<polygon fill="none" stroke="#000000" points="426.5,-81.2 426.5,-103.2 542.5,-103.2 542.5,-81.2 426.5,-81.2"/>
<text text-anchor="start" x="429.5" y="-88.9" font-family="Helvetica,sans-Serif" font-size="11.00" fill="#000000">jsonb[2147483647]</text>
<polygon fill="none" stroke="#000000" points="251.5,-59.2 251.5,-81.2 426.5,-81.2 426.5,-59.2 251.5,-59.2"/>
<text text-anchor="start" x="271.5" y="-66.3" font-family="Helvetica,sans-Serif" font-size="11.00" fill="#000000">api_audience</text>
<polygon fill="none" stroke="#000000" points="426.5,-59.2 426.5,-81.2 542.5,-81.2 542.5,-59.2 426.5,-59.2"/>
<text text-anchor="start" x="429.5" y="-66.9" font-family="Helvetica,sans-Serif" font-size="11.00" fill="#000000">varchar[2147483647]</text>
<polygon fill="#ffffff" stroke="transparent" points="251.5,-40.2 251.5,-59.2 343.5,-59.2 343.5,-40.2 251.5,-40.2"/>
<polygon fill="none" stroke="#000000" points="251.5,-40.2 251.5,-59.2 343.5,-59.2 343.5,-40.2 251.5,-40.2"/>
<text text-anchor="start" x="254.5" y="-46.3" font-family="Helvetica,sans-Serif" font-size="11.00" fill="#000000">&lt; 4</text>
<polygon fill="#ffffff" stroke="transparent" points="343.5,-40.2 343.5,-59.2 426.5,-59.2 426.5,-40.2 343.5,-40.2"/>
<polygon fill="none" stroke="#000000" points="343.5,-40.2 343.5,-59.2 426.5,-59.2 426.5,-40.2 343.5,-40.2"/>
<text text-anchor="start" x="417.3862" y="-46.3" font-family="Helvetica,sans-Serif" font-size="11.00" fill="#000000"> &#160;</text>
<polygon fill="#ffffff" stroke="transparent" points="426.5,-40.2 426.5,-59.2 542.5,-59.2 542.5,-40.2 426.5,-40.2"/>
<polygon fill="none" stroke="#000000" points="426.5,-40.2 426.5,-59.2 542.5,-59.2 542.5,-40.2 426.5,-40.2"/>
<text text-anchor="start" x="523.9053" y="-46.3" font-family="Helvetica,sans-Serif" font-size="11.00" fill="#000000">4 &gt;</text>
<polygon fill="none" stroke="#000000" stroke-width="2" points="250,-39.2 250,-435.2 543,-435.2 543,-39.2 250,-39.2"/>
</a>
</g>
</g>
<!-- grouped_operation&#45;&gt;operation -->
<g id="edge1" class="edge">
<title>grouped_operation:w&#45;&gt;operation:e</title>
<path fill="none" stroke="#000000" d="M578.4203,-334.2C566.5435,-334.2 559.158,-334.2 542.5,-334.2"/>
<polygon fill="#000000" stroke="#000000" points="585,-334.2001 593,-337.8 589,-334.2 593,-334.2 593,-334.2 593,-334.2 589,-334.2 593,-330.6 585,-334.2001 585,-334.2001"/>
<ellipse fill="none" stroke="#000000" cx="581.8" cy="-334.2001" rx="3.2" ry="3.2"/>
</g>
<!-- grouped_operation&#45;&gt;operation -->
<g id="edge2" class="edge">
<title>grouped_operation:w&#45;&gt;operation:e</title>
<path fill="none" stroke="#000000" d="M578.4203,-400.2C566.5435,-400.2 559.158,-400.2 542.5,-400.2"/>
<polygon fill="#000000" stroke="#000000" points="585,-400.2001 593,-403.8 589,-400.2 593,-400.2 593,-400.2 593,-400.2 589,-400.2 593,-396.6 585,-400.2001 585,-400.2001"/>
<ellipse fill="none" stroke="#000000" cx="581.8" cy="-400.2001" rx="3.2" ry="3.2"/>
</g>
<!-- grouped_operation&#45;&gt;operation -->
<g id="edge3" class="edge">
<title>grouped_operation:w&#45;&gt;operation:e</title>
<path fill="none" stroke="#000000" d="M578.4203,-356.2C566.5435,-356.2 559.158,-356.2 542.5,-356.2"/>
<polygon fill="#000000" stroke="#000000" points="585,-356.2001 593,-359.8 589,-356.2 593,-356.2 593,-356.2 593,-356.2 589,-356.2 593,-352.6 585,-356.2001 585,-356.2001"/>
<ellipse fill="none" stroke="#000000" cx="581.8" cy="-356.2001" rx="3.2" ry="3.2"/>
</g>
<!-- grouped_operation&#45;&gt;operation -->
<g id="edge4" class="edge">
<title>grouped_operation:w&#45;&gt;operation:e</title>
<path fill="none" stroke="#000000" d="M578.4203,-378.2C566.5435,-378.2 559.158,-378.2 542.5,-378.2"/>
<polygon fill="#000000" stroke="#000000" points="585,-378.2001 593,-381.8 589,-378.2 593,-378.2 593,-378.2 593,-378.2 589,-378.2 593,-374.6 585,-378.2001 585,-378.2001"/>
<ellipse fill="none" stroke="#000000" cx="581.8" cy="-378.2001" rx="3.2" ry="3.2"/>
</g>
<!-- operation_data -->
<g id="node3" class="node">
<title>operation_data</title>
<g id="a_node3"><a xlink:href="../../tables/operation_data.html" xlink:title="operation_data" target="_top">
<polygon fill="#ffffff" stroke="transparent" points="41.5,-203.7 41.5,-286.7 166.5,-286.7 166.5,-203.7 41.5,-203.7"/>
<polygon fill="#f5f5f5" stroke="transparent" points="42,-263.2 42,-286.2 167,-286.2 167,-263.2 42,-263.2"/>
<polygon fill="none" stroke="#000000" points="42,-263.2 42,-286.2 167,-286.2 167,-263.2 42,-263.2"/>
<text text-anchor="start" x="47" y="-271.8" font-family="Helvetica,sans-Serif" font-weight="bold" font-size="11.00" fill="#000000">operation_data</text>
<text text-anchor="start" x="132.5219" y="-271.3" font-family="Helvetica,sans-Serif" font-size="11.00" fill="#000000">[table]</text>
<polygon fill="none" stroke="#000000" points="42,-241.2 42,-263.2 167,-263.2 167,-241.2 42,-241.2"/>
<image xlink:href="../../images/primaryKeys.png" width="11px" height="12px" preserveAspectRatio="xMinYMin meet" x="47" y="-258.2"/>
<text text-anchor="start" x="71" y="-248.3" font-family="Helvetica,sans-Serif" font-size="11.00" fill="#000000">data_hash</text>
<polygon fill="none" stroke="#000000" points="42,-222.2 42,-241.2 167,-241.2 167,-222.2 42,-222.2"/>
<text text-anchor="start" x="45" y="-228.3" font-family="Helvetica,sans-Serif" font-size="11.00" fill="#000000">...</text>
<polygon fill="#ffffff" stroke="transparent" points="42,-203.2 42,-222.2 94,-222.2 94,-203.2 42,-203.2"/>
<polygon fill="none" stroke="#000000" points="42,-203.2 42,-222.2 94,-222.2 94,-203.2 42,-203.2"/>
<text text-anchor="start" x="45" y="-209.3" font-family="Helvetica,sans-Serif" font-size="11.00" fill="#000000"> &#160;</text>
<polygon fill="#ffffff" stroke="transparent" points="94,-203.2 94,-222.2 126,-222.2 126,-203.2 94,-203.2"/>
<polygon fill="none" stroke="#000000" points="94,-203.2 94,-222.2 126,-222.2 126,-203.2 94,-203.2"/>
<text text-anchor="start" x="116.8862" y="-209.3" font-family="Helvetica,sans-Serif" font-size="11.00" fill="#000000"> &#160;</text>
<polygon fill="#ffffff" stroke="transparent" points="126,-203.2 126,-222.2 167,-222.2 167,-203.2 126,-203.2"/>
<polygon fill="none" stroke="#000000" points="126,-203.2 126,-222.2 167,-222.2 167,-203.2 126,-203.2"/>
<text text-anchor="start" x="148.4053" y="-209.3" font-family="Helvetica,sans-Serif" font-size="11.00" fill="#000000">4 &gt;</text>
</a>
</g>
</g>
<!-- operation&#45;&gt;operation_data -->
<g id="edge5" class="edge">
<title>operation:w&#45;&gt;operation_data:e</title>
<path fill="none" stroke="#000000" d="M236.9381,-309.7736C206.4983,-298.5486 207.4825,-252.2 167,-252.2"/>
<polygon fill="#000000" stroke="#000000" points="243.6088,-310.8851 250.9083,-315.751 247.5544,-311.5425 251.5,-312.2 251.5,-312.2 251.5,-312.2 247.5544,-311.5425 252.0917,-308.649 243.6088,-310.8851 243.6088,-310.8851"/>
<ellipse fill="none" stroke="#000000" cx="240.4523" cy="-310.3591" rx="3.2" ry="3.2"/>
</g>
<!-- published_version -->
<g id="node4" class="node">
<title>published_version</title>
<g id="a_node4"><a xlink:href="../../tables/published_version.html" xlink:title="published_version" target="_top">
<polygon fill="#ffffff" stroke="transparent" points="8,-307.7 8,-434.7 200,-434.7 200,-307.7 8,-307.7"/>
<polygon fill="#f5f5f5" stroke="transparent" points="8,-411.2 8,-434.2 200,-434.2 200,-411.2 8,-411.2"/>
<polygon fill="none" stroke="#000000" points="8,-411.2 8,-434.2 200,-434.2 200,-411.2 8,-411.2"/>
<text text-anchor="start" x="13" y="-419.8" font-family="Helvetica,sans-Serif" font-weight="bold" font-size="11.00" fill="#000000">published_version</text>
<text text-anchor="start" x="165.0437" y="-419.3" font-family="Helvetica,sans-Serif" font-size="11.00" fill="#000000">[table]</text>
<polygon fill="none" stroke="#000000" points="8,-389.2 8,-411.2 200,-411.2 200,-389.2 8,-389.2"/>
<image xlink:href="../../images/primaryKeys.png" width="11px" height="12px" preserveAspectRatio="xMinYMin meet" x="13" y="-406.2"/>
<text text-anchor="start" x="28" y="-396.3" font-family="Helvetica,sans-Serif" font-size="11.00" fill="#000000">package_id</text>
<polygon fill="none" stroke="#000000" points="8,-367.2 8,-389.2 200,-389.2 200,-367.2 8,-367.2"/>
<image xlink:href="../../images/primaryKeys.png" width="11px" height="12px" preserveAspectRatio="xMinYMin meet" x="13" y="-384.2"/>
<text text-anchor="start" x="28" y="-374.3" font-family="Helvetica,sans-Serif" font-size="11.00" fill="#000000">version</text>
<polygon fill="none" stroke="#000000" points="8,-345.2 8,-367.2 200,-367.2 200,-345.2 8,-345.2"/>
<image xlink:href="../../images/primaryKeys.png" width="11px" height="12px" preserveAspectRatio="xMinYMin meet" x="13" y="-362.2"/>
<text text-anchor="start" x="28" y="-352.3" font-family="Helvetica,sans-Serif" font-size="11.00" fill="#000000">revision</text>
<polygon fill="none" stroke="#000000" points="8,-326.2 8,-345.2 200,-345.2 200,-326.2 8,-326.2"/>
<text text-anchor="start" x="11" y="-332.3" font-family="Helvetica,sans-Serif" font-size="11.00" fill="#000000">...</text>
<polygon fill="#ffffff" stroke="transparent" points="8,-307.2 8,-326.2 95,-326.2 95,-307.2 8,-307.2"/>
<polygon fill="none" stroke="#000000" points="8,-307.2 8,-326.2 95,-326.2 95,-307.2 8,-307.2"/>
<text text-anchor="start" x="11" y="-313.3" font-family="Helvetica,sans-Serif" font-size="11.00" fill="#000000">&lt; 1</text>
<polygon fill="#ffffff" stroke="transparent" points="95,-307.2 95,-326.2 140,-326.2 140,-307.2 95,-307.2"/>
<polygon fill="none" stroke="#000000" points="95,-307.2 95,-326.2 140,-326.2 140,-307.2 95,-307.2"/>
<text text-anchor="start" x="130.8862" y="-313.3" font-family="Helvetica,sans-Serif" font-size="11.00" fill="#000000"> &#160;</text>
<polygon fill="#ffffff" stroke="transparent" points="140,-307.2 140,-326.2 200,-326.2 200,-307.2 140,-307.2"/>
<polygon fill="none" stroke="#000000" points="140,-307.2 140,-326.2 200,-326.2 200,-307.2 140,-307.2"/>
<text text-anchor="start" x="175.2904" y="-313.3" font-family="Helvetica,sans-Serif" font-size="11.00" fill="#000000">18 &gt;</text>
</a>
</g>
</g>
<!-- operation&#45;&gt;published_version -->
<g id="edge6" class="edge">
<title>operation:w&#45;&gt;published_version:e</title>
<path fill="none" stroke="#000000" d="M237.0156,-400.2C224.6771,-400.2 217.1667,-400.2 200,-400.2"/>
<polygon fill="#000000" stroke="#000000" points="243.5,-400.2001 251.5,-403.8 247.5,-400.2 251.5,-400.2 251.5,-400.2 251.5,-400.2 247.5,-400.2 251.5,-396.6 243.5,-400.2001 243.5,-400.2001"/>
<ellipse fill="none" stroke="#000000" cx="240.3" cy="-400.2001" rx="3.2" ry="3.2"/>
</g>
<!-- operation&#45;&gt;published_version -->
<g id="edge7" class="edge">
<title>operation:w&#45;&gt;published_version:e</title>
<path fill="none" stroke="#000000" d="M237.0156,-356.2C224.6771,-356.2 217.1667,-356.2 200,-356.2"/>
<polygon fill="#000000" stroke="#000000" points="243.5,-356.2001 251.5,-359.8 247.5,-356.2 251.5,-356.2 251.5,-356.2 251.5,-356.2 247.5,-356.2 251.5,-352.6 243.5,-356.2001 243.5,-356.2001"/>
<ellipse fill="none" stroke="#000000" cx="240.3" cy="-356.2001" rx="3.2" ry="3.2"/>
</g>
<!-- operation&#45;&gt;published_version -->
<g id="edge8" class="edge">
<title>operation:w&#45;&gt;published_version:e</title>
<path fill="none" stroke="#000000" d="M237.0156,-378.2C224.6771,-378.2 217.1667,-378.2 200,-378.2"/>
<polygon fill="#000000" stroke="#000000" points="243.5,-378.2001 251.5,-381.8 247.5,-378.2 251.5,-378.2 251.5,-378.2 251.5,-378.2 247.5,-378.2 251.5,-374.6 243.5,-378.2001 243.5,-378.2001"/>
<ellipse fill="none" stroke="#000000" cx="240.3" cy="-378.2001" rx="3.2" ry="3.2"/>
</g>
</g>
</svg>
