<?xml version="1.0" encoding="UTF-8" standalone="no"?>
<!DOCTYPE svg PUBLIC "-//W3C//DTD SVG 1.1//EN"
 "http://www.w3.org/Graphics/SVG/1.1/DTD/svg11.dtd">
<!-- Generated by graphviz version 2.40.1 (20161225.0304)
 -->
<!-- Title: oneDegreeRelationshipsDiagram Pages: 1 -->
<svg width="492pt" height="382pt"
 viewBox="0.00 0.00 492.00 382.20" xmlns="http://www.w3.org/2000/svg" xmlns:xlink="http://www.w3.org/1999/xlink">
<g id="graph0" class="graph" transform="scale(1 1) rotate(0) translate(4 378.2)">
<title>oneDegreeRelationshipsDiagram</title>
<polygon fill="#ffffff" stroke="transparent" points="-4,4 -4,-378.2 488,-378.2 488,4 -4,4"/>
<text text-anchor="middle" x="72.4936" y="-7.3" font-family="Helvetica,sans-Serif" font-size="11.00" fill="#000000">Generated by SchemaSpy</text>
<!-- operation_comparison -->
<g id="node1" class="node">
<title>operation_comparison</title>
<g id="a_node1"><a xlink:href="../../tables/operation_comparison.html" xlink:title="operation_comparison" target="_top">
<polygon fill="#ffffff" stroke="transparent" points="213,-38.2 213,-370.2 476,-370.2 476,-38.2 213,-38.2"/>
<polygon fill="#f5f5f5" stroke="transparent" points="215.5,-345.2 215.5,-368.2 474.5,-368.2 474.5,-345.2 215.5,-345.2"/>
<polygon fill="none" stroke="#000000" points="215.5,-345.2 215.5,-368.2 474.5,-368.2 474.5,-345.2 215.5,-345.2"/>
<text text-anchor="start" x="220.5" y="-353.8" font-family="Helvetica,sans-Serif" font-weight="bold" font-size="11.00" fill="#000000">operation_comparison</text>
<text text-anchor="start" x="439.5437" y="-353.3" font-family="Helvetica,sans-Serif" font-size="11.00" fill="#000000">[table]</text>
<polygon fill="none" stroke="#000000" points="215.5,-323.2 215.5,-345.2 365.5,-345.2 365.5,-323.2 215.5,-323.2"/>
<text text-anchor="start" x="235.5" y="-330.3" font-family="Helvetica,sans-Serif" font-size="11.00" fill="#000000">package_id</text>
<polygon fill="none" stroke="#000000" points="365.5,-323.2 365.5,-345.2 474.5,-345.2 474.5,-323.2 365.5,-323.2"/>
<text text-anchor="start" x="368.0344" y="-330.9" font-family="Helvetica,sans-Serif" font-size="11.00" fill="#000000">varchar[2147483647]</text>
<polygon fill="none" stroke="#000000" points="215.5,-301.2 215.5,-323.2 365.5,-323.2 365.5,-301.2 215.5,-301.2"/>
<text text-anchor="start" x="235.5" y="-308.3" font-family="Helvetica,sans-Serif" font-size="11.00" fill="#000000">version</text>
<polygon fill="none" stroke="#000000" points="365.5,-301.2 365.5,-323.2 474.5,-323.2 474.5,-301.2 365.5,-301.2"/>
<text text-anchor="start" x="368.0344" y="-308.9" font-family="Helvetica,sans-Serif" font-size="11.00" fill="#000000">varchar[2147483647]</text>
<polygon fill="none" stroke="#000000" points="215.5,-279.2 215.5,-301.2 365.5,-301.2 365.5,-279.2 215.5,-279.2"/>
<text text-anchor="start" x="235.5" y="-286.3" font-family="Helvetica,sans-Serif" font-size="11.00" fill="#000000">revision</text>
<polygon fill="none" stroke="#000000" points="365.5,-279.2 365.5,-301.2 474.5,-301.2 474.5,-279.2 365.5,-279.2"/>
<text text-anchor="start" x="368.5" y="-286.9" font-family="Helvetica,sans-Serif" font-size="11.00" fill="#000000">int4[10]</text>
<polygon fill="none" stroke="#000000" points="215.5,-257.2 215.5,-279.2 365.5,-279.2 365.5,-257.2 215.5,-257.2"/>
<text text-anchor="start" x="235.5" y="-264.3" font-family="Helvetica,sans-Serif" font-size="11.00" fill="#000000">previous_package_id</text>
<polygon fill="none" stroke="#000000" points="365.5,-257.2 365.5,-279.2 474.5,-279.2 474.5,-257.2 365.5,-257.2"/>
<text text-anchor="start" x="368.0344" y="-264.9" font-family="Helvetica,sans-Serif" font-size="11.00" fill="#000000">varchar[2147483647]</text>
<polygon fill="none" stroke="#000000" points="215.5,-235.2 215.5,-257.2 365.5,-257.2 365.5,-235.2 215.5,-235.2"/>
<text text-anchor="start" x="235.5" y="-242.3" font-family="Helvetica,sans-Serif" font-size="11.00" fill="#000000">previous_version</text>
<polygon fill="none" stroke="#000000" points="365.5,-235.2 365.5,-257.2 474.5,-257.2 474.5,-235.2 365.5,-235.2"/>
<text text-anchor="start" x="368.0344" y="-242.9" font-family="Helvetica,sans-Serif" font-size="11.00" fill="#000000">varchar[2147483647]</text>
<polygon fill="none" stroke="#000000" points="215.5,-213.2 215.5,-235.2 365.5,-235.2 365.5,-213.2 215.5,-213.2"/>
<text text-anchor="start" x="235.5" y="-220.3" font-family="Helvetica,sans-Serif" font-size="11.00" fill="#000000">previous_revision</text>
<polygon fill="none" stroke="#000000" points="365.5,-213.2 365.5,-235.2 474.5,-235.2 474.5,-213.2 365.5,-213.2"/>
<text text-anchor="start" x="368.5" y="-220.9" font-family="Helvetica,sans-Serif" font-size="11.00" fill="#000000">int4[10]</text>
<polygon fill="none" stroke="#000000" points="215.5,-191.2 215.5,-213.2 365.5,-213.2 365.5,-191.2 215.5,-191.2"/>
<text text-anchor="start" x="235.5" y="-198.3" font-family="Helvetica,sans-Serif" font-size="11.00" fill="#000000">operation_id</text>
<polygon fill="none" stroke="#000000" points="365.5,-191.2 365.5,-213.2 474.5,-213.2 474.5,-191.2 365.5,-191.2"/>
<text text-anchor="start" x="368.0344" y="-198.9" font-family="Helvetica,sans-Serif" font-size="11.00" fill="#000000">varchar[2147483647]</text>
<polygon fill="none" stroke="#000000" points="215.5,-169.2 215.5,-191.2 365.5,-191.2 365.5,-169.2 215.5,-169.2"/>
<text text-anchor="start" x="235.5" y="-176.3" font-family="Helvetica,sans-Serif" font-size="11.00" fill="#000000">data_hash</text>
<polygon fill="none" stroke="#000000" points="365.5,-169.2 365.5,-191.2 474.5,-191.2 474.5,-169.2 365.5,-169.2"/>
<text text-anchor="start" x="368.0344" y="-176.9" font-family="Helvetica,sans-Serif" font-size="11.00" fill="#000000">varchar[2147483647]</text>
<polygon fill="none" stroke="#000000" points="215.5,-147.2 215.5,-169.2 365.5,-169.2 365.5,-147.2 215.5,-147.2"/>
<text text-anchor="start" x="235.5" y="-154.3" font-family="Helvetica,sans-Serif" font-size="11.00" fill="#000000">previous_data_hash</text>
<polygon fill="none" stroke="#000000" points="365.5,-147.2 365.5,-169.2 474.5,-169.2 474.5,-147.2 365.5,-147.2"/>
<text text-anchor="start" x="368.0344" y="-154.9" font-family="Helvetica,sans-Serif" font-size="11.00" fill="#000000">varchar[2147483647]</text>
<polygon fill="none" stroke="#000000" points="215.5,-125.2 215.5,-147.2 365.5,-147.2 365.5,-125.2 215.5,-125.2"/>
<text text-anchor="start" x="235.5" y="-132.3" font-family="Helvetica,sans-Serif" font-size="11.00" fill="#000000">changes_summary</text>
<polygon fill="none" stroke="#000000" points="365.5,-125.2 365.5,-147.2 474.5,-147.2 474.5,-125.2 365.5,-125.2"/>
<text text-anchor="start" x="368.5" y="-132.9" font-family="Helvetica,sans-Serif" font-size="11.00" fill="#000000">jsonb[2147483647]</text>
<polygon fill="none" stroke="#000000" points="215.5,-103.2 215.5,-125.2 365.5,-125.2 365.5,-103.2 215.5,-103.2"/>
<text text-anchor="start" x="235.5" y="-110.3" font-family="Helvetica,sans-Serif" font-size="11.00" fill="#000000">changes</text>
<polygon fill="none" stroke="#000000" points="365.5,-103.2 365.5,-125.2 474.5,-125.2 474.5,-103.2 365.5,-103.2"/>
<text text-anchor="start" x="368.5" y="-110.9" font-family="Helvetica,sans-Serif" font-size="11.00" fill="#000000">jsonb[2147483647]</text>
<polygon fill="#ffffff" stroke="transparent" points="215.5,-81.2 215.5,-103.2 365.5,-103.2 365.5,-81.2 215.5,-81.2"/>
<polygon fill="none" stroke="#000000" points="215.5,-81.2 215.5,-103.2 365.5,-103.2 365.5,-81.2 215.5,-81.2"/>
<image xlink:href="../../images/foreignKeys.png" width="11px" height="12px" preserveAspectRatio="xMinYMin meet" x="220.5" y="-98.2"/>
<text text-anchor="start" x="235.5" y="-88.3" font-family="Helvetica,sans-Serif" font-size="11.00" fill="#000000">comparison_id</text>
<polygon fill="none" stroke="#000000" points="365.5,-81.2 365.5,-103.2 474.5,-103.2 474.5,-81.2 365.5,-81.2"/>
<text text-anchor="start" x="368.0344" y="-88.9" font-family="Helvetica,sans-Serif" font-size="11.00" fill="#000000">varchar[2147483647]</text>
<polygon fill="none" stroke="#000000" points="215.5,-59.2 215.5,-81.2 365.5,-81.2 365.5,-59.2 215.5,-59.2"/>
<text text-anchor="start" x="235.5" y="-66.3" font-family="Helvetica,sans-Serif" font-size="11.00" fill="#000000">previous_operation_id</text>
<polygon fill="none" stroke="#000000" points="365.5,-59.2 365.5,-81.2 474.5,-81.2 474.5,-59.2 365.5,-59.2"/>
<text text-anchor="start" x="368.0344" y="-66.9" font-family="Helvetica,sans-Serif" font-size="11.00" fill="#000000">varchar[2147483647]</text>
<polygon fill="#ffffff" stroke="transparent" points="215.5,-40.2 215.5,-59.2 294.5,-59.2 294.5,-40.2 215.5,-40.2"/>
<polygon fill="none" stroke="#000000" points="215.5,-40.2 215.5,-59.2 294.5,-59.2 294.5,-40.2 215.5,-40.2"/>
<text text-anchor="start" x="218.5" y="-46.3" font-family="Helvetica,sans-Serif" font-size="11.00" fill="#000000">&lt; 1</text>
<polygon fill="#ffffff" stroke="transparent" points="294.5,-40.2 294.5,-59.2 365.5,-59.2 365.5,-40.2 294.5,-40.2"/>
<polygon fill="none" stroke="#000000" points="294.5,-40.2 294.5,-59.2 365.5,-59.2 365.5,-40.2 294.5,-40.2"/>
<text text-anchor="start" x="356.3862" y="-46.3" font-family="Helvetica,sans-Serif" font-size="11.00" fill="#000000"> &#160;</text>
<polygon fill="#ffffff" stroke="transparent" points="365.5,-40.2 365.5,-59.2 474.5,-59.2 474.5,-40.2 365.5,-40.2"/>
<polygon fill="none" stroke="#000000" points="365.5,-40.2 365.5,-59.2 474.5,-59.2 474.5,-40.2 365.5,-40.2"/>
<text text-anchor="start" x="455.9053" y="-46.3" font-family="Helvetica,sans-Serif" font-size="11.00" fill="#000000">0 &gt;</text>
<polygon fill="none" stroke="#000000" stroke-width="2" points="214,-39.2 214,-369.2 475,-369.2 475,-39.2 214,-39.2"/>
</a>
</g>
</g>
<!-- version_comparison -->
<g id="node2" class="node">
<title>version_comparison</title>
<g id="a_node2"><a xlink:href="../../tables/version_comparison.html" xlink:title="version_comparison" target="_top">
<polygon fill="#ffffff" stroke="transparent" points="8,-43.7 8,-258.7 164,-258.7 164,-43.7 8,-43.7"/>
<polygon fill="#f5f5f5" stroke="transparent" points="8,-235.2 8,-258.2 164,-258.2 164,-235.2 8,-235.2"/>
<polygon fill="none" stroke="#000000" points="8,-235.2 8,-258.2 164,-258.2 164,-235.2 8,-235.2"/>
<text text-anchor="start" x="13" y="-243.8" font-family="Helvetica,sans-Serif" font-weight="bold" font-size="11.00" fill="#000000">version_comparison</text>
<text text-anchor="start" x="129.5219" y="-243.3" font-family="Helvetica,sans-Serif" font-size="11.00" fill="#000000">[table]</text>
<polygon fill="none" stroke="#000000" points="8,-213.2 8,-235.2 164,-235.2 164,-213.2 8,-213.2"/>
<image xlink:href="../../images/primaryKeys.png" width="11px" height="12px" preserveAspectRatio="xMinYMin meet" x="13" y="-230.2"/>
<text text-anchor="start" x="35" y="-220.3" font-family="Helvetica,sans-Serif" font-size="11.00" fill="#000000">package_id</text>
<polygon fill="none" stroke="#000000" points="8,-191.2 8,-213.2 164,-213.2 164,-191.2 8,-191.2"/>
<image xlink:href="../../images/primaryKeys.png" width="11px" height="12px" preserveAspectRatio="xMinYMin meet" x="13" y="-208.2"/>
<text text-anchor="start" x="35" y="-198.3" font-family="Helvetica,sans-Serif" font-size="11.00" fill="#000000">version</text>
<polygon fill="none" stroke="#000000" points="8,-169.2 8,-191.2 164,-191.2 164,-169.2 8,-169.2"/>
<image xlink:href="../../images/primaryKeys.png" width="11px" height="12px" preserveAspectRatio="xMinYMin meet" x="13" y="-186.2"/>
<text text-anchor="start" x="35" y="-176.3" font-family="Helvetica,sans-Serif" font-size="11.00" fill="#000000">revision</text>
<polygon fill="none" stroke="#000000" points="8,-147.2 8,-169.2 164,-169.2 164,-147.2 8,-147.2"/>
<image xlink:href="../../images/primaryKeys.png" width="11px" height="12px" preserveAspectRatio="xMinYMin meet" x="13" y="-164.2"/>
<text text-anchor="start" x="35" y="-154.3" font-family="Helvetica,sans-Serif" font-size="11.00" fill="#000000">previous_package_id</text>
<polygon fill="none" stroke="#000000" points="8,-125.2 8,-147.2 164,-147.2 164,-125.2 8,-125.2"/>
<image xlink:href="../../images/primaryKeys.png" width="11px" height="12px" preserveAspectRatio="xMinYMin meet" x="13" y="-142.2"/>
<text text-anchor="start" x="35" y="-132.3" font-family="Helvetica,sans-Serif" font-size="11.00" fill="#000000">previous_version</text>
<polygon fill="none" stroke="#000000" points="8,-103.2 8,-125.2 164,-125.2 164,-103.2 8,-103.2"/>
<image xlink:href="../../images/primaryKeys.png" width="11px" height="12px" preserveAspectRatio="xMinYMin meet" x="13" y="-120.2"/>
<text text-anchor="start" x="35" y="-110.3" font-family="Helvetica,sans-Serif" font-size="11.00" fill="#000000">previous_revision</text>
<polygon fill="#ffffff" stroke="transparent" points="8,-81.2 8,-103.2 164,-103.2 164,-81.2 8,-81.2"/>
<polygon fill="none" stroke="#000000" points="8,-81.2 8,-103.2 164,-103.2 164,-81.2 8,-81.2"/>
<text text-anchor="start" x="35" y="-88.3" font-family="Helvetica,sans-Serif" font-size="11.00" fill="#000000">comparison_id</text>
<polygon fill="none" stroke="#000000" points="8,-62.2 8,-81.2 164,-81.2 164,-62.2 8,-62.2"/>
<text text-anchor="start" x="11" y="-68.3" font-family="Helvetica,sans-Serif" font-size="11.00" fill="#000000">...</text>
<polygon fill="#ffffff" stroke="transparent" points="8,-43.2 8,-62.2 75,-62.2 75,-43.2 8,-43.2"/>
<polygon fill="none" stroke="#000000" points="8,-43.2 8,-62.2 75,-62.2 75,-43.2 8,-43.2"/>
<text text-anchor="start" x="11" y="-49.3" font-family="Helvetica,sans-Serif" font-size="11.00" fill="#000000"> &#160;</text>
<polygon fill="#ffffff" stroke="transparent" points="75,-43.2 75,-62.2 115,-62.2 115,-43.2 75,-43.2"/>
<polygon fill="none" stroke="#000000" points="75,-43.2 75,-62.2 115,-62.2 115,-43.2 75,-43.2"/>
<text text-anchor="start" x="105.8862" y="-49.3" font-family="Helvetica,sans-Serif" font-size="11.00" fill="#000000"> &#160;</text>
<polygon fill="#ffffff" stroke="transparent" points="115,-43.2 115,-62.2 164,-62.2 164,-43.2 115,-43.2"/>
<polygon fill="none" stroke="#000000" points="115,-43.2 115,-62.2 164,-62.2 164,-43.2 115,-43.2"/>
<text text-anchor="start" x="145.4053" y="-49.3" font-family="Helvetica,sans-Serif" font-size="11.00" fill="#000000">1 &gt;</text>
</a>
</g>
</g>
<!-- operation_comparison&#45;&gt;version_comparison -->
<g id="edge1" class="edge">
<title>operation_comparison:w&#45;&gt;version_comparison:e</title>
<path fill="none" stroke="#000000" d="M201.0156,-92.2C188.6771,-92.2 181.1667,-92.2 164,-92.2"/>
<polygon fill="#000000" stroke="#000000" points="207.5,-92.2001 215.5,-95.8 211.5,-92.2 215.5,-92.2 215.5,-92.2 215.5,-92.2 211.5,-92.2 215.5,-88.6 207.5,-92.2001 207.5,-92.2001"/>
<ellipse fill="none" stroke="#000000" cx="204.3" cy="-92.2001" rx="3.2" ry="3.2"/>
</g>
</g>
</svg>
