<?xml version="1.0" encoding="UTF-8" standalone="no"?>
<!DOCTYPE svg PUBLIC "-//W3C//DTD SVG 1.1//EN"
 "http://www.w3.org/Graphics/SVG/1.1/DTD/svg11.dtd">
<!-- Generated by graphviz version 2.40.1 (20161225.0304)
 -->
<!-- Title: oneDegreeRelationshipsDiagram Pages: 1 -->
<svg width="267pt" height="140pt"
 viewBox="0.00 0.00 267.00 140.20" xmlns="http://www.w3.org/2000/svg" xmlns:xlink="http://www.w3.org/1999/xlink">
<g id="graph0" class="graph" transform="scale(1 1) rotate(0) translate(4 136.2)">
<title>oneDegreeRelationshipsDiagram</title>
<polygon fill="#ffffff" stroke="transparent" points="-4,4 -4,-136.2 263,-136.2 263,4 -4,4"/>
<text text-anchor="middle" x="72.4936" y="-7.3" font-family="Helvetica,sans-Serif" font-size="11.00" fill="#000000">Generated by SchemaSpy</text>
<!-- package_transition -->
<g id="node1" class="node">
<title>package_transition</title>
<g id="a_node1"><a xlink:href="../../tables/package_transition.html" xlink:title="package_transition" target="_top">
<polygon fill="#ffffff" stroke="transparent" points="8,-38.2 8,-128.2 251,-128.2 251,-38.2 8,-38.2"/>
<polygon fill="#f5f5f5" stroke="transparent" points="10.5,-103.2 10.5,-126.2 249.5,-126.2 249.5,-103.2 10.5,-103.2"/>
<polygon fill="none" stroke="#000000" points="10.5,-103.2 10.5,-126.2 249.5,-126.2 249.5,-103.2 10.5,-103.2"/>
<text text-anchor="start" x="15.5" y="-111.8" font-family="Helvetica,sans-Serif" font-weight="bold" font-size="11.00" fill="#000000">package_transition</text>
<text text-anchor="start" x="214.5437" y="-111.3" font-family="Helvetica,sans-Serif" font-size="11.00" fill="#000000">[table]</text>
<polygon fill="#ffffff" stroke="transparent" points="10.5,-81.2 10.5,-103.2 140.5,-103.2 140.5,-81.2 10.5,-81.2"/>
<polygon fill="none" stroke="#000000" points="10.5,-81.2 10.5,-103.2 140.5,-103.2 140.5,-81.2 10.5,-81.2"/>
<text text-anchor="start" x="30.5" y="-88.3" font-family="Helvetica,sans-Serif" font-size="11.00" fill="#000000">old_package_id</text>
<polygon fill="none" stroke="#000000" points="140.5,-81.2 140.5,-103.2 249.5,-103.2 249.5,-81.2 140.5,-81.2"/>
<text text-anchor="start" x="143.0344" y="-88.9" font-family="Helvetica,sans-Serif" font-size="11.00" fill="#000000">varchar[2147483647]</text>
<polygon fill="none" stroke="#000000" points="10.5,-59.2 10.5,-81.2 140.5,-81.2 140.5,-59.2 10.5,-59.2"/>
<text text-anchor="start" x="30.5" y="-66.3" font-family="Helvetica,sans-Serif" font-size="11.00" fill="#000000">new_package_id</text>
<polygon fill="none" stroke="#000000" points="140.5,-59.2 140.5,-81.2 249.5,-81.2 249.5,-59.2 140.5,-59.2"/>
<text text-anchor="start" x="143.0344" y="-66.9" font-family="Helvetica,sans-Serif" font-size="11.00" fill="#000000">varchar[2147483647]</text>
<polygon fill="#ffffff" stroke="transparent" points="10.5,-40.2 10.5,-59.2 79.5,-59.2 79.5,-40.2 10.5,-40.2"/>
<polygon fill="none" stroke="#000000" points="10.5,-40.2 10.5,-59.2 79.5,-59.2 79.5,-40.2 10.5,-40.2"/>
<text text-anchor="start" x="13.5" y="-46.3" font-family="Helvetica,sans-Serif" font-size="11.00" fill="#000000">&lt; 0</text>
<polygon fill="#ffffff" stroke="transparent" points="79.5,-40.2 79.5,-59.2 140.5,-59.2 140.5,-40.2 79.5,-40.2"/>
<polygon fill="none" stroke="#000000" points="79.5,-40.2 79.5,-59.2 140.5,-59.2 140.5,-40.2 79.5,-40.2"/>
<text text-anchor="start" x="131.3862" y="-46.3" font-family="Helvetica,sans-Serif" font-size="11.00" fill="#000000"> &#160;</text>
<polygon fill="#ffffff" stroke="transparent" points="140.5,-40.2 140.5,-59.2 249.5,-59.2 249.5,-40.2 140.5,-40.2"/>
<polygon fill="none" stroke="#000000" points="140.5,-40.2 140.5,-59.2 249.5,-59.2 249.5,-40.2 140.5,-40.2"/>
<text text-anchor="start" x="230.9053" y="-46.3" font-family="Helvetica,sans-Serif" font-size="11.00" fill="#000000">0 &gt;</text>
<polygon fill="none" stroke="#000000" stroke-width="2" points="9,-39.2 9,-127.2 250,-127.2 250,-39.2 9,-39.2"/>
</a>
</g>
</g>
</g>
</svg>
