<?xml version="1.0" encoding="UTF-8" standalone="no"?>
<!DOCTYPE svg PUBLIC "-//W3C//DTD SVG 1.1//EN"
 "http://www.w3.org/Graphics/SVG/1.1/DTD/svg11.dtd">
<!-- Generated by graphviz version 2.40.1 (20161225.0304)
 -->
<!-- Title: twoDegreesRelationshipsDiagram Pages: 1 -->
<svg width="509pt" height="1235pt"
 viewBox="0.00 0.00 509.00 1235.20" xmlns="http://www.w3.org/2000/svg" xmlns:xlink="http://www.w3.org/1999/xlink">
<g id="graph0" class="graph" transform="scale(1 1) rotate(0) translate(4 1231.2)">
<title>twoDegreesRelationshipsDiagram</title>
<polygon fill="#ffffff" stroke="transparent" points="-4,4 -4,-1231.2 505,-1231.2 505,4 -4,4"/>
<text text-anchor="middle" x="72.4936" y="-7.3" font-family="Helvetica,sans-Serif" font-size="11.00" fill="#000000">Generated by SchemaSpy</text>
<!-- activity_tracking -->
<g id="node1" class="node">
<title>activity_tracking</title>
<g id="a_node1"><a xlink:href="../../tables/activity_tracking.html" xlink:title="activity_tracking" target="_top">
<polygon fill="#ffffff" stroke="transparent" points="291,-1162.2 291,-1223.2 424,-1223.2 424,-1162.2 291,-1162.2"/>
<polygon fill="#f5f5f5" stroke="transparent" points="291.5,-1199.7 291.5,-1222.7 424.5,-1222.7 424.5,-1199.7 291.5,-1199.7"/>
<polygon fill="none" stroke="#000000" points="291.5,-1199.7 291.5,-1222.7 424.5,-1222.7 424.5,-1199.7 291.5,-1199.7"/>
<text text-anchor="start" x="296.5" y="-1208.3" font-family="Helvetica,sans-Serif" font-weight="bold" font-size="11.00" fill="#000000">activity_tracking</text>
<text text-anchor="start" x="390.0219" y="-1207.8" font-family="Helvetica,sans-Serif" font-size="11.00" fill="#000000">[table]</text>
<polygon fill="none" stroke="#000000" points="291.5,-1180.7 291.5,-1199.7 424.5,-1199.7 424.5,-1180.7 291.5,-1180.7"/>
<text text-anchor="start" x="294.5" y="-1186.8" font-family="Helvetica,sans-Serif" font-size="11.00" fill="#000000">...</text>
<polygon fill="#ffffff" stroke="transparent" points="291.5,-1161.7 291.5,-1180.7 356.5,-1180.7 356.5,-1161.7 291.5,-1161.7"/>
<polygon fill="none" stroke="#000000" points="291.5,-1161.7 291.5,-1180.7 356.5,-1180.7 356.5,-1161.7 291.5,-1161.7"/>
<text text-anchor="start" x="294.5" y="-1167.8" font-family="Helvetica,sans-Serif" font-size="11.00" fill="#000000">&lt; 1</text>
<polygon fill="#ffffff" stroke="transparent" points="356.5,-1161.7 356.5,-1180.7 390.5,-1180.7 390.5,-1161.7 356.5,-1161.7"/>
<polygon fill="none" stroke="#000000" points="356.5,-1161.7 356.5,-1180.7 390.5,-1180.7 390.5,-1161.7 356.5,-1161.7"/>
<text text-anchor="start" x="381.3862" y="-1167.8" font-family="Helvetica,sans-Serif" font-size="11.00" fill="#000000"> &#160;</text>
<polygon fill="#ffffff" stroke="transparent" points="390.5,-1161.7 390.5,-1180.7 424.5,-1180.7 424.5,-1161.7 390.5,-1161.7"/>
<polygon fill="none" stroke="#000000" points="390.5,-1161.7 390.5,-1180.7 424.5,-1180.7 424.5,-1161.7 390.5,-1161.7"/>
<text text-anchor="start" x="415.3862" y="-1167.8" font-family="Helvetica,sans-Serif" font-size="11.00" fill="#000000"> &#160;</text>
</a>
</g>
</g>
<!-- package_group -->
<g id="node2" class="node">
<title>package_group</title>
<g id="a_node2"><a xlink:href="../../tables/package_group.html" xlink:title="package_group" target="_top">
<polygon fill="#ffffff" stroke="transparent" points="8,-503.2 8,-608.2 173,-608.2 173,-503.2 8,-503.2"/>
<polygon fill="#f5f5f5" stroke="transparent" points="8.5,-584.7 8.5,-607.7 173.5,-607.7 173.5,-584.7 8.5,-584.7"/>
<polygon fill="none" stroke="#000000" points="8.5,-584.7 8.5,-607.7 173.5,-607.7 173.5,-584.7 8.5,-584.7"/>
<text text-anchor="start" x="13.5" y="-593.3" font-family="Helvetica,sans-Serif" font-weight="bold" font-size="11.00" fill="#000000">package_group</text>
<text text-anchor="start" x="138.5437" y="-592.8" font-family="Helvetica,sans-Serif" font-size="11.00" fill="#000000">[table]</text>
<polygon fill="none" stroke="#000000" points="8.5,-562.7 8.5,-584.7 173.5,-584.7 173.5,-562.7 8.5,-562.7"/>
<image xlink:href="../../images/primaryKeys.png" width="11px" height="12px" preserveAspectRatio="xMinYMin meet" x="13.5" y="-579.7"/>
<text text-anchor="start" x="28.5" y="-569.8" font-family="Helvetica,sans-Serif" font-size="11.00" fill="#000000">id</text>
<polygon fill="none" stroke="#000000" points="8.5,-540.7 8.5,-562.7 173.5,-562.7 173.5,-540.7 8.5,-540.7"/>
<image xlink:href="../../images/foreignKeys.png" width="11px" height="12px" preserveAspectRatio="xMinYMin meet" x="13.5" y="-557.7"/>
<text text-anchor="start" x="28.5" y="-547.8" font-family="Helvetica,sans-Serif" font-size="11.00" fill="#000000">parent_id</text>
<polygon fill="none" stroke="#000000" points="8.5,-521.7 8.5,-540.7 173.5,-540.7 173.5,-521.7 8.5,-521.7"/>
<text text-anchor="start" x="11.5" y="-527.8" font-family="Helvetica,sans-Serif" font-size="11.00" fill="#000000">...</text>
<polygon fill="#ffffff" stroke="transparent" points="8.5,-502.7 8.5,-521.7 81.5,-521.7 81.5,-502.7 8.5,-502.7"/>
<polygon fill="none" stroke="#000000" points="8.5,-502.7 8.5,-521.7 81.5,-521.7 81.5,-502.7 8.5,-502.7"/>
<text text-anchor="start" x="11.5" y="-508.8" font-family="Helvetica,sans-Serif" font-size="11.00" fill="#000000">&lt; 1</text>
<polygon fill="#ffffff" stroke="transparent" points="81.5,-502.7 81.5,-521.7 119.5,-521.7 119.5,-502.7 81.5,-502.7"/>
<polygon fill="none" stroke="#000000" points="81.5,-502.7 81.5,-521.7 119.5,-521.7 119.5,-502.7 81.5,-502.7"/>
<text text-anchor="start" x="110.3862" y="-508.8" font-family="Helvetica,sans-Serif" font-size="11.00" fill="#000000"> &#160;</text>
<polygon fill="#ffffff" stroke="transparent" points="119.5,-502.7 119.5,-521.7 173.5,-521.7 173.5,-502.7 119.5,-502.7"/>
<polygon fill="none" stroke="#000000" points="119.5,-502.7 119.5,-521.7 173.5,-521.7 173.5,-502.7 119.5,-502.7"/>
<text text-anchor="start" x="148.7904" y="-508.8" font-family="Helvetica,sans-Serif" font-size="11.00" fill="#000000">15 &gt;</text>
</a>
</g>
</g>
<!-- activity_tracking&#45;&gt;package_group -->
<g id="edge1" class="edge">
<title>activity_tracking:w&#45;&gt;package_group:e</title>
<path fill="none" stroke="#000000" d="M276.861,-1189.3039C248.2241,-1187.532 232.4922,-1179.1735 214,-1151.7 178.0514,-1098.2918 237.8797,-573.7 173.5,-573.7"/>
<polygon fill="#000000" stroke="#000000" points="283.5029,-1189.4836 291.4026,-1193.2987 287.5015,-1189.5918 291.5,-1189.7 291.5,-1189.7 291.5,-1189.7 287.5015,-1189.5918 291.5974,-1186.1013 283.5029,-1189.4836 283.5029,-1189.4836"/>
<ellipse fill="none" stroke="#000000" cx="280.3041" cy="-1189.397" rx="3.2" ry="3.2"/>
</g>
<!-- build -->
<g id="node3" class="node">
<title>build</title>
<g id="a_node3"><a xlink:href="../../tables/build.html" xlink:title="build" target="_top">
<polygon fill="#ffffff" stroke="transparent" points="324,-1080.2 324,-1141.2 391,-1141.2 391,-1080.2 324,-1080.2"/>
<polygon fill="#f5f5f5" stroke="transparent" points="324.5,-1117.7 324.5,-1140.7 391.5,-1140.7 391.5,-1117.7 324.5,-1117.7"/>
<polygon fill="none" stroke="#000000" points="324.5,-1117.7 324.5,-1140.7 391.5,-1140.7 391.5,-1117.7 324.5,-1117.7"/>
<text text-anchor="start" x="329.5" y="-1126.3" font-family="Helvetica,sans-Serif" font-weight="bold" font-size="11.00" fill="#000000">build</text>
<text text-anchor="start" x="357.0219" y="-1125.8" font-family="Helvetica,sans-Serif" font-size="11.00" fill="#000000">[table]</text>
<polygon fill="none" stroke="#000000" points="324.5,-1098.7 324.5,-1117.7 391.5,-1117.7 391.5,-1098.7 324.5,-1098.7"/>
<text text-anchor="start" x="327.5" y="-1104.8" font-family="Helvetica,sans-Serif" font-size="11.00" fill="#000000">...</text>
<polygon fill="#ffffff" stroke="transparent" points="324.5,-1079.7 324.5,-1098.7 351.5,-1098.7 351.5,-1079.7 324.5,-1079.7"/>
<polygon fill="none" stroke="#000000" points="324.5,-1079.7 324.5,-1098.7 351.5,-1098.7 351.5,-1079.7 324.5,-1079.7"/>
<text text-anchor="start" x="327.5" y="-1085.8" font-family="Helvetica,sans-Serif" font-size="11.00" fill="#000000">&lt; 1</text>
<polygon fill="#ffffff" stroke="transparent" points="351.5,-1079.7 351.5,-1098.7 366.5,-1098.7 366.5,-1079.7 351.5,-1079.7"/>
<polygon fill="none" stroke="#000000" points="351.5,-1079.7 351.5,-1098.7 366.5,-1098.7 366.5,-1079.7 351.5,-1079.7"/>
<text text-anchor="start" x="357.3862" y="-1085.8" font-family="Helvetica,sans-Serif" font-size="11.00" fill="#000000"> &#160;</text>
<polygon fill="#ffffff" stroke="transparent" points="366.5,-1079.7 366.5,-1098.7 391.5,-1098.7 391.5,-1079.7 366.5,-1079.7"/>
<polygon fill="none" stroke="#000000" points="366.5,-1079.7 366.5,-1098.7 391.5,-1098.7 391.5,-1079.7 366.5,-1079.7"/>
<text text-anchor="start" x="372.9053" y="-1085.8" font-family="Helvetica,sans-Serif" font-size="11.00" fill="#000000">5 &gt;</text>
</a>
</g>
</g>
<!-- build&#45;&gt;package_group -->
<g id="edge2" class="edge">
<title>build:w&#45;&gt;package_group:e</title>
<path fill="none" stroke="#000000" d="M309.9785,-1107.7423C267.3014,-1107.8682 242.7514,-1106.7058 214,-1069.7 180.0751,-1026.0355 228.7945,-573.7 173.5,-573.7"/>
<polygon fill="#000000" stroke="#000000" points="316.5,-1107.7234 324.5105,-1111.3 320.5,-1107.7117 324.5,-1107.7 324.5,-1107.7 324.5,-1107.7 320.5,-1107.7117 324.4895,-1104.1 316.5,-1107.7234 316.5,-1107.7234"/>
<ellipse fill="none" stroke="#000000" cx="313.3" cy="-1107.7327" rx="3.2" ry="3.2"/>
</g>
<!-- favorite_packages -->
<g id="node4" class="node">
<title>favorite_packages</title>
<g id="a_node4"><a xlink:href="../../tables/favorite_packages.html" xlink:title="favorite_packages" target="_top">
<polygon fill="#ffffff" stroke="transparent" points="286,-998.2 286,-1059.2 429,-1059.2 429,-998.2 286,-998.2"/>
<polygon fill="#f5f5f5" stroke="transparent" points="286.5,-1035.7 286.5,-1058.7 429.5,-1058.7 429.5,-1035.7 286.5,-1035.7"/>
<polygon fill="none" stroke="#000000" points="286.5,-1035.7 286.5,-1058.7 429.5,-1058.7 429.5,-1035.7 286.5,-1035.7"/>
<text text-anchor="start" x="291.5" y="-1044.3" font-family="Helvetica,sans-Serif" font-weight="bold" font-size="11.00" fill="#000000">favorite_packages</text>
<text text-anchor="start" x="395.0219" y="-1043.8" font-family="Helvetica,sans-Serif" font-size="11.00" fill="#000000">[table]</text>
<polygon fill="none" stroke="#000000" points="286.5,-1016.7 286.5,-1035.7 429.5,-1035.7 429.5,-1016.7 286.5,-1016.7"/>
<text text-anchor="start" x="289.5" y="-1022.8" font-family="Helvetica,sans-Serif" font-size="11.00" fill="#000000">...</text>
<polygon fill="#ffffff" stroke="transparent" points="286.5,-997.7 286.5,-1016.7 356.5,-1016.7 356.5,-997.7 286.5,-997.7"/>
<polygon fill="none" stroke="#000000" points="286.5,-997.7 286.5,-1016.7 356.5,-1016.7 356.5,-997.7 286.5,-997.7"/>
<text text-anchor="start" x="289.5" y="-1003.8" font-family="Helvetica,sans-Serif" font-size="11.00" fill="#000000">&lt; 2</text>
<polygon fill="#ffffff" stroke="transparent" points="356.5,-997.7 356.5,-1016.7 392.5,-1016.7 392.5,-997.7 356.5,-997.7"/>
<polygon fill="none" stroke="#000000" points="356.5,-997.7 356.5,-1016.7 392.5,-1016.7 392.5,-997.7 356.5,-997.7"/>
<text text-anchor="start" x="383.3862" y="-1003.8" font-family="Helvetica,sans-Serif" font-size="11.00" fill="#000000"> &#160;</text>
<polygon fill="#ffffff" stroke="transparent" points="392.5,-997.7 392.5,-1016.7 429.5,-1016.7 429.5,-997.7 392.5,-997.7"/>
<polygon fill="none" stroke="#000000" points="392.5,-997.7 392.5,-1016.7 429.5,-1016.7 429.5,-997.7 392.5,-997.7"/>
<text text-anchor="start" x="420.3862" y="-1003.8" font-family="Helvetica,sans-Serif" font-size="11.00" fill="#000000"> &#160;</text>
</a>
</g>
</g>
<!-- favorite_packages&#45;&gt;package_group -->
<g id="edge3" class="edge">
<title>favorite_packages:w&#45;&gt;package_group:e</title>
<path fill="none" stroke="#000000" d="M271.94,-1025.1657C245.4594,-1022.9708 231.3866,-1013.5124 214,-987.7 162.3578,-911.0313 265.9392,-573.7 173.5,-573.7"/>
<polygon fill="#000000" stroke="#000000" points="278.5054,-1025.4066 286.368,-1029.2976 282.5027,-1025.5533 286.5,-1025.7 286.5,-1025.7 286.5,-1025.7 282.5027,-1025.5533 286.632,-1022.1024 278.5054,-1025.4066 278.5054,-1025.4066"/>
<ellipse fill="none" stroke="#000000" cx="275.3075" cy="-1025.2892" rx="3.2" ry="3.2"/>
</g>
<!-- migrated_version -->
<g id="node5" class="node">
<title>migrated_version</title>
<g id="a_node5"><a xlink:href="../../tables/migrated_version.html" xlink:title="migrated_version" target="_top">
<polygon fill="#ffffff" stroke="transparent" points="288,-916.2 288,-977.2 427,-977.2 427,-916.2 288,-916.2"/>
<polygon fill="#f5f5f5" stroke="transparent" points="288.5,-953.7 288.5,-976.7 427.5,-976.7 427.5,-953.7 288.5,-953.7"/>
<polygon fill="none" stroke="#000000" points="288.5,-953.7 288.5,-976.7 427.5,-976.7 427.5,-953.7 288.5,-953.7"/>
<text text-anchor="start" x="293.5" y="-962.3" font-family="Helvetica,sans-Serif" font-weight="bold" font-size="11.00" fill="#000000">migrated_version</text>
<text text-anchor="start" x="393.0219" y="-961.8" font-family="Helvetica,sans-Serif" font-size="11.00" fill="#000000">[table]</text>
<polygon fill="none" stroke="#000000" points="288.5,-934.7 288.5,-953.7 427.5,-953.7 427.5,-934.7 288.5,-934.7"/>
<text text-anchor="start" x="291.5" y="-940.8" font-family="Helvetica,sans-Serif" font-size="11.00" fill="#000000">...</text>
<polygon fill="#ffffff" stroke="transparent" points="288.5,-915.7 288.5,-934.7 356.5,-934.7 356.5,-915.7 288.5,-915.7"/>
<polygon fill="none" stroke="#000000" points="288.5,-915.7 288.5,-934.7 356.5,-934.7 356.5,-915.7 288.5,-915.7"/>
<text text-anchor="start" x="291.5" y="-921.8" font-family="Helvetica,sans-Serif" font-size="11.00" fill="#000000">&lt; 1</text>
<polygon fill="#ffffff" stroke="transparent" points="356.5,-915.7 356.5,-934.7 391.5,-934.7 391.5,-915.7 356.5,-915.7"/>
<polygon fill="none" stroke="#000000" points="356.5,-915.7 356.5,-934.7 391.5,-934.7 391.5,-915.7 356.5,-915.7"/>
<text text-anchor="start" x="382.3862" y="-921.8" font-family="Helvetica,sans-Serif" font-size="11.00" fill="#000000"> &#160;</text>
<polygon fill="#ffffff" stroke="transparent" points="391.5,-915.7 391.5,-934.7 427.5,-934.7 427.5,-915.7 391.5,-915.7"/>
<polygon fill="none" stroke="#000000" points="391.5,-915.7 391.5,-934.7 427.5,-934.7 427.5,-915.7 391.5,-915.7"/>
<text text-anchor="start" x="418.3862" y="-921.8" font-family="Helvetica,sans-Serif" font-size="11.00" fill="#000000"> &#160;</text>
</a>
</g>
</g>
<!-- migrated_version&#45;&gt;package_group -->
<g id="edge4" class="edge">
<title>migrated_version:w&#45;&gt;package_group:e</title>
<path fill="none" stroke="#000000" d="M273.9998,-943.2099C246.7179,-941.1262 232.3056,-931.877 214,-905.7 171.4061,-844.7909 247.8247,-573.7 173.5,-573.7"/>
<polygon fill="#000000" stroke="#000000" points="280.5046,-943.4297 288.3784,-947.2979 284.5023,-943.5649 288.5,-943.7 288.5,-943.7 288.5,-943.7 284.5023,-943.5649 288.6216,-940.1021 280.5046,-943.4297 280.5046,-943.4297"/>
<ellipse fill="none" stroke="#000000" cx="277.3064" cy="-943.3216" rx="3.2" ry="3.2"/>
</g>
<!-- operation_open_count -->
<g id="node6" class="node">
<title>operation_open_count</title>
<g id="a_node6"><a xlink:href="../../tables/operation_open_count.html" xlink:title="operation_open_count" target="_top">
<polygon fill="#ffffff" stroke="transparent" points="273.5,-834.2 273.5,-895.2 441.5,-895.2 441.5,-834.2 273.5,-834.2"/>
<polygon fill="#f5f5f5" stroke="transparent" points="273.5,-871.7 273.5,-894.7 441.5,-894.7 441.5,-871.7 273.5,-871.7"/>
<polygon fill="none" stroke="#000000" points="273.5,-871.7 273.5,-894.7 441.5,-894.7 441.5,-871.7 273.5,-871.7"/>
<text text-anchor="start" x="278.5" y="-880.3" font-family="Helvetica,sans-Serif" font-weight="bold" font-size="11.00" fill="#000000">operation_open_count</text>
<text text-anchor="start" x="407.0219" y="-879.8" font-family="Helvetica,sans-Serif" font-size="11.00" fill="#000000">[table]</text>
<polygon fill="none" stroke="#000000" points="273.5,-852.7 273.5,-871.7 441.5,-871.7 441.5,-852.7 273.5,-852.7"/>
<text text-anchor="start" x="276.5" y="-858.8" font-family="Helvetica,sans-Serif" font-size="11.00" fill="#000000">...</text>
<polygon fill="#ffffff" stroke="transparent" points="273.5,-833.7 273.5,-852.7 355.5,-852.7 355.5,-833.7 273.5,-833.7"/>
<polygon fill="none" stroke="#000000" points="273.5,-833.7 273.5,-852.7 355.5,-852.7 355.5,-833.7 273.5,-833.7"/>
<text text-anchor="start" x="276.5" y="-839.8" font-family="Helvetica,sans-Serif" font-size="11.00" fill="#000000">&lt; 1</text>
<polygon fill="#ffffff" stroke="transparent" points="355.5,-833.7 355.5,-852.7 398.5,-852.7 398.5,-833.7 355.5,-833.7"/>
<polygon fill="none" stroke="#000000" points="355.5,-833.7 355.5,-852.7 398.5,-852.7 398.5,-833.7 355.5,-833.7"/>
<text text-anchor="start" x="389.3862" y="-839.8" font-family="Helvetica,sans-Serif" font-size="11.00" fill="#000000"> &#160;</text>
<polygon fill="#ffffff" stroke="transparent" points="398.5,-833.7 398.5,-852.7 441.5,-852.7 441.5,-833.7 398.5,-833.7"/>
<polygon fill="none" stroke="#000000" points="398.5,-833.7 398.5,-852.7 441.5,-852.7 441.5,-833.7 398.5,-833.7"/>
<text text-anchor="start" x="432.3862" y="-839.8" font-family="Helvetica,sans-Serif" font-size="11.00" fill="#000000"> &#160;</text>
</a>
</g>
</g>
<!-- operation_open_count&#45;&gt;package_group -->
<g id="edge5" class="edge">
<title>operation_open_count:w&#45;&gt;package_group:e</title>
<path fill="none" stroke="#000000" d="M259.0007,-860.6425C238.1926,-857.224 228.2731,-845.4133 214,-823.7 183.0857,-776.671 229.7798,-573.7 173.5,-573.7"/>
<polygon fill="#000000" stroke="#000000" points="265.5212,-861.118 273.2381,-865.2905 269.5106,-861.409 273.5,-861.7 273.5,-861.7 273.5,-861.7 269.5106,-861.409 273.7619,-858.1095 265.5212,-861.118 265.5212,-861.118"/>
<ellipse fill="none" stroke="#000000" cx="262.3297" cy="-860.8852" rx="3.2" ry="3.2"/>
</g>
<!-- package_export_config -->
<g id="node7" class="node">
<title>package_export_config</title>
<g id="a_node7"><a xlink:href="../../tables/package_export_config.html" xlink:title="package_export_config" target="_top">
<polygon fill="#ffffff" stroke="transparent" points="271,-752.2 271,-813.2 444,-813.2 444,-752.2 271,-752.2"/>
<polygon fill="#f5f5f5" stroke="transparent" points="271.5,-789.7 271.5,-812.7 444.5,-812.7 444.5,-789.7 271.5,-789.7"/>
<polygon fill="none" stroke="#000000" points="271.5,-789.7 271.5,-812.7 444.5,-812.7 444.5,-789.7 271.5,-789.7"/>
<text text-anchor="start" x="276.5" y="-798.3" font-family="Helvetica,sans-Serif" font-weight="bold" font-size="11.00" fill="#000000">package_export_config</text>
<text text-anchor="start" x="410.0219" y="-797.8" font-family="Helvetica,sans-Serif" font-size="11.00" fill="#000000">[table]</text>
<polygon fill="none" stroke="#000000" points="271.5,-770.7 271.5,-789.7 444.5,-789.7 444.5,-770.7 271.5,-770.7"/>
<text text-anchor="start" x="274.5" y="-776.8" font-family="Helvetica,sans-Serif" font-size="11.00" fill="#000000">...</text>
<polygon fill="#ffffff" stroke="transparent" points="271.5,-751.7 271.5,-770.7 356.5,-770.7 356.5,-751.7 271.5,-751.7"/>
<polygon fill="none" stroke="#000000" points="271.5,-751.7 271.5,-770.7 356.5,-770.7 356.5,-751.7 271.5,-751.7"/>
<text text-anchor="start" x="274.5" y="-757.8" font-family="Helvetica,sans-Serif" font-size="11.00" fill="#000000">&lt; 1</text>
<polygon fill="#ffffff" stroke="transparent" points="356.5,-751.7 356.5,-770.7 400.5,-770.7 400.5,-751.7 356.5,-751.7"/>
<polygon fill="none" stroke="#000000" points="356.5,-751.7 356.5,-770.7 400.5,-770.7 400.5,-751.7 356.5,-751.7"/>
<text text-anchor="start" x="391.3862" y="-757.8" font-family="Helvetica,sans-Serif" font-size="11.00" fill="#000000"> &#160;</text>
<polygon fill="#ffffff" stroke="transparent" points="400.5,-751.7 400.5,-770.7 444.5,-770.7 444.5,-751.7 400.5,-751.7"/>
<polygon fill="none" stroke="#000000" points="400.5,-751.7 400.5,-770.7 444.5,-770.7 444.5,-751.7 400.5,-751.7"/>
<text text-anchor="start" x="435.3862" y="-757.8" font-family="Helvetica,sans-Serif" font-size="11.00" fill="#000000"> &#160;</text>
</a>
</g>
</g>
<!-- package_export_config&#45;&gt;package_group -->
<g id="edge6" class="edge">
<title>package_export_config:w&#45;&gt;package_group:e</title>
<path fill="none" stroke="#000000" d="M260.956,-779.0958C238.4187,-776.2795 229.3916,-763.6431 214,-741.7 169.8943,-678.8207 250.3057,-573.7 173.5,-573.7"/>
<polygon fill="#000000" stroke="#000000" points="270.9302,-775.6608 270.4724,-783.6477 268.875,-783.5561 269.3328,-775.5692 270.9302,-775.6608"/>
<polyline fill="none" stroke="#000000" points="271.5,-779.7 267.5066,-779.4711 "/>
<ellipse fill="none" stroke="#000000" cx="264.3118" cy="-779.288" rx="3.2" ry="3.2"/>
</g>
<!-- package_member_role -->
<g id="node8" class="node">
<title>package_member_role</title>
<g id="a_node8"><a xlink:href="../../tables/package_member_role.html" xlink:title="package_member_role" target="_top">
<polygon fill="#ffffff" stroke="transparent" points="222,-530.7 222,-730.7 493,-730.7 493,-530.7 222,-530.7"/>
<polygon fill="#f5f5f5" stroke="transparent" points="224.5,-705.7 224.5,-728.7 491.5,-728.7 491.5,-705.7 224.5,-705.7"/>
<polygon fill="none" stroke="#000000" points="224.5,-705.7 224.5,-728.7 491.5,-728.7 491.5,-705.7 224.5,-705.7"/>
<text text-anchor="start" x="229.5" y="-714.3" font-family="Helvetica,sans-Serif" font-weight="bold" font-size="11.00" fill="#000000">package_member_role</text>
<text text-anchor="start" x="456.5437" y="-713.8" font-family="Helvetica,sans-Serif" font-size="11.00" fill="#000000">[table]</text>
<polygon fill="none" stroke="#000000" points="224.5,-683.7 224.5,-705.7 375.5,-705.7 375.5,-683.7 224.5,-683.7"/>
<image xlink:href="../../images/primaryKeys.png" width="11px" height="12px" preserveAspectRatio="xMinYMin meet" x="229.5" y="-700.7"/>
<text text-anchor="start" x="244.5" y="-690.8" font-family="Helvetica,sans-Serif" font-size="11.00" fill="#000000">user_id</text>
<polygon fill="none" stroke="#000000" points="375.5,-683.7 375.5,-705.7 491.5,-705.7 491.5,-683.7 375.5,-683.7"/>
<text text-anchor="start" x="378.5" y="-691.4" font-family="Helvetica,sans-Serif" font-size="11.00" fill="#000000">varchar[2147483647]</text>
<polygon fill="none" stroke="#000000" points="224.5,-661.7 224.5,-683.7 375.5,-683.7 375.5,-661.7 224.5,-661.7"/>
<image xlink:href="../../images/primaryKeys.png" width="11px" height="12px" preserveAspectRatio="xMinYMin meet" x="229.5" y="-678.7"/>
<text text-anchor="start" x="244.5" y="-668.8" font-family="Helvetica,sans-Serif" font-size="11.00" fill="#000000">package_id</text>
<polygon fill="none" stroke="#000000" points="375.5,-661.7 375.5,-683.7 491.5,-683.7 491.5,-661.7 375.5,-661.7"/>
<text text-anchor="start" x="378.5" y="-669.4" font-family="Helvetica,sans-Serif" font-size="11.00" fill="#000000">varchar[2147483647]</text>
<polygon fill="none" stroke="#000000" points="224.5,-639.7 224.5,-661.7 375.5,-661.7 375.5,-639.7 224.5,-639.7"/>
<text text-anchor="start" x="244.5" y="-646.8" font-family="Helvetica,sans-Serif" font-size="11.00" fill="#000000">created_by</text>
<polygon fill="none" stroke="#000000" points="375.5,-639.7 375.5,-661.7 491.5,-661.7 491.5,-639.7 375.5,-639.7"/>
<text text-anchor="start" x="378.5" y="-647.4" font-family="Helvetica,sans-Serif" font-size="11.00" fill="#000000">varchar[2147483647]</text>
<polygon fill="none" stroke="#000000" points="224.5,-617.7 224.5,-639.7 375.5,-639.7 375.5,-617.7 224.5,-617.7"/>
<text text-anchor="start" x="244.5" y="-624.8" font-family="Helvetica,sans-Serif" font-size="11.00" fill="#000000">created_at</text>
<polygon fill="none" stroke="#000000" points="375.5,-617.7 375.5,-639.7 491.5,-639.7 491.5,-617.7 375.5,-617.7"/>
<text text-anchor="start" x="378.5" y="-625.4" font-family="Helvetica,sans-Serif" font-size="11.00" fill="#000000">timestamp[29,6]</text>
<polygon fill="none" stroke="#000000" points="224.5,-595.7 224.5,-617.7 375.5,-617.7 375.5,-595.7 224.5,-595.7"/>
<text text-anchor="start" x="244.5" y="-602.8" font-family="Helvetica,sans-Serif" font-size="11.00" fill="#000000">updated_by</text>
<polygon fill="none" stroke="#000000" points="375.5,-595.7 375.5,-617.7 491.5,-617.7 491.5,-595.7 375.5,-595.7"/>
<text text-anchor="start" x="378.5" y="-603.4" font-family="Helvetica,sans-Serif" font-size="11.00" fill="#000000">varchar[2147483647]</text>
<polygon fill="none" stroke="#000000" points="224.5,-573.7 224.5,-595.7 375.5,-595.7 375.5,-573.7 224.5,-573.7"/>
<text text-anchor="start" x="244.5" y="-580.8" font-family="Helvetica,sans-Serif" font-size="11.00" fill="#000000">updated_at</text>
<polygon fill="none" stroke="#000000" points="375.5,-573.7 375.5,-595.7 491.5,-595.7 491.5,-573.7 375.5,-573.7"/>
<text text-anchor="start" x="378.5" y="-581.4" font-family="Helvetica,sans-Serif" font-size="11.00" fill="#000000">timestamp[29,6]</text>
<polygon fill="none" stroke="#000000" points="224.5,-551.7 224.5,-573.7 375.5,-573.7 375.5,-551.7 224.5,-551.7"/>
<text text-anchor="start" x="244.5" y="-558.8" font-family="Helvetica,sans-Serif" font-size="11.00" fill="#000000">roles</text>
<polygon fill="none" stroke="#000000" points="375.5,-551.7 375.5,-573.7 491.5,-573.7 491.5,-551.7 375.5,-551.7"/>
<text text-anchor="start" x="378.4769" y="-559.4" font-family="Helvetica,sans-Serif" font-size="11.00" fill="#000000">_varchar[2147483647]</text>
<polygon fill="#ffffff" stroke="transparent" points="224.5,-532.7 224.5,-551.7 304.5,-551.7 304.5,-532.7 224.5,-532.7"/>
<polygon fill="none" stroke="#000000" points="224.5,-532.7 224.5,-551.7 304.5,-551.7 304.5,-532.7 224.5,-532.7"/>
<text text-anchor="start" x="227.5" y="-538.8" font-family="Helvetica,sans-Serif" font-size="11.00" fill="#000000">&lt; 1</text>
<polygon fill="#ffffff" stroke="transparent" points="304.5,-532.7 304.5,-551.7 375.5,-551.7 375.5,-532.7 304.5,-532.7"/>
<polygon fill="none" stroke="#000000" points="304.5,-532.7 304.5,-551.7 375.5,-551.7 375.5,-532.7 304.5,-532.7"/>
<text text-anchor="start" x="366.3862" y="-538.8" font-family="Helvetica,sans-Serif" font-size="11.00" fill="#000000"> &#160;</text>
<polygon fill="#ffffff" stroke="transparent" points="375.5,-532.7 375.5,-551.7 491.5,-551.7 491.5,-532.7 375.5,-532.7"/>
<polygon fill="none" stroke="#000000" points="375.5,-532.7 375.5,-551.7 491.5,-551.7 491.5,-532.7 375.5,-532.7"/>
<text text-anchor="start" x="472.9053" y="-538.8" font-family="Helvetica,sans-Serif" font-size="11.00" fill="#000000">0 &gt;</text>
<polygon fill="none" stroke="#000000" stroke-width="2" points="223,-531.7 223,-729.7 492,-729.7 492,-531.7 223,-531.7"/>
</a>
</g>
</g>
<!-- package_member_role&#45;&gt;package_group -->
<g id="edge7" class="edge">
<title>package_member_role:w&#45;&gt;package_group:e</title>
<path fill="none" stroke="#000000" d="M210.4616,-668.6965C185.198,-650.1751 217.0017,-573.7 173.5,-573.7"/>
<polygon fill="#000000" stroke="#000000" points="216.8067,-670.506 223.5127,-676.162 220.6534,-671.603 224.5,-672.7 224.5,-672.7 224.5,-672.7 220.6534,-671.603 225.4873,-669.238 216.8067,-670.506 216.8067,-670.506"/>
<ellipse fill="none" stroke="#000000" cx="213.7294" cy="-669.6283" rx="3.2" ry="3.2"/>
</g>
<!-- package_service -->
<g id="node9" class="node">
<title>package_service</title>
<g id="a_node9"><a xlink:href="../../tables/package_service.html" xlink:title="package_service" target="_top">
<polygon fill="#ffffff" stroke="transparent" points="290,-448.2 290,-509.2 425,-509.2 425,-448.2 290,-448.2"/>
<polygon fill="#f5f5f5" stroke="transparent" points="290.5,-485.7 290.5,-508.7 425.5,-508.7 425.5,-485.7 290.5,-485.7"/>
<polygon fill="none" stroke="#000000" points="290.5,-485.7 290.5,-508.7 425.5,-508.7 425.5,-485.7 290.5,-485.7"/>
<text text-anchor="start" x="295.5" y="-494.3" font-family="Helvetica,sans-Serif" font-weight="bold" font-size="11.00" fill="#000000">package_service</text>
<text text-anchor="start" x="391.0219" y="-493.8" font-family="Helvetica,sans-Serif" font-size="11.00" fill="#000000">[table]</text>
<polygon fill="none" stroke="#000000" points="290.5,-466.7 290.5,-485.7 425.5,-485.7 425.5,-466.7 290.5,-466.7"/>
<text text-anchor="start" x="293.5" y="-472.8" font-family="Helvetica,sans-Serif" font-size="11.00" fill="#000000">...</text>
<polygon fill="#ffffff" stroke="transparent" points="290.5,-447.7 290.5,-466.7 356.5,-466.7 356.5,-447.7 290.5,-447.7"/>
<polygon fill="none" stroke="#000000" points="290.5,-447.7 290.5,-466.7 356.5,-466.7 356.5,-447.7 290.5,-447.7"/>
<text text-anchor="start" x="293.5" y="-453.8" font-family="Helvetica,sans-Serif" font-size="11.00" fill="#000000">&lt; 2</text>
<polygon fill="#ffffff" stroke="transparent" points="356.5,-447.7 356.5,-466.7 390.5,-466.7 390.5,-447.7 356.5,-447.7"/>
<polygon fill="none" stroke="#000000" points="356.5,-447.7 356.5,-466.7 390.5,-466.7 390.5,-447.7 356.5,-447.7"/>
<text text-anchor="start" x="381.3862" y="-453.8" font-family="Helvetica,sans-Serif" font-size="11.00" fill="#000000"> &#160;</text>
<polygon fill="#ffffff" stroke="transparent" points="390.5,-447.7 390.5,-466.7 425.5,-466.7 425.5,-447.7 390.5,-447.7"/>
<polygon fill="none" stroke="#000000" points="390.5,-447.7 390.5,-466.7 425.5,-466.7 425.5,-447.7 390.5,-447.7"/>
<text text-anchor="start" x="416.3862" y="-453.8" font-family="Helvetica,sans-Serif" font-size="11.00" fill="#000000"> &#160;</text>
</a>
</g>
</g>
<!-- package_service&#45;&gt;package_group -->
<g id="edge8" class="edge">
<title>package_service:w&#45;&gt;package_group:e</title>
<path fill="none" stroke="#000000" d="M275.9729,-474.5873C248.584,-474.9887 239.4885,-492.1179 214,-514.7 191.8105,-534.3593 203.1456,-567.7 173.5,-573.7"/>
<polygon fill="#000000" stroke="#000000" points="282.5234,-475.089 290.225,-479.2895 286.5117,-475.3945 290.5,-475.7 290.5,-475.7 290.5,-475.7 286.5117,-475.3945 290.775,-472.1105 282.5234,-475.089 282.5234,-475.089"/>
<ellipse fill="none" stroke="#000000" cx="279.3327" cy="-474.8446" rx="3.2" ry="3.2"/>
</g>
<!-- package_service&#45;&gt;package_group -->
<g id="edge9" class="edge">
<title>package_service:w&#45;&gt;package_group:e</title>
<path fill="none" stroke="#000000" d="M276.3459,-479.1051C248.666,-487.8338 239.6038,-505.0157 214,-527.7 191.8105,-547.3593 203.1456,-580.7 173.5,-573.7"/>
<polygon fill="#000000" stroke="#000000" points="282.7219,-477.5712 291.3421,-479.2001 286.611,-476.6356 290.5,-475.7 290.5,-475.7 290.5,-475.7 286.611,-476.6356 289.6579,-472.1999 282.7219,-477.5712 282.7219,-477.5712"/>
<ellipse fill="none" stroke="#000000" cx="279.6107" cy="-478.3197" rx="3.2" ry="3.2"/>
</g>
<!-- published_data -->
<g id="node10" class="node">
<title>published_data</title>
<g id="a_node10"><a xlink:href="../../tables/published_data.html" xlink:title="published_data" target="_top">
<polygon fill="#ffffff" stroke="transparent" points="294,-366.2 294,-427.2 421,-427.2 421,-366.2 294,-366.2"/>
<polygon fill="#f5f5f5" stroke="transparent" points="294.5,-403.7 294.5,-426.7 421.5,-426.7 421.5,-403.7 294.5,-403.7"/>
<polygon fill="none" stroke="#000000" points="294.5,-403.7 294.5,-426.7 421.5,-426.7 421.5,-403.7 294.5,-403.7"/>
<text text-anchor="start" x="299.5" y="-412.3" font-family="Helvetica,sans-Serif" font-weight="bold" font-size="11.00" fill="#000000">published_data</text>
<text text-anchor="start" x="387.0219" y="-411.8" font-family="Helvetica,sans-Serif" font-size="11.00" fill="#000000">[table]</text>
<polygon fill="none" stroke="#000000" points="294.5,-384.7 294.5,-403.7 421.5,-403.7 421.5,-384.7 294.5,-384.7"/>
<text text-anchor="start" x="297.5" y="-390.8" font-family="Helvetica,sans-Serif" font-size="11.00" fill="#000000">...</text>
<polygon fill="#ffffff" stroke="transparent" points="294.5,-365.7 294.5,-384.7 351.5,-384.7 351.5,-365.7 294.5,-365.7"/>
<polygon fill="none" stroke="#000000" points="294.5,-365.7 294.5,-384.7 351.5,-384.7 351.5,-365.7 294.5,-365.7"/>
<text text-anchor="start" x="297.5" y="-371.8" font-family="Helvetica,sans-Serif" font-size="11.00" fill="#000000">&lt; 1</text>
<polygon fill="#ffffff" stroke="transparent" points="351.5,-365.7 351.5,-384.7 381.5,-384.7 381.5,-365.7 351.5,-365.7"/>
<polygon fill="none" stroke="#000000" points="351.5,-365.7 351.5,-384.7 381.5,-384.7 381.5,-365.7 351.5,-365.7"/>
<text text-anchor="start" x="372.3862" y="-371.8" font-family="Helvetica,sans-Serif" font-size="11.00" fill="#000000"> &#160;</text>
<polygon fill="#ffffff" stroke="transparent" points="381.5,-365.7 381.5,-384.7 421.5,-384.7 421.5,-365.7 381.5,-365.7"/>
<polygon fill="none" stroke="#000000" points="381.5,-365.7 381.5,-384.7 421.5,-384.7 421.5,-365.7 381.5,-365.7"/>
<text text-anchor="start" x="402.9053" y="-371.8" font-family="Helvetica,sans-Serif" font-size="11.00" fill="#000000">2 &gt;</text>
</a>
</g>
</g>
<!-- published_data&#45;&gt;package_group -->
<g id="edge10" class="edge">
<title>published_data:w&#45;&gt;package_group:e</title>
<path fill="none" stroke="#000000" d="M279.9805,-394.3282C249.9025,-397.1925 236.3333,-410.0827 214,-437.7 174.3432,-486.7395 236.5677,-573.7 173.5,-573.7"/>
<polygon fill="#000000" stroke="#000000" points="286.5075,-394.0459 294.6556,-397.2966 290.5037,-393.8729 294.5,-393.7 294.5,-393.7 294.5,-393.7 290.5037,-393.8729 294.3444,-390.1034 286.5075,-394.0459 286.5075,-394.0459"/>
<ellipse fill="none" stroke="#000000" cx="283.3105" cy="-394.1842" rx="3.2" ry="3.2"/>
</g>
<!-- published_document_open_count -->
<g id="node11" class="node">
<title>published_document_open_count</title>
<g id="a_node11"><a xlink:href="../../tables/published_document_open_count.html" xlink:title="published_document_open_count" target="_top">
<polygon fill="#ffffff" stroke="transparent" points="240.5,-284.2 240.5,-345.2 474.5,-345.2 474.5,-284.2 240.5,-284.2"/>
<polygon fill="#f5f5f5" stroke="transparent" points="240.5,-321.7 240.5,-344.7 474.5,-344.7 474.5,-321.7 240.5,-321.7"/>
<polygon fill="none" stroke="#000000" points="240.5,-321.7 240.5,-344.7 474.5,-344.7 474.5,-321.7 240.5,-321.7"/>
<text text-anchor="start" x="245.5" y="-330.3" font-family="Helvetica,sans-Serif" font-weight="bold" font-size="11.00" fill="#000000">published_document_open_count</text>
<text text-anchor="start" x="440.0219" y="-329.8" font-family="Helvetica,sans-Serif" font-size="11.00" fill="#000000">[table]</text>
<polygon fill="none" stroke="#000000" points="240.5,-302.7 240.5,-321.7 474.5,-321.7 474.5,-302.7 240.5,-302.7"/>
<text text-anchor="start" x="243.5" y="-308.8" font-family="Helvetica,sans-Serif" font-size="11.00" fill="#000000">...</text>
<polygon fill="#ffffff" stroke="transparent" points="240.5,-283.7 240.5,-302.7 355.5,-302.7 355.5,-283.7 240.5,-283.7"/>
<polygon fill="none" stroke="#000000" points="240.5,-283.7 240.5,-302.7 355.5,-302.7 355.5,-283.7 240.5,-283.7"/>
<text text-anchor="start" x="243.5" y="-289.8" font-family="Helvetica,sans-Serif" font-size="11.00" fill="#000000">&lt; 1</text>
<polygon fill="#ffffff" stroke="transparent" points="355.5,-283.7 355.5,-302.7 414.5,-302.7 414.5,-283.7 355.5,-283.7"/>
<polygon fill="none" stroke="#000000" points="355.5,-283.7 355.5,-302.7 414.5,-302.7 414.5,-283.7 355.5,-283.7"/>
<text text-anchor="start" x="405.3862" y="-289.8" font-family="Helvetica,sans-Serif" font-size="11.00" fill="#000000"> &#160;</text>
<polygon fill="#ffffff" stroke="transparent" points="414.5,-283.7 414.5,-302.7 474.5,-302.7 474.5,-283.7 414.5,-283.7"/>
<polygon fill="none" stroke="#000000" points="414.5,-283.7 414.5,-302.7 474.5,-302.7 474.5,-283.7 414.5,-283.7"/>
<text text-anchor="start" x="465.3862" y="-289.8" font-family="Helvetica,sans-Serif" font-size="11.00" fill="#000000"> &#160;</text>
</a>
</g>
</g>
<!-- published_document_open_count&#45;&gt;package_group -->
<g id="edge11" class="edge">
<title>published_document_open_count:w&#45;&gt;package_group:e</title>
<path fill="none" stroke="#000000" d="M226.8813,-317.6645C189.0476,-356.6633 228.1966,-573.7 173.5,-573.7"/>
<polygon fill="#000000" stroke="#000000" points="233.172,-314.9094 241.9442,-314.9976 236.836,-313.3047 240.5,-311.7 240.5,-311.7 240.5,-311.7 236.836,-313.3047 239.0558,-308.4024 233.172,-314.9094 233.172,-314.9094"/>
<ellipse fill="none" stroke="#000000" cx="230.2408" cy="-316.1932" rx="3.2" ry="3.2"/>
</g>
<!-- published_version -->
<g id="node12" class="node">
<title>published_version</title>
<g id="a_node12"><a xlink:href="../../tables/published_version.html" xlink:title="published_version" target="_top">
<polygon fill="#ffffff" stroke="transparent" points="285,-202.2 285,-263.2 430,-263.2 430,-202.2 285,-202.2"/>
<polygon fill="#f5f5f5" stroke="transparent" points="285.5,-239.7 285.5,-262.7 430.5,-262.7 430.5,-239.7 285.5,-239.7"/>
<polygon fill="none" stroke="#000000" points="285.5,-239.7 285.5,-262.7 430.5,-262.7 430.5,-239.7 285.5,-239.7"/>
<text text-anchor="start" x="290.5" y="-248.3" font-family="Helvetica,sans-Serif" font-weight="bold" font-size="11.00" fill="#000000">published_version</text>
<text text-anchor="start" x="396.0219" y="-247.8" font-family="Helvetica,sans-Serif" font-size="11.00" fill="#000000">[table]</text>
<polygon fill="none" stroke="#000000" points="285.5,-220.7 285.5,-239.7 430.5,-239.7 430.5,-220.7 285.5,-220.7"/>
<text text-anchor="start" x="288.5" y="-226.8" font-family="Helvetica,sans-Serif" font-size="11.00" fill="#000000">...</text>
<polygon fill="#ffffff" stroke="transparent" points="285.5,-201.7 285.5,-220.7 348.5,-220.7 348.5,-201.7 285.5,-201.7"/>
<polygon fill="none" stroke="#000000" points="285.5,-201.7 285.5,-220.7 348.5,-220.7 348.5,-201.7 285.5,-201.7"/>
<text text-anchor="start" x="288.5" y="-207.8" font-family="Helvetica,sans-Serif" font-size="11.00" fill="#000000">&lt; 1</text>
<polygon fill="#ffffff" stroke="transparent" points="348.5,-201.7 348.5,-220.7 381.5,-220.7 381.5,-201.7 348.5,-201.7"/>
<polygon fill="none" stroke="#000000" points="348.5,-201.7 348.5,-220.7 381.5,-220.7 381.5,-201.7 348.5,-201.7"/>
<text text-anchor="start" x="372.3862" y="-207.8" font-family="Helvetica,sans-Serif" font-size="11.00" fill="#000000"> &#160;</text>
<polygon fill="#ffffff" stroke="transparent" points="381.5,-201.7 381.5,-220.7 430.5,-220.7 430.5,-201.7 381.5,-201.7"/>
<polygon fill="none" stroke="#000000" points="381.5,-201.7 381.5,-220.7 430.5,-220.7 430.5,-201.7 381.5,-201.7"/>
<text text-anchor="start" x="405.7904" y="-207.8" font-family="Helvetica,sans-Serif" font-size="11.00" fill="#000000">18 &gt;</text>
</a>
</g>
</g>
<!-- published_version&#45;&gt;package_group -->
<g id="edge12" class="edge">
<title>published_version:w&#45;&gt;package_group:e</title>
<path fill="none" stroke="#000000" d="M271.0677,-230.4709C244.1653,-233.6448 231.4832,-246.8198 214,-273.7 177.3215,-330.0927 240.7714,-573.7 173.5,-573.7"/>
<polygon fill="#000000" stroke="#000000" points="277.5114,-230.1268 285.6921,-233.2949 281.5057,-229.9134 285.5,-229.7 285.5,-229.7 285.5,-229.7 281.5057,-229.9134 285.3079,-226.1051 277.5114,-230.1268 277.5114,-230.1268"/>
<ellipse fill="none" stroke="#000000" cx="274.3159" cy="-230.2975" rx="3.2" ry="3.2"/>
</g>
<!-- published_version_open_count -->
<g id="node13" class="node">
<title>published_version_open_count</title>
<g id="a_node13"><a xlink:href="../../tables/published_version_open_count.html" xlink:title="published_version_open_count" target="_top">
<polygon fill="#ffffff" stroke="transparent" points="248,-120.2 248,-181.2 467,-181.2 467,-120.2 248,-120.2"/>
<polygon fill="#f5f5f5" stroke="transparent" points="248.5,-157.7 248.5,-180.7 467.5,-180.7 467.5,-157.7 248.5,-157.7"/>
<polygon fill="none" stroke="#000000" points="248.5,-157.7 248.5,-180.7 467.5,-180.7 467.5,-157.7 248.5,-157.7"/>
<text text-anchor="start" x="253.5" y="-166.3" font-family="Helvetica,sans-Serif" font-weight="bold" font-size="11.00" fill="#000000">published_version_open_count</text>
<text text-anchor="start" x="433.0219" y="-165.8" font-family="Helvetica,sans-Serif" font-size="11.00" fill="#000000">[table]</text>
<polygon fill="none" stroke="#000000" points="248.5,-138.7 248.5,-157.7 467.5,-157.7 467.5,-138.7 248.5,-138.7"/>
<text text-anchor="start" x="251.5" y="-144.8" font-family="Helvetica,sans-Serif" font-size="11.00" fill="#000000">...</text>
<polygon fill="#ffffff" stroke="transparent" points="248.5,-119.7 248.5,-138.7 356.5,-138.7 356.5,-119.7 248.5,-119.7"/>
<polygon fill="none" stroke="#000000" points="248.5,-119.7 248.5,-138.7 356.5,-138.7 356.5,-119.7 248.5,-119.7"/>
<text text-anchor="start" x="251.5" y="-125.8" font-family="Helvetica,sans-Serif" font-size="11.00" fill="#000000">&lt; 1</text>
<polygon fill="#ffffff" stroke="transparent" points="356.5,-119.7 356.5,-138.7 411.5,-138.7 411.5,-119.7 356.5,-119.7"/>
<polygon fill="none" stroke="#000000" points="356.5,-119.7 356.5,-138.7 411.5,-138.7 411.5,-119.7 356.5,-119.7"/>
<text text-anchor="start" x="402.3862" y="-125.8" font-family="Helvetica,sans-Serif" font-size="11.00" fill="#000000"> &#160;</text>
<polygon fill="#ffffff" stroke="transparent" points="411.5,-119.7 411.5,-138.7 467.5,-138.7 467.5,-119.7 411.5,-119.7"/>
<polygon fill="none" stroke="#000000" points="411.5,-119.7 411.5,-138.7 467.5,-138.7 467.5,-119.7 411.5,-119.7"/>
<text text-anchor="start" x="458.3862" y="-125.8" font-family="Helvetica,sans-Serif" font-size="11.00" fill="#000000"> &#160;</text>
</a>
</g>
</g>
<!-- published_version_open_count&#45;&gt;package_group -->
<g id="edge13" class="edge">
<title>published_version_open_count:w&#45;&gt;package_group:e</title>
<path fill="none" stroke="#000000" d="M234.2861,-151.1216C222.9699,-157.9788 221.0776,-174.2488 214,-191.7 197.9586,-231.2532 216.1823,-573.7 173.5,-573.7"/>
<polygon fill="#000000" stroke="#000000" points="240.7222,-149.5723 249.3425,-151.2 244.6111,-148.6362 248.5,-147.7 248.5,-147.7 248.5,-147.7 244.6111,-148.6362 247.6575,-144.2 240.7222,-149.5723 240.7222,-149.5723"/>
<ellipse fill="none" stroke="#000000" cx="237.611" cy="-150.3212" rx="3.2" ry="3.2"/>
</g>
<!-- shared_url_info -->
<g id="node14" class="node">
<title>shared_url_info</title>
<g id="a_node14"><a xlink:href="../../tables/shared_url_info.html" xlink:title="shared_url_info" target="_top">
<polygon fill="#ffffff" stroke="transparent" points="293,-38.2 293,-99.2 422,-99.2 422,-38.2 293,-38.2"/>
<polygon fill="#f5f5f5" stroke="transparent" points="293.5,-75.7 293.5,-98.7 422.5,-98.7 422.5,-75.7 293.5,-75.7"/>
<polygon fill="none" stroke="#000000" points="293.5,-75.7 293.5,-98.7 422.5,-98.7 422.5,-75.7 293.5,-75.7"/>
<text text-anchor="start" x="298.5" y="-84.3" font-family="Helvetica,sans-Serif" font-weight="bold" font-size="11.00" fill="#000000">shared_url_info</text>
<text text-anchor="start" x="388.0219" y="-83.8" font-family="Helvetica,sans-Serif" font-size="11.00" fill="#000000">[table]</text>
<polygon fill="none" stroke="#000000" points="293.5,-56.7 293.5,-75.7 422.5,-75.7 422.5,-56.7 293.5,-56.7"/>
<text text-anchor="start" x="296.5" y="-62.8" font-family="Helvetica,sans-Serif" font-size="11.00" fill="#000000">...</text>
<polygon fill="#ffffff" stroke="transparent" points="293.5,-37.7 293.5,-56.7 356.5,-56.7 356.5,-37.7 293.5,-37.7"/>
<polygon fill="none" stroke="#000000" points="293.5,-37.7 293.5,-56.7 356.5,-56.7 356.5,-37.7 293.5,-37.7"/>
<text text-anchor="start" x="296.5" y="-43.8" font-family="Helvetica,sans-Serif" font-size="11.00" fill="#000000">&lt; 1</text>
<polygon fill="#ffffff" stroke="transparent" points="356.5,-37.7 356.5,-56.7 389.5,-56.7 389.5,-37.7 356.5,-37.7"/>
<polygon fill="none" stroke="#000000" points="356.5,-37.7 356.5,-56.7 389.5,-56.7 389.5,-37.7 356.5,-37.7"/>
<text text-anchor="start" x="380.3862" y="-43.8" font-family="Helvetica,sans-Serif" font-size="11.00" fill="#000000"> &#160;</text>
<polygon fill="#ffffff" stroke="transparent" points="389.5,-37.7 389.5,-56.7 422.5,-56.7 422.5,-37.7 389.5,-37.7"/>
<polygon fill="none" stroke="#000000" points="389.5,-37.7 389.5,-56.7 422.5,-56.7 422.5,-37.7 389.5,-37.7"/>
<text text-anchor="start" x="413.3862" y="-43.8" font-family="Helvetica,sans-Serif" font-size="11.00" fill="#000000"> &#160;</text>
</a>
</g>
</g>
<!-- shared_url_info&#45;&gt;package_group -->
<g id="edge14" class="edge">
<title>shared_url_info:w&#45;&gt;package_group:e</title>
<path fill="none" stroke="#000000" d="M278.9825,-66.2344C248.6227,-68.7075 233.166,-80.2014 214,-109.7 185.8044,-153.0962 225.2516,-573.7 173.5,-573.7"/>
<polygon fill="#000000" stroke="#000000" points="285.5054,-65.9943 293.6325,-69.2976 289.5027,-65.8472 293.5,-65.7 293.5,-65.7 293.5,-65.7 289.5027,-65.8472 293.3675,-62.1024 285.5054,-65.9943 285.5054,-65.9943"/>
<ellipse fill="none" stroke="#000000" cx="282.3076" cy="-66.1121" rx="3.2" ry="3.2"/>
</g>
</g>
</svg>
