<?xml version="1.0" encoding="UTF-8" standalone="no"?>
<!DOCTYPE svg PUBLIC "-//W3C//DTD SVG 1.1//EN"
 "http://www.w3.org/Graphics/SVG/1.1/DTD/svg11.dtd">
<!-- Generated by graphviz version 2.40.1 (20161225.0304)
 -->
<!-- Title: oneDegreeRelationshipsDiagram Pages: 1 -->
<svg width="519pt" height="157pt"
 viewBox="0.00 0.00 519.00 156.70" xmlns="http://www.w3.org/2000/svg" xmlns:xlink="http://www.w3.org/1999/xlink">
<g id="graph0" class="graph" transform="scale(1 1) rotate(0) translate(4 152.7)">
<title>oneDegreeRelationshipsDiagram</title>
<polygon fill="#ffffff" stroke="transparent" points="-4,4 -4,-152.7 515,-152.7 515,4 -4,4"/>
<text text-anchor="middle" x="72.4936" y="-7.3" font-family="Helvetica,sans-Serif" font-size="11.00" fill="#000000">Generated by SchemaSpy</text>
<!-- package_export_config -->
<g id="node1" class="node">
<title>package_export_config</title>
<g id="a_node1"><a xlink:href="../../tables/package_export_config.html" xlink:title="package_export_config" target="_top">
<polygon fill="#ffffff" stroke="transparent" points="222,-54.7 222,-144.7 503,-144.7 503,-54.7 222,-54.7"/>
<polygon fill="#f5f5f5" stroke="transparent" points="224.5,-119.7 224.5,-142.7 501.5,-142.7 501.5,-119.7 224.5,-119.7"/>
<polygon fill="none" stroke="#000000" points="224.5,-119.7 224.5,-142.7 501.5,-142.7 501.5,-119.7 224.5,-119.7"/>
<text text-anchor="start" x="229.5" y="-128.3" font-family="Helvetica,sans-Serif" font-weight="bold" font-size="11.00" fill="#000000">package_export_config</text>
<text text-anchor="start" x="466.5437" y="-127.8" font-family="Helvetica,sans-Serif" font-size="11.00" fill="#000000">[table]</text>
<polygon fill="#ffffff" stroke="transparent" points="224.5,-97.7 224.5,-119.7 385.5,-119.7 385.5,-97.7 224.5,-97.7"/>
<polygon fill="none" stroke="#000000" points="224.5,-97.7 224.5,-119.7 385.5,-119.7 385.5,-97.7 224.5,-97.7"/>
<image xlink:href="../../images/foreignKeys.png" width="11px" height="12px" preserveAspectRatio="xMinYMin meet" x="229.5" y="-114.7"/>
<text text-anchor="start" x="244.5" y="-104.8" font-family="Helvetica,sans-Serif" font-size="11.00" fill="#000000">package_id</text>
<polygon fill="none" stroke="#000000" points="385.5,-97.7 385.5,-119.7 501.5,-119.7 501.5,-97.7 385.5,-97.7"/>
<text text-anchor="start" x="388.5" y="-105.4" font-family="Helvetica,sans-Serif" font-size="11.00" fill="#000000">varchar[2147483647]</text>
<polygon fill="none" stroke="#000000" points="224.5,-75.7 224.5,-97.7 385.5,-97.7 385.5,-75.7 224.5,-75.7"/>
<text text-anchor="start" x="244.5" y="-82.8" font-family="Helvetica,sans-Serif" font-size="11.00" fill="#000000">allowed_oas_extensions</text>
<polygon fill="none" stroke="#000000" points="385.5,-75.7 385.5,-97.7 501.5,-97.7 501.5,-75.7 385.5,-75.7"/>
<text text-anchor="start" x="388.4769" y="-83.4" font-family="Helvetica,sans-Serif" font-size="11.00" fill="#000000">_varchar[2147483647]</text>
<polygon fill="#ffffff" stroke="transparent" points="224.5,-56.7 224.5,-75.7 309.5,-75.7 309.5,-56.7 224.5,-56.7"/>
<polygon fill="none" stroke="#000000" points="224.5,-56.7 224.5,-75.7 309.5,-75.7 309.5,-56.7 224.5,-56.7"/>
<text text-anchor="start" x="227.5" y="-62.8" font-family="Helvetica,sans-Serif" font-size="11.00" fill="#000000">&lt; 1</text>
<polygon fill="#ffffff" stroke="transparent" points="309.5,-56.7 309.5,-75.7 385.5,-75.7 385.5,-56.7 309.5,-56.7"/>
<polygon fill="none" stroke="#000000" points="309.5,-56.7 309.5,-75.7 385.5,-75.7 385.5,-56.7 309.5,-56.7"/>
<text text-anchor="start" x="376.3862" y="-62.8" font-family="Helvetica,sans-Serif" font-size="11.00" fill="#000000"> &#160;</text>
<polygon fill="#ffffff" stroke="transparent" points="385.5,-56.7 385.5,-75.7 501.5,-75.7 501.5,-56.7 385.5,-56.7"/>
<polygon fill="none" stroke="#000000" points="385.5,-56.7 385.5,-75.7 501.5,-75.7 501.5,-56.7 385.5,-56.7"/>
<text text-anchor="start" x="482.9053" y="-62.8" font-family="Helvetica,sans-Serif" font-size="11.00" fill="#000000">0 &gt;</text>
<polygon fill="none" stroke="#000000" stroke-width="2" points="223,-55.7 223,-143.7 502,-143.7 502,-55.7 223,-55.7"/>
</a>
</g>
</g>
<!-- package_group -->
<g id="node2" class="node">
<title>package_group</title>
<g id="a_node2"><a xlink:href="../../tables/package_group.html" xlink:title="package_group" target="_top">
<polygon fill="#ffffff" stroke="transparent" points="8,-38.2 8,-143.2 173,-143.2 173,-38.2 8,-38.2"/>
<polygon fill="#f5f5f5" stroke="transparent" points="8.5,-119.7 8.5,-142.7 173.5,-142.7 173.5,-119.7 8.5,-119.7"/>
<polygon fill="none" stroke="#000000" points="8.5,-119.7 8.5,-142.7 173.5,-142.7 173.5,-119.7 8.5,-119.7"/>
<text text-anchor="start" x="13.5" y="-128.3" font-family="Helvetica,sans-Serif" font-weight="bold" font-size="11.00" fill="#000000">package_group</text>
<text text-anchor="start" x="138.5437" y="-127.8" font-family="Helvetica,sans-Serif" font-size="11.00" fill="#000000">[table]</text>
<polygon fill="none" stroke="#000000" points="8.5,-97.7 8.5,-119.7 173.5,-119.7 173.5,-97.7 8.5,-97.7"/>
<image xlink:href="../../images/primaryKeys.png" width="11px" height="12px" preserveAspectRatio="xMinYMin meet" x="13.5" y="-114.7"/>
<text text-anchor="start" x="28.5" y="-104.8" font-family="Helvetica,sans-Serif" font-size="11.00" fill="#000000">id</text>
<polygon fill="none" stroke="#000000" points="8.5,-75.7 8.5,-97.7 173.5,-97.7 173.5,-75.7 8.5,-75.7"/>
<image xlink:href="../../images/foreignKeys.png" width="11px" height="12px" preserveAspectRatio="xMinYMin meet" x="13.5" y="-92.7"/>
<text text-anchor="start" x="28.5" y="-82.8" font-family="Helvetica,sans-Serif" font-size="11.00" fill="#000000">parent_id</text>
<polygon fill="none" stroke="#000000" points="8.5,-56.7 8.5,-75.7 173.5,-75.7 173.5,-56.7 8.5,-56.7"/>
<text text-anchor="start" x="11.5" y="-62.8" font-family="Helvetica,sans-Serif" font-size="11.00" fill="#000000">...</text>
<polygon fill="#ffffff" stroke="transparent" points="8.5,-37.7 8.5,-56.7 81.5,-56.7 81.5,-37.7 8.5,-37.7"/>
<polygon fill="none" stroke="#000000" points="8.5,-37.7 8.5,-56.7 81.5,-56.7 81.5,-37.7 8.5,-37.7"/>
<text text-anchor="start" x="11.5" y="-43.8" font-family="Helvetica,sans-Serif" font-size="11.00" fill="#000000">&lt; 1</text>
<polygon fill="#ffffff" stroke="transparent" points="81.5,-37.7 81.5,-56.7 119.5,-56.7 119.5,-37.7 81.5,-37.7"/>
<polygon fill="none" stroke="#000000" points="81.5,-37.7 81.5,-56.7 119.5,-56.7 119.5,-37.7 81.5,-37.7"/>
<text text-anchor="start" x="110.3862" y="-43.8" font-family="Helvetica,sans-Serif" font-size="11.00" fill="#000000"> &#160;</text>
<polygon fill="#ffffff" stroke="transparent" points="119.5,-37.7 119.5,-56.7 173.5,-56.7 173.5,-37.7 119.5,-37.7"/>
<polygon fill="none" stroke="#000000" points="119.5,-37.7 119.5,-56.7 173.5,-56.7 173.5,-37.7 119.5,-37.7"/>
<text text-anchor="start" x="148.7904" y="-43.8" font-family="Helvetica,sans-Serif" font-size="11.00" fill="#000000">14 &gt;</text>
</a>
</g>
</g>
<!-- package_export_config&#45;&gt;package_group -->
<g id="edge1" class="edge">
<title>package_export_config:w&#45;&gt;package_group:e</title>
<path fill="none" stroke="#000000" d="M213.7307,-108.7C199.248,-108.7 192.0938,-108.7 173.5,-108.7"/>
<polygon fill="#000000" stroke="#000000" points="223.7,-104.7 223.7,-112.7 222.1,-112.7 222.1,-104.7 223.7,-104.7"/>
<polyline fill="none" stroke="#000000" points="224.5,-108.7 220.5,-108.7 "/>
<ellipse fill="none" stroke="#000000" cx="217.3" cy="-108.7001" rx="3.2" ry="3.2"/>
</g>
</g>
</svg>
