<?xml version="1.0" encoding="UTF-8" standalone="no"?>
<!DOCTYPE svg PUBLIC "-//W3C//DTD SVG 1.1//EN"
 "http://www.w3.org/Graphics/SVG/1.1/DTD/svg11.dtd">
<!-- Generated by graphviz version 2.40.1 (20161225.0304)
 -->
<!-- Title: twoDegreesRelationshipsDiagram Pages: 1 -->
<svg width="472pt" height="1147pt"
 viewBox="0.00 0.00 472.00 1147.20" xmlns="http://www.w3.org/2000/svg" xmlns:xlink="http://www.w3.org/1999/xlink">
<g id="graph0" class="graph" transform="scale(1 1) rotate(0) translate(4 1143.2)">
<title>twoDegreesRelationshipsDiagram</title>
<polygon fill="#ffffff" stroke="transparent" points="-4,4 -4,-1143.2 468,-1143.2 468,4 -4,4"/>
<text text-anchor="middle" x="72.4936" y="-7.3" font-family="Helvetica,sans-Serif" font-size="11.00" fill="#000000">Generated by SchemaSpy</text>
<!-- activity_tracking -->
<g id="node1" class="node">
<title>activity_tracking</title>
<g id="a_node1"><a xlink:href="../../tables/activity_tracking.html" xlink:title="activity_tracking" target="_top">
<polygon fill="#ffffff" stroke="transparent" points="272.5,-1074.2 272.5,-1135.2 405.5,-1135.2 405.5,-1074.2 272.5,-1074.2"/>
<polygon fill="#f5f5f5" stroke="transparent" points="273,-1111.7 273,-1134.7 406,-1134.7 406,-1111.7 273,-1111.7"/>
<polygon fill="none" stroke="#000000" points="273,-1111.7 273,-1134.7 406,-1134.7 406,-1111.7 273,-1111.7"/>
<text text-anchor="start" x="278" y="-1120.3" font-family="Helvetica,sans-Serif" font-weight="bold" font-size="11.00" fill="#000000">activity_tracking</text>
<text text-anchor="start" x="371.5219" y="-1119.8" font-family="Helvetica,sans-Serif" font-size="11.00" fill="#000000">[table]</text>
<polygon fill="none" stroke="#000000" points="273,-1092.7 273,-1111.7 406,-1111.7 406,-1092.7 273,-1092.7"/>
<text text-anchor="start" x="276" y="-1098.8" font-family="Helvetica,sans-Serif" font-size="11.00" fill="#000000">...</text>
<polygon fill="#ffffff" stroke="transparent" points="273,-1073.7 273,-1092.7 338,-1092.7 338,-1073.7 273,-1073.7"/>
<polygon fill="none" stroke="#000000" points="273,-1073.7 273,-1092.7 338,-1092.7 338,-1073.7 273,-1073.7"/>
<text text-anchor="start" x="276" y="-1079.8" font-family="Helvetica,sans-Serif" font-size="11.00" fill="#000000">&lt; 1</text>
<polygon fill="#ffffff" stroke="transparent" points="338,-1073.7 338,-1092.7 372,-1092.7 372,-1073.7 338,-1073.7"/>
<polygon fill="none" stroke="#000000" points="338,-1073.7 338,-1092.7 372,-1092.7 372,-1073.7 338,-1073.7"/>
<text text-anchor="start" x="362.8862" y="-1079.8" font-family="Helvetica,sans-Serif" font-size="11.00" fill="#000000"> &#160;</text>
<polygon fill="#ffffff" stroke="transparent" points="372,-1073.7 372,-1092.7 406,-1092.7 406,-1073.7 372,-1073.7"/>
<polygon fill="none" stroke="#000000" points="372,-1073.7 372,-1092.7 406,-1092.7 406,-1073.7 372,-1073.7"/>
<text text-anchor="start" x="396.8862" y="-1079.8" font-family="Helvetica,sans-Serif" font-size="11.00" fill="#000000"> &#160;</text>
</a>
</g>
</g>
<!-- package_group -->
<g id="node2" class="node">
<title>package_group</title>
<g id="a_node2"><a xlink:href="../../tables/package_group.html" xlink:title="package_group" target="_top">
<polygon fill="#ffffff" stroke="transparent" points="8,-496.2 8,-601.2 173,-601.2 173,-496.2 8,-496.2"/>
<polygon fill="#f5f5f5" stroke="transparent" points="8.5,-577.7 8.5,-600.7 173.5,-600.7 173.5,-577.7 8.5,-577.7"/>
<polygon fill="none" stroke="#000000" points="8.5,-577.7 8.5,-600.7 173.5,-600.7 173.5,-577.7 8.5,-577.7"/>
<text text-anchor="start" x="13.5" y="-586.3" font-family="Helvetica,sans-Serif" font-weight="bold" font-size="11.00" fill="#000000">package_group</text>
<text text-anchor="start" x="138.5437" y="-585.8" font-family="Helvetica,sans-Serif" font-size="11.00" fill="#000000">[table]</text>
<polygon fill="none" stroke="#000000" points="8.5,-555.7 8.5,-577.7 173.5,-577.7 173.5,-555.7 8.5,-555.7"/>
<image xlink:href="../../images/primaryKeys.png" width="11px" height="12px" preserveAspectRatio="xMinYMin meet" x="13.5" y="-572.7"/>
<text text-anchor="start" x="28.5" y="-562.8" font-family="Helvetica,sans-Serif" font-size="11.00" fill="#000000">id</text>
<polygon fill="none" stroke="#000000" points="8.5,-533.7 8.5,-555.7 173.5,-555.7 173.5,-533.7 8.5,-533.7"/>
<image xlink:href="../../images/foreignKeys.png" width="11px" height="12px" preserveAspectRatio="xMinYMin meet" x="13.5" y="-550.7"/>
<text text-anchor="start" x="28.5" y="-540.8" font-family="Helvetica,sans-Serif" font-size="11.00" fill="#000000">parent_id</text>
<polygon fill="none" stroke="#000000" points="8.5,-514.7 8.5,-533.7 173.5,-533.7 173.5,-514.7 8.5,-514.7"/>
<text text-anchor="start" x="11.5" y="-520.8" font-family="Helvetica,sans-Serif" font-size="11.00" fill="#000000">...</text>
<polygon fill="#ffffff" stroke="transparent" points="8.5,-495.7 8.5,-514.7 81.5,-514.7 81.5,-495.7 8.5,-495.7"/>
<polygon fill="none" stroke="#000000" points="8.5,-495.7 8.5,-514.7 81.5,-514.7 81.5,-495.7 8.5,-495.7"/>
<text text-anchor="start" x="11.5" y="-501.8" font-family="Helvetica,sans-Serif" font-size="11.00" fill="#000000">&lt; 1</text>
<polygon fill="#ffffff" stroke="transparent" points="81.5,-495.7 81.5,-514.7 119.5,-514.7 119.5,-495.7 81.5,-495.7"/>
<polygon fill="none" stroke="#000000" points="81.5,-495.7 81.5,-514.7 119.5,-514.7 119.5,-495.7 81.5,-495.7"/>
<text text-anchor="start" x="110.3862" y="-501.8" font-family="Helvetica,sans-Serif" font-size="11.00" fill="#000000"> &#160;</text>
<polygon fill="#ffffff" stroke="transparent" points="119.5,-495.7 119.5,-514.7 173.5,-514.7 173.5,-495.7 119.5,-495.7"/>
<polygon fill="none" stroke="#000000" points="119.5,-495.7 119.5,-514.7 173.5,-514.7 173.5,-495.7 119.5,-495.7"/>
<text text-anchor="start" x="148.7904" y="-501.8" font-family="Helvetica,sans-Serif" font-size="11.00" fill="#000000">15 &gt;</text>
</a>
</g>
</g>
<!-- activity_tracking&#45;&gt;package_group -->
<g id="edge1" class="edge">
<title>activity_tracking:w&#45;&gt;package_group:e</title>
<path fill="none" stroke="#000000" d="M258.5179,-1100.6816C237.6362,-1097.3758 227.2789,-1085.8548 214,-1063.7 185.5162,-1016.1772 228.9053,-566.7 173.5,-566.7"/>
<polygon fill="#000000" stroke="#000000" points="265.0197,-1101.1388 272.7475,-1105.2911 269.0099,-1101.4194 273,-1101.7 273,-1101.7 273,-1101.7 269.0099,-1101.4194 273.2525,-1098.1089 265.0197,-1101.1388 265.0197,-1101.1388"/>
<ellipse fill="none" stroke="#000000" cx="261.8276" cy="-1100.9143" rx="3.2" ry="3.2"/>
</g>
<!-- build -->
<g id="node3" class="node">
<title>build</title>
<g id="a_node3"><a xlink:href="../../tables/build.html" xlink:title="build" target="_top">
<polygon fill="#ffffff" stroke="transparent" points="305.5,-992.2 305.5,-1053.2 372.5,-1053.2 372.5,-992.2 305.5,-992.2"/>
<polygon fill="#f5f5f5" stroke="transparent" points="306,-1029.7 306,-1052.7 373,-1052.7 373,-1029.7 306,-1029.7"/>
<polygon fill="none" stroke="#000000" points="306,-1029.7 306,-1052.7 373,-1052.7 373,-1029.7 306,-1029.7"/>
<text text-anchor="start" x="311" y="-1038.3" font-family="Helvetica,sans-Serif" font-weight="bold" font-size="11.00" fill="#000000">build</text>
<text text-anchor="start" x="338.5219" y="-1037.8" font-family="Helvetica,sans-Serif" font-size="11.00" fill="#000000">[table]</text>
<polygon fill="none" stroke="#000000" points="306,-1010.7 306,-1029.7 373,-1029.7 373,-1010.7 306,-1010.7"/>
<text text-anchor="start" x="309" y="-1016.8" font-family="Helvetica,sans-Serif" font-size="11.00" fill="#000000">...</text>
<polygon fill="#ffffff" stroke="transparent" points="306,-991.7 306,-1010.7 333,-1010.7 333,-991.7 306,-991.7"/>
<polygon fill="none" stroke="#000000" points="306,-991.7 306,-1010.7 333,-1010.7 333,-991.7 306,-991.7"/>
<text text-anchor="start" x="309" y="-997.8" font-family="Helvetica,sans-Serif" font-size="11.00" fill="#000000">&lt; 1</text>
<polygon fill="#ffffff" stroke="transparent" points="333,-991.7 333,-1010.7 348,-1010.7 348,-991.7 333,-991.7"/>
<polygon fill="none" stroke="#000000" points="333,-991.7 333,-1010.7 348,-1010.7 348,-991.7 333,-991.7"/>
<text text-anchor="start" x="338.8862" y="-997.8" font-family="Helvetica,sans-Serif" font-size="11.00" fill="#000000"> &#160;</text>
<polygon fill="#ffffff" stroke="transparent" points="348,-991.7 348,-1010.7 373,-1010.7 373,-991.7 348,-991.7"/>
<polygon fill="none" stroke="#000000" points="348,-991.7 348,-1010.7 373,-1010.7 373,-991.7 348,-991.7"/>
<text text-anchor="start" x="354.4053" y="-997.8" font-family="Helvetica,sans-Serif" font-size="11.00" fill="#000000">5 &gt;</text>
</a>
</g>
</g>
<!-- build&#45;&gt;package_group -->
<g id="edge2" class="edge">
<title>build:w&#45;&gt;package_group:e</title>
<path fill="none" stroke="#000000" d="M291.3431,-1019.5491C256.6757,-1018.6675 237.2668,-1013.0682 214,-981.7 158.7983,-907.2775 266.1603,-566.7 173.5,-566.7"/>
<polygon fill="#000000" stroke="#000000" points="298.0004,-1019.6176 305.9629,-1023.2998 302.0002,-1019.6588 306,-1019.7 306,-1019.7 306,-1019.7 302.0002,-1019.6588 306.0371,-1016.1002 298.0004,-1019.6176 298.0004,-1019.6176"/>
<ellipse fill="none" stroke="#000000" cx="294.8006" cy="-1019.5846" rx="3.2" ry="3.2"/>
</g>
<!-- favorite_packages -->
<g id="node4" class="node">
<title>favorite_packages</title>
<g id="a_node4"><a xlink:href="../../tables/favorite_packages.html" xlink:title="favorite_packages" target="_top">
<polygon fill="#ffffff" stroke="transparent" points="267.5,-910.2 267.5,-971.2 410.5,-971.2 410.5,-910.2 267.5,-910.2"/>
<polygon fill="#f5f5f5" stroke="transparent" points="268,-947.7 268,-970.7 411,-970.7 411,-947.7 268,-947.7"/>
<polygon fill="none" stroke="#000000" points="268,-947.7 268,-970.7 411,-970.7 411,-947.7 268,-947.7"/>
<text text-anchor="start" x="273" y="-956.3" font-family="Helvetica,sans-Serif" font-weight="bold" font-size="11.00" fill="#000000">favorite_packages</text>
<text text-anchor="start" x="376.5219" y="-955.8" font-family="Helvetica,sans-Serif" font-size="11.00" fill="#000000">[table]</text>
<polygon fill="none" stroke="#000000" points="268,-928.7 268,-947.7 411,-947.7 411,-928.7 268,-928.7"/>
<text text-anchor="start" x="271" y="-934.8" font-family="Helvetica,sans-Serif" font-size="11.00" fill="#000000">...</text>
<polygon fill="#ffffff" stroke="transparent" points="268,-909.7 268,-928.7 338,-928.7 338,-909.7 268,-909.7"/>
<polygon fill="none" stroke="#000000" points="268,-909.7 268,-928.7 338,-928.7 338,-909.7 268,-909.7"/>
<text text-anchor="start" x="271" y="-915.8" font-family="Helvetica,sans-Serif" font-size="11.00" fill="#000000">&lt; 2</text>
<polygon fill="#ffffff" stroke="transparent" points="338,-909.7 338,-928.7 374,-928.7 374,-909.7 338,-909.7"/>
<polygon fill="none" stroke="#000000" points="338,-909.7 338,-928.7 374,-928.7 374,-909.7 338,-909.7"/>
<text text-anchor="start" x="364.8862" y="-915.8" font-family="Helvetica,sans-Serif" font-size="11.00" fill="#000000"> &#160;</text>
<polygon fill="#ffffff" stroke="transparent" points="374,-909.7 374,-928.7 411,-928.7 411,-909.7 374,-909.7"/>
<polygon fill="none" stroke="#000000" points="374,-909.7 374,-928.7 411,-928.7 411,-909.7 374,-909.7"/>
<text text-anchor="start" x="401.8862" y="-915.8" font-family="Helvetica,sans-Serif" font-size="11.00" fill="#000000"> &#160;</text>
</a>
</g>
</g>
<!-- favorite_packages&#45;&gt;package_group -->
<g id="edge3" class="edge">
<title>favorite_packages:w&#45;&gt;package_group:e</title>
<path fill="none" stroke="#000000" d="M253.4105,-936.351C234.8669,-932.4584 226.245,-920.1599 214,-899.7 175.7178,-835.7354 248.0453,-566.7 173.5,-566.7"/>
<polygon fill="#000000" stroke="#000000" points="260.034,-936.9634 267.6685,-941.2847 264.017,-937.3317 268,-937.7 268,-937.7 268,-937.7 264.017,-937.3317 268.3315,-934.1153 260.034,-936.9634 260.034,-936.9634"/>
<ellipse fill="none" stroke="#000000" cx="256.8476" cy="-936.6688" rx="3.2" ry="3.2"/>
</g>
<!-- migrated_version -->
<g id="node5" class="node">
<title>migrated_version</title>
<g id="a_node5"><a xlink:href="../../tables/migrated_version.html" xlink:title="migrated_version" target="_top">
<polygon fill="#ffffff" stroke="transparent" points="269.5,-828.2 269.5,-889.2 408.5,-889.2 408.5,-828.2 269.5,-828.2"/>
<polygon fill="#f5f5f5" stroke="transparent" points="270,-865.7 270,-888.7 409,-888.7 409,-865.7 270,-865.7"/>
<polygon fill="none" stroke="#000000" points="270,-865.7 270,-888.7 409,-888.7 409,-865.7 270,-865.7"/>
<text text-anchor="start" x="275" y="-874.3" font-family="Helvetica,sans-Serif" font-weight="bold" font-size="11.00" fill="#000000">migrated_version</text>
<text text-anchor="start" x="374.5219" y="-873.8" font-family="Helvetica,sans-Serif" font-size="11.00" fill="#000000">[table]</text>
<polygon fill="none" stroke="#000000" points="270,-846.7 270,-865.7 409,-865.7 409,-846.7 270,-846.7"/>
<text text-anchor="start" x="273" y="-852.8" font-family="Helvetica,sans-Serif" font-size="11.00" fill="#000000">...</text>
<polygon fill="#ffffff" stroke="transparent" points="270,-827.7 270,-846.7 338,-846.7 338,-827.7 270,-827.7"/>
<polygon fill="none" stroke="#000000" points="270,-827.7 270,-846.7 338,-846.7 338,-827.7 270,-827.7"/>
<text text-anchor="start" x="273" y="-833.8" font-family="Helvetica,sans-Serif" font-size="11.00" fill="#000000">&lt; 1</text>
<polygon fill="#ffffff" stroke="transparent" points="338,-827.7 338,-846.7 373,-846.7 373,-827.7 338,-827.7"/>
<polygon fill="none" stroke="#000000" points="338,-827.7 338,-846.7 373,-846.7 373,-827.7 338,-827.7"/>
<text text-anchor="start" x="363.8862" y="-833.8" font-family="Helvetica,sans-Serif" font-size="11.00" fill="#000000"> &#160;</text>
<polygon fill="#ffffff" stroke="transparent" points="373,-827.7 373,-846.7 409,-846.7 409,-827.7 373,-827.7"/>
<polygon fill="none" stroke="#000000" points="373,-827.7 373,-846.7 409,-846.7 409,-827.7 373,-827.7"/>
<text text-anchor="start" x="399.8862" y="-833.8" font-family="Helvetica,sans-Serif" font-size="11.00" fill="#000000"> &#160;</text>
</a>
</g>
</g>
<!-- migrated_version&#45;&gt;package_group -->
<g id="edge4" class="edge">
<title>migrated_version:w&#45;&gt;package_group:e</title>
<path fill="none" stroke="#000000" d="M255.5991,-854.4757C236.2078,-850.7488 227.2582,-838.5086 214,-817.7 183.6404,-770.0507 229.9992,-566.7 173.5,-566.7"/>
<polygon fill="#000000" stroke="#000000" points="262.0288,-855.0223 269.695,-859.2871 266.0144,-855.3611 270,-855.7 270,-855.7 270,-855.7 266.0144,-855.3611 270.305,-852.1129 262.0288,-855.0223 262.0288,-855.0223"/>
<ellipse fill="none" stroke="#000000" cx="258.8403" cy="-854.7512" rx="3.2" ry="3.2"/>
</g>
<!-- operation_open_count -->
<g id="node6" class="node">
<title>operation_open_count</title>
<g id="a_node6"><a xlink:href="../../tables/operation_open_count.html" xlink:title="operation_open_count" target="_top">
<polygon fill="#ffffff" stroke="transparent" points="255,-746.2 255,-807.2 423,-807.2 423,-746.2 255,-746.2"/>
<polygon fill="#f5f5f5" stroke="transparent" points="255,-783.7 255,-806.7 423,-806.7 423,-783.7 255,-783.7"/>
<polygon fill="none" stroke="#000000" points="255,-783.7 255,-806.7 423,-806.7 423,-783.7 255,-783.7"/>
<text text-anchor="start" x="260" y="-792.3" font-family="Helvetica,sans-Serif" font-weight="bold" font-size="11.00" fill="#000000">operation_open_count</text>
<text text-anchor="start" x="388.5219" y="-791.8" font-family="Helvetica,sans-Serif" font-size="11.00" fill="#000000">[table]</text>
<polygon fill="none" stroke="#000000" points="255,-764.7 255,-783.7 423,-783.7 423,-764.7 255,-764.7"/>
<text text-anchor="start" x="258" y="-770.8" font-family="Helvetica,sans-Serif" font-size="11.00" fill="#000000">...</text>
<polygon fill="#ffffff" stroke="transparent" points="255,-745.7 255,-764.7 337,-764.7 337,-745.7 255,-745.7"/>
<polygon fill="none" stroke="#000000" points="255,-745.7 255,-764.7 337,-764.7 337,-745.7 255,-745.7"/>
<text text-anchor="start" x="258" y="-751.8" font-family="Helvetica,sans-Serif" font-size="11.00" fill="#000000">&lt; 1</text>
<polygon fill="#ffffff" stroke="transparent" points="337,-745.7 337,-764.7 380,-764.7 380,-745.7 337,-745.7"/>
<polygon fill="none" stroke="#000000" points="337,-745.7 337,-764.7 380,-764.7 380,-745.7 337,-745.7"/>
<text text-anchor="start" x="370.8862" y="-751.8" font-family="Helvetica,sans-Serif" font-size="11.00" fill="#000000"> &#160;</text>
<polygon fill="#ffffff" stroke="transparent" points="380,-745.7 380,-764.7 423,-764.7 423,-745.7 380,-745.7"/>
<polygon fill="none" stroke="#000000" points="380,-745.7 380,-764.7 423,-764.7 423,-745.7 380,-745.7"/>
<text text-anchor="start" x="413.8862" y="-751.8" font-family="Helvetica,sans-Serif" font-size="11.00" fill="#000000"> &#160;</text>
</a>
</g>
</g>
<!-- operation_open_count&#45;&gt;package_group -->
<g id="edge5" class="edge">
<title>operation_open_count:w&#45;&gt;package_group:e</title>
<path fill="none" stroke="#000000" d="M240.6417,-771.1221C227.9718,-765.6715 223.6045,-752.1193 214,-735.7 175.0016,-669.0307 250.7378,-566.7 173.5,-566.7"/>
<polygon fill="#000000" stroke="#000000" points="247.1259,-772.2862 254.3638,-777.2433 251.063,-772.9931 255,-773.7 255,-773.7 255,-773.7 251.063,-772.9931 255.6362,-770.1567 247.1259,-772.2862 247.1259,-772.2862"/>
<ellipse fill="none" stroke="#000000" cx="243.9763" cy="-771.7207" rx="3.2" ry="3.2"/>
</g>
<!-- package_export_config -->
<g id="node7" class="node">
<title>package_export_config</title>
<g id="a_node7"><a xlink:href="../../tables/package_export_config.html" xlink:title="package_export_config" target="_top">
<polygon fill="#ffffff" stroke="transparent" points="252.5,-664.2 252.5,-725.2 425.5,-725.2 425.5,-664.2 252.5,-664.2"/>
<polygon fill="#f5f5f5" stroke="transparent" points="253,-701.7 253,-724.7 426,-724.7 426,-701.7 253,-701.7"/>
<polygon fill="none" stroke="#000000" points="253,-701.7 253,-724.7 426,-724.7 426,-701.7 253,-701.7"/>
<text text-anchor="start" x="258" y="-710.3" font-family="Helvetica,sans-Serif" font-weight="bold" font-size="11.00" fill="#000000">package_export_config</text>
<text text-anchor="start" x="391.5219" y="-709.8" font-family="Helvetica,sans-Serif" font-size="11.00" fill="#000000">[table]</text>
<polygon fill="none" stroke="#000000" points="253,-682.7 253,-701.7 426,-701.7 426,-682.7 253,-682.7"/>
<text text-anchor="start" x="256" y="-688.8" font-family="Helvetica,sans-Serif" font-size="11.00" fill="#000000">...</text>
<polygon fill="#ffffff" stroke="transparent" points="253,-663.7 253,-682.7 338,-682.7 338,-663.7 253,-663.7"/>
<polygon fill="none" stroke="#000000" points="253,-663.7 253,-682.7 338,-682.7 338,-663.7 253,-663.7"/>
<text text-anchor="start" x="256" y="-669.8" font-family="Helvetica,sans-Serif" font-size="11.00" fill="#000000">&lt; 1</text>
<polygon fill="#ffffff" stroke="transparent" points="338,-663.7 338,-682.7 382,-682.7 382,-663.7 338,-663.7"/>
<polygon fill="none" stroke="#000000" points="338,-663.7 338,-682.7 382,-682.7 382,-663.7 338,-663.7"/>
<text text-anchor="start" x="372.8862" y="-669.8" font-family="Helvetica,sans-Serif" font-size="11.00" fill="#000000"> &#160;</text>
<polygon fill="#ffffff" stroke="transparent" points="382,-663.7 382,-682.7 426,-682.7 426,-663.7 382,-663.7"/>
<polygon fill="none" stroke="#000000" points="382,-663.7 382,-682.7 426,-682.7 426,-663.7 382,-663.7"/>
<text text-anchor="start" x="416.8862" y="-669.8" font-family="Helvetica,sans-Serif" font-size="11.00" fill="#000000"> &#160;</text>
</a>
</g>
</g>
<!-- package_export_config&#45;&gt;package_group -->
<g id="edge6" class="edge">
<title>package_export_config:w&#45;&gt;package_group:e</title>
<path fill="none" stroke="#000000" d="M242.4098,-690.1668C228.1354,-685.3789 225.5963,-670.0456 214,-653.7 189.3213,-618.9139 216.151,-566.7 173.5,-566.7"/>
<polygon fill="#000000" stroke="#000000" points="252.7814,-687.6266 251.6351,-695.5441 250.0516,-695.3148 251.1979,-687.3974 252.7814,-687.6266"/>
<polyline fill="none" stroke="#000000" points="253,-691.7 249.0413,-691.1268 "/>
<ellipse fill="none" stroke="#000000" cx="245.8743" cy="-690.6683" rx="3.2" ry="3.2"/>
</g>
<!-- package_member_role -->
<g id="node8" class="node">
<title>package_member_role</title>
<g id="a_node8"><a xlink:href="../../tables/package_member_role.html" xlink:title="package_member_role" target="_top">
<polygon fill="#ffffff" stroke="transparent" points="254.5,-582.2 254.5,-643.2 423.5,-643.2 423.5,-582.2 254.5,-582.2"/>
<polygon fill="#f5f5f5" stroke="transparent" points="255,-619.7 255,-642.7 424,-642.7 424,-619.7 255,-619.7"/>
<polygon fill="none" stroke="#000000" points="255,-619.7 255,-642.7 424,-642.7 424,-619.7 255,-619.7"/>
<text text-anchor="start" x="260" y="-628.3" font-family="Helvetica,sans-Serif" font-weight="bold" font-size="11.00" fill="#000000">package_member_role</text>
<text text-anchor="start" x="389.5219" y="-627.8" font-family="Helvetica,sans-Serif" font-size="11.00" fill="#000000">[table]</text>
<polygon fill="none" stroke="#000000" points="255,-600.7 255,-619.7 424,-619.7 424,-600.7 255,-600.7"/>
<text text-anchor="start" x="258" y="-606.8" font-family="Helvetica,sans-Serif" font-size="11.00" fill="#000000">...</text>
<polygon fill="#ffffff" stroke="transparent" points="255,-581.7 255,-600.7 338,-600.7 338,-581.7 255,-581.7"/>
<polygon fill="none" stroke="#000000" points="255,-581.7 255,-600.7 338,-600.7 338,-581.7 255,-581.7"/>
<text text-anchor="start" x="258" y="-587.8" font-family="Helvetica,sans-Serif" font-size="11.00" fill="#000000">&lt; 1</text>
<polygon fill="#ffffff" stroke="transparent" points="338,-581.7 338,-600.7 381,-600.7 381,-581.7 338,-581.7"/>
<polygon fill="none" stroke="#000000" points="338,-581.7 338,-600.7 381,-600.7 381,-581.7 338,-581.7"/>
<text text-anchor="start" x="371.8862" y="-587.8" font-family="Helvetica,sans-Serif" font-size="11.00" fill="#000000"> &#160;</text>
<polygon fill="#ffffff" stroke="transparent" points="381,-581.7 381,-600.7 424,-600.7 424,-581.7 381,-581.7"/>
<polygon fill="none" stroke="#000000" points="381,-581.7 381,-600.7 424,-600.7 424,-581.7 381,-581.7"/>
<text text-anchor="start" x="414.8862" y="-587.8" font-family="Helvetica,sans-Serif" font-size="11.00" fill="#000000"> &#160;</text>
</a>
</g>
</g>
<!-- package_member_role&#45;&gt;package_group -->
<g id="edge7" class="edge">
<title>package_member_role:w&#45;&gt;package_group:e</title>
<path fill="none" stroke="#000000" d="M240.6772,-607.626C213.4244,-599.0366 209.0154,-566.7 173.5,-566.7"/>
<polygon fill="#000000" stroke="#000000" points="247.0826,-608.5535 254.4841,-613.2628 251.0413,-609.1267 255,-609.7 255,-609.7 255,-609.7 251.0413,-609.1267 255.5159,-606.1372 247.0826,-608.5535 247.0826,-608.5535"/>
<ellipse fill="none" stroke="#000000" cx="243.9156" cy="-608.0949" rx="3.2" ry="3.2"/>
</g>
<!-- package_service -->
<g id="node9" class="node">
<title>package_service</title>
<g id="a_node9"><a xlink:href="../../tables/package_service.html" xlink:title="package_service" target="_top">
<polygon fill="#ffffff" stroke="transparent" points="224,-448.7 224,-560.7 454,-560.7 454,-448.7 224,-448.7"/>
<polygon fill="#f5f5f5" stroke="transparent" points="226,-535.7 226,-558.7 452,-558.7 452,-535.7 226,-535.7"/>
<polygon fill="none" stroke="#000000" points="226,-535.7 226,-558.7 452,-558.7 452,-535.7 226,-535.7"/>
<text text-anchor="start" x="231" y="-544.3" font-family="Helvetica,sans-Serif" font-weight="bold" font-size="11.00" fill="#000000">package_service</text>
<text text-anchor="start" x="417.0437" y="-543.8" font-family="Helvetica,sans-Serif" font-size="11.00" fill="#000000">[table]</text>
<polygon fill="none" stroke="#000000" points="226,-513.7 226,-535.7 343,-535.7 343,-513.7 226,-513.7"/>
<image xlink:href="../../images/primaryKeys.png" width="11px" height="12px" preserveAspectRatio="xMinYMin meet" x="231" y="-530.7"/>
<text text-anchor="start" x="246" y="-520.8" font-family="Helvetica,sans-Serif" font-size="11.00" fill="#000000">package_id</text>
<polygon fill="none" stroke="#000000" points="343,-513.7 343,-535.7 452,-535.7 452,-513.7 343,-513.7"/>
<text text-anchor="start" x="345.5344" y="-521.4" font-family="Helvetica,sans-Serif" font-size="11.00" fill="#000000">varchar[2147483647]</text>
<polygon fill="none" stroke="#000000" points="226,-491.7 226,-513.7 343,-513.7 343,-491.7 226,-491.7"/>
<image xlink:href="../../images/primaryKeys.png" width="11px" height="12px" preserveAspectRatio="xMinYMin meet" x="231" y="-508.7"/>
<text text-anchor="start" x="246" y="-498.8" font-family="Helvetica,sans-Serif" font-size="11.00" fill="#000000">service_name</text>
<polygon fill="none" stroke="#000000" points="343,-491.7 343,-513.7 452,-513.7 452,-491.7 343,-491.7"/>
<text text-anchor="start" x="345.5344" y="-499.4" font-family="Helvetica,sans-Serif" font-size="11.00" fill="#000000">varchar[2147483647]</text>
<polygon fill="none" stroke="#000000" points="226,-469.7 226,-491.7 343,-491.7 343,-469.7 226,-469.7"/>
<image xlink:href="../../images/primaryKeys.png" width="11px" height="12px" preserveAspectRatio="xMinYMin meet" x="231" y="-486.7"/>
<text text-anchor="start" x="246" y="-476.8" font-family="Helvetica,sans-Serif" font-size="11.00" fill="#000000">workspace_id</text>
<polygon fill="none" stroke="#000000" points="343,-469.7 343,-491.7 452,-491.7 452,-469.7 343,-469.7"/>
<text text-anchor="start" x="345.5344" y="-477.4" font-family="Helvetica,sans-Serif" font-size="11.00" fill="#000000">varchar[2147483647]</text>
<polygon fill="#ffffff" stroke="transparent" points="226,-450.7 226,-469.7 289,-469.7 289,-450.7 226,-450.7"/>
<polygon fill="none" stroke="#000000" points="226,-450.7 226,-469.7 289,-469.7 289,-450.7 226,-450.7"/>
<text text-anchor="start" x="229" y="-456.8" font-family="Helvetica,sans-Serif" font-size="11.00" fill="#000000">&lt; 2</text>
<polygon fill="#ffffff" stroke="transparent" points="289,-450.7 289,-469.7 343,-469.7 343,-450.7 289,-450.7"/>
<polygon fill="none" stroke="#000000" points="289,-450.7 289,-469.7 343,-469.7 343,-450.7 289,-450.7"/>
<text text-anchor="start" x="333.8862" y="-456.8" font-family="Helvetica,sans-Serif" font-size="11.00" fill="#000000"> &#160;</text>
<polygon fill="#ffffff" stroke="transparent" points="343,-450.7 343,-469.7 452,-469.7 452,-450.7 343,-450.7"/>
<polygon fill="none" stroke="#000000" points="343,-450.7 343,-469.7 452,-469.7 452,-450.7 343,-450.7"/>
<text text-anchor="start" x="433.4053" y="-456.8" font-family="Helvetica,sans-Serif" font-size="11.00" fill="#000000">0 &gt;</text>
<polygon fill="none" stroke="#000000" stroke-width="2" points="225,-449.7 225,-559.7 453,-559.7 453,-449.7 225,-449.7"/>
</a>
</g>
</g>
<!-- package_service&#45;&gt;package_group -->
<g id="edge8" class="edge">
<title>package_service:w&#45;&gt;package_group:e</title>
<path fill="none" stroke="#000000" d="M212.1887,-528.8807C197.5387,-539.5041 197.5451,-566.7 173.5,-566.7"/>
<polygon fill="#000000" stroke="#000000" points="218.3431,-527.0178 227.043,-528.1456 222.1716,-525.8589 226,-524.7 226,-524.7 226,-524.7 222.1716,-525.8589 224.957,-521.2544 218.3431,-527.0178 218.3431,-527.0178"/>
<ellipse fill="none" stroke="#000000" cx="215.2803" cy="-527.9449" rx="3.2" ry="3.2"/>
</g>
<!-- package_service&#45;&gt;package_group -->
<g id="edge9" class="edge">
<title>package_service:w&#45;&gt;package_group:e</title>
<path fill="none" stroke="#000000" d="M212.1049,-484.848C189.6197,-502.0268 212.334,-566.7 173.5,-566.7"/>
<polygon fill="#000000" stroke="#000000" points="218.3343,-482.9884 227.0298,-484.1496 222.1671,-481.8442 226,-480.7 226,-480.7 226,-480.7 222.1671,-481.8442 224.9702,-477.2504 218.3343,-482.9884 218.3343,-482.9884"/>
<ellipse fill="none" stroke="#000000" cx="215.268" cy="-483.9038" rx="3.2" ry="3.2"/>
</g>
<!-- published_data -->
<g id="node10" class="node">
<title>published_data</title>
<g id="a_node10"><a xlink:href="../../tables/published_data.html" xlink:title="published_data" target="_top">
<polygon fill="#ffffff" stroke="transparent" points="275.5,-366.2 275.5,-427.2 402.5,-427.2 402.5,-366.2 275.5,-366.2"/>
<polygon fill="#f5f5f5" stroke="transparent" points="276,-403.7 276,-426.7 403,-426.7 403,-403.7 276,-403.7"/>
<polygon fill="none" stroke="#000000" points="276,-403.7 276,-426.7 403,-426.7 403,-403.7 276,-403.7"/>
<text text-anchor="start" x="281" y="-412.3" font-family="Helvetica,sans-Serif" font-weight="bold" font-size="11.00" fill="#000000">published_data</text>
<text text-anchor="start" x="368.5219" y="-411.8" font-family="Helvetica,sans-Serif" font-size="11.00" fill="#000000">[table]</text>
<polygon fill="none" stroke="#000000" points="276,-384.7 276,-403.7 403,-403.7 403,-384.7 276,-384.7"/>
<text text-anchor="start" x="279" y="-390.8" font-family="Helvetica,sans-Serif" font-size="11.00" fill="#000000">...</text>
<polygon fill="#ffffff" stroke="transparent" points="276,-365.7 276,-384.7 333,-384.7 333,-365.7 276,-365.7"/>
<polygon fill="none" stroke="#000000" points="276,-365.7 276,-384.7 333,-384.7 333,-365.7 276,-365.7"/>
<text text-anchor="start" x="279" y="-371.8" font-family="Helvetica,sans-Serif" font-size="11.00" fill="#000000">&lt; 1</text>
<polygon fill="#ffffff" stroke="transparent" points="333,-365.7 333,-384.7 363,-384.7 363,-365.7 333,-365.7"/>
<polygon fill="none" stroke="#000000" points="333,-365.7 333,-384.7 363,-384.7 363,-365.7 333,-365.7"/>
<text text-anchor="start" x="353.8862" y="-371.8" font-family="Helvetica,sans-Serif" font-size="11.00" fill="#000000"> &#160;</text>
<polygon fill="#ffffff" stroke="transparent" points="363,-365.7 363,-384.7 403,-384.7 403,-365.7 363,-365.7"/>
<polygon fill="none" stroke="#000000" points="363,-365.7 363,-384.7 403,-384.7 403,-365.7 363,-365.7"/>
<text text-anchor="start" x="384.4053" y="-371.8" font-family="Helvetica,sans-Serif" font-size="11.00" fill="#000000">2 &gt;</text>
</a>
</g>
</g>
<!-- published_data&#45;&gt;package_group -->
<g id="edge10" class="edge">
<title>published_data:w&#45;&gt;package_group:e</title>
<path fill="none" stroke="#000000" d="M261.4866,-395.0082C239.0721,-399.5302 230.7242,-415.5051 214,-438.7 179.1026,-487.0995 233.1686,-566.7 173.5,-566.7"/>
<polygon fill="#000000" stroke="#000000" points="268.0323,-394.4182 276.3232,-397.2855 272.0162,-394.0591 276,-393.7 276,-393.7 276,-393.7 272.0162,-394.0591 275.6768,-390.1145 268.0323,-394.4182 268.0323,-394.4182"/>
<ellipse fill="none" stroke="#000000" cx="264.8452" cy="-394.7055" rx="3.2" ry="3.2"/>
</g>
<!-- published_document_open_count -->
<g id="node11" class="node">
<title>published_document_open_count</title>
<g id="a_node11"><a xlink:href="../../tables/published_document_open_count.html" xlink:title="published_document_open_count" target="_top">
<polygon fill="#ffffff" stroke="transparent" points="222,-284.2 222,-345.2 456,-345.2 456,-284.2 222,-284.2"/>
<polygon fill="#f5f5f5" stroke="transparent" points="222,-321.7 222,-344.7 456,-344.7 456,-321.7 222,-321.7"/>
<polygon fill="none" stroke="#000000" points="222,-321.7 222,-344.7 456,-344.7 456,-321.7 222,-321.7"/>
<text text-anchor="start" x="227" y="-330.3" font-family="Helvetica,sans-Serif" font-weight="bold" font-size="11.00" fill="#000000">published_document_open_count</text>
<text text-anchor="start" x="421.5219" y="-329.8" font-family="Helvetica,sans-Serif" font-size="11.00" fill="#000000">[table]</text>
<polygon fill="none" stroke="#000000" points="222,-302.7 222,-321.7 456,-321.7 456,-302.7 222,-302.7"/>
<text text-anchor="start" x="225" y="-308.8" font-family="Helvetica,sans-Serif" font-size="11.00" fill="#000000">...</text>
<polygon fill="#ffffff" stroke="transparent" points="222,-283.7 222,-302.7 337,-302.7 337,-283.7 222,-283.7"/>
<polygon fill="none" stroke="#000000" points="222,-283.7 222,-302.7 337,-302.7 337,-283.7 222,-283.7"/>
<text text-anchor="start" x="225" y="-289.8" font-family="Helvetica,sans-Serif" font-size="11.00" fill="#000000">&lt; 1</text>
<polygon fill="#ffffff" stroke="transparent" points="337,-283.7 337,-302.7 396,-302.7 396,-283.7 337,-283.7"/>
<polygon fill="none" stroke="#000000" points="337,-283.7 337,-302.7 396,-302.7 396,-283.7 337,-283.7"/>
<text text-anchor="start" x="386.8862" y="-289.8" font-family="Helvetica,sans-Serif" font-size="11.00" fill="#000000"> &#160;</text>
<polygon fill="#ffffff" stroke="transparent" points="396,-283.7 396,-302.7 456,-302.7 456,-283.7 396,-283.7"/>
<polygon fill="none" stroke="#000000" points="396,-283.7 396,-302.7 456,-302.7 456,-283.7 396,-283.7"/>
<text text-anchor="start" x="446.8862" y="-289.8" font-family="Helvetica,sans-Serif" font-size="11.00" fill="#000000"> &#160;</text>
</a>
</g>
</g>
<!-- published_document_open_count&#45;&gt;package_group -->
<g id="edge11" class="edge">
<title>published_document_open_count:w&#45;&gt;package_group:e</title>
<path fill="none" stroke="#000000" d="M207.6772,-313.3284C123.0652,-335.0459 283.4573,-566.7 173.5,-566.7"/>
<polygon fill="#000000" stroke="#000000" points="214.0512,-312.6038 222.4067,-315.277 218.0256,-312.1519 222,-311.7 222,-311.7 222,-311.7 218.0256,-312.1519 221.5933,-308.123 214.0512,-312.6038 214.0512,-312.6038"/>
<ellipse fill="none" stroke="#000000" cx="210.8717" cy="-312.9653" rx="3.2" ry="3.2"/>
</g>
<!-- published_version -->
<g id="node12" class="node">
<title>published_version</title>
<g id="a_node12"><a xlink:href="../../tables/published_version.html" xlink:title="published_version" target="_top">
<polygon fill="#ffffff" stroke="transparent" points="266.5,-202.2 266.5,-263.2 411.5,-263.2 411.5,-202.2 266.5,-202.2"/>
<polygon fill="#f5f5f5" stroke="transparent" points="267,-239.7 267,-262.7 412,-262.7 412,-239.7 267,-239.7"/>
<polygon fill="none" stroke="#000000" points="267,-239.7 267,-262.7 412,-262.7 412,-239.7 267,-239.7"/>
<text text-anchor="start" x="272" y="-248.3" font-family="Helvetica,sans-Serif" font-weight="bold" font-size="11.00" fill="#000000">published_version</text>
<text text-anchor="start" x="377.5219" y="-247.8" font-family="Helvetica,sans-Serif" font-size="11.00" fill="#000000">[table]</text>
<polygon fill="none" stroke="#000000" points="267,-220.7 267,-239.7 412,-239.7 412,-220.7 267,-220.7"/>
<text text-anchor="start" x="270" y="-226.8" font-family="Helvetica,sans-Serif" font-size="11.00" fill="#000000">...</text>
<polygon fill="#ffffff" stroke="transparent" points="267,-201.7 267,-220.7 330,-220.7 330,-201.7 267,-201.7"/>
<polygon fill="none" stroke="#000000" points="267,-201.7 267,-220.7 330,-220.7 330,-201.7 267,-201.7"/>
<text text-anchor="start" x="270" y="-207.8" font-family="Helvetica,sans-Serif" font-size="11.00" fill="#000000">&lt; 1</text>
<polygon fill="#ffffff" stroke="transparent" points="330,-201.7 330,-220.7 363,-220.7 363,-201.7 330,-201.7"/>
<polygon fill="none" stroke="#000000" points="330,-201.7 330,-220.7 363,-220.7 363,-201.7 330,-201.7"/>
<text text-anchor="start" x="353.8862" y="-207.8" font-family="Helvetica,sans-Serif" font-size="11.00" fill="#000000"> &#160;</text>
<polygon fill="#ffffff" stroke="transparent" points="363,-201.7 363,-220.7 412,-220.7 412,-201.7 363,-201.7"/>
<polygon fill="none" stroke="#000000" points="363,-201.7 363,-220.7 412,-220.7 412,-201.7 363,-201.7"/>
<text text-anchor="start" x="387.2904" y="-207.8" font-family="Helvetica,sans-Serif" font-size="11.00" fill="#000000">18 &gt;</text>
</a>
</g>
</g>
<!-- published_version&#45;&gt;package_group -->
<g id="edge12" class="edge">
<title>published_version:w&#45;&gt;package_group:e</title>
<path fill="none" stroke="#000000" d="M252.5584,-231.3256C233.4504,-236.2046 226.2082,-251.753 214,-273.7 182.0477,-331.1414 239.2302,-566.7 173.5,-566.7"/>
<polygon fill="#000000" stroke="#000000" points="259.0502,-230.5949 267.4027,-233.2774 263.0251,-230.1474 267,-229.7 267,-229.7 267,-229.7 263.0251,-230.1474 266.5973,-226.1226 259.0502,-230.5949 259.0502,-230.5949"/>
<ellipse fill="none" stroke="#000000" cx="255.8703" cy="-230.9528" rx="3.2" ry="3.2"/>
</g>
<!-- published_version_open_count -->
<g id="node13" class="node">
<title>published_version_open_count</title>
<g id="a_node13"><a xlink:href="../../tables/published_version_open_count.html" xlink:title="published_version_open_count" target="_top">
<polygon fill="#ffffff" stroke="transparent" points="229.5,-120.2 229.5,-181.2 448.5,-181.2 448.5,-120.2 229.5,-120.2"/>
<polygon fill="#f5f5f5" stroke="transparent" points="230,-157.7 230,-180.7 449,-180.7 449,-157.7 230,-157.7"/>
<polygon fill="none" stroke="#000000" points="230,-157.7 230,-180.7 449,-180.7 449,-157.7 230,-157.7"/>
<text text-anchor="start" x="235" y="-166.3" font-family="Helvetica,sans-Serif" font-weight="bold" font-size="11.00" fill="#000000">published_version_open_count</text>
<text text-anchor="start" x="414.5219" y="-165.8" font-family="Helvetica,sans-Serif" font-size="11.00" fill="#000000">[table]</text>
<polygon fill="none" stroke="#000000" points="230,-138.7 230,-157.7 449,-157.7 449,-138.7 230,-138.7"/>
<text text-anchor="start" x="233" y="-144.8" font-family="Helvetica,sans-Serif" font-size="11.00" fill="#000000">...</text>
<polygon fill="#ffffff" stroke="transparent" points="230,-119.7 230,-138.7 338,-138.7 338,-119.7 230,-119.7"/>
<polygon fill="none" stroke="#000000" points="230,-119.7 230,-138.7 338,-138.7 338,-119.7 230,-119.7"/>
<text text-anchor="start" x="233" y="-125.8" font-family="Helvetica,sans-Serif" font-size="11.00" fill="#000000">&lt; 1</text>
<polygon fill="#ffffff" stroke="transparent" points="338,-119.7 338,-138.7 393,-138.7 393,-119.7 338,-119.7"/>
<polygon fill="none" stroke="#000000" points="338,-119.7 338,-138.7 393,-138.7 393,-119.7 338,-119.7"/>
<text text-anchor="start" x="383.8862" y="-125.8" font-family="Helvetica,sans-Serif" font-size="11.00" fill="#000000"> &#160;</text>
<polygon fill="#ffffff" stroke="transparent" points="393,-119.7 393,-138.7 449,-138.7 449,-119.7 393,-119.7"/>
<polygon fill="none" stroke="#000000" points="393,-119.7 393,-138.7 449,-138.7 449,-119.7 393,-119.7"/>
<text text-anchor="start" x="439.8862" y="-125.8" font-family="Helvetica,sans-Serif" font-size="11.00" fill="#000000"> &#160;</text>
</a>
</g>
</g>
<!-- published_version_open_count&#45;&gt;package_group -->
<g id="edge13" class="edge">
<title>published_version_open_count:w&#45;&gt;package_group:e</title>
<path fill="none" stroke="#000000" d="M216.1223,-151.5804C150.2092,-193.8206 262.1322,-566.7 173.5,-566.7"/>
<polygon fill="#000000" stroke="#000000" points="222.2955,-149.8543 230.9694,-151.167 226.1478,-148.7772 230,-147.7 230,-147.7 230,-147.7 226.1478,-148.7772 229.0306,-144.233 222.2955,-149.8543 222.2955,-149.8543"/>
<ellipse fill="none" stroke="#000000" cx="219.2137" cy="-150.716" rx="3.2" ry="3.2"/>
</g>
<!-- shared_url_info -->
<g id="node14" class="node">
<title>shared_url_info</title>
<g id="a_node14"><a xlink:href="../../tables/shared_url_info.html" xlink:title="shared_url_info" target="_top">
<polygon fill="#ffffff" stroke="transparent" points="274.5,-38.2 274.5,-99.2 403.5,-99.2 403.5,-38.2 274.5,-38.2"/>
<polygon fill="#f5f5f5" stroke="transparent" points="275,-75.7 275,-98.7 404,-98.7 404,-75.7 275,-75.7"/>
<polygon fill="none" stroke="#000000" points="275,-75.7 275,-98.7 404,-98.7 404,-75.7 275,-75.7"/>
<text text-anchor="start" x="280" y="-84.3" font-family="Helvetica,sans-Serif" font-weight="bold" font-size="11.00" fill="#000000">shared_url_info</text>
<text text-anchor="start" x="369.5219" y="-83.8" font-family="Helvetica,sans-Serif" font-size="11.00" fill="#000000">[table]</text>
<polygon fill="none" stroke="#000000" points="275,-56.7 275,-75.7 404,-75.7 404,-56.7 275,-56.7"/>
<text text-anchor="start" x="278" y="-62.8" font-family="Helvetica,sans-Serif" font-size="11.00" fill="#000000">...</text>
<polygon fill="#ffffff" stroke="transparent" points="275,-37.7 275,-56.7 338,-56.7 338,-37.7 275,-37.7"/>
<polygon fill="none" stroke="#000000" points="275,-37.7 275,-56.7 338,-56.7 338,-37.7 275,-37.7"/>
<text text-anchor="start" x="278" y="-43.8" font-family="Helvetica,sans-Serif" font-size="11.00" fill="#000000">&lt; 1</text>
<polygon fill="#ffffff" stroke="transparent" points="338,-37.7 338,-56.7 371,-56.7 371,-37.7 338,-37.7"/>
<polygon fill="none" stroke="#000000" points="338,-37.7 338,-56.7 371,-56.7 371,-37.7 338,-37.7"/>
<text text-anchor="start" x="361.8862" y="-43.8" font-family="Helvetica,sans-Serif" font-size="11.00" fill="#000000"> &#160;</text>
<polygon fill="#ffffff" stroke="transparent" points="371,-37.7 371,-56.7 404,-56.7 404,-37.7 371,-37.7"/>
<polygon fill="none" stroke="#000000" points="371,-37.7 371,-56.7 404,-56.7 404,-37.7 371,-37.7"/>
<text text-anchor="start" x="394.8862" y="-43.8" font-family="Helvetica,sans-Serif" font-size="11.00" fill="#000000"> &#160;</text>
</a>
</g>
</g>
<!-- shared_url_info&#45;&gt;package_group -->
<g id="edge14" class="edge">
<title>shared_url_info:w&#45;&gt;package_group:e</title>
<path fill="none" stroke="#000000" d="M260.5468,-66.8465C237.8935,-70.8485 227.8801,-85.2969 214,-109.7 188.7968,-154.0106 224.4768,-566.7 173.5,-566.7"/>
<polygon fill="#000000" stroke="#000000" points="267.0251,-66.3327 275.2847,-69.2887 271.0125,-66.0163 275,-65.7 275,-65.7 275,-65.7 271.0125,-66.0163 274.7153,-62.1113 267.0251,-66.3327 267.0251,-66.3327"/>
<ellipse fill="none" stroke="#000000" cx="263.8351" cy="-66.5857" rx="3.2" ry="3.2"/>
</g>
</g>
</svg>
