<?xml version="1.0" encoding="UTF-8" standalone="no"?>
<!DOCTYPE svg PUBLIC "-//W3C//DTD SVG 1.1//EN"
 "http://www.w3.org/Graphics/SVG/1.1/DTD/svg11.dtd">
<!-- Generated by graphviz version 2.40.1 (20161225.0304)
 -->
<!-- Title: twoDegreesRelationshipsDiagram Pages: 1 -->
<svg width="481pt" height="497pt"
 viewBox="0.00 0.00 481.00 496.70" xmlns="http://www.w3.org/2000/svg" xmlns:xlink="http://www.w3.org/1999/xlink">
<g id="graph0" class="graph" transform="scale(1 1) rotate(0) translate(4 492.7)">
<title>twoDegreesRelationshipsDiagram</title>
<polygon fill="#ffffff" stroke="transparent" points="-4,4 -4,-492.7 477,-492.7 477,4 -4,4"/>
<text text-anchor="middle" x="72.4936" y="-7.3" font-family="Helvetica,sans-Serif" font-size="11.00" fill="#000000">Generated by SchemaSpy</text>
<!-- external_identity -->
<g id="node1" class="node">
<title>external_identity</title>
<g id="a_node1"><a xlink:href="../../tables/external_identity.html" xlink:title="external_identity" target="_top">
<polygon fill="#ffffff" stroke="transparent" points="260,-423.7 260,-484.7 394,-484.7 394,-423.7 260,-423.7"/>
<polygon fill="#f5f5f5" stroke="transparent" points="260,-461.2 260,-484.2 394,-484.2 394,-461.2 260,-461.2"/>
<polygon fill="none" stroke="#000000" points="260,-461.2 260,-484.2 394,-484.2 394,-461.2 260,-461.2"/>
<text text-anchor="start" x="265" y="-469.8" font-family="Helvetica,sans-Serif" font-weight="bold" font-size="11.00" fill="#000000">external_identity</text>
<text text-anchor="start" x="359.5219" y="-469.3" font-family="Helvetica,sans-Serif" font-size="11.00" fill="#000000">[table]</text>
<polygon fill="none" stroke="#000000" points="260,-442.2 260,-461.2 394,-461.2 394,-442.2 260,-442.2"/>
<text text-anchor="start" x="263" y="-448.3" font-family="Helvetica,sans-Serif" font-size="11.00" fill="#000000">...</text>
<polygon fill="#ffffff" stroke="transparent" points="260,-423.2 260,-442.2 325,-442.2 325,-423.2 260,-423.2"/>
<polygon fill="none" stroke="#000000" points="260,-423.2 260,-442.2 325,-442.2 325,-423.2 260,-423.2"/>
<text text-anchor="start" x="263" y="-429.3" font-family="Helvetica,sans-Serif" font-size="11.00" fill="#000000">&lt; 1</text>
<polygon fill="#ffffff" stroke="transparent" points="325,-423.2 325,-442.2 359,-442.2 359,-423.2 325,-423.2"/>
<polygon fill="none" stroke="#000000" points="325,-423.2 325,-442.2 359,-442.2 359,-423.2 325,-423.2"/>
<text text-anchor="start" x="349.8862" y="-429.3" font-family="Helvetica,sans-Serif" font-size="11.00" fill="#000000"> &#160;</text>
<polygon fill="#ffffff" stroke="transparent" points="359,-423.2 359,-442.2 394,-442.2 394,-423.2 359,-423.2"/>
<polygon fill="none" stroke="#000000" points="359,-423.2 359,-442.2 394,-442.2 394,-423.2 359,-423.2"/>
<text text-anchor="start" x="384.8862" y="-429.3" font-family="Helvetica,sans-Serif" font-size="11.00" fill="#000000"> &#160;</text>
</a>
</g>
</g>
<!-- user_data -->
<g id="node2" class="node">
<title>user_data</title>
<g id="a_node2"><a xlink:href="../../tables/user_data.html" xlink:title="user_data" target="_top">
<polygon fill="#ffffff" stroke="transparent" points="8,-235.7 8,-362.7 140,-362.7 140,-235.7 8,-235.7"/>
<polygon fill="#f5f5f5" stroke="transparent" points="8,-339.2 8,-362.2 140,-362.2 140,-339.2 8,-339.2"/>
<polygon fill="none" stroke="#000000" points="8,-339.2 8,-362.2 140,-362.2 140,-339.2 8,-339.2"/>
<text text-anchor="start" x="13" y="-347.8" font-family="Helvetica,sans-Serif" font-weight="bold" font-size="11.00" fill="#000000">user_data</text>
<text text-anchor="start" x="105.0437" y="-347.3" font-family="Helvetica,sans-Serif" font-size="11.00" fill="#000000">[table]</text>
<polygon fill="none" stroke="#000000" points="8,-317.2 8,-339.2 140,-339.2 140,-317.2 8,-317.2"/>
<image xlink:href="../../images/primaryKeys.png" width="11px" height="12px" preserveAspectRatio="xMinYMin meet" x="13" y="-334.2"/>
<text text-anchor="start" x="28" y="-324.3" font-family="Helvetica,sans-Serif" font-size="11.00" fill="#000000">user_id</text>
<polygon fill="#ffffff" stroke="transparent" points="8,-295.2 8,-317.2 140,-317.2 140,-295.2 8,-295.2"/>
<polygon fill="none" stroke="#000000" points="8,-295.2 8,-317.2 140,-317.2 140,-295.2 8,-295.2"/>
<text text-anchor="start" x="28" y="-302.3" font-family="Helvetica,sans-Serif" font-size="11.00" fill="#000000">email</text>
<polygon fill="#ffffff" stroke="transparent" points="8,-273.2 8,-295.2 140,-295.2 140,-273.2 8,-273.2"/>
<polygon fill="none" stroke="#000000" points="8,-273.2 8,-295.2 140,-295.2 140,-273.2 8,-273.2"/>
<text text-anchor="start" x="28" y="-280.3" font-family="Helvetica,sans-Serif" font-size="11.00" fill="#000000">private_package_id</text>
<polygon fill="none" stroke="#000000" points="8,-254.2 8,-273.2 140,-273.2 140,-254.2 8,-254.2"/>
<text text-anchor="start" x="11" y="-260.3" font-family="Helvetica,sans-Serif" font-size="11.00" fill="#000000">...</text>
<polygon fill="#ffffff" stroke="transparent" points="8,-235.2 8,-254.2 63,-254.2 63,-235.2 8,-235.2"/>
<polygon fill="none" stroke="#000000" points="8,-235.2 8,-254.2 63,-254.2 63,-235.2 8,-235.2"/>
<text text-anchor="start" x="11" y="-241.3" font-family="Helvetica,sans-Serif" font-size="11.00" fill="#000000"> &#160;</text>
<polygon fill="#ffffff" stroke="transparent" points="63,-235.2 63,-254.2 97,-254.2 97,-235.2 63,-235.2"/>
<polygon fill="none" stroke="#000000" points="63,-235.2 63,-254.2 97,-254.2 97,-235.2 63,-235.2"/>
<text text-anchor="start" x="87.8862" y="-241.3" font-family="Helvetica,sans-Serif" font-size="11.00" fill="#000000"> &#160;</text>
<polygon fill="#ffffff" stroke="transparent" points="97,-235.2 97,-254.2 140,-254.2 140,-235.2 97,-235.2"/>
<polygon fill="none" stroke="#000000" points="97,-235.2 97,-254.2 140,-254.2 140,-235.2 97,-235.2"/>
<text text-anchor="start" x="121.4053" y="-241.3" font-family="Helvetica,sans-Serif" font-size="11.00" fill="#000000">4 &gt;</text>
</a>
</g>
</g>
<!-- external_identity&#45;&gt;user_data -->
<g id="edge1" class="edge">
<title>external_identity:w&#45;&gt;user_data:e</title>
<path fill="none" stroke="#000000" d="M245.3987,-450.5963C217.3455,-448.0194 204.7965,-436.9706 181,-413.2 151.3257,-383.558 181.9429,-328.2 140,-328.2"/>
<polygon fill="#000000" stroke="#000000" points="252.0068,-450.8695 259.8513,-454.7969 256.0034,-451.0347 260,-451.2 260,-451.2 260,-451.2 256.0034,-451.0347 260.1487,-447.6031 252.0068,-450.8695 252.0068,-450.8695"/>
<ellipse fill="none" stroke="#000000" cx="248.8096" cy="-450.7372" rx="3.2" ry="3.2"/>
</g>
<!-- favorite_packages -->
<g id="node3" class="node">
<title>favorite_packages</title>
<g id="a_node3"><a xlink:href="../../tables/favorite_packages.html" xlink:title="favorite_packages" target="_top">
<polygon fill="#ffffff" stroke="transparent" points="255.5,-341.7 255.5,-402.7 398.5,-402.7 398.5,-341.7 255.5,-341.7"/>
<polygon fill="#f5f5f5" stroke="transparent" points="256,-379.2 256,-402.2 399,-402.2 399,-379.2 256,-379.2"/>
<polygon fill="none" stroke="#000000" points="256,-379.2 256,-402.2 399,-402.2 399,-379.2 256,-379.2"/>
<text text-anchor="start" x="261" y="-387.8" font-family="Helvetica,sans-Serif" font-weight="bold" font-size="11.00" fill="#000000">favorite_packages</text>
<text text-anchor="start" x="364.5219" y="-387.3" font-family="Helvetica,sans-Serif" font-size="11.00" fill="#000000">[table]</text>
<polygon fill="none" stroke="#000000" points="256,-360.2 256,-379.2 399,-379.2 399,-360.2 256,-360.2"/>
<text text-anchor="start" x="259" y="-366.3" font-family="Helvetica,sans-Serif" font-size="11.00" fill="#000000">...</text>
<polygon fill="#ffffff" stroke="transparent" points="256,-341.2 256,-360.2 326,-360.2 326,-341.2 256,-341.2"/>
<polygon fill="none" stroke="#000000" points="256,-341.2 256,-360.2 326,-360.2 326,-341.2 256,-341.2"/>
<text text-anchor="start" x="259" y="-347.3" font-family="Helvetica,sans-Serif" font-size="11.00" fill="#000000">&lt; 2</text>
<polygon fill="#ffffff" stroke="transparent" points="326,-341.2 326,-360.2 362,-360.2 362,-341.2 326,-341.2"/>
<polygon fill="none" stroke="#000000" points="326,-341.2 326,-360.2 362,-360.2 362,-341.2 326,-341.2"/>
<text text-anchor="start" x="352.8862" y="-347.3" font-family="Helvetica,sans-Serif" font-size="11.00" fill="#000000"> &#160;</text>
<polygon fill="#ffffff" stroke="transparent" points="362,-341.2 362,-360.2 399,-360.2 399,-341.2 362,-341.2"/>
<polygon fill="none" stroke="#000000" points="362,-341.2 362,-360.2 399,-360.2 399,-341.2 362,-341.2"/>
<text text-anchor="start" x="389.8862" y="-347.3" font-family="Helvetica,sans-Serif" font-size="11.00" fill="#000000"> &#160;</text>
</a>
</g>
</g>
<!-- favorite_packages&#45;&gt;user_data -->
<g id="edge2" class="edge">
<title>favorite_packages:w&#45;&gt;user_data:e</title>
<path fill="none" stroke="#000000" d="M241.5364,-368.1453C199.6083,-361.7279 189.448,-328.2 140,-328.2"/>
<polygon fill="#000000" stroke="#000000" points="248.0212,-368.6181 255.7382,-372.7905 252.0106,-368.9091 256,-369.2 256,-369.2 256,-369.2 252.0106,-368.9091 256.2618,-365.6095 248.0212,-368.6181 248.0212,-368.6181"/>
<ellipse fill="none" stroke="#000000" cx="244.8297" cy="-368.3854" rx="3.2" ry="3.2"/>
</g>
<!-- favorite_projects -->
<g id="node4" class="node">
<title>favorite_projects</title>
<g id="a_node4"><a xlink:href="../../tables/favorite_projects.html" xlink:title="favorite_projects" target="_top">
<polygon fill="#ffffff" stroke="transparent" points="259.5,-259.7 259.5,-320.7 394.5,-320.7 394.5,-259.7 259.5,-259.7"/>
<polygon fill="#f5f5f5" stroke="transparent" points="260,-297.2 260,-320.2 395,-320.2 395,-297.2 260,-297.2"/>
<polygon fill="none" stroke="#000000" points="260,-297.2 260,-320.2 395,-320.2 395,-297.2 260,-297.2"/>
<text text-anchor="start" x="265" y="-305.8" font-family="Helvetica,sans-Serif" font-weight="bold" font-size="11.00" fill="#000000">favorite_projects</text>
<text text-anchor="start" x="360.5219" y="-305.3" font-family="Helvetica,sans-Serif" font-size="11.00" fill="#000000">[table]</text>
<polygon fill="none" stroke="#000000" points="260,-278.2 260,-297.2 395,-297.2 395,-278.2 260,-278.2"/>
<text text-anchor="start" x="263" y="-284.3" font-family="Helvetica,sans-Serif" font-size="11.00" fill="#000000">...</text>
<polygon fill="#ffffff" stroke="transparent" points="260,-259.2 260,-278.2 326,-278.2 326,-259.2 260,-259.2"/>
<polygon fill="none" stroke="#000000" points="260,-259.2 260,-278.2 326,-278.2 326,-259.2 260,-259.2"/>
<text text-anchor="start" x="263" y="-265.3" font-family="Helvetica,sans-Serif" font-size="11.00" fill="#000000">&lt; 2</text>
<polygon fill="#ffffff" stroke="transparent" points="326,-259.2 326,-278.2 360,-278.2 360,-259.2 326,-259.2"/>
<polygon fill="none" stroke="#000000" points="326,-259.2 326,-278.2 360,-278.2 360,-259.2 326,-259.2"/>
<text text-anchor="start" x="350.8862" y="-265.3" font-family="Helvetica,sans-Serif" font-size="11.00" fill="#000000"> &#160;</text>
<polygon fill="#ffffff" stroke="transparent" points="360,-259.2 360,-278.2 395,-278.2 395,-259.2 360,-259.2"/>
<polygon fill="none" stroke="#000000" points="360,-259.2 360,-278.2 395,-278.2 395,-259.2 360,-259.2"/>
<text text-anchor="start" x="385.8862" y="-265.3" font-family="Helvetica,sans-Serif" font-size="11.00" fill="#000000"> &#160;</text>
</a>
</g>
</g>
<!-- favorite_projects&#45;&gt;user_data -->
<g id="edge3" class="edge">
<title>favorite_projects:w&#45;&gt;user_data:e</title>
<path fill="none" stroke="#000000" d="M245.3619,-288.2135C201.8434,-294.5271 191.0766,-328.2 140,-328.2"/>
<polygon fill="#000000" stroke="#000000" points="252.0191,-287.7526 260.2487,-290.7914 256.0096,-287.4763 260,-287.2 260,-287.2 260,-287.2 256.0096,-287.4763 259.7513,-283.6086 252.0191,-287.7526 252.0191,-287.7526"/>
<ellipse fill="none" stroke="#000000" cx="248.8267" cy="-287.9737" rx="3.2" ry="3.2"/>
</g>
<!-- personal_access_tokens -->
<g id="node5" class="node">
<title>personal_access_tokens</title>
<g id="a_node5"><a xlink:href="../../tables/personal_access_tokens.html" xlink:title="personal_access_tokens" target="_top">
<polygon fill="#ffffff" stroke="transparent" points="189,-38.2 189,-238.2 465,-238.2 465,-38.2 189,-38.2"/>
<polygon fill="#f5f5f5" stroke="transparent" points="191,-213.2 191,-236.2 463,-236.2 463,-213.2 191,-213.2"/>
<polygon fill="none" stroke="#000000" points="191,-213.2 191,-236.2 463,-236.2 463,-213.2 191,-213.2"/>
<text text-anchor="start" x="196" y="-221.8" font-family="Helvetica,sans-Serif" font-weight="bold" font-size="11.00" fill="#000000">personal_access_tokens</text>
<text text-anchor="start" x="428.0437" y="-221.3" font-family="Helvetica,sans-Serif" font-size="11.00" fill="#000000">[table]</text>
<polygon fill="none" stroke="#000000" points="191,-191.2 191,-213.2 354,-213.2 354,-191.2 191,-191.2"/>
<image xlink:href="../../images/primaryKeys.png" width="11px" height="12px" preserveAspectRatio="xMinYMin meet" x="196" y="-208.2"/>
<text text-anchor="start" x="211" y="-198.3" font-family="Helvetica,sans-Serif" font-size="11.00" fill="#000000">id</text>
<polygon fill="none" stroke="#000000" points="354,-191.2 354,-213.2 463,-213.2 463,-191.2 354,-191.2"/>
<text text-anchor="start" x="356.5344" y="-198.9" font-family="Helvetica,sans-Serif" font-size="11.00" fill="#000000">varchar[2147483647]</text>
<polygon fill="none" stroke="#000000" points="191,-169.2 191,-191.2 354,-191.2 354,-169.2 191,-169.2"/>
<image xlink:href="../../images/foreignKeys.png" width="11px" height="12px" preserveAspectRatio="xMinYMin meet" x="196" y="-186.2"/>
<text text-anchor="start" x="211" y="-176.3" font-family="Helvetica,sans-Serif" font-size="11.00" fill="#000000">user_id</text>
<polygon fill="none" stroke="#000000" points="354,-169.2 354,-191.2 463,-191.2 463,-169.2 354,-169.2"/>
<text text-anchor="start" x="356.5344" y="-176.9" font-family="Helvetica,sans-Serif" font-size="11.00" fill="#000000">varchar[2147483647]</text>
<polygon fill="#ffffff" stroke="transparent" points="191,-147.2 191,-169.2 354,-169.2 354,-147.2 191,-147.2"/>
<polygon fill="none" stroke="#000000" points="191,-147.2 191,-169.2 354,-169.2 354,-147.2 191,-147.2"/>
<text text-anchor="start" x="211" y="-154.3" font-family="Helvetica,sans-Serif" font-size="11.00" fill="#000000">token_hash</text>
<polygon fill="none" stroke="#000000" points="354,-147.2 354,-169.2 463,-169.2 463,-147.2 354,-147.2"/>
<text text-anchor="start" x="356.5344" y="-154.9" font-family="Helvetica,sans-Serif" font-size="11.00" fill="#000000">varchar[2147483647]</text>
<polygon fill="none" stroke="#000000" points="191,-125.2 191,-147.2 354,-147.2 354,-125.2 191,-125.2"/>
<text text-anchor="start" x="211" y="-132.3" font-family="Helvetica,sans-Serif" font-size="11.00" fill="#000000">name</text>
<polygon fill="none" stroke="#000000" points="354,-125.2 354,-147.2 463,-147.2 463,-125.2 354,-125.2"/>
<text text-anchor="start" x="356.5344" y="-132.9" font-family="Helvetica,sans-Serif" font-size="11.00" fill="#000000">varchar[2147483647]</text>
<polygon fill="none" stroke="#000000" points="191,-103.2 191,-125.2 354,-125.2 354,-103.2 191,-103.2"/>
<text text-anchor="start" x="211" y="-110.3" font-family="Helvetica,sans-Serif" font-size="11.00" fill="#000000">created_at</text>
<polygon fill="none" stroke="#000000" points="354,-103.2 354,-125.2 463,-125.2 463,-103.2 354,-103.2"/>
<text text-anchor="start" x="357" y="-110.9" font-family="Helvetica,sans-Serif" font-size="11.00" fill="#000000">timestamp[29,6]</text>
<polygon fill="none" stroke="#000000" points="191,-81.2 191,-103.2 354,-103.2 354,-81.2 191,-81.2"/>
<text text-anchor="start" x="211" y="-88.3" font-family="Helvetica,sans-Serif" font-size="11.00" fill="#000000">expires_at</text>
<polygon fill="none" stroke="#000000" points="354,-81.2 354,-103.2 463,-103.2 463,-81.2 354,-81.2"/>
<text text-anchor="start" x="357" y="-88.9" font-family="Helvetica,sans-Serif" font-size="11.00" fill="#000000">timestamp[29,6]</text>
<polygon fill="none" stroke="#000000" points="191,-59.2 191,-81.2 354,-81.2 354,-59.2 191,-59.2"/>
<text text-anchor="start" x="211" y="-66.3" font-family="Helvetica,sans-Serif" font-size="11.00" fill="#000000">deleted_at</text>
<polygon fill="none" stroke="#000000" points="354,-59.2 354,-81.2 463,-81.2 463,-59.2 354,-59.2"/>
<text text-anchor="start" x="357" y="-66.9" font-family="Helvetica,sans-Serif" font-size="11.00" fill="#000000">timestamp[29,6]</text>
<polygon fill="#ffffff" stroke="transparent" points="191,-40.2 191,-59.2 277,-59.2 277,-40.2 191,-40.2"/>
<polygon fill="none" stroke="#000000" points="191,-40.2 191,-59.2 277,-59.2 277,-40.2 191,-40.2"/>
<text text-anchor="start" x="194" y="-46.3" font-family="Helvetica,sans-Serif" font-size="11.00" fill="#000000">&lt; 1</text>
<polygon fill="#ffffff" stroke="transparent" points="277,-40.2 277,-59.2 354,-59.2 354,-40.2 277,-40.2"/>
<polygon fill="none" stroke="#000000" points="277,-40.2 277,-59.2 354,-59.2 354,-40.2 277,-40.2"/>
<text text-anchor="start" x="344.8862" y="-46.3" font-family="Helvetica,sans-Serif" font-size="11.00" fill="#000000"> &#160;</text>
<polygon fill="#ffffff" stroke="transparent" points="354,-40.2 354,-59.2 463,-59.2 463,-40.2 354,-40.2"/>
<polygon fill="none" stroke="#000000" points="354,-40.2 354,-59.2 463,-59.2 463,-40.2 354,-40.2"/>
<text text-anchor="start" x="444.4053" y="-46.3" font-family="Helvetica,sans-Serif" font-size="11.00" fill="#000000">0 &gt;</text>
<polygon fill="none" stroke="#000000" stroke-width="2" points="190,-39.2 190,-237.2 464,-237.2 464,-39.2 190,-39.2"/>
</a>
</g>
</g>
<!-- personal_access_tokens&#45;&gt;user_data -->
<g id="edge4" class="edge">
<title>personal_access_tokens:w&#45;&gt;user_data:e</title>
<path fill="none" stroke="#000000" d="M176.6212,-183.1564C135.1199,-204.0155 203.7306,-328.2 140,-328.2"/>
<polygon fill="#000000" stroke="#000000" points="183.1639,-181.8112 191.725,-183.7262 187.082,-181.0056 191,-180.2 191,-180.2 191,-180.2 187.082,-181.0056 190.275,-176.6738 183.1639,-181.8112 183.1639,-181.8112"/>
<ellipse fill="none" stroke="#000000" cx="180.0295" cy="-182.4557" rx="3.2" ry="3.2"/>
</g>
</g>
</svg>
