<?xml version="1.0" encoding="UTF-8" standalone="no"?>
<!DOCTYPE svg PUBLIC "-//W3C//DTD SVG 1.1//EN"
 "http://www.w3.org/Graphics/SVG/1.1/DTD/svg11.dtd">
<!-- Generated by graphviz version 2.40.1 (20161225.0304)
 -->
<!-- Title: twoDegreesRelationshipsDiagram Pages: 1 -->
<svg width="481pt" height="415pt"
 viewBox="0.00 0.00 481.00 414.70" xmlns="http://www.w3.org/2000/svg" xmlns:xlink="http://www.w3.org/1999/xlink">
<g id="graph0" class="graph" transform="scale(1 1) rotate(0) translate(4 410.7)">
<title>twoDegreesRelationshipsDiagram</title>
<polygon fill="#ffffff" stroke="transparent" points="-4,4 -4,-410.7 477,-410.7 477,4 -4,4"/>
<text text-anchor="middle" x="72.4936" y="-7.3" font-family="Helvetica,sans-Serif" font-size="11.00" fill="#000000">Generated by SchemaSpy</text>
<!-- external_identity -->
<g id="node1" class="node">
<title>external_identity</title>
<g id="a_node1"><a xlink:href="../../tables/external_identity.html" xlink:title="external_identity" target="_top">
<polygon fill="#ffffff" stroke="transparent" points="260,-341.7 260,-402.7 394,-402.7 394,-341.7 260,-341.7"/>
<polygon fill="#f5f5f5" stroke="transparent" points="260,-379.2 260,-402.2 394,-402.2 394,-379.2 260,-379.2"/>
<polygon fill="none" stroke="#000000" points="260,-379.2 260,-402.2 394,-402.2 394,-379.2 260,-379.2"/>
<text text-anchor="start" x="265" y="-387.8" font-family="Helvetica,sans-Serif" font-weight="bold" font-size="11.00" fill="#000000">external_identity</text>
<text text-anchor="start" x="359.5219" y="-387.3" font-family="Helvetica,sans-Serif" font-size="11.00" fill="#000000">[table]</text>
<polygon fill="none" stroke="#000000" points="260,-360.2 260,-379.2 394,-379.2 394,-360.2 260,-360.2"/>
<text text-anchor="start" x="263" y="-366.3" font-family="Helvetica,sans-Serif" font-size="11.00" fill="#000000">...</text>
<polygon fill="#ffffff" stroke="transparent" points="260,-341.2 260,-360.2 325,-360.2 325,-341.2 260,-341.2"/>
<polygon fill="none" stroke="#000000" points="260,-341.2 260,-360.2 325,-360.2 325,-341.2 260,-341.2"/>
<text text-anchor="start" x="263" y="-347.3" font-family="Helvetica,sans-Serif" font-size="11.00" fill="#000000">&lt; 1</text>
<polygon fill="#ffffff" stroke="transparent" points="325,-341.2 325,-360.2 359,-360.2 359,-341.2 325,-341.2"/>
<polygon fill="none" stroke="#000000" points="325,-341.2 325,-360.2 359,-360.2 359,-341.2 325,-341.2"/>
<text text-anchor="start" x="349.8862" y="-347.3" font-family="Helvetica,sans-Serif" font-size="11.00" fill="#000000"> &#160;</text>
<polygon fill="#ffffff" stroke="transparent" points="359,-341.2 359,-360.2 394,-360.2 394,-341.2 359,-341.2"/>
<polygon fill="none" stroke="#000000" points="359,-341.2 359,-360.2 394,-360.2 394,-341.2 359,-341.2"/>
<text text-anchor="start" x="384.8862" y="-347.3" font-family="Helvetica,sans-Serif" font-size="11.00" fill="#000000"> &#160;</text>
</a>
</g>
</g>
<!-- user_data -->
<g id="node2" class="node">
<title>user_data</title>
<g id="a_node2"><a xlink:href="../../tables/user_data.html" xlink:title="user_data" target="_top">
<polygon fill="#ffffff" stroke="transparent" points="8,-194.7 8,-321.7 140,-321.7 140,-194.7 8,-194.7"/>
<polygon fill="#f5f5f5" stroke="transparent" points="8,-298.2 8,-321.2 140,-321.2 140,-298.2 8,-298.2"/>
<polygon fill="none" stroke="#000000" points="8,-298.2 8,-321.2 140,-321.2 140,-298.2 8,-298.2"/>
<text text-anchor="start" x="13" y="-306.8" font-family="Helvetica,sans-Serif" font-weight="bold" font-size="11.00" fill="#000000">user_data</text>
<text text-anchor="start" x="105.0437" y="-306.3" font-family="Helvetica,sans-Serif" font-size="11.00" fill="#000000">[table]</text>
<polygon fill="none" stroke="#000000" points="8,-276.2 8,-298.2 140,-298.2 140,-276.2 8,-276.2"/>
<image xlink:href="../../images/primaryKeys.png" width="11px" height="12px" preserveAspectRatio="xMinYMin meet" x="13" y="-293.2"/>
<text text-anchor="start" x="28" y="-283.3" font-family="Helvetica,sans-Serif" font-size="11.00" fill="#000000">user_id</text>
<polygon fill="#ffffff" stroke="transparent" points="8,-254.2 8,-276.2 140,-276.2 140,-254.2 8,-254.2"/>
<polygon fill="none" stroke="#000000" points="8,-254.2 8,-276.2 140,-276.2 140,-254.2 8,-254.2"/>
<text text-anchor="start" x="28" y="-261.3" font-family="Helvetica,sans-Serif" font-size="11.00" fill="#000000">email</text>
<polygon fill="#ffffff" stroke="transparent" points="8,-232.2 8,-254.2 140,-254.2 140,-232.2 8,-232.2"/>
<polygon fill="none" stroke="#000000" points="8,-232.2 8,-254.2 140,-254.2 140,-232.2 8,-232.2"/>
<text text-anchor="start" x="28" y="-239.3" font-family="Helvetica,sans-Serif" font-size="11.00" fill="#000000">private_package_id</text>
<polygon fill="none" stroke="#000000" points="8,-213.2 8,-232.2 140,-232.2 140,-213.2 8,-213.2"/>
<text text-anchor="start" x="11" y="-219.3" font-family="Helvetica,sans-Serif" font-size="11.00" fill="#000000">...</text>
<polygon fill="#ffffff" stroke="transparent" points="8,-194.2 8,-213.2 63,-213.2 63,-194.2 8,-194.2"/>
<polygon fill="none" stroke="#000000" points="8,-194.2 8,-213.2 63,-213.2 63,-194.2 8,-194.2"/>
<text text-anchor="start" x="11" y="-200.3" font-family="Helvetica,sans-Serif" font-size="11.00" fill="#000000"> &#160;</text>
<polygon fill="#ffffff" stroke="transparent" points="63,-194.2 63,-213.2 97,-213.2 97,-194.2 63,-194.2"/>
<polygon fill="none" stroke="#000000" points="63,-194.2 63,-213.2 97,-213.2 97,-194.2 63,-194.2"/>
<text text-anchor="start" x="87.8862" y="-200.3" font-family="Helvetica,sans-Serif" font-size="11.00" fill="#000000"> &#160;</text>
<polygon fill="#ffffff" stroke="transparent" points="97,-194.2 97,-213.2 140,-213.2 140,-194.2 97,-194.2"/>
<polygon fill="none" stroke="#000000" points="97,-194.2 97,-213.2 140,-213.2 140,-194.2 97,-194.2"/>
<text text-anchor="start" x="121.4053" y="-200.3" font-family="Helvetica,sans-Serif" font-size="11.00" fill="#000000">3 &gt;</text>
</a>
</g>
</g>
<!-- external_identity&#45;&gt;user_data -->
<g id="edge1" class="edge">
<title>external_identity:w&#45;&gt;user_data:e</title>
<path fill="none" stroke="#000000" d="M245.5833,-368.3814C218.2456,-364.9715 208.0884,-351.1383 181,-331.2 159.473,-315.3552 166.7296,-287.2 140,-287.2"/>
<polygon fill="#000000" stroke="#000000" points="252.0129,-368.7464 259.7959,-372.7942 256.0064,-368.9732 260,-369.2 260,-369.2 260,-369.2 256.0064,-368.9732 260.2041,-365.6058 252.0129,-368.7464 252.0129,-368.7464"/>
<ellipse fill="none" stroke="#000000" cx="248.818" cy="-368.565" rx="3.2" ry="3.2"/>
</g>
<!-- favorite_packages -->
<g id="node3" class="node">
<title>favorite_packages</title>
<g id="a_node3"><a xlink:href="../../tables/favorite_packages.html" xlink:title="favorite_packages" target="_top">
<polygon fill="#ffffff" stroke="transparent" points="255.5,-259.7 255.5,-320.7 398.5,-320.7 398.5,-259.7 255.5,-259.7"/>
<polygon fill="#f5f5f5" stroke="transparent" points="256,-297.2 256,-320.2 399,-320.2 399,-297.2 256,-297.2"/>
<polygon fill="none" stroke="#000000" points="256,-297.2 256,-320.2 399,-320.2 399,-297.2 256,-297.2"/>
<text text-anchor="start" x="261" y="-305.8" font-family="Helvetica,sans-Serif" font-weight="bold" font-size="11.00" fill="#000000">favorite_packages</text>
<text text-anchor="start" x="364.5219" y="-305.3" font-family="Helvetica,sans-Serif" font-size="11.00" fill="#000000">[table]</text>
<polygon fill="none" stroke="#000000" points="256,-278.2 256,-297.2 399,-297.2 399,-278.2 256,-278.2"/>
<text text-anchor="start" x="259" y="-284.3" font-family="Helvetica,sans-Serif" font-size="11.00" fill="#000000">...</text>
<polygon fill="#ffffff" stroke="transparent" points="256,-259.2 256,-278.2 326,-278.2 326,-259.2 256,-259.2"/>
<polygon fill="none" stroke="#000000" points="256,-259.2 256,-278.2 326,-278.2 326,-259.2 256,-259.2"/>
<text text-anchor="start" x="259" y="-265.3" font-family="Helvetica,sans-Serif" font-size="11.00" fill="#000000">&lt; 2</text>
<polygon fill="#ffffff" stroke="transparent" points="326,-259.2 326,-278.2 362,-278.2 362,-259.2 326,-259.2"/>
<polygon fill="none" stroke="#000000" points="326,-259.2 326,-278.2 362,-278.2 362,-259.2 326,-259.2"/>
<text text-anchor="start" x="352.8862" y="-265.3" font-family="Helvetica,sans-Serif" font-size="11.00" fill="#000000"> &#160;</text>
<polygon fill="#ffffff" stroke="transparent" points="362,-259.2 362,-278.2 399,-278.2 399,-259.2 362,-259.2"/>
<polygon fill="none" stroke="#000000" points="362,-259.2 362,-278.2 399,-278.2 399,-259.2 362,-259.2"/>
<text text-anchor="start" x="389.8862" y="-265.3" font-family="Helvetica,sans-Serif" font-size="11.00" fill="#000000"> &#160;</text>
</a>
</g>
</g>
<!-- favorite_packages&#45;&gt;user_data -->
<g id="edge2" class="edge">
<title>favorite_packages:w&#45;&gt;user_data:e</title>
<path fill="none" stroke="#000000" d="M241.4072,-287.2C201.4275,-287.2 186.3194,-287.2 140,-287.2"/>
<polygon fill="#000000" stroke="#000000" points="248,-287.2001 256,-290.8 252,-287.2 256,-287.2 256,-287.2 256,-287.2 252,-287.2 256,-283.6 248,-287.2001 248,-287.2001"/>
<ellipse fill="none" stroke="#000000" cx="244.8" cy="-287.2001" rx="3.2" ry="3.2"/>
</g>
<!-- personal_access_tokens -->
<g id="node4" class="node">
<title>personal_access_tokens</title>
<g id="a_node4"><a xlink:href="../../tables/personal_access_tokens.html" xlink:title="personal_access_tokens" target="_top">
<polygon fill="#ffffff" stroke="transparent" points="189,-38.2 189,-238.2 465,-238.2 465,-38.2 189,-38.2"/>
<polygon fill="#f5f5f5" stroke="transparent" points="191,-213.2 191,-236.2 463,-236.2 463,-213.2 191,-213.2"/>
<polygon fill="none" stroke="#000000" points="191,-213.2 191,-236.2 463,-236.2 463,-213.2 191,-213.2"/>
<text text-anchor="start" x="196" y="-221.8" font-family="Helvetica,sans-Serif" font-weight="bold" font-size="11.00" fill="#000000">personal_access_tokens</text>
<text text-anchor="start" x="428.0437" y="-221.3" font-family="Helvetica,sans-Serif" font-size="11.00" fill="#000000">[table]</text>
<polygon fill="none" stroke="#000000" points="191,-191.2 191,-213.2 354,-213.2 354,-191.2 191,-191.2"/>
<image xlink:href="../../images/primaryKeys.png" width="11px" height="12px" preserveAspectRatio="xMinYMin meet" x="196" y="-208.2"/>
<text text-anchor="start" x="211" y="-198.3" font-family="Helvetica,sans-Serif" font-size="11.00" fill="#000000">id</text>
<polygon fill="none" stroke="#000000" points="354,-191.2 354,-213.2 463,-213.2 463,-191.2 354,-191.2"/>
<text text-anchor="start" x="356.5344" y="-198.9" font-family="Helvetica,sans-Serif" font-size="11.00" fill="#000000">varchar[2147483647]</text>
<polygon fill="none" stroke="#000000" points="191,-169.2 191,-191.2 354,-191.2 354,-169.2 191,-169.2"/>
<image xlink:href="../../images/foreignKeys.png" width="11px" height="12px" preserveAspectRatio="xMinYMin meet" x="196" y="-186.2"/>
<text text-anchor="start" x="211" y="-176.3" font-family="Helvetica,sans-Serif" font-size="11.00" fill="#000000">user_id</text>
<polygon fill="none" stroke="#000000" points="354,-169.2 354,-191.2 463,-191.2 463,-169.2 354,-169.2"/>
<text text-anchor="start" x="356.5344" y="-176.9" font-family="Helvetica,sans-Serif" font-size="11.00" fill="#000000">varchar[2147483647]</text>
<polygon fill="#ffffff" stroke="transparent" points="191,-147.2 191,-169.2 354,-169.2 354,-147.2 191,-147.2"/>
<polygon fill="none" stroke="#000000" points="191,-147.2 191,-169.2 354,-169.2 354,-147.2 191,-147.2"/>
<text text-anchor="start" x="211" y="-154.3" font-family="Helvetica,sans-Serif" font-size="11.00" fill="#000000">token_hash</text>
<polygon fill="none" stroke="#000000" points="354,-147.2 354,-169.2 463,-169.2 463,-147.2 354,-147.2"/>
<text text-anchor="start" x="356.5344" y="-154.9" font-family="Helvetica,sans-Serif" font-size="11.00" fill="#000000">varchar[2147483647]</text>
<polygon fill="none" stroke="#000000" points="191,-125.2 191,-147.2 354,-147.2 354,-125.2 191,-125.2"/>
<text text-anchor="start" x="211" y="-132.3" font-family="Helvetica,sans-Serif" font-size="11.00" fill="#000000">name</text>
<polygon fill="none" stroke="#000000" points="354,-125.2 354,-147.2 463,-147.2 463,-125.2 354,-125.2"/>
<text text-anchor="start" x="356.5344" y="-132.9" font-family="Helvetica,sans-Serif" font-size="11.00" fill="#000000">varchar[2147483647]</text>
<polygon fill="none" stroke="#000000" points="191,-103.2 191,-125.2 354,-125.2 354,-103.2 191,-103.2"/>
<text text-anchor="start" x="211" y="-110.3" font-family="Helvetica,sans-Serif" font-size="11.00" fill="#000000">created_at</text>
<polygon fill="none" stroke="#000000" points="354,-103.2 354,-125.2 463,-125.2 463,-103.2 354,-103.2"/>
<text text-anchor="start" x="357" y="-110.9" font-family="Helvetica,sans-Serif" font-size="11.00" fill="#000000">timestamp[29,6]</text>
<polygon fill="none" stroke="#000000" points="191,-81.2 191,-103.2 354,-103.2 354,-81.2 191,-81.2"/>
<text text-anchor="start" x="211" y="-88.3" font-family="Helvetica,sans-Serif" font-size="11.00" fill="#000000">expires_at</text>
<polygon fill="none" stroke="#000000" points="354,-81.2 354,-103.2 463,-103.2 463,-81.2 354,-81.2"/>
<text text-anchor="start" x="357" y="-88.9" font-family="Helvetica,sans-Serif" font-size="11.00" fill="#000000">timestamp[29,6]</text>
<polygon fill="none" stroke="#000000" points="191,-59.2 191,-81.2 354,-81.2 354,-59.2 191,-59.2"/>
<text text-anchor="start" x="211" y="-66.3" font-family="Helvetica,sans-Serif" font-size="11.00" fill="#000000">deleted_at</text>
<polygon fill="none" stroke="#000000" points="354,-59.2 354,-81.2 463,-81.2 463,-59.2 354,-59.2"/>
<text text-anchor="start" x="357" y="-66.9" font-family="Helvetica,sans-Serif" font-size="11.00" fill="#000000">timestamp[29,6]</text>
<polygon fill="#ffffff" stroke="transparent" points="191,-40.2 191,-59.2 277,-59.2 277,-40.2 191,-40.2"/>
<polygon fill="none" stroke="#000000" points="191,-40.2 191,-59.2 277,-59.2 277,-40.2 191,-40.2"/>
<text text-anchor="start" x="194" y="-46.3" font-family="Helvetica,sans-Serif" font-size="11.00" fill="#000000">&lt; 1</text>
<polygon fill="#ffffff" stroke="transparent" points="277,-40.2 277,-59.2 354,-59.2 354,-40.2 277,-40.2"/>
<polygon fill="none" stroke="#000000" points="277,-40.2 277,-59.2 354,-59.2 354,-40.2 277,-40.2"/>
<text text-anchor="start" x="344.8862" y="-46.3" font-family="Helvetica,sans-Serif" font-size="11.00" fill="#000000"> &#160;</text>
<polygon fill="#ffffff" stroke="transparent" points="354,-40.2 354,-59.2 463,-59.2 463,-40.2 354,-40.2"/>
<polygon fill="none" stroke="#000000" points="354,-40.2 354,-59.2 463,-59.2 463,-40.2 354,-40.2"/>
<text text-anchor="start" x="444.4053" y="-46.3" font-family="Helvetica,sans-Serif" font-size="11.00" fill="#000000">0 &gt;</text>
<polygon fill="none" stroke="#000000" stroke-width="2" points="190,-39.2 190,-237.2 464,-237.2 464,-39.2 190,-39.2"/>
</a>
</g>
</g>
<!-- personal_access_tokens&#45;&gt;user_data -->
<g id="edge3" class="edge">
<title>personal_access_tokens:w&#45;&gt;user_data:e</title>
<path fill="none" stroke="#000000" d="M176.9064,-184.0082C149.2616,-203.0691 186.7134,-287.2 140,-287.2"/>
<polygon fill="#000000" stroke="#000000" points="183.277,-182.2869 191.9391,-183.6754 187.1385,-181.2434 191,-180.2 191,-180.2 191,-180.2 187.1385,-181.2434 190.0609,-176.7246 183.277,-182.2869 183.277,-182.2869"/>
<ellipse fill="none" stroke="#000000" cx="180.1878" cy="-183.1216" rx="3.2" ry="3.2"/>
</g>
</g>
</svg>
