<?xml version="1.0" encoding="UTF-8" standalone="no"?>
<!DOCTYPE svg PUBLIC "-//W3C//DTD SVG 1.1//EN"
 "http://www.w3.org/Graphics/SVG/1.1/DTD/svg11.dtd">
<!-- Generated by graphviz version 2.40.1 (20161225.0304)
 -->
<!-- Title: oneDegreeRelationshipsDiagram Pages: 1 -->
<svg width="481pt" height="250pt"
 viewBox="0.00 0.00 481.00 250.20" xmlns="http://www.w3.org/2000/svg" xmlns:xlink="http://www.w3.org/1999/xlink">
<g id="graph0" class="graph" transform="scale(1 1) rotate(0) translate(4 246.2)">
<title>oneDegreeRelationshipsDiagram</title>
<polygon fill="#ffffff" stroke="transparent" points="-4,4 -4,-246.2 477,-246.2 477,4 -4,4"/>
<text text-anchor="middle" x="72.4936" y="-7.3" font-family="Helvetica,sans-Serif" font-size="11.00" fill="#000000">Generated by SchemaSpy</text>
<!-- personal_access_tokens -->
<g id="node1" class="node">
<title>personal_access_tokens</title>
<g id="a_node1"><a xlink:href="../../tables/personal_access_tokens.html" xlink:title="personal_access_tokens" target="_top">
<polygon fill="#ffffff" stroke="transparent" points="189,-38.2 189,-238.2 465,-238.2 465,-38.2 189,-38.2"/>
<polygon fill="#f5f5f5" stroke="transparent" points="191,-213.2 191,-236.2 463,-236.2 463,-213.2 191,-213.2"/>
<polygon fill="none" stroke="#000000" points="191,-213.2 191,-236.2 463,-236.2 463,-213.2 191,-213.2"/>
<text text-anchor="start" x="196" y="-221.8" font-family="Helvetica,sans-Serif" font-weight="bold" font-size="11.00" fill="#000000">personal_access_tokens</text>
<text text-anchor="start" x="428.0437" y="-221.3" font-family="Helvetica,sans-Serif" font-size="11.00" fill="#000000">[table]</text>
<polygon fill="none" stroke="#000000" points="191,-191.2 191,-213.2 354,-213.2 354,-191.2 191,-191.2"/>
<image xlink:href="../../images/primaryKeys.png" width="11px" height="12px" preserveAspectRatio="xMinYMin meet" x="196" y="-208.2"/>
<text text-anchor="start" x="211" y="-198.3" font-family="Helvetica,sans-Serif" font-size="11.00" fill="#000000">id</text>
<polygon fill="none" stroke="#000000" points="354,-191.2 354,-213.2 463,-213.2 463,-191.2 354,-191.2"/>
<text text-anchor="start" x="356.5344" y="-198.9" font-family="Helvetica,sans-Serif" font-size="11.00" fill="#000000">varchar[2147483647]</text>
<polygon fill="none" stroke="#000000" points="191,-169.2 191,-191.2 354,-191.2 354,-169.2 191,-169.2"/>
<image xlink:href="../../images/foreignKeys.png" width="11px" height="12px" preserveAspectRatio="xMinYMin meet" x="196" y="-186.2"/>
<text text-anchor="start" x="211" y="-176.3" font-family="Helvetica,sans-Serif" font-size="11.00" fill="#000000">user_id</text>
<polygon fill="none" stroke="#000000" points="354,-169.2 354,-191.2 463,-191.2 463,-169.2 354,-169.2"/>
<text text-anchor="start" x="356.5344" y="-176.9" font-family="Helvetica,sans-Serif" font-size="11.00" fill="#000000">varchar[2147483647]</text>
<polygon fill="#ffffff" stroke="transparent" points="191,-147.2 191,-169.2 354,-169.2 354,-147.2 191,-147.2"/>
<polygon fill="none" stroke="#000000" points="191,-147.2 191,-169.2 354,-169.2 354,-147.2 191,-147.2"/>
<text text-anchor="start" x="211" y="-154.3" font-family="Helvetica,sans-Serif" font-size="11.00" fill="#000000">token_hash</text>
<polygon fill="none" stroke="#000000" points="354,-147.2 354,-169.2 463,-169.2 463,-147.2 354,-147.2"/>
<text text-anchor="start" x="356.5344" y="-154.9" font-family="Helvetica,sans-Serif" font-size="11.00" fill="#000000">varchar[2147483647]</text>
<polygon fill="none" stroke="#000000" points="191,-125.2 191,-147.2 354,-147.2 354,-125.2 191,-125.2"/>
<text text-anchor="start" x="211" y="-132.3" font-family="Helvetica,sans-Serif" font-size="11.00" fill="#000000">name</text>
<polygon fill="none" stroke="#000000" points="354,-125.2 354,-147.2 463,-147.2 463,-125.2 354,-125.2"/>
<text text-anchor="start" x="356.5344" y="-132.9" font-family="Helvetica,sans-Serif" font-size="11.00" fill="#000000">varchar[2147483647]</text>
<polygon fill="none" stroke="#000000" points="191,-103.2 191,-125.2 354,-125.2 354,-103.2 191,-103.2"/>
<text text-anchor="start" x="211" y="-110.3" font-family="Helvetica,sans-Serif" font-size="11.00" fill="#000000">created_at</text>
<polygon fill="none" stroke="#000000" points="354,-103.2 354,-125.2 463,-125.2 463,-103.2 354,-103.2"/>
<text text-anchor="start" x="357" y="-110.9" font-family="Helvetica,sans-Serif" font-size="11.00" fill="#000000">timestamp[29,6]</text>
<polygon fill="none" stroke="#000000" points="191,-81.2 191,-103.2 354,-103.2 354,-81.2 191,-81.2"/>
<text text-anchor="start" x="211" y="-88.3" font-family="Helvetica,sans-Serif" font-size="11.00" fill="#000000">expires_at</text>
<polygon fill="none" stroke="#000000" points="354,-81.2 354,-103.2 463,-103.2 463,-81.2 354,-81.2"/>
<text text-anchor="start" x="357" y="-88.9" font-family="Helvetica,sans-Serif" font-size="11.00" fill="#000000">timestamp[29,6]</text>
<polygon fill="none" stroke="#000000" points="191,-59.2 191,-81.2 354,-81.2 354,-59.2 191,-59.2"/>
<text text-anchor="start" x="211" y="-66.3" font-family="Helvetica,sans-Serif" font-size="11.00" fill="#000000">deleted_at</text>
<polygon fill="none" stroke="#000000" points="354,-59.2 354,-81.2 463,-81.2 463,-59.2 354,-59.2"/>
<text text-anchor="start" x="357" y="-66.9" font-family="Helvetica,sans-Serif" font-size="11.00" fill="#000000">timestamp[29,6]</text>
<polygon fill="#ffffff" stroke="transparent" points="191,-40.2 191,-59.2 277,-59.2 277,-40.2 191,-40.2"/>
<polygon fill="none" stroke="#000000" points="191,-40.2 191,-59.2 277,-59.2 277,-40.2 191,-40.2"/>
<text text-anchor="start" x="194" y="-46.3" font-family="Helvetica,sans-Serif" font-size="11.00" fill="#000000">&lt; 1</text>
<polygon fill="#ffffff" stroke="transparent" points="277,-40.2 277,-59.2 354,-59.2 354,-40.2 277,-40.2"/>
<polygon fill="none" stroke="#000000" points="277,-40.2 277,-59.2 354,-59.2 354,-40.2 277,-40.2"/>
<text text-anchor="start" x="344.8862" y="-46.3" font-family="Helvetica,sans-Serif" font-size="11.00" fill="#000000"> &#160;</text>
<polygon fill="#ffffff" stroke="transparent" points="354,-40.2 354,-59.2 463,-59.2 463,-40.2 354,-40.2"/>
<polygon fill="none" stroke="#000000" points="354,-40.2 354,-59.2 463,-59.2 463,-40.2 354,-40.2"/>
<text text-anchor="start" x="444.4053" y="-46.3" font-family="Helvetica,sans-Serif" font-size="11.00" fill="#000000">0 &gt;</text>
<polygon fill="none" stroke="#000000" stroke-width="2" points="190,-39.2 190,-237.2 464,-237.2 464,-39.2 190,-39.2"/>
</a>
</g>
</g>
<!-- user_data -->
<g id="node2" class="node">
<title>user_data</title>
<g id="a_node2"><a xlink:href="../../tables/user_data.html" xlink:title="user_data" target="_top">
<polygon fill="#ffffff" stroke="transparent" points="8,-87.7 8,-214.7 140,-214.7 140,-87.7 8,-87.7"/>
<polygon fill="#f5f5f5" stroke="transparent" points="8,-191.2 8,-214.2 140,-214.2 140,-191.2 8,-191.2"/>
<polygon fill="none" stroke="#000000" points="8,-191.2 8,-214.2 140,-214.2 140,-191.2 8,-191.2"/>
<text text-anchor="start" x="13" y="-199.8" font-family="Helvetica,sans-Serif" font-weight="bold" font-size="11.00" fill="#000000">user_data</text>
<text text-anchor="start" x="105.0437" y="-199.3" font-family="Helvetica,sans-Serif" font-size="11.00" fill="#000000">[table]</text>
<polygon fill="none" stroke="#000000" points="8,-169.2 8,-191.2 140,-191.2 140,-169.2 8,-169.2"/>
<image xlink:href="../../images/primaryKeys.png" width="11px" height="12px" preserveAspectRatio="xMinYMin meet" x="13" y="-186.2"/>
<text text-anchor="start" x="28" y="-176.3" font-family="Helvetica,sans-Serif" font-size="11.00" fill="#000000">user_id</text>
<polygon fill="#ffffff" stroke="transparent" points="8,-147.2 8,-169.2 140,-169.2 140,-147.2 8,-147.2"/>
<polygon fill="none" stroke="#000000" points="8,-147.2 8,-169.2 140,-169.2 140,-147.2 8,-147.2"/>
<text text-anchor="start" x="28" y="-154.3" font-family="Helvetica,sans-Serif" font-size="11.00" fill="#000000">email</text>
<polygon fill="#ffffff" stroke="transparent" points="8,-125.2 8,-147.2 140,-147.2 140,-125.2 8,-125.2"/>
<polygon fill="none" stroke="#000000" points="8,-125.2 8,-147.2 140,-147.2 140,-125.2 8,-125.2"/>
<text text-anchor="start" x="28" y="-132.3" font-family="Helvetica,sans-Serif" font-size="11.00" fill="#000000">private_package_id</text>
<polygon fill="none" stroke="#000000" points="8,-106.2 8,-125.2 140,-125.2 140,-106.2 8,-106.2"/>
<text text-anchor="start" x="11" y="-112.3" font-family="Helvetica,sans-Serif" font-size="11.00" fill="#000000">...</text>
<polygon fill="#ffffff" stroke="transparent" points="8,-87.2 8,-106.2 63,-106.2 63,-87.2 8,-87.2"/>
<polygon fill="none" stroke="#000000" points="8,-87.2 8,-106.2 63,-106.2 63,-87.2 8,-87.2"/>
<text text-anchor="start" x="11" y="-93.3" font-family="Helvetica,sans-Serif" font-size="11.00" fill="#000000"> &#160;</text>
<polygon fill="#ffffff" stroke="transparent" points="63,-87.2 63,-106.2 97,-106.2 97,-87.2 63,-87.2"/>
<polygon fill="none" stroke="#000000" points="63,-87.2 63,-106.2 97,-106.2 97,-87.2 63,-87.2"/>
<text text-anchor="start" x="87.8862" y="-93.3" font-family="Helvetica,sans-Serif" font-size="11.00" fill="#000000"> &#160;</text>
<polygon fill="#ffffff" stroke="transparent" points="97,-87.2 97,-106.2 140,-106.2 140,-87.2 97,-87.2"/>
<polygon fill="none" stroke="#000000" points="97,-87.2 97,-106.2 140,-106.2 140,-87.2 97,-87.2"/>
<text text-anchor="start" x="121.4053" y="-93.3" font-family="Helvetica,sans-Serif" font-size="11.00" fill="#000000">4 &gt;</text>
</a>
</g>
</g>
<!-- personal_access_tokens&#45;&gt;user_data -->
<g id="edge1" class="edge">
<title>personal_access_tokens:w&#45;&gt;user_data:e</title>
<path fill="none" stroke="#000000" d="M176.276,-180.2C164.2815,-180.2 156.8229,-180.2 140,-180.2"/>
<polygon fill="#000000" stroke="#000000" points="183,-180.2001 191,-183.8 187,-180.2 191,-180.2 191,-180.2 191,-180.2 187,-180.2 191,-176.6 183,-180.2001 183,-180.2001"/>
<ellipse fill="none" stroke="#000000" cx="179.8" cy="-180.2001" rx="3.2" ry="3.2"/>
</g>
</g>
</svg>
