<?xml version="1.0" encoding="UTF-8" standalone="no"?>
<!DOCTYPE svg PUBLIC "-//W3C//DTD SVG 1.1//EN"
 "http://www.w3.org/Graphics/SVG/1.1/DTD/svg11.dtd">
<!-- Generated by graphviz version 2.40.1 (20161225.0304)
 -->
<!-- Title: twoDegreesRelationshipsDiagram Pages: 1 -->
<svg width="503pt" height="677pt"
 viewBox="0.00 0.00 503.00 677.20" xmlns="http://www.w3.org/2000/svg" xmlns:xlink="http://www.w3.org/1999/xlink">
<g id="graph0" class="graph" transform="scale(1 1) rotate(0) translate(4 673.2)">
<title>twoDegreesRelationshipsDiagram</title>
<polygon fill="#ffffff" stroke="transparent" points="-4,4 -4,-673.2 499,-673.2 499,4 -4,4"/>
<text text-anchor="middle" x="72.4936" y="-7.3" font-family="Helvetica,sans-Serif" font-size="11.00" fill="#000000">Generated by SchemaSpy</text>
<!-- branch_draft_content -->
<g id="node1" class="node">
<title>branch_draft_content</title>
<g id="a_node1"><a xlink:href="../../tables/branch_draft_content.html" xlink:title="branch_draft_content" target="_top">
<polygon fill="#ffffff" stroke="transparent" points="319.5,-538.2 319.5,-665.2 481.5,-665.2 481.5,-538.2 319.5,-538.2"/>
<polygon fill="#f5f5f5" stroke="transparent" points="319.5,-641.7 319.5,-664.7 481.5,-664.7 481.5,-641.7 319.5,-641.7"/>
<polygon fill="none" stroke="#000000" points="319.5,-641.7 319.5,-664.7 481.5,-664.7 481.5,-641.7 319.5,-641.7"/>
<text text-anchor="start" x="324.5" y="-650.3" font-family="Helvetica,sans-Serif" font-weight="bold" font-size="11.00" fill="#000000">branch_draft_content</text>
<text text-anchor="start" x="447.0219" y="-649.8" font-family="Helvetica,sans-Serif" font-size="11.00" fill="#000000">[table]</text>
<polygon fill="none" stroke="#000000" points="319.5,-619.7 319.5,-641.7 481.5,-641.7 481.5,-619.7 319.5,-619.7"/>
<image xlink:href="../../images/primaryKeys.png" width="11px" height="12px" preserveAspectRatio="xMinYMin meet" x="324.5" y="-636.7"/>
<text text-anchor="start" x="348.5" y="-626.8" font-family="Helvetica,sans-Serif" font-size="11.00" fill="#000000">project_id</text>
<polygon fill="none" stroke="#000000" points="319.5,-597.7 319.5,-619.7 481.5,-619.7 481.5,-597.7 319.5,-597.7"/>
<image xlink:href="../../images/primaryKeys.png" width="11px" height="12px" preserveAspectRatio="xMinYMin meet" x="324.5" y="-614.7"/>
<text text-anchor="start" x="348.5" y="-604.8" font-family="Helvetica,sans-Serif" font-size="11.00" fill="#000000">branch_name</text>
<polygon fill="none" stroke="#000000" points="319.5,-575.7 319.5,-597.7 481.5,-597.7 481.5,-575.7 319.5,-575.7"/>
<image xlink:href="../../images/primaryKeys.png" width="11px" height="12px" preserveAspectRatio="xMinYMin meet" x="324.5" y="-592.7"/>
<text text-anchor="start" x="348.5" y="-582.8" font-family="Helvetica,sans-Serif" font-size="11.00" fill="#000000">file_id</text>
<polygon fill="none" stroke="#000000" points="319.5,-556.7 319.5,-575.7 481.5,-575.7 481.5,-556.7 319.5,-556.7"/>
<text text-anchor="start" x="322.5" y="-562.8" font-family="Helvetica,sans-Serif" font-size="11.00" fill="#000000">...</text>
<polygon fill="#ffffff" stroke="transparent" points="319.5,-537.7 319.5,-556.7 398.5,-556.7 398.5,-537.7 319.5,-537.7"/>
<polygon fill="none" stroke="#000000" points="319.5,-537.7 319.5,-556.7 398.5,-556.7 398.5,-537.7 319.5,-537.7"/>
<text text-anchor="start" x="322.5" y="-543.8" font-family="Helvetica,sans-Serif" font-size="11.00" fill="#000000">&lt; 1</text>
<polygon fill="#ffffff" stroke="transparent" points="398.5,-537.7 398.5,-556.7 439.5,-556.7 439.5,-537.7 398.5,-537.7"/>
<polygon fill="none" stroke="#000000" points="398.5,-537.7 398.5,-556.7 439.5,-556.7 439.5,-537.7 398.5,-537.7"/>
<text text-anchor="start" x="430.3862" y="-543.8" font-family="Helvetica,sans-Serif" font-size="11.00" fill="#000000"> &#160;</text>
<polygon fill="#ffffff" stroke="transparent" points="439.5,-537.7 439.5,-556.7 481.5,-556.7 481.5,-537.7 439.5,-537.7"/>
<polygon fill="none" stroke="#000000" points="439.5,-537.7 439.5,-556.7 481.5,-556.7 481.5,-537.7 439.5,-537.7"/>
<text text-anchor="start" x="472.3862" y="-543.8" font-family="Helvetica,sans-Serif" font-size="11.00" fill="#000000"> &#160;</text>
</a>
</g>
</g>
<!-- project -->
<g id="node2" class="node">
<title>project</title>
<g id="a_node2"><a xlink:href="../../tables/project.html" xlink:title="project" target="_top">
<polygon fill="#ffffff" stroke="transparent" points="8,-120.7 8,-518.7 265,-518.7 265,-120.7 8,-120.7"/>
<polygon fill="#f5f5f5" stroke="transparent" points="10.5,-493.7 10.5,-516.7 263.5,-516.7 263.5,-493.7 10.5,-493.7"/>
<polygon fill="none" stroke="#000000" points="10.5,-493.7 10.5,-516.7 263.5,-516.7 263.5,-493.7 10.5,-493.7"/>
<text text-anchor="start" x="15.5" y="-502.3" font-family="Helvetica,sans-Serif" font-weight="bold" font-size="11.00" fill="#000000">project</text>
<text text-anchor="start" x="228.5437" y="-501.8" font-family="Helvetica,sans-Serif" font-size="11.00" fill="#000000">[table]</text>
<polygon fill="none" stroke="#000000" points="10.5,-471.7 10.5,-493.7 154.5,-493.7 154.5,-471.7 10.5,-471.7"/>
<image xlink:href="../../images/primaryKeys.png" width="11px" height="12px" preserveAspectRatio="xMinYMin meet" x="15.5" y="-488.7"/>
<text text-anchor="start" x="30.5" y="-478.8" font-family="Helvetica,sans-Serif" font-size="11.00" fill="#000000">id</text>
<polygon fill="none" stroke="#000000" points="154.5,-471.7 154.5,-493.7 263.5,-493.7 263.5,-471.7 154.5,-471.7"/>
<text text-anchor="start" x="157.0344" y="-479.4" font-family="Helvetica,sans-Serif" font-size="11.00" fill="#000000">varchar[2147483647]</text>
<polygon fill="none" stroke="#000000" points="10.5,-449.7 10.5,-471.7 154.5,-471.7 154.5,-449.7 10.5,-449.7"/>
<text text-anchor="start" x="30.5" y="-456.8" font-family="Helvetica,sans-Serif" font-size="11.00" fill="#000000">name</text>
<polygon fill="none" stroke="#000000" points="154.5,-449.7 154.5,-471.7 263.5,-471.7 263.5,-449.7 154.5,-449.7"/>
<text text-anchor="start" x="157.0344" y="-457.4" font-family="Helvetica,sans-Serif" font-size="11.00" fill="#000000">varchar[2147483647]</text>
<polygon fill="none" stroke="#000000" points="10.5,-427.7 10.5,-449.7 154.5,-449.7 154.5,-427.7 10.5,-427.7"/>
<text text-anchor="start" x="30.5" y="-434.8" font-family="Helvetica,sans-Serif" font-size="11.00" fill="#000000">alias</text>
<polygon fill="none" stroke="#000000" points="154.5,-427.7 154.5,-449.7 263.5,-449.7 263.5,-427.7 154.5,-427.7"/>
<text text-anchor="start" x="157.0344" y="-435.4" font-family="Helvetica,sans-Serif" font-size="11.00" fill="#000000">varchar[2147483647]</text>
<polygon fill="none" stroke="#000000" points="10.5,-405.7 10.5,-427.7 154.5,-427.7 154.5,-405.7 10.5,-405.7"/>
<text text-anchor="start" x="30.5" y="-412.8" font-family="Helvetica,sans-Serif" font-size="11.00" fill="#000000">group_id</text>
<polygon fill="none" stroke="#000000" points="154.5,-405.7 154.5,-427.7 263.5,-427.7 263.5,-405.7 154.5,-405.7"/>
<text text-anchor="start" x="157.0344" y="-413.4" font-family="Helvetica,sans-Serif" font-size="11.00" fill="#000000">varchar[2147483647]</text>
<polygon fill="none" stroke="#000000" points="10.5,-383.7 10.5,-405.7 154.5,-405.7 154.5,-383.7 10.5,-383.7"/>
<text text-anchor="start" x="30.5" y="-390.8" font-family="Helvetica,sans-Serif" font-size="11.00" fill="#000000">description</text>
<polygon fill="none" stroke="#000000" points="154.5,-383.7 154.5,-405.7 263.5,-405.7 263.5,-383.7 154.5,-383.7"/>
<text text-anchor="start" x="157.5" y="-391.4" font-family="Helvetica,sans-Serif" font-size="11.00" fill="#000000">text[2147483647]</text>
<polygon fill="none" stroke="#000000" points="10.5,-361.7 10.5,-383.7 154.5,-383.7 154.5,-361.7 10.5,-361.7"/>
<text text-anchor="start" x="30.5" y="-368.8" font-family="Helvetica,sans-Serif" font-size="11.00" fill="#000000">integration_type</text>
<polygon fill="none" stroke="#000000" points="154.5,-361.7 154.5,-383.7 263.5,-383.7 263.5,-361.7 154.5,-361.7"/>
<text text-anchor="start" x="157.0344" y="-369.4" font-family="Helvetica,sans-Serif" font-size="11.00" fill="#000000">varchar[2147483647]</text>
<polygon fill="none" stroke="#000000" points="10.5,-339.7 10.5,-361.7 154.5,-361.7 154.5,-339.7 10.5,-339.7"/>
<text text-anchor="start" x="30.5" y="-346.8" font-family="Helvetica,sans-Serif" font-size="11.00" fill="#000000">default_branch</text>
<polygon fill="none" stroke="#000000" points="154.5,-339.7 154.5,-361.7 263.5,-361.7 263.5,-339.7 154.5,-339.7"/>
<text text-anchor="start" x="157.0344" y="-347.4" font-family="Helvetica,sans-Serif" font-size="11.00" fill="#000000">varchar[2147483647]</text>
<polygon fill="none" stroke="#000000" points="10.5,-317.7 10.5,-339.7 154.5,-339.7 154.5,-317.7 10.5,-317.7"/>
<text text-anchor="start" x="30.5" y="-324.8" font-family="Helvetica,sans-Serif" font-size="11.00" fill="#000000">default_folder</text>
<polygon fill="none" stroke="#000000" points="154.5,-317.7 154.5,-339.7 263.5,-339.7 263.5,-317.7 154.5,-317.7"/>
<text text-anchor="start" x="157.0344" y="-325.4" font-family="Helvetica,sans-Serif" font-size="11.00" fill="#000000">varchar[2147483647]</text>
<polygon fill="none" stroke="#000000" points="10.5,-295.7 10.5,-317.7 154.5,-317.7 154.5,-295.7 10.5,-295.7"/>
<text text-anchor="start" x="30.5" y="-302.8" font-family="Helvetica,sans-Serif" font-size="11.00" fill="#000000">repository_id</text>
<polygon fill="none" stroke="#000000" points="154.5,-295.7 154.5,-317.7 263.5,-317.7 263.5,-295.7 154.5,-295.7"/>
<text text-anchor="start" x="157.0344" y="-303.4" font-family="Helvetica,sans-Serif" font-size="11.00" fill="#000000">varchar[2147483647]</text>
<polygon fill="none" stroke="#000000" points="10.5,-273.7 10.5,-295.7 154.5,-295.7 154.5,-273.7 10.5,-273.7"/>
<text text-anchor="start" x="30.5" y="-280.8" font-family="Helvetica,sans-Serif" font-size="11.00" fill="#000000">deleted_at</text>
<polygon fill="none" stroke="#000000" points="154.5,-273.7 154.5,-295.7 263.5,-295.7 263.5,-273.7 154.5,-273.7"/>
<text text-anchor="start" x="157.5" y="-281.4" font-family="Helvetica,sans-Serif" font-size="11.00" fill="#000000">timestamp[29,6]</text>
<polygon fill="none" stroke="#000000" points="10.5,-251.7 10.5,-273.7 154.5,-273.7 154.5,-251.7 10.5,-251.7"/>
<text text-anchor="start" x="30.5" y="-258.8" font-family="Helvetica,sans-Serif" font-size="11.00" fill="#000000">repository_name</text>
<polygon fill="none" stroke="#000000" points="154.5,-251.7 154.5,-273.7 263.5,-273.7 263.5,-251.7 154.5,-251.7"/>
<text text-anchor="start" x="157.0344" y="-259.4" font-family="Helvetica,sans-Serif" font-size="11.00" fill="#000000">varchar[2147483647]</text>
<polygon fill="none" stroke="#000000" points="10.5,-229.7 10.5,-251.7 154.5,-251.7 154.5,-229.7 10.5,-229.7"/>
<text text-anchor="start" x="30.5" y="-236.8" font-family="Helvetica,sans-Serif" font-size="11.00" fill="#000000">repository_url</text>
<polygon fill="none" stroke="#000000" points="154.5,-229.7 154.5,-251.7 263.5,-251.7 263.5,-229.7 154.5,-229.7"/>
<text text-anchor="start" x="157.0344" y="-237.4" font-family="Helvetica,sans-Serif" font-size="11.00" fill="#000000">varchar[2147483647]</text>
<polygon fill="none" stroke="#000000" points="10.5,-207.7 10.5,-229.7 154.5,-229.7 154.5,-207.7 10.5,-207.7"/>
<text text-anchor="start" x="30.5" y="-214.8" font-family="Helvetica,sans-Serif" font-size="11.00" fill="#000000">deleted_by</text>
<polygon fill="none" stroke="#000000" points="154.5,-207.7 154.5,-229.7 263.5,-229.7 263.5,-207.7 154.5,-207.7"/>
<text text-anchor="start" x="157.0344" y="-215.4" font-family="Helvetica,sans-Serif" font-size="11.00" fill="#000000">varchar[2147483647]</text>
<polygon fill="none" stroke="#000000" points="10.5,-185.7 10.5,-207.7 154.5,-207.7 154.5,-185.7 10.5,-185.7"/>
<text text-anchor="start" x="30.5" y="-192.8" font-family="Helvetica,sans-Serif" font-size="11.00" fill="#000000">package_id</text>
<polygon fill="none" stroke="#000000" points="154.5,-185.7 154.5,-207.7 263.5,-207.7 263.5,-185.7 154.5,-185.7"/>
<text text-anchor="start" x="157.0344" y="-193.4" font-family="Helvetica,sans-Serif" font-size="11.00" fill="#000000">varchar[2147483647]</text>
<polygon fill="none" stroke="#000000" points="10.5,-163.7 10.5,-185.7 154.5,-185.7 154.5,-163.7 10.5,-163.7"/>
<text text-anchor="start" x="30.5" y="-170.8" font-family="Helvetica,sans-Serif" font-size="11.00" fill="#000000">secret_token</text>
<polygon fill="none" stroke="#000000" points="154.5,-163.7 154.5,-185.7 263.5,-185.7 263.5,-163.7 154.5,-163.7"/>
<text text-anchor="start" x="157.0344" y="-171.4" font-family="Helvetica,sans-Serif" font-size="11.00" fill="#000000">varchar[2147483647]</text>
<polygon fill="none" stroke="#000000" points="10.5,-141.7 10.5,-163.7 154.5,-163.7 154.5,-141.7 10.5,-141.7"/>
<text text-anchor="start" x="30.5" y="-148.8" font-family="Helvetica,sans-Serif" font-size="11.00" fill="#000000">secret_token_user_id</text>
<polygon fill="none" stroke="#000000" points="154.5,-141.7 154.5,-163.7 263.5,-163.7 263.5,-141.7 154.5,-141.7"/>
<text text-anchor="start" x="157.0344" y="-149.4" font-family="Helvetica,sans-Serif" font-size="11.00" fill="#000000">varchar[2147483647]</text>
<polygon fill="#ffffff" stroke="transparent" points="10.5,-122.7 10.5,-141.7 86.5,-141.7 86.5,-122.7 10.5,-122.7"/>
<polygon fill="none" stroke="#000000" points="10.5,-122.7 10.5,-141.7 86.5,-141.7 86.5,-122.7 10.5,-122.7"/>
<text text-anchor="start" x="13.5" y="-128.8" font-family="Helvetica,sans-Serif" font-size="11.00" fill="#000000">&lt; 0</text>
<polygon fill="#ffffff" stroke="transparent" points="86.5,-122.7 86.5,-141.7 154.5,-141.7 154.5,-122.7 86.5,-122.7"/>
<polygon fill="none" stroke="#000000" points="86.5,-122.7 86.5,-141.7 154.5,-141.7 154.5,-122.7 86.5,-122.7"/>
<text text-anchor="start" x="145.3862" y="-128.8" font-family="Helvetica,sans-Serif" font-size="11.00" fill="#000000"> &#160;</text>
<polygon fill="#ffffff" stroke="transparent" points="154.5,-122.7 154.5,-141.7 263.5,-141.7 263.5,-122.7 154.5,-122.7"/>
<polygon fill="none" stroke="#000000" points="154.5,-122.7 154.5,-141.7 263.5,-141.7 263.5,-122.7 154.5,-122.7"/>
<text text-anchor="start" x="244.9053" y="-128.8" font-family="Helvetica,sans-Serif" font-size="11.00" fill="#000000">4 &gt;</text>
<polygon fill="none" stroke="#000000" stroke-width="2" points="9,-121.7 9,-517.7 264,-517.7 264,-121.7 9,-121.7"/>
</a>
</g>
</g>
<!-- branch_draft_content&#45;&gt;project -->
<g id="edge1" class="edge">
<title>branch_draft_content:w&#45;&gt;project:e</title>
<path fill="none" stroke="#000000" d="M305.1501,-627.8757C262.0173,-607.4147 328.0599,-482.7 263.5,-482.7"/>
<polygon fill="#000000" stroke="#000000" points="311.6506,-629.155 318.8048,-634.2322 315.5753,-629.9275 319.5,-630.7 319.5,-630.7 319.5,-630.7 315.5753,-629.9275 320.1952,-627.1678 311.6506,-629.155 311.6506,-629.155"/>
<ellipse fill="none" stroke="#000000" cx="308.5108" cy="-628.537" rx="3.2" ry="3.2"/>
</g>
<!-- branch_draft_reference -->
<g id="node3" class="node">
<title>branch_draft_reference</title>
<g id="a_node3"><a xlink:href="../../tables/branch_draft_reference.html" xlink:title="branch_draft_reference" target="_top">
<polygon fill="#ffffff" stroke="transparent" points="314,-368.2 314,-517.2 487,-517.2 487,-368.2 314,-368.2"/>
<polygon fill="#f5f5f5" stroke="transparent" points="314.5,-493.7 314.5,-516.7 487.5,-516.7 487.5,-493.7 314.5,-493.7"/>
<polygon fill="none" stroke="#000000" points="314.5,-493.7 314.5,-516.7 487.5,-516.7 487.5,-493.7 314.5,-493.7"/>
<text text-anchor="start" x="319.5" y="-502.3" font-family="Helvetica,sans-Serif" font-weight="bold" font-size="11.00" fill="#000000">branch_draft_reference</text>
<text text-anchor="start" x="453.0219" y="-501.8" font-family="Helvetica,sans-Serif" font-size="11.00" fill="#000000">[table]</text>
<polygon fill="none" stroke="#000000" points="314.5,-471.7 314.5,-493.7 487.5,-493.7 487.5,-471.7 314.5,-471.7"/>
<image xlink:href="../../images/primaryKeys.png" width="11px" height="12px" preserveAspectRatio="xMinYMin meet" x="319.5" y="-488.7"/>
<text text-anchor="start" x="343.5" y="-478.8" font-family="Helvetica,sans-Serif" font-size="11.00" fill="#000000">project_id</text>
<polygon fill="none" stroke="#000000" points="314.5,-449.7 314.5,-471.7 487.5,-471.7 487.5,-449.7 314.5,-449.7"/>
<image xlink:href="../../images/primaryKeys.png" width="11px" height="12px" preserveAspectRatio="xMinYMin meet" x="319.5" y="-466.7"/>
<text text-anchor="start" x="343.5" y="-456.8" font-family="Helvetica,sans-Serif" font-size="11.00" fill="#000000">branch_name</text>
<polygon fill="none" stroke="#000000" points="314.5,-427.7 314.5,-449.7 487.5,-449.7 487.5,-427.7 314.5,-427.7"/>
<image xlink:href="../../images/primaryKeys.png" width="11px" height="12px" preserveAspectRatio="xMinYMin meet" x="319.5" y="-444.7"/>
<text text-anchor="start" x="343.5" y="-434.8" font-family="Helvetica,sans-Serif" font-size="11.00" fill="#000000">reference_package_id</text>
<polygon fill="none" stroke="#000000" points="314.5,-405.7 314.5,-427.7 487.5,-427.7 487.5,-405.7 314.5,-405.7"/>
<image xlink:href="../../images/primaryKeys.png" width="11px" height="12px" preserveAspectRatio="xMinYMin meet" x="319.5" y="-422.7"/>
<text text-anchor="start" x="343.5" y="-412.8" font-family="Helvetica,sans-Serif" font-size="11.00" fill="#000000">reference_version</text>
<polygon fill="none" stroke="#000000" points="314.5,-386.7 314.5,-405.7 487.5,-405.7 487.5,-386.7 314.5,-386.7"/>
<text text-anchor="start" x="317.5" y="-392.8" font-family="Helvetica,sans-Serif" font-size="11.00" fill="#000000">...</text>
<polygon fill="#ffffff" stroke="transparent" points="314.5,-367.7 314.5,-386.7 399.5,-386.7 399.5,-367.7 314.5,-367.7"/>
<polygon fill="none" stroke="#000000" points="314.5,-367.7 314.5,-386.7 399.5,-386.7 399.5,-367.7 314.5,-367.7"/>
<text text-anchor="start" x="317.5" y="-373.8" font-family="Helvetica,sans-Serif" font-size="11.00" fill="#000000">&lt; 1</text>
<polygon fill="#ffffff" stroke="transparent" points="399.5,-367.7 399.5,-386.7 443.5,-386.7 443.5,-367.7 399.5,-367.7"/>
<polygon fill="none" stroke="#000000" points="399.5,-367.7 399.5,-386.7 443.5,-386.7 443.5,-367.7 399.5,-367.7"/>
<text text-anchor="start" x="434.3862" y="-373.8" font-family="Helvetica,sans-Serif" font-size="11.00" fill="#000000"> &#160;</text>
<polygon fill="#ffffff" stroke="transparent" points="443.5,-367.7 443.5,-386.7 487.5,-386.7 487.5,-367.7 443.5,-367.7"/>
<polygon fill="none" stroke="#000000" points="443.5,-367.7 443.5,-386.7 487.5,-386.7 487.5,-367.7 443.5,-367.7"/>
<text text-anchor="start" x="478.3862" y="-373.8" font-family="Helvetica,sans-Serif" font-size="11.00" fill="#000000"> &#160;</text>
</a>
</g>
</g>
<!-- branch_draft_reference&#45;&gt;project -->
<g id="edge2" class="edge">
<title>branch_draft_reference:w&#45;&gt;project:e</title>
<path fill="none" stroke="#000000" d="M299.776,-482.7C287.7815,-482.7 280.3229,-482.7 263.5,-482.7"/>
<polygon fill="#000000" stroke="#000000" points="306.5,-482.7001 314.5,-486.3 310.5,-482.7 314.5,-482.7 314.5,-482.7 314.5,-482.7 310.5,-482.7 314.5,-479.1 306.5,-482.7001 306.5,-482.7001"/>
<ellipse fill="none" stroke="#000000" cx="303.3" cy="-482.7001" rx="3.2" ry="3.2"/>
</g>
<!-- drafted_branches -->
<g id="node4" class="node">
<title>drafted_branches</title>
<g id="a_node4"><a xlink:href="../../tables/drafted_branches.html" xlink:title="drafted_branches" target="_top">
<polygon fill="#ffffff" stroke="transparent" points="331,-242.2 331,-347.2 470,-347.2 470,-242.2 331,-242.2"/>
<polygon fill="#f5f5f5" stroke="transparent" points="331.5,-323.7 331.5,-346.7 470.5,-346.7 470.5,-323.7 331.5,-323.7"/>
<polygon fill="none" stroke="#000000" points="331.5,-323.7 331.5,-346.7 470.5,-346.7 470.5,-323.7 331.5,-323.7"/>
<text text-anchor="start" x="336.5" y="-332.3" font-family="Helvetica,sans-Serif" font-weight="bold" font-size="11.00" fill="#000000">drafted_branches</text>
<text text-anchor="start" x="436.0219" y="-331.8" font-family="Helvetica,sans-Serif" font-size="11.00" fill="#000000">[table]</text>
<polygon fill="none" stroke="#000000" points="331.5,-301.7 331.5,-323.7 470.5,-323.7 470.5,-301.7 331.5,-301.7"/>
<image xlink:href="../../images/primaryKeys.png" width="11px" height="12px" preserveAspectRatio="xMinYMin meet" x="336.5" y="-318.7"/>
<text text-anchor="start" x="360.5" y="-308.8" font-family="Helvetica,sans-Serif" font-size="11.00" fill="#000000">project_id</text>
<polygon fill="none" stroke="#000000" points="331.5,-279.7 331.5,-301.7 470.5,-301.7 470.5,-279.7 331.5,-279.7"/>
<image xlink:href="../../images/primaryKeys.png" width="11px" height="12px" preserveAspectRatio="xMinYMin meet" x="336.5" y="-296.7"/>
<text text-anchor="start" x="360.5" y="-286.8" font-family="Helvetica,sans-Serif" font-size="11.00" fill="#000000">branch_name</text>
<polygon fill="none" stroke="#000000" points="331.5,-260.7 331.5,-279.7 470.5,-279.7 470.5,-260.7 331.5,-260.7"/>
<text text-anchor="start" x="334.5" y="-266.8" font-family="Helvetica,sans-Serif" font-size="11.00" fill="#000000">...</text>
<polygon fill="#ffffff" stroke="transparent" points="331.5,-241.7 331.5,-260.7 399.5,-260.7 399.5,-241.7 331.5,-241.7"/>
<polygon fill="none" stroke="#000000" points="331.5,-241.7 331.5,-260.7 399.5,-260.7 399.5,-241.7 331.5,-241.7"/>
<text text-anchor="start" x="334.5" y="-247.8" font-family="Helvetica,sans-Serif" font-size="11.00" fill="#000000">&lt; 1</text>
<polygon fill="#ffffff" stroke="transparent" points="399.5,-241.7 399.5,-260.7 434.5,-260.7 434.5,-241.7 399.5,-241.7"/>
<polygon fill="none" stroke="#000000" points="399.5,-241.7 399.5,-260.7 434.5,-260.7 434.5,-241.7 399.5,-241.7"/>
<text text-anchor="start" x="425.3862" y="-247.8" font-family="Helvetica,sans-Serif" font-size="11.00" fill="#000000"> &#160;</text>
<polygon fill="#ffffff" stroke="transparent" points="434.5,-241.7 434.5,-260.7 470.5,-260.7 470.5,-241.7 434.5,-241.7"/>
<polygon fill="none" stroke="#000000" points="434.5,-241.7 434.5,-260.7 470.5,-260.7 470.5,-241.7 434.5,-241.7"/>
<text text-anchor="start" x="461.3862" y="-247.8" font-family="Helvetica,sans-Serif" font-size="11.00" fill="#000000"> &#160;</text>
</a>
</g>
</g>
<!-- drafted_branches&#45;&gt;project -->
<g id="edge3" class="edge">
<title>drafted_branches:w&#45;&gt;project:e</title>
<path fill="none" stroke="#000000" d="M317.1682,-314.9746C262.2555,-335.1478 339.313,-482.7 263.5,-482.7"/>
<polygon fill="#000000" stroke="#000000" points="323.5989,-313.954 332.0643,-316.2555 327.5494,-313.327 331.5,-312.7 331.5,-312.7 331.5,-312.7 327.5494,-313.327 330.9357,-309.1445 323.5989,-313.954 323.5989,-313.954"/>
<ellipse fill="none" stroke="#000000" cx="320.4384" cy="-314.4557" rx="3.2" ry="3.2"/>
</g>
<!-- favorite_projects -->
<g id="node5" class="node">
<title>favorite_projects</title>
<g id="a_node5"><a xlink:href="../../tables/favorite_projects.html" xlink:title="favorite_projects" target="_top">
<polygon fill="#ffffff" stroke="transparent" points="333,-74.7 333,-160.7 468,-160.7 468,-74.7 333,-74.7"/>
<polygon fill="#f5f5f5" stroke="transparent" points="333.5,-137.7 333.5,-160.7 468.5,-160.7 468.5,-137.7 333.5,-137.7"/>
<polygon fill="none" stroke="#000000" points="333.5,-137.7 333.5,-160.7 468.5,-160.7 468.5,-137.7 333.5,-137.7"/>
<text text-anchor="start" x="338.5" y="-146.3" font-family="Helvetica,sans-Serif" font-weight="bold" font-size="11.00" fill="#000000">favorite_projects</text>
<text text-anchor="start" x="434.0219" y="-145.8" font-family="Helvetica,sans-Serif" font-size="11.00" fill="#000000">[table]</text>
<polygon fill="none" stroke="#000000" points="333.5,-115.7 333.5,-137.7 468.5,-137.7 468.5,-115.7 333.5,-115.7"/>
<image xlink:href="../../images/primaryKeys.png" width="11px" height="12px" preserveAspectRatio="xMinYMin meet" x="338.5" y="-132.7"/>
<text text-anchor="start" x="362.5" y="-122.8" font-family="Helvetica,sans-Serif" font-size="11.00" fill="#000000">user_id</text>
<polygon fill="none" stroke="#000000" points="333.5,-93.7 333.5,-115.7 468.5,-115.7 468.5,-93.7 333.5,-93.7"/>
<image xlink:href="../../images/primaryKeys.png" width="11px" height="12px" preserveAspectRatio="xMinYMin meet" x="338.5" y="-110.7"/>
<text text-anchor="start" x="362.5" y="-100.8" font-family="Helvetica,sans-Serif" font-size="11.00" fill="#000000">project_id</text>
<polygon fill="#ffffff" stroke="transparent" points="333.5,-74.7 333.5,-93.7 399.5,-93.7 399.5,-74.7 333.5,-74.7"/>
<polygon fill="none" stroke="#000000" points="333.5,-74.7 333.5,-93.7 399.5,-93.7 399.5,-74.7 333.5,-74.7"/>
<text text-anchor="start" x="336.5" y="-80.8" font-family="Helvetica,sans-Serif" font-size="11.00" fill="#000000">&lt; 2</text>
<polygon fill="#ffffff" stroke="transparent" points="399.5,-74.7 399.5,-93.7 433.5,-93.7 433.5,-74.7 399.5,-74.7"/>
<polygon fill="none" stroke="#000000" points="399.5,-74.7 399.5,-93.7 433.5,-93.7 433.5,-74.7 399.5,-74.7"/>
<text text-anchor="start" x="424.3862" y="-80.8" font-family="Helvetica,sans-Serif" font-size="11.00" fill="#000000"> &#160;</text>
<polygon fill="#ffffff" stroke="transparent" points="433.5,-74.7 433.5,-93.7 468.5,-93.7 468.5,-74.7 433.5,-74.7"/>
<polygon fill="none" stroke="#000000" points="433.5,-74.7 433.5,-93.7 468.5,-93.7 468.5,-74.7 433.5,-74.7"/>
<text text-anchor="start" x="459.3862" y="-80.8" font-family="Helvetica,sans-Serif" font-size="11.00" fill="#000000"> &#160;</text>
</a>
</g>
</g>
<!-- favorite_projects&#45;&gt;project -->
<g id="edge4" class="edge">
<title>favorite_projects:w&#45;&gt;project:e</title>
<path fill="none" stroke="#000000" d="M319.5743,-108.9451C259.9512,-150.4734 343.5889,-482.7 263.5,-482.7"/>
<polygon fill="#000000" stroke="#000000" points="325.8477,-107.0328 334.5498,-108.1436 329.6738,-105.8664 333.5,-104.7 333.5,-104.7 333.5,-104.7 329.6738,-105.8664 332.4502,-101.2564 325.8477,-107.0328 325.8477,-107.0328"/>
<ellipse fill="none" stroke="#000000" cx="322.7867" cy="-107.9659" rx="3.2" ry="3.2"/>
</g>
<!-- user_data -->
<g id="node6" class="node">
<title>user_data</title>
<g id="a_node6"><a xlink:href="../../tables/user_data.html" xlink:title="user_data" target="_top">
<polygon fill="#ffffff" stroke="transparent" points="89,-38.2 89,-99.2 184,-99.2 184,-38.2 89,-38.2"/>
<polygon fill="#f5f5f5" stroke="transparent" points="89.5,-75.7 89.5,-98.7 184.5,-98.7 184.5,-75.7 89.5,-75.7"/>
<polygon fill="none" stroke="#000000" points="89.5,-75.7 89.5,-98.7 184.5,-98.7 184.5,-75.7 89.5,-75.7"/>
<text text-anchor="start" x="94.5" y="-84.3" font-family="Helvetica,sans-Serif" font-weight="bold" font-size="11.00" fill="#000000">user_data</text>
<text text-anchor="start" x="150.0219" y="-83.8" font-family="Helvetica,sans-Serif" font-size="11.00" fill="#000000">[table]</text>
<polygon fill="none" stroke="#000000" points="89.5,-56.7 89.5,-75.7 184.5,-75.7 184.5,-56.7 89.5,-56.7"/>
<text text-anchor="start" x="92.5" y="-62.8" font-family="Helvetica,sans-Serif" font-size="11.00" fill="#000000">...</text>
<polygon fill="#ffffff" stroke="transparent" points="89.5,-37.7 89.5,-56.7 126.5,-56.7 126.5,-37.7 89.5,-37.7"/>
<polygon fill="none" stroke="#000000" points="89.5,-37.7 89.5,-56.7 126.5,-56.7 126.5,-37.7 89.5,-37.7"/>
<text text-anchor="start" x="92.5" y="-43.8" font-family="Helvetica,sans-Serif" font-size="11.00" fill="#000000"> &#160;</text>
<polygon fill="#ffffff" stroke="transparent" points="126.5,-37.7 126.5,-56.7 150.5,-56.7 150.5,-37.7 126.5,-37.7"/>
<polygon fill="none" stroke="#000000" points="126.5,-37.7 126.5,-56.7 150.5,-56.7 150.5,-37.7 126.5,-37.7"/>
<text text-anchor="start" x="141.3862" y="-43.8" font-family="Helvetica,sans-Serif" font-size="11.00" fill="#000000"> &#160;</text>
<polygon fill="#ffffff" stroke="transparent" points="150.5,-37.7 150.5,-56.7 184.5,-56.7 184.5,-37.7 150.5,-37.7"/>
<polygon fill="none" stroke="#000000" points="150.5,-37.7 150.5,-56.7 184.5,-56.7 184.5,-37.7 150.5,-37.7"/>
<text text-anchor="start" x="165.9053" y="-43.8" font-family="Helvetica,sans-Serif" font-size="11.00" fill="#000000">4 &gt;</text>
</a>
</g>
</g>
<!-- favorite_projects&#45;&gt;user_data -->
<g id="edge5" class="edge">
<title>favorite_projects:w&#45;&gt;user_data:e</title>
<path fill="none" stroke="#000000" d="M318.966,-125.7904C260.7494,-118.2022 250.8858,-65.7 184.5,-65.7"/>
<polygon fill="#000000" stroke="#000000" points="325.5156,-126.2002 333.2751,-130.293 329.5078,-126.4501 333.5,-126.7 333.5,-126.7 333.5,-126.7 329.5078,-126.4501 333.7249,-123.107 325.5156,-126.2002 325.5156,-126.2002"/>
<ellipse fill="none" stroke="#000000" cx="322.3219" cy="-126.0003" rx="3.2" ry="3.2"/>
</g>
</g>
</svg>
