<?xml version="1.0" encoding="UTF-8" standalone="no"?>
<!DOCTYPE svg PUBLIC "-//W3C//DTD SVG 1.1//EN"
 "http://www.w3.org/Graphics/SVG/1.1/DTD/svg11.dtd">
<!-- Generated by graphviz version 2.40.1 (20161225.0304)
 -->
<!-- Title: oneDegreeRelationshipsDiagram Pages: 1 -->
<svg width="503pt" height="680pt"
 viewBox="0.00 0.00 503.00 679.70" xmlns="http://www.w3.org/2000/svg" xmlns:xlink="http://www.w3.org/1999/xlink">
<g id="graph0" class="graph" transform="scale(1 1) rotate(0) translate(4 675.7)">
<title>oneDegreeRelationshipsDiagram</title>
<polygon fill="#ffffff" stroke="transparent" points="-4,4 -4,-675.7 499,-675.7 499,4 -4,4"/>
<text text-anchor="middle" x="72.4936" y="-7.3" font-family="Helvetica,sans-Serif" font-size="11.00" fill="#000000">Generated by SchemaSpy</text>
<!-- branch_draft_content -->
<g id="node1" class="node">
<title>branch_draft_content</title>
<g id="a_node1"><a xlink:href="../../tables/branch_draft_content.html" xlink:title="branch_draft_content" target="_top">
<polygon fill="#ffffff" stroke="transparent" points="319.5,-540.7 319.5,-667.7 481.5,-667.7 481.5,-540.7 319.5,-540.7"/>
<polygon fill="#f5f5f5" stroke="transparent" points="319.5,-644.2 319.5,-667.2 481.5,-667.2 481.5,-644.2 319.5,-644.2"/>
<polygon fill="none" stroke="#000000" points="319.5,-644.2 319.5,-667.2 481.5,-667.2 481.5,-644.2 319.5,-644.2"/>
<text text-anchor="start" x="324.5" y="-652.8" font-family="Helvetica,sans-Serif" font-weight="bold" font-size="11.00" fill="#000000">branch_draft_content</text>
<text text-anchor="start" x="447.0219" y="-652.3" font-family="Helvetica,sans-Serif" font-size="11.00" fill="#000000">[table]</text>
<polygon fill="none" stroke="#000000" points="319.5,-622.2 319.5,-644.2 481.5,-644.2 481.5,-622.2 319.5,-622.2"/>
<image xlink:href="../../images/primaryKeys.png" width="11px" height="12px" preserveAspectRatio="xMinYMin meet" x="324.5" y="-639.2"/>
<text text-anchor="start" x="348.5" y="-629.3" font-family="Helvetica,sans-Serif" font-size="11.00" fill="#000000">project_id</text>
<polygon fill="none" stroke="#000000" points="319.5,-600.2 319.5,-622.2 481.5,-622.2 481.5,-600.2 319.5,-600.2"/>
<image xlink:href="../../images/primaryKeys.png" width="11px" height="12px" preserveAspectRatio="xMinYMin meet" x="324.5" y="-617.2"/>
<text text-anchor="start" x="348.5" y="-607.3" font-family="Helvetica,sans-Serif" font-size="11.00" fill="#000000">branch_name</text>
<polygon fill="none" stroke="#000000" points="319.5,-578.2 319.5,-600.2 481.5,-600.2 481.5,-578.2 319.5,-578.2"/>
<image xlink:href="../../images/primaryKeys.png" width="11px" height="12px" preserveAspectRatio="xMinYMin meet" x="324.5" y="-595.2"/>
<text text-anchor="start" x="348.5" y="-585.3" font-family="Helvetica,sans-Serif" font-size="11.00" fill="#000000">file_id</text>
<polygon fill="none" stroke="#000000" points="319.5,-559.2 319.5,-578.2 481.5,-578.2 481.5,-559.2 319.5,-559.2"/>
<text text-anchor="start" x="322.5" y="-565.3" font-family="Helvetica,sans-Serif" font-size="11.00" fill="#000000">...</text>
<polygon fill="#ffffff" stroke="transparent" points="319.5,-540.2 319.5,-559.2 398.5,-559.2 398.5,-540.2 319.5,-540.2"/>
<polygon fill="none" stroke="#000000" points="319.5,-540.2 319.5,-559.2 398.5,-559.2 398.5,-540.2 319.5,-540.2"/>
<text text-anchor="start" x="322.5" y="-546.3" font-family="Helvetica,sans-Serif" font-size="11.00" fill="#000000">&lt; 1</text>
<polygon fill="#ffffff" stroke="transparent" points="398.5,-540.2 398.5,-559.2 439.5,-559.2 439.5,-540.2 398.5,-540.2"/>
<polygon fill="none" stroke="#000000" points="398.5,-540.2 398.5,-559.2 439.5,-559.2 439.5,-540.2 398.5,-540.2"/>
<text text-anchor="start" x="430.3862" y="-546.3" font-family="Helvetica,sans-Serif" font-size="11.00" fill="#000000"> &#160;</text>
<polygon fill="#ffffff" stroke="transparent" points="439.5,-540.2 439.5,-559.2 481.5,-559.2 481.5,-540.2 439.5,-540.2"/>
<polygon fill="none" stroke="#000000" points="439.5,-540.2 439.5,-559.2 481.5,-559.2 481.5,-540.2 439.5,-540.2"/>
<text text-anchor="start" x="472.3862" y="-546.3" font-family="Helvetica,sans-Serif" font-size="11.00" fill="#000000"> &#160;</text>
</a>
</g>
</g>
<!-- project -->
<g id="node2" class="node">
<title>project</title>
<g id="a_node2"><a xlink:href="../../tables/project.html" xlink:title="project" target="_top">
<polygon fill="#ffffff" stroke="transparent" points="8,-38.2 8,-436.2 265,-436.2 265,-38.2 8,-38.2"/>
<polygon fill="#f5f5f5" stroke="transparent" points="10.5,-411.2 10.5,-434.2 263.5,-434.2 263.5,-411.2 10.5,-411.2"/>
<polygon fill="none" stroke="#000000" points="10.5,-411.2 10.5,-434.2 263.5,-434.2 263.5,-411.2 10.5,-411.2"/>
<text text-anchor="start" x="15.5" y="-419.8" font-family="Helvetica,sans-Serif" font-weight="bold" font-size="11.00" fill="#000000">project</text>
<text text-anchor="start" x="228.5437" y="-419.3" font-family="Helvetica,sans-Serif" font-size="11.00" fill="#000000">[table]</text>
<polygon fill="none" stroke="#000000" points="10.5,-389.2 10.5,-411.2 154.5,-411.2 154.5,-389.2 10.5,-389.2"/>
<image xlink:href="../../images/primaryKeys.png" width="11px" height="12px" preserveAspectRatio="xMinYMin meet" x="15.5" y="-406.2"/>
<text text-anchor="start" x="30.5" y="-396.3" font-family="Helvetica,sans-Serif" font-size="11.00" fill="#000000">id</text>
<polygon fill="none" stroke="#000000" points="154.5,-389.2 154.5,-411.2 263.5,-411.2 263.5,-389.2 154.5,-389.2"/>
<text text-anchor="start" x="157.0344" y="-396.9" font-family="Helvetica,sans-Serif" font-size="11.00" fill="#000000">varchar[2147483647]</text>
<polygon fill="none" stroke="#000000" points="10.5,-367.2 10.5,-389.2 154.5,-389.2 154.5,-367.2 10.5,-367.2"/>
<text text-anchor="start" x="30.5" y="-374.3" font-family="Helvetica,sans-Serif" font-size="11.00" fill="#000000">name</text>
<polygon fill="none" stroke="#000000" points="154.5,-367.2 154.5,-389.2 263.5,-389.2 263.5,-367.2 154.5,-367.2"/>
<text text-anchor="start" x="157.0344" y="-374.9" font-family="Helvetica,sans-Serif" font-size="11.00" fill="#000000">varchar[2147483647]</text>
<polygon fill="none" stroke="#000000" points="10.5,-345.2 10.5,-367.2 154.5,-367.2 154.5,-345.2 10.5,-345.2"/>
<text text-anchor="start" x="30.5" y="-352.3" font-family="Helvetica,sans-Serif" font-size="11.00" fill="#000000">alias</text>
<polygon fill="none" stroke="#000000" points="154.5,-345.2 154.5,-367.2 263.5,-367.2 263.5,-345.2 154.5,-345.2"/>
<text text-anchor="start" x="157.0344" y="-352.9" font-family="Helvetica,sans-Serif" font-size="11.00" fill="#000000">varchar[2147483647]</text>
<polygon fill="none" stroke="#000000" points="10.5,-323.2 10.5,-345.2 154.5,-345.2 154.5,-323.2 10.5,-323.2"/>
<text text-anchor="start" x="30.5" y="-330.3" font-family="Helvetica,sans-Serif" font-size="11.00" fill="#000000">group_id</text>
<polygon fill="none" stroke="#000000" points="154.5,-323.2 154.5,-345.2 263.5,-345.2 263.5,-323.2 154.5,-323.2"/>
<text text-anchor="start" x="157.0344" y="-330.9" font-family="Helvetica,sans-Serif" font-size="11.00" fill="#000000">varchar[2147483647]</text>
<polygon fill="none" stroke="#000000" points="10.5,-301.2 10.5,-323.2 154.5,-323.2 154.5,-301.2 10.5,-301.2"/>
<text text-anchor="start" x="30.5" y="-308.3" font-family="Helvetica,sans-Serif" font-size="11.00" fill="#000000">description</text>
<polygon fill="none" stroke="#000000" points="154.5,-301.2 154.5,-323.2 263.5,-323.2 263.5,-301.2 154.5,-301.2"/>
<text text-anchor="start" x="157.5" y="-308.9" font-family="Helvetica,sans-Serif" font-size="11.00" fill="#000000">text[2147483647]</text>
<polygon fill="none" stroke="#000000" points="10.5,-279.2 10.5,-301.2 154.5,-301.2 154.5,-279.2 10.5,-279.2"/>
<text text-anchor="start" x="30.5" y="-286.3" font-family="Helvetica,sans-Serif" font-size="11.00" fill="#000000">integration_type</text>
<polygon fill="none" stroke="#000000" points="154.5,-279.2 154.5,-301.2 263.5,-301.2 263.5,-279.2 154.5,-279.2"/>
<text text-anchor="start" x="157.0344" y="-286.9" font-family="Helvetica,sans-Serif" font-size="11.00" fill="#000000">varchar[2147483647]</text>
<polygon fill="none" stroke="#000000" points="10.5,-257.2 10.5,-279.2 154.5,-279.2 154.5,-257.2 10.5,-257.2"/>
<text text-anchor="start" x="30.5" y="-264.3" font-family="Helvetica,sans-Serif" font-size="11.00" fill="#000000">default_branch</text>
<polygon fill="none" stroke="#000000" points="154.5,-257.2 154.5,-279.2 263.5,-279.2 263.5,-257.2 154.5,-257.2"/>
<text text-anchor="start" x="157.0344" y="-264.9" font-family="Helvetica,sans-Serif" font-size="11.00" fill="#000000">varchar[2147483647]</text>
<polygon fill="none" stroke="#000000" points="10.5,-235.2 10.5,-257.2 154.5,-257.2 154.5,-235.2 10.5,-235.2"/>
<text text-anchor="start" x="30.5" y="-242.3" font-family="Helvetica,sans-Serif" font-size="11.00" fill="#000000">default_folder</text>
<polygon fill="none" stroke="#000000" points="154.5,-235.2 154.5,-257.2 263.5,-257.2 263.5,-235.2 154.5,-235.2"/>
<text text-anchor="start" x="157.0344" y="-242.9" font-family="Helvetica,sans-Serif" font-size="11.00" fill="#000000">varchar[2147483647]</text>
<polygon fill="none" stroke="#000000" points="10.5,-213.2 10.5,-235.2 154.5,-235.2 154.5,-213.2 10.5,-213.2"/>
<text text-anchor="start" x="30.5" y="-220.3" font-family="Helvetica,sans-Serif" font-size="11.00" fill="#000000">repository_id</text>
<polygon fill="none" stroke="#000000" points="154.5,-213.2 154.5,-235.2 263.5,-235.2 263.5,-213.2 154.5,-213.2"/>
<text text-anchor="start" x="157.0344" y="-220.9" font-family="Helvetica,sans-Serif" font-size="11.00" fill="#000000">varchar[2147483647]</text>
<polygon fill="none" stroke="#000000" points="10.5,-191.2 10.5,-213.2 154.5,-213.2 154.5,-191.2 10.5,-191.2"/>
<text text-anchor="start" x="30.5" y="-198.3" font-family="Helvetica,sans-Serif" font-size="11.00" fill="#000000">deleted_at</text>
<polygon fill="none" stroke="#000000" points="154.5,-191.2 154.5,-213.2 263.5,-213.2 263.5,-191.2 154.5,-191.2"/>
<text text-anchor="start" x="157.5" y="-198.9" font-family="Helvetica,sans-Serif" font-size="11.00" fill="#000000">timestamp[29,6]</text>
<polygon fill="none" stroke="#000000" points="10.5,-169.2 10.5,-191.2 154.5,-191.2 154.5,-169.2 10.5,-169.2"/>
<text text-anchor="start" x="30.5" y="-176.3" font-family="Helvetica,sans-Serif" font-size="11.00" fill="#000000">repository_name</text>
<polygon fill="none" stroke="#000000" points="154.5,-169.2 154.5,-191.2 263.5,-191.2 263.5,-169.2 154.5,-169.2"/>
<text text-anchor="start" x="157.0344" y="-176.9" font-family="Helvetica,sans-Serif" font-size="11.00" fill="#000000">varchar[2147483647]</text>
<polygon fill="none" stroke="#000000" points="10.5,-147.2 10.5,-169.2 154.5,-169.2 154.5,-147.2 10.5,-147.2"/>
<text text-anchor="start" x="30.5" y="-154.3" font-family="Helvetica,sans-Serif" font-size="11.00" fill="#000000">repository_url</text>
<polygon fill="none" stroke="#000000" points="154.5,-147.2 154.5,-169.2 263.5,-169.2 263.5,-147.2 154.5,-147.2"/>
<text text-anchor="start" x="157.0344" y="-154.9" font-family="Helvetica,sans-Serif" font-size="11.00" fill="#000000">varchar[2147483647]</text>
<polygon fill="none" stroke="#000000" points="10.5,-125.2 10.5,-147.2 154.5,-147.2 154.5,-125.2 10.5,-125.2"/>
<text text-anchor="start" x="30.5" y="-132.3" font-family="Helvetica,sans-Serif" font-size="11.00" fill="#000000">deleted_by</text>
<polygon fill="none" stroke="#000000" points="154.5,-125.2 154.5,-147.2 263.5,-147.2 263.5,-125.2 154.5,-125.2"/>
<text text-anchor="start" x="157.0344" y="-132.9" font-family="Helvetica,sans-Serif" font-size="11.00" fill="#000000">varchar[2147483647]</text>
<polygon fill="none" stroke="#000000" points="10.5,-103.2 10.5,-125.2 154.5,-125.2 154.5,-103.2 10.5,-103.2"/>
<text text-anchor="start" x="30.5" y="-110.3" font-family="Helvetica,sans-Serif" font-size="11.00" fill="#000000">package_id</text>
<polygon fill="none" stroke="#000000" points="154.5,-103.2 154.5,-125.2 263.5,-125.2 263.5,-103.2 154.5,-103.2"/>
<text text-anchor="start" x="157.0344" y="-110.9" font-family="Helvetica,sans-Serif" font-size="11.00" fill="#000000">varchar[2147483647]</text>
<polygon fill="none" stroke="#000000" points="10.5,-81.2 10.5,-103.2 154.5,-103.2 154.5,-81.2 10.5,-81.2"/>
<text text-anchor="start" x="30.5" y="-88.3" font-family="Helvetica,sans-Serif" font-size="11.00" fill="#000000">secret_token</text>
<polygon fill="none" stroke="#000000" points="154.5,-81.2 154.5,-103.2 263.5,-103.2 263.5,-81.2 154.5,-81.2"/>
<text text-anchor="start" x="157.0344" y="-88.9" font-family="Helvetica,sans-Serif" font-size="11.00" fill="#000000">varchar[2147483647]</text>
<polygon fill="none" stroke="#000000" points="10.5,-59.2 10.5,-81.2 154.5,-81.2 154.5,-59.2 10.5,-59.2"/>
<text text-anchor="start" x="30.5" y="-66.3" font-family="Helvetica,sans-Serif" font-size="11.00" fill="#000000">secret_token_user_id</text>
<polygon fill="none" stroke="#000000" points="154.5,-59.2 154.5,-81.2 263.5,-81.2 263.5,-59.2 154.5,-59.2"/>
<text text-anchor="start" x="157.0344" y="-66.9" font-family="Helvetica,sans-Serif" font-size="11.00" fill="#000000">varchar[2147483647]</text>
<polygon fill="#ffffff" stroke="transparent" points="10.5,-40.2 10.5,-59.2 86.5,-59.2 86.5,-40.2 10.5,-40.2"/>
<polygon fill="none" stroke="#000000" points="10.5,-40.2 10.5,-59.2 86.5,-59.2 86.5,-40.2 10.5,-40.2"/>
<text text-anchor="start" x="13.5" y="-46.3" font-family="Helvetica,sans-Serif" font-size="11.00" fill="#000000">&lt; 0</text>
<polygon fill="#ffffff" stroke="transparent" points="86.5,-40.2 86.5,-59.2 154.5,-59.2 154.5,-40.2 86.5,-40.2"/>
<polygon fill="none" stroke="#000000" points="86.5,-40.2 86.5,-59.2 154.5,-59.2 154.5,-40.2 86.5,-40.2"/>
<text text-anchor="start" x="145.3862" y="-46.3" font-family="Helvetica,sans-Serif" font-size="11.00" fill="#000000"> &#160;</text>
<polygon fill="#ffffff" stroke="transparent" points="154.5,-40.2 154.5,-59.2 263.5,-59.2 263.5,-40.2 154.5,-40.2"/>
<polygon fill="none" stroke="#000000" points="154.5,-40.2 154.5,-59.2 263.5,-59.2 263.5,-40.2 154.5,-40.2"/>
<text text-anchor="start" x="244.9053" y="-46.3" font-family="Helvetica,sans-Serif" font-size="11.00" fill="#000000">4 &gt;</text>
<polygon fill="none" stroke="#000000" stroke-width="2" points="9,-39.2 9,-435.2 264,-435.2 264,-39.2 9,-39.2"/>
</a>
</g>
</g>
<!-- branch_draft_content&#45;&gt;project -->
<g id="edge1" class="edge">
<title>branch_draft_content:w&#45;&gt;project:e</title>
<path fill="none" stroke="#000000" d="M304.7718,-631.3245C228.8222,-609.2737 364.3881,-400.2 263.5,-400.2"/>
<polygon fill="#000000" stroke="#000000" points="311.5641,-632.1894 319.0452,-636.7712 315.532,-632.6947 319.5,-633.2 319.5,-633.2 319.5,-633.2 315.532,-632.6947 319.9548,-629.6288 311.5641,-632.1894 311.5641,-632.1894"/>
<ellipse fill="none" stroke="#000000" cx="308.3897" cy="-631.7851" rx="3.2" ry="3.2"/>
</g>
<!-- branch_draft_reference -->
<g id="node3" class="node">
<title>branch_draft_reference</title>
<g id="a_node3"><a xlink:href="../../tables/branch_draft_reference.html" xlink:title="branch_draft_reference" target="_top">
<polygon fill="#ffffff" stroke="transparent" points="314,-370.7 314,-519.7 487,-519.7 487,-370.7 314,-370.7"/>
<polygon fill="#f5f5f5" stroke="transparent" points="314.5,-496.2 314.5,-519.2 487.5,-519.2 487.5,-496.2 314.5,-496.2"/>
<polygon fill="none" stroke="#000000" points="314.5,-496.2 314.5,-519.2 487.5,-519.2 487.5,-496.2 314.5,-496.2"/>
<text text-anchor="start" x="319.5" y="-504.8" font-family="Helvetica,sans-Serif" font-weight="bold" font-size="11.00" fill="#000000">branch_draft_reference</text>
<text text-anchor="start" x="453.0219" y="-504.3" font-family="Helvetica,sans-Serif" font-size="11.00" fill="#000000">[table]</text>
<polygon fill="none" stroke="#000000" points="314.5,-474.2 314.5,-496.2 487.5,-496.2 487.5,-474.2 314.5,-474.2"/>
<image xlink:href="../../images/primaryKeys.png" width="11px" height="12px" preserveAspectRatio="xMinYMin meet" x="319.5" y="-491.2"/>
<text text-anchor="start" x="343.5" y="-481.3" font-family="Helvetica,sans-Serif" font-size="11.00" fill="#000000">project_id</text>
<polygon fill="none" stroke="#000000" points="314.5,-452.2 314.5,-474.2 487.5,-474.2 487.5,-452.2 314.5,-452.2"/>
<image xlink:href="../../images/primaryKeys.png" width="11px" height="12px" preserveAspectRatio="xMinYMin meet" x="319.5" y="-469.2"/>
<text text-anchor="start" x="343.5" y="-459.3" font-family="Helvetica,sans-Serif" font-size="11.00" fill="#000000">branch_name</text>
<polygon fill="none" stroke="#000000" points="314.5,-430.2 314.5,-452.2 487.5,-452.2 487.5,-430.2 314.5,-430.2"/>
<image xlink:href="../../images/primaryKeys.png" width="11px" height="12px" preserveAspectRatio="xMinYMin meet" x="319.5" y="-447.2"/>
<text text-anchor="start" x="343.5" y="-437.3" font-family="Helvetica,sans-Serif" font-size="11.00" fill="#000000">reference_package_id</text>
<polygon fill="none" stroke="#000000" points="314.5,-408.2 314.5,-430.2 487.5,-430.2 487.5,-408.2 314.5,-408.2"/>
<image xlink:href="../../images/primaryKeys.png" width="11px" height="12px" preserveAspectRatio="xMinYMin meet" x="319.5" y="-425.2"/>
<text text-anchor="start" x="343.5" y="-415.3" font-family="Helvetica,sans-Serif" font-size="11.00" fill="#000000">reference_version</text>
<polygon fill="none" stroke="#000000" points="314.5,-389.2 314.5,-408.2 487.5,-408.2 487.5,-389.2 314.5,-389.2"/>
<text text-anchor="start" x="317.5" y="-395.3" font-family="Helvetica,sans-Serif" font-size="11.00" fill="#000000">...</text>
<polygon fill="#ffffff" stroke="transparent" points="314.5,-370.2 314.5,-389.2 399.5,-389.2 399.5,-370.2 314.5,-370.2"/>
<polygon fill="none" stroke="#000000" points="314.5,-370.2 314.5,-389.2 399.5,-389.2 399.5,-370.2 314.5,-370.2"/>
<text text-anchor="start" x="317.5" y="-376.3" font-family="Helvetica,sans-Serif" font-size="11.00" fill="#000000">&lt; 1</text>
<polygon fill="#ffffff" stroke="transparent" points="399.5,-370.2 399.5,-389.2 443.5,-389.2 443.5,-370.2 399.5,-370.2"/>
<polygon fill="none" stroke="#000000" points="399.5,-370.2 399.5,-389.2 443.5,-389.2 443.5,-370.2 399.5,-370.2"/>
<text text-anchor="start" x="434.3862" y="-376.3" font-family="Helvetica,sans-Serif" font-size="11.00" fill="#000000"> &#160;</text>
<polygon fill="#ffffff" stroke="transparent" points="443.5,-370.2 443.5,-389.2 487.5,-389.2 487.5,-370.2 443.5,-370.2"/>
<polygon fill="none" stroke="#000000" points="443.5,-370.2 443.5,-389.2 487.5,-389.2 487.5,-370.2 443.5,-370.2"/>
<text text-anchor="start" x="478.3862" y="-376.3" font-family="Helvetica,sans-Serif" font-size="11.00" fill="#000000"> &#160;</text>
</a>
</g>
</g>
<!-- branch_draft_reference&#45;&gt;project -->
<g id="edge2" class="edge">
<title>branch_draft_reference:w&#45;&gt;project:e</title>
<path fill="none" stroke="#000000" d="M300.5669,-480.868C279.0746,-463.5466 301.5328,-400.2 263.5,-400.2"/>
<polygon fill="#000000" stroke="#000000" points="306.8607,-482.8248 313.4312,-488.6377 310.6804,-484.0124 314.5,-485.2 314.5,-485.2 314.5,-485.2 310.6804,-484.0124 315.5688,-481.7623 306.8607,-482.8248 306.8607,-482.8248"/>
<ellipse fill="none" stroke="#000000" cx="303.805" cy="-481.8747" rx="3.2" ry="3.2"/>
</g>
<!-- drafted_branches -->
<g id="node4" class="node">
<title>drafted_branches</title>
<g id="a_node4"><a xlink:href="../../tables/drafted_branches.html" xlink:title="drafted_branches" target="_top">
<polygon fill="#ffffff" stroke="transparent" points="331,-244.7 331,-349.7 470,-349.7 470,-244.7 331,-244.7"/>
<polygon fill="#f5f5f5" stroke="transparent" points="331.5,-326.2 331.5,-349.2 470.5,-349.2 470.5,-326.2 331.5,-326.2"/>
<polygon fill="none" stroke="#000000" points="331.5,-326.2 331.5,-349.2 470.5,-349.2 470.5,-326.2 331.5,-326.2"/>
<text text-anchor="start" x="336.5" y="-334.8" font-family="Helvetica,sans-Serif" font-weight="bold" font-size="11.00" fill="#000000">drafted_branches</text>
<text text-anchor="start" x="436.0219" y="-334.3" font-family="Helvetica,sans-Serif" font-size="11.00" fill="#000000">[table]</text>
<polygon fill="none" stroke="#000000" points="331.5,-304.2 331.5,-326.2 470.5,-326.2 470.5,-304.2 331.5,-304.2"/>
<image xlink:href="../../images/primaryKeys.png" width="11px" height="12px" preserveAspectRatio="xMinYMin meet" x="336.5" y="-321.2"/>
<text text-anchor="start" x="360.5" y="-311.3" font-family="Helvetica,sans-Serif" font-size="11.00" fill="#000000">project_id</text>
<polygon fill="none" stroke="#000000" points="331.5,-282.2 331.5,-304.2 470.5,-304.2 470.5,-282.2 331.5,-282.2"/>
<image xlink:href="../../images/primaryKeys.png" width="11px" height="12px" preserveAspectRatio="xMinYMin meet" x="336.5" y="-299.2"/>
<text text-anchor="start" x="360.5" y="-289.3" font-family="Helvetica,sans-Serif" font-size="11.00" fill="#000000">branch_name</text>
<polygon fill="none" stroke="#000000" points="331.5,-263.2 331.5,-282.2 470.5,-282.2 470.5,-263.2 331.5,-263.2"/>
<text text-anchor="start" x="334.5" y="-269.3" font-family="Helvetica,sans-Serif" font-size="11.00" fill="#000000">...</text>
<polygon fill="#ffffff" stroke="transparent" points="331.5,-244.2 331.5,-263.2 399.5,-263.2 399.5,-244.2 331.5,-244.2"/>
<polygon fill="none" stroke="#000000" points="331.5,-244.2 331.5,-263.2 399.5,-263.2 399.5,-244.2 331.5,-244.2"/>
<text text-anchor="start" x="334.5" y="-250.3" font-family="Helvetica,sans-Serif" font-size="11.00" fill="#000000">&lt; 1</text>
<polygon fill="#ffffff" stroke="transparent" points="399.5,-244.2 399.5,-263.2 434.5,-263.2 434.5,-244.2 399.5,-244.2"/>
<polygon fill="none" stroke="#000000" points="399.5,-244.2 399.5,-263.2 434.5,-263.2 434.5,-244.2 399.5,-244.2"/>
<text text-anchor="start" x="425.3862" y="-250.3" font-family="Helvetica,sans-Serif" font-size="11.00" fill="#000000"> &#160;</text>
<polygon fill="#ffffff" stroke="transparent" points="434.5,-244.2 434.5,-263.2 470.5,-263.2 470.5,-244.2 434.5,-244.2"/>
<polygon fill="none" stroke="#000000" points="434.5,-244.2 434.5,-263.2 470.5,-263.2 470.5,-244.2 434.5,-244.2"/>
<text text-anchor="start" x="461.3862" y="-250.3" font-family="Helvetica,sans-Serif" font-size="11.00" fill="#000000"> &#160;</text>
</a>
</g>
</g>
<!-- drafted_branches&#45;&gt;project -->
<g id="edge3" class="edge">
<title>drafted_branches:w&#45;&gt;project:e</title>
<path fill="none" stroke="#000000" d="M317.4214,-318.4283C288.8017,-333.9546 306.2097,-400.2 263.5,-400.2"/>
<polygon fill="#000000" stroke="#000000" points="323.7024,-316.9881 332.3046,-318.7089 327.6012,-316.094 331.5,-315.2 331.5,-315.2 331.5,-315.2 327.6012,-316.094 330.6954,-311.6911 323.7024,-316.9881 323.7024,-316.9881"/>
<ellipse fill="none" stroke="#000000" cx="320.5833" cy="-317.7033" rx="3.2" ry="3.2"/>
</g>
<!-- favorite_projects -->
<g id="node5" class="node">
<title>favorite_projects</title>
<g id="a_node5"><a xlink:href="../../tables/favorite_projects.html" xlink:title="favorite_projects" target="_top">
<polygon fill="#ffffff" stroke="transparent" points="333,-137.2 333,-223.2 468,-223.2 468,-137.2 333,-137.2"/>
<polygon fill="#f5f5f5" stroke="transparent" points="333.5,-200.2 333.5,-223.2 468.5,-223.2 468.5,-200.2 333.5,-200.2"/>
<polygon fill="none" stroke="#000000" points="333.5,-200.2 333.5,-223.2 468.5,-223.2 468.5,-200.2 333.5,-200.2"/>
<text text-anchor="start" x="338.5" y="-208.8" font-family="Helvetica,sans-Serif" font-weight="bold" font-size="11.00" fill="#000000">favorite_projects</text>
<text text-anchor="start" x="434.0219" y="-208.3" font-family="Helvetica,sans-Serif" font-size="11.00" fill="#000000">[table]</text>
<polygon fill="none" stroke="#000000" points="333.5,-178.2 333.5,-200.2 468.5,-200.2 468.5,-178.2 333.5,-178.2"/>
<image xlink:href="../../images/primaryKeys.png" width="11px" height="12px" preserveAspectRatio="xMinYMin meet" x="338.5" y="-195.2"/>
<text text-anchor="start" x="362.5" y="-185.3" font-family="Helvetica,sans-Serif" font-size="11.00" fill="#000000">user_id</text>
<polygon fill="none" stroke="#000000" points="333.5,-156.2 333.5,-178.2 468.5,-178.2 468.5,-156.2 333.5,-156.2"/>
<image xlink:href="../../images/primaryKeys.png" width="11px" height="12px" preserveAspectRatio="xMinYMin meet" x="338.5" y="-173.2"/>
<text text-anchor="start" x="362.5" y="-163.3" font-family="Helvetica,sans-Serif" font-size="11.00" fill="#000000">project_id</text>
<polygon fill="#ffffff" stroke="transparent" points="333.5,-137.2 333.5,-156.2 399.5,-156.2 399.5,-137.2 333.5,-137.2"/>
<polygon fill="none" stroke="#000000" points="333.5,-137.2 333.5,-156.2 399.5,-156.2 399.5,-137.2 333.5,-137.2"/>
<text text-anchor="start" x="336.5" y="-143.3" font-family="Helvetica,sans-Serif" font-size="11.00" fill="#000000">&lt; 2</text>
<polygon fill="#ffffff" stroke="transparent" points="399.5,-137.2 399.5,-156.2 433.5,-156.2 433.5,-137.2 399.5,-137.2"/>
<polygon fill="none" stroke="#000000" points="399.5,-137.2 399.5,-156.2 433.5,-156.2 433.5,-137.2 399.5,-137.2"/>
<text text-anchor="start" x="424.3862" y="-143.3" font-family="Helvetica,sans-Serif" font-size="11.00" fill="#000000"> &#160;</text>
<polygon fill="#ffffff" stroke="transparent" points="433.5,-137.2 433.5,-156.2 468.5,-156.2 468.5,-137.2 433.5,-137.2"/>
<polygon fill="none" stroke="#000000" points="433.5,-137.2 433.5,-156.2 468.5,-156.2 468.5,-137.2 433.5,-137.2"/>
<text text-anchor="start" x="459.3862" y="-143.3" font-family="Helvetica,sans-Serif" font-size="11.00" fill="#000000"> &#160;</text>
</a>
</g>
</g>
<!-- favorite_projects&#45;&gt;project -->
<g id="edge4" class="edge">
<title>favorite_projects:w&#45;&gt;project:e</title>
<path fill="none" stroke="#000000" d="M318.9287,-168.9415C239.5702,-190.2632 366.1371,-400.2 263.5,-400.2"/>
<polygon fill="#000000" stroke="#000000" points="325.5565,-168.1494 333.9272,-170.7746 329.5283,-167.6747 333.5,-167.2 333.5,-167.2 333.5,-167.2 329.5283,-167.6747 333.0728,-163.6254 325.5565,-168.1494 325.5565,-168.1494"/>
<ellipse fill="none" stroke="#000000" cx="322.3791" cy="-168.5292" rx="3.2" ry="3.2"/>
</g>
</g>
</svg>
