<?xml version="1.0" encoding="UTF-8" standalone="no"?>
<!DOCTYPE svg PUBLIC "-//W3C//DTD SVG 1.1//EN"
 "http://www.w3.org/Graphics/SVG/1.1/DTD/svg11.dtd">
<!-- Generated by graphviz version 2.40.1 (20161225.0304)
 -->
<!-- Title: twoDegreesRelationshipsDiagram Pages: 1 -->
<svg width="699pt" height="655pt"
 viewBox="0.00 0.00 699.00 655.20" xmlns="http://www.w3.org/2000/svg" xmlns:xlink="http://www.w3.org/1999/xlink">
<g id="graph0" class="graph" transform="scale(1 1) rotate(0) translate(4 651.2)">
<title>twoDegreesRelationshipsDiagram</title>
<polygon fill="#ffffff" stroke="transparent" points="-4,4 -4,-651.2 695,-651.2 695,4 -4,4"/>
<text text-anchor="middle" x="72.4936" y="-7.3" font-family="Helvetica,sans-Serif" font-size="11.00" fill="#000000">Generated by SchemaSpy</text>
<!-- operation -->
<g id="node1" class="node">
<title>operation</title>
<g id="a_node1"><a xlink:href="../../tables/operation.html" xlink:title="operation" target="_top">
<polygon fill="#ffffff" stroke="transparent" points="513,-254.2 513,-315.2 606,-315.2 606,-254.2 513,-254.2"/>
<polygon fill="#f5f5f5" stroke="transparent" points="513.5,-291.7 513.5,-314.7 606.5,-314.7 606.5,-291.7 513.5,-291.7"/>
<polygon fill="none" stroke="#000000" points="513.5,-291.7 513.5,-314.7 606.5,-314.7 606.5,-291.7 513.5,-291.7"/>
<text text-anchor="start" x="518.5" y="-300.3" font-family="Helvetica,sans-Serif" font-weight="bold" font-size="11.00" fill="#000000">operation</text>
<text text-anchor="start" x="572.0219" y="-299.8" font-family="Helvetica,sans-Serif" font-size="11.00" fill="#000000">[table]</text>
<polygon fill="none" stroke="#000000" points="513.5,-272.7 513.5,-291.7 606.5,-291.7 606.5,-272.7 513.5,-272.7"/>
<text text-anchor="start" x="516.5" y="-278.8" font-family="Helvetica,sans-Serif" font-size="11.00" fill="#000000">...</text>
<polygon fill="#ffffff" stroke="transparent" points="513.5,-253.7 513.5,-272.7 553.5,-272.7 553.5,-253.7 513.5,-253.7"/>
<polygon fill="none" stroke="#000000" points="513.5,-253.7 513.5,-272.7 553.5,-272.7 553.5,-253.7 513.5,-253.7"/>
<text text-anchor="start" x="516.5" y="-259.8" font-family="Helvetica,sans-Serif" font-size="11.00" fill="#000000">&lt; 4</text>
<polygon fill="#ffffff" stroke="transparent" points="553.5,-253.7 553.5,-272.7 575.5,-272.7 575.5,-253.7 553.5,-253.7"/>
<polygon fill="none" stroke="#000000" points="553.5,-253.7 553.5,-272.7 575.5,-272.7 575.5,-253.7 553.5,-253.7"/>
<text text-anchor="start" x="566.3862" y="-259.8" font-family="Helvetica,sans-Serif" font-size="11.00" fill="#000000"> &#160;</text>
<polygon fill="#ffffff" stroke="transparent" points="575.5,-253.7 575.5,-272.7 606.5,-272.7 606.5,-253.7 575.5,-253.7"/>
<polygon fill="none" stroke="#000000" points="575.5,-253.7 575.5,-272.7 606.5,-272.7 606.5,-253.7 575.5,-253.7"/>
<text text-anchor="start" x="587.9053" y="-259.8" font-family="Helvetica,sans-Serif" font-size="11.00" fill="#000000">4 &gt;</text>
</a>
</g>
</g>
<!-- published_version -->
<g id="node2" class="node">
<title>published_version</title>
<g id="a_node2"><a xlink:href="../../tables/published_version.html" xlink:title="published_version" target="_top">
<polygon fill="#ffffff" stroke="transparent" points="189.5,-334.2 189.5,-461.2 381.5,-461.2 381.5,-334.2 189.5,-334.2"/>
<polygon fill="#f5f5f5" stroke="transparent" points="189.5,-437.7 189.5,-460.7 381.5,-460.7 381.5,-437.7 189.5,-437.7"/>
<polygon fill="none" stroke="#000000" points="189.5,-437.7 189.5,-460.7 381.5,-460.7 381.5,-437.7 189.5,-437.7"/>
<text text-anchor="start" x="194.5" y="-446.3" font-family="Helvetica,sans-Serif" font-weight="bold" font-size="11.00" fill="#000000">published_version</text>
<text text-anchor="start" x="346.5437" y="-445.8" font-family="Helvetica,sans-Serif" font-size="11.00" fill="#000000">[table]</text>
<polygon fill="none" stroke="#000000" points="189.5,-415.7 189.5,-437.7 381.5,-437.7 381.5,-415.7 189.5,-415.7"/>
<image xlink:href="../../images/primaryKeys.png" width="11px" height="12px" preserveAspectRatio="xMinYMin meet" x="194.5" y="-432.7"/>
<text text-anchor="start" x="209.5" y="-422.8" font-family="Helvetica,sans-Serif" font-size="11.00" fill="#000000">package_id</text>
<polygon fill="none" stroke="#000000" points="189.5,-393.7 189.5,-415.7 381.5,-415.7 381.5,-393.7 189.5,-393.7"/>
<image xlink:href="../../images/primaryKeys.png" width="11px" height="12px" preserveAspectRatio="xMinYMin meet" x="194.5" y="-410.7"/>
<text text-anchor="start" x="209.5" y="-400.8" font-family="Helvetica,sans-Serif" font-size="11.00" fill="#000000">version</text>
<polygon fill="none" stroke="#000000" points="189.5,-371.7 189.5,-393.7 381.5,-393.7 381.5,-371.7 189.5,-371.7"/>
<image xlink:href="../../images/primaryKeys.png" width="11px" height="12px" preserveAspectRatio="xMinYMin meet" x="194.5" y="-388.7"/>
<text text-anchor="start" x="209.5" y="-378.8" font-family="Helvetica,sans-Serif" font-size="11.00" fill="#000000">revision</text>
<polygon fill="none" stroke="#000000" points="189.5,-352.7 189.5,-371.7 381.5,-371.7 381.5,-352.7 189.5,-352.7"/>
<text text-anchor="start" x="192.5" y="-358.8" font-family="Helvetica,sans-Serif" font-size="11.00" fill="#000000">...</text>
<polygon fill="#ffffff" stroke="transparent" points="189.5,-333.7 189.5,-352.7 276.5,-352.7 276.5,-333.7 189.5,-333.7"/>
<polygon fill="none" stroke="#000000" points="189.5,-333.7 189.5,-352.7 276.5,-352.7 276.5,-333.7 189.5,-333.7"/>
<text text-anchor="start" x="192.5" y="-339.8" font-family="Helvetica,sans-Serif" font-size="11.00" fill="#000000">&lt; 1</text>
<polygon fill="#ffffff" stroke="transparent" points="276.5,-333.7 276.5,-352.7 321.5,-352.7 321.5,-333.7 276.5,-333.7"/>
<polygon fill="none" stroke="#000000" points="276.5,-333.7 276.5,-352.7 321.5,-352.7 321.5,-333.7 276.5,-333.7"/>
<text text-anchor="start" x="312.3862" y="-339.8" font-family="Helvetica,sans-Serif" font-size="11.00" fill="#000000"> &#160;</text>
<polygon fill="#ffffff" stroke="transparent" points="321.5,-333.7 321.5,-352.7 381.5,-352.7 381.5,-333.7 321.5,-333.7"/>
<polygon fill="none" stroke="#000000" points="321.5,-333.7 321.5,-352.7 381.5,-352.7 381.5,-333.7 321.5,-333.7"/>
<text text-anchor="start" x="356.7904" y="-339.8" font-family="Helvetica,sans-Serif" font-size="11.00" fill="#000000">18 &gt;</text>
</a>
</g>
</g>
<!-- operation&#45;&gt;published_version -->
<g id="edge1" class="edge">
<title>operation:w&#45;&gt;published_version:e</title>
<path fill="none" stroke="#000000" d="M498.7681,-282.3243C467.2048,-285.2588 453.8564,-298.6852 428,-325.7 393.8301,-361.4007 430.9178,-426.7 381.5,-426.7"/>
<polygon fill="#000000" stroke="#000000" points="505.5072,-282.0388 513.6524,-285.2968 509.5036,-281.8694 513.5,-281.7 513.5,-281.7 513.5,-281.7 509.5036,-281.8694 513.3476,-278.1032 505.5072,-282.0388 505.5072,-282.0388"/>
<ellipse fill="none" stroke="#000000" cx="502.31" cy="-282.1743" rx="3.2" ry="3.2"/>
</g>
<!-- operation&#45;&gt;published_version -->
<g id="edge2" class="edge">
<title>operation:w&#45;&gt;published_version:e</title>
<path fill="none" stroke="#000000" d="M498.9181,-282.4872C468.0047,-286.1277 457.0561,-302.1607 428,-325.7 402.5964,-346.2802 414.1939,-382.7 381.5,-382.7"/>
<polygon fill="#000000" stroke="#000000" points="505.5116,-282.1313 513.6941,-285.2948 509.5058,-281.9157 513.5,-281.7 513.5,-281.7 513.5,-281.7 509.5058,-281.9157 513.3059,-278.1052 505.5116,-282.1313 505.5116,-282.1313"/>
<ellipse fill="none" stroke="#000000" cx="502.3163" cy="-282.3038" rx="3.2" ry="3.2"/>
</g>
<!-- operation&#45;&gt;published_version -->
<g id="edge3" class="edge">
<title>operation:w&#45;&gt;published_version:e</title>
<path fill="none" stroke="#000000" d="M498.8302,-282.3868C467.536,-285.5921 455.1812,-300.0186 428,-325.7 398.3857,-353.6803 422.2419,-404.7 381.5,-404.7"/>
<polygon fill="#000000" stroke="#000000" points="505.5088,-282.0742 513.6684,-285.2961 509.5044,-281.8871 513.5,-281.7 513.5,-281.7 513.5,-281.7 509.5044,-281.8871 513.3316,-278.1039 505.5088,-282.0742 505.5088,-282.0742"/>
<ellipse fill="none" stroke="#000000" cx="502.3123" cy="-282.2239" rx="3.2" ry="3.2"/>
</g>
<!-- package_group -->
<g id="node6" class="node">
<title>package_group</title>
<g id="a_node6"><a xlink:href="../../tables/package_group.html" xlink:title="package_group" target="_top">
<polygon fill="#ffffff" stroke="transparent" points="8,-399.2 8,-460.2 135,-460.2 135,-399.2 8,-399.2"/>
<polygon fill="#f5f5f5" stroke="transparent" points="8.5,-436.7 8.5,-459.7 135.5,-459.7 135.5,-436.7 8.5,-436.7"/>
<polygon fill="none" stroke="#000000" points="8.5,-436.7 8.5,-459.7 135.5,-459.7 135.5,-436.7 8.5,-436.7"/>
<text text-anchor="start" x="13.5" y="-445.3" font-family="Helvetica,sans-Serif" font-weight="bold" font-size="11.00" fill="#000000">package_group</text>
<text text-anchor="start" x="101.0219" y="-444.8" font-family="Helvetica,sans-Serif" font-size="11.00" fill="#000000">[table]</text>
<polygon fill="none" stroke="#000000" points="8.5,-417.7 8.5,-436.7 135.5,-436.7 135.5,-417.7 8.5,-417.7"/>
<text text-anchor="start" x="11.5" y="-423.8" font-family="Helvetica,sans-Serif" font-size="11.00" fill="#000000">...</text>
<polygon fill="#ffffff" stroke="transparent" points="8.5,-398.7 8.5,-417.7 62.5,-417.7 62.5,-398.7 8.5,-398.7"/>
<polygon fill="none" stroke="#000000" points="8.5,-398.7 8.5,-417.7 62.5,-417.7 62.5,-398.7 8.5,-398.7"/>
<text text-anchor="start" x="11.5" y="-404.8" font-family="Helvetica,sans-Serif" font-size="11.00" fill="#000000">&lt; 1</text>
<polygon fill="#ffffff" stroke="transparent" points="62.5,-398.7 62.5,-417.7 91.5,-417.7 91.5,-398.7 62.5,-398.7"/>
<polygon fill="none" stroke="#000000" points="62.5,-398.7 62.5,-417.7 91.5,-417.7 91.5,-398.7 62.5,-398.7"/>
<text text-anchor="start" x="82.3862" y="-404.8" font-family="Helvetica,sans-Serif" font-size="11.00" fill="#000000"> &#160;</text>
<polygon fill="#ffffff" stroke="transparent" points="91.5,-398.7 91.5,-417.7 135.5,-417.7 135.5,-398.7 91.5,-398.7"/>
<polygon fill="none" stroke="#000000" points="91.5,-398.7 91.5,-417.7 135.5,-417.7 135.5,-398.7 91.5,-398.7"/>
<text text-anchor="start" x="110.7904" y="-404.8" font-family="Helvetica,sans-Serif" font-size="11.00" fill="#000000">14 &gt;</text>
</a>
</g>
</g>
<!-- published_version&#45;&gt;package_group -->
<g id="edge11" class="edge">
<title>published_version:w&#45;&gt;package_group:e</title>
<path fill="none" stroke="#000000" d="M174.7185,-426.7C161.538,-426.7 153.6875,-426.7 135.5,-426.7"/>
<polygon fill="#000000" stroke="#000000" points="181.5,-426.7001 189.5,-430.3 185.5,-426.7 189.5,-426.7 189.5,-426.7 189.5,-426.7 185.5,-426.7 189.5,-423.1 181.5,-426.7001 181.5,-426.7001"/>
<ellipse fill="none" stroke="#000000" cx="178.3" cy="-426.7001" rx="3.2" ry="3.2"/>
</g>
<!-- operation_group -->
<g id="node3" class="node">
<title>operation_group</title>
<g id="a_node3"><a xlink:href="../../tables/operation_group.html" xlink:title="operation_group" target="_top">
<polygon fill="#ffffff" stroke="transparent" points="492.5,-582.2 492.5,-643.2 626.5,-643.2 626.5,-582.2 492.5,-582.2"/>
<polygon fill="#f5f5f5" stroke="transparent" points="492.5,-619.7 492.5,-642.7 626.5,-642.7 626.5,-619.7 492.5,-619.7"/>
<polygon fill="none" stroke="#000000" points="492.5,-619.7 492.5,-642.7 626.5,-642.7 626.5,-619.7 492.5,-619.7"/>
<text text-anchor="start" x="497.5" y="-628.3" font-family="Helvetica,sans-Serif" font-weight="bold" font-size="11.00" fill="#000000">operation_group</text>
<text text-anchor="start" x="592.0219" y="-627.8" font-family="Helvetica,sans-Serif" font-size="11.00" fill="#000000">[table]</text>
<polygon fill="none" stroke="#000000" points="492.5,-600.7 492.5,-619.7 626.5,-619.7 626.5,-600.7 492.5,-600.7"/>
<text text-anchor="start" x="495.5" y="-606.8" font-family="Helvetica,sans-Serif" font-size="11.00" fill="#000000">...</text>
<polygon fill="#ffffff" stroke="transparent" points="492.5,-581.7 492.5,-600.7 553.5,-600.7 553.5,-581.7 492.5,-581.7"/>
<polygon fill="none" stroke="#000000" points="492.5,-581.7 492.5,-600.7 553.5,-600.7 553.5,-581.7 492.5,-581.7"/>
<text text-anchor="start" x="495.5" y="-587.8" font-family="Helvetica,sans-Serif" font-size="11.00" fill="#000000">&lt; 3</text>
<polygon fill="#ffffff" stroke="transparent" points="553.5,-581.7 553.5,-600.7 585.5,-600.7 585.5,-581.7 553.5,-581.7"/>
<polygon fill="none" stroke="#000000" points="553.5,-581.7 553.5,-600.7 585.5,-600.7 585.5,-581.7 553.5,-581.7"/>
<text text-anchor="start" x="576.3862" y="-587.8" font-family="Helvetica,sans-Serif" font-size="11.00" fill="#000000"> &#160;</text>
<polygon fill="#ffffff" stroke="transparent" points="585.5,-581.7 585.5,-600.7 626.5,-600.7 626.5,-581.7 585.5,-581.7"/>
<polygon fill="none" stroke="#000000" points="585.5,-581.7 585.5,-600.7 626.5,-600.7 626.5,-581.7 585.5,-581.7"/>
<text text-anchor="start" x="607.9053" y="-587.8" font-family="Helvetica,sans-Serif" font-size="11.00" fill="#000000">2 &gt;</text>
</a>
</g>
</g>
<!-- operation_group&#45;&gt;published_version -->
<g id="edge4" class="edge">
<title>operation_group:w&#45;&gt;published_version:e</title>
<path fill="none" stroke="#000000" d="M477.8203,-608.7214C455.5204,-605.3826 445.3665,-593.425 428,-571.7 385.7425,-518.837 449.1772,-426.7 381.5,-426.7"/>
<polygon fill="#000000" stroke="#000000" points="484.5177,-609.1678 492.2605,-613.292 488.5089,-609.4339 492.5,-609.7 492.5,-609.7 492.5,-609.7 488.5089,-609.4339 492.7395,-606.108 484.5177,-609.1678 484.5177,-609.1678"/>
<ellipse fill="none" stroke="#000000" cx="481.3248" cy="-608.955" rx="3.2" ry="3.2"/>
</g>
<!-- operation_group&#45;&gt;published_version -->
<g id="edge5" class="edge">
<title>operation_group:w&#45;&gt;published_version:e</title>
<path fill="none" stroke="#000000" d="M478.0749,-608.813C455.3703,-605.683 444.6834,-594.1161 428,-571.7 376.3523,-502.3053 468.005,-382.7 381.5,-382.7"/>
<polygon fill="#000000" stroke="#000000" points="484.5151,-609.209 492.279,-613.2932 488.5075,-609.4545 492.5,-609.7 492.5,-609.7 492.5,-609.7 488.5075,-609.4545 492.721,-606.1068 484.5151,-609.209 484.5151,-609.209"/>
<ellipse fill="none" stroke="#000000" cx="481.3211" cy="-609.0126" rx="3.2" ry="3.2"/>
</g>
<!-- operation_group&#45;&gt;published_version -->
<g id="edge6" class="edge">
<title>operation_group:w&#45;&gt;published_version:e</title>
<path fill="none" stroke="#000000" d="M478.1009,-608.7934C455.4786,-605.6011 445.0214,-593.8606 428,-571.7 381.0681,-510.5981 458.5458,-404.7 381.5,-404.7"/>
<polygon fill="#000000" stroke="#000000" points="484.5158,-609.1972 492.2738,-613.2929 488.5079,-609.4486 492.5,-609.7 492.5,-609.7 492.5,-609.7 488.5079,-609.4486 492.7262,-606.1071 484.5158,-609.1972 484.5158,-609.1972"/>
<ellipse fill="none" stroke="#000000" cx="481.3221" cy="-608.9961" rx="3.2" ry="3.2"/>
</g>
<!-- published_sources -->
<g id="node4" class="node">
<title>published_sources</title>
<g id="a_node4"><a xlink:href="../../tables/published_sources.html" xlink:title="published_sources" target="_top">
<polygon fill="#ffffff" stroke="transparent" points="438,-54.7 438,-232.7 681,-232.7 681,-54.7 438,-54.7"/>
<polygon fill="#f5f5f5" stroke="transparent" points="440.5,-207.7 440.5,-230.7 679.5,-230.7 679.5,-207.7 440.5,-207.7"/>
<polygon fill="none" stroke="#000000" points="440.5,-207.7 440.5,-230.7 679.5,-230.7 679.5,-207.7 440.5,-207.7"/>
<text text-anchor="start" x="445.5" y="-216.3" font-family="Helvetica,sans-Serif" font-weight="bold" font-size="11.00" fill="#000000">published_sources</text>
<text text-anchor="start" x="644.5437" y="-215.8" font-family="Helvetica,sans-Serif" font-size="11.00" fill="#000000">[table]</text>
<polygon fill="#ffffff" stroke="transparent" points="440.5,-185.7 440.5,-207.7 570.5,-207.7 570.5,-185.7 440.5,-185.7"/>
<polygon fill="none" stroke="#000000" points="440.5,-185.7 440.5,-207.7 570.5,-207.7 570.5,-185.7 440.5,-185.7"/>
<image xlink:href="../../images/foreignKeys.png" width="11px" height="12px" preserveAspectRatio="xMinYMin meet" x="445.5" y="-202.7"/>
<text text-anchor="start" x="460.5" y="-192.8" font-family="Helvetica,sans-Serif" font-size="11.00" fill="#000000">package_id</text>
<polygon fill="none" stroke="#000000" points="570.5,-185.7 570.5,-207.7 679.5,-207.7 679.5,-185.7 570.5,-185.7"/>
<text text-anchor="start" x="573.0344" y="-193.4" font-family="Helvetica,sans-Serif" font-size="11.00" fill="#000000">varchar[2147483647]</text>
<polygon fill="#ffffff" stroke="transparent" points="440.5,-163.7 440.5,-185.7 570.5,-185.7 570.5,-163.7 440.5,-163.7"/>
<polygon fill="none" stroke="#000000" points="440.5,-163.7 440.5,-185.7 570.5,-185.7 570.5,-163.7 440.5,-163.7"/>
<image xlink:href="../../images/foreignKeys.png" width="11px" height="12px" preserveAspectRatio="xMinYMin meet" x="445.5" y="-180.7"/>
<text text-anchor="start" x="460.5" y="-170.8" font-family="Helvetica,sans-Serif" font-size="11.00" fill="#000000">version</text>
<polygon fill="none" stroke="#000000" points="570.5,-163.7 570.5,-185.7 679.5,-185.7 679.5,-163.7 570.5,-163.7"/>
<text text-anchor="start" x="573.0344" y="-171.4" font-family="Helvetica,sans-Serif" font-size="11.00" fill="#000000">varchar[2147483647]</text>
<polygon fill="#ffffff" stroke="transparent" points="440.5,-141.7 440.5,-163.7 570.5,-163.7 570.5,-141.7 440.5,-141.7"/>
<polygon fill="none" stroke="#000000" points="440.5,-141.7 440.5,-163.7 570.5,-163.7 570.5,-141.7 440.5,-141.7"/>
<image xlink:href="../../images/foreignKeys.png" width="11px" height="12px" preserveAspectRatio="xMinYMin meet" x="445.5" y="-158.7"/>
<text text-anchor="start" x="460.5" y="-148.8" font-family="Helvetica,sans-Serif" font-size="11.00" fill="#000000">revision</text>
<polygon fill="none" stroke="#000000" points="570.5,-141.7 570.5,-163.7 679.5,-163.7 679.5,-141.7 570.5,-141.7"/>
<text text-anchor="start" x="573.5" y="-149.4" font-family="Helvetica,sans-Serif" font-size="11.00" fill="#000000">int4[10]</text>
<polygon fill="none" stroke="#000000" points="440.5,-119.7 440.5,-141.7 570.5,-141.7 570.5,-119.7 440.5,-119.7"/>
<text text-anchor="start" x="460.5" y="-126.8" font-family="Helvetica,sans-Serif" font-size="11.00" fill="#000000">config</text>
<polygon fill="none" stroke="#000000" points="570.5,-119.7 570.5,-141.7 679.5,-141.7 679.5,-119.7 570.5,-119.7"/>
<text text-anchor="start" x="573.5" y="-127.4" font-family="Helvetica,sans-Serif" font-size="11.00" fill="#000000">bytea[2147483647]</text>
<polygon fill="none" stroke="#000000" points="440.5,-97.7 440.5,-119.7 570.5,-119.7 570.5,-97.7 440.5,-97.7"/>
<text text-anchor="start" x="460.5" y="-104.8" font-family="Helvetica,sans-Serif" font-size="11.00" fill="#000000">metadata</text>
<polygon fill="none" stroke="#000000" points="570.5,-97.7 570.5,-119.7 679.5,-119.7 679.5,-97.7 570.5,-97.7"/>
<text text-anchor="start" x="573.5" y="-105.4" font-family="Helvetica,sans-Serif" font-size="11.00" fill="#000000">bytea[2147483647]</text>
<polygon fill="none" stroke="#000000" points="440.5,-75.7 440.5,-97.7 570.5,-97.7 570.5,-75.7 440.5,-75.7"/>
<image xlink:href="../../images/foreignKeys.png" width="11px" height="12px" preserveAspectRatio="xMinYMin meet" x="445.5" y="-92.7"/>
<text text-anchor="start" x="460.5" y="-82.8" font-family="Helvetica,sans-Serif" font-size="11.00" fill="#000000">archive_checksum</text>
<polygon fill="none" stroke="#000000" points="570.5,-75.7 570.5,-97.7 679.5,-97.7 679.5,-75.7 570.5,-75.7"/>
<text text-anchor="start" x="573.0344" y="-83.4" font-family="Helvetica,sans-Serif" font-size="11.00" fill="#000000">varchar[2147483647]</text>
<polygon fill="#ffffff" stroke="transparent" points="440.5,-56.7 440.5,-75.7 509.5,-75.7 509.5,-56.7 440.5,-56.7"/>
<polygon fill="none" stroke="#000000" points="440.5,-56.7 440.5,-75.7 509.5,-75.7 509.5,-56.7 440.5,-56.7"/>
<text text-anchor="start" x="443.5" y="-62.8" font-family="Helvetica,sans-Serif" font-size="11.00" fill="#000000">&lt; 4</text>
<polygon fill="#ffffff" stroke="transparent" points="509.5,-56.7 509.5,-75.7 570.5,-75.7 570.5,-56.7 509.5,-56.7"/>
<polygon fill="none" stroke="#000000" points="509.5,-56.7 509.5,-75.7 570.5,-75.7 570.5,-56.7 509.5,-56.7"/>
<text text-anchor="start" x="561.3862" y="-62.8" font-family="Helvetica,sans-Serif" font-size="11.00" fill="#000000"> &#160;</text>
<polygon fill="#ffffff" stroke="transparent" points="570.5,-56.7 570.5,-75.7 679.5,-75.7 679.5,-56.7 570.5,-56.7"/>
<polygon fill="none" stroke="#000000" points="570.5,-56.7 570.5,-75.7 679.5,-75.7 679.5,-56.7 570.5,-56.7"/>
<text text-anchor="start" x="660.9053" y="-62.8" font-family="Helvetica,sans-Serif" font-size="11.00" fill="#000000">0 &gt;</text>
<polygon fill="none" stroke="#000000" stroke-width="2" points="439,-55.7 439,-231.7 680,-231.7 680,-55.7 439,-55.7"/>
</a>
</g>
</g>
<!-- published_sources&#45;&gt;published_version -->
<g id="edge8" class="edge">
<title>published_sources:w&#45;&gt;published_version:e</title>
<path fill="none" stroke="#000000" d="M425.878,-198.5514C350.2897,-220.3182 481.4668,-426.7 381.5,-426.7"/>
<polygon fill="#000000" stroke="#000000" points="432.5634,-197.705 440.9522,-200.2715 436.5317,-197.2025 440.5,-196.7 440.5,-196.7 440.5,-196.7 436.5317,-197.2025 440.0478,-193.1285 432.5634,-197.705 432.5634,-197.705"/>
<ellipse fill="none" stroke="#000000" cx="429.3887" cy="-198.1069" rx="3.2" ry="3.2"/>
</g>
<!-- published_sources&#45;&gt;published_version -->
<g id="edge9" class="edge">
<title>published_sources:w&#45;&gt;published_version:e</title>
<path fill="none" stroke="#000000" d="M425.878,-154.5514C350.2897,-176.3182 481.4668,-382.7 381.5,-382.7"/>
<polygon fill="#000000" stroke="#000000" points="432.5634,-153.705 440.9522,-156.2715 436.5317,-153.2025 440.5,-152.7 440.5,-152.7 440.5,-152.7 436.5317,-153.2025 440.0478,-149.1285 432.5634,-153.705 432.5634,-153.705"/>
<ellipse fill="none" stroke="#000000" cx="429.3887" cy="-154.1069" rx="3.2" ry="3.2"/>
</g>
<!-- published_sources&#45;&gt;published_version -->
<g id="edge10" class="edge">
<title>published_sources:w&#45;&gt;published_version:e</title>
<path fill="none" stroke="#000000" d="M425.878,-176.5514C350.2897,-198.3182 481.4668,-404.7 381.5,-404.7"/>
<polygon fill="#000000" stroke="#000000" points="432.5634,-175.705 440.9522,-178.2715 436.5317,-175.2025 440.5,-174.7 440.5,-174.7 440.5,-174.7 436.5317,-175.2025 440.0478,-171.1285 432.5634,-175.705 432.5634,-175.705"/>
<ellipse fill="none" stroke="#000000" cx="429.3887" cy="-176.1069" rx="3.2" ry="3.2"/>
</g>
<!-- published_sources_archives -->
<g id="node5" class="node">
<title>published_sources_archives</title>
<g id="a_node5"><a xlink:href="../../tables/published_sources_archives.html" xlink:title="published_sources_archives" target="_top">
<polygon fill="#ffffff" stroke="transparent" points="184,-38.2 184,-121.2 387,-121.2 387,-38.2 184,-38.2"/>
<polygon fill="#f5f5f5" stroke="transparent" points="184.5,-97.7 184.5,-120.7 387.5,-120.7 387.5,-97.7 184.5,-97.7"/>
<polygon fill="none" stroke="#000000" points="184.5,-97.7 184.5,-120.7 387.5,-120.7 387.5,-97.7 184.5,-97.7"/>
<text text-anchor="start" x="189.5" y="-106.3" font-family="Helvetica,sans-Serif" font-weight="bold" font-size="11.00" fill="#000000">published_sources_archives</text>
<text text-anchor="start" x="353.0219" y="-105.8" font-family="Helvetica,sans-Serif" font-size="11.00" fill="#000000">[table]</text>
<polygon fill="none" stroke="#000000" points="184.5,-75.7 184.5,-97.7 387.5,-97.7 387.5,-75.7 184.5,-75.7"/>
<image xlink:href="../../images/primaryKeys.png" width="11px" height="12px" preserveAspectRatio="xMinYMin meet" x="189.5" y="-92.7"/>
<text text-anchor="start" x="213.5" y="-82.8" font-family="Helvetica,sans-Serif" font-size="11.00" fill="#000000">checksum</text>
<polygon fill="none" stroke="#000000" points="184.5,-56.7 184.5,-75.7 387.5,-75.7 387.5,-56.7 184.5,-56.7"/>
<text text-anchor="start" x="187.5" y="-62.8" font-family="Helvetica,sans-Serif" font-size="11.00" fill="#000000">...</text>
<polygon fill="#ffffff" stroke="transparent" points="184.5,-37.7 184.5,-56.7 275.5,-56.7 275.5,-37.7 184.5,-37.7"/>
<polygon fill="none" stroke="#000000" points="184.5,-37.7 184.5,-56.7 275.5,-56.7 275.5,-37.7 184.5,-37.7"/>
<text text-anchor="start" x="187.5" y="-43.8" font-family="Helvetica,sans-Serif" font-size="11.00" fill="#000000"> &#160;</text>
<polygon fill="#ffffff" stroke="transparent" points="275.5,-37.7 275.5,-56.7 326.5,-56.7 326.5,-37.7 275.5,-37.7"/>
<polygon fill="none" stroke="#000000" points="275.5,-37.7 275.5,-56.7 326.5,-56.7 326.5,-37.7 275.5,-37.7"/>
<text text-anchor="start" x="317.3862" y="-43.8" font-family="Helvetica,sans-Serif" font-size="11.00" fill="#000000"> &#160;</text>
<polygon fill="#ffffff" stroke="transparent" points="326.5,-37.7 326.5,-56.7 387.5,-56.7 387.5,-37.7 326.5,-37.7"/>
<polygon fill="none" stroke="#000000" points="326.5,-37.7 326.5,-56.7 387.5,-56.7 387.5,-37.7 326.5,-37.7"/>
<text text-anchor="start" x="368.9053" y="-43.8" font-family="Helvetica,sans-Serif" font-size="11.00" fill="#000000">1 &gt;</text>
</a>
</g>
</g>
<!-- published_sources&#45;&gt;published_sources_archives -->
<g id="edge7" class="edge">
<title>published_sources:w&#45;&gt;published_sources_archives:e</title>
<path fill="none" stroke="#000000" d="M425.9922,-86.7C413.0558,-86.7 405.3507,-86.7 387.5,-86.7"/>
<polygon fill="#000000" stroke="#000000" points="432.5,-86.7001 440.5,-90.3 436.5,-86.7 440.5,-86.7 440.5,-86.7 440.5,-86.7 436.5,-86.7 440.5,-83.1 432.5,-86.7001 432.5,-86.7001"/>
<ellipse fill="none" stroke="#000000" cx="429.3" cy="-86.7001" rx="3.2" ry="3.2"/>
</g>
<!-- published_version_reference -->
<g id="node7" class="node">
<title>published_version_reference</title>
<g id="a_node7"><a xlink:href="../../tables/published_version_reference.html" xlink:title="published_version_reference" target="_top">
<polygon fill="#ffffff" stroke="transparent" points="457,-500.2 457,-561.2 662,-561.2 662,-500.2 457,-500.2"/>
<polygon fill="#f5f5f5" stroke="transparent" points="457.5,-537.7 457.5,-560.7 662.5,-560.7 662.5,-537.7 457.5,-537.7"/>
<polygon fill="none" stroke="#000000" points="457.5,-537.7 457.5,-560.7 662.5,-560.7 662.5,-537.7 457.5,-537.7"/>
<text text-anchor="start" x="462.5" y="-546.3" font-family="Helvetica,sans-Serif" font-weight="bold" font-size="11.00" fill="#000000">published_version_reference</text>
<text text-anchor="start" x="628.0219" y="-545.8" font-family="Helvetica,sans-Serif" font-size="11.00" fill="#000000">[table]</text>
<polygon fill="none" stroke="#000000" points="457.5,-518.7 457.5,-537.7 662.5,-537.7 662.5,-518.7 457.5,-518.7"/>
<text text-anchor="start" x="460.5" y="-524.8" font-family="Helvetica,sans-Serif" font-size="11.00" fill="#000000">...</text>
<polygon fill="#ffffff" stroke="transparent" points="457.5,-499.7 457.5,-518.7 558.5,-518.7 558.5,-499.7 457.5,-499.7"/>
<polygon fill="none" stroke="#000000" points="457.5,-499.7 457.5,-518.7 558.5,-518.7 558.5,-499.7 457.5,-499.7"/>
<text text-anchor="start" x="460.5" y="-505.8" font-family="Helvetica,sans-Serif" font-size="11.00" fill="#000000">&lt; 3</text>
<polygon fill="#ffffff" stroke="transparent" points="558.5,-499.7 558.5,-518.7 610.5,-518.7 610.5,-499.7 558.5,-499.7"/>
<polygon fill="none" stroke="#000000" points="558.5,-499.7 558.5,-518.7 610.5,-518.7 610.5,-499.7 558.5,-499.7"/>
<text text-anchor="start" x="601.3862" y="-505.8" font-family="Helvetica,sans-Serif" font-size="11.00" fill="#000000"> &#160;</text>
<polygon fill="#ffffff" stroke="transparent" points="610.5,-499.7 610.5,-518.7 662.5,-518.7 662.5,-499.7 610.5,-499.7"/>
<polygon fill="none" stroke="#000000" points="610.5,-499.7 610.5,-518.7 662.5,-518.7 662.5,-499.7 610.5,-499.7"/>
<text text-anchor="start" x="653.3862" y="-505.8" font-family="Helvetica,sans-Serif" font-size="11.00" fill="#000000"> &#160;</text>
</a>
</g>
</g>
<!-- published_version_reference&#45;&gt;published_version -->
<g id="edge12" class="edge">
<title>published_version_reference:w&#45;&gt;published_version:e</title>
<path fill="none" stroke="#000000" d="M443.0529,-524.7862C407.7524,-508.2262 431.9723,-426.7 381.5,-426.7"/>
<polygon fill="#000000" stroke="#000000" points="449.6579,-526.1183 456.7882,-531.2289 453.579,-526.9092 457.5,-527.7 457.5,-527.7 457.5,-527.7 453.579,-526.9092 458.2118,-524.1711 449.6579,-526.1183 449.6579,-526.1183"/>
<ellipse fill="none" stroke="#000000" cx="446.5211" cy="-525.4856" rx="3.2" ry="3.2"/>
</g>
<!-- published_version_reference&#45;&gt;published_version -->
<g id="edge13" class="edge">
<title>published_version_reference:w&#45;&gt;published_version:e</title>
<path fill="none" stroke="#000000" d="M443.224,-525.3042C394.5054,-506.4515 448.7178,-382.7 381.5,-382.7"/>
<polygon fill="#000000" stroke="#000000" points="449.6103,-526.3759 456.9042,-531.2504 453.5552,-527.038 457.5,-527.7 457.5,-527.7 457.5,-527.7 453.5552,-527.038 458.0958,-524.1496 449.6103,-526.3759 449.6103,-526.3759"/>
<ellipse fill="none" stroke="#000000" cx="446.4545" cy="-525.8463" rx="3.2" ry="3.2"/>
</g>
<!-- published_version_reference&#45;&gt;published_version -->
<g id="edge14" class="edge">
<title>published_version_reference:w&#45;&gt;published_version:e</title>
<path fill="none" stroke="#000000" d="M443.1041,-525.0166C401.5698,-507.0291 440.1124,-404.7 381.5,-404.7"/>
<polygon fill="#000000" stroke="#000000" points="449.6355,-526.234 456.8403,-531.239 453.5677,-526.967 457.5,-527.7 457.5,-527.7 457.5,-527.7 453.5677,-526.967 458.1597,-524.161 449.6355,-526.234 449.6355,-526.234"/>
<ellipse fill="none" stroke="#000000" cx="446.4896" cy="-525.6476" rx="3.2" ry="3.2"/>
</g>
<!-- published_version_revision_content -->
<g id="node8" class="node">
<title>published_version_revision_content</title>
<g id="a_node8"><a xlink:href="../../tables/published_version_revision_content.html" xlink:title="published_version_revision_content" target="_top">
<polygon fill="#ffffff" stroke="transparent" points="436,-418.2 436,-479.2 683,-479.2 683,-418.2 436,-418.2"/>
<polygon fill="#f5f5f5" stroke="transparent" points="436.5,-455.7 436.5,-478.7 683.5,-478.7 683.5,-455.7 436.5,-455.7"/>
<polygon fill="none" stroke="#000000" points="436.5,-455.7 436.5,-478.7 683.5,-478.7 683.5,-455.7 436.5,-455.7"/>
<text text-anchor="start" x="441.5" y="-464.3" font-family="Helvetica,sans-Serif" font-weight="bold" font-size="11.00" fill="#000000">published_version_revision_content</text>
<text text-anchor="start" x="649.0219" y="-463.8" font-family="Helvetica,sans-Serif" font-size="11.00" fill="#000000">[table]</text>
<polygon fill="none" stroke="#000000" points="436.5,-436.7 436.5,-455.7 683.5,-455.7 683.5,-436.7 436.5,-436.7"/>
<text text-anchor="start" x="439.5" y="-442.8" font-family="Helvetica,sans-Serif" font-size="11.00" fill="#000000">...</text>
<polygon fill="#ffffff" stroke="transparent" points="436.5,-417.7 436.5,-436.7 558.5,-436.7 558.5,-417.7 436.5,-417.7"/>
<polygon fill="none" stroke="#000000" points="436.5,-417.7 436.5,-436.7 558.5,-436.7 558.5,-417.7 436.5,-417.7"/>
<text text-anchor="start" x="439.5" y="-423.8" font-family="Helvetica,sans-Serif" font-size="11.00" fill="#000000">&lt; 5</text>
<polygon fill="#ffffff" stroke="transparent" points="558.5,-417.7 558.5,-436.7 620.5,-436.7 620.5,-417.7 558.5,-417.7"/>
<polygon fill="none" stroke="#000000" points="558.5,-417.7 558.5,-436.7 620.5,-436.7 620.5,-417.7 558.5,-417.7"/>
<text text-anchor="start" x="611.3862" y="-423.8" font-family="Helvetica,sans-Serif" font-size="11.00" fill="#000000"> &#160;</text>
<polygon fill="#ffffff" stroke="transparent" points="620.5,-417.7 620.5,-436.7 683.5,-436.7 683.5,-417.7 620.5,-417.7"/>
<polygon fill="none" stroke="#000000" points="620.5,-417.7 620.5,-436.7 683.5,-436.7 683.5,-417.7 620.5,-417.7"/>
<text text-anchor="start" x="674.3862" y="-423.8" font-family="Helvetica,sans-Serif" font-size="11.00" fill="#000000"> &#160;</text>
</a>
</g>
</g>
<!-- published_version_revision_content&#45;&gt;published_version -->
<g id="edge15" class="edge">
<title>published_version_revision_content:w&#45;&gt;published_version:e</title>
<path fill="none" stroke="#000000" d="M421.8747,-443.2161C407.9942,-438.0659 401.5026,-426.7 381.5,-426.7"/>
<polygon fill="#000000" stroke="#000000" points="428.6129,-444.3604 435.8972,-449.2492 432.5565,-445.0302 436.5,-445.7 436.5,-445.7 436.5,-445.7 432.5565,-445.0302 437.1028,-442.1508 428.6129,-444.3604 428.6129,-444.3604"/>
<ellipse fill="none" stroke="#000000" cx="425.4581" cy="-443.8246" rx="3.2" ry="3.2"/>
</g>
<!-- published_version_revision_content&#45;&gt;published_version -->
<g id="edge16" class="edge">
<title>published_version_revision_content:w&#45;&gt;published_version:e</title>
<path fill="none" stroke="#000000" d="M422.5254,-441.3698C404.0758,-427.1363 412.7161,-382.7 381.5,-382.7"/>
<polygon fill="#000000" stroke="#000000" points="428.8584,-443.3321 435.4344,-449.1387 432.6792,-444.5161 436.5,-445.7 436.5,-445.7 436.5,-445.7 432.6792,-444.5161 437.5656,-442.2613 428.8584,-443.3321 428.8584,-443.3321"/>
<ellipse fill="none" stroke="#000000" cx="425.8018" cy="-442.3849" rx="3.2" ry="3.2"/>
</g>
<!-- published_version_revision_content&#45;&gt;published_version -->
<g id="edge17" class="edge">
<title>published_version_revision_content:w&#45;&gt;published_version:e</title>
<path fill="none" stroke="#000000" d="M422.2653,-441.6189C406.955,-431.2484 406.0341,-404.7 381.5,-404.7"/>
<polygon fill="#000000" stroke="#000000" points="428.8098,-443.4952 435.5078,-449.1606 432.6549,-444.5976 436.5,-445.7 436.5,-445.7 436.5,-445.7 432.6549,-444.5976 437.4922,-442.2394 428.8098,-443.4952 428.8098,-443.4952"/>
<ellipse fill="none" stroke="#000000" cx="425.7337" cy="-442.6132" rx="3.2" ry="3.2"/>
</g>
<!-- published_version_validation -->
<g id="node9" class="node">
<title>published_version_validation</title>
<g id="a_node9"><a xlink:href="../../tables/published_version_validation.html" xlink:title="published_version_validation" target="_top">
<polygon fill="#ffffff" stroke="transparent" points="456,-336.2 456,-397.2 663,-397.2 663,-336.2 456,-336.2"/>
<polygon fill="#f5f5f5" stroke="transparent" points="456.5,-373.7 456.5,-396.7 663.5,-396.7 663.5,-373.7 456.5,-373.7"/>
<polygon fill="none" stroke="#000000" points="456.5,-373.7 456.5,-396.7 663.5,-396.7 663.5,-373.7 456.5,-373.7"/>
<text text-anchor="start" x="461.5" y="-382.3" font-family="Helvetica,sans-Serif" font-weight="bold" font-size="11.00" fill="#000000">published_version_validation</text>
<text text-anchor="start" x="629.0219" y="-381.8" font-family="Helvetica,sans-Serif" font-size="11.00" fill="#000000">[table]</text>
<polygon fill="none" stroke="#000000" points="456.5,-354.7 456.5,-373.7 663.5,-373.7 663.5,-354.7 456.5,-354.7"/>
<text text-anchor="start" x="459.5" y="-360.8" font-family="Helvetica,sans-Serif" font-size="11.00" fill="#000000">...</text>
<polygon fill="#ffffff" stroke="transparent" points="456.5,-335.7 456.5,-354.7 558.5,-354.7 558.5,-335.7 456.5,-335.7"/>
<polygon fill="none" stroke="#000000" points="456.5,-335.7 456.5,-354.7 558.5,-354.7 558.5,-335.7 456.5,-335.7"/>
<text text-anchor="start" x="459.5" y="-341.8" font-family="Helvetica,sans-Serif" font-size="11.00" fill="#000000">&lt; 3</text>
<polygon fill="#ffffff" stroke="transparent" points="558.5,-335.7 558.5,-354.7 610.5,-354.7 610.5,-335.7 558.5,-335.7"/>
<polygon fill="none" stroke="#000000" points="558.5,-335.7 558.5,-354.7 610.5,-354.7 610.5,-335.7 558.5,-335.7"/>
<text text-anchor="start" x="601.3862" y="-341.8" font-family="Helvetica,sans-Serif" font-size="11.00" fill="#000000"> &#160;</text>
<polygon fill="#ffffff" stroke="transparent" points="610.5,-335.7 610.5,-354.7 663.5,-354.7 663.5,-335.7 610.5,-335.7"/>
<polygon fill="none" stroke="#000000" points="610.5,-335.7 610.5,-354.7 663.5,-354.7 663.5,-335.7 610.5,-335.7"/>
<text text-anchor="start" x="654.3862" y="-341.8" font-family="Helvetica,sans-Serif" font-size="11.00" fill="#000000"> &#160;</text>
</a>
</g>
</g>
<!-- published_version_validation&#45;&gt;published_version -->
<g id="edge18" class="edge">
<title>published_version_validation:w&#45;&gt;published_version:e</title>
<path fill="none" stroke="#000000" d="M442.1985,-366.5707C415.154,-378.8953 419.4212,-426.7 381.5,-426.7"/>
<polygon fill="#000000" stroke="#000000" points="448.6564,-365.2744 457.2085,-367.2296 452.5782,-364.4872 456.5,-363.7 456.5,-363.7 456.5,-363.7 452.5782,-364.4872 455.7915,-360.1704 448.6564,-365.2744 448.6564,-365.2744"/>
<ellipse fill="none" stroke="#000000" cx="445.519" cy="-365.9042" rx="3.2" ry="3.2"/>
</g>
<!-- published_version_validation&#45;&gt;published_version -->
<g id="edge19" class="edge">
<title>published_version_validation:w&#45;&gt;published_version:e</title>
<path fill="none" stroke="#000000" d="M441.9139,-365.0059C419.3967,-369.2986 410.3791,-382.7 381.5,-382.7"/>
<polygon fill="#000000" stroke="#000000" points="448.5319,-364.4135 456.8211,-367.2857 452.5159,-364.0567 456.5,-363.7 456.5,-363.7 456.5,-363.7 452.5159,-364.0567 456.1789,-360.1143 448.5319,-364.4135 448.5319,-364.4135"/>
<ellipse fill="none" stroke="#000000" cx="445.3446" cy="-364.6989" rx="3.2" ry="3.2"/>
</g>
<!-- published_version_validation&#45;&gt;published_version -->
<g id="edge20" class="edge">
<title>published_version_validation:w&#45;&gt;published_version:e</title>
<path fill="none" stroke="#000000" d="M442.2349,-366.0218C417.9797,-374.6951 413.9984,-404.7 381.5,-404.7"/>
<polygon fill="#000000" stroke="#000000" points="448.6039,-364.9852 457.0784,-367.2532 452.552,-364.3426 456.5,-363.7 456.5,-363.7 456.5,-363.7 452.552,-364.3426 455.9216,-360.1468 448.6039,-364.9852 448.6039,-364.9852"/>
<ellipse fill="none" stroke="#000000" cx="445.4455" cy="-365.4993" rx="3.2" ry="3.2"/>
</g>
</g>
</svg>
