<?xml version="1.0" encoding="UTF-8" standalone="no"?>
<!DOCTYPE svg PUBLIC "-//W3C//DTD SVG 1.1//EN"
 "http://www.w3.org/Graphics/SVG/1.1/DTD/svg11.dtd">
<!-- Generated by graphviz version 2.40.1 (20161225.0304)
 -->
<!-- Title: twoDegreesRelationshipsDiagram Pages: 1 -->
<svg width="768pt" height="1169pt"
 viewBox="0.00 0.00 768.00 1169.20" xmlns="http://www.w3.org/2000/svg" xmlns:xlink="http://www.w3.org/1999/xlink">
<g id="graph0" class="graph" transform="scale(1 1) rotate(0) translate(4 1165.2)">
<title>twoDegreesRelationshipsDiagram</title>
<polygon fill="#ffffff" stroke="transparent" points="-4,4 -4,-1165.2 764,-1165.2 764,4 -4,4"/>
<text text-anchor="middle" x="72.4936" y="-7.3" font-family="Helvetica,sans-Serif" font-size="11.00" fill="#000000">Generated by SchemaSpy</text>
<!-- activity_tracking -->
<g id="node1" class="node">
<title>activity_tracking</title>
<g id="a_node1"><a xlink:href="../../tables/activity_tracking.html" xlink:title="activity_tracking" target="_top">
<polygon fill="#ffffff" stroke="transparent" points="272.5,-1096.2 272.5,-1157.2 405.5,-1157.2 405.5,-1096.2 272.5,-1096.2"/>
<polygon fill="#f5f5f5" stroke="transparent" points="273,-1133.7 273,-1156.7 406,-1156.7 406,-1133.7 273,-1133.7"/>
<polygon fill="none" stroke="#000000" points="273,-1133.7 273,-1156.7 406,-1156.7 406,-1133.7 273,-1133.7"/>
<text text-anchor="start" x="278" y="-1142.3" font-family="Helvetica,sans-Serif" font-weight="bold" font-size="11.00" fill="#000000">activity_tracking</text>
<text text-anchor="start" x="371.5219" y="-1141.8" font-family="Helvetica,sans-Serif" font-size="11.00" fill="#000000">[table]</text>
<polygon fill="none" stroke="#000000" points="273,-1114.7 273,-1133.7 406,-1133.7 406,-1114.7 273,-1114.7"/>
<text text-anchor="start" x="276" y="-1120.8" font-family="Helvetica,sans-Serif" font-size="11.00" fill="#000000">...</text>
<polygon fill="#ffffff" stroke="transparent" points="273,-1095.7 273,-1114.7 338,-1114.7 338,-1095.7 273,-1095.7"/>
<polygon fill="none" stroke="#000000" points="273,-1095.7 273,-1114.7 338,-1114.7 338,-1095.7 273,-1095.7"/>
<text text-anchor="start" x="276" y="-1101.8" font-family="Helvetica,sans-Serif" font-size="11.00" fill="#000000">&lt; 1</text>
<polygon fill="#ffffff" stroke="transparent" points="338,-1095.7 338,-1114.7 372,-1114.7 372,-1095.7 338,-1095.7"/>
<polygon fill="none" stroke="#000000" points="338,-1095.7 338,-1114.7 372,-1114.7 372,-1095.7 338,-1095.7"/>
<text text-anchor="start" x="362.8862" y="-1101.8" font-family="Helvetica,sans-Serif" font-size="11.00" fill="#000000"> &#160;</text>
<polygon fill="#ffffff" stroke="transparent" points="372,-1095.7 372,-1114.7 406,-1114.7 406,-1095.7 372,-1095.7"/>
<polygon fill="none" stroke="#000000" points="372,-1095.7 372,-1114.7 406,-1114.7 406,-1095.7 372,-1095.7"/>
<text text-anchor="start" x="396.8862" y="-1101.8" font-family="Helvetica,sans-Serif" font-size="11.00" fill="#000000"> &#160;</text>
</a>
</g>
</g>
<!-- package_group -->
<g id="node2" class="node">
<title>package_group</title>
<g id="a_node2"><a xlink:href="../../tables/package_group.html" xlink:title="package_group" target="_top">
<polygon fill="#ffffff" stroke="transparent" points="8,-520.2 8,-625.2 173,-625.2 173,-520.2 8,-520.2"/>
<polygon fill="#f5f5f5" stroke="transparent" points="8.5,-601.7 8.5,-624.7 173.5,-624.7 173.5,-601.7 8.5,-601.7"/>
<polygon fill="none" stroke="#000000" points="8.5,-601.7 8.5,-624.7 173.5,-624.7 173.5,-601.7 8.5,-601.7"/>
<text text-anchor="start" x="13.5" y="-610.3" font-family="Helvetica,sans-Serif" font-weight="bold" font-size="11.00" fill="#000000">package_group</text>
<text text-anchor="start" x="138.5437" y="-609.8" font-family="Helvetica,sans-Serif" font-size="11.00" fill="#000000">[table]</text>
<polygon fill="none" stroke="#000000" points="8.5,-579.7 8.5,-601.7 173.5,-601.7 173.5,-579.7 8.5,-579.7"/>
<image xlink:href="../../images/primaryKeys.png" width="11px" height="12px" preserveAspectRatio="xMinYMin meet" x="13.5" y="-596.7"/>
<text text-anchor="start" x="28.5" y="-586.8" font-family="Helvetica,sans-Serif" font-size="11.00" fill="#000000">id</text>
<polygon fill="none" stroke="#000000" points="8.5,-557.7 8.5,-579.7 173.5,-579.7 173.5,-557.7 8.5,-557.7"/>
<image xlink:href="../../images/foreignKeys.png" width="11px" height="12px" preserveAspectRatio="xMinYMin meet" x="13.5" y="-574.7"/>
<text text-anchor="start" x="28.5" y="-564.8" font-family="Helvetica,sans-Serif" font-size="11.00" fill="#000000">parent_id</text>
<polygon fill="none" stroke="#000000" points="8.5,-538.7 8.5,-557.7 173.5,-557.7 173.5,-538.7 8.5,-538.7"/>
<text text-anchor="start" x="11.5" y="-544.8" font-family="Helvetica,sans-Serif" font-size="11.00" fill="#000000">...</text>
<polygon fill="#ffffff" stroke="transparent" points="8.5,-519.7 8.5,-538.7 81.5,-538.7 81.5,-519.7 8.5,-519.7"/>
<polygon fill="none" stroke="#000000" points="8.5,-519.7 8.5,-538.7 81.5,-538.7 81.5,-519.7 8.5,-519.7"/>
<text text-anchor="start" x="11.5" y="-525.8" font-family="Helvetica,sans-Serif" font-size="11.00" fill="#000000">&lt; 1</text>
<polygon fill="#ffffff" stroke="transparent" points="81.5,-519.7 81.5,-538.7 119.5,-538.7 119.5,-519.7 81.5,-519.7"/>
<polygon fill="none" stroke="#000000" points="81.5,-519.7 81.5,-538.7 119.5,-538.7 119.5,-519.7 81.5,-519.7"/>
<text text-anchor="start" x="110.3862" y="-525.8" font-family="Helvetica,sans-Serif" font-size="11.00" fill="#000000"> &#160;</text>
<polygon fill="#ffffff" stroke="transparent" points="119.5,-519.7 119.5,-538.7 173.5,-538.7 173.5,-519.7 119.5,-519.7"/>
<polygon fill="none" stroke="#000000" points="119.5,-519.7 119.5,-538.7 173.5,-538.7 173.5,-519.7 119.5,-519.7"/>
<text text-anchor="start" x="148.7904" y="-525.8" font-family="Helvetica,sans-Serif" font-size="11.00" fill="#000000">15 &gt;</text>
</a>
</g>
</g>
<!-- activity_tracking&#45;&gt;package_group -->
<g id="edge1" class="edge">
<title>activity_tracking:w&#45;&gt;package_group:e</title>
<path fill="none" stroke="#000000" d="M258.5182,-1122.6814C237.6375,-1119.375 227.2825,-1107.8526 214,-1085.7 185.6224,-1038.3718 228.6838,-590.7 173.5,-590.7"/>
<polygon fill="#000000" stroke="#000000" points="265.0197,-1123.1387 272.7474,-1127.2911 269.0099,-1123.4193 273,-1123.7 273,-1123.7 273,-1123.7 269.0099,-1123.4193 273.2526,-1120.1089 265.0197,-1123.1387 265.0197,-1123.1387"/>
<ellipse fill="none" stroke="#000000" cx="261.8276" cy="-1122.9141" rx="3.2" ry="3.2"/>
</g>
<!-- build -->
<g id="node3" class="node">
<title>build</title>
<g id="a_node3"><a xlink:href="../../tables/build.html" xlink:title="build" target="_top">
<polygon fill="#ffffff" stroke="transparent" points="305.5,-1014.2 305.5,-1075.2 372.5,-1075.2 372.5,-1014.2 305.5,-1014.2"/>
<polygon fill="#f5f5f5" stroke="transparent" points="306,-1051.7 306,-1074.7 373,-1074.7 373,-1051.7 306,-1051.7"/>
<polygon fill="none" stroke="#000000" points="306,-1051.7 306,-1074.7 373,-1074.7 373,-1051.7 306,-1051.7"/>
<text text-anchor="start" x="311" y="-1060.3" font-family="Helvetica,sans-Serif" font-weight="bold" font-size="11.00" fill="#000000">build</text>
<text text-anchor="start" x="338.5219" y="-1059.8" font-family="Helvetica,sans-Serif" font-size="11.00" fill="#000000">[table]</text>
<polygon fill="none" stroke="#000000" points="306,-1032.7 306,-1051.7 373,-1051.7 373,-1032.7 306,-1032.7"/>
<text text-anchor="start" x="309" y="-1038.8" font-family="Helvetica,sans-Serif" font-size="11.00" fill="#000000">...</text>
<polygon fill="#ffffff" stroke="transparent" points="306,-1013.7 306,-1032.7 333,-1032.7 333,-1013.7 306,-1013.7"/>
<polygon fill="none" stroke="#000000" points="306,-1013.7 306,-1032.7 333,-1032.7 333,-1013.7 306,-1013.7"/>
<text text-anchor="start" x="309" y="-1019.8" font-family="Helvetica,sans-Serif" font-size="11.00" fill="#000000">&lt; 1</text>
<polygon fill="#ffffff" stroke="transparent" points="333,-1013.7 333,-1032.7 348,-1032.7 348,-1013.7 333,-1013.7"/>
<polygon fill="none" stroke="#000000" points="333,-1013.7 333,-1032.7 348,-1032.7 348,-1013.7 333,-1013.7"/>
<text text-anchor="start" x="338.8862" y="-1019.8" font-family="Helvetica,sans-Serif" font-size="11.00" fill="#000000"> &#160;</text>
<polygon fill="#ffffff" stroke="transparent" points="348,-1013.7 348,-1032.7 373,-1032.7 373,-1013.7 348,-1013.7"/>
<polygon fill="none" stroke="#000000" points="348,-1013.7 348,-1032.7 373,-1032.7 373,-1013.7 348,-1013.7"/>
<text text-anchor="start" x="354.4053" y="-1019.8" font-family="Helvetica,sans-Serif" font-size="11.00" fill="#000000">5 &gt;</text>
</a>
</g>
</g>
<!-- build&#45;&gt;package_group -->
<g id="edge2" class="edge">
<title>build:w&#45;&gt;package_group:e</title>
<path fill="none" stroke="#000000" d="M291.3434,-1041.5489C256.6774,-1040.6662 237.2742,-1035.0627 214,-1003.7 159.0445,-929.6456 265.718,-590.7 173.5,-590.7"/>
<polygon fill="#000000" stroke="#000000" points="298.0004,-1041.6175 305.9629,-1045.2998 302.0002,-1041.6587 306,-1041.7 306,-1041.7 306,-1041.7 302.0002,-1041.6587 306.0371,-1038.1002 298.0004,-1041.6175 298.0004,-1041.6175"/>
<ellipse fill="none" stroke="#000000" cx="294.8006" cy="-1041.5844" rx="3.2" ry="3.2"/>
</g>
<!-- favorite_packages -->
<g id="node4" class="node">
<title>favorite_packages</title>
<g id="a_node4"><a xlink:href="../../tables/favorite_packages.html" xlink:title="favorite_packages" target="_top">
<polygon fill="#ffffff" stroke="transparent" points="267.5,-932.2 267.5,-993.2 410.5,-993.2 410.5,-932.2 267.5,-932.2"/>
<polygon fill="#f5f5f5" stroke="transparent" points="268,-969.7 268,-992.7 411,-992.7 411,-969.7 268,-969.7"/>
<polygon fill="none" stroke="#000000" points="268,-969.7 268,-992.7 411,-992.7 411,-969.7 268,-969.7"/>
<text text-anchor="start" x="273" y="-978.3" font-family="Helvetica,sans-Serif" font-weight="bold" font-size="11.00" fill="#000000">favorite_packages</text>
<text text-anchor="start" x="376.5219" y="-977.8" font-family="Helvetica,sans-Serif" font-size="11.00" fill="#000000">[table]</text>
<polygon fill="none" stroke="#000000" points="268,-950.7 268,-969.7 411,-969.7 411,-950.7 268,-950.7"/>
<text text-anchor="start" x="271" y="-956.8" font-family="Helvetica,sans-Serif" font-size="11.00" fill="#000000">...</text>
<polygon fill="#ffffff" stroke="transparent" points="268,-931.7 268,-950.7 338,-950.7 338,-931.7 268,-931.7"/>
<polygon fill="none" stroke="#000000" points="268,-931.7 268,-950.7 338,-950.7 338,-931.7 268,-931.7"/>
<text text-anchor="start" x="271" y="-937.8" font-family="Helvetica,sans-Serif" font-size="11.00" fill="#000000">&lt; 2</text>
<polygon fill="#ffffff" stroke="transparent" points="338,-931.7 338,-950.7 374,-950.7 374,-931.7 338,-931.7"/>
<polygon fill="none" stroke="#000000" points="338,-931.7 338,-950.7 374,-950.7 374,-931.7 338,-931.7"/>
<text text-anchor="start" x="364.8862" y="-937.8" font-family="Helvetica,sans-Serif" font-size="11.00" fill="#000000"> &#160;</text>
<polygon fill="#ffffff" stroke="transparent" points="374,-931.7 374,-950.7 411,-950.7 411,-931.7 374,-931.7"/>
<polygon fill="none" stroke="#000000" points="374,-931.7 374,-950.7 411,-950.7 411,-931.7 374,-931.7"/>
<text text-anchor="start" x="401.8862" y="-937.8" font-family="Helvetica,sans-Serif" font-size="11.00" fill="#000000"> &#160;</text>
</a>
</g>
</g>
<!-- favorite_packages&#45;&gt;package_group -->
<g id="edge3" class="edge">
<title>favorite_packages:w&#45;&gt;package_group:e</title>
<path fill="none" stroke="#000000" d="M253.4113,-958.3506C234.8696,-954.4567 226.2525,-942.1555 214,-921.7 175.9214,-858.1277 247.6041,-590.7 173.5,-590.7"/>
<polygon fill="#000000" stroke="#000000" points="260.034,-958.9631 267.6684,-963.2847 264.017,-959.3316 268,-959.7 268,-959.7 268,-959.7 264.017,-959.3316 268.3316,-956.1153 260.034,-958.9631 260.034,-958.9631"/>
<ellipse fill="none" stroke="#000000" cx="256.8476" cy="-958.6684" rx="3.2" ry="3.2"/>
</g>
<!-- migrated_version -->
<g id="node5" class="node">
<title>migrated_version</title>
<g id="a_node5"><a xlink:href="../../tables/migrated_version.html" xlink:title="migrated_version" target="_top">
<polygon fill="#ffffff" stroke="transparent" points="269.5,-850.2 269.5,-911.2 408.5,-911.2 408.5,-850.2 269.5,-850.2"/>
<polygon fill="#f5f5f5" stroke="transparent" points="270,-887.7 270,-910.7 409,-910.7 409,-887.7 270,-887.7"/>
<polygon fill="none" stroke="#000000" points="270,-887.7 270,-910.7 409,-910.7 409,-887.7 270,-887.7"/>
<text text-anchor="start" x="275" y="-896.3" font-family="Helvetica,sans-Serif" font-weight="bold" font-size="11.00" fill="#000000">migrated_version</text>
<text text-anchor="start" x="374.5219" y="-895.8" font-family="Helvetica,sans-Serif" font-size="11.00" fill="#000000">[table]</text>
<polygon fill="none" stroke="#000000" points="270,-868.7 270,-887.7 409,-887.7 409,-868.7 270,-868.7"/>
<text text-anchor="start" x="273" y="-874.8" font-family="Helvetica,sans-Serif" font-size="11.00" fill="#000000">...</text>
<polygon fill="#ffffff" stroke="transparent" points="270,-849.7 270,-868.7 338,-868.7 338,-849.7 270,-849.7"/>
<polygon fill="none" stroke="#000000" points="270,-849.7 270,-868.7 338,-868.7 338,-849.7 270,-849.7"/>
<text text-anchor="start" x="273" y="-855.8" font-family="Helvetica,sans-Serif" font-size="11.00" fill="#000000">&lt; 1</text>
<polygon fill="#ffffff" stroke="transparent" points="338,-849.7 338,-868.7 373,-868.7 373,-849.7 338,-849.7"/>
<polygon fill="none" stroke="#000000" points="338,-849.7 338,-868.7 373,-868.7 373,-849.7 338,-849.7"/>
<text text-anchor="start" x="363.8862" y="-855.8" font-family="Helvetica,sans-Serif" font-size="11.00" fill="#000000"> &#160;</text>
<polygon fill="#ffffff" stroke="transparent" points="373,-849.7 373,-868.7 409,-868.7 409,-849.7 373,-849.7"/>
<polygon fill="none" stroke="#000000" points="373,-849.7 373,-868.7 409,-868.7 409,-849.7 373,-849.7"/>
<text text-anchor="start" x="399.8862" y="-855.8" font-family="Helvetica,sans-Serif" font-size="11.00" fill="#000000"> &#160;</text>
</a>
</g>
</g>
<!-- migrated_version&#45;&gt;package_group -->
<g id="edge4" class="edge">
<title>migrated_version:w&#45;&gt;package_group:e</title>
<path fill="none" stroke="#000000" d="M255.6004,-876.4749C236.2126,-872.7458 227.2713,-860.5003 214,-839.7 183.8463,-792.4397 229.5605,-590.7 173.5,-590.7"/>
<polygon fill="#000000" stroke="#000000" points="262.0288,-877.0218 269.6948,-881.287 266.0144,-877.3609 270,-877.7 270,-877.7 270,-877.7 266.0144,-877.3609 270.3052,-874.113 262.0288,-877.0218 262.0288,-877.0218"/>
<ellipse fill="none" stroke="#000000" cx="258.8403" cy="-876.7505" rx="3.2" ry="3.2"/>
</g>
<!-- operation_open_count -->
<g id="node6" class="node">
<title>operation_open_count</title>
<g id="a_node6"><a xlink:href="../../tables/operation_open_count.html" xlink:title="operation_open_count" target="_top">
<polygon fill="#ffffff" stroke="transparent" points="255,-768.2 255,-829.2 423,-829.2 423,-768.2 255,-768.2"/>
<polygon fill="#f5f5f5" stroke="transparent" points="255,-805.7 255,-828.7 423,-828.7 423,-805.7 255,-805.7"/>
<polygon fill="none" stroke="#000000" points="255,-805.7 255,-828.7 423,-828.7 423,-805.7 255,-805.7"/>
<text text-anchor="start" x="260" y="-814.3" font-family="Helvetica,sans-Serif" font-weight="bold" font-size="11.00" fill="#000000">operation_open_count</text>
<text text-anchor="start" x="388.5219" y="-813.8" font-family="Helvetica,sans-Serif" font-size="11.00" fill="#000000">[table]</text>
<polygon fill="none" stroke="#000000" points="255,-786.7 255,-805.7 423,-805.7 423,-786.7 255,-786.7"/>
<text text-anchor="start" x="258" y="-792.8" font-family="Helvetica,sans-Serif" font-size="11.00" fill="#000000">...</text>
<polygon fill="#ffffff" stroke="transparent" points="255,-767.7 255,-786.7 337,-786.7 337,-767.7 255,-767.7"/>
<polygon fill="none" stroke="#000000" points="255,-767.7 255,-786.7 337,-786.7 337,-767.7 255,-767.7"/>
<text text-anchor="start" x="258" y="-773.8" font-family="Helvetica,sans-Serif" font-size="11.00" fill="#000000">&lt; 1</text>
<polygon fill="#ffffff" stroke="transparent" points="337,-767.7 337,-786.7 380,-786.7 380,-767.7 337,-767.7"/>
<polygon fill="none" stroke="#000000" points="337,-767.7 337,-786.7 380,-786.7 380,-767.7 337,-767.7"/>
<text text-anchor="start" x="370.8862" y="-773.8" font-family="Helvetica,sans-Serif" font-size="11.00" fill="#000000"> &#160;</text>
<polygon fill="#ffffff" stroke="transparent" points="380,-767.7 380,-786.7 423,-786.7 423,-767.7 380,-767.7"/>
<polygon fill="none" stroke="#000000" points="380,-767.7 380,-786.7 423,-786.7 423,-767.7 380,-767.7"/>
<text text-anchor="start" x="413.8862" y="-773.8" font-family="Helvetica,sans-Serif" font-size="11.00" fill="#000000"> &#160;</text>
</a>
</g>
</g>
<!-- operation_open_count&#45;&gt;package_group -->
<g id="edge5" class="edge">
<title>operation_open_count:w&#45;&gt;package_group:e</title>
<path fill="none" stroke="#000000" d="M240.6454,-793.1199C227.9822,-787.6653 223.6268,-774.1063 214,-757.7 175.3485,-691.8289 249.8737,-590.7 173.5,-590.7"/>
<polygon fill="#000000" stroke="#000000" points="247.1262,-794.2847 254.3631,-799.2432 251.0631,-794.9924 255,-795.7 255,-795.7 255,-795.7 251.0631,-794.9924 255.6369,-792.1568 247.1262,-794.2847 247.1262,-794.2847"/>
<ellipse fill="none" stroke="#000000" cx="243.9766" cy="-793.7186" rx="3.2" ry="3.2"/>
</g>
<!-- package_export_config -->
<g id="node7" class="node">
<title>package_export_config</title>
<g id="a_node7"><a xlink:href="../../tables/package_export_config.html" xlink:title="package_export_config" target="_top">
<polygon fill="#ffffff" stroke="transparent" points="252.5,-686.2 252.5,-747.2 425.5,-747.2 425.5,-686.2 252.5,-686.2"/>
<polygon fill="#f5f5f5" stroke="transparent" points="253,-723.7 253,-746.7 426,-746.7 426,-723.7 253,-723.7"/>
<polygon fill="none" stroke="#000000" points="253,-723.7 253,-746.7 426,-746.7 426,-723.7 253,-723.7"/>
<text text-anchor="start" x="258" y="-732.3" font-family="Helvetica,sans-Serif" font-weight="bold" font-size="11.00" fill="#000000">package_export_config</text>
<text text-anchor="start" x="391.5219" y="-731.8" font-family="Helvetica,sans-Serif" font-size="11.00" fill="#000000">[table]</text>
<polygon fill="none" stroke="#000000" points="253,-704.7 253,-723.7 426,-723.7 426,-704.7 253,-704.7"/>
<text text-anchor="start" x="256" y="-710.8" font-family="Helvetica,sans-Serif" font-size="11.00" fill="#000000">...</text>
<polygon fill="#ffffff" stroke="transparent" points="253,-685.7 253,-704.7 338,-704.7 338,-685.7 253,-685.7"/>
<polygon fill="none" stroke="#000000" points="253,-685.7 253,-704.7 338,-704.7 338,-685.7 253,-685.7"/>
<text text-anchor="start" x="256" y="-691.8" font-family="Helvetica,sans-Serif" font-size="11.00" fill="#000000">&lt; 1</text>
<polygon fill="#ffffff" stroke="transparent" points="338,-685.7 338,-704.7 382,-704.7 382,-685.7 338,-685.7"/>
<polygon fill="none" stroke="#000000" points="338,-685.7 338,-704.7 382,-704.7 382,-685.7 338,-685.7"/>
<text text-anchor="start" x="372.8862" y="-691.8" font-family="Helvetica,sans-Serif" font-size="11.00" fill="#000000"> &#160;</text>
<polygon fill="#ffffff" stroke="transparent" points="382,-685.7 382,-704.7 426,-704.7 426,-685.7 382,-685.7"/>
<polygon fill="none" stroke="#000000" points="382,-685.7 382,-704.7 426,-704.7 426,-685.7 382,-685.7"/>
<text text-anchor="start" x="416.8862" y="-691.8" font-family="Helvetica,sans-Serif" font-size="11.00" fill="#000000"> &#160;</text>
</a>
</g>
</g>
<!-- package_export_config&#45;&gt;package_group -->
<g id="edge6" class="edge">
<title>package_export_config:w&#45;&gt;package_group:e</title>
<path fill="none" stroke="#000000" d="M242.4162,-712.1622C228.1605,-707.361 225.6694,-691.9935 214,-675.7 189.6339,-641.6786 215.3469,-590.7 173.5,-590.7"/>
<polygon fill="#000000" stroke="#000000" points="252.7835,-709.6265 251.6331,-717.5434 250.0497,-717.3133 251.2001,-709.3965 252.7835,-709.6265"/>
<polyline fill="none" stroke="#000000" points="253,-713.7 249.0416,-713.1248 "/>
<ellipse fill="none" stroke="#000000" cx="245.8748" cy="-712.6647" rx="3.2" ry="3.2"/>
</g>
<!-- package_member_role -->
<g id="node8" class="node">
<title>package_member_role</title>
<g id="a_node8"><a xlink:href="../../tables/package_member_role.html" xlink:title="package_member_role" target="_top">
<polygon fill="#ffffff" stroke="transparent" points="254.5,-604.2 254.5,-665.2 423.5,-665.2 423.5,-604.2 254.5,-604.2"/>
<polygon fill="#f5f5f5" stroke="transparent" points="255,-641.7 255,-664.7 424,-664.7 424,-641.7 255,-641.7"/>
<polygon fill="none" stroke="#000000" points="255,-641.7 255,-664.7 424,-664.7 424,-641.7 255,-641.7"/>
<text text-anchor="start" x="260" y="-650.3" font-family="Helvetica,sans-Serif" font-weight="bold" font-size="11.00" fill="#000000">package_member_role</text>
<text text-anchor="start" x="389.5219" y="-649.8" font-family="Helvetica,sans-Serif" font-size="11.00" fill="#000000">[table]</text>
<polygon fill="none" stroke="#000000" points="255,-622.7 255,-641.7 424,-641.7 424,-622.7 255,-622.7"/>
<text text-anchor="start" x="258" y="-628.8" font-family="Helvetica,sans-Serif" font-size="11.00" fill="#000000">...</text>
<polygon fill="#ffffff" stroke="transparent" points="255,-603.7 255,-622.7 338,-622.7 338,-603.7 255,-603.7"/>
<polygon fill="none" stroke="#000000" points="255,-603.7 255,-622.7 338,-622.7 338,-603.7 255,-603.7"/>
<text text-anchor="start" x="258" y="-609.8" font-family="Helvetica,sans-Serif" font-size="11.00" fill="#000000">&lt; 1</text>
<polygon fill="#ffffff" stroke="transparent" points="338,-603.7 338,-622.7 381,-622.7 381,-603.7 338,-603.7"/>
<polygon fill="none" stroke="#000000" points="338,-603.7 338,-622.7 381,-622.7 381,-603.7 338,-603.7"/>
<text text-anchor="start" x="371.8862" y="-609.8" font-family="Helvetica,sans-Serif" font-size="11.00" fill="#000000"> &#160;</text>
<polygon fill="#ffffff" stroke="transparent" points="381,-603.7 381,-622.7 424,-622.7 424,-603.7 381,-603.7"/>
<polygon fill="none" stroke="#000000" points="381,-603.7 381,-622.7 424,-622.7 424,-603.7 381,-603.7"/>
<text text-anchor="start" x="414.8862" y="-609.8" font-family="Helvetica,sans-Serif" font-size="11.00" fill="#000000"> &#160;</text>
</a>
</g>
</g>
<!-- package_member_role&#45;&gt;package_group -->
<g id="edge7" class="edge">
<title>package_member_role:w&#45;&gt;package_group:e</title>
<path fill="none" stroke="#000000" d="M240.4151,-629.6104C213.5914,-621.2554 208.5039,-590.7 173.5,-590.7"/>
<polygon fill="#000000" stroke="#000000" points="247.0809,-630.5654 254.4894,-635.2636 251.0404,-631.1327 255,-631.7 255,-631.7 255,-631.7 251.0404,-631.1327 255.5106,-628.1364 247.0809,-630.5654 247.0809,-630.5654"/>
<ellipse fill="none" stroke="#000000" cx="243.9132" cy="-630.1115" rx="3.2" ry="3.2"/>
</g>
<!-- package_service -->
<g id="node9" class="node">
<title>package_service</title>
<g id="a_node9"><a xlink:href="../../tables/package_service.html" xlink:title="package_service" target="_top">
<polygon fill="#ffffff" stroke="transparent" points="271.5,-522.2 271.5,-583.2 406.5,-583.2 406.5,-522.2 271.5,-522.2"/>
<polygon fill="#f5f5f5" stroke="transparent" points="272,-559.7 272,-582.7 407,-582.7 407,-559.7 272,-559.7"/>
<polygon fill="none" stroke="#000000" points="272,-559.7 272,-582.7 407,-582.7 407,-559.7 272,-559.7"/>
<text text-anchor="start" x="277" y="-568.3" font-family="Helvetica,sans-Serif" font-weight="bold" font-size="11.00" fill="#000000">package_service</text>
<text text-anchor="start" x="372.5219" y="-567.8" font-family="Helvetica,sans-Serif" font-size="11.00" fill="#000000">[table]</text>
<polygon fill="none" stroke="#000000" points="272,-540.7 272,-559.7 407,-559.7 407,-540.7 272,-540.7"/>
<text text-anchor="start" x="275" y="-546.8" font-family="Helvetica,sans-Serif" font-size="11.00" fill="#000000">...</text>
<polygon fill="#ffffff" stroke="transparent" points="272,-521.7 272,-540.7 338,-540.7 338,-521.7 272,-521.7"/>
<polygon fill="none" stroke="#000000" points="272,-521.7 272,-540.7 338,-540.7 338,-521.7 272,-521.7"/>
<text text-anchor="start" x="275" y="-527.8" font-family="Helvetica,sans-Serif" font-size="11.00" fill="#000000">&lt; 2</text>
<polygon fill="#ffffff" stroke="transparent" points="338,-521.7 338,-540.7 372,-540.7 372,-521.7 338,-521.7"/>
<polygon fill="none" stroke="#000000" points="338,-521.7 338,-540.7 372,-540.7 372,-521.7 338,-521.7"/>
<text text-anchor="start" x="362.8862" y="-527.8" font-family="Helvetica,sans-Serif" font-size="11.00" fill="#000000"> &#160;</text>
<polygon fill="#ffffff" stroke="transparent" points="372,-521.7 372,-540.7 407,-540.7 407,-521.7 372,-521.7"/>
<polygon fill="none" stroke="#000000" points="372,-521.7 372,-540.7 407,-540.7 407,-521.7 372,-521.7"/>
<text text-anchor="start" x="397.8862" y="-527.8" font-family="Helvetica,sans-Serif" font-size="11.00" fill="#000000"> &#160;</text>
</a>
</g>
</g>
<!-- package_service&#45;&gt;package_group -->
<g id="edge8" class="edge">
<title>package_service:w&#45;&gt;package_group:e</title>
<path fill="none" stroke="#000000" d="M257.4423,-549.3511C223.1899,-552.5399 215.5471,-585.3797 173.5,-590.7"/>
<polygon fill="#000000" stroke="#000000" points="264.0023,-549.5083 271.9137,-553.299 268.0011,-549.6041 272,-549.7 272,-549.7 272,-549.7 268.0011,-549.6041 272.0863,-546.101 264.0023,-549.5083 264.0023,-549.5083"/>
<ellipse fill="none" stroke="#000000" cx="260.8032" cy="-549.4316" rx="3.2" ry="3.2"/>
</g>
<!-- package_service&#45;&gt;package_group -->
<g id="edge9" class="edge">
<title>package_service:w&#45;&gt;package_group:e</title>
<path fill="none" stroke="#000000" d="M257.8966,-553.1098C223.2566,-565.0945 215.7324,-596.9344 173.5,-590.7"/>
<polygon fill="#000000" stroke="#000000" points="264.224,-551.58 272.846,-553.1992 268.112,-550.64 272,-549.7 272,-549.7 272,-549.7 268.112,-550.64 271.154,-546.2008 264.224,-551.58 264.224,-551.58"/>
<ellipse fill="none" stroke="#000000" cx="261.1136" cy="-552.3321" rx="3.2" ry="3.2"/>
</g>
<!-- published_data -->
<g id="node10" class="node">
<title>published_data</title>
<g id="a_node10"><a xlink:href="../../tables/published_data.html" xlink:title="published_data" target="_top">
<polygon fill="#ffffff" stroke="transparent" points="228,-202.7 228,-336.7 450,-336.7 450,-202.7 228,-202.7"/>
<polygon fill="#f5f5f5" stroke="transparent" points="230,-311.7 230,-334.7 448,-334.7 448,-311.7 230,-311.7"/>
<polygon fill="none" stroke="#000000" points="230,-311.7 230,-334.7 448,-334.7 448,-311.7 230,-311.7"/>
<text text-anchor="start" x="235" y="-320.3" font-family="Helvetica,sans-Serif" font-weight="bold" font-size="11.00" fill="#000000">published_data</text>
<text text-anchor="start" x="413.0437" y="-319.8" font-family="Helvetica,sans-Serif" font-size="11.00" fill="#000000">[table]</text>
<polygon fill="none" stroke="#000000" points="230,-289.7 230,-311.7 339,-311.7 339,-289.7 230,-289.7"/>
<image xlink:href="../../images/primaryKeys.png" width="11px" height="12px" preserveAspectRatio="xMinYMin meet" x="235" y="-306.7"/>
<text text-anchor="start" x="250" y="-296.8" font-family="Helvetica,sans-Serif" font-size="11.00" fill="#000000">package_id</text>
<polygon fill="none" stroke="#000000" points="339,-289.7 339,-311.7 448,-311.7 448,-289.7 339,-289.7"/>
<text text-anchor="start" x="341.5344" y="-297.4" font-family="Helvetica,sans-Serif" font-size="11.00" fill="#000000">varchar[2147483647]</text>
<polygon fill="none" stroke="#000000" points="230,-267.7 230,-289.7 339,-289.7 339,-267.7 230,-267.7"/>
<image xlink:href="../../images/primaryKeys.png" width="11px" height="12px" preserveAspectRatio="xMinYMin meet" x="235" y="-284.7"/>
<text text-anchor="start" x="250" y="-274.8" font-family="Helvetica,sans-Serif" font-size="11.00" fill="#000000">checksum</text>
<polygon fill="none" stroke="#000000" points="339,-267.7 339,-289.7 448,-289.7 448,-267.7 339,-267.7"/>
<text text-anchor="start" x="341.5344" y="-275.4" font-family="Helvetica,sans-Serif" font-size="11.00" fill="#000000">varchar[2147483647]</text>
<polygon fill="none" stroke="#000000" points="230,-245.7 230,-267.7 339,-267.7 339,-245.7 230,-245.7"/>
<text text-anchor="start" x="250" y="-252.8" font-family="Helvetica,sans-Serif" font-size="11.00" fill="#000000">media_type</text>
<polygon fill="none" stroke="#000000" points="339,-245.7 339,-267.7 448,-267.7 448,-245.7 339,-245.7"/>
<text text-anchor="start" x="341.5344" y="-253.4" font-family="Helvetica,sans-Serif" font-size="11.00" fill="#000000">varchar[2147483647]</text>
<polygon fill="none" stroke="#000000" points="230,-223.7 230,-245.7 339,-245.7 339,-223.7 230,-223.7"/>
<text text-anchor="start" x="250" y="-230.8" font-family="Helvetica,sans-Serif" font-size="11.00" fill="#000000">data</text>
<polygon fill="none" stroke="#000000" points="339,-223.7 339,-245.7 448,-245.7 448,-223.7 339,-223.7"/>
<text text-anchor="start" x="342" y="-231.4" font-family="Helvetica,sans-Serif" font-size="11.00" fill="#000000">bytea[2147483647]</text>
<polygon fill="#ffffff" stroke="transparent" points="230,-204.7 230,-223.7 289,-223.7 289,-204.7 230,-204.7"/>
<polygon fill="none" stroke="#000000" points="230,-204.7 230,-223.7 289,-223.7 289,-204.7 230,-204.7"/>
<text text-anchor="start" x="233" y="-210.8" font-family="Helvetica,sans-Serif" font-size="11.00" fill="#000000">&lt; 1</text>
<polygon fill="#ffffff" stroke="transparent" points="289,-204.7 289,-223.7 339,-223.7 339,-204.7 289,-204.7"/>
<polygon fill="none" stroke="#000000" points="289,-204.7 289,-223.7 339,-223.7 339,-204.7 289,-204.7"/>
<text text-anchor="start" x="329.8862" y="-210.8" font-family="Helvetica,sans-Serif" font-size="11.00" fill="#000000"> &#160;</text>
<polygon fill="#ffffff" stroke="transparent" points="339,-204.7 339,-223.7 448,-223.7 448,-204.7 339,-204.7"/>
<polygon fill="none" stroke="#000000" points="339,-204.7 339,-223.7 448,-223.7 448,-204.7 339,-204.7"/>
<text text-anchor="start" x="429.4053" y="-210.8" font-family="Helvetica,sans-Serif" font-size="11.00" fill="#000000">2 &gt;</text>
<polygon fill="none" stroke="#000000" stroke-width="2" points="229,-203.7 229,-335.7 449,-335.7 449,-203.7 229,-203.7"/>
</a>
</g>
</g>
<!-- published_data&#45;&gt;package_group -->
<g id="edge10" class="edge">
<title>published_data:w&#45;&gt;package_group:e</title>
<path fill="none" stroke="#000000" d="M216.523,-306.2342C175.6725,-346.3267 233.7703,-590.7 173.5,-590.7"/>
<polygon fill="#000000" stroke="#000000" points="222.5996,-303.7389 231.3675,-304.0302 226.2998,-302.2195 230,-300.7 230,-300.7 230,-300.7 226.2998,-302.2195 228.6325,-297.3698 222.5996,-303.7389 222.5996,-303.7389"/>
<ellipse fill="none" stroke="#000000" cx="219.6395" cy="-304.9545" rx="3.2" ry="3.2"/>
</g>
<!-- published_document_open_count -->
<g id="node11" class="node">
<title>published_document_open_count</title>
<g id="a_node11"><a xlink:href="../../tables/published_document_open_count.html" xlink:title="published_document_open_count" target="_top">
<polygon fill="#ffffff" stroke="transparent" points="222,-358.2 222,-419.2 456,-419.2 456,-358.2 222,-358.2"/>
<polygon fill="#f5f5f5" stroke="transparent" points="222,-395.7 222,-418.7 456,-418.7 456,-395.7 222,-395.7"/>
<polygon fill="none" stroke="#000000" points="222,-395.7 222,-418.7 456,-418.7 456,-395.7 222,-395.7"/>
<text text-anchor="start" x="227" y="-404.3" font-family="Helvetica,sans-Serif" font-weight="bold" font-size="11.00" fill="#000000">published_document_open_count</text>
<text text-anchor="start" x="421.5219" y="-403.8" font-family="Helvetica,sans-Serif" font-size="11.00" fill="#000000">[table]</text>
<polygon fill="none" stroke="#000000" points="222,-376.7 222,-395.7 456,-395.7 456,-376.7 222,-376.7"/>
<text text-anchor="start" x="225" y="-382.8" font-family="Helvetica,sans-Serif" font-size="11.00" fill="#000000">...</text>
<polygon fill="#ffffff" stroke="transparent" points="222,-357.7 222,-376.7 337,-376.7 337,-357.7 222,-357.7"/>
<polygon fill="none" stroke="#000000" points="222,-357.7 222,-376.7 337,-376.7 337,-357.7 222,-357.7"/>
<text text-anchor="start" x="225" y="-363.8" font-family="Helvetica,sans-Serif" font-size="11.00" fill="#000000">&lt; 1</text>
<polygon fill="#ffffff" stroke="transparent" points="337,-357.7 337,-376.7 396,-376.7 396,-357.7 337,-357.7"/>
<polygon fill="none" stroke="#000000" points="337,-357.7 337,-376.7 396,-376.7 396,-357.7 337,-357.7"/>
<text text-anchor="start" x="386.8862" y="-363.8" font-family="Helvetica,sans-Serif" font-size="11.00" fill="#000000"> &#160;</text>
<polygon fill="#ffffff" stroke="transparent" points="396,-357.7 396,-376.7 456,-376.7 456,-357.7 396,-357.7"/>
<polygon fill="none" stroke="#000000" points="396,-357.7 396,-376.7 456,-376.7 456,-357.7 396,-357.7"/>
<text text-anchor="start" x="446.8862" y="-363.8" font-family="Helvetica,sans-Serif" font-size="11.00" fill="#000000"> &#160;</text>
</a>
</g>
</g>
<!-- published_document_open_count&#45;&gt;package_group -->
<g id="edge11" class="edge">
<title>published_document_open_count:w&#45;&gt;package_group:e</title>
<path fill="none" stroke="#000000" d="M207.4462,-387.8635C144.3239,-409.7727 261.4575,-590.7 173.5,-590.7"/>
<polygon fill="#000000" stroke="#000000" points="214.087,-386.8764 222.5294,-389.2609 218.0435,-386.2882 222,-385.7 222,-385.7 222,-385.7 218.0435,-386.2882 221.4706,-382.1391 214.087,-386.8764 214.087,-386.8764"/>
<ellipse fill="none" stroke="#000000" cx="210.9217" cy="-387.3469" rx="3.2" ry="3.2"/>
</g>
<!-- published_version -->
<g id="node12" class="node">
<title>published_version</title>
<g id="a_node12"><a xlink:href="../../tables/published_version.html" xlink:title="published_version" target="_top">
<polygon fill="#ffffff" stroke="transparent" points="266.5,-440.2 266.5,-501.2 411.5,-501.2 411.5,-440.2 266.5,-440.2"/>
<polygon fill="#f5f5f5" stroke="transparent" points="267,-477.7 267,-500.7 412,-500.7 412,-477.7 267,-477.7"/>
<polygon fill="none" stroke="#000000" points="267,-477.7 267,-500.7 412,-500.7 412,-477.7 267,-477.7"/>
<text text-anchor="start" x="272" y="-486.3" font-family="Helvetica,sans-Serif" font-weight="bold" font-size="11.00" fill="#000000">published_version</text>
<text text-anchor="start" x="377.5219" y="-485.8" font-family="Helvetica,sans-Serif" font-size="11.00" fill="#000000">[table]</text>
<polygon fill="none" stroke="#000000" points="267,-458.7 267,-477.7 412,-477.7 412,-458.7 267,-458.7"/>
<text text-anchor="start" x="270" y="-464.8" font-family="Helvetica,sans-Serif" font-size="11.00" fill="#000000">...</text>
<polygon fill="#ffffff" stroke="transparent" points="267,-439.7 267,-458.7 330,-458.7 330,-439.7 267,-439.7"/>
<polygon fill="none" stroke="#000000" points="267,-439.7 267,-458.7 330,-458.7 330,-439.7 267,-439.7"/>
<text text-anchor="start" x="270" y="-445.8" font-family="Helvetica,sans-Serif" font-size="11.00" fill="#000000">&lt; 1</text>
<polygon fill="#ffffff" stroke="transparent" points="330,-439.7 330,-458.7 363,-458.7 363,-439.7 330,-439.7"/>
<polygon fill="none" stroke="#000000" points="330,-439.7 330,-458.7 363,-458.7 363,-439.7 330,-439.7"/>
<text text-anchor="start" x="353.8862" y="-445.8" font-family="Helvetica,sans-Serif" font-size="11.00" fill="#000000"> &#160;</text>
<polygon fill="#ffffff" stroke="transparent" points="363,-439.7 363,-458.7 412,-458.7 412,-439.7 363,-439.7"/>
<polygon fill="none" stroke="#000000" points="363,-439.7 363,-458.7 412,-458.7 412,-439.7 363,-439.7"/>
<text text-anchor="start" x="387.2904" y="-445.8" font-family="Helvetica,sans-Serif" font-size="11.00" fill="#000000">18 &gt;</text>
</a>
</g>
</g>
<!-- published_version&#45;&gt;package_group -->
<g id="edge12" class="edge">
<title>published_version:w&#45;&gt;package_group:e</title>
<path fill="none" stroke="#000000" d="M252.6386,-469.6328C234.6609,-475.2128 229.6349,-492.1995 214,-511.7 189.3187,-542.4835 212.9562,-590.7 173.5,-590.7"/>
<polygon fill="#000000" stroke="#000000" points="259.0715,-468.7671 267.4802,-471.2678 263.0357,-468.2336 267,-467.7 267,-467.7 267,-467.7 263.0357,-468.2336 266.5198,-464.1322 259.0715,-468.7671 259.0715,-468.7671"/>
<ellipse fill="none" stroke="#000000" cx="255.9001" cy="-469.1939" rx="3.2" ry="3.2"/>
</g>
<!-- published_version_open_count -->
<g id="node13" class="node">
<title>published_version_open_count</title>
<g id="a_node13"><a xlink:href="../../tables/published_version_open_count.html" xlink:title="published_version_open_count" target="_top">
<polygon fill="#ffffff" stroke="transparent" points="229.5,-120.2 229.5,-181.2 448.5,-181.2 448.5,-120.2 229.5,-120.2"/>
<polygon fill="#f5f5f5" stroke="transparent" points="230,-157.7 230,-180.7 449,-180.7 449,-157.7 230,-157.7"/>
<polygon fill="none" stroke="#000000" points="230,-157.7 230,-180.7 449,-180.7 449,-157.7 230,-157.7"/>
<text text-anchor="start" x="235" y="-166.3" font-family="Helvetica,sans-Serif" font-weight="bold" font-size="11.00" fill="#000000">published_version_open_count</text>
<text text-anchor="start" x="414.5219" y="-165.8" font-family="Helvetica,sans-Serif" font-size="11.00" fill="#000000">[table]</text>
<polygon fill="none" stroke="#000000" points="230,-138.7 230,-157.7 449,-157.7 449,-138.7 230,-138.7"/>
<text text-anchor="start" x="233" y="-144.8" font-family="Helvetica,sans-Serif" font-size="11.00" fill="#000000">...</text>
<polygon fill="#ffffff" stroke="transparent" points="230,-119.7 230,-138.7 338,-138.7 338,-119.7 230,-119.7"/>
<polygon fill="none" stroke="#000000" points="230,-119.7 230,-138.7 338,-138.7 338,-119.7 230,-119.7"/>
<text text-anchor="start" x="233" y="-125.8" font-family="Helvetica,sans-Serif" font-size="11.00" fill="#000000">&lt; 1</text>
<polygon fill="#ffffff" stroke="transparent" points="338,-119.7 338,-138.7 393,-138.7 393,-119.7 338,-119.7"/>
<polygon fill="none" stroke="#000000" points="338,-119.7 338,-138.7 393,-138.7 393,-119.7 338,-119.7"/>
<text text-anchor="start" x="383.8862" y="-125.8" font-family="Helvetica,sans-Serif" font-size="11.00" fill="#000000"> &#160;</text>
<polygon fill="#ffffff" stroke="transparent" points="393,-119.7 393,-138.7 449,-138.7 449,-119.7 393,-119.7"/>
<polygon fill="none" stroke="#000000" points="393,-119.7 393,-138.7 449,-138.7 449,-119.7 393,-119.7"/>
<text text-anchor="start" x="439.8862" y="-125.8" font-family="Helvetica,sans-Serif" font-size="11.00" fill="#000000"> &#160;</text>
</a>
</g>
</g>
<!-- published_version_open_count&#45;&gt;package_group -->
<g id="edge13" class="edge">
<title>published_version_open_count:w&#45;&gt;package_group:e</title>
<path fill="none" stroke="#000000" d="M215.8035,-151.5298C145.5662,-194.8282 267.3146,-590.7 173.5,-590.7"/>
<polygon fill="#000000" stroke="#000000" points="222.2761,-149.7837 230.9377,-151.1757 226.1381,-148.7419 230,-147.7 230,-147.7 230,-147.7 226.1381,-148.7419 229.0623,-144.2243 222.2761,-149.7837 222.2761,-149.7837"/>
<ellipse fill="none" stroke="#000000" cx="219.1866" cy="-150.6172" rx="3.2" ry="3.2"/>
</g>
<!-- published_version_revision_content -->
<g id="node14" class="node">
<title>published_version_revision_content</title>
<g id="a_node14"><a xlink:href="../../tables/published_version_revision_content.html" xlink:title="published_version_revision_content" target="_top">
<polygon fill="#ffffff" stroke="transparent" points="505,-331.2 505,-502.2 752,-502.2 752,-331.2 505,-331.2"/>
<polygon fill="#f5f5f5" stroke="transparent" points="505.5,-478.7 505.5,-501.7 752.5,-501.7 752.5,-478.7 505.5,-478.7"/>
<polygon fill="none" stroke="#000000" points="505.5,-478.7 505.5,-501.7 752.5,-501.7 752.5,-478.7 505.5,-478.7"/>
<text text-anchor="start" x="510.5" y="-487.3" font-family="Helvetica,sans-Serif" font-weight="bold" font-size="11.00" fill="#000000">published_version_revision_content</text>
<text text-anchor="start" x="718.0219" y="-486.8" font-family="Helvetica,sans-Serif" font-size="11.00" fill="#000000">[table]</text>
<polygon fill="none" stroke="#000000" points="505.5,-456.7 505.5,-478.7 752.5,-478.7 752.5,-456.7 505.5,-456.7"/>
<image xlink:href="../../images/primaryKeys.png" width="11px" height="12px" preserveAspectRatio="xMinYMin meet" x="510.5" y="-473.7"/>
<text text-anchor="start" x="534.5" y="-463.8" font-family="Helvetica,sans-Serif" font-size="11.00" fill="#000000">package_id</text>
<polygon fill="none" stroke="#000000" points="505.5,-434.7 505.5,-456.7 752.5,-456.7 752.5,-434.7 505.5,-434.7"/>
<image xlink:href="../../images/primaryKeys.png" width="11px" height="12px" preserveAspectRatio="xMinYMin meet" x="510.5" y="-451.7"/>
<text text-anchor="start" x="534.5" y="-441.8" font-family="Helvetica,sans-Serif" font-size="11.00" fill="#000000">version</text>
<polygon fill="none" stroke="#000000" points="505.5,-412.7 505.5,-434.7 752.5,-434.7 752.5,-412.7 505.5,-412.7"/>
<image xlink:href="../../images/primaryKeys.png" width="11px" height="12px" preserveAspectRatio="xMinYMin meet" x="510.5" y="-429.7"/>
<text text-anchor="start" x="534.5" y="-419.8" font-family="Helvetica,sans-Serif" font-size="11.00" fill="#000000">revision</text>
<polygon fill="none" stroke="#000000" points="505.5,-390.7 505.5,-412.7 752.5,-412.7 752.5,-390.7 505.5,-390.7"/>
<image xlink:href="../../images/foreignKeys.png" width="11px" height="12px" preserveAspectRatio="xMinYMin meet" x="510.5" y="-407.7"/>
<text text-anchor="start" x="534.5" y="-397.8" font-family="Helvetica,sans-Serif" font-size="11.00" fill="#000000">checksum</text>
<polygon fill="none" stroke="#000000" points="505.5,-368.7 505.5,-390.7 752.5,-390.7 752.5,-368.7 505.5,-368.7"/>
<image xlink:href="../../images/primaryKeys.png" width="11px" height="12px" preserveAspectRatio="xMinYMin meet" x="510.5" y="-385.7"/>
<text text-anchor="start" x="534.5" y="-375.8" font-family="Helvetica,sans-Serif" font-size="11.00" fill="#000000">file_id</text>
<polygon fill="none" stroke="#000000" points="505.5,-349.7 505.5,-368.7 752.5,-368.7 752.5,-349.7 505.5,-349.7"/>
<text text-anchor="start" x="508.5" y="-355.8" font-family="Helvetica,sans-Serif" font-size="11.00" fill="#000000">...</text>
<polygon fill="#ffffff" stroke="transparent" points="505.5,-330.7 505.5,-349.7 627.5,-349.7 627.5,-330.7 505.5,-330.7"/>
<polygon fill="none" stroke="#000000" points="505.5,-330.7 505.5,-349.7 627.5,-349.7 627.5,-330.7 505.5,-330.7"/>
<text text-anchor="start" x="508.5" y="-336.8" font-family="Helvetica,sans-Serif" font-size="11.00" fill="#000000">&lt; 5</text>
<polygon fill="#ffffff" stroke="transparent" points="627.5,-330.7 627.5,-349.7 689.5,-349.7 689.5,-330.7 627.5,-330.7"/>
<polygon fill="none" stroke="#000000" points="627.5,-330.7 627.5,-349.7 689.5,-349.7 689.5,-330.7 627.5,-330.7"/>
<text text-anchor="start" x="680.3862" y="-336.8" font-family="Helvetica,sans-Serif" font-size="11.00" fill="#000000"> &#160;</text>
<polygon fill="#ffffff" stroke="transparent" points="689.5,-330.7 689.5,-349.7 752.5,-349.7 752.5,-330.7 689.5,-330.7"/>
<polygon fill="none" stroke="#000000" points="689.5,-330.7 689.5,-349.7 752.5,-349.7 752.5,-330.7 689.5,-330.7"/>
<text text-anchor="start" x="743.3862" y="-336.8" font-family="Helvetica,sans-Serif" font-size="11.00" fill="#000000"> &#160;</text>
</a>
</g>
</g>
<!-- published_version_revision_content&#45;&gt;published_data -->
<g id="edge14" class="edge">
<title>published_version_revision_content:w&#45;&gt;published_data:e</title>
<path fill="none" stroke="#000000" d="M491.125,-398.41C456.3186,-378.8496 502.452,-278.7 448,-278.7"/>
<polygon fill="#000000" stroke="#000000" points="497.7016,-399.9152 504.6968,-405.2093 501.6008,-400.8076 505.5,-401.7 505.5,-401.7 505.5,-401.7 501.6008,-400.8076 506.3032,-398.1907 497.7016,-399.9152 497.7016,-399.9152"/>
<ellipse fill="none" stroke="#000000" cx="494.5823" cy="-399.2012" rx="3.2" ry="3.2"/>
</g>
<!-- published_version_revision_content&#45;&gt;published_data -->
<g id="edge15" class="edge">
<title>published_version_revision_content:w&#45;&gt;published_data:e</title>
<path fill="none" stroke="#000000" d="M491.1361,-465.2097C440.4523,-444.4354 520.8258,-300.7 448,-300.7"/>
<polygon fill="#000000" stroke="#000000" points="497.6176,-466.3334 504.885,-471.2471 501.5588,-467.0167 505.5,-467.7 505.5,-467.7 505.5,-467.7 501.5588,-467.0167 506.115,-464.1529 497.6176,-466.3334 497.6176,-466.3334"/>
<ellipse fill="none" stroke="#000000" cx="494.4646" cy="-465.7867" rx="3.2" ry="3.2"/>
</g>
<!-- published_version_revision_content&#45;&gt;published_version -->
<g id="edge16" class="edge">
<title>published_version_revision_content:w&#45;&gt;published_version:e</title>
<path fill="none" stroke="#000000" d="M490.8498,-467.7C460.7482,-467.7 448.1988,-467.7 412,-467.7"/>
<polygon fill="#000000" stroke="#000000" points="497.5,-467.7001 505.5,-471.3 501.5,-467.7 505.5,-467.7 505.5,-467.7 505.5,-467.7 501.5,-467.7 505.5,-464.1 497.5,-467.7001 497.5,-467.7001"/>
<ellipse fill="none" stroke="#000000" cx="494.3" cy="-467.7001" rx="3.2" ry="3.2"/>
</g>
<!-- published_version_revision_content&#45;&gt;published_version -->
<g id="edge17" class="edge">
<title>published_version_revision_content:w&#45;&gt;published_version:e</title>
<path fill="none" stroke="#000000" d="M491.0356,-425.3711C458.5791,-433.4083 452.5449,-467.7 412,-467.7"/>
<polygon fill="#000000" stroke="#000000" points="497.5529,-424.6182 505.9132,-427.2762 501.5264,-424.1591 505.5,-423.7 505.5,-423.7 505.5,-423.7 501.5264,-424.1591 505.0868,-420.1238 497.5529,-424.6182 497.5529,-424.6182"/>
<ellipse fill="none" stroke="#000000" cx="494.374" cy="-424.9855" rx="3.2" ry="3.2"/>
</g>
<!-- published_version_revision_content&#45;&gt;published_version -->
<g id="edge18" class="edge">
<title>published_version_revision_content:w&#45;&gt;published_version:e</title>
<path fill="none" stroke="#000000" d="M490.9766,-446.6453C460.2396,-450.8563 449.3541,-467.7 412,-467.7"/>
<polygon fill="#000000" stroke="#000000" points="497.5169,-446.2197 505.7338,-449.2924 501.5084,-445.9598 505.5,-445.7 505.5,-445.7 505.5,-445.7 501.5084,-445.9598 505.2662,-442.1076 497.5169,-446.2197 497.5169,-446.2197"/>
<ellipse fill="none" stroke="#000000" cx="494.3236" cy="-446.4275" rx="3.2" ry="3.2"/>
</g>
<!-- shared_url_info -->
<g id="node15" class="node">
<title>shared_url_info</title>
<g id="a_node15"><a xlink:href="../../tables/shared_url_info.html" xlink:title="shared_url_info" target="_top">
<polygon fill="#ffffff" stroke="transparent" points="274.5,-38.2 274.5,-99.2 403.5,-99.2 403.5,-38.2 274.5,-38.2"/>
<polygon fill="#f5f5f5" stroke="transparent" points="275,-75.7 275,-98.7 404,-98.7 404,-75.7 275,-75.7"/>
<polygon fill="none" stroke="#000000" points="275,-75.7 275,-98.7 404,-98.7 404,-75.7 275,-75.7"/>
<text text-anchor="start" x="280" y="-84.3" font-family="Helvetica,sans-Serif" font-weight="bold" font-size="11.00" fill="#000000">shared_url_info</text>
<text text-anchor="start" x="369.5219" y="-83.8" font-family="Helvetica,sans-Serif" font-size="11.00" fill="#000000">[table]</text>
<polygon fill="none" stroke="#000000" points="275,-56.7 275,-75.7 404,-75.7 404,-56.7 275,-56.7"/>
<text text-anchor="start" x="278" y="-62.8" font-family="Helvetica,sans-Serif" font-size="11.00" fill="#000000">...</text>
<polygon fill="#ffffff" stroke="transparent" points="275,-37.7 275,-56.7 338,-56.7 338,-37.7 275,-37.7"/>
<polygon fill="none" stroke="#000000" points="275,-37.7 275,-56.7 338,-56.7 338,-37.7 275,-37.7"/>
<text text-anchor="start" x="278" y="-43.8" font-family="Helvetica,sans-Serif" font-size="11.00" fill="#000000">&lt; 1</text>
<polygon fill="#ffffff" stroke="transparent" points="338,-37.7 338,-56.7 371,-56.7 371,-37.7 338,-37.7"/>
<polygon fill="none" stroke="#000000" points="338,-37.7 338,-56.7 371,-56.7 371,-37.7 338,-37.7"/>
<text text-anchor="start" x="361.8862" y="-43.8" font-family="Helvetica,sans-Serif" font-size="11.00" fill="#000000"> &#160;</text>
<polygon fill="#ffffff" stroke="transparent" points="371,-37.7 371,-56.7 404,-56.7 404,-37.7 371,-37.7"/>
<polygon fill="none" stroke="#000000" points="371,-37.7 371,-56.7 404,-56.7 404,-37.7 371,-37.7"/>
<text text-anchor="start" x="394.8862" y="-43.8" font-family="Helvetica,sans-Serif" font-size="11.00" fill="#000000"> &#160;</text>
</a>
</g>
</g>
<!-- shared_url_info&#45;&gt;package_group -->
<g id="edge19" class="edge">
<title>shared_url_info:w&#45;&gt;package_group:e</title>
<path fill="none" stroke="#000000" d="M260.5427,-66.8441C237.8764,-70.8388 227.8265,-85.2665 214,-109.7 187.5857,-156.3781 227.1336,-590.7 173.5,-590.7"/>
<polygon fill="#000000" stroke="#000000" points="267.0249,-66.3312 275.284,-69.2888 271.0125,-66.0156 275,-65.7 275,-65.7 275,-65.7 271.0125,-66.0156 274.716,-62.1112 267.0249,-66.3312 267.0249,-66.3312"/>
<ellipse fill="none" stroke="#000000" cx="263.8349" cy="-66.5837" rx="3.2" ry="3.2"/>
</g>
</g>
</svg>
