<?xml version="1.0" encoding="UTF-8" standalone="no"?>
<!DOCTYPE svg PUBLIC "-//W3C//DTD SVG 1.1//EN"
 "http://www.w3.org/Graphics/SVG/1.1/DTD/svg11.dtd">
<!-- Generated by graphviz version 2.40.1 (20161225.0304)
 -->
<!-- Title: oneDegreeRelationshipsDiagram Pages: 1 -->
<svg width="519pt" height="283pt"
 viewBox="0.00 0.00 519.00 282.70" xmlns="http://www.w3.org/2000/svg" xmlns:xlink="http://www.w3.org/1999/xlink">
<g id="graph0" class="graph" transform="scale(1 1) rotate(0) translate(4 278.7)">
<title>oneDegreeRelationshipsDiagram</title>
<polygon fill="#ffffff" stroke="transparent" points="-4,4 -4,-278.7 515,-278.7 515,4 -4,4"/>
<text text-anchor="middle" x="72.4936" y="-7.3" font-family="Helvetica,sans-Serif" font-size="11.00" fill="#000000">Generated by SchemaSpy</text>
<!-- published_sources -->
<g id="node1" class="node">
<title>published_sources</title>
<g id="a_node1"><a xlink:href="../../tables/published_sources.html" xlink:title="published_sources" target="_top">
<polygon fill="#ffffff" stroke="transparent" points="260,-92.7 260,-270.7 503,-270.7 503,-92.7 260,-92.7"/>
<polygon fill="#f5f5f5" stroke="transparent" points="262.5,-245.7 262.5,-268.7 501.5,-268.7 501.5,-245.7 262.5,-245.7"/>
<polygon fill="none" stroke="#000000" points="262.5,-245.7 262.5,-268.7 501.5,-268.7 501.5,-245.7 262.5,-245.7"/>
<text text-anchor="start" x="267.5" y="-254.3" font-family="Helvetica,sans-Serif" font-weight="bold" font-size="11.00" fill="#000000">published_sources</text>
<text text-anchor="start" x="466.5437" y="-253.8" font-family="Helvetica,sans-Serif" font-size="11.00" fill="#000000">[table]</text>
<polygon fill="#ffffff" stroke="transparent" points="262.5,-223.7 262.5,-245.7 392.5,-245.7 392.5,-223.7 262.5,-223.7"/>
<polygon fill="none" stroke="#000000" points="262.5,-223.7 262.5,-245.7 392.5,-245.7 392.5,-223.7 262.5,-223.7"/>
<image xlink:href="../../images/foreignKeys.png" width="11px" height="12px" preserveAspectRatio="xMinYMin meet" x="267.5" y="-240.7"/>
<text text-anchor="start" x="282.5" y="-230.8" font-family="Helvetica,sans-Serif" font-size="11.00" fill="#000000">package_id</text>
<polygon fill="none" stroke="#000000" points="392.5,-223.7 392.5,-245.7 501.5,-245.7 501.5,-223.7 392.5,-223.7"/>
<text text-anchor="start" x="395.0344" y="-231.4" font-family="Helvetica,sans-Serif" font-size="11.00" fill="#000000">varchar[2147483647]</text>
<polygon fill="#ffffff" stroke="transparent" points="262.5,-201.7 262.5,-223.7 392.5,-223.7 392.5,-201.7 262.5,-201.7"/>
<polygon fill="none" stroke="#000000" points="262.5,-201.7 262.5,-223.7 392.5,-223.7 392.5,-201.7 262.5,-201.7"/>
<image xlink:href="../../images/foreignKeys.png" width="11px" height="12px" preserveAspectRatio="xMinYMin meet" x="267.5" y="-218.7"/>
<text text-anchor="start" x="282.5" y="-208.8" font-family="Helvetica,sans-Serif" font-size="11.00" fill="#000000">version</text>
<polygon fill="none" stroke="#000000" points="392.5,-201.7 392.5,-223.7 501.5,-223.7 501.5,-201.7 392.5,-201.7"/>
<text text-anchor="start" x="395.0344" y="-209.4" font-family="Helvetica,sans-Serif" font-size="11.00" fill="#000000">varchar[2147483647]</text>
<polygon fill="#ffffff" stroke="transparent" points="262.5,-179.7 262.5,-201.7 392.5,-201.7 392.5,-179.7 262.5,-179.7"/>
<polygon fill="none" stroke="#000000" points="262.5,-179.7 262.5,-201.7 392.5,-201.7 392.5,-179.7 262.5,-179.7"/>
<image xlink:href="../../images/foreignKeys.png" width="11px" height="12px" preserveAspectRatio="xMinYMin meet" x="267.5" y="-196.7"/>
<text text-anchor="start" x="282.5" y="-186.8" font-family="Helvetica,sans-Serif" font-size="11.00" fill="#000000">revision</text>
<polygon fill="none" stroke="#000000" points="392.5,-179.7 392.5,-201.7 501.5,-201.7 501.5,-179.7 392.5,-179.7"/>
<text text-anchor="start" x="395.5" y="-187.4" font-family="Helvetica,sans-Serif" font-size="11.00" fill="#000000">int4[10]</text>
<polygon fill="none" stroke="#000000" points="262.5,-157.7 262.5,-179.7 392.5,-179.7 392.5,-157.7 262.5,-157.7"/>
<text text-anchor="start" x="282.5" y="-164.8" font-family="Helvetica,sans-Serif" font-size="11.00" fill="#000000">config</text>
<polygon fill="none" stroke="#000000" points="392.5,-157.7 392.5,-179.7 501.5,-179.7 501.5,-157.7 392.5,-157.7"/>
<text text-anchor="start" x="395.5" y="-165.4" font-family="Helvetica,sans-Serif" font-size="11.00" fill="#000000">bytea[2147483647]</text>
<polygon fill="none" stroke="#000000" points="262.5,-135.7 262.5,-157.7 392.5,-157.7 392.5,-135.7 262.5,-135.7"/>
<text text-anchor="start" x="282.5" y="-142.8" font-family="Helvetica,sans-Serif" font-size="11.00" fill="#000000">metadata</text>
<polygon fill="none" stroke="#000000" points="392.5,-135.7 392.5,-157.7 501.5,-157.7 501.5,-135.7 392.5,-135.7"/>
<text text-anchor="start" x="395.5" y="-143.4" font-family="Helvetica,sans-Serif" font-size="11.00" fill="#000000">bytea[2147483647]</text>
<polygon fill="none" stroke="#000000" points="262.5,-113.7 262.5,-135.7 392.5,-135.7 392.5,-113.7 262.5,-113.7"/>
<image xlink:href="../../images/foreignKeys.png" width="11px" height="12px" preserveAspectRatio="xMinYMin meet" x="267.5" y="-130.7"/>
<text text-anchor="start" x="282.5" y="-120.8" font-family="Helvetica,sans-Serif" font-size="11.00" fill="#000000">archive_checksum</text>
<polygon fill="none" stroke="#000000" points="392.5,-113.7 392.5,-135.7 501.5,-135.7 501.5,-113.7 392.5,-113.7"/>
<text text-anchor="start" x="395.0344" y="-121.4" font-family="Helvetica,sans-Serif" font-size="11.00" fill="#000000">varchar[2147483647]</text>
<polygon fill="#ffffff" stroke="transparent" points="262.5,-94.7 262.5,-113.7 331.5,-113.7 331.5,-94.7 262.5,-94.7"/>
<polygon fill="none" stroke="#000000" points="262.5,-94.7 262.5,-113.7 331.5,-113.7 331.5,-94.7 262.5,-94.7"/>
<text text-anchor="start" x="265.5" y="-100.8" font-family="Helvetica,sans-Serif" font-size="11.00" fill="#000000">&lt; 4</text>
<polygon fill="#ffffff" stroke="transparent" points="331.5,-94.7 331.5,-113.7 392.5,-113.7 392.5,-94.7 331.5,-94.7"/>
<polygon fill="none" stroke="#000000" points="331.5,-94.7 331.5,-113.7 392.5,-113.7 392.5,-94.7 331.5,-94.7"/>
<text text-anchor="start" x="383.3862" y="-100.8" font-family="Helvetica,sans-Serif" font-size="11.00" fill="#000000"> &#160;</text>
<polygon fill="#ffffff" stroke="transparent" points="392.5,-94.7 392.5,-113.7 501.5,-113.7 501.5,-94.7 392.5,-94.7"/>
<polygon fill="none" stroke="#000000" points="392.5,-94.7 392.5,-113.7 501.5,-113.7 501.5,-94.7 392.5,-94.7"/>
<text text-anchor="start" x="482.9053" y="-100.8" font-family="Helvetica,sans-Serif" font-size="11.00" fill="#000000">0 &gt;</text>
<polygon fill="none" stroke="#000000" stroke-width="2" points="261,-93.7 261,-269.7 502,-269.7 502,-93.7 261,-93.7"/>
</a>
</g>
</g>
<!-- published_sources_archives -->
<g id="node2" class="node">
<title>published_sources_archives</title>
<g id="a_node2"><a xlink:href="../../tables/published_sources_archives.html" xlink:title="published_sources_archives" target="_top">
<polygon fill="#ffffff" stroke="transparent" points="8,-38.2 8,-121.2 211,-121.2 211,-38.2 8,-38.2"/>
<polygon fill="#f5f5f5" stroke="transparent" points="8.5,-97.7 8.5,-120.7 211.5,-120.7 211.5,-97.7 8.5,-97.7"/>
<polygon fill="none" stroke="#000000" points="8.5,-97.7 8.5,-120.7 211.5,-120.7 211.5,-97.7 8.5,-97.7"/>
<text text-anchor="start" x="13.5" y="-106.3" font-family="Helvetica,sans-Serif" font-weight="bold" font-size="11.00" fill="#000000">published_sources_archives</text>
<text text-anchor="start" x="177.0219" y="-105.8" font-family="Helvetica,sans-Serif" font-size="11.00" fill="#000000">[table]</text>
<polygon fill="none" stroke="#000000" points="8.5,-75.7 8.5,-97.7 211.5,-97.7 211.5,-75.7 8.5,-75.7"/>
<image xlink:href="../../images/primaryKeys.png" width="11px" height="12px" preserveAspectRatio="xMinYMin meet" x="13.5" y="-92.7"/>
<text text-anchor="start" x="37.5" y="-82.8" font-family="Helvetica,sans-Serif" font-size="11.00" fill="#000000">checksum</text>
<polygon fill="none" stroke="#000000" points="8.5,-56.7 8.5,-75.7 211.5,-75.7 211.5,-56.7 8.5,-56.7"/>
<text text-anchor="start" x="11.5" y="-62.8" font-family="Helvetica,sans-Serif" font-size="11.00" fill="#000000">...</text>
<polygon fill="#ffffff" stroke="transparent" points="8.5,-37.7 8.5,-56.7 99.5,-56.7 99.5,-37.7 8.5,-37.7"/>
<polygon fill="none" stroke="#000000" points="8.5,-37.7 8.5,-56.7 99.5,-56.7 99.5,-37.7 8.5,-37.7"/>
<text text-anchor="start" x="11.5" y="-43.8" font-family="Helvetica,sans-Serif" font-size="11.00" fill="#000000"> &#160;</text>
<polygon fill="#ffffff" stroke="transparent" points="99.5,-37.7 99.5,-56.7 150.5,-56.7 150.5,-37.7 99.5,-37.7"/>
<polygon fill="none" stroke="#000000" points="99.5,-37.7 99.5,-56.7 150.5,-56.7 150.5,-37.7 99.5,-37.7"/>
<text text-anchor="start" x="141.3862" y="-43.8" font-family="Helvetica,sans-Serif" font-size="11.00" fill="#000000"> &#160;</text>
<polygon fill="#ffffff" stroke="transparent" points="150.5,-37.7 150.5,-56.7 211.5,-56.7 211.5,-37.7 150.5,-37.7"/>
<polygon fill="none" stroke="#000000" points="150.5,-37.7 150.5,-56.7 211.5,-56.7 211.5,-37.7 150.5,-37.7"/>
<text text-anchor="start" x="192.9053" y="-43.8" font-family="Helvetica,sans-Serif" font-size="11.00" fill="#000000">1 &gt;</text>
</a>
</g>
</g>
<!-- published_sources&#45;&gt;published_sources_archives -->
<g id="edge1" class="edge">
<title>published_sources:w&#45;&gt;published_sources_archives:e</title>
<path fill="none" stroke="#000000" d="M248.4897,-120.3409C235.0637,-110.3595 233.8043,-86.7 211.5,-86.7"/>
<polygon fill="#000000" stroke="#000000" points="254.8612,-122.3233 261.4305,-128.1375 258.6806,-123.5116 262.5,-124.7 262.5,-124.7 262.5,-124.7 258.6806,-123.5116 263.5695,-121.2625 254.8612,-122.3233 254.8612,-122.3233"/>
<ellipse fill="none" stroke="#000000" cx="251.8057" cy="-121.3726" rx="3.2" ry="3.2"/>
</g>
<!-- published_version -->
<g id="node3" class="node">
<title>published_version</title>
<g id="a_node3"><a xlink:href="../../tables/published_version.html" xlink:title="published_version" target="_top">
<polygon fill="#ffffff" stroke="transparent" points="13.5,-142.2 13.5,-269.2 205.5,-269.2 205.5,-142.2 13.5,-142.2"/>
<polygon fill="#f5f5f5" stroke="transparent" points="13.5,-245.7 13.5,-268.7 205.5,-268.7 205.5,-245.7 13.5,-245.7"/>
<polygon fill="none" stroke="#000000" points="13.5,-245.7 13.5,-268.7 205.5,-268.7 205.5,-245.7 13.5,-245.7"/>
<text text-anchor="start" x="18.5" y="-254.3" font-family="Helvetica,sans-Serif" font-weight="bold" font-size="11.00" fill="#000000">published_version</text>
<text text-anchor="start" x="170.5437" y="-253.8" font-family="Helvetica,sans-Serif" font-size="11.00" fill="#000000">[table]</text>
<polygon fill="none" stroke="#000000" points="13.5,-223.7 13.5,-245.7 205.5,-245.7 205.5,-223.7 13.5,-223.7"/>
<image xlink:href="../../images/primaryKeys.png" width="11px" height="12px" preserveAspectRatio="xMinYMin meet" x="18.5" y="-240.7"/>
<text text-anchor="start" x="33.5" y="-230.8" font-family="Helvetica,sans-Serif" font-size="11.00" fill="#000000">package_id</text>
<polygon fill="none" stroke="#000000" points="13.5,-201.7 13.5,-223.7 205.5,-223.7 205.5,-201.7 13.5,-201.7"/>
<image xlink:href="../../images/primaryKeys.png" width="11px" height="12px" preserveAspectRatio="xMinYMin meet" x="18.5" y="-218.7"/>
<text text-anchor="start" x="33.5" y="-208.8" font-family="Helvetica,sans-Serif" font-size="11.00" fill="#000000">version</text>
<polygon fill="none" stroke="#000000" points="13.5,-179.7 13.5,-201.7 205.5,-201.7 205.5,-179.7 13.5,-179.7"/>
<image xlink:href="../../images/primaryKeys.png" width="11px" height="12px" preserveAspectRatio="xMinYMin meet" x="18.5" y="-196.7"/>
<text text-anchor="start" x="33.5" y="-186.8" font-family="Helvetica,sans-Serif" font-size="11.00" fill="#000000">revision</text>
<polygon fill="none" stroke="#000000" points="13.5,-160.7 13.5,-179.7 205.5,-179.7 205.5,-160.7 13.5,-160.7"/>
<text text-anchor="start" x="16.5" y="-166.8" font-family="Helvetica,sans-Serif" font-size="11.00" fill="#000000">...</text>
<polygon fill="#ffffff" stroke="transparent" points="13.5,-141.7 13.5,-160.7 100.5,-160.7 100.5,-141.7 13.5,-141.7"/>
<polygon fill="none" stroke="#000000" points="13.5,-141.7 13.5,-160.7 100.5,-160.7 100.5,-141.7 13.5,-141.7"/>
<text text-anchor="start" x="16.5" y="-147.8" font-family="Helvetica,sans-Serif" font-size="11.00" fill="#000000">&lt; 1</text>
<polygon fill="#ffffff" stroke="transparent" points="100.5,-141.7 100.5,-160.7 145.5,-160.7 145.5,-141.7 100.5,-141.7"/>
<polygon fill="none" stroke="#000000" points="100.5,-141.7 100.5,-160.7 145.5,-160.7 145.5,-141.7 100.5,-141.7"/>
<text text-anchor="start" x="136.3862" y="-147.8" font-family="Helvetica,sans-Serif" font-size="11.00" fill="#000000"> &#160;</text>
<polygon fill="#ffffff" stroke="transparent" points="145.5,-141.7 145.5,-160.7 205.5,-160.7 205.5,-141.7 145.5,-141.7"/>
<polygon fill="none" stroke="#000000" points="145.5,-141.7 145.5,-160.7 205.5,-160.7 205.5,-141.7 145.5,-141.7"/>
<text text-anchor="start" x="180.7904" y="-147.8" font-family="Helvetica,sans-Serif" font-size="11.00" fill="#000000">18 &gt;</text>
</a>
</g>
</g>
<!-- published_sources&#45;&gt;published_version -->
<g id="edge2" class="edge">
<title>published_sources:w&#45;&gt;published_version:e</title>
<path fill="none" stroke="#000000" d="M247.7652,-234.7C233.3216,-234.7 225.0938,-234.7 205.5,-234.7"/>
<polygon fill="#000000" stroke="#000000" points="254.5,-234.7001 262.5,-238.3 258.5,-234.7 262.5,-234.7 262.5,-234.7 262.5,-234.7 258.5,-234.7 262.5,-231.1 254.5,-234.7001 254.5,-234.7001"/>
<ellipse fill="none" stroke="#000000" cx="251.3" cy="-234.7001" rx="3.2" ry="3.2"/>
</g>
<!-- published_sources&#45;&gt;published_version -->
<g id="edge3" class="edge">
<title>published_sources:w&#45;&gt;published_version:e</title>
<path fill="none" stroke="#000000" d="M247.7652,-190.7C233.3216,-190.7 225.0938,-190.7 205.5,-190.7"/>
<polygon fill="#000000" stroke="#000000" points="254.5,-190.7001 262.5,-194.3 258.5,-190.7 262.5,-190.7 262.5,-190.7 262.5,-190.7 258.5,-190.7 262.5,-187.1 254.5,-190.7001 254.5,-190.7001"/>
<ellipse fill="none" stroke="#000000" cx="251.3" cy="-190.7001" rx="3.2" ry="3.2"/>
</g>
<!-- published_sources&#45;&gt;published_version -->
<g id="edge4" class="edge">
<title>published_sources:w&#45;&gt;published_version:e</title>
<path fill="none" stroke="#000000" d="M247.7652,-212.7C233.3216,-212.7 225.0938,-212.7 205.5,-212.7"/>
<polygon fill="#000000" stroke="#000000" points="254.5,-212.7001 262.5,-216.3 258.5,-212.7 262.5,-212.7 262.5,-212.7 262.5,-212.7 258.5,-212.7 262.5,-209.1 254.5,-212.7001 254.5,-212.7001"/>
<ellipse fill="none" stroke="#000000" cx="251.3" cy="-212.7001" rx="3.2" ry="3.2"/>
</g>
</g>
</svg>
