<?xml version="1.0" encoding="UTF-8" standalone="no"?>
<!DOCTYPE svg PUBLIC "-//W3C//DTD SVG 1.1//EN"
 "http://www.w3.org/Graphics/SVG/1.1/DTD/svg11.dtd">
<!-- Generated by graphviz version 2.40.1 (20161225.0304)
 -->
<!-- Title: oneDegreeRelationshipsDiagram Pages: 1 -->
<svg width="552pt" height="162pt"
 viewBox="0.00 0.00 552.00 162.20" xmlns="http://www.w3.org/2000/svg" xmlns:xlink="http://www.w3.org/1999/xlink">
<g id="graph0" class="graph" transform="scale(1 1) rotate(0) translate(4 158.2)">
<title>oneDegreeRelationshipsDiagram</title>
<polygon fill="#ffffff" stroke="transparent" points="-4,4 -4,-158.2 548,-158.2 548,4 -4,4"/>
<text text-anchor="middle" x="72.4936" y="-7.3" font-family="Helvetica,sans-Serif" font-size="11.00" fill="#000000">Generated by SchemaSpy</text>
<!-- published_version_open_count -->
<g id="node1" class="node">
<title>published_version_open_count</title>
<g id="a_node1"><a xlink:href="../../tables/published_version_open_count.html" xlink:title="published_version_open_count" target="_top">
<polygon fill="#ffffff" stroke="transparent" points="222,-38.2 222,-150.2 536,-150.2 536,-38.2 222,-38.2"/>
<polygon fill="#f5f5f5" stroke="transparent" points="224,-125.2 224,-148.2 534,-148.2 534,-125.2 224,-125.2"/>
<polygon fill="none" stroke="#000000" points="224,-125.2 224,-148.2 534,-148.2 534,-125.2 224,-125.2"/>
<text text-anchor="start" x="229" y="-133.8" font-family="Helvetica,sans-Serif" font-weight="bold" font-size="11.00" fill="#000000">published_version_open_count</text>
<text text-anchor="start" x="499.0437" y="-133.3" font-family="Helvetica,sans-Serif" font-size="11.00" fill="#000000">[table]</text>
<polygon fill="none" stroke="#000000" points="224,-103.2 224,-125.2 425,-125.2 425,-103.2 224,-103.2"/>
<image xlink:href="../../images/primaryKeys.png" width="11px" height="12px" preserveAspectRatio="xMinYMin meet" x="229" y="-120.2"/>
<text text-anchor="start" x="244" y="-110.3" font-family="Helvetica,sans-Serif" font-size="11.00" fill="#000000">package_id</text>
<polygon fill="none" stroke="#000000" points="425,-103.2 425,-125.2 534,-125.2 534,-103.2 425,-103.2"/>
<text text-anchor="start" x="427.5344" y="-110.9" font-family="Helvetica,sans-Serif" font-size="11.00" fill="#000000">varchar[2147483647]</text>
<polygon fill="none" stroke="#000000" points="224,-81.2 224,-103.2 425,-103.2 425,-81.2 224,-81.2"/>
<image xlink:href="../../images/primaryKeys.png" width="11px" height="12px" preserveAspectRatio="xMinYMin meet" x="229" y="-98.2"/>
<text text-anchor="start" x="244" y="-88.3" font-family="Helvetica,sans-Serif" font-size="11.00" fill="#000000">version</text>
<polygon fill="none" stroke="#000000" points="425,-81.2 425,-103.2 534,-103.2 534,-81.2 425,-81.2"/>
<text text-anchor="start" x="427.5344" y="-88.9" font-family="Helvetica,sans-Serif" font-size="11.00" fill="#000000">varchar[2147483647]</text>
<polygon fill="none" stroke="#000000" points="224,-59.2 224,-81.2 425,-81.2 425,-59.2 224,-59.2"/>
<text text-anchor="start" x="244" y="-66.3" font-family="Helvetica,sans-Serif" font-size="11.00" fill="#000000">open_count</text>
<polygon fill="none" stroke="#000000" points="425,-59.2 425,-81.2 534,-81.2 534,-59.2 425,-59.2"/>
<text text-anchor="start" x="428" y="-66.9" font-family="Helvetica,sans-Serif" font-size="11.00" fill="#000000">int8[19]</text>
<polygon fill="#ffffff" stroke="transparent" points="224,-40.2 224,-59.2 329,-59.2 329,-40.2 224,-40.2"/>
<polygon fill="none" stroke="#000000" points="224,-40.2 224,-59.2 329,-59.2 329,-40.2 224,-40.2"/>
<text text-anchor="start" x="227" y="-46.3" font-family="Helvetica,sans-Serif" font-size="11.00" fill="#000000">&lt; 1</text>
<polygon fill="#ffffff" stroke="transparent" points="329,-40.2 329,-59.2 425,-59.2 425,-40.2 329,-40.2"/>
<polygon fill="none" stroke="#000000" points="329,-40.2 329,-59.2 425,-59.2 425,-40.2 329,-40.2"/>
<text text-anchor="start" x="415.8862" y="-46.3" font-family="Helvetica,sans-Serif" font-size="11.00" fill="#000000"> &#160;</text>
<polygon fill="#ffffff" stroke="transparent" points="425,-40.2 425,-59.2 534,-59.2 534,-40.2 425,-40.2"/>
<polygon fill="none" stroke="#000000" points="425,-40.2 425,-59.2 534,-59.2 534,-40.2 425,-40.2"/>
<text text-anchor="start" x="515.4053" y="-46.3" font-family="Helvetica,sans-Serif" font-size="11.00" fill="#000000">0 &gt;</text>
<polygon fill="none" stroke="#000000" stroke-width="2" points="223,-39.2 223,-149.2 535,-149.2 535,-39.2 223,-39.2"/>
</a>
</g>
</g>
<!-- package_group -->
<g id="node2" class="node">
<title>package_group</title>
<g id="a_node2"><a xlink:href="../../tables/package_group.html" xlink:title="package_group" target="_top">
<polygon fill="#ffffff" stroke="transparent" points="8,-43.7 8,-148.7 173,-148.7 173,-43.7 8,-43.7"/>
<polygon fill="#f5f5f5" stroke="transparent" points="8.5,-125.2 8.5,-148.2 173.5,-148.2 173.5,-125.2 8.5,-125.2"/>
<polygon fill="none" stroke="#000000" points="8.5,-125.2 8.5,-148.2 173.5,-148.2 173.5,-125.2 8.5,-125.2"/>
<text text-anchor="start" x="13.5" y="-133.8" font-family="Helvetica,sans-Serif" font-weight="bold" font-size="11.00" fill="#000000">package_group</text>
<text text-anchor="start" x="138.5437" y="-133.3" font-family="Helvetica,sans-Serif" font-size="11.00" fill="#000000">[table]</text>
<polygon fill="none" stroke="#000000" points="8.5,-103.2 8.5,-125.2 173.5,-125.2 173.5,-103.2 8.5,-103.2"/>
<image xlink:href="../../images/primaryKeys.png" width="11px" height="12px" preserveAspectRatio="xMinYMin meet" x="13.5" y="-120.2"/>
<text text-anchor="start" x="28.5" y="-110.3" font-family="Helvetica,sans-Serif" font-size="11.00" fill="#000000">id</text>
<polygon fill="none" stroke="#000000" points="8.5,-81.2 8.5,-103.2 173.5,-103.2 173.5,-81.2 8.5,-81.2"/>
<image xlink:href="../../images/foreignKeys.png" width="11px" height="12px" preserveAspectRatio="xMinYMin meet" x="13.5" y="-98.2"/>
<text text-anchor="start" x="28.5" y="-88.3" font-family="Helvetica,sans-Serif" font-size="11.00" fill="#000000">parent_id</text>
<polygon fill="none" stroke="#000000" points="8.5,-62.2 8.5,-81.2 173.5,-81.2 173.5,-62.2 8.5,-62.2"/>
<text text-anchor="start" x="11.5" y="-68.3" font-family="Helvetica,sans-Serif" font-size="11.00" fill="#000000">...</text>
<polygon fill="#ffffff" stroke="transparent" points="8.5,-43.2 8.5,-62.2 81.5,-62.2 81.5,-43.2 8.5,-43.2"/>
<polygon fill="none" stroke="#000000" points="8.5,-43.2 8.5,-62.2 81.5,-62.2 81.5,-43.2 8.5,-43.2"/>
<text text-anchor="start" x="11.5" y="-49.3" font-family="Helvetica,sans-Serif" font-size="11.00" fill="#000000">&lt; 1</text>
<polygon fill="#ffffff" stroke="transparent" points="81.5,-43.2 81.5,-62.2 119.5,-62.2 119.5,-43.2 81.5,-43.2"/>
<polygon fill="none" stroke="#000000" points="81.5,-43.2 81.5,-62.2 119.5,-62.2 119.5,-43.2 81.5,-43.2"/>
<text text-anchor="start" x="110.3862" y="-49.3" font-family="Helvetica,sans-Serif" font-size="11.00" fill="#000000"> &#160;</text>
<polygon fill="#ffffff" stroke="transparent" points="119.5,-43.2 119.5,-62.2 173.5,-62.2 173.5,-43.2 119.5,-43.2"/>
<polygon fill="none" stroke="#000000" points="119.5,-43.2 119.5,-62.2 173.5,-62.2 173.5,-43.2 119.5,-43.2"/>
<text text-anchor="start" x="148.7904" y="-49.3" font-family="Helvetica,sans-Serif" font-size="11.00" fill="#000000">14 &gt;</text>
</a>
</g>
</g>
<!-- published_version_open_count&#45;&gt;package_group -->
<g id="edge1" class="edge">
<title>published_version_open_count:w&#45;&gt;package_group:e</title>
<path fill="none" stroke="#000000" d="M209.4203,-114.2C197.5435,-114.2 190.158,-114.2 173.5,-114.2"/>
<polygon fill="#000000" stroke="#000000" points="216,-114.2001 224,-117.8 220,-114.2 224,-114.2 224,-114.2 224,-114.2 220,-114.2 224,-110.6 216,-114.2001 216,-114.2001"/>
<ellipse fill="none" stroke="#000000" cx="212.8" cy="-114.2001" rx="3.2" ry="3.2"/>
</g>
</g>
</svg>
