<?xml version="1.0" encoding="UTF-8" standalone="no"?>
<!DOCTYPE svg PUBLIC "-//W3C//DTD SVG 1.1//EN"
 "http://www.w3.org/Graphics/SVG/1.1/DTD/svg11.dtd">
<!-- Generated by graphviz version 2.40.1 (20161225.0304)
 -->
<!-- Title: oneDegreeRelationshipsDiagram Pages: 1 -->
<svg width="614pt" height="426pt"
 viewBox="0.00 0.00 614.00 426.20" xmlns="http://www.w3.org/2000/svg" xmlns:xlink="http://www.w3.org/1999/xlink">
<g id="graph0" class="graph" transform="scale(1 1) rotate(0) translate(4 422.2)">
<title>oneDegreeRelationshipsDiagram</title>
<polygon fill="#ffffff" stroke="transparent" points="-4,4 -4,-422.2 610,-422.2 610,4 -4,4"/>
<text text-anchor="middle" x="72.4936" y="-7.3" font-family="Helvetica,sans-Serif" font-size="11.00" fill="#000000">Generated by SchemaSpy</text>
<!-- published_version_revision_content -->
<g id="node1" class="node">
<title>published_version_revision_content</title>
<g id="a_node1"><a xlink:href="../../tables/published_version_revision_content.html" xlink:title="published_version_revision_content" target="_top">
<polygon fill="#ffffff" stroke="transparent" points="249,-38.2 249,-414.2 598,-414.2 598,-38.2 249,-38.2"/>
<polygon fill="#f5f5f5" stroke="transparent" points="251.5,-389.2 251.5,-412.2 596.5,-412.2 596.5,-389.2 251.5,-389.2"/>
<polygon fill="none" stroke="#000000" points="251.5,-389.2 251.5,-412.2 596.5,-412.2 596.5,-389.2 251.5,-389.2"/>
<text text-anchor="start" x="256.5" y="-397.8" font-family="Helvetica,sans-Serif" font-weight="bold" font-size="11.00" fill="#000000">published_version_revision_content</text>
<text text-anchor="start" x="561.5437" y="-397.3" font-family="Helvetica,sans-Serif" font-size="11.00" fill="#000000">[table]</text>
<polygon fill="none" stroke="#000000" points="251.5,-367.2 251.5,-389.2 480.5,-389.2 480.5,-367.2 251.5,-367.2"/>
<image xlink:href="../../images/primaryKeys.png" width="11px" height="12px" preserveAspectRatio="xMinYMin meet" x="256.5" y="-384.2"/>
<text text-anchor="start" x="271.5" y="-374.3" font-family="Helvetica,sans-Serif" font-size="11.00" fill="#000000">package_id</text>
<polygon fill="none" stroke="#000000" points="480.5,-367.2 480.5,-389.2 596.5,-389.2 596.5,-367.2 480.5,-367.2"/>
<text text-anchor="start" x="483.5" y="-374.9" font-family="Helvetica,sans-Serif" font-size="11.00" fill="#000000">varchar[2147483647]</text>
<polygon fill="none" stroke="#000000" points="251.5,-345.2 251.5,-367.2 480.5,-367.2 480.5,-345.2 251.5,-345.2"/>
<image xlink:href="../../images/primaryKeys.png" width="11px" height="12px" preserveAspectRatio="xMinYMin meet" x="256.5" y="-362.2"/>
<text text-anchor="start" x="271.5" y="-352.3" font-family="Helvetica,sans-Serif" font-size="11.00" fill="#000000">version</text>
<polygon fill="none" stroke="#000000" points="480.5,-345.2 480.5,-367.2 596.5,-367.2 596.5,-345.2 480.5,-345.2"/>
<text text-anchor="start" x="483.5" y="-352.9" font-family="Helvetica,sans-Serif" font-size="11.00" fill="#000000">varchar[2147483647]</text>
<polygon fill="none" stroke="#000000" points="251.5,-323.2 251.5,-345.2 480.5,-345.2 480.5,-323.2 251.5,-323.2"/>
<image xlink:href="../../images/primaryKeys.png" width="11px" height="12px" preserveAspectRatio="xMinYMin meet" x="256.5" y="-340.2"/>
<text text-anchor="start" x="271.5" y="-330.3" font-family="Helvetica,sans-Serif" font-size="11.00" fill="#000000">revision</text>
<polygon fill="none" stroke="#000000" points="480.5,-323.2 480.5,-345.2 596.5,-345.2 596.5,-323.2 480.5,-323.2"/>
<text text-anchor="start" x="483.5" y="-330.9" font-family="Helvetica,sans-Serif" font-size="11.00" fill="#000000">int4[10]</text>
<polygon fill="#ffffff" stroke="transparent" points="251.5,-301.2 251.5,-323.2 480.5,-323.2 480.5,-301.2 251.5,-301.2"/>
<polygon fill="none" stroke="#000000" points="251.5,-301.2 251.5,-323.2 480.5,-323.2 480.5,-301.2 251.5,-301.2"/>
<image xlink:href="../../images/foreignKeys.png" width="11px" height="12px" preserveAspectRatio="xMinYMin meet" x="256.5" y="-318.2"/>
<text text-anchor="start" x="271.5" y="-308.3" font-family="Helvetica,sans-Serif" font-size="11.00" fill="#000000">checksum</text>
<polygon fill="none" stroke="#000000" points="480.5,-301.2 480.5,-323.2 596.5,-323.2 596.5,-301.2 480.5,-301.2"/>
<text text-anchor="start" x="483.5" y="-308.9" font-family="Helvetica,sans-Serif" font-size="11.00" fill="#000000">varchar[2147483647]</text>
<polygon fill="none" stroke="#000000" points="251.5,-279.2 251.5,-301.2 480.5,-301.2 480.5,-279.2 251.5,-279.2"/>
<text text-anchor="start" x="271.5" y="-286.3" font-family="Helvetica,sans-Serif" font-size="11.00" fill="#000000">index</text>
<polygon fill="none" stroke="#000000" points="480.5,-279.2 480.5,-301.2 596.5,-301.2 596.5,-279.2 480.5,-279.2"/>
<text text-anchor="start" x="483.5" y="-286.9" font-family="Helvetica,sans-Serif" font-size="11.00" fill="#000000">int4[10]</text>
<polygon fill="none" stroke="#000000" points="251.5,-257.2 251.5,-279.2 480.5,-279.2 480.5,-257.2 251.5,-257.2"/>
<image xlink:href="../../images/primaryKeys.png" width="11px" height="12px" preserveAspectRatio="xMinYMin meet" x="256.5" y="-274.2"/>
<text text-anchor="start" x="271.5" y="-264.3" font-family="Helvetica,sans-Serif" font-size="11.00" fill="#000000">file_id</text>
<polygon fill="none" stroke="#000000" points="480.5,-257.2 480.5,-279.2 596.5,-279.2 596.5,-257.2 480.5,-257.2"/>
<text text-anchor="start" x="483.5" y="-264.9" font-family="Helvetica,sans-Serif" font-size="11.00" fill="#000000">varchar[2147483647]</text>
<polygon fill="none" stroke="#000000" points="251.5,-235.2 251.5,-257.2 480.5,-257.2 480.5,-235.2 251.5,-235.2"/>
<text text-anchor="start" x="271.5" y="-242.3" font-family="Helvetica,sans-Serif" font-size="11.00" fill="#000000">path</text>
<polygon fill="none" stroke="#000000" points="480.5,-235.2 480.5,-257.2 596.5,-257.2 596.5,-235.2 480.5,-235.2"/>
<text text-anchor="start" x="483.5" y="-242.9" font-family="Helvetica,sans-Serif" font-size="11.00" fill="#000000">varchar[2147483647]</text>
<polygon fill="none" stroke="#000000" points="251.5,-213.2 251.5,-235.2 480.5,-235.2 480.5,-213.2 251.5,-213.2"/>
<text text-anchor="start" x="271.5" y="-220.3" font-family="Helvetica,sans-Serif" font-size="11.00" fill="#000000">slug</text>
<polygon fill="none" stroke="#000000" points="480.5,-213.2 480.5,-235.2 596.5,-235.2 596.5,-213.2 480.5,-213.2"/>
<text text-anchor="start" x="483.5" y="-220.9" font-family="Helvetica,sans-Serif" font-size="11.00" fill="#000000">varchar[2147483647]</text>
<polygon fill="none" stroke="#000000" points="251.5,-191.2 251.5,-213.2 480.5,-213.2 480.5,-191.2 251.5,-191.2"/>
<text text-anchor="start" x="271.5" y="-198.3" font-family="Helvetica,sans-Serif" font-size="11.00" fill="#000000">data_type</text>
<polygon fill="none" stroke="#000000" points="480.5,-191.2 480.5,-213.2 596.5,-213.2 596.5,-191.2 480.5,-191.2"/>
<text text-anchor="start" x="483.5" y="-198.9" font-family="Helvetica,sans-Serif" font-size="11.00" fill="#000000">varchar[2147483647]</text>
<polygon fill="none" stroke="#000000" points="251.5,-169.2 251.5,-191.2 480.5,-191.2 480.5,-169.2 251.5,-169.2"/>
<text text-anchor="start" x="271.5" y="-176.3" font-family="Helvetica,sans-Serif" font-size="11.00" fill="#000000">name</text>
<polygon fill="none" stroke="#000000" points="480.5,-169.2 480.5,-191.2 596.5,-191.2 596.5,-169.2 480.5,-169.2"/>
<text text-anchor="start" x="483.5" y="-176.9" font-family="Helvetica,sans-Serif" font-size="11.00" fill="#000000">varchar[2147483647]</text>
<polygon fill="none" stroke="#000000" points="251.5,-147.2 251.5,-169.2 480.5,-169.2 480.5,-147.2 251.5,-147.2"/>
<text text-anchor="start" x="271.5" y="-154.3" font-family="Helvetica,sans-Serif" font-size="11.00" fill="#000000">metadata</text>
<polygon fill="none" stroke="#000000" points="480.5,-147.2 480.5,-169.2 596.5,-169.2 596.5,-147.2 480.5,-147.2"/>
<text text-anchor="start" x="483.5" y="-154.9" font-family="Helvetica,sans-Serif" font-size="11.00" fill="#000000">jsonb[2147483647]</text>
<polygon fill="none" stroke="#000000" points="251.5,-125.2 251.5,-147.2 480.5,-147.2 480.5,-125.2 251.5,-125.2"/>
<text text-anchor="start" x="271.5" y="-132.3" font-family="Helvetica,sans-Serif" font-size="11.00" fill="#000000">title</text>
<polygon fill="none" stroke="#000000" points="480.5,-125.2 480.5,-147.2 596.5,-147.2 596.5,-125.2 480.5,-125.2"/>
<text text-anchor="start" x="483.5" y="-132.9" font-family="Helvetica,sans-Serif" font-size="11.00" fill="#000000">varchar[2147483647]</text>
<polygon fill="none" stroke="#000000" points="251.5,-103.2 251.5,-125.2 480.5,-125.2 480.5,-103.2 251.5,-103.2"/>
<text text-anchor="start" x="271.5" y="-110.3" font-family="Helvetica,sans-Serif" font-size="11.00" fill="#000000">format</text>
<polygon fill="none" stroke="#000000" points="480.5,-103.2 480.5,-125.2 596.5,-125.2 596.5,-103.2 480.5,-103.2"/>
<text text-anchor="start" x="483.5" y="-110.9" font-family="Helvetica,sans-Serif" font-size="11.00" fill="#000000">varchar[2147483647]</text>
<polygon fill="none" stroke="#000000" points="251.5,-81.2 251.5,-103.2 480.5,-103.2 480.5,-81.2 251.5,-81.2"/>
<text text-anchor="start" x="271.5" y="-88.3" font-family="Helvetica,sans-Serif" font-size="11.00" fill="#000000">operation_ids</text>
<polygon fill="none" stroke="#000000" points="480.5,-81.2 480.5,-103.2 596.5,-103.2 596.5,-81.2 480.5,-81.2"/>
<text text-anchor="start" x="483.4769" y="-88.9" font-family="Helvetica,sans-Serif" font-size="11.00" fill="#000000">_varchar[2147483647]</text>
<polygon fill="none" stroke="#000000" points="251.5,-59.2 251.5,-81.2 480.5,-81.2 480.5,-59.2 251.5,-59.2"/>
<text text-anchor="start" x="271.5" y="-66.3" font-family="Helvetica,sans-Serif" font-size="11.00" fill="#000000">filename</text>
<polygon fill="none" stroke="#000000" points="480.5,-59.2 480.5,-81.2 596.5,-81.2 596.5,-59.2 480.5,-59.2"/>
<text text-anchor="start" x="483.5" y="-66.9" font-family="Helvetica,sans-Serif" font-size="11.00" fill="#000000">varchar[2147483647]</text>
<polygon fill="#ffffff" stroke="transparent" points="251.5,-40.2 251.5,-59.2 370.5,-59.2 370.5,-40.2 251.5,-40.2"/>
<polygon fill="none" stroke="#000000" points="251.5,-40.2 251.5,-59.2 370.5,-59.2 370.5,-40.2 251.5,-40.2"/>
<text text-anchor="start" x="254.5" y="-46.3" font-family="Helvetica,sans-Serif" font-size="11.00" fill="#000000">&lt; 5</text>
<polygon fill="#ffffff" stroke="transparent" points="370.5,-40.2 370.5,-59.2 480.5,-59.2 480.5,-40.2 370.5,-40.2"/>
<polygon fill="none" stroke="#000000" points="370.5,-40.2 370.5,-59.2 480.5,-59.2 480.5,-40.2 370.5,-40.2"/>
<text text-anchor="start" x="471.3862" y="-46.3" font-family="Helvetica,sans-Serif" font-size="11.00" fill="#000000"> &#160;</text>
<polygon fill="#ffffff" stroke="transparent" points="480.5,-40.2 480.5,-59.2 596.5,-59.2 596.5,-40.2 480.5,-40.2"/>
<polygon fill="none" stroke="#000000" points="480.5,-40.2 480.5,-59.2 596.5,-59.2 596.5,-40.2 480.5,-40.2"/>
<text text-anchor="start" x="577.9053" y="-46.3" font-family="Helvetica,sans-Serif" font-size="11.00" fill="#000000">0 &gt;</text>
<polygon fill="none" stroke="#000000" stroke-width="2" points="250,-39.2 250,-413.2 597,-413.2 597,-39.2 250,-39.2"/>
</a>
</g>
</g>
<!-- published_data -->
<g id="node2" class="node">
<title>published_data</title>
<g id="a_node2"><a xlink:href="../../tables/published_data.html" xlink:title="published_data" target="_top">
<polygon fill="#ffffff" stroke="transparent" points="40.5,-159.7 40.5,-264.7 167.5,-264.7 167.5,-159.7 40.5,-159.7"/>
<polygon fill="#f5f5f5" stroke="transparent" points="41,-241.2 41,-264.2 168,-264.2 168,-241.2 41,-241.2"/>
<polygon fill="none" stroke="#000000" points="41,-241.2 41,-264.2 168,-264.2 168,-241.2 41,-241.2"/>
<text text-anchor="start" x="46" y="-249.8" font-family="Helvetica,sans-Serif" font-weight="bold" font-size="11.00" fill="#000000">published_data</text>
<text text-anchor="start" x="133.5219" y="-249.3" font-family="Helvetica,sans-Serif" font-size="11.00" fill="#000000">[table]</text>
<polygon fill="none" stroke="#000000" points="41,-219.2 41,-241.2 168,-241.2 168,-219.2 41,-219.2"/>
<image xlink:href="../../images/primaryKeys.png" width="11px" height="12px" preserveAspectRatio="xMinYMin meet" x="46" y="-236.2"/>
<text text-anchor="start" x="70" y="-226.3" font-family="Helvetica,sans-Serif" font-size="11.00" fill="#000000">package_id</text>
<polygon fill="none" stroke="#000000" points="41,-197.2 41,-219.2 168,-219.2 168,-197.2 41,-197.2"/>
<image xlink:href="../../images/primaryKeys.png" width="11px" height="12px" preserveAspectRatio="xMinYMin meet" x="46" y="-214.2"/>
<text text-anchor="start" x="70" y="-204.3" font-family="Helvetica,sans-Serif" font-size="11.00" fill="#000000">checksum</text>
<polygon fill="none" stroke="#000000" points="41,-178.2 41,-197.2 168,-197.2 168,-178.2 41,-178.2"/>
<text text-anchor="start" x="44" y="-184.3" font-family="Helvetica,sans-Serif" font-size="11.00" fill="#000000">...</text>
<polygon fill="#ffffff" stroke="transparent" points="41,-159.2 41,-178.2 98,-178.2 98,-159.2 41,-159.2"/>
<polygon fill="none" stroke="#000000" points="41,-159.2 41,-178.2 98,-178.2 98,-159.2 41,-159.2"/>
<text text-anchor="start" x="44" y="-165.3" font-family="Helvetica,sans-Serif" font-size="11.00" fill="#000000">&lt; 1</text>
<polygon fill="#ffffff" stroke="transparent" points="98,-159.2 98,-178.2 128,-178.2 128,-159.2 98,-159.2"/>
<polygon fill="none" stroke="#000000" points="98,-159.2 98,-178.2 128,-178.2 128,-159.2 98,-159.2"/>
<text text-anchor="start" x="118.8862" y="-165.3" font-family="Helvetica,sans-Serif" font-size="11.00" fill="#000000"> &#160;</text>
<polygon fill="#ffffff" stroke="transparent" points="128,-159.2 128,-178.2 168,-178.2 168,-159.2 128,-159.2"/>
<polygon fill="none" stroke="#000000" points="128,-159.2 128,-178.2 168,-178.2 168,-159.2 128,-159.2"/>
<text text-anchor="start" x="149.4053" y="-165.3" font-family="Helvetica,sans-Serif" font-size="11.00" fill="#000000">2 &gt;</text>
</a>
</g>
</g>
<!-- published_version_revision_content&#45;&gt;published_data -->
<g id="edge1" class="edge">
<title>published_version_revision_content:w&#45;&gt;published_data:e</title>
<path fill="none" stroke="#000000" d="M237.1602,-309.6292C197.9667,-293.6141 221.7195,-208.2 168,-208.2"/>
<polygon fill="#000000" stroke="#000000" points="243.6255,-310.7882 250.8647,-315.7435 247.5628,-311.4941 251.5,-312.2 251.5,-312.2 251.5,-312.2 247.5628,-311.4941 252.1353,-308.6565 243.6255,-310.7882 243.6255,-310.7882"/>
<ellipse fill="none" stroke="#000000" cx="240.4758" cy="-310.2235" rx="3.2" ry="3.2"/>
</g>
<!-- published_version_revision_content&#45;&gt;published_data -->
<g id="edge2" class="edge">
<title>published_version_revision_content:w&#45;&gt;published_data:e</title>
<path fill="none" stroke="#000000" d="M237.1972,-375.8163C208.6623,-364.1682 231.4189,-312.2957 208,-275.2 193.7152,-252.5727 194.7591,-230.2 168,-230.2"/>
<polygon fill="#000000" stroke="#000000" points="243.6088,-376.8848 250.9082,-381.751 247.5544,-377.5424 251.5,-378.2 251.5,-378.2 251.5,-378.2 247.5544,-377.5424 252.0918,-374.649 243.6088,-376.8848 243.6088,-376.8848"/>
<ellipse fill="none" stroke="#000000" cx="240.4524" cy="-376.3588" rx="3.2" ry="3.2"/>
</g>
<!-- published_version -->
<g id="node3" class="node">
<title>published_version</title>
<g id="a_node3"><a xlink:href="../../tables/published_version.html" xlink:title="published_version" target="_top">
<polygon fill="#ffffff" stroke="transparent" points="8,-285.7 8,-412.7 200,-412.7 200,-285.7 8,-285.7"/>
<polygon fill="#f5f5f5" stroke="transparent" points="8,-389.2 8,-412.2 200,-412.2 200,-389.2 8,-389.2"/>
<polygon fill="none" stroke="#000000" points="8,-389.2 8,-412.2 200,-412.2 200,-389.2 8,-389.2"/>
<text text-anchor="start" x="13" y="-397.8" font-family="Helvetica,sans-Serif" font-weight="bold" font-size="11.00" fill="#000000">published_version</text>
<text text-anchor="start" x="165.0437" y="-397.3" font-family="Helvetica,sans-Serif" font-size="11.00" fill="#000000">[table]</text>
<polygon fill="none" stroke="#000000" points="8,-367.2 8,-389.2 200,-389.2 200,-367.2 8,-367.2"/>
<image xlink:href="../../images/primaryKeys.png" width="11px" height="12px" preserveAspectRatio="xMinYMin meet" x="13" y="-384.2"/>
<text text-anchor="start" x="28" y="-374.3" font-family="Helvetica,sans-Serif" font-size="11.00" fill="#000000">package_id</text>
<polygon fill="none" stroke="#000000" points="8,-345.2 8,-367.2 200,-367.2 200,-345.2 8,-345.2"/>
<image xlink:href="../../images/primaryKeys.png" width="11px" height="12px" preserveAspectRatio="xMinYMin meet" x="13" y="-362.2"/>
<text text-anchor="start" x="28" y="-352.3" font-family="Helvetica,sans-Serif" font-size="11.00" fill="#000000">version</text>
<polygon fill="none" stroke="#000000" points="8,-323.2 8,-345.2 200,-345.2 200,-323.2 8,-323.2"/>
<image xlink:href="../../images/primaryKeys.png" width="11px" height="12px" preserveAspectRatio="xMinYMin meet" x="13" y="-340.2"/>
<text text-anchor="start" x="28" y="-330.3" font-family="Helvetica,sans-Serif" font-size="11.00" fill="#000000">revision</text>
<polygon fill="none" stroke="#000000" points="8,-304.2 8,-323.2 200,-323.2 200,-304.2 8,-304.2"/>
<text text-anchor="start" x="11" y="-310.3" font-family="Helvetica,sans-Serif" font-size="11.00" fill="#000000">...</text>
<polygon fill="#ffffff" stroke="transparent" points="8,-285.2 8,-304.2 95,-304.2 95,-285.2 8,-285.2"/>
<polygon fill="none" stroke="#000000" points="8,-285.2 8,-304.2 95,-304.2 95,-285.2 8,-285.2"/>
<text text-anchor="start" x="11" y="-291.3" font-family="Helvetica,sans-Serif" font-size="11.00" fill="#000000">&lt; 1</text>
<polygon fill="#ffffff" stroke="transparent" points="95,-285.2 95,-304.2 140,-304.2 140,-285.2 95,-285.2"/>
<polygon fill="none" stroke="#000000" points="95,-285.2 95,-304.2 140,-304.2 140,-285.2 95,-285.2"/>
<text text-anchor="start" x="130.8862" y="-291.3" font-family="Helvetica,sans-Serif" font-size="11.00" fill="#000000"> &#160;</text>
<polygon fill="#ffffff" stroke="transparent" points="140,-285.2 140,-304.2 200,-304.2 200,-285.2 140,-285.2"/>
<polygon fill="none" stroke="#000000" points="140,-285.2 140,-304.2 200,-304.2 200,-285.2 140,-285.2"/>
<text text-anchor="start" x="175.2904" y="-291.3" font-family="Helvetica,sans-Serif" font-size="11.00" fill="#000000">18 &gt;</text>
</a>
</g>
</g>
<!-- published_version_revision_content&#45;&gt;published_version -->
<g id="edge3" class="edge">
<title>published_version_revision_content:w&#45;&gt;published_version:e</title>
<path fill="none" stroke="#000000" d="M237.0156,-378.2C224.6771,-378.2 217.1667,-378.2 200,-378.2"/>
<polygon fill="#000000" stroke="#000000" points="243.5,-378.2001 251.5,-381.8 247.5,-378.2 251.5,-378.2 251.5,-378.2 251.5,-378.2 247.5,-378.2 251.5,-374.6 243.5,-378.2001 243.5,-378.2001"/>
<ellipse fill="none" stroke="#000000" cx="240.3" cy="-378.2001" rx="3.2" ry="3.2"/>
</g>
<!-- published_version_revision_content&#45;&gt;published_version -->
<g id="edge4" class="edge">
<title>published_version_revision_content:w&#45;&gt;published_version:e</title>
<path fill="none" stroke="#000000" d="M237.0156,-334.2C224.6771,-334.2 217.1667,-334.2 200,-334.2"/>
<polygon fill="#000000" stroke="#000000" points="243.5,-334.2001 251.5,-337.8 247.5,-334.2 251.5,-334.2 251.5,-334.2 251.5,-334.2 247.5,-334.2 251.5,-330.6 243.5,-334.2001 243.5,-334.2001"/>
<ellipse fill="none" stroke="#000000" cx="240.3" cy="-334.2001" rx="3.2" ry="3.2"/>
</g>
<!-- published_version_revision_content&#45;&gt;published_version -->
<g id="edge5" class="edge">
<title>published_version_revision_content:w&#45;&gt;published_version:e</title>
<path fill="none" stroke="#000000" d="M237.0156,-356.2C224.6771,-356.2 217.1667,-356.2 200,-356.2"/>
<polygon fill="#000000" stroke="#000000" points="243.5,-356.2001 251.5,-359.8 247.5,-356.2 251.5,-356.2 251.5,-356.2 251.5,-356.2 247.5,-356.2 251.5,-352.6 243.5,-356.2001 243.5,-356.2001"/>
<ellipse fill="none" stroke="#000000" cx="240.3" cy="-356.2001" rx="3.2" ry="3.2"/>
</g>
</g>
</svg>
