<?xml version="1.0" encoding="UTF-8" standalone="no"?>
<!DOCTYPE svg PUBLIC "-//W3C//DTD SVG 1.1//EN"
 "http://www.w3.org/Graphics/SVG/1.1/DTD/svg11.dtd">
<!-- Generated by graphviz version 2.40.1 (20161225.0304)
 -->
<!-- Title: twoDegreesRelationshipsDiagram Pages: 1 -->
<svg width="741pt" height="727pt"
 viewBox="0.00 0.00 741.00 727.20" xmlns="http://www.w3.org/2000/svg" xmlns:xlink="http://www.w3.org/1999/xlink">
<g id="graph0" class="graph" transform="scale(1 1) rotate(0) translate(4 723.2)">
<title>twoDegreesRelationshipsDiagram</title>
<polygon fill="#ffffff" stroke="transparent" points="-4,4 -4,-723.2 737,-723.2 737,4 -4,4"/>
<text text-anchor="middle" x="72.4936" y="-7.3" font-family="Helvetica,sans-Serif" font-size="11.00" fill="#000000">Generated by SchemaSpy</text>
<!-- operation -->
<g id="node1" class="node">
<title>operation</title>
<g id="a_node1"><a xlink:href="../../tables/operation.html" xlink:title="operation" target="_top">
<polygon fill="#ffffff" stroke="transparent" points="528.5,-654.2 528.5,-715.2 621.5,-715.2 621.5,-654.2 528.5,-654.2"/>
<polygon fill="#f5f5f5" stroke="transparent" points="529,-691.7 529,-714.7 622,-714.7 622,-691.7 529,-691.7"/>
<polygon fill="none" stroke="#000000" points="529,-691.7 529,-714.7 622,-714.7 622,-691.7 529,-691.7"/>
<text text-anchor="start" x="534" y="-700.3" font-family="Helvetica,sans-Serif" font-weight="bold" font-size="11.00" fill="#000000">operation</text>
<text text-anchor="start" x="587.5219" y="-699.8" font-family="Helvetica,sans-Serif" font-size="11.00" fill="#000000">[table]</text>
<polygon fill="none" stroke="#000000" points="529,-672.7 529,-691.7 622,-691.7 622,-672.7 529,-672.7"/>
<text text-anchor="start" x="532" y="-678.8" font-family="Helvetica,sans-Serif" font-size="11.00" fill="#000000">...</text>
<polygon fill="#ffffff" stroke="transparent" points="529,-653.7 529,-672.7 569,-672.7 569,-653.7 529,-653.7"/>
<polygon fill="none" stroke="#000000" points="529,-653.7 529,-672.7 569,-672.7 569,-653.7 529,-653.7"/>
<text text-anchor="start" x="532" y="-659.8" font-family="Helvetica,sans-Serif" font-size="11.00" fill="#000000">&lt; 4</text>
<polygon fill="#ffffff" stroke="transparent" points="569,-653.7 569,-672.7 591,-672.7 591,-653.7 569,-653.7"/>
<polygon fill="none" stroke="#000000" points="569,-653.7 569,-672.7 591,-672.7 591,-653.7 569,-653.7"/>
<text text-anchor="start" x="581.8862" y="-659.8" font-family="Helvetica,sans-Serif" font-size="11.00" fill="#000000"> &#160;</text>
<polygon fill="#ffffff" stroke="transparent" points="591,-653.7 591,-672.7 622,-672.7 622,-653.7 591,-653.7"/>
<polygon fill="none" stroke="#000000" points="591,-653.7 591,-672.7 622,-672.7 622,-653.7 591,-653.7"/>
<text text-anchor="start" x="603.4053" y="-659.8" font-family="Helvetica,sans-Serif" font-size="11.00" fill="#000000">4 &gt;</text>
</a>
</g>
</g>
<!-- published_version -->
<g id="node2" class="node">
<title>published_version</title>
<g id="a_node2"><a xlink:href="../../tables/published_version.html" xlink:title="published_version" target="_top">
<polygon fill="#ffffff" stroke="transparent" points="184,-382.2 184,-509.2 376,-509.2 376,-382.2 184,-382.2"/>
<polygon fill="#f5f5f5" stroke="transparent" points="184,-485.7 184,-508.7 376,-508.7 376,-485.7 184,-485.7"/>
<polygon fill="none" stroke="#000000" points="184,-485.7 184,-508.7 376,-508.7 376,-485.7 184,-485.7"/>
<text text-anchor="start" x="189" y="-494.3" font-family="Helvetica,sans-Serif" font-weight="bold" font-size="11.00" fill="#000000">published_version</text>
<text text-anchor="start" x="341.0437" y="-493.8" font-family="Helvetica,sans-Serif" font-size="11.00" fill="#000000">[table]</text>
<polygon fill="none" stroke="#000000" points="184,-463.7 184,-485.7 376,-485.7 376,-463.7 184,-463.7"/>
<image xlink:href="../../images/primaryKeys.png" width="11px" height="12px" preserveAspectRatio="xMinYMin meet" x="189" y="-480.7"/>
<text text-anchor="start" x="204" y="-470.8" font-family="Helvetica,sans-Serif" font-size="11.00" fill="#000000">package_id</text>
<polygon fill="none" stroke="#000000" points="184,-441.7 184,-463.7 376,-463.7 376,-441.7 184,-441.7"/>
<image xlink:href="../../images/primaryKeys.png" width="11px" height="12px" preserveAspectRatio="xMinYMin meet" x="189" y="-458.7"/>
<text text-anchor="start" x="204" y="-448.8" font-family="Helvetica,sans-Serif" font-size="11.00" fill="#000000">version</text>
<polygon fill="none" stroke="#000000" points="184,-419.7 184,-441.7 376,-441.7 376,-419.7 184,-419.7"/>
<image xlink:href="../../images/primaryKeys.png" width="11px" height="12px" preserveAspectRatio="xMinYMin meet" x="189" y="-436.7"/>
<text text-anchor="start" x="204" y="-426.8" font-family="Helvetica,sans-Serif" font-size="11.00" fill="#000000">revision</text>
<polygon fill="none" stroke="#000000" points="184,-400.7 184,-419.7 376,-419.7 376,-400.7 184,-400.7"/>
<text text-anchor="start" x="187" y="-406.8" font-family="Helvetica,sans-Serif" font-size="11.00" fill="#000000">...</text>
<polygon fill="#ffffff" stroke="transparent" points="184,-381.7 184,-400.7 271,-400.7 271,-381.7 184,-381.7"/>
<polygon fill="none" stroke="#000000" points="184,-381.7 184,-400.7 271,-400.7 271,-381.7 184,-381.7"/>
<text text-anchor="start" x="187" y="-387.8" font-family="Helvetica,sans-Serif" font-size="11.00" fill="#000000">&lt; 1</text>
<polygon fill="#ffffff" stroke="transparent" points="271,-381.7 271,-400.7 316,-400.7 316,-381.7 271,-381.7"/>
<polygon fill="none" stroke="#000000" points="271,-381.7 271,-400.7 316,-400.7 316,-381.7 271,-381.7"/>
<text text-anchor="start" x="306.8862" y="-387.8" font-family="Helvetica,sans-Serif" font-size="11.00" fill="#000000"> &#160;</text>
<polygon fill="#ffffff" stroke="transparent" points="316,-381.7 316,-400.7 376,-400.7 376,-381.7 316,-381.7"/>
<polygon fill="none" stroke="#000000" points="316,-381.7 316,-400.7 376,-400.7 376,-381.7 316,-381.7"/>
<text text-anchor="start" x="351.2904" y="-387.8" font-family="Helvetica,sans-Serif" font-size="11.00" fill="#000000">18 &gt;</text>
</a>
</g>
</g>
<!-- operation&#45;&gt;published_version -->
<g id="edge1" class="edge">
<title>operation:w&#45;&gt;published_version:e</title>
<path fill="none" stroke="#000000" d="M514.3812,-681.6849C471.646,-681.4764 449.0123,-678.6995 417,-643.7 364.8358,-586.6683 453.2899,-474.7 376,-474.7"/>
<polygon fill="#000000" stroke="#000000" points="521,-681.6917 528.9963,-685.3 525,-681.6959 529,-681.7 529,-681.7 529,-681.7 525,-681.6959 529.0037,-678.1 521,-681.6917 521,-681.6917"/>
<ellipse fill="none" stroke="#000000" cx="517.8" cy="-681.6884" rx="3.2" ry="3.2"/>
</g>
<!-- operation&#45;&gt;published_version -->
<g id="edge2" class="edge">
<title>operation:w&#45;&gt;published_version:e</title>
<path fill="none" stroke="#000000" d="M514.357,-681.7066C471.4807,-681.6239 448.166,-679.4551 417,-643.7 353.6551,-571.0278 472.4045,-430.7 376,-430.7"/>
<polygon fill="#000000" stroke="#000000" points="521,-681.7036 529.0016,-685.3 525,-681.7018 529,-681.7 529,-681.7 529,-681.7 525,-681.7018 528.9984,-678.1 521,-681.7036 521,-681.7036"/>
<ellipse fill="none" stroke="#000000" cx="517.8" cy="-681.7051" rx="3.2" ry="3.2"/>
</g>
<!-- operation&#45;&gt;published_version -->
<g id="edge3" class="edge">
<title>operation:w&#45;&gt;published_version:e</title>
<path fill="none" stroke="#000000" d="M514.3678,-681.697C471.5547,-681.5588 448.5448,-679.1214 417,-643.7 359.2577,-578.8617 462.8227,-452.7 376,-452.7"/>
<polygon fill="#000000" stroke="#000000" points="521,-681.6983 528.9992,-685.3 525,-681.6992 529,-681.7 529,-681.7 529,-681.7 525,-681.6992 529.0008,-678.1 521,-681.6983 521,-681.6983"/>
<ellipse fill="none" stroke="#000000" cx="517.8" cy="-681.6976" rx="3.2" ry="3.2"/>
</g>
<!-- package_group -->
<g id="node5" class="node">
<title>package_group</title>
<g id="a_node5"><a xlink:href="../../tables/package_group.html" xlink:title="package_group" target="_top">
<polygon fill="#ffffff" stroke="transparent" points="8,-447.2 8,-508.2 135,-508.2 135,-447.2 8,-447.2"/>
<polygon fill="#f5f5f5" stroke="transparent" points="8.5,-484.7 8.5,-507.7 135.5,-507.7 135.5,-484.7 8.5,-484.7"/>
<polygon fill="none" stroke="#000000" points="8.5,-484.7 8.5,-507.7 135.5,-507.7 135.5,-484.7 8.5,-484.7"/>
<text text-anchor="start" x="13.5" y="-493.3" font-family="Helvetica,sans-Serif" font-weight="bold" font-size="11.00" fill="#000000">package_group</text>
<text text-anchor="start" x="101.0219" y="-492.8" font-family="Helvetica,sans-Serif" font-size="11.00" fill="#000000">[table]</text>
<polygon fill="none" stroke="#000000" points="8.5,-465.7 8.5,-484.7 135.5,-484.7 135.5,-465.7 8.5,-465.7"/>
<text text-anchor="start" x="11.5" y="-471.8" font-family="Helvetica,sans-Serif" font-size="11.00" fill="#000000">...</text>
<polygon fill="#ffffff" stroke="transparent" points="8.5,-446.7 8.5,-465.7 62.5,-465.7 62.5,-446.7 8.5,-446.7"/>
<polygon fill="none" stroke="#000000" points="8.5,-446.7 8.5,-465.7 62.5,-465.7 62.5,-446.7 8.5,-446.7"/>
<text text-anchor="start" x="11.5" y="-452.8" font-family="Helvetica,sans-Serif" font-size="11.00" fill="#000000">&lt; 1</text>
<polygon fill="#ffffff" stroke="transparent" points="62.5,-446.7 62.5,-465.7 91.5,-465.7 91.5,-446.7 62.5,-446.7"/>
<polygon fill="none" stroke="#000000" points="62.5,-446.7 62.5,-465.7 91.5,-465.7 91.5,-446.7 62.5,-446.7"/>
<text text-anchor="start" x="82.3862" y="-452.8" font-family="Helvetica,sans-Serif" font-size="11.00" fill="#000000"> &#160;</text>
<polygon fill="#ffffff" stroke="transparent" points="91.5,-446.7 91.5,-465.7 135.5,-465.7 135.5,-446.7 91.5,-446.7"/>
<polygon fill="none" stroke="#000000" points="91.5,-446.7 91.5,-465.7 135.5,-465.7 135.5,-446.7 91.5,-446.7"/>
<text text-anchor="start" x="110.7904" y="-452.8" font-family="Helvetica,sans-Serif" font-size="11.00" fill="#000000">14 &gt;</text>
</a>
</g>
</g>
<!-- published_version&#45;&gt;package_group -->
<g id="edge10" class="edge">
<title>published_version:w&#45;&gt;package_group:e</title>
<path fill="none" stroke="#000000" d="M169.2829,-474.7C158.2886,-474.7 151.1615,-474.7 135.5,-474.7"/>
<polygon fill="#000000" stroke="#000000" points="176,-474.7001 184,-478.3 180,-474.7 184,-474.7 184,-474.7 184,-474.7 180,-474.7 184,-471.1 176,-474.7001 176,-474.7001"/>
<ellipse fill="none" stroke="#000000" cx="172.8" cy="-474.7001" rx="3.2" ry="3.2"/>
</g>
<!-- operation_group -->
<g id="node3" class="node">
<title>operation_group</title>
<g id="a_node3"><a xlink:href="../../tables/operation_group.html" xlink:title="operation_group" target="_top">
<polygon fill="#ffffff" stroke="transparent" points="508,-572.2 508,-633.2 642,-633.2 642,-572.2 508,-572.2"/>
<polygon fill="#f5f5f5" stroke="transparent" points="508,-609.7 508,-632.7 642,-632.7 642,-609.7 508,-609.7"/>
<polygon fill="none" stroke="#000000" points="508,-609.7 508,-632.7 642,-632.7 642,-609.7 508,-609.7"/>
<text text-anchor="start" x="513" y="-618.3" font-family="Helvetica,sans-Serif" font-weight="bold" font-size="11.00" fill="#000000">operation_group</text>
<text text-anchor="start" x="607.5219" y="-617.8" font-family="Helvetica,sans-Serif" font-size="11.00" fill="#000000">[table]</text>
<polygon fill="none" stroke="#000000" points="508,-590.7 508,-609.7 642,-609.7 642,-590.7 508,-590.7"/>
<text text-anchor="start" x="511" y="-596.8" font-family="Helvetica,sans-Serif" font-size="11.00" fill="#000000">...</text>
<polygon fill="#ffffff" stroke="transparent" points="508,-571.7 508,-590.7 569,-590.7 569,-571.7 508,-571.7"/>
<polygon fill="none" stroke="#000000" points="508,-571.7 508,-590.7 569,-590.7 569,-571.7 508,-571.7"/>
<text text-anchor="start" x="511" y="-577.8" font-family="Helvetica,sans-Serif" font-size="11.00" fill="#000000">&lt; 3</text>
<polygon fill="#ffffff" stroke="transparent" points="569,-571.7 569,-590.7 601,-590.7 601,-571.7 569,-571.7"/>
<polygon fill="none" stroke="#000000" points="569,-571.7 569,-590.7 601,-590.7 601,-571.7 569,-571.7"/>
<text text-anchor="start" x="591.8862" y="-577.8" font-family="Helvetica,sans-Serif" font-size="11.00" fill="#000000"> &#160;</text>
<polygon fill="#ffffff" stroke="transparent" points="601,-571.7 601,-590.7 642,-590.7 642,-571.7 601,-571.7"/>
<polygon fill="none" stroke="#000000" points="601,-571.7 601,-590.7 642,-590.7 642,-571.7 601,-571.7"/>
<text text-anchor="start" x="623.4053" y="-577.8" font-family="Helvetica,sans-Serif" font-size="11.00" fill="#000000">2 &gt;</text>
</a>
</g>
</g>
<!-- operation_group&#45;&gt;published_version -->
<g id="edge4" class="edge">
<title>operation_group:w&#45;&gt;published_version:e</title>
<path fill="none" stroke="#000000" d="M493.2452,-599.3344C460.1815,-597.5015 444.8425,-588.3216 417,-561.7 386.1047,-532.1595 418.7453,-474.7 376,-474.7"/>
<polygon fill="#000000" stroke="#000000" points="500.0025,-599.5018 507.9108,-603.2989 504.0012,-599.6009 508,-599.7 508,-599.7 508,-599.7 504.0012,-599.6009 508.0892,-596.1011 500.0025,-599.5018 500.0025,-599.5018"/>
<ellipse fill="none" stroke="#000000" cx="496.8034" cy="-599.4225" rx="3.2" ry="3.2"/>
</g>
<!-- operation_group&#45;&gt;published_version -->
<g id="edge5" class="edge">
<title>operation_group:w&#45;&gt;published_version:e</title>
<path fill="none" stroke="#000000" d="M493.1621,-599.4155C459.7241,-597.9482 442.954,-590.1659 417,-561.7 375.8964,-516.6182 437.0072,-430.7 376,-430.7"/>
<polygon fill="#000000" stroke="#000000" points="500.0015,-599.5466 507.931,-603.2993 504.0007,-599.6233 508,-599.7 508,-599.7 508,-599.7 504.0007,-599.6233 508.069,-596.1007 500.0015,-599.5466 500.0015,-599.5466"/>
<ellipse fill="none" stroke="#000000" cx="496.8021" cy="-599.4852" rx="3.2" ry="3.2"/>
</g>
<!-- operation_group&#45;&gt;published_version -->
<g id="edge6" class="edge">
<title>operation_group:w&#45;&gt;published_version:e</title>
<path fill="none" stroke="#000000" d="M493.197,-599.3828C459.9162,-597.768 443.7471,-589.422 417,-561.7 381.0623,-524.4523 427.7582,-452.7 376,-452.7"/>
<polygon fill="#000000" stroke="#000000" points="500.0018,-599.5286 507.9229,-603.2992 504.0009,-599.6143 508,-599.7 508,-599.7 508,-599.7 504.0009,-599.6143 508.0771,-596.1008 500.0018,-599.5286 500.0018,-599.5286"/>
<ellipse fill="none" stroke="#000000" cx="496.8026" cy="-599.46" rx="3.2" ry="3.2"/>
</g>
<!-- published_sources -->
<g id="node4" class="node">
<title>published_sources</title>
<g id="a_node4"><a xlink:href="../../tables/published_sources.html" xlink:title="published_sources" target="_top">
<polygon fill="#ffffff" stroke="transparent" points="501,-490.2 501,-551.2 649,-551.2 649,-490.2 501,-490.2"/>
<polygon fill="#f5f5f5" stroke="transparent" points="501,-527.7 501,-550.7 649,-550.7 649,-527.7 501,-527.7"/>
<polygon fill="none" stroke="#000000" points="501,-527.7 501,-550.7 649,-550.7 649,-527.7 501,-527.7"/>
<text text-anchor="start" x="506" y="-536.3" font-family="Helvetica,sans-Serif" font-weight="bold" font-size="11.00" fill="#000000">published_sources</text>
<text text-anchor="start" x="614.5219" y="-535.8" font-family="Helvetica,sans-Serif" font-size="11.00" fill="#000000">[table]</text>
<polygon fill="none" stroke="#000000" points="501,-508.7 501,-527.7 649,-527.7 649,-508.7 501,-508.7"/>
<text text-anchor="start" x="504" y="-514.8" font-family="Helvetica,sans-Serif" font-size="11.00" fill="#000000">...</text>
<polygon fill="#ffffff" stroke="transparent" points="501,-489.7 501,-508.7 573,-508.7 573,-489.7 501,-489.7"/>
<polygon fill="none" stroke="#000000" points="501,-489.7 501,-508.7 573,-508.7 573,-489.7 501,-489.7"/>
<text text-anchor="start" x="504" y="-495.8" font-family="Helvetica,sans-Serif" font-size="11.00" fill="#000000">&lt; 4</text>
<polygon fill="#ffffff" stroke="transparent" points="573,-489.7 573,-508.7 611,-508.7 611,-489.7 573,-489.7"/>
<polygon fill="none" stroke="#000000" points="573,-489.7 573,-508.7 611,-508.7 611,-489.7 573,-489.7"/>
<text text-anchor="start" x="601.8862" y="-495.8" font-family="Helvetica,sans-Serif" font-size="11.00" fill="#000000"> &#160;</text>
<polygon fill="#ffffff" stroke="transparent" points="611,-489.7 611,-508.7 649,-508.7 649,-489.7 611,-489.7"/>
<polygon fill="none" stroke="#000000" points="611,-489.7 611,-508.7 649,-508.7 649,-489.7 611,-489.7"/>
<text text-anchor="start" x="639.8862" y="-495.8" font-family="Helvetica,sans-Serif" font-size="11.00" fill="#000000"> &#160;</text>
</a>
</g>
</g>
<!-- published_sources&#45;&gt;published_version -->
<g id="edge7" class="edge">
<title>published_sources:w&#45;&gt;published_version:e</title>
<path fill="none" stroke="#000000" d="M486.6272,-516.7619C440.5352,-510.4736 429.5871,-474.7 376,-474.7"/>
<polygon fill="#000000" stroke="#000000" points="493.017,-517.1789 500.7655,-521.2924 497.0085,-517.4394 501,-517.7 501,-517.7 501,-517.7 497.0085,-517.4394 501.2345,-514.1076 493.017,-517.1789 493.017,-517.1789"/>
<ellipse fill="none" stroke="#000000" cx="489.8238" cy="-516.9705" rx="3.2" ry="3.2"/>
</g>
<!-- published_sources&#45;&gt;published_version -->
<g id="edge8" class="edge">
<title>published_sources:w&#45;&gt;published_version:e</title>
<path fill="none" stroke="#000000" d="M486.5654,-517.0445C456.9759,-514.0996 445.4272,-501.2855 417,-479.7 394.385,-462.5278 404.3958,-430.7 376,-430.7"/>
<polygon fill="#000000" stroke="#000000" points="493.0082,-517.337 500.8367,-521.2963 497.0041,-517.5185 501,-517.7 501,-517.7 501,-517.7 497.0041,-517.5185 501.1633,-514.1037 493.0082,-517.337 493.0082,-517.337"/>
<ellipse fill="none" stroke="#000000" cx="489.8115" cy="-517.1919" rx="3.2" ry="3.2"/>
</g>
<!-- published_sources&#45;&gt;published_version -->
<g id="edge9" class="edge">
<title>published_sources:w&#45;&gt;published_version:e</title>
<path fill="none" stroke="#000000" d="M486.3178,-516.7746C457.6217,-512.8314 448.1223,-496.8477 417,-479.7 397.8901,-469.1709 397.8186,-452.7 376,-452.7"/>
<polygon fill="#000000" stroke="#000000" points="493.0158,-517.1967 500.7735,-521.2929 497.0079,-517.4484 501,-517.7 501,-517.7 501,-517.7 497.0079,-517.4484 501.2265,-514.1071 493.0158,-517.1967 493.0158,-517.1967"/>
<ellipse fill="none" stroke="#000000" cx="489.8222" cy="-516.9954" rx="3.2" ry="3.2"/>
</g>
<!-- published_version_reference -->
<g id="node6" class="node">
<title>published_version_reference</title>
<g id="a_node6"><a xlink:href="../../tables/published_version_reference.html" xlink:title="published_version_reference" target="_top">
<polygon fill="#ffffff" stroke="transparent" points="425,-202.7 425,-468.7 725,-468.7 725,-202.7 425,-202.7"/>
<polygon fill="#f5f5f5" stroke="transparent" points="427,-443.7 427,-466.7 723,-466.7 723,-443.7 427,-443.7"/>
<polygon fill="none" stroke="#000000" points="427,-443.7 427,-466.7 723,-466.7 723,-443.7 427,-443.7"/>
<text text-anchor="start" x="432" y="-452.3" font-family="Helvetica,sans-Serif" font-weight="bold" font-size="11.00" fill="#000000">published_version_reference</text>
<text text-anchor="start" x="688.0437" y="-451.8" font-family="Helvetica,sans-Serif" font-size="11.00" fill="#000000">[table]</text>
<polygon fill="none" stroke="#000000" points="427,-421.7 427,-443.7 614,-443.7 614,-421.7 427,-421.7"/>
<image xlink:href="../../images/primaryKeys.png" width="11px" height="12px" preserveAspectRatio="xMinYMin meet" x="432" y="-438.7"/>
<text text-anchor="start" x="447" y="-428.8" font-family="Helvetica,sans-Serif" font-size="11.00" fill="#000000">package_id</text>
<polygon fill="none" stroke="#000000" points="614,-421.7 614,-443.7 723,-443.7 723,-421.7 614,-421.7"/>
<text text-anchor="start" x="616.5344" y="-429.4" font-family="Helvetica,sans-Serif" font-size="11.00" fill="#000000">varchar[2147483647]</text>
<polygon fill="none" stroke="#000000" points="427,-399.7 427,-421.7 614,-421.7 614,-399.7 427,-399.7"/>
<image xlink:href="../../images/primaryKeys.png" width="11px" height="12px" preserveAspectRatio="xMinYMin meet" x="432" y="-416.7"/>
<text text-anchor="start" x="447" y="-406.8" font-family="Helvetica,sans-Serif" font-size="11.00" fill="#000000">version</text>
<polygon fill="none" stroke="#000000" points="614,-399.7 614,-421.7 723,-421.7 723,-399.7 614,-399.7"/>
<text text-anchor="start" x="616.5344" y="-407.4" font-family="Helvetica,sans-Serif" font-size="11.00" fill="#000000">varchar[2147483647]</text>
<polygon fill="none" stroke="#000000" points="427,-377.7 427,-399.7 614,-399.7 614,-377.7 427,-377.7"/>
<image xlink:href="../../images/primaryKeys.png" width="11px" height="12px" preserveAspectRatio="xMinYMin meet" x="432" y="-394.7"/>
<text text-anchor="start" x="447" y="-384.8" font-family="Helvetica,sans-Serif" font-size="11.00" fill="#000000">revision</text>
<polygon fill="none" stroke="#000000" points="614,-377.7 614,-399.7 723,-399.7 723,-377.7 614,-377.7"/>
<text text-anchor="start" x="617" y="-385.4" font-family="Helvetica,sans-Serif" font-size="11.00" fill="#000000">int4[10]</text>
<polygon fill="none" stroke="#000000" points="427,-355.7 427,-377.7 614,-377.7 614,-355.7 427,-355.7"/>
<image xlink:href="../../images/primaryKeys.png" width="11px" height="12px" preserveAspectRatio="xMinYMin meet" x="432" y="-372.7"/>
<text text-anchor="start" x="447" y="-362.8" font-family="Helvetica,sans-Serif" font-size="11.00" fill="#000000">reference_id</text>
<polygon fill="none" stroke="#000000" points="614,-355.7 614,-377.7 723,-377.7 723,-355.7 614,-355.7"/>
<text text-anchor="start" x="616.5344" y="-363.4" font-family="Helvetica,sans-Serif" font-size="11.00" fill="#000000">varchar[2147483647]</text>
<polygon fill="none" stroke="#000000" points="427,-333.7 427,-355.7 614,-355.7 614,-333.7 427,-333.7"/>
<image xlink:href="../../images/primaryKeys.png" width="11px" height="12px" preserveAspectRatio="xMinYMin meet" x="432" y="-350.7"/>
<text text-anchor="start" x="447" y="-340.8" font-family="Helvetica,sans-Serif" font-size="11.00" fill="#000000">reference_version</text>
<polygon fill="none" stroke="#000000" points="614,-333.7 614,-355.7 723,-355.7 723,-333.7 614,-333.7"/>
<text text-anchor="start" x="616.5344" y="-341.4" font-family="Helvetica,sans-Serif" font-size="11.00" fill="#000000">varchar[2147483647]</text>
<polygon fill="none" stroke="#000000" points="427,-311.7 427,-333.7 614,-333.7 614,-311.7 427,-311.7"/>
<image xlink:href="../../images/primaryKeys.png" width="11px" height="12px" preserveAspectRatio="xMinYMin meet" x="432" y="-328.7"/>
<text text-anchor="start" x="447" y="-318.8" font-family="Helvetica,sans-Serif" font-size="11.00" fill="#000000">reference_revision</text>
<polygon fill="none" stroke="#000000" points="614,-311.7 614,-333.7 723,-333.7 723,-311.7 614,-311.7"/>
<text text-anchor="start" x="617" y="-319.4" font-family="Helvetica,sans-Serif" font-size="11.00" fill="#000000">int4[10]</text>
<polygon fill="none" stroke="#000000" points="427,-289.7 427,-311.7 614,-311.7 614,-289.7 427,-289.7"/>
<image xlink:href="../../images/primaryKeys.png" width="11px" height="12px" preserveAspectRatio="xMinYMin meet" x="432" y="-306.7"/>
<text text-anchor="start" x="447" y="-296.8" font-family="Helvetica,sans-Serif" font-size="11.00" fill="#000000">parent_reference_id</text>
<polygon fill="none" stroke="#000000" points="614,-289.7 614,-311.7 723,-311.7 723,-289.7 614,-289.7"/>
<text text-anchor="start" x="616.5344" y="-297.4" font-family="Helvetica,sans-Serif" font-size="11.00" fill="#000000">varchar[2147483647]</text>
<polygon fill="none" stroke="#000000" points="427,-267.7 427,-289.7 614,-289.7 614,-267.7 427,-267.7"/>
<image xlink:href="../../images/primaryKeys.png" width="11px" height="12px" preserveAspectRatio="xMinYMin meet" x="432" y="-284.7"/>
<text text-anchor="start" x="447" y="-274.8" font-family="Helvetica,sans-Serif" font-size="11.00" fill="#000000">parent_reference_version</text>
<polygon fill="none" stroke="#000000" points="614,-267.7 614,-289.7 723,-289.7 723,-267.7 614,-267.7"/>
<text text-anchor="start" x="616.5344" y="-275.4" font-family="Helvetica,sans-Serif" font-size="11.00" fill="#000000">varchar[2147483647]</text>
<polygon fill="none" stroke="#000000" points="427,-245.7 427,-267.7 614,-267.7 614,-245.7 427,-245.7"/>
<image xlink:href="../../images/primaryKeys.png" width="11px" height="12px" preserveAspectRatio="xMinYMin meet" x="432" y="-262.7"/>
<text text-anchor="start" x="447" y="-252.8" font-family="Helvetica,sans-Serif" font-size="11.00" fill="#000000">parent_reference_revision</text>
<polygon fill="none" stroke="#000000" points="614,-245.7 614,-267.7 723,-267.7 723,-245.7 614,-245.7"/>
<text text-anchor="start" x="617" y="-253.4" font-family="Helvetica,sans-Serif" font-size="11.00" fill="#000000">int4[10]</text>
<polygon fill="none" stroke="#000000" points="427,-223.7 427,-245.7 614,-245.7 614,-223.7 427,-223.7"/>
<text text-anchor="start" x="447" y="-230.8" font-family="Helvetica,sans-Serif" font-size="11.00" fill="#000000">excluded</text>
<polygon fill="none" stroke="#000000" points="614,-223.7 614,-245.7 723,-245.7 723,-223.7 614,-223.7"/>
<text text-anchor="start" x="617" y="-231.4" font-family="Helvetica,sans-Serif" font-size="11.00" fill="#000000">bool[1]</text>
<polygon fill="#ffffff" stroke="transparent" points="427,-204.7 427,-223.7 525,-223.7 525,-204.7 427,-204.7"/>
<polygon fill="none" stroke="#000000" points="427,-204.7 427,-223.7 525,-223.7 525,-204.7 427,-204.7"/>
<text text-anchor="start" x="430" y="-210.8" font-family="Helvetica,sans-Serif" font-size="11.00" fill="#000000">&lt; 3</text>
<polygon fill="#ffffff" stroke="transparent" points="525,-204.7 525,-223.7 614,-223.7 614,-204.7 525,-204.7"/>
<polygon fill="none" stroke="#000000" points="525,-204.7 525,-223.7 614,-223.7 614,-204.7 525,-204.7"/>
<text text-anchor="start" x="604.8862" y="-210.8" font-family="Helvetica,sans-Serif" font-size="11.00" fill="#000000"> &#160;</text>
<polygon fill="#ffffff" stroke="transparent" points="614,-204.7 614,-223.7 723,-223.7 723,-204.7 614,-204.7"/>
<polygon fill="none" stroke="#000000" points="614,-204.7 614,-223.7 723,-223.7 723,-204.7 614,-204.7"/>
<text text-anchor="start" x="704.4053" y="-210.8" font-family="Helvetica,sans-Serif" font-size="11.00" fill="#000000">0 &gt;</text>
<polygon fill="none" stroke="#000000" stroke-width="2" points="426,-203.7 426,-467.7 724,-467.7 724,-203.7 426,-203.7"/>
</a>
</g>
</g>
<!-- published_version_reference&#45;&gt;published_version -->
<g id="edge11" class="edge">
<title>published_version_reference:w&#45;&gt;published_version:e</title>
<path fill="none" stroke="#000000" d="M413.0759,-437.1947C399.2452,-448.0296 399.3991,-474.7 376,-474.7"/>
<polygon fill="#000000" stroke="#000000" points="419.3868,-435.1576 428.1059,-436.1259 423.1934,-433.9288 427,-432.7 427,-432.7 427,-432.7 423.1934,-433.9288 425.8941,-429.2741 419.3868,-435.1576 419.3868,-435.1576"/>
<ellipse fill="none" stroke="#000000" cx="416.3416" cy="-436.1406" rx="3.2" ry="3.2"/>
</g>
<!-- published_version_reference&#45;&gt;published_version -->
<g id="edge12" class="edge">
<title>published_version_reference:w&#45;&gt;published_version:e</title>
<path fill="none" stroke="#000000" d="M413.0759,-393.1947C399.2452,-404.0296 399.3991,-430.7 376,-430.7"/>
<polygon fill="#000000" stroke="#000000" points="419.3868,-391.1576 428.1059,-392.1259 423.1934,-389.9288 427,-388.7 427,-388.7 427,-388.7 423.1934,-389.9288 425.8941,-385.2741 419.3868,-391.1576 419.3868,-391.1576"/>
<ellipse fill="none" stroke="#000000" cx="416.3416" cy="-392.1406" rx="3.2" ry="3.2"/>
</g>
<!-- published_version_reference&#45;&gt;published_version -->
<g id="edge13" class="edge">
<title>published_version_reference:w&#45;&gt;published_version:e</title>
<path fill="none" stroke="#000000" d="M413.0759,-415.1947C399.2452,-426.0296 399.3991,-452.7 376,-452.7"/>
<polygon fill="#000000" stroke="#000000" points="419.3868,-413.1576 428.1059,-414.1259 423.1934,-411.9288 427,-410.7 427,-410.7 427,-410.7 423.1934,-411.9288 425.8941,-407.2741 419.3868,-413.1576 419.3868,-413.1576"/>
<ellipse fill="none" stroke="#000000" cx="416.3416" cy="-414.1406" rx="3.2" ry="3.2"/>
</g>
<!-- published_version_revision_content -->
<g id="node7" class="node">
<title>published_version_revision_content</title>
<g id="a_node7"><a xlink:href="../../tables/published_version_revision_content.html" xlink:title="published_version_revision_content" target="_top">
<polygon fill="#ffffff" stroke="transparent" points="451.5,-120.2 451.5,-181.2 698.5,-181.2 698.5,-120.2 451.5,-120.2"/>
<polygon fill="#f5f5f5" stroke="transparent" points="452,-157.7 452,-180.7 699,-180.7 699,-157.7 452,-157.7"/>
<polygon fill="none" stroke="#000000" points="452,-157.7 452,-180.7 699,-180.7 699,-157.7 452,-157.7"/>
<text text-anchor="start" x="457" y="-166.3" font-family="Helvetica,sans-Serif" font-weight="bold" font-size="11.00" fill="#000000">published_version_revision_content</text>
<text text-anchor="start" x="664.5219" y="-165.8" font-family="Helvetica,sans-Serif" font-size="11.00" fill="#000000">[table]</text>
<polygon fill="none" stroke="#000000" points="452,-138.7 452,-157.7 699,-157.7 699,-138.7 452,-138.7"/>
<text text-anchor="start" x="455" y="-144.8" font-family="Helvetica,sans-Serif" font-size="11.00" fill="#000000">...</text>
<polygon fill="#ffffff" stroke="transparent" points="452,-119.7 452,-138.7 574,-138.7 574,-119.7 452,-119.7"/>
<polygon fill="none" stroke="#000000" points="452,-119.7 452,-138.7 574,-138.7 574,-119.7 452,-119.7"/>
<text text-anchor="start" x="455" y="-125.8" font-family="Helvetica,sans-Serif" font-size="11.00" fill="#000000">&lt; 5</text>
<polygon fill="#ffffff" stroke="transparent" points="574,-119.7 574,-138.7 636,-138.7 636,-119.7 574,-119.7"/>
<polygon fill="none" stroke="#000000" points="574,-119.7 574,-138.7 636,-138.7 636,-119.7 574,-119.7"/>
<text text-anchor="start" x="626.8862" y="-125.8" font-family="Helvetica,sans-Serif" font-size="11.00" fill="#000000"> &#160;</text>
<polygon fill="#ffffff" stroke="transparent" points="636,-119.7 636,-138.7 699,-138.7 699,-119.7 636,-119.7"/>
<polygon fill="none" stroke="#000000" points="636,-119.7 636,-138.7 699,-138.7 699,-119.7 636,-119.7"/>
<text text-anchor="start" x="689.8862" y="-125.8" font-family="Helvetica,sans-Serif" font-size="11.00" fill="#000000"> &#160;</text>
</a>
</g>
</g>
<!-- published_version_revision_content&#45;&gt;published_version -->
<g id="edge14" class="edge">
<title>published_version_revision_content:w&#45;&gt;published_version:e</title>
<path fill="none" stroke="#000000" d="M437.9433,-151.016C426.2279,-157.9561 424.6027,-174.853 417,-192.7 392.1819,-250.9596 439.3255,-474.7 376,-474.7"/>
<polygon fill="#000000" stroke="#000000" points="444.2137,-149.5368 452.8266,-151.2038 448.1069,-148.6184 452,-147.7 452,-147.7 452,-147.7 448.1069,-148.6184 451.1734,-144.1962 444.2137,-149.5368 444.2137,-149.5368"/>
<ellipse fill="none" stroke="#000000" cx="441.0992" cy="-150.2716" rx="3.2" ry="3.2"/>
</g>
<!-- published_version_revision_content&#45;&gt;published_version -->
<g id="edge15" class="edge">
<title>published_version_revision_content:w&#45;&gt;published_version:e</title>
<path fill="none" stroke="#000000" d="M437.9818,-151.0326C426.3372,-158.0035 424.8359,-174.9542 417,-192.7 395.3214,-241.7947 429.6679,-430.7 376,-430.7"/>
<polygon fill="#000000" stroke="#000000" points="444.2169,-149.5504 452.8327,-151.2024 448.1085,-148.6252 452,-147.7 452,-147.7 452,-147.7 448.1085,-148.6252 451.1673,-144.1976 444.2169,-149.5504 444.2169,-149.5504"/>
<ellipse fill="none" stroke="#000000" cx="441.1037" cy="-150.2905" rx="3.2" ry="3.2"/>
</g>
<!-- published_version_revision_content&#45;&gt;published_version -->
<g id="edge16" class="edge">
<title>published_version_revision_content:w&#45;&gt;published_version:e</title>
<path fill="none" stroke="#000000" d="M437.961,-151.0236C426.2781,-157.9776 424.7098,-174.8991 417,-192.7 393.7531,-246.3737 434.4917,-452.7 376,-452.7"/>
<polygon fill="#000000" stroke="#000000" points="444.2152,-149.543 452.8293,-151.2032 448.1076,-148.6215 452,-147.7 452,-147.7 452,-147.7 448.1076,-148.6215 451.1707,-144.1968 444.2152,-149.543 444.2152,-149.543"/>
<ellipse fill="none" stroke="#000000" cx="441.1012" cy="-150.2802" rx="3.2" ry="3.2"/>
</g>
<!-- published_version_validation -->
<g id="node8" class="node">
<title>published_version_validation</title>
<g id="a_node8"><a xlink:href="../../tables/published_version_validation.html" xlink:title="published_version_validation" target="_top">
<polygon fill="#ffffff" stroke="transparent" points="471.5,-38.2 471.5,-99.2 678.5,-99.2 678.5,-38.2 471.5,-38.2"/>
<polygon fill="#f5f5f5" stroke="transparent" points="472,-75.7 472,-98.7 679,-98.7 679,-75.7 472,-75.7"/>
<polygon fill="none" stroke="#000000" points="472,-75.7 472,-98.7 679,-98.7 679,-75.7 472,-75.7"/>
<text text-anchor="start" x="477" y="-84.3" font-family="Helvetica,sans-Serif" font-weight="bold" font-size="11.00" fill="#000000">published_version_validation</text>
<text text-anchor="start" x="644.5219" y="-83.8" font-family="Helvetica,sans-Serif" font-size="11.00" fill="#000000">[table]</text>
<polygon fill="none" stroke="#000000" points="472,-56.7 472,-75.7 679,-75.7 679,-56.7 472,-56.7"/>
<text text-anchor="start" x="475" y="-62.8" font-family="Helvetica,sans-Serif" font-size="11.00" fill="#000000">...</text>
<polygon fill="#ffffff" stroke="transparent" points="472,-37.7 472,-56.7 574,-56.7 574,-37.7 472,-37.7"/>
<polygon fill="none" stroke="#000000" points="472,-37.7 472,-56.7 574,-56.7 574,-37.7 472,-37.7"/>
<text text-anchor="start" x="475" y="-43.8" font-family="Helvetica,sans-Serif" font-size="11.00" fill="#000000">&lt; 3</text>
<polygon fill="#ffffff" stroke="transparent" points="574,-37.7 574,-56.7 626,-56.7 626,-37.7 574,-37.7"/>
<polygon fill="none" stroke="#000000" points="574,-37.7 574,-56.7 626,-56.7 626,-37.7 574,-37.7"/>
<text text-anchor="start" x="616.8862" y="-43.8" font-family="Helvetica,sans-Serif" font-size="11.00" fill="#000000"> &#160;</text>
<polygon fill="#ffffff" stroke="transparent" points="626,-37.7 626,-56.7 679,-56.7 679,-37.7 626,-37.7"/>
<polygon fill="none" stroke="#000000" points="626,-37.7 626,-56.7 679,-56.7 679,-37.7 626,-37.7"/>
<text text-anchor="start" x="669.8862" y="-43.8" font-family="Helvetica,sans-Serif" font-size="11.00" fill="#000000"> &#160;</text>
</a>
</g>
</g>
<!-- published_version_validation&#45;&gt;published_version -->
<g id="edge17" class="edge">
<title>published_version_validation:w&#45;&gt;published_version:e</title>
<path fill="none" stroke="#000000" d="M457.4395,-67.2063C437.4777,-71.8661 429.4594,-87.1062 417,-109.7 377.5855,-181.1739 457.6212,-474.7 376,-474.7"/>
<polygon fill="#000000" stroke="#000000" points="464.0425,-66.5233 472.3705,-69.2809 468.0212,-66.1116 472,-65.7 472,-65.7 472,-65.7 468.0212,-66.1116 471.6295,-62.1191 464.0425,-66.5233 464.0425,-66.5233"/>
<ellipse fill="none" stroke="#000000" cx="460.8595" cy="-66.8526" rx="3.2" ry="3.2"/>
</g>
<!-- published_version_validation&#45;&gt;published_version -->
<g id="edge18" class="edge">
<title>published_version_validation:w&#45;&gt;published_version:e</title>
<path fill="none" stroke="#000000" d="M457.4554,-67.2151C437.5379,-71.8995 429.6305,-87.2014 417,-109.7 381.7968,-172.4072 447.9128,-430.7 376,-430.7"/>
<polygon fill="#000000" stroke="#000000" points="464.0431,-66.5289 472.373,-69.2806 468.0215,-66.1145 472,-65.7 472,-65.7 472,-65.7 468.0215,-66.1145 471.627,-62.1194 464.0431,-66.5289 464.0431,-66.5289"/>
<ellipse fill="none" stroke="#000000" cx="460.8603" cy="-66.8605" rx="3.2" ry="3.2"/>
</g>
<!-- published_version_validation&#45;&gt;published_version -->
<g id="edge19" class="edge">
<title>published_version_validation:w&#45;&gt;published_version:e</title>
<path fill="none" stroke="#000000" d="M457.447,-67.2104C437.5059,-71.8817 429.5396,-87.1506 417,-109.7 379.6919,-176.7891 452.7648,-452.7 376,-452.7"/>
<polygon fill="#000000" stroke="#000000" points="464.0427,-66.5259 472.3717,-69.2808 468.0214,-66.113 472,-65.7 472,-65.7 472,-65.7 468.0214,-66.113 471.6283,-62.1192 464.0427,-66.5259 464.0427,-66.5259"/>
<ellipse fill="none" stroke="#000000" cx="460.8598" cy="-66.8563" rx="3.2" ry="3.2"/>
</g>
</g>
</svg>
