<?xml version="1.0" encoding="UTF-8" standalone="no"?>
<!DOCTYPE svg PUBLIC "-//W3C//DTD SVG 1.1//EN"
 "http://www.w3.org/Graphics/SVG/1.1/DTD/svg11.dtd">
<!-- Generated by graphviz version 2.40.1 (20161225.0304)
 -->
<!-- Title: oneDegreeRelationshipsDiagram Pages: 1 -->
<svg width="846pt" height="1225pt"
 viewBox="0.00 0.00 846.00 1225.20" xmlns="http://www.w3.org/2000/svg" xmlns:xlink="http://www.w3.org/1999/xlink">
<g id="graph0" class="graph" transform="scale(1 1) rotate(0) translate(4 1221.2)">
<title>oneDegreeRelationshipsDiagram</title>
<polygon fill="#ffffff" stroke="transparent" points="-4,4 -4,-1221.2 842,-1221.2 842,4 -4,4"/>
<text text-anchor="middle" x="72.4936" y="-7.3" font-family="Helvetica,sans-Serif" font-size="11.00" fill="#000000">Generated by SchemaSpy</text>
<!-- operation -->
<g id="node1" class="node">
<title>operation</title>
<g id="a_node1"><a xlink:href="../../tables/operation.html" xlink:title="operation" target="_top">
<polygon fill="#ffffff" stroke="transparent" points="619,-1042.2 619,-1213.2 794,-1213.2 794,-1042.2 619,-1042.2"/>
<polygon fill="#f5f5f5" stroke="transparent" points="619.5,-1189.7 619.5,-1212.7 794.5,-1212.7 794.5,-1189.7 619.5,-1189.7"/>
<polygon fill="none" stroke="#000000" points="619.5,-1189.7 619.5,-1212.7 794.5,-1212.7 794.5,-1189.7 619.5,-1189.7"/>
<text text-anchor="start" x="624.5" y="-1198.3" font-family="Helvetica,sans-Serif" font-weight="bold" font-size="11.00" fill="#000000">operation</text>
<text text-anchor="start" x="759.5437" y="-1197.8" font-family="Helvetica,sans-Serif" font-size="11.00" fill="#000000">[table]</text>
<polygon fill="none" stroke="#000000" points="619.5,-1167.7 619.5,-1189.7 794.5,-1189.7 794.5,-1167.7 619.5,-1167.7"/>
<image xlink:href="../../images/primaryKeys.png" width="11px" height="12px" preserveAspectRatio="xMinYMin meet" x="624.5" y="-1184.7"/>
<text text-anchor="start" x="639.5" y="-1174.8" font-family="Helvetica,sans-Serif" font-size="11.00" fill="#000000">package_id</text>
<polygon fill="none" stroke="#000000" points="619.5,-1145.7 619.5,-1167.7 794.5,-1167.7 794.5,-1145.7 619.5,-1145.7"/>
<image xlink:href="../../images/primaryKeys.png" width="11px" height="12px" preserveAspectRatio="xMinYMin meet" x="624.5" y="-1162.7"/>
<text text-anchor="start" x="639.5" y="-1152.8" font-family="Helvetica,sans-Serif" font-size="11.00" fill="#000000">version</text>
<polygon fill="none" stroke="#000000" points="619.5,-1123.7 619.5,-1145.7 794.5,-1145.7 794.5,-1123.7 619.5,-1123.7"/>
<image xlink:href="../../images/primaryKeys.png" width="11px" height="12px" preserveAspectRatio="xMinYMin meet" x="624.5" y="-1140.7"/>
<text text-anchor="start" x="639.5" y="-1130.8" font-family="Helvetica,sans-Serif" font-size="11.00" fill="#000000">revision</text>
<polygon fill="none" stroke="#000000" points="619.5,-1101.7 619.5,-1123.7 794.5,-1123.7 794.5,-1101.7 619.5,-1101.7"/>
<image xlink:href="../../images/primaryKeys.png" width="11px" height="12px" preserveAspectRatio="xMinYMin meet" x="624.5" y="-1118.7"/>
<text text-anchor="start" x="639.5" y="-1108.8" font-family="Helvetica,sans-Serif" font-size="11.00" fill="#000000">operation_id</text>
<polygon fill="none" stroke="#000000" points="619.5,-1079.7 619.5,-1101.7 794.5,-1101.7 794.5,-1079.7 619.5,-1079.7"/>
<image xlink:href="../../images/foreignKeys.png" width="11px" height="12px" preserveAspectRatio="xMinYMin meet" x="624.5" y="-1096.7"/>
<text text-anchor="start" x="639.5" y="-1086.8" font-family="Helvetica,sans-Serif" font-size="11.00" fill="#000000">data_hash</text>
<polygon fill="none" stroke="#000000" points="619.5,-1060.7 619.5,-1079.7 794.5,-1079.7 794.5,-1060.7 619.5,-1060.7"/>
<text text-anchor="start" x="622.5" y="-1066.8" font-family="Helvetica,sans-Serif" font-size="11.00" fill="#000000">...</text>
<polygon fill="#ffffff" stroke="transparent" points="619.5,-1041.7 619.5,-1060.7 700.5,-1060.7 700.5,-1041.7 619.5,-1041.7"/>
<polygon fill="none" stroke="#000000" points="619.5,-1041.7 619.5,-1060.7 700.5,-1060.7 700.5,-1041.7 619.5,-1041.7"/>
<text text-anchor="start" x="622.5" y="-1047.8" font-family="Helvetica,sans-Serif" font-size="11.00" fill="#000000">&lt; 4</text>
<polygon fill="#ffffff" stroke="transparent" points="700.5,-1041.7 700.5,-1060.7 742.5,-1060.7 742.5,-1041.7 700.5,-1041.7"/>
<polygon fill="none" stroke="#000000" points="700.5,-1041.7 700.5,-1060.7 742.5,-1060.7 742.5,-1041.7 700.5,-1041.7"/>
<text text-anchor="start" x="733.3862" y="-1047.8" font-family="Helvetica,sans-Serif" font-size="11.00" fill="#000000"> &#160;</text>
<polygon fill="#ffffff" stroke="transparent" points="742.5,-1041.7 742.5,-1060.7 794.5,-1060.7 794.5,-1041.7 742.5,-1041.7"/>
<polygon fill="none" stroke="#000000" points="742.5,-1041.7 742.5,-1060.7 794.5,-1060.7 794.5,-1041.7 742.5,-1041.7"/>
<text text-anchor="start" x="775.9053" y="-1047.8" font-family="Helvetica,sans-Serif" font-size="11.00" fill="#000000">4 &gt;</text>
</a>
</g>
</g>
<!-- published_version -->
<g id="node2" class="node">
<title>published_version</title>
<g id="a_node2"><a xlink:href="../../tables/published_version.html" xlink:title="published_version" target="_top">
<polygon fill="#ffffff" stroke="transparent" points="222,-413.7 222,-723.7 534,-723.7 534,-413.7 222,-413.7"/>
<polygon fill="#f5f5f5" stroke="transparent" points="224,-698.7 224,-721.7 532,-721.7 532,-698.7 224,-698.7"/>
<polygon fill="none" stroke="#000000" points="224,-698.7 224,-721.7 532,-721.7 532,-698.7 224,-698.7"/>
<text text-anchor="start" x="229" y="-707.3" font-family="Helvetica,sans-Serif" font-weight="bold" font-size="11.00" fill="#000000">published_version</text>
<text text-anchor="start" x="497.0437" y="-706.8" font-family="Helvetica,sans-Serif" font-size="11.00" fill="#000000">[table]</text>
<polygon fill="none" stroke="#000000" points="224,-676.7 224,-698.7 416,-698.7 416,-676.7 224,-676.7"/>
<image xlink:href="../../images/primaryKeys.png" width="11px" height="12px" preserveAspectRatio="xMinYMin meet" x="229" y="-693.7"/>
<text text-anchor="start" x="244" y="-683.8" font-family="Helvetica,sans-Serif" font-size="11.00" fill="#000000">package_id</text>
<polygon fill="none" stroke="#000000" points="416,-676.7 416,-698.7 532,-698.7 532,-676.7 416,-676.7"/>
<text text-anchor="start" x="419" y="-684.4" font-family="Helvetica,sans-Serif" font-size="11.00" fill="#000000">varchar[2147483647]</text>
<polygon fill="none" stroke="#000000" points="224,-654.7 224,-676.7 416,-676.7 416,-654.7 224,-654.7"/>
<image xlink:href="../../images/primaryKeys.png" width="11px" height="12px" preserveAspectRatio="xMinYMin meet" x="229" y="-671.7"/>
<text text-anchor="start" x="244" y="-661.8" font-family="Helvetica,sans-Serif" font-size="11.00" fill="#000000">version</text>
<polygon fill="none" stroke="#000000" points="416,-654.7 416,-676.7 532,-676.7 532,-654.7 416,-654.7"/>
<text text-anchor="start" x="419" y="-662.4" font-family="Helvetica,sans-Serif" font-size="11.00" fill="#000000">varchar[2147483647]</text>
<polygon fill="none" stroke="#000000" points="224,-632.7 224,-654.7 416,-654.7 416,-632.7 224,-632.7"/>
<image xlink:href="../../images/primaryKeys.png" width="11px" height="12px" preserveAspectRatio="xMinYMin meet" x="229" y="-649.7"/>
<text text-anchor="start" x="244" y="-639.8" font-family="Helvetica,sans-Serif" font-size="11.00" fill="#000000">revision</text>
<polygon fill="none" stroke="#000000" points="416,-632.7 416,-654.7 532,-654.7 532,-632.7 416,-632.7"/>
<text text-anchor="start" x="419" y="-640.4" font-family="Helvetica,sans-Serif" font-size="11.00" fill="#000000">int4[10]</text>
<polygon fill="none" stroke="#000000" points="224,-610.7 224,-632.7 416,-632.7 416,-610.7 224,-610.7"/>
<text text-anchor="start" x="244" y="-617.8" font-family="Helvetica,sans-Serif" font-size="11.00" fill="#000000">status</text>
<polygon fill="none" stroke="#000000" points="416,-610.7 416,-632.7 532,-632.7 532,-610.7 416,-610.7"/>
<text text-anchor="start" x="419" y="-618.4" font-family="Helvetica,sans-Serif" font-size="11.00" fill="#000000">varchar[2147483647]</text>
<polygon fill="none" stroke="#000000" points="224,-588.7 224,-610.7 416,-610.7 416,-588.7 224,-588.7"/>
<text text-anchor="start" x="244" y="-595.8" font-family="Helvetica,sans-Serif" font-size="11.00" fill="#000000">published_at</text>
<polygon fill="none" stroke="#000000" points="416,-588.7 416,-610.7 532,-610.7 532,-588.7 416,-588.7"/>
<text text-anchor="start" x="419" y="-596.4" font-family="Helvetica,sans-Serif" font-size="11.00" fill="#000000">timestamp[29,6]</text>
<polygon fill="none" stroke="#000000" points="224,-566.7 224,-588.7 416,-588.7 416,-566.7 224,-566.7"/>
<text text-anchor="start" x="244" y="-573.8" font-family="Helvetica,sans-Serif" font-size="11.00" fill="#000000">deleted_at</text>
<polygon fill="none" stroke="#000000" points="416,-566.7 416,-588.7 532,-588.7 532,-566.7 416,-566.7"/>
<text text-anchor="start" x="419" y="-574.4" font-family="Helvetica,sans-Serif" font-size="11.00" fill="#000000">timestamp[29,6]</text>
<polygon fill="none" stroke="#000000" points="224,-544.7 224,-566.7 416,-566.7 416,-544.7 224,-544.7"/>
<text text-anchor="start" x="244" y="-551.8" font-family="Helvetica,sans-Serif" font-size="11.00" fill="#000000">metadata</text>
<polygon fill="none" stroke="#000000" points="416,-544.7 416,-566.7 532,-566.7 532,-544.7 416,-544.7"/>
<text text-anchor="start" x="419" y="-552.4" font-family="Helvetica,sans-Serif" font-size="11.00" fill="#000000">jsonb[2147483647]</text>
<polygon fill="none" stroke="#000000" points="224,-522.7 224,-544.7 416,-544.7 416,-522.7 224,-522.7"/>
<text text-anchor="start" x="244" y="-529.8" font-family="Helvetica,sans-Serif" font-size="11.00" fill="#000000">previous_version</text>
<polygon fill="none" stroke="#000000" points="416,-522.7 416,-544.7 532,-544.7 532,-522.7 416,-522.7"/>
<text text-anchor="start" x="419" y="-530.4" font-family="Helvetica,sans-Serif" font-size="11.00" fill="#000000">varchar[2147483647]</text>
<polygon fill="none" stroke="#000000" points="224,-500.7 224,-522.7 416,-522.7 416,-500.7 224,-500.7"/>
<text text-anchor="start" x="244" y="-507.8" font-family="Helvetica,sans-Serif" font-size="11.00" fill="#000000">previous_version_package_id</text>
<polygon fill="none" stroke="#000000" points="416,-500.7 416,-522.7 532,-522.7 532,-500.7 416,-500.7"/>
<text text-anchor="start" x="419" y="-508.4" font-family="Helvetica,sans-Serif" font-size="11.00" fill="#000000">varchar[2147483647]</text>
<polygon fill="none" stroke="#000000" points="224,-478.7 224,-500.7 416,-500.7 416,-478.7 224,-478.7"/>
<text text-anchor="start" x="244" y="-485.8" font-family="Helvetica,sans-Serif" font-size="11.00" fill="#000000">labels</text>
<polygon fill="none" stroke="#000000" points="416,-478.7 416,-500.7 532,-500.7 532,-478.7 416,-478.7"/>
<text text-anchor="start" x="418.9769" y="-486.4" font-family="Helvetica,sans-Serif" font-size="11.00" fill="#000000">_varchar[2147483647]</text>
<polygon fill="none" stroke="#000000" points="224,-456.7 224,-478.7 416,-478.7 416,-456.7 224,-456.7"/>
<text text-anchor="start" x="244" y="-463.8" font-family="Helvetica,sans-Serif" font-size="11.00" fill="#000000">created_by</text>
<polygon fill="none" stroke="#000000" points="416,-456.7 416,-478.7 532,-478.7 532,-456.7 416,-456.7"/>
<text text-anchor="start" x="419" y="-464.4" font-family="Helvetica,sans-Serif" font-size="11.00" fill="#000000">varchar[2147483647]</text>
<polygon fill="none" stroke="#000000" points="224,-434.7 224,-456.7 416,-456.7 416,-434.7 224,-434.7"/>
<text text-anchor="start" x="244" y="-441.8" font-family="Helvetica,sans-Serif" font-size="11.00" fill="#000000">deleted_by</text>
<polygon fill="none" stroke="#000000" points="416,-434.7 416,-456.7 532,-456.7 532,-434.7 416,-434.7"/>
<text text-anchor="start" x="419" y="-442.4" font-family="Helvetica,sans-Serif" font-size="11.00" fill="#000000">varchar[2147483647]</text>
<polygon fill="#ffffff" stroke="transparent" points="224,-415.7 224,-434.7 324,-434.7 324,-415.7 224,-415.7"/>
<polygon fill="none" stroke="#000000" points="224,-415.7 224,-434.7 324,-434.7 324,-415.7 224,-415.7"/>
<text text-anchor="start" x="227" y="-421.8" font-family="Helvetica,sans-Serif" font-size="11.00" fill="#000000">&lt; 1</text>
<polygon fill="#ffffff" stroke="transparent" points="324,-415.7 324,-434.7 416,-434.7 416,-415.7 324,-415.7"/>
<polygon fill="none" stroke="#000000" points="324,-415.7 324,-434.7 416,-434.7 416,-415.7 324,-415.7"/>
<text text-anchor="start" x="406.8862" y="-421.8" font-family="Helvetica,sans-Serif" font-size="11.00" fill="#000000"> &#160;</text>
<polygon fill="#ffffff" stroke="transparent" points="416,-415.7 416,-434.7 532,-434.7 532,-415.7 416,-415.7"/>
<polygon fill="none" stroke="#000000" points="416,-415.7 416,-434.7 532,-434.7 532,-415.7 416,-415.7"/>
<text text-anchor="start" x="507.2904" y="-421.8" font-family="Helvetica,sans-Serif" font-size="11.00" fill="#000000">18 &gt;</text>
<polygon fill="none" stroke="#000000" stroke-width="2" points="223,-414.7 223,-722.7 533,-722.7 533,-414.7 223,-414.7"/>
</a>
</g>
</g>
<!-- operation&#45;&gt;published_version -->
<g id="edge1" class="edge">
<title>operation:w&#45;&gt;published_version:e</title>
<path fill="none" stroke="#000000" d="M605.0629,-1177.2047C556.98,-1165.9375 588.0382,-1093.1266 575,-1031.7 567.0021,-994.0198 570.5197,-687.7 532,-687.7"/>
<polygon fill="#000000" stroke="#000000" points="611.5426,-1177.8758 619.1291,-1182.2808 615.5213,-1178.2879 619.5,-1178.7 619.5,-1178.7 619.5,-1178.7 615.5213,-1178.2879 619.8709,-1175.1192 611.5426,-1177.8758 611.5426,-1177.8758"/>
<ellipse fill="none" stroke="#000000" cx="608.3596" cy="-1177.5461" rx="3.2" ry="3.2"/>
</g>
<!-- operation&#45;&gt;published_version -->
<g id="edge2" class="edge">
<title>operation:w&#45;&gt;published_version:e</title>
<path fill="none" stroke="#000000" d="M605.0273,-1132.6797C573.3465,-1122.3697 586.3291,-1074.4425 575,-1031.7 563.887,-989.7727 575.3751,-643.7 532,-643.7"/>
<polygon fill="#000000" stroke="#000000" points="611.5768,-1133.5939 619.0023,-1138.2654 615.5384,-1134.147 619.5,-1134.7 619.5,-1134.7 619.5,-1134.7 615.5384,-1134.147 619.9977,-1131.1346 611.5768,-1133.5939 611.5768,-1133.5939"/>
<ellipse fill="none" stroke="#000000" cx="608.4076" cy="-1133.1515" rx="3.2" ry="3.2"/>
</g>
<!-- operation&#45;&gt;published_version -->
<g id="edge3" class="edge">
<title>operation:w&#45;&gt;published_version:e</title>
<path fill="none" stroke="#000000" d="M605.099,-1154.9823C565.3945,-1144.1189 587.1566,-1083.7415 575,-1031.7 565.6859,-991.8271 572.9464,-665.7 532,-665.7"/>
<polygon fill="#000000" stroke="#000000" points="611.5563,-1155.7524 619.0736,-1160.2747 615.5282,-1156.2262 619.5,-1156.7 619.5,-1156.7 619.5,-1156.7 615.5282,-1156.2262 619.9264,-1153.1253 611.5563,-1155.7524 611.5563,-1155.7524"/>
<ellipse fill="none" stroke="#000000" cx="608.3788" cy="-1155.3734" rx="3.2" ry="3.2"/>
</g>
<!-- package_group -->
<g id="node5" class="node">
<title>package_group</title>
<g id="a_node5"><a xlink:href="../../tables/package_group.html" xlink:title="package_group" target="_top">
<polygon fill="#ffffff" stroke="transparent" points="8,-617.2 8,-722.2 173,-722.2 173,-617.2 8,-617.2"/>
<polygon fill="#f5f5f5" stroke="transparent" points="8.5,-698.7 8.5,-721.7 173.5,-721.7 173.5,-698.7 8.5,-698.7"/>
<polygon fill="none" stroke="#000000" points="8.5,-698.7 8.5,-721.7 173.5,-721.7 173.5,-698.7 8.5,-698.7"/>
<text text-anchor="start" x="13.5" y="-707.3" font-family="Helvetica,sans-Serif" font-weight="bold" font-size="11.00" fill="#000000">package_group</text>
<text text-anchor="start" x="138.5437" y="-706.8" font-family="Helvetica,sans-Serif" font-size="11.00" fill="#000000">[table]</text>
<polygon fill="none" stroke="#000000" points="8.5,-676.7 8.5,-698.7 173.5,-698.7 173.5,-676.7 8.5,-676.7"/>
<image xlink:href="../../images/primaryKeys.png" width="11px" height="12px" preserveAspectRatio="xMinYMin meet" x="13.5" y="-693.7"/>
<text text-anchor="start" x="28.5" y="-683.8" font-family="Helvetica,sans-Serif" font-size="11.00" fill="#000000">id</text>
<polygon fill="none" stroke="#000000" points="8.5,-654.7 8.5,-676.7 173.5,-676.7 173.5,-654.7 8.5,-654.7"/>
<image xlink:href="../../images/foreignKeys.png" width="11px" height="12px" preserveAspectRatio="xMinYMin meet" x="13.5" y="-671.7"/>
<text text-anchor="start" x="28.5" y="-661.8" font-family="Helvetica,sans-Serif" font-size="11.00" fill="#000000">parent_id</text>
<polygon fill="none" stroke="#000000" points="8.5,-635.7 8.5,-654.7 173.5,-654.7 173.5,-635.7 8.5,-635.7"/>
<text text-anchor="start" x="11.5" y="-641.8" font-family="Helvetica,sans-Serif" font-size="11.00" fill="#000000">...</text>
<polygon fill="#ffffff" stroke="transparent" points="8.5,-616.7 8.5,-635.7 81.5,-635.7 81.5,-616.7 8.5,-616.7"/>
<polygon fill="none" stroke="#000000" points="8.5,-616.7 8.5,-635.7 81.5,-635.7 81.5,-616.7 8.5,-616.7"/>
<text text-anchor="start" x="11.5" y="-622.8" font-family="Helvetica,sans-Serif" font-size="11.00" fill="#000000">&lt; 1</text>
<polygon fill="#ffffff" stroke="transparent" points="81.5,-616.7 81.5,-635.7 119.5,-635.7 119.5,-616.7 81.5,-616.7"/>
<polygon fill="none" stroke="#000000" points="81.5,-616.7 81.5,-635.7 119.5,-635.7 119.5,-616.7 81.5,-616.7"/>
<text text-anchor="start" x="110.3862" y="-622.8" font-family="Helvetica,sans-Serif" font-size="11.00" fill="#000000"> &#160;</text>
<polygon fill="#ffffff" stroke="transparent" points="119.5,-616.7 119.5,-635.7 173.5,-635.7 173.5,-616.7 119.5,-616.7"/>
<polygon fill="none" stroke="#000000" points="119.5,-616.7 119.5,-635.7 173.5,-635.7 173.5,-616.7 119.5,-616.7"/>
<text text-anchor="start" x="148.7904" y="-622.8" font-family="Helvetica,sans-Serif" font-size="11.00" fill="#000000">15 &gt;</text>
</a>
</g>
</g>
<!-- published_version&#45;&gt;package_group -->
<g id="edge10" class="edge">
<title>published_version:w&#45;&gt;package_group:e</title>
<path fill="none" stroke="#000000" d="M209.4203,-687.7C197.5435,-687.7 190.158,-687.7 173.5,-687.7"/>
<polygon fill="#000000" stroke="#000000" points="216,-687.7001 224,-691.3 220,-687.7 224,-687.7 224,-687.7 224,-687.7 220,-687.7 224,-684.1 216,-687.7001 216,-687.7001"/>
<ellipse fill="none" stroke="#000000" cx="212.8" cy="-687.7001" rx="3.2" ry="3.2"/>
</g>
<!-- operation_group -->
<g id="node3" class="node">
<title>operation_group</title>
<g id="a_node3"><a xlink:href="../../tables/operation_group.html" xlink:title="operation_group" target="_top">
<polygon fill="#ffffff" stroke="transparent" points="639,-828.2 639,-1021.2 774,-1021.2 774,-828.2 639,-828.2"/>
<polygon fill="#f5f5f5" stroke="transparent" points="639.5,-997.7 639.5,-1020.7 774.5,-1020.7 774.5,-997.7 639.5,-997.7"/>
<polygon fill="none" stroke="#000000" points="639.5,-997.7 639.5,-1020.7 774.5,-1020.7 774.5,-997.7 639.5,-997.7"/>
<text text-anchor="start" x="644.5" y="-1006.3" font-family="Helvetica,sans-Serif" font-weight="bold" font-size="11.00" fill="#000000">operation_group</text>
<text text-anchor="start" x="740.0219" y="-1005.8" font-family="Helvetica,sans-Serif" font-size="11.00" fill="#000000">[table]</text>
<polygon fill="none" stroke="#000000" points="639.5,-975.7 639.5,-997.7 774.5,-997.7 774.5,-975.7 639.5,-975.7"/>
<image xlink:href="../../images/primaryKeys.png" width="11px" height="12px" preserveAspectRatio="xMinYMin meet" x="644.5" y="-992.7"/>
<text text-anchor="start" x="659.5" y="-982.8" font-family="Helvetica,sans-Serif" font-size="11.00" fill="#000000">package_id</text>
<polygon fill="none" stroke="#000000" points="639.5,-953.7 639.5,-975.7 774.5,-975.7 774.5,-953.7 639.5,-953.7"/>
<image xlink:href="../../images/primaryKeys.png" width="11px" height="12px" preserveAspectRatio="xMinYMin meet" x="644.5" y="-970.7"/>
<text text-anchor="start" x="659.5" y="-960.8" font-family="Helvetica,sans-Serif" font-size="11.00" fill="#000000">version</text>
<polygon fill="none" stroke="#000000" points="639.5,-931.7 639.5,-953.7 774.5,-953.7 774.5,-931.7 639.5,-931.7"/>
<image xlink:href="../../images/primaryKeys.png" width="11px" height="12px" preserveAspectRatio="xMinYMin meet" x="644.5" y="-948.7"/>
<text text-anchor="start" x="659.5" y="-938.8" font-family="Helvetica,sans-Serif" font-size="11.00" fill="#000000">revision</text>
<polygon fill="none" stroke="#000000" points="639.5,-909.7 639.5,-931.7 774.5,-931.7 774.5,-909.7 639.5,-909.7"/>
<image xlink:href="../../images/primaryKeys.png" width="11px" height="12px" preserveAspectRatio="xMinYMin meet" x="644.5" y="-926.7"/>
<text text-anchor="start" x="659.5" y="-916.8" font-family="Helvetica,sans-Serif" font-size="11.00" fill="#000000">api_type</text>
<polygon fill="none" stroke="#000000" points="639.5,-887.7 639.5,-909.7 774.5,-909.7 774.5,-887.7 639.5,-887.7"/>
<image xlink:href="../../images/primaryKeys.png" width="11px" height="12px" preserveAspectRatio="xMinYMin meet" x="644.5" y="-904.7"/>
<text text-anchor="start" x="659.5" y="-894.8" font-family="Helvetica,sans-Serif" font-size="11.00" fill="#000000">group_name</text>
<polygon fill="#ffffff" stroke="transparent" points="639.5,-865.7 639.5,-887.7 774.5,-887.7 774.5,-865.7 639.5,-865.7"/>
<polygon fill="none" stroke="#000000" points="639.5,-865.7 639.5,-887.7 774.5,-887.7 774.5,-865.7 639.5,-865.7"/>
<text text-anchor="start" x="659.5" y="-872.8" font-family="Helvetica,sans-Serif" font-size="11.00" fill="#000000">group_id</text>
<polygon fill="none" stroke="#000000" points="639.5,-846.7 639.5,-865.7 774.5,-865.7 774.5,-846.7 639.5,-846.7"/>
<text text-anchor="start" x="642.5" y="-852.8" font-family="Helvetica,sans-Serif" font-size="11.00" fill="#000000">...</text>
<polygon fill="#ffffff" stroke="transparent" points="639.5,-827.7 639.5,-846.7 700.5,-846.7 700.5,-827.7 639.5,-827.7"/>
<polygon fill="none" stroke="#000000" points="639.5,-827.7 639.5,-846.7 700.5,-846.7 700.5,-827.7 639.5,-827.7"/>
<text text-anchor="start" x="642.5" y="-833.8" font-family="Helvetica,sans-Serif" font-size="11.00" fill="#000000">&lt; 3</text>
<polygon fill="#ffffff" stroke="transparent" points="700.5,-827.7 700.5,-846.7 732.5,-846.7 732.5,-827.7 700.5,-827.7"/>
<polygon fill="none" stroke="#000000" points="700.5,-827.7 700.5,-846.7 732.5,-846.7 732.5,-827.7 700.5,-827.7"/>
<text text-anchor="start" x="723.3862" y="-833.8" font-family="Helvetica,sans-Serif" font-size="11.00" fill="#000000"> &#160;</text>
<polygon fill="#ffffff" stroke="transparent" points="732.5,-827.7 732.5,-846.7 774.5,-846.7 774.5,-827.7 732.5,-827.7"/>
<polygon fill="none" stroke="#000000" points="732.5,-827.7 732.5,-846.7 774.5,-846.7 774.5,-827.7 732.5,-827.7"/>
<text text-anchor="start" x="755.9053" y="-833.8" font-family="Helvetica,sans-Serif" font-size="11.00" fill="#000000">2 &gt;</text>
</a>
</g>
</g>
<!-- operation_group&#45;&gt;published_version -->
<g id="edge4" class="edge">
<title>operation_group:w&#45;&gt;published_version:e</title>
<path fill="none" stroke="#000000" d="M625.0577,-985.4987C564.4887,-974.3911 600.1732,-888.4096 575,-817.7 554.5895,-760.3684 592.8564,-687.7 532,-687.7"/>
<polygon fill="#000000" stroke="#000000" points="631.5275,-986.0368 639.2016,-990.2876 635.5138,-986.3684 639.5,-986.7 639.5,-986.7 639.5,-986.7 635.5138,-986.3684 639.7984,-983.1124 631.5275,-986.0368 631.5275,-986.0368"/>
<ellipse fill="none" stroke="#000000" cx="628.3385" cy="-985.7715" rx="3.2" ry="3.2"/>
</g>
<!-- operation_group&#45;&gt;published_version -->
<g id="edge5" class="edge">
<title>operation_group:w&#45;&gt;published_version:e</title>
<path fill="none" stroke="#000000" d="M625.1318,-941.2744C580.1116,-931.333 595.0936,-871.1938 575,-817.7 546.9887,-743.1276 611.6598,-643.7 532,-643.7"/>
<polygon fill="#000000" stroke="#000000" points="631.5391,-941.9101 639.1445,-946.2824 635.5195,-942.305 639.5,-942.7 639.5,-942.7 639.5,-942.7 635.5195,-942.305 639.8555,-939.1176 631.5391,-941.9101 631.5391,-941.9101"/>
<ellipse fill="none" stroke="#000000" cx="628.3547" cy="-941.5941" rx="3.2" ry="3.2"/>
</g>
<!-- operation_group&#45;&gt;published_version -->
<g id="edge6" class="edge">
<title>operation_group:w&#45;&gt;published_version:e</title>
<path fill="none" stroke="#000000" d="M624.9074,-963.351C572.5494,-952.6093 597.2653,-879.7367 575,-817.7 551.2837,-751.6203 602.2067,-665.7 532,-665.7"/>
<polygon fill="#000000" stroke="#000000" points="631.534,-963.9636 639.1686,-968.2847 635.517,-964.3318 639.5,-964.7 639.5,-964.7 639.5,-964.7 635.517,-964.3318 639.8314,-961.1153 631.534,-963.9636 631.534,-963.9636"/>
<ellipse fill="none" stroke="#000000" cx="628.3476" cy="-963.669" rx="3.2" ry="3.2"/>
</g>
<!-- published_sources -->
<g id="node4" class="node">
<title>published_sources</title>
<g id="a_node4"><a xlink:href="../../tables/published_sources.html" xlink:title="published_sources" target="_top">
<polygon fill="#ffffff" stroke="transparent" points="632.5,-658.2 632.5,-807.2 780.5,-807.2 780.5,-658.2 632.5,-658.2"/>
<polygon fill="#f5f5f5" stroke="transparent" points="632.5,-783.7 632.5,-806.7 780.5,-806.7 780.5,-783.7 632.5,-783.7"/>
<polygon fill="none" stroke="#000000" points="632.5,-783.7 632.5,-806.7 780.5,-806.7 780.5,-783.7 632.5,-783.7"/>
<text text-anchor="start" x="637.5" y="-792.3" font-family="Helvetica,sans-Serif" font-weight="bold" font-size="11.00" fill="#000000">published_sources</text>
<text text-anchor="start" x="746.0219" y="-791.8" font-family="Helvetica,sans-Serif" font-size="11.00" fill="#000000">[table]</text>
<polygon fill="#ffffff" stroke="transparent" points="632.5,-761.7 632.5,-783.7 780.5,-783.7 780.5,-761.7 632.5,-761.7"/>
<polygon fill="none" stroke="#000000" points="632.5,-761.7 632.5,-783.7 780.5,-783.7 780.5,-761.7 632.5,-761.7"/>
<image xlink:href="../../images/foreignKeys.png" width="11px" height="12px" preserveAspectRatio="xMinYMin meet" x="637.5" y="-778.7"/>
<text text-anchor="start" x="661.5" y="-768.8" font-family="Helvetica,sans-Serif" font-size="11.00" fill="#000000">package_id</text>
<polygon fill="#ffffff" stroke="transparent" points="632.5,-739.7 632.5,-761.7 780.5,-761.7 780.5,-739.7 632.5,-739.7"/>
<polygon fill="none" stroke="#000000" points="632.5,-739.7 632.5,-761.7 780.5,-761.7 780.5,-739.7 632.5,-739.7"/>
<image xlink:href="../../images/foreignKeys.png" width="11px" height="12px" preserveAspectRatio="xMinYMin meet" x="637.5" y="-756.7"/>
<text text-anchor="start" x="661.5" y="-746.8" font-family="Helvetica,sans-Serif" font-size="11.00" fill="#000000">version</text>
<polygon fill="#ffffff" stroke="transparent" points="632.5,-717.7 632.5,-739.7 780.5,-739.7 780.5,-717.7 632.5,-717.7"/>
<polygon fill="none" stroke="#000000" points="632.5,-717.7 632.5,-739.7 780.5,-739.7 780.5,-717.7 632.5,-717.7"/>
<image xlink:href="../../images/foreignKeys.png" width="11px" height="12px" preserveAspectRatio="xMinYMin meet" x="637.5" y="-734.7"/>
<text text-anchor="start" x="661.5" y="-724.8" font-family="Helvetica,sans-Serif" font-size="11.00" fill="#000000">revision</text>
<polygon fill="none" stroke="#000000" points="632.5,-695.7 632.5,-717.7 780.5,-717.7 780.5,-695.7 632.5,-695.7"/>
<image xlink:href="../../images/foreignKeys.png" width="11px" height="12px" preserveAspectRatio="xMinYMin meet" x="637.5" y="-712.7"/>
<text text-anchor="start" x="661.5" y="-702.8" font-family="Helvetica,sans-Serif" font-size="11.00" fill="#000000">archive_checksum</text>
<polygon fill="none" stroke="#000000" points="632.5,-676.7 632.5,-695.7 780.5,-695.7 780.5,-676.7 632.5,-676.7"/>
<text text-anchor="start" x="635.5" y="-682.8" font-family="Helvetica,sans-Serif" font-size="11.00" fill="#000000">...</text>
<polygon fill="#ffffff" stroke="transparent" points="632.5,-657.7 632.5,-676.7 704.5,-676.7 704.5,-657.7 632.5,-657.7"/>
<polygon fill="none" stroke="#000000" points="632.5,-657.7 632.5,-676.7 704.5,-676.7 704.5,-657.7 632.5,-657.7"/>
<text text-anchor="start" x="635.5" y="-663.8" font-family="Helvetica,sans-Serif" font-size="11.00" fill="#000000">&lt; 4</text>
<polygon fill="#ffffff" stroke="transparent" points="704.5,-657.7 704.5,-676.7 742.5,-676.7 742.5,-657.7 704.5,-657.7"/>
<polygon fill="none" stroke="#000000" points="704.5,-657.7 704.5,-676.7 742.5,-676.7 742.5,-657.7 704.5,-657.7"/>
<text text-anchor="start" x="733.3862" y="-663.8" font-family="Helvetica,sans-Serif" font-size="11.00" fill="#000000"> &#160;</text>
<polygon fill="#ffffff" stroke="transparent" points="742.5,-657.7 742.5,-676.7 780.5,-676.7 780.5,-657.7 742.5,-657.7"/>
<polygon fill="none" stroke="#000000" points="742.5,-657.7 742.5,-676.7 780.5,-676.7 780.5,-657.7 742.5,-657.7"/>
<text text-anchor="start" x="771.3862" y="-663.8" font-family="Helvetica,sans-Serif" font-size="11.00" fill="#000000"> &#160;</text>
</a>
</g>
</g>
<!-- published_sources&#45;&gt;published_version -->
<g id="edge7" class="edge">
<title>published_sources:w&#45;&gt;published_version:e</title>
<path fill="none" stroke="#000000" d="M618.1696,-770.6827C576.3972,-757.8108 585.1301,-687.7 532,-687.7"/>
<polygon fill="#000000" stroke="#000000" points="624.5781,-771.5848 631.9982,-776.2649 628.5391,-772.1424 632.5,-772.7 632.5,-772.7 632.5,-772.7 628.5391,-772.1424 633.0018,-769.1351 624.5781,-771.5848 624.5781,-771.5848"/>
<ellipse fill="none" stroke="#000000" cx="621.4093" cy="-771.1387" rx="3.2" ry="3.2"/>
</g>
<!-- published_sources&#45;&gt;published_version -->
<g id="edge8" class="edge">
<title>published_sources:w&#45;&gt;published_version:e</title>
<path fill="none" stroke="#000000" d="M618.1696,-726.6827C576.3972,-713.8108 585.1301,-643.7 532,-643.7"/>
<polygon fill="#000000" stroke="#000000" points="624.5781,-727.5848 631.9982,-732.2649 628.5391,-728.1424 632.5,-728.7 632.5,-728.7 632.5,-728.7 628.5391,-728.1424 633.0018,-725.1351 624.5781,-727.5848 624.5781,-727.5848"/>
<ellipse fill="none" stroke="#000000" cx="621.4093" cy="-727.1387" rx="3.2" ry="3.2"/>
</g>
<!-- published_sources&#45;&gt;published_version -->
<g id="edge9" class="edge">
<title>published_sources:w&#45;&gt;published_version:e</title>
<path fill="none" stroke="#000000" d="M618.1696,-748.6827C576.3972,-735.8108 585.1301,-665.7 532,-665.7"/>
<polygon fill="#000000" stroke="#000000" points="624.5781,-749.5848 631.9982,-754.2649 628.5391,-750.1424 632.5,-750.7 632.5,-750.7 632.5,-750.7 628.5391,-750.1424 633.0018,-747.1351 624.5781,-749.5848 624.5781,-749.5848"/>
<ellipse fill="none" stroke="#000000" cx="621.4093" cy="-749.1387" rx="3.2" ry="3.2"/>
</g>
<!-- published_version_reference -->
<g id="node6" class="node">
<title>published_version_reference</title>
<g id="a_node6"><a xlink:href="../../tables/published_version_reference.html" xlink:title="published_version_reference" target="_top">
<polygon fill="#ffffff" stroke="transparent" points="604,-378.2 604,-637.2 809,-637.2 809,-378.2 604,-378.2"/>
<polygon fill="#f5f5f5" stroke="transparent" points="604.5,-613.7 604.5,-636.7 809.5,-636.7 809.5,-613.7 604.5,-613.7"/>
<polygon fill="none" stroke="#000000" points="604.5,-613.7 604.5,-636.7 809.5,-636.7 809.5,-613.7 604.5,-613.7"/>
<text text-anchor="start" x="609.5" y="-622.3" font-family="Helvetica,sans-Serif" font-weight="bold" font-size="11.00" fill="#000000">published_version_reference</text>
<text text-anchor="start" x="775.0219" y="-621.8" font-family="Helvetica,sans-Serif" font-size="11.00" fill="#000000">[table]</text>
<polygon fill="none" stroke="#000000" points="604.5,-591.7 604.5,-613.7 809.5,-613.7 809.5,-591.7 604.5,-591.7"/>
<image xlink:href="../../images/primaryKeys.png" width="11px" height="12px" preserveAspectRatio="xMinYMin meet" x="609.5" y="-608.7"/>
<text text-anchor="start" x="633.5" y="-598.8" font-family="Helvetica,sans-Serif" font-size="11.00" fill="#000000">package_id</text>
<polygon fill="none" stroke="#000000" points="604.5,-569.7 604.5,-591.7 809.5,-591.7 809.5,-569.7 604.5,-569.7"/>
<image xlink:href="../../images/primaryKeys.png" width="11px" height="12px" preserveAspectRatio="xMinYMin meet" x="609.5" y="-586.7"/>
<text text-anchor="start" x="633.5" y="-576.8" font-family="Helvetica,sans-Serif" font-size="11.00" fill="#000000">version</text>
<polygon fill="none" stroke="#000000" points="604.5,-547.7 604.5,-569.7 809.5,-569.7 809.5,-547.7 604.5,-547.7"/>
<image xlink:href="../../images/primaryKeys.png" width="11px" height="12px" preserveAspectRatio="xMinYMin meet" x="609.5" y="-564.7"/>
<text text-anchor="start" x="633.5" y="-554.8" font-family="Helvetica,sans-Serif" font-size="11.00" fill="#000000">revision</text>
<polygon fill="none" stroke="#000000" points="604.5,-525.7 604.5,-547.7 809.5,-547.7 809.5,-525.7 604.5,-525.7"/>
<image xlink:href="../../images/primaryKeys.png" width="11px" height="12px" preserveAspectRatio="xMinYMin meet" x="609.5" y="-542.7"/>
<text text-anchor="start" x="633.5" y="-532.8" font-family="Helvetica,sans-Serif" font-size="11.00" fill="#000000">reference_id</text>
<polygon fill="none" stroke="#000000" points="604.5,-503.7 604.5,-525.7 809.5,-525.7 809.5,-503.7 604.5,-503.7"/>
<image xlink:href="../../images/primaryKeys.png" width="11px" height="12px" preserveAspectRatio="xMinYMin meet" x="609.5" y="-520.7"/>
<text text-anchor="start" x="633.5" y="-510.8" font-family="Helvetica,sans-Serif" font-size="11.00" fill="#000000">reference_version</text>
<polygon fill="none" stroke="#000000" points="604.5,-481.7 604.5,-503.7 809.5,-503.7 809.5,-481.7 604.5,-481.7"/>
<image xlink:href="../../images/primaryKeys.png" width="11px" height="12px" preserveAspectRatio="xMinYMin meet" x="609.5" y="-498.7"/>
<text text-anchor="start" x="633.5" y="-488.8" font-family="Helvetica,sans-Serif" font-size="11.00" fill="#000000">reference_revision</text>
<polygon fill="none" stroke="#000000" points="604.5,-459.7 604.5,-481.7 809.5,-481.7 809.5,-459.7 604.5,-459.7"/>
<image xlink:href="../../images/primaryKeys.png" width="11px" height="12px" preserveAspectRatio="xMinYMin meet" x="609.5" y="-476.7"/>
<text text-anchor="start" x="633.5" y="-466.8" font-family="Helvetica,sans-Serif" font-size="11.00" fill="#000000">parent_reference_id</text>
<polygon fill="none" stroke="#000000" points="604.5,-437.7 604.5,-459.7 809.5,-459.7 809.5,-437.7 604.5,-437.7"/>
<image xlink:href="../../images/primaryKeys.png" width="11px" height="12px" preserveAspectRatio="xMinYMin meet" x="609.5" y="-454.7"/>
<text text-anchor="start" x="633.5" y="-444.8" font-family="Helvetica,sans-Serif" font-size="11.00" fill="#000000">parent_reference_version</text>
<polygon fill="none" stroke="#000000" points="604.5,-415.7 604.5,-437.7 809.5,-437.7 809.5,-415.7 604.5,-415.7"/>
<image xlink:href="../../images/primaryKeys.png" width="11px" height="12px" preserveAspectRatio="xMinYMin meet" x="609.5" y="-432.7"/>
<text text-anchor="start" x="633.5" y="-422.8" font-family="Helvetica,sans-Serif" font-size="11.00" fill="#000000">parent_reference_revision</text>
<polygon fill="none" stroke="#000000" points="604.5,-396.7 604.5,-415.7 809.5,-415.7 809.5,-396.7 604.5,-396.7"/>
<text text-anchor="start" x="607.5" y="-402.8" font-family="Helvetica,sans-Serif" font-size="11.00" fill="#000000">...</text>
<polygon fill="#ffffff" stroke="transparent" points="604.5,-377.7 604.5,-396.7 705.5,-396.7 705.5,-377.7 604.5,-377.7"/>
<polygon fill="none" stroke="#000000" points="604.5,-377.7 604.5,-396.7 705.5,-396.7 705.5,-377.7 604.5,-377.7"/>
<text text-anchor="start" x="607.5" y="-383.8" font-family="Helvetica,sans-Serif" font-size="11.00" fill="#000000">&lt; 3</text>
<polygon fill="#ffffff" stroke="transparent" points="705.5,-377.7 705.5,-396.7 757.5,-396.7 757.5,-377.7 705.5,-377.7"/>
<polygon fill="none" stroke="#000000" points="705.5,-377.7 705.5,-396.7 757.5,-396.7 757.5,-377.7 705.5,-377.7"/>
<text text-anchor="start" x="748.3862" y="-383.8" font-family="Helvetica,sans-Serif" font-size="11.00" fill="#000000"> &#160;</text>
<polygon fill="#ffffff" stroke="transparent" points="757.5,-377.7 757.5,-396.7 809.5,-396.7 809.5,-377.7 757.5,-377.7"/>
<polygon fill="none" stroke="#000000" points="757.5,-377.7 757.5,-396.7 809.5,-396.7 809.5,-377.7 757.5,-377.7"/>
<text text-anchor="start" x="800.3862" y="-383.8" font-family="Helvetica,sans-Serif" font-size="11.00" fill="#000000"> &#160;</text>
</a>
</g>
</g>
<!-- published_version_reference&#45;&gt;published_version -->
<g id="edge11" class="edge">
<title>published_version_reference:w&#45;&gt;published_version:e</title>
<path fill="none" stroke="#000000" d="M590.3469,-605.7252C559.939,-620.867 576.0284,-687.7 532,-687.7"/>
<polygon fill="#000000" stroke="#000000" points="596.6767,-604.3723 605.2525,-606.2205 600.5884,-603.5361 604.5,-602.7 604.5,-602.7 604.5,-602.7 600.5884,-603.5361 603.7475,-599.1795 596.6767,-604.3723 596.6767,-604.3723"/>
<ellipse fill="none" stroke="#000000" cx="593.5474" cy="-605.0412" rx="3.2" ry="3.2"/>
</g>
<!-- published_version_reference&#45;&gt;published_version -->
<g id="edge12" class="edge">
<title>published_version_reference:w&#45;&gt;published_version:e</title>
<path fill="none" stroke="#000000" d="M590.3469,-561.7252C559.939,-576.867 576.0284,-643.7 532,-643.7"/>
<polygon fill="#000000" stroke="#000000" points="596.6767,-560.3723 605.2525,-562.2205 600.5884,-559.5361 604.5,-558.7 604.5,-558.7 604.5,-558.7 600.5884,-559.5361 603.7475,-555.1795 596.6767,-560.3723 596.6767,-560.3723"/>
<ellipse fill="none" stroke="#000000" cx="593.5474" cy="-561.0412" rx="3.2" ry="3.2"/>
</g>
<!-- published_version_reference&#45;&gt;published_version -->
<g id="edge13" class="edge">
<title>published_version_reference:w&#45;&gt;published_version:e</title>
<path fill="none" stroke="#000000" d="M590.3469,-583.7252C559.939,-598.867 576.0284,-665.7 532,-665.7"/>
<polygon fill="#000000" stroke="#000000" points="596.6767,-582.3723 605.2525,-584.2205 600.5884,-581.5361 604.5,-580.7 604.5,-580.7 604.5,-580.7 600.5884,-581.5361 603.7475,-577.1795 596.6767,-582.3723 596.6767,-582.3723"/>
<ellipse fill="none" stroke="#000000" cx="593.5474" cy="-583.0412" rx="3.2" ry="3.2"/>
</g>
<!-- published_version_revision_content -->
<g id="node7" class="node">
<title>published_version_revision_content</title>
<g id="a_node7"><a xlink:href="../../tables/published_version_revision_content.html" xlink:title="published_version_revision_content" target="_top">
<polygon fill="#ffffff" stroke="transparent" points="583,-186.2 583,-357.2 830,-357.2 830,-186.2 583,-186.2"/>
<polygon fill="#f5f5f5" stroke="transparent" points="583.5,-333.7 583.5,-356.7 830.5,-356.7 830.5,-333.7 583.5,-333.7"/>
<polygon fill="none" stroke="#000000" points="583.5,-333.7 583.5,-356.7 830.5,-356.7 830.5,-333.7 583.5,-333.7"/>
<text text-anchor="start" x="588.5" y="-342.3" font-family="Helvetica,sans-Serif" font-weight="bold" font-size="11.00" fill="#000000">published_version_revision_content</text>
<text text-anchor="start" x="796.0219" y="-341.8" font-family="Helvetica,sans-Serif" font-size="11.00" fill="#000000">[table]</text>
<polygon fill="none" stroke="#000000" points="583.5,-311.7 583.5,-333.7 830.5,-333.7 830.5,-311.7 583.5,-311.7"/>
<image xlink:href="../../images/primaryKeys.png" width="11px" height="12px" preserveAspectRatio="xMinYMin meet" x="588.5" y="-328.7"/>
<text text-anchor="start" x="612.5" y="-318.8" font-family="Helvetica,sans-Serif" font-size="11.00" fill="#000000">package_id</text>
<polygon fill="none" stroke="#000000" points="583.5,-289.7 583.5,-311.7 830.5,-311.7 830.5,-289.7 583.5,-289.7"/>
<image xlink:href="../../images/primaryKeys.png" width="11px" height="12px" preserveAspectRatio="xMinYMin meet" x="588.5" y="-306.7"/>
<text text-anchor="start" x="612.5" y="-296.8" font-family="Helvetica,sans-Serif" font-size="11.00" fill="#000000">version</text>
<polygon fill="none" stroke="#000000" points="583.5,-267.7 583.5,-289.7 830.5,-289.7 830.5,-267.7 583.5,-267.7"/>
<image xlink:href="../../images/primaryKeys.png" width="11px" height="12px" preserveAspectRatio="xMinYMin meet" x="588.5" y="-284.7"/>
<text text-anchor="start" x="612.5" y="-274.8" font-family="Helvetica,sans-Serif" font-size="11.00" fill="#000000">revision</text>
<polygon fill="none" stroke="#000000" points="583.5,-245.7 583.5,-267.7 830.5,-267.7 830.5,-245.7 583.5,-245.7"/>
<image xlink:href="../../images/foreignKeys.png" width="11px" height="12px" preserveAspectRatio="xMinYMin meet" x="588.5" y="-262.7"/>
<text text-anchor="start" x="612.5" y="-252.8" font-family="Helvetica,sans-Serif" font-size="11.00" fill="#000000">checksum</text>
<polygon fill="none" stroke="#000000" points="583.5,-223.7 583.5,-245.7 830.5,-245.7 830.5,-223.7 583.5,-223.7"/>
<image xlink:href="../../images/primaryKeys.png" width="11px" height="12px" preserveAspectRatio="xMinYMin meet" x="588.5" y="-240.7"/>
<text text-anchor="start" x="612.5" y="-230.8" font-family="Helvetica,sans-Serif" font-size="11.00" fill="#000000">file_id</text>
<polygon fill="none" stroke="#000000" points="583.5,-204.7 583.5,-223.7 830.5,-223.7 830.5,-204.7 583.5,-204.7"/>
<text text-anchor="start" x="586.5" y="-210.8" font-family="Helvetica,sans-Serif" font-size="11.00" fill="#000000">...</text>
<polygon fill="#ffffff" stroke="transparent" points="583.5,-185.7 583.5,-204.7 705.5,-204.7 705.5,-185.7 583.5,-185.7"/>
<polygon fill="none" stroke="#000000" points="583.5,-185.7 583.5,-204.7 705.5,-204.7 705.5,-185.7 583.5,-185.7"/>
<text text-anchor="start" x="586.5" y="-191.8" font-family="Helvetica,sans-Serif" font-size="11.00" fill="#000000">&lt; 5</text>
<polygon fill="#ffffff" stroke="transparent" points="705.5,-185.7 705.5,-204.7 767.5,-204.7 767.5,-185.7 705.5,-185.7"/>
<polygon fill="none" stroke="#000000" points="705.5,-185.7 705.5,-204.7 767.5,-204.7 767.5,-185.7 705.5,-185.7"/>
<text text-anchor="start" x="758.3862" y="-191.8" font-family="Helvetica,sans-Serif" font-size="11.00" fill="#000000"> &#160;</text>
<polygon fill="#ffffff" stroke="transparent" points="767.5,-185.7 767.5,-204.7 830.5,-204.7 830.5,-185.7 767.5,-185.7"/>
<polygon fill="none" stroke="#000000" points="767.5,-185.7 767.5,-204.7 830.5,-204.7 830.5,-185.7 767.5,-185.7"/>
<text text-anchor="start" x="821.3862" y="-191.8" font-family="Helvetica,sans-Serif" font-size="11.00" fill="#000000"> &#160;</text>
</a>
</g>
</g>
<!-- published_version_revision_content&#45;&gt;published_version -->
<g id="edge14" class="edge">
<title>published_version_revision_content:w&#45;&gt;published_version:e</title>
<path fill="none" stroke="#000000" d="M569.637,-327.3149C515.6476,-369.567 608.4749,-687.7 532,-687.7"/>
<polygon fill="#000000" stroke="#000000" points="575.9095,-325.2269 584.6371,-326.1157 579.7048,-323.9634 583.5,-322.7 583.5,-322.7 583.5,-322.7 579.7048,-323.9634 582.3629,-319.2843 575.9095,-325.2269 575.9095,-325.2269"/>
<ellipse fill="none" stroke="#000000" cx="572.8734" cy="-326.2376" rx="3.2" ry="3.2"/>
</g>
<!-- published_version_revision_content&#45;&gt;published_version -->
<g id="edge15" class="edge">
<title>published_version_revision_content:w&#45;&gt;published_version:e</title>
<path fill="none" stroke="#000000" d="M569.637,-283.3149C515.6476,-325.567 608.4749,-643.7 532,-643.7"/>
<polygon fill="#000000" stroke="#000000" points="575.9095,-281.2269 584.6371,-282.1157 579.7048,-279.9634 583.5,-278.7 583.5,-278.7 583.5,-278.7 579.7048,-279.9634 582.3629,-275.2843 575.9095,-281.2269 575.9095,-281.2269"/>
<ellipse fill="none" stroke="#000000" cx="572.8734" cy="-282.2376" rx="3.2" ry="3.2"/>
</g>
<!-- published_version_revision_content&#45;&gt;published_version -->
<g id="edge16" class="edge">
<title>published_version_revision_content:w&#45;&gt;published_version:e</title>
<path fill="none" stroke="#000000" d="M569.637,-305.3149C515.6476,-347.567 608.4749,-665.7 532,-665.7"/>
<polygon fill="#000000" stroke="#000000" points="575.9095,-303.2269 584.6371,-304.1157 579.7048,-301.9634 583.5,-300.7 583.5,-300.7 583.5,-300.7 579.7048,-301.9634 582.3629,-297.2843 575.9095,-303.2269 575.9095,-303.2269"/>
<ellipse fill="none" stroke="#000000" cx="572.8734" cy="-304.2376" rx="3.2" ry="3.2"/>
</g>
<!-- published_version_validation -->
<g id="node8" class="node">
<title>published_version_validation</title>
<g id="a_node8"><a xlink:href="../../tables/published_version_validation.html" xlink:title="published_version_validation" target="_top">
<polygon fill="#ffffff" stroke="transparent" points="603,-38.2 603,-165.2 810,-165.2 810,-38.2 603,-38.2"/>
<polygon fill="#f5f5f5" stroke="transparent" points="603.5,-141.7 603.5,-164.7 810.5,-164.7 810.5,-141.7 603.5,-141.7"/>
<polygon fill="none" stroke="#000000" points="603.5,-141.7 603.5,-164.7 810.5,-164.7 810.5,-141.7 603.5,-141.7"/>
<text text-anchor="start" x="608.5" y="-150.3" font-family="Helvetica,sans-Serif" font-weight="bold" font-size="11.00" fill="#000000">published_version_validation</text>
<text text-anchor="start" x="776.0219" y="-149.8" font-family="Helvetica,sans-Serif" font-size="11.00" fill="#000000">[table]</text>
<polygon fill="none" stroke="#000000" points="603.5,-119.7 603.5,-141.7 810.5,-141.7 810.5,-119.7 603.5,-119.7"/>
<image xlink:href="../../images/primaryKeys.png" width="11px" height="12px" preserveAspectRatio="xMinYMin meet" x="608.5" y="-136.7"/>
<text text-anchor="start" x="632.5" y="-126.8" font-family="Helvetica,sans-Serif" font-size="11.00" fill="#000000">package_id</text>
<polygon fill="none" stroke="#000000" points="603.5,-97.7 603.5,-119.7 810.5,-119.7 810.5,-97.7 603.5,-97.7"/>
<image xlink:href="../../images/primaryKeys.png" width="11px" height="12px" preserveAspectRatio="xMinYMin meet" x="608.5" y="-114.7"/>
<text text-anchor="start" x="632.5" y="-104.8" font-family="Helvetica,sans-Serif" font-size="11.00" fill="#000000">version</text>
<polygon fill="none" stroke="#000000" points="603.5,-75.7 603.5,-97.7 810.5,-97.7 810.5,-75.7 603.5,-75.7"/>
<image xlink:href="../../images/primaryKeys.png" width="11px" height="12px" preserveAspectRatio="xMinYMin meet" x="608.5" y="-92.7"/>
<text text-anchor="start" x="632.5" y="-82.8" font-family="Helvetica,sans-Serif" font-size="11.00" fill="#000000">revision</text>
<polygon fill="none" stroke="#000000" points="603.5,-56.7 603.5,-75.7 810.5,-75.7 810.5,-56.7 603.5,-56.7"/>
<text text-anchor="start" x="606.5" y="-62.8" font-family="Helvetica,sans-Serif" font-size="11.00" fill="#000000">...</text>
<polygon fill="#ffffff" stroke="transparent" points="603.5,-37.7 603.5,-56.7 705.5,-56.7 705.5,-37.7 603.5,-37.7"/>
<polygon fill="none" stroke="#000000" points="603.5,-37.7 603.5,-56.7 705.5,-56.7 705.5,-37.7 603.5,-37.7"/>
<text text-anchor="start" x="606.5" y="-43.8" font-family="Helvetica,sans-Serif" font-size="11.00" fill="#000000">&lt; 3</text>
<polygon fill="#ffffff" stroke="transparent" points="705.5,-37.7 705.5,-56.7 757.5,-56.7 757.5,-37.7 705.5,-37.7"/>
<polygon fill="none" stroke="#000000" points="705.5,-37.7 705.5,-56.7 757.5,-56.7 757.5,-37.7 705.5,-37.7"/>
<text text-anchor="start" x="748.3862" y="-43.8" font-family="Helvetica,sans-Serif" font-size="11.00" fill="#000000"> &#160;</text>
<polygon fill="#ffffff" stroke="transparent" points="757.5,-37.7 757.5,-56.7 810.5,-56.7 810.5,-37.7 757.5,-37.7"/>
<polygon fill="none" stroke="#000000" points="757.5,-37.7 757.5,-56.7 810.5,-56.7 810.5,-37.7 757.5,-37.7"/>
<text text-anchor="start" x="801.3862" y="-43.8" font-family="Helvetica,sans-Serif" font-size="11.00" fill="#000000"> &#160;</text>
</a>
</g>
</g>
<!-- published_version_validation&#45;&gt;published_version -->
<g id="edge17" class="edge">
<title>published_version_validation:w&#45;&gt;published_version:e</title>
<path fill="none" stroke="#000000" d="M589.5338,-135.0501C580.5448,-142.6763 580.5378,-159.2202 575,-175.7 556.8154,-229.8155 589.0892,-687.7 532,-687.7"/>
<polygon fill="#000000" stroke="#000000" points="595.8619,-133.0791 604.5706,-134.1371 599.681,-131.8896 603.5,-130.7 603.5,-130.7 603.5,-130.7 599.681,-131.8896 602.4294,-127.2629 595.8619,-133.0791 595.8619,-133.0791"/>
<ellipse fill="none" stroke="#000000" cx="592.8067" cy="-134.0308" rx="3.2" ry="3.2"/>
</g>
<!-- published_version_validation&#45;&gt;published_version -->
<g id="edge18" class="edge">
<title>published_version_validation:w&#45;&gt;published_version:e</title>
<path fill="none" stroke="#000000" d="M591.6978,-95.0061C548.2017,-164.2951 589.8876,-643.7 532,-643.7"/>
<polygon fill="#000000" stroke="#000000" points="596.9578,-91.3043 605.5719,-89.644 600.2289,-89.0021 603.5,-86.7 603.5,-86.7 603.5,-86.7 600.2289,-89.0021 601.4281,-83.756 596.9578,-91.3043 596.9578,-91.3043"/>
<ellipse fill="none" stroke="#000000" cx="594.3409" cy="-93.146" rx="3.2" ry="3.2"/>
</g>
<!-- published_version_validation&#45;&gt;published_version -->
<g id="edge19" class="edge">
<title>published_version_validation:w&#45;&gt;published_version:e</title>
<path fill="none" stroke="#000000" d="M589.5257,-112.1928C574.8421,-121.904 581.3738,-150.1919 575,-175.7 561.7509,-228.7234 586.6537,-665.7 532,-665.7"/>
<polygon fill="#000000" stroke="#000000" points="595.7388,-110.6399 604.373,-112.1926 599.6194,-109.67 603.5,-108.7 603.5,-108.7 603.5,-108.7 599.6194,-109.67 602.627,-105.2074 595.7388,-110.6399 595.7388,-110.6399"/>
<ellipse fill="none" stroke="#000000" cx="592.6343" cy="-111.4159" rx="3.2" ry="3.2"/>
</g>
</g>
</svg>
