<?xml version="1.0" encoding="UTF-8" standalone="no"?>
<!DOCTYPE svg PUBLIC "-//W3C//DTD SVG 1.1//EN"
 "http://www.w3.org/Graphics/SVG/1.1/DTD/svg11.dtd">
<!-- Generated by graphviz version 2.40.1 (20161225.0304)
 -->
<!-- Title: oneDegreeRelationshipsDiagram Pages: 1 -->
<svg width="756pt" height="221pt"
 viewBox="0.00 0.00 756.00 221.20" xmlns="http://www.w3.org/2000/svg" xmlns:xlink="http://www.w3.org/1999/xlink">
<g id="graph0" class="graph" transform="scale(1 1) rotate(0) translate(4 217.2)">
<title>oneDegreeRelationshipsDiagram</title>
<polygon fill="#ffffff" stroke="transparent" points="-4,4 -4,-217.2 752,-217.2 752,4 -4,4"/>
<text text-anchor="middle" x="72.4936" y="-7.3" font-family="Helvetica,sans-Serif" font-size="11.00" fill="#000000">Generated by SchemaSpy</text>
<!-- published_data -->
<g id="node1" class="node">
<title>published_data</title>
<g id="a_node1"><a xlink:href="../../tables/published_data.html" xlink:title="published_data" target="_top">
<polygon fill="#ffffff" stroke="transparent" points="222,-54.7 222,-188.7 444,-188.7 444,-54.7 222,-54.7"/>
<polygon fill="#f5f5f5" stroke="transparent" points="224,-163.7 224,-186.7 442,-186.7 442,-163.7 224,-163.7"/>
<polygon fill="none" stroke="#000000" points="224,-163.7 224,-186.7 442,-186.7 442,-163.7 224,-163.7"/>
<text text-anchor="start" x="229" y="-172.3" font-family="Helvetica,sans-Serif" font-weight="bold" font-size="11.00" fill="#000000">published_data</text>
<text text-anchor="start" x="407.0437" y="-171.8" font-family="Helvetica,sans-Serif" font-size="11.00" fill="#000000">[table]</text>
<polygon fill="none" stroke="#000000" points="224,-141.7 224,-163.7 333,-163.7 333,-141.7 224,-141.7"/>
<image xlink:href="../../images/primaryKeys.png" width="11px" height="12px" preserveAspectRatio="xMinYMin meet" x="229" y="-158.7"/>
<text text-anchor="start" x="244" y="-148.8" font-family="Helvetica,sans-Serif" font-size="11.00" fill="#000000">package_id</text>
<polygon fill="none" stroke="#000000" points="333,-141.7 333,-163.7 442,-163.7 442,-141.7 333,-141.7"/>
<text text-anchor="start" x="335.5344" y="-149.4" font-family="Helvetica,sans-Serif" font-size="11.00" fill="#000000">varchar[2147483647]</text>
<polygon fill="none" stroke="#000000" points="224,-119.7 224,-141.7 333,-141.7 333,-119.7 224,-119.7"/>
<image xlink:href="../../images/primaryKeys.png" width="11px" height="12px" preserveAspectRatio="xMinYMin meet" x="229" y="-136.7"/>
<text text-anchor="start" x="244" y="-126.8" font-family="Helvetica,sans-Serif" font-size="11.00" fill="#000000">checksum</text>
<polygon fill="none" stroke="#000000" points="333,-119.7 333,-141.7 442,-141.7 442,-119.7 333,-119.7"/>
<text text-anchor="start" x="335.5344" y="-127.4" font-family="Helvetica,sans-Serif" font-size="11.00" fill="#000000">varchar[2147483647]</text>
<polygon fill="none" stroke="#000000" points="224,-97.7 224,-119.7 333,-119.7 333,-97.7 224,-97.7"/>
<text text-anchor="start" x="244" y="-104.8" font-family="Helvetica,sans-Serif" font-size="11.00" fill="#000000">media_type</text>
<polygon fill="none" stroke="#000000" points="333,-97.7 333,-119.7 442,-119.7 442,-97.7 333,-97.7"/>
<text text-anchor="start" x="335.5344" y="-105.4" font-family="Helvetica,sans-Serif" font-size="11.00" fill="#000000">varchar[2147483647]</text>
<polygon fill="none" stroke="#000000" points="224,-75.7 224,-97.7 333,-97.7 333,-75.7 224,-75.7"/>
<text text-anchor="start" x="244" y="-82.8" font-family="Helvetica,sans-Serif" font-size="11.00" fill="#000000">data</text>
<polygon fill="none" stroke="#000000" points="333,-75.7 333,-97.7 442,-97.7 442,-75.7 333,-75.7"/>
<text text-anchor="start" x="336" y="-83.4" font-family="Helvetica,sans-Serif" font-size="11.00" fill="#000000">bytea[2147483647]</text>
<polygon fill="#ffffff" stroke="transparent" points="224,-56.7 224,-75.7 283,-75.7 283,-56.7 224,-56.7"/>
<polygon fill="none" stroke="#000000" points="224,-56.7 224,-75.7 283,-75.7 283,-56.7 224,-56.7"/>
<text text-anchor="start" x="227" y="-62.8" font-family="Helvetica,sans-Serif" font-size="11.00" fill="#000000">&lt; 1</text>
<polygon fill="#ffffff" stroke="transparent" points="283,-56.7 283,-75.7 333,-75.7 333,-56.7 283,-56.7"/>
<polygon fill="none" stroke="#000000" points="283,-56.7 283,-75.7 333,-75.7 333,-56.7 283,-56.7"/>
<text text-anchor="start" x="323.8862" y="-62.8" font-family="Helvetica,sans-Serif" font-size="11.00" fill="#000000"> &#160;</text>
<polygon fill="#ffffff" stroke="transparent" points="333,-56.7 333,-75.7 442,-75.7 442,-56.7 333,-56.7"/>
<polygon fill="none" stroke="#000000" points="333,-56.7 333,-75.7 442,-75.7 442,-56.7 333,-56.7"/>
<text text-anchor="start" x="423.4053" y="-62.8" font-family="Helvetica,sans-Serif" font-size="11.00" fill="#000000">2 &gt;</text>
<polygon fill="none" stroke="#000000" stroke-width="2" points="223,-55.7 223,-187.7 443,-187.7 443,-55.7 223,-55.7"/>
</a>
</g>
</g>
<!-- package_group -->
<g id="node2" class="node">
<title>package_group</title>
<g id="a_node2"><a xlink:href="../../tables/package_group.html" xlink:title="package_group" target="_top">
<polygon fill="#ffffff" stroke="transparent" points="8,-82.2 8,-187.2 173,-187.2 173,-82.2 8,-82.2"/>
<polygon fill="#f5f5f5" stroke="transparent" points="8.5,-163.7 8.5,-186.7 173.5,-186.7 173.5,-163.7 8.5,-163.7"/>
<polygon fill="none" stroke="#000000" points="8.5,-163.7 8.5,-186.7 173.5,-186.7 173.5,-163.7 8.5,-163.7"/>
<text text-anchor="start" x="13.5" y="-172.3" font-family="Helvetica,sans-Serif" font-weight="bold" font-size="11.00" fill="#000000">package_group</text>
<text text-anchor="start" x="138.5437" y="-171.8" font-family="Helvetica,sans-Serif" font-size="11.00" fill="#000000">[table]</text>
<polygon fill="none" stroke="#000000" points="8.5,-141.7 8.5,-163.7 173.5,-163.7 173.5,-141.7 8.5,-141.7"/>
<image xlink:href="../../images/primaryKeys.png" width="11px" height="12px" preserveAspectRatio="xMinYMin meet" x="13.5" y="-158.7"/>
<text text-anchor="start" x="28.5" y="-148.8" font-family="Helvetica,sans-Serif" font-size="11.00" fill="#000000">id</text>
<polygon fill="none" stroke="#000000" points="8.5,-119.7 8.5,-141.7 173.5,-141.7 173.5,-119.7 8.5,-119.7"/>
<image xlink:href="../../images/foreignKeys.png" width="11px" height="12px" preserveAspectRatio="xMinYMin meet" x="13.5" y="-136.7"/>
<text text-anchor="start" x="28.5" y="-126.8" font-family="Helvetica,sans-Serif" font-size="11.00" fill="#000000">parent_id</text>
<polygon fill="none" stroke="#000000" points="8.5,-100.7 8.5,-119.7 173.5,-119.7 173.5,-100.7 8.5,-100.7"/>
<text text-anchor="start" x="11.5" y="-106.8" font-family="Helvetica,sans-Serif" font-size="11.00" fill="#000000">...</text>
<polygon fill="#ffffff" stroke="transparent" points="8.5,-81.7 8.5,-100.7 81.5,-100.7 81.5,-81.7 8.5,-81.7"/>
<polygon fill="none" stroke="#000000" points="8.5,-81.7 8.5,-100.7 81.5,-100.7 81.5,-81.7 8.5,-81.7"/>
<text text-anchor="start" x="11.5" y="-87.8" font-family="Helvetica,sans-Serif" font-size="11.00" fill="#000000">&lt; 1</text>
<polygon fill="#ffffff" stroke="transparent" points="81.5,-81.7 81.5,-100.7 119.5,-100.7 119.5,-81.7 81.5,-81.7"/>
<polygon fill="none" stroke="#000000" points="81.5,-81.7 81.5,-100.7 119.5,-100.7 119.5,-81.7 81.5,-81.7"/>
<text text-anchor="start" x="110.3862" y="-87.8" font-family="Helvetica,sans-Serif" font-size="11.00" fill="#000000"> &#160;</text>
<polygon fill="#ffffff" stroke="transparent" points="119.5,-81.7 119.5,-100.7 173.5,-100.7 173.5,-81.7 119.5,-81.7"/>
<polygon fill="none" stroke="#000000" points="119.5,-81.7 119.5,-100.7 173.5,-100.7 173.5,-81.7 119.5,-81.7"/>
<text text-anchor="start" x="148.7904" y="-87.8" font-family="Helvetica,sans-Serif" font-size="11.00" fill="#000000">14 &gt;</text>
</a>
</g>
</g>
<!-- published_data&#45;&gt;package_group -->
<g id="edge1" class="edge">
<title>published_data:w&#45;&gt;package_group:e</title>
<path fill="none" stroke="#000000" d="M209.4203,-152.7C197.5435,-152.7 190.158,-152.7 173.5,-152.7"/>
<polygon fill="#000000" stroke="#000000" points="216,-152.7001 224,-156.3 220,-152.7 224,-152.7 224,-152.7 224,-152.7 220,-152.7 224,-149.1 216,-152.7001 216,-152.7001"/>
<ellipse fill="none" stroke="#000000" cx="212.8" cy="-152.7001" rx="3.2" ry="3.2"/>
</g>
<!-- published_version_revision_content -->
<g id="node3" class="node">
<title>published_version_revision_content</title>
<g id="a_node3"><a xlink:href="../../tables/published_version_revision_content.html" xlink:title="published_version_revision_content" target="_top">
<polygon fill="#ffffff" stroke="transparent" points="493,-38.2 493,-209.2 740,-209.2 740,-38.2 493,-38.2"/>
<polygon fill="#f5f5f5" stroke="transparent" points="493.5,-185.7 493.5,-208.7 740.5,-208.7 740.5,-185.7 493.5,-185.7"/>
<polygon fill="none" stroke="#000000" points="493.5,-185.7 493.5,-208.7 740.5,-208.7 740.5,-185.7 493.5,-185.7"/>
<text text-anchor="start" x="498.5" y="-194.3" font-family="Helvetica,sans-Serif" font-weight="bold" font-size="11.00" fill="#000000">published_version_revision_content</text>
<text text-anchor="start" x="706.0219" y="-193.8" font-family="Helvetica,sans-Serif" font-size="11.00" fill="#000000">[table]</text>
<polygon fill="none" stroke="#000000" points="493.5,-163.7 493.5,-185.7 740.5,-185.7 740.5,-163.7 493.5,-163.7"/>
<image xlink:href="../../images/primaryKeys.png" width="11px" height="12px" preserveAspectRatio="xMinYMin meet" x="498.5" y="-180.7"/>
<text text-anchor="start" x="522.5" y="-170.8" font-family="Helvetica,sans-Serif" font-size="11.00" fill="#000000">package_id</text>
<polygon fill="none" stroke="#000000" points="493.5,-141.7 493.5,-163.7 740.5,-163.7 740.5,-141.7 493.5,-141.7"/>
<image xlink:href="../../images/primaryKeys.png" width="11px" height="12px" preserveAspectRatio="xMinYMin meet" x="498.5" y="-158.7"/>
<text text-anchor="start" x="522.5" y="-148.8" font-family="Helvetica,sans-Serif" font-size="11.00" fill="#000000">version</text>
<polygon fill="none" stroke="#000000" points="493.5,-119.7 493.5,-141.7 740.5,-141.7 740.5,-119.7 493.5,-119.7"/>
<image xlink:href="../../images/primaryKeys.png" width="11px" height="12px" preserveAspectRatio="xMinYMin meet" x="498.5" y="-136.7"/>
<text text-anchor="start" x="522.5" y="-126.8" font-family="Helvetica,sans-Serif" font-size="11.00" fill="#000000">revision</text>
<polygon fill="#ffffff" stroke="transparent" points="493.5,-97.7 493.5,-119.7 740.5,-119.7 740.5,-97.7 493.5,-97.7"/>
<polygon fill="none" stroke="#000000" points="493.5,-97.7 493.5,-119.7 740.5,-119.7 740.5,-97.7 493.5,-97.7"/>
<image xlink:href="../../images/foreignKeys.png" width="11px" height="12px" preserveAspectRatio="xMinYMin meet" x="498.5" y="-114.7"/>
<text text-anchor="start" x="522.5" y="-104.8" font-family="Helvetica,sans-Serif" font-size="11.00" fill="#000000">checksum</text>
<polygon fill="none" stroke="#000000" points="493.5,-75.7 493.5,-97.7 740.5,-97.7 740.5,-75.7 493.5,-75.7"/>
<image xlink:href="../../images/primaryKeys.png" width="11px" height="12px" preserveAspectRatio="xMinYMin meet" x="498.5" y="-92.7"/>
<text text-anchor="start" x="522.5" y="-82.8" font-family="Helvetica,sans-Serif" font-size="11.00" fill="#000000">file_id</text>
<polygon fill="none" stroke="#000000" points="493.5,-56.7 493.5,-75.7 740.5,-75.7 740.5,-56.7 493.5,-56.7"/>
<text text-anchor="start" x="496.5" y="-62.8" font-family="Helvetica,sans-Serif" font-size="11.00" fill="#000000">...</text>
<polygon fill="#ffffff" stroke="transparent" points="493.5,-37.7 493.5,-56.7 615.5,-56.7 615.5,-37.7 493.5,-37.7"/>
<polygon fill="none" stroke="#000000" points="493.5,-37.7 493.5,-56.7 615.5,-56.7 615.5,-37.7 493.5,-37.7"/>
<text text-anchor="start" x="496.5" y="-43.8" font-family="Helvetica,sans-Serif" font-size="11.00" fill="#000000">&lt; 5</text>
<polygon fill="#ffffff" stroke="transparent" points="615.5,-37.7 615.5,-56.7 677.5,-56.7 677.5,-37.7 615.5,-37.7"/>
<polygon fill="none" stroke="#000000" points="615.5,-37.7 615.5,-56.7 677.5,-56.7 677.5,-37.7 615.5,-37.7"/>
<text text-anchor="start" x="668.3862" y="-43.8" font-family="Helvetica,sans-Serif" font-size="11.00" fill="#000000"> &#160;</text>
<polygon fill="#ffffff" stroke="transparent" points="677.5,-37.7 677.5,-56.7 740.5,-56.7 740.5,-37.7 677.5,-37.7"/>
<polygon fill="none" stroke="#000000" points="677.5,-37.7 677.5,-56.7 740.5,-56.7 740.5,-37.7 677.5,-37.7"/>
<text text-anchor="start" x="731.3862" y="-43.8" font-family="Helvetica,sans-Serif" font-size="11.00" fill="#000000"> &#160;</text>
</a>
</g>
</g>
<!-- published_version_revision_content&#45;&gt;published_data -->
<g id="edge2" class="edge">
<title>published_version_revision_content:w&#45;&gt;published_data:e</title>
<path fill="none" stroke="#000000" d="M479.2209,-111.759C466.531,-117.804 461.0563,-130.7 442,-130.7"/>
<polygon fill="#000000" stroke="#000000" points="485.6775,-110.3759 494.2541,-112.2201 489.5887,-109.5379 493.5,-108.7 493.5,-108.7 493.5,-108.7 489.5887,-109.5379 492.7459,-105.1799 485.6775,-110.3759 485.6775,-110.3759"/>
<ellipse fill="none" stroke="#000000" cx="482.5485" cy="-111.0462" rx="3.2" ry="3.2"/>
</g>
<!-- published_version_revision_content&#45;&gt;published_data -->
<g id="edge3" class="edge">
<title>published_version_revision_content:w&#45;&gt;published_data:e</title>
<path fill="none" stroke="#000000" d="M479.2209,-171.641C466.531,-165.596 461.0563,-152.7 442,-152.7"/>
<polygon fill="#000000" stroke="#000000" points="485.6775,-173.0241 492.7459,-178.2201 489.5887,-173.8621 493.5,-174.7 493.5,-174.7 493.5,-174.7 489.5887,-173.8621 494.2541,-171.1799 485.6775,-173.0241 485.6775,-173.0241"/>
<ellipse fill="none" stroke="#000000" cx="482.5485" cy="-172.3538" rx="3.2" ry="3.2"/>
</g>
</g>
</svg>
