<?xml version="1.0" encoding="UTF-8" standalone="no"?>
<!DOCTYPE svg PUBLIC "-//W3C//DTD SVG 1.1//EN"
 "http://www.w3.org/Graphics/SVG/1.1/DTD/svg11.dtd">
<!-- Generated by graphviz version 2.40.1 (20161225.0304)
 -->
<!-- Title: twoDegreesRelationshipsDiagram Pages: 1 -->
<svg width="519pt" height="235pt"
 viewBox="0.00 0.00 519.00 234.70" xmlns="http://www.w3.org/2000/svg" xmlns:xlink="http://www.w3.org/1999/xlink">
<g id="graph0" class="graph" transform="scale(1 1) rotate(0) translate(4 230.7)">
<title>twoDegreesRelationshipsDiagram</title>
<polygon fill="#ffffff" stroke="transparent" points="-4,4 -4,-230.7 515,-230.7 515,4 -4,4"/>
<text text-anchor="middle" x="72.4936" y="-7.3" font-family="Helvetica,sans-Serif" font-size="11.00" fill="#000000">Generated by SchemaSpy</text>
<!-- published_sources -->
<g id="node1" class="node">
<title>published_sources</title>
<g id="a_node1"><a xlink:href="../../tables/published_sources.html" xlink:title="published_sources" target="_top">
<polygon fill="#ffffff" stroke="transparent" points="355,-73.7 355,-222.7 503,-222.7 503,-73.7 355,-73.7"/>
<polygon fill="#f5f5f5" stroke="transparent" points="355,-199.2 355,-222.2 503,-222.2 503,-199.2 355,-199.2"/>
<polygon fill="none" stroke="#000000" points="355,-199.2 355,-222.2 503,-222.2 503,-199.2 355,-199.2"/>
<text text-anchor="start" x="360" y="-207.8" font-family="Helvetica,sans-Serif" font-weight="bold" font-size="11.00" fill="#000000">published_sources</text>
<text text-anchor="start" x="468.5219" y="-207.3" font-family="Helvetica,sans-Serif" font-size="11.00" fill="#000000">[table]</text>
<polygon fill="#ffffff" stroke="transparent" points="355,-177.2 355,-199.2 503,-199.2 503,-177.2 355,-177.2"/>
<polygon fill="none" stroke="#000000" points="355,-177.2 355,-199.2 503,-199.2 503,-177.2 355,-177.2"/>
<image xlink:href="../../images/foreignKeys.png" width="11px" height="12px" preserveAspectRatio="xMinYMin meet" x="360" y="-194.2"/>
<text text-anchor="start" x="384" y="-184.3" font-family="Helvetica,sans-Serif" font-size="11.00" fill="#000000">package_id</text>
<polygon fill="#ffffff" stroke="transparent" points="355,-155.2 355,-177.2 503,-177.2 503,-155.2 355,-155.2"/>
<polygon fill="none" stroke="#000000" points="355,-155.2 355,-177.2 503,-177.2 503,-155.2 355,-155.2"/>
<image xlink:href="../../images/foreignKeys.png" width="11px" height="12px" preserveAspectRatio="xMinYMin meet" x="360" y="-172.2"/>
<text text-anchor="start" x="384" y="-162.3" font-family="Helvetica,sans-Serif" font-size="11.00" fill="#000000">version</text>
<polygon fill="#ffffff" stroke="transparent" points="355,-133.2 355,-155.2 503,-155.2 503,-133.2 355,-133.2"/>
<polygon fill="none" stroke="#000000" points="355,-133.2 355,-155.2 503,-155.2 503,-133.2 355,-133.2"/>
<image xlink:href="../../images/foreignKeys.png" width="11px" height="12px" preserveAspectRatio="xMinYMin meet" x="360" y="-150.2"/>
<text text-anchor="start" x="384" y="-140.3" font-family="Helvetica,sans-Serif" font-size="11.00" fill="#000000">revision</text>
<polygon fill="none" stroke="#000000" points="355,-111.2 355,-133.2 503,-133.2 503,-111.2 355,-111.2"/>
<image xlink:href="../../images/foreignKeys.png" width="11px" height="12px" preserveAspectRatio="xMinYMin meet" x="360" y="-128.2"/>
<text text-anchor="start" x="384" y="-118.3" font-family="Helvetica,sans-Serif" font-size="11.00" fill="#000000">archive_checksum</text>
<polygon fill="none" stroke="#000000" points="355,-92.2 355,-111.2 503,-111.2 503,-92.2 355,-92.2"/>
<text text-anchor="start" x="358" y="-98.3" font-family="Helvetica,sans-Serif" font-size="11.00" fill="#000000">...</text>
<polygon fill="#ffffff" stroke="transparent" points="355,-73.2 355,-92.2 427,-92.2 427,-73.2 355,-73.2"/>
<polygon fill="none" stroke="#000000" points="355,-73.2 355,-92.2 427,-92.2 427,-73.2 355,-73.2"/>
<text text-anchor="start" x="358" y="-79.3" font-family="Helvetica,sans-Serif" font-size="11.00" fill="#000000">&lt; 4</text>
<polygon fill="#ffffff" stroke="transparent" points="427,-73.2 427,-92.2 465,-92.2 465,-73.2 427,-73.2"/>
<polygon fill="none" stroke="#000000" points="427,-73.2 427,-92.2 465,-92.2 465,-73.2 427,-73.2"/>
<text text-anchor="start" x="455.8862" y="-79.3" font-family="Helvetica,sans-Serif" font-size="11.00" fill="#000000"> &#160;</text>
<polygon fill="#ffffff" stroke="transparent" points="465,-73.2 465,-92.2 503,-92.2 503,-73.2 465,-73.2"/>
<polygon fill="none" stroke="#000000" points="465,-73.2 465,-92.2 503,-92.2 503,-73.2 465,-73.2"/>
<text text-anchor="start" x="493.8862" y="-79.3" font-family="Helvetica,sans-Serif" font-size="11.00" fill="#000000"> &#160;</text>
</a>
</g>
</g>
<!-- published_sources_archives -->
<g id="node2" class="node">
<title>published_sources_archives</title>
<g id="a_node2"><a xlink:href="../../tables/published_sources_archives.html" xlink:title="published_sources_archives" target="_top">
<polygon fill="#ffffff" stroke="transparent" points="8,-38.2 8,-128.2 306,-128.2 306,-38.2 8,-38.2"/>
<polygon fill="#f5f5f5" stroke="transparent" points="10,-103.2 10,-126.2 304,-126.2 304,-103.2 10,-103.2"/>
<polygon fill="none" stroke="#000000" points="10,-103.2 10,-126.2 304,-126.2 304,-103.2 10,-103.2"/>
<text text-anchor="start" x="15" y="-111.8" font-family="Helvetica,sans-Serif" font-weight="bold" font-size="11.00" fill="#000000">published_sources_archives</text>
<text text-anchor="start" x="269.0437" y="-111.3" font-family="Helvetica,sans-Serif" font-size="11.00" fill="#000000">[table]</text>
<polygon fill="none" stroke="#000000" points="10,-81.2 10,-103.2 195,-103.2 195,-81.2 10,-81.2"/>
<image xlink:href="../../images/primaryKeys.png" width="11px" height="12px" preserveAspectRatio="xMinYMin meet" x="15" y="-98.2"/>
<text text-anchor="start" x="30" y="-88.3" font-family="Helvetica,sans-Serif" font-size="11.00" fill="#000000">checksum</text>
<polygon fill="none" stroke="#000000" points="195,-81.2 195,-103.2 304,-103.2 304,-81.2 195,-81.2"/>
<text text-anchor="start" x="197.5344" y="-88.9" font-family="Helvetica,sans-Serif" font-size="11.00" fill="#000000">varchar[2147483647]</text>
<polygon fill="none" stroke="#000000" points="10,-59.2 10,-81.2 195,-81.2 195,-59.2 10,-59.2"/>
<text text-anchor="start" x="30" y="-66.3" font-family="Helvetica,sans-Serif" font-size="11.00" fill="#000000">data</text>
<polygon fill="none" stroke="#000000" points="195,-59.2 195,-81.2 304,-81.2 304,-59.2 195,-59.2"/>
<text text-anchor="start" x="198" y="-66.9" font-family="Helvetica,sans-Serif" font-size="11.00" fill="#000000">bytea[2147483647]</text>
<polygon fill="#ffffff" stroke="transparent" points="10,-40.2 10,-59.2 107,-59.2 107,-40.2 10,-40.2"/>
<polygon fill="none" stroke="#000000" points="10,-40.2 10,-59.2 107,-59.2 107,-40.2 10,-40.2"/>
<text text-anchor="start" x="13" y="-46.3" font-family="Helvetica,sans-Serif" font-size="11.00" fill="#000000">&lt; 0</text>
<polygon fill="#ffffff" stroke="transparent" points="107,-40.2 107,-59.2 195,-59.2 195,-40.2 107,-40.2"/>
<polygon fill="none" stroke="#000000" points="107,-40.2 107,-59.2 195,-59.2 195,-40.2 107,-40.2"/>
<text text-anchor="start" x="185.8862" y="-46.3" font-family="Helvetica,sans-Serif" font-size="11.00" fill="#000000"> &#160;</text>
<polygon fill="#ffffff" stroke="transparent" points="195,-40.2 195,-59.2 304,-59.2 304,-40.2 195,-40.2"/>
<polygon fill="none" stroke="#000000" points="195,-40.2 195,-59.2 304,-59.2 304,-40.2 195,-40.2"/>
<text text-anchor="start" x="285.4053" y="-46.3" font-family="Helvetica,sans-Serif" font-size="11.00" fill="#000000">1 &gt;</text>
<polygon fill="none" stroke="#000000" stroke-width="2" points="9,-39.2 9,-127.2 305,-127.2 305,-39.2 9,-39.2"/>
</a>
</g>
</g>
<!-- published_sources&#45;&gt;published_sources_archives -->
<g id="edge1" class="edge">
<title>published_sources:w&#45;&gt;published_sources_archives:e</title>
<path fill="none" stroke="#000000" d="M340.7724,-118.278C327.9935,-110.1462 324.3394,-92.2 304,-92.2"/>
<polygon fill="#000000" stroke="#000000" points="347.2877,-120.074 354.0433,-125.6706 351.1438,-121.137 355,-122.2 355,-122.2 355,-122.2 351.1438,-121.137 355.9567,-118.7294 347.2877,-120.074 347.2877,-120.074"/>
<ellipse fill="none" stroke="#000000" cx="344.2027" cy="-119.2236" rx="3.2" ry="3.2"/>
</g>
<!-- published_version -->
<g id="node3" class="node">
<title>published_version</title>
<g id="a_node3"><a xlink:href="../../tables/published_version.html" xlink:title="published_version" target="_top">
<polygon fill="#ffffff" stroke="transparent" points="84.5,-149.7 84.5,-210.7 229.5,-210.7 229.5,-149.7 84.5,-149.7"/>
<polygon fill="#f5f5f5" stroke="transparent" points="85,-187.2 85,-210.2 230,-210.2 230,-187.2 85,-187.2"/>
<polygon fill="none" stroke="#000000" points="85,-187.2 85,-210.2 230,-210.2 230,-187.2 85,-187.2"/>
<text text-anchor="start" x="90" y="-195.8" font-family="Helvetica,sans-Serif" font-weight="bold" font-size="11.00" fill="#000000">published_version</text>
<text text-anchor="start" x="195.5219" y="-195.3" font-family="Helvetica,sans-Serif" font-size="11.00" fill="#000000">[table]</text>
<polygon fill="none" stroke="#000000" points="85,-168.2 85,-187.2 230,-187.2 230,-168.2 85,-168.2"/>
<text text-anchor="start" x="88" y="-174.3" font-family="Helvetica,sans-Serif" font-size="11.00" fill="#000000">...</text>
<polygon fill="#ffffff" stroke="transparent" points="85,-149.2 85,-168.2 148,-168.2 148,-149.2 85,-149.2"/>
<polygon fill="none" stroke="#000000" points="85,-149.2 85,-168.2 148,-168.2 148,-149.2 85,-149.2"/>
<text text-anchor="start" x="88" y="-155.3" font-family="Helvetica,sans-Serif" font-size="11.00" fill="#000000">&lt; 1</text>
<polygon fill="#ffffff" stroke="transparent" points="148,-149.2 148,-168.2 181,-168.2 181,-149.2 148,-149.2"/>
<polygon fill="none" stroke="#000000" points="148,-149.2 148,-168.2 181,-168.2 181,-149.2 148,-149.2"/>
<text text-anchor="start" x="171.8862" y="-155.3" font-family="Helvetica,sans-Serif" font-size="11.00" fill="#000000"> &#160;</text>
<polygon fill="#ffffff" stroke="transparent" points="181,-149.2 181,-168.2 230,-168.2 230,-149.2 181,-149.2"/>
<polygon fill="none" stroke="#000000" points="181,-149.2 181,-168.2 230,-168.2 230,-149.2 181,-149.2"/>
<text text-anchor="start" x="205.2904" y="-155.3" font-family="Helvetica,sans-Serif" font-size="11.00" fill="#000000">18 &gt;</text>
</a>
</g>
</g>
<!-- published_sources&#45;&gt;published_version -->
<g id="edge2" class="edge">
<title>published_sources:w&#45;&gt;published_version:e</title>
<path fill="none" stroke="#000000" d="M340.3605,-187.9281C296.3342,-186.2342 280.5418,-177.2 230,-177.2"/>
<polygon fill="#000000" stroke="#000000" points="347.0014,-188.0514 354.9331,-191.7994 351.0007,-188.1257 355,-188.2 355,-188.2 355,-188.2 351.0007,-188.1257 355.0669,-184.6006 347.0014,-188.0514 347.0014,-188.0514"/>
<ellipse fill="none" stroke="#000000" cx="343.8019" cy="-187.9919" rx="3.2" ry="3.2"/>
</g>
<!-- published_sources&#45;&gt;published_version -->
<g id="edge3" class="edge">
<title>published_sources:w&#45;&gt;published_version:e</title>
<path fill="none" stroke="#000000" d="M340.5916,-144.9513C295.347,-149.8633 282.2966,-177.2 230,-177.2"/>
<polygon fill="#000000" stroke="#000000" points="347.0109,-144.6166 355.1875,-147.7951 351.0054,-144.4083 355,-144.2 355,-144.2 355,-144.2 351.0054,-144.4083 354.8125,-140.6049 347.0109,-144.6166 347.0109,-144.6166"/>
<ellipse fill="none" stroke="#000000" cx="343.8152" cy="-144.7832" rx="3.2" ry="3.2"/>
</g>
<!-- published_sources&#45;&gt;published_version -->
<g id="edge4" class="edge">
<title>published_sources:w&#45;&gt;published_version:e</title>
<path fill="none" stroke="#000000" d="M340.3605,-166.4719C296.3342,-168.1658 280.5418,-177.2 230,-177.2"/>
<polygon fill="#000000" stroke="#000000" points="347.0014,-166.3486 355.0669,-169.7994 351.0007,-166.2743 355,-166.2 355,-166.2 355,-166.2 351.0007,-166.2743 354.9331,-162.6006 347.0014,-166.3486 347.0014,-166.3486"/>
<ellipse fill="none" stroke="#000000" cx="343.8019" cy="-166.4081" rx="3.2" ry="3.2"/>
</g>
</g>
</svg>
