<?xml version="1.0" encoding="UTF-8" standalone="no"?>
<!DOCTYPE svg PUBLIC "-//W3C//DTD SVG 1.1//EN"
 "http://www.w3.org/Graphics/SVG/1.1/DTD/svg11.dtd">
<!-- Generated by graphviz version 2.40.1 (20161225.0304)
 -->
<!-- Title: twoDegreesRelationshipsDiagram Pages: 1 -->
<svg width="567pt" height="1169pt"
 viewBox="0.00 0.00 567.00 1169.20" xmlns="http://www.w3.org/2000/svg" xmlns:xlink="http://www.w3.org/1999/xlink">
<g id="graph0" class="graph" transform="scale(1 1) rotate(0) translate(4 1165.2)">
<title>twoDegreesRelationshipsDiagram</title>
<polygon fill="#ffffff" stroke="transparent" points="-4,4 -4,-1165.2 563,-1165.2 563,4 -4,4"/>
<text text-anchor="middle" x="72.4936" y="-7.3" font-family="Helvetica,sans-Serif" font-size="11.00" fill="#000000">Generated by SchemaSpy</text>
<!-- activity_tracking -->
<g id="node1" class="node">
<title>activity_tracking</title>
<g id="a_node1"><a xlink:href="../../tables/activity_tracking.html" xlink:title="activity_tracking" target="_top">
<polygon fill="#ffffff" stroke="transparent" points="320,-1096.2 320,-1157.2 453,-1157.2 453,-1096.2 320,-1096.2"/>
<polygon fill="#f5f5f5" stroke="transparent" points="320.5,-1133.7 320.5,-1156.7 453.5,-1156.7 453.5,-1133.7 320.5,-1133.7"/>
<polygon fill="none" stroke="#000000" points="320.5,-1133.7 320.5,-1156.7 453.5,-1156.7 453.5,-1133.7 320.5,-1133.7"/>
<text text-anchor="start" x="325.5" y="-1142.3" font-family="Helvetica,sans-Serif" font-weight="bold" font-size="11.00" fill="#000000">activity_tracking</text>
<text text-anchor="start" x="419.0219" y="-1141.8" font-family="Helvetica,sans-Serif" font-size="11.00" fill="#000000">[table]</text>
<polygon fill="none" stroke="#000000" points="320.5,-1114.7 320.5,-1133.7 453.5,-1133.7 453.5,-1114.7 320.5,-1114.7"/>
<text text-anchor="start" x="323.5" y="-1120.8" font-family="Helvetica,sans-Serif" font-size="11.00" fill="#000000">...</text>
<polygon fill="#ffffff" stroke="transparent" points="320.5,-1095.7 320.5,-1114.7 385.5,-1114.7 385.5,-1095.7 320.5,-1095.7"/>
<polygon fill="none" stroke="#000000" points="320.5,-1095.7 320.5,-1114.7 385.5,-1114.7 385.5,-1095.7 320.5,-1095.7"/>
<text text-anchor="start" x="323.5" y="-1101.8" font-family="Helvetica,sans-Serif" font-size="11.00" fill="#000000">&lt; 1</text>
<polygon fill="#ffffff" stroke="transparent" points="385.5,-1095.7 385.5,-1114.7 419.5,-1114.7 419.5,-1095.7 385.5,-1095.7"/>
<polygon fill="none" stroke="#000000" points="385.5,-1095.7 385.5,-1114.7 419.5,-1114.7 419.5,-1095.7 385.5,-1095.7"/>
<text text-anchor="start" x="410.3862" y="-1101.8" font-family="Helvetica,sans-Serif" font-size="11.00" fill="#000000"> &#160;</text>
<polygon fill="#ffffff" stroke="transparent" points="419.5,-1095.7 419.5,-1114.7 453.5,-1114.7 453.5,-1095.7 419.5,-1095.7"/>
<polygon fill="none" stroke="#000000" points="419.5,-1095.7 419.5,-1114.7 453.5,-1114.7 453.5,-1095.7 419.5,-1095.7"/>
<text text-anchor="start" x="444.3862" y="-1101.8" font-family="Helvetica,sans-Serif" font-size="11.00" fill="#000000"> &#160;</text>
</a>
</g>
</g>
<!-- package_group -->
<g id="node2" class="node">
<title>package_group</title>
<g id="a_node2"><a xlink:href="../../tables/package_group.html" xlink:title="package_group" target="_top">
<polygon fill="#ffffff" stroke="transparent" points="8,-520.2 8,-625.2 173,-625.2 173,-520.2 8,-520.2"/>
<polygon fill="#f5f5f5" stroke="transparent" points="8.5,-601.7 8.5,-624.7 173.5,-624.7 173.5,-601.7 8.5,-601.7"/>
<polygon fill="none" stroke="#000000" points="8.5,-601.7 8.5,-624.7 173.5,-624.7 173.5,-601.7 8.5,-601.7"/>
<text text-anchor="start" x="13.5" y="-610.3" font-family="Helvetica,sans-Serif" font-weight="bold" font-size="11.00" fill="#000000">package_group</text>
<text text-anchor="start" x="138.5437" y="-609.8" font-family="Helvetica,sans-Serif" font-size="11.00" fill="#000000">[table]</text>
<polygon fill="none" stroke="#000000" points="8.5,-579.7 8.5,-601.7 173.5,-601.7 173.5,-579.7 8.5,-579.7"/>
<image xlink:href="../../images/primaryKeys.png" width="11px" height="12px" preserveAspectRatio="xMinYMin meet" x="13.5" y="-596.7"/>
<text text-anchor="start" x="28.5" y="-586.8" font-family="Helvetica,sans-Serif" font-size="11.00" fill="#000000">id</text>
<polygon fill="none" stroke="#000000" points="8.5,-557.7 8.5,-579.7 173.5,-579.7 173.5,-557.7 8.5,-557.7"/>
<image xlink:href="../../images/foreignKeys.png" width="11px" height="12px" preserveAspectRatio="xMinYMin meet" x="13.5" y="-574.7"/>
<text text-anchor="start" x="28.5" y="-564.8" font-family="Helvetica,sans-Serif" font-size="11.00" fill="#000000">parent_id</text>
<polygon fill="none" stroke="#000000" points="8.5,-538.7 8.5,-557.7 173.5,-557.7 173.5,-538.7 8.5,-538.7"/>
<text text-anchor="start" x="11.5" y="-544.8" font-family="Helvetica,sans-Serif" font-size="11.00" fill="#000000">...</text>
<polygon fill="#ffffff" stroke="transparent" points="8.5,-519.7 8.5,-538.7 81.5,-538.7 81.5,-519.7 8.5,-519.7"/>
<polygon fill="none" stroke="#000000" points="8.5,-519.7 8.5,-538.7 81.5,-538.7 81.5,-519.7 8.5,-519.7"/>
<text text-anchor="start" x="11.5" y="-525.8" font-family="Helvetica,sans-Serif" font-size="11.00" fill="#000000">&lt; 1</text>
<polygon fill="#ffffff" stroke="transparent" points="81.5,-519.7 81.5,-538.7 119.5,-538.7 119.5,-519.7 81.5,-519.7"/>
<polygon fill="none" stroke="#000000" points="81.5,-519.7 81.5,-538.7 119.5,-538.7 119.5,-519.7 81.5,-519.7"/>
<text text-anchor="start" x="110.3862" y="-525.8" font-family="Helvetica,sans-Serif" font-size="11.00" fill="#000000"> &#160;</text>
<polygon fill="#ffffff" stroke="transparent" points="119.5,-519.7 119.5,-538.7 173.5,-538.7 173.5,-519.7 119.5,-519.7"/>
<polygon fill="none" stroke="#000000" points="119.5,-519.7 119.5,-538.7 173.5,-538.7 173.5,-519.7 119.5,-519.7"/>
<text text-anchor="start" x="148.7904" y="-525.8" font-family="Helvetica,sans-Serif" font-size="11.00" fill="#000000">15 &gt;</text>
</a>
</g>
</g>
<!-- activity_tracking&#45;&gt;package_group -->
<g id="edge1" class="edge">
<title>activity_tracking:w&#45;&gt;package_group:e</title>
<path fill="none" stroke="#000000" d="M305.9185,-1123.7119C264.9853,-1123.6475 241.4995,-1121.5117 214,-1085.7 180.3907,-1041.9317 228.6838,-590.7 173.5,-590.7"/>
<polygon fill="#000000" stroke="#000000" points="312.5,-1123.7066 320.503,-1127.3 316.5,-1123.7033 320.5,-1123.7 320.5,-1123.7 320.5,-1123.7 316.5,-1123.7033 320.497,-1120.1 312.5,-1123.7066 312.5,-1123.7066"/>
<ellipse fill="none" stroke="#000000" cx="309.3" cy="-1123.7092" rx="3.2" ry="3.2"/>
</g>
<!-- build -->
<g id="node3" class="node">
<title>build</title>
<g id="a_node3"><a xlink:href="../../tables/build.html" xlink:title="build" target="_top">
<polygon fill="#ffffff" stroke="transparent" points="353,-1014.2 353,-1075.2 420,-1075.2 420,-1014.2 353,-1014.2"/>
<polygon fill="#f5f5f5" stroke="transparent" points="353.5,-1051.7 353.5,-1074.7 420.5,-1074.7 420.5,-1051.7 353.5,-1051.7"/>
<polygon fill="none" stroke="#000000" points="353.5,-1051.7 353.5,-1074.7 420.5,-1074.7 420.5,-1051.7 353.5,-1051.7"/>
<text text-anchor="start" x="358.5" y="-1060.3" font-family="Helvetica,sans-Serif" font-weight="bold" font-size="11.00" fill="#000000">build</text>
<text text-anchor="start" x="386.0219" y="-1059.8" font-family="Helvetica,sans-Serif" font-size="11.00" fill="#000000">[table]</text>
<polygon fill="none" stroke="#000000" points="353.5,-1032.7 353.5,-1051.7 420.5,-1051.7 420.5,-1032.7 353.5,-1032.7"/>
<text text-anchor="start" x="356.5" y="-1038.8" font-family="Helvetica,sans-Serif" font-size="11.00" fill="#000000">...</text>
<polygon fill="#ffffff" stroke="transparent" points="353.5,-1013.7 353.5,-1032.7 380.5,-1032.7 380.5,-1013.7 353.5,-1013.7"/>
<polygon fill="none" stroke="#000000" points="353.5,-1013.7 353.5,-1032.7 380.5,-1032.7 380.5,-1013.7 353.5,-1013.7"/>
<text text-anchor="start" x="356.5" y="-1019.8" font-family="Helvetica,sans-Serif" font-size="11.00" fill="#000000">&lt; 1</text>
<polygon fill="#ffffff" stroke="transparent" points="380.5,-1013.7 380.5,-1032.7 395.5,-1032.7 395.5,-1013.7 380.5,-1013.7"/>
<polygon fill="none" stroke="#000000" points="380.5,-1013.7 380.5,-1032.7 395.5,-1032.7 395.5,-1013.7 380.5,-1013.7"/>
<text text-anchor="start" x="386.3862" y="-1019.8" font-family="Helvetica,sans-Serif" font-size="11.00" fill="#000000"> &#160;</text>
<polygon fill="#ffffff" stroke="transparent" points="395.5,-1013.7 395.5,-1032.7 420.5,-1032.7 420.5,-1013.7 395.5,-1013.7"/>
<polygon fill="none" stroke="#000000" points="395.5,-1013.7 395.5,-1032.7 420.5,-1032.7 420.5,-1013.7 395.5,-1013.7"/>
<text text-anchor="start" x="401.9053" y="-1019.8" font-family="Helvetica,sans-Serif" font-size="11.00" fill="#000000">5 &gt;</text>
</a>
</g>
</g>
<!-- build&#45;&gt;package_group -->
<g id="edge2" class="edge">
<title>build:w&#45;&gt;package_group:e</title>
<path fill="none" stroke="#000000" d="M338.9792,-1041.8692C283.9158,-1043.0661 252.2216,-1048.9588 214,-1003.7 154.5,-933.245 265.718,-590.7 173.5,-590.7"/>
<polygon fill="#000000" stroke="#000000" points="345.5005,-1041.7932 353.542,-1045.2998 349.5003,-1041.7466 353.5,-1041.7 353.5,-1041.7 353.5,-1041.7 349.5003,-1041.7466 353.458,-1038.1002 345.5005,-1041.7932 345.5005,-1041.7932"/>
<ellipse fill="none" stroke="#000000" cx="342.3008" cy="-1041.8305" rx="3.2" ry="3.2"/>
</g>
<!-- favorite_packages -->
<g id="node4" class="node">
<title>favorite_packages</title>
<g id="a_node4"><a xlink:href="../../tables/favorite_packages.html" xlink:title="favorite_packages" target="_top">
<polygon fill="#ffffff" stroke="transparent" points="315,-932.2 315,-993.2 458,-993.2 458,-932.2 315,-932.2"/>
<polygon fill="#f5f5f5" stroke="transparent" points="315.5,-969.7 315.5,-992.7 458.5,-992.7 458.5,-969.7 315.5,-969.7"/>
<polygon fill="none" stroke="#000000" points="315.5,-969.7 315.5,-992.7 458.5,-992.7 458.5,-969.7 315.5,-969.7"/>
<text text-anchor="start" x="320.5" y="-978.3" font-family="Helvetica,sans-Serif" font-weight="bold" font-size="11.00" fill="#000000">favorite_packages</text>
<text text-anchor="start" x="424.0219" y="-977.8" font-family="Helvetica,sans-Serif" font-size="11.00" fill="#000000">[table]</text>
<polygon fill="none" stroke="#000000" points="315.5,-950.7 315.5,-969.7 458.5,-969.7 458.5,-950.7 315.5,-950.7"/>
<text text-anchor="start" x="318.5" y="-956.8" font-family="Helvetica,sans-Serif" font-size="11.00" fill="#000000">...</text>
<polygon fill="#ffffff" stroke="transparent" points="315.5,-931.7 315.5,-950.7 385.5,-950.7 385.5,-931.7 315.5,-931.7"/>
<polygon fill="none" stroke="#000000" points="315.5,-931.7 315.5,-950.7 385.5,-950.7 385.5,-931.7 315.5,-931.7"/>
<text text-anchor="start" x="318.5" y="-937.8" font-family="Helvetica,sans-Serif" font-size="11.00" fill="#000000">&lt; 2</text>
<polygon fill="#ffffff" stroke="transparent" points="385.5,-931.7 385.5,-950.7 421.5,-950.7 421.5,-931.7 385.5,-931.7"/>
<polygon fill="none" stroke="#000000" points="385.5,-931.7 385.5,-950.7 421.5,-950.7 421.5,-931.7 385.5,-931.7"/>
<text text-anchor="start" x="412.3862" y="-937.8" font-family="Helvetica,sans-Serif" font-size="11.00" fill="#000000"> &#160;</text>
<polygon fill="#ffffff" stroke="transparent" points="421.5,-931.7 421.5,-950.7 458.5,-950.7 458.5,-931.7 421.5,-931.7"/>
<polygon fill="none" stroke="#000000" points="421.5,-931.7 421.5,-950.7 458.5,-950.7 458.5,-931.7 421.5,-931.7"/>
<text text-anchor="start" x="449.3862" y="-937.8" font-family="Helvetica,sans-Serif" font-size="11.00" fill="#000000"> &#160;</text>
</a>
</g>
</g>
<!-- favorite_packages&#45;&gt;package_group -->
<g id="edge3" class="edge">
<title>favorite_packages:w&#45;&gt;package_group:e</title>
<path fill="none" stroke="#000000" d="M301.0451,-959.6507C262.2987,-959.2472 240.6614,-955.5497 214,-921.7 168.1476,-863.4851 247.6041,-590.7 173.5,-590.7"/>
<polygon fill="#000000" stroke="#000000" points="307.5,-959.6726 315.4877,-963.3 311.5,-959.6863 315.5,-959.7 315.5,-959.7 315.5,-959.7 311.5,-959.6863 315.5123,-956.1 307.5,-959.6726 307.5,-959.6726"/>
<ellipse fill="none" stroke="#000000" cx="304.3001" cy="-959.6617" rx="3.2" ry="3.2"/>
</g>
<!-- migrated_version -->
<g id="node5" class="node">
<title>migrated_version</title>
<g id="a_node5"><a xlink:href="../../tables/migrated_version.html" xlink:title="migrated_version" target="_top">
<polygon fill="#ffffff" stroke="transparent" points="317,-850.2 317,-911.2 456,-911.2 456,-850.2 317,-850.2"/>
<polygon fill="#f5f5f5" stroke="transparent" points="317.5,-887.7 317.5,-910.7 456.5,-910.7 456.5,-887.7 317.5,-887.7"/>
<polygon fill="none" stroke="#000000" points="317.5,-887.7 317.5,-910.7 456.5,-910.7 456.5,-887.7 317.5,-887.7"/>
<text text-anchor="start" x="322.5" y="-896.3" font-family="Helvetica,sans-Serif" font-weight="bold" font-size="11.00" fill="#000000">migrated_version</text>
<text text-anchor="start" x="422.0219" y="-895.8" font-family="Helvetica,sans-Serif" font-size="11.00" fill="#000000">[table]</text>
<polygon fill="none" stroke="#000000" points="317.5,-868.7 317.5,-887.7 456.5,-887.7 456.5,-868.7 317.5,-868.7"/>
<text text-anchor="start" x="320.5" y="-874.8" font-family="Helvetica,sans-Serif" font-size="11.00" fill="#000000">...</text>
<polygon fill="#ffffff" stroke="transparent" points="317.5,-849.7 317.5,-868.7 385.5,-868.7 385.5,-849.7 317.5,-849.7"/>
<polygon fill="none" stroke="#000000" points="317.5,-849.7 317.5,-868.7 385.5,-868.7 385.5,-849.7 317.5,-849.7"/>
<text text-anchor="start" x="320.5" y="-855.8" font-family="Helvetica,sans-Serif" font-size="11.00" fill="#000000">&lt; 1</text>
<polygon fill="#ffffff" stroke="transparent" points="385.5,-849.7 385.5,-868.7 420.5,-868.7 420.5,-849.7 385.5,-849.7"/>
<polygon fill="none" stroke="#000000" points="385.5,-849.7 385.5,-868.7 420.5,-868.7 420.5,-849.7 385.5,-849.7"/>
<text text-anchor="start" x="411.3862" y="-855.8" font-family="Helvetica,sans-Serif" font-size="11.00" fill="#000000"> &#160;</text>
<polygon fill="#ffffff" stroke="transparent" points="420.5,-849.7 420.5,-868.7 456.5,-868.7 456.5,-849.7 420.5,-849.7"/>
<polygon fill="none" stroke="#000000" points="420.5,-849.7 420.5,-868.7 456.5,-868.7 456.5,-849.7 420.5,-849.7"/>
<text text-anchor="start" x="447.3862" y="-855.8" font-family="Helvetica,sans-Serif" font-size="11.00" fill="#000000"> &#160;</text>
</a>
</g>
</g>
<!-- migrated_version&#45;&gt;package_group -->
<g id="edge4" class="edge">
<title>migrated_version:w&#45;&gt;package_group:e</title>
<path fill="none" stroke="#000000" d="M303.0714,-877.6518C263.5887,-877.2539 241.9658,-873.5784 214,-839.7 178.3119,-796.4665 229.5605,-590.7 173.5,-590.7"/>
<polygon fill="#000000" stroke="#000000" points="309.5,-877.6732 317.488,-881.3 313.5,-877.6866 317.5,-877.7 317.5,-877.7 317.5,-877.7 313.5,-877.6866 317.512,-874.1 309.5,-877.6732 309.5,-877.6732"/>
<ellipse fill="none" stroke="#000000" cx="306.3001" cy="-877.6625" rx="3.2" ry="3.2"/>
</g>
<!-- operation_open_count -->
<g id="node6" class="node">
<title>operation_open_count</title>
<g id="a_node6"><a xlink:href="../../tables/operation_open_count.html" xlink:title="operation_open_count" target="_top">
<polygon fill="#ffffff" stroke="transparent" points="302.5,-768.2 302.5,-829.2 470.5,-829.2 470.5,-768.2 302.5,-768.2"/>
<polygon fill="#f5f5f5" stroke="transparent" points="302.5,-805.7 302.5,-828.7 470.5,-828.7 470.5,-805.7 302.5,-805.7"/>
<polygon fill="none" stroke="#000000" points="302.5,-805.7 302.5,-828.7 470.5,-828.7 470.5,-805.7 302.5,-805.7"/>
<text text-anchor="start" x="307.5" y="-814.3" font-family="Helvetica,sans-Serif" font-weight="bold" font-size="11.00" fill="#000000">operation_open_count</text>
<text text-anchor="start" x="436.0219" y="-813.8" font-family="Helvetica,sans-Serif" font-size="11.00" fill="#000000">[table]</text>
<polygon fill="none" stroke="#000000" points="302.5,-786.7 302.5,-805.7 470.5,-805.7 470.5,-786.7 302.5,-786.7"/>
<text text-anchor="start" x="305.5" y="-792.8" font-family="Helvetica,sans-Serif" font-size="11.00" fill="#000000">...</text>
<polygon fill="#ffffff" stroke="transparent" points="302.5,-767.7 302.5,-786.7 384.5,-786.7 384.5,-767.7 302.5,-767.7"/>
<polygon fill="none" stroke="#000000" points="302.5,-767.7 302.5,-786.7 384.5,-786.7 384.5,-767.7 302.5,-767.7"/>
<text text-anchor="start" x="305.5" y="-773.8" font-family="Helvetica,sans-Serif" font-size="11.00" fill="#000000">&lt; 1</text>
<polygon fill="#ffffff" stroke="transparent" points="384.5,-767.7 384.5,-786.7 427.5,-786.7 427.5,-767.7 384.5,-767.7"/>
<polygon fill="none" stroke="#000000" points="384.5,-767.7 384.5,-786.7 427.5,-786.7 427.5,-767.7 384.5,-767.7"/>
<text text-anchor="start" x="418.3862" y="-773.8" font-family="Helvetica,sans-Serif" font-size="11.00" fill="#000000"> &#160;</text>
<polygon fill="#ffffff" stroke="transparent" points="427.5,-767.7 427.5,-786.7 470.5,-786.7 470.5,-767.7 427.5,-767.7"/>
<polygon fill="none" stroke="#000000" points="427.5,-767.7 427.5,-786.7 470.5,-786.7 470.5,-767.7 427.5,-767.7"/>
<text text-anchor="start" x="461.3862" y="-773.8" font-family="Helvetica,sans-Serif" font-size="11.00" fill="#000000"> &#160;</text>
</a>
</g>
</g>
<!-- operation_open_count&#45;&gt;package_group -->
<g id="edge5" class="edge">
<title>operation_open_count:w&#45;&gt;package_group:e</title>
<path fill="none" stroke="#000000" d="M287.9768,-795.4275C255.1784,-794.0138 238.2822,-786.437 214,-757.7 164.7069,-699.3636 249.8737,-590.7 173.5,-590.7"/>
<polygon fill="#000000" stroke="#000000" points="294.5014,-795.5498 302.4324,-799.2994 298.5007,-795.6249 302.5,-795.7 302.5,-795.7 302.5,-795.7 298.5007,-795.6249 302.5676,-792.1006 294.5014,-795.5498 294.5014,-795.5498"/>
<ellipse fill="none" stroke="#000000" cx="291.302" cy="-795.4898" rx="3.2" ry="3.2"/>
</g>
<!-- package_export_config -->
<g id="node7" class="node">
<title>package_export_config</title>
<g id="a_node7"><a xlink:href="../../tables/package_export_config.html" xlink:title="package_export_config" target="_top">
<polygon fill="#ffffff" stroke="transparent" points="300,-686.2 300,-747.2 473,-747.2 473,-686.2 300,-686.2"/>
<polygon fill="#f5f5f5" stroke="transparent" points="300.5,-723.7 300.5,-746.7 473.5,-746.7 473.5,-723.7 300.5,-723.7"/>
<polygon fill="none" stroke="#000000" points="300.5,-723.7 300.5,-746.7 473.5,-746.7 473.5,-723.7 300.5,-723.7"/>
<text text-anchor="start" x="305.5" y="-732.3" font-family="Helvetica,sans-Serif" font-weight="bold" font-size="11.00" fill="#000000">package_export_config</text>
<text text-anchor="start" x="439.0219" y="-731.8" font-family="Helvetica,sans-Serif" font-size="11.00" fill="#000000">[table]</text>
<polygon fill="none" stroke="#000000" points="300.5,-704.7 300.5,-723.7 473.5,-723.7 473.5,-704.7 300.5,-704.7"/>
<text text-anchor="start" x="303.5" y="-710.8" font-family="Helvetica,sans-Serif" font-size="11.00" fill="#000000">...</text>
<polygon fill="#ffffff" stroke="transparent" points="300.5,-685.7 300.5,-704.7 385.5,-704.7 385.5,-685.7 300.5,-685.7"/>
<polygon fill="none" stroke="#000000" points="300.5,-685.7 300.5,-704.7 385.5,-704.7 385.5,-685.7 300.5,-685.7"/>
<text text-anchor="start" x="303.5" y="-691.8" font-family="Helvetica,sans-Serif" font-size="11.00" fill="#000000">&lt; 1</text>
<polygon fill="#ffffff" stroke="transparent" points="385.5,-685.7 385.5,-704.7 429.5,-704.7 429.5,-685.7 385.5,-685.7"/>
<polygon fill="none" stroke="#000000" points="385.5,-685.7 385.5,-704.7 429.5,-704.7 429.5,-685.7 385.5,-685.7"/>
<text text-anchor="start" x="420.3862" y="-691.8" font-family="Helvetica,sans-Serif" font-size="11.00" fill="#000000"> &#160;</text>
<polygon fill="#ffffff" stroke="transparent" points="429.5,-685.7 429.5,-704.7 473.5,-704.7 473.5,-685.7 429.5,-685.7"/>
<polygon fill="none" stroke="#000000" points="429.5,-685.7 429.5,-704.7 473.5,-704.7 473.5,-685.7 429.5,-685.7"/>
<text text-anchor="start" x="464.3862" y="-691.8" font-family="Helvetica,sans-Serif" font-size="11.00" fill="#000000"> &#160;</text>
</a>
</g>
</g>
<!-- package_export_config&#45;&gt;package_group -->
<g id="edge6" class="edge">
<title>package_export_config:w&#45;&gt;package_group:e</title>
<path fill="none" stroke="#000000" d="M289.8197,-713.4792C255.8008,-711.9594 241.4361,-702.3059 214,-675.7 183.9588,-646.5678 215.3469,-590.7 173.5,-590.7"/>
<polygon fill="#000000" stroke="#000000" points="299.7829,-709.6843 299.6175,-717.6826 298.0178,-717.6495 298.1832,-709.6512 299.7829,-709.6843"/>
<polyline fill="none" stroke="#000000" points="300.5,-713.7 296.5009,-713.6173 "/>
<ellipse fill="none" stroke="#000000" cx="293.3015" cy="-713.5511" rx="3.2" ry="3.2"/>
</g>
<!-- package_member_role -->
<g id="node8" class="node">
<title>package_member_role</title>
<g id="a_node8"><a xlink:href="../../tables/package_member_role.html" xlink:title="package_member_role" target="_top">
<polygon fill="#ffffff" stroke="transparent" points="302,-604.2 302,-665.2 471,-665.2 471,-604.2 302,-604.2"/>
<polygon fill="#f5f5f5" stroke="transparent" points="302.5,-641.7 302.5,-664.7 471.5,-664.7 471.5,-641.7 302.5,-641.7"/>
<polygon fill="none" stroke="#000000" points="302.5,-641.7 302.5,-664.7 471.5,-664.7 471.5,-641.7 302.5,-641.7"/>
<text text-anchor="start" x="307.5" y="-650.3" font-family="Helvetica,sans-Serif" font-weight="bold" font-size="11.00" fill="#000000">package_member_role</text>
<text text-anchor="start" x="437.0219" y="-649.8" font-family="Helvetica,sans-Serif" font-size="11.00" fill="#000000">[table]</text>
<polygon fill="none" stroke="#000000" points="302.5,-622.7 302.5,-641.7 471.5,-641.7 471.5,-622.7 302.5,-622.7"/>
<text text-anchor="start" x="305.5" y="-628.8" font-family="Helvetica,sans-Serif" font-size="11.00" fill="#000000">...</text>
<polygon fill="#ffffff" stroke="transparent" points="302.5,-603.7 302.5,-622.7 385.5,-622.7 385.5,-603.7 302.5,-603.7"/>
<polygon fill="none" stroke="#000000" points="302.5,-603.7 302.5,-622.7 385.5,-622.7 385.5,-603.7 302.5,-603.7"/>
<text text-anchor="start" x="305.5" y="-609.8" font-family="Helvetica,sans-Serif" font-size="11.00" fill="#000000">&lt; 1</text>
<polygon fill="#ffffff" stroke="transparent" points="385.5,-603.7 385.5,-622.7 428.5,-622.7 428.5,-603.7 385.5,-603.7"/>
<polygon fill="none" stroke="#000000" points="385.5,-603.7 385.5,-622.7 428.5,-622.7 428.5,-603.7 385.5,-603.7"/>
<text text-anchor="start" x="419.3862" y="-609.8" font-family="Helvetica,sans-Serif" font-size="11.00" fill="#000000"> &#160;</text>
<polygon fill="#ffffff" stroke="transparent" points="428.5,-603.7 428.5,-622.7 471.5,-622.7 471.5,-603.7 428.5,-603.7"/>
<polygon fill="none" stroke="#000000" points="428.5,-603.7 428.5,-622.7 471.5,-622.7 471.5,-603.7 428.5,-603.7"/>
<text text-anchor="start" x="462.3862" y="-609.8" font-family="Helvetica,sans-Serif" font-size="11.00" fill="#000000"> &#160;</text>
</a>
</g>
</g>
<!-- package_member_role&#45;&gt;package_group -->
<g id="edge7" class="edge">
<title>package_member_role:w&#45;&gt;package_group:e</title>
<path fill="none" stroke="#000000" d="M288.0653,-630.8437C240.4683,-624.9559 228.4895,-590.7 173.5,-590.7"/>
<polygon fill="#000000" stroke="#000000" points="294.514,-631.2262 302.2868,-635.2937 298.507,-631.4631 302.5,-631.7 302.5,-631.7 302.5,-631.7 298.507,-631.4631 302.7132,-628.1063 294.514,-631.2262 294.514,-631.2262"/>
<ellipse fill="none" stroke="#000000" cx="291.3197" cy="-631.0366" rx="3.2" ry="3.2"/>
</g>
<!-- package_service -->
<g id="node9" class="node">
<title>package_service</title>
<g id="a_node9"><a xlink:href="../../tables/package_service.html" xlink:title="package_service" target="_top">
<polygon fill="#ffffff" stroke="transparent" points="319,-522.2 319,-583.2 454,-583.2 454,-522.2 319,-522.2"/>
<polygon fill="#f5f5f5" stroke="transparent" points="319.5,-559.7 319.5,-582.7 454.5,-582.7 454.5,-559.7 319.5,-559.7"/>
<polygon fill="none" stroke="#000000" points="319.5,-559.7 319.5,-582.7 454.5,-582.7 454.5,-559.7 319.5,-559.7"/>
<text text-anchor="start" x="324.5" y="-568.3" font-family="Helvetica,sans-Serif" font-weight="bold" font-size="11.00" fill="#000000">package_service</text>
<text text-anchor="start" x="420.0219" y="-567.8" font-family="Helvetica,sans-Serif" font-size="11.00" fill="#000000">[table]</text>
<polygon fill="none" stroke="#000000" points="319.5,-540.7 319.5,-559.7 454.5,-559.7 454.5,-540.7 319.5,-540.7"/>
<text text-anchor="start" x="322.5" y="-546.8" font-family="Helvetica,sans-Serif" font-size="11.00" fill="#000000">...</text>
<polygon fill="#ffffff" stroke="transparent" points="319.5,-521.7 319.5,-540.7 385.5,-540.7 385.5,-521.7 319.5,-521.7"/>
<polygon fill="none" stroke="#000000" points="319.5,-521.7 319.5,-540.7 385.5,-540.7 385.5,-521.7 319.5,-521.7"/>
<text text-anchor="start" x="322.5" y="-527.8" font-family="Helvetica,sans-Serif" font-size="11.00" fill="#000000">&lt; 2</text>
<polygon fill="#ffffff" stroke="transparent" points="385.5,-521.7 385.5,-540.7 419.5,-540.7 419.5,-521.7 385.5,-521.7"/>
<polygon fill="none" stroke="#000000" points="385.5,-521.7 385.5,-540.7 419.5,-540.7 419.5,-521.7 385.5,-521.7"/>
<text text-anchor="start" x="410.3862" y="-527.8" font-family="Helvetica,sans-Serif" font-size="11.00" fill="#000000"> &#160;</text>
<polygon fill="#ffffff" stroke="transparent" points="419.5,-521.7 419.5,-540.7 454.5,-540.7 454.5,-521.7 419.5,-521.7"/>
<polygon fill="none" stroke="#000000" points="419.5,-521.7 419.5,-540.7 454.5,-540.7 454.5,-521.7 419.5,-521.7"/>
<text text-anchor="start" x="445.3862" y="-527.8" font-family="Helvetica,sans-Serif" font-size="11.00" fill="#000000"> &#160;</text>
</a>
</g>
</g>
<!-- package_service&#45;&gt;package_group -->
<g id="edge8" class="edge">
<title>package_service:w&#45;&gt;package_group:e</title>
<path fill="none" stroke="#000000" d="M305.0268,-549.1108C250.0684,-549.743 235.765,-585.157 173.5,-590.7"/>
<polygon fill="#000000" stroke="#000000" points="311.5066,-549.3745 319.3535,-553.297 315.5033,-549.5373 319.5,-549.7 319.5,-549.7 319.5,-549.7 315.5033,-549.5373 319.6465,-546.103 311.5066,-549.3745 311.5066,-549.3745"/>
<ellipse fill="none" stroke="#000000" cx="308.3093" cy="-549.2443" rx="3.2" ry="3.2"/>
</g>
<!-- package_service&#45;&gt;package_group -->
<g id="edge9" class="edge">
<title>package_service:w&#45;&gt;package_group:e</title>
<path fill="none" stroke="#000000" d="M305.0268,-551.8552C250.0684,-562.6676 235.765,-597.1668 173.5,-590.7"/>
<polygon fill="#000000" stroke="#000000" points="311.5872,-550.8783 320.0302,-553.2607 315.5436,-550.2892 319.5,-549.7 319.5,-549.7 319.5,-549.7 315.5436,-550.2892 318.9698,-546.1393 311.5872,-550.8783 311.5872,-550.8783"/>
<ellipse fill="none" stroke="#000000" cx="308.4221" cy="-551.3497" rx="3.2" ry="3.2"/>
</g>
<!-- published_data -->
<g id="node10" class="node">
<title>published_data</title>
<g id="a_node10"><a xlink:href="../../tables/published_data.html" xlink:title="published_data" target="_top">
<polygon fill="#ffffff" stroke="transparent" points="323,-440.2 323,-501.2 450,-501.2 450,-440.2 323,-440.2"/>
<polygon fill="#f5f5f5" stroke="transparent" points="323.5,-477.7 323.5,-500.7 450.5,-500.7 450.5,-477.7 323.5,-477.7"/>
<polygon fill="none" stroke="#000000" points="323.5,-477.7 323.5,-500.7 450.5,-500.7 450.5,-477.7 323.5,-477.7"/>
<text text-anchor="start" x="328.5" y="-486.3" font-family="Helvetica,sans-Serif" font-weight="bold" font-size="11.00" fill="#000000">published_data</text>
<text text-anchor="start" x="416.0219" y="-485.8" font-family="Helvetica,sans-Serif" font-size="11.00" fill="#000000">[table]</text>
<polygon fill="none" stroke="#000000" points="323.5,-458.7 323.5,-477.7 450.5,-477.7 450.5,-458.7 323.5,-458.7"/>
<text text-anchor="start" x="326.5" y="-464.8" font-family="Helvetica,sans-Serif" font-size="11.00" fill="#000000">...</text>
<polygon fill="#ffffff" stroke="transparent" points="323.5,-439.7 323.5,-458.7 380.5,-458.7 380.5,-439.7 323.5,-439.7"/>
<polygon fill="none" stroke="#000000" points="323.5,-439.7 323.5,-458.7 380.5,-458.7 380.5,-439.7 323.5,-439.7"/>
<text text-anchor="start" x="326.5" y="-445.8" font-family="Helvetica,sans-Serif" font-size="11.00" fill="#000000">&lt; 1</text>
<polygon fill="#ffffff" stroke="transparent" points="380.5,-439.7 380.5,-458.7 410.5,-458.7 410.5,-439.7 380.5,-439.7"/>
<polygon fill="none" stroke="#000000" points="380.5,-439.7 380.5,-458.7 410.5,-458.7 410.5,-439.7 380.5,-439.7"/>
<text text-anchor="start" x="401.3862" y="-445.8" font-family="Helvetica,sans-Serif" font-size="11.00" fill="#000000"> &#160;</text>
<polygon fill="#ffffff" stroke="transparent" points="410.5,-439.7 410.5,-458.7 450.5,-458.7 450.5,-439.7 410.5,-439.7"/>
<polygon fill="none" stroke="#000000" points="410.5,-439.7 410.5,-458.7 450.5,-458.7 450.5,-439.7 410.5,-439.7"/>
<text text-anchor="start" x="431.9053" y="-445.8" font-family="Helvetica,sans-Serif" font-size="11.00" fill="#000000">2 &gt;</text>
</a>
</g>
</g>
<!-- published_data&#45;&gt;package_group -->
<g id="edge10" class="edge">
<title>published_data:w&#45;&gt;package_group:e</title>
<path fill="none" stroke="#000000" d="M309.0602,-467.9643C267.2812,-469.6442 248.9628,-479.8029 214,-511.7 184.8516,-538.2925 212.9562,-590.7 173.5,-590.7"/>
<polygon fill="#000000" stroke="#000000" points="315.5013,-467.8465 323.5659,-471.2994 319.5007,-467.7732 323.5,-467.7 323.5,-467.7 323.5,-467.7 319.5007,-467.7732 323.4341,-464.1006 315.5013,-467.8465 315.5013,-467.8465"/>
<ellipse fill="none" stroke="#000000" cx="312.3019" cy="-467.9051" rx="3.2" ry="3.2"/>
</g>
<!-- published_document_open_count -->
<g id="node11" class="node">
<title>published_document_open_count</title>
<g id="a_node11"><a xlink:href="../../tables/published_document_open_count.html" xlink:title="published_document_open_count" target="_top">
<polygon fill="#ffffff" stroke="transparent" points="222,-284.7 222,-418.7 551,-418.7 551,-284.7 222,-284.7"/>
<polygon fill="#f5f5f5" stroke="transparent" points="224.5,-393.7 224.5,-416.7 549.5,-416.7 549.5,-393.7 224.5,-393.7"/>
<polygon fill="none" stroke="#000000" points="224.5,-393.7 224.5,-416.7 549.5,-416.7 549.5,-393.7 224.5,-393.7"/>
<text text-anchor="start" x="229.5" y="-402.3" font-family="Helvetica,sans-Serif" font-weight="bold" font-size="11.00" fill="#000000">published_document_open_count</text>
<text text-anchor="start" x="514.5437" y="-401.8" font-family="Helvetica,sans-Serif" font-size="11.00" fill="#000000">[table]</text>
<polygon fill="none" stroke="#000000" points="224.5,-371.7 224.5,-393.7 440.5,-393.7 440.5,-371.7 224.5,-371.7"/>
<image xlink:href="../../images/primaryKeys.png" width="11px" height="12px" preserveAspectRatio="xMinYMin meet" x="229.5" y="-388.7"/>
<text text-anchor="start" x="244.5" y="-378.8" font-family="Helvetica,sans-Serif" font-size="11.00" fill="#000000">package_id</text>
<polygon fill="none" stroke="#000000" points="440.5,-371.7 440.5,-393.7 549.5,-393.7 549.5,-371.7 440.5,-371.7"/>
<text text-anchor="start" x="443.0344" y="-379.4" font-family="Helvetica,sans-Serif" font-size="11.00" fill="#000000">varchar[2147483647]</text>
<polygon fill="none" stroke="#000000" points="224.5,-349.7 224.5,-371.7 440.5,-371.7 440.5,-349.7 224.5,-349.7"/>
<image xlink:href="../../images/primaryKeys.png" width="11px" height="12px" preserveAspectRatio="xMinYMin meet" x="229.5" y="-366.7"/>
<text text-anchor="start" x="244.5" y="-356.8" font-family="Helvetica,sans-Serif" font-size="11.00" fill="#000000">version</text>
<polygon fill="none" stroke="#000000" points="440.5,-349.7 440.5,-371.7 549.5,-371.7 549.5,-349.7 440.5,-349.7"/>
<text text-anchor="start" x="443.0344" y="-357.4" font-family="Helvetica,sans-Serif" font-size="11.00" fill="#000000">varchar[2147483647]</text>
<polygon fill="none" stroke="#000000" points="224.5,-327.7 224.5,-349.7 440.5,-349.7 440.5,-327.7 224.5,-327.7"/>
<image xlink:href="../../images/primaryKeys.png" width="11px" height="12px" preserveAspectRatio="xMinYMin meet" x="229.5" y="-344.7"/>
<text text-anchor="start" x="244.5" y="-334.8" font-family="Helvetica,sans-Serif" font-size="11.00" fill="#000000">slug</text>
<polygon fill="none" stroke="#000000" points="440.5,-327.7 440.5,-349.7 549.5,-349.7 549.5,-327.7 440.5,-327.7"/>
<text text-anchor="start" x="443.0344" y="-335.4" font-family="Helvetica,sans-Serif" font-size="11.00" fill="#000000">varchar[2147483647]</text>
<polygon fill="none" stroke="#000000" points="224.5,-305.7 224.5,-327.7 440.5,-327.7 440.5,-305.7 224.5,-305.7"/>
<text text-anchor="start" x="244.5" y="-312.8" font-family="Helvetica,sans-Serif" font-size="11.00" fill="#000000">open_count</text>
<polygon fill="none" stroke="#000000" points="440.5,-305.7 440.5,-327.7 549.5,-327.7 549.5,-305.7 440.5,-305.7"/>
<text text-anchor="start" x="443.5" y="-313.4" font-family="Helvetica,sans-Serif" font-size="11.00" fill="#000000">int8[19]</text>
<polygon fill="#ffffff" stroke="transparent" points="224.5,-286.7 224.5,-305.7 336.5,-305.7 336.5,-286.7 224.5,-286.7"/>
<polygon fill="none" stroke="#000000" points="224.5,-286.7 224.5,-305.7 336.5,-305.7 336.5,-286.7 224.5,-286.7"/>
<text text-anchor="start" x="227.5" y="-292.8" font-family="Helvetica,sans-Serif" font-size="11.00" fill="#000000">&lt; 1</text>
<polygon fill="#ffffff" stroke="transparent" points="336.5,-286.7 336.5,-305.7 440.5,-305.7 440.5,-286.7 336.5,-286.7"/>
<polygon fill="none" stroke="#000000" points="336.5,-286.7 336.5,-305.7 440.5,-305.7 440.5,-286.7 336.5,-286.7"/>
<text text-anchor="start" x="431.3862" y="-292.8" font-family="Helvetica,sans-Serif" font-size="11.00" fill="#000000"> &#160;</text>
<polygon fill="#ffffff" stroke="transparent" points="440.5,-286.7 440.5,-305.7 549.5,-305.7 549.5,-286.7 440.5,-286.7"/>
<polygon fill="none" stroke="#000000" points="440.5,-286.7 440.5,-305.7 549.5,-305.7 549.5,-286.7 440.5,-286.7"/>
<text text-anchor="start" x="530.9053" y="-292.8" font-family="Helvetica,sans-Serif" font-size="11.00" fill="#000000">0 &gt;</text>
<polygon fill="none" stroke="#000000" stroke-width="2" points="223,-285.7 223,-417.7 550,-417.7 550,-285.7 223,-285.7"/>
</a>
</g>
</g>
<!-- published_document_open_count&#45;&gt;package_group -->
<g id="edge11" class="edge">
<title>published_document_open_count:w&#45;&gt;package_group:e</title>
<path fill="none" stroke="#000000" d="M210.0901,-384.7586C144.8439,-406.3609 263.1056,-590.7 173.5,-590.7"/>
<polygon fill="#000000" stroke="#000000" points="216.5804,-383.8315 225.0092,-386.2638 220.5402,-383.2657 224.5,-382.7 224.5,-382.7 224.5,-382.7 220.5402,-383.2657 223.9908,-379.1362 216.5804,-383.8315 216.5804,-383.8315"/>
<ellipse fill="none" stroke="#000000" cx="213.4126" cy="-384.2841" rx="3.2" ry="3.2"/>
</g>
<!-- published_version -->
<g id="node12" class="node">
<title>published_version</title>
<g id="a_node12"><a xlink:href="../../tables/published_version.html" xlink:title="published_version" target="_top">
<polygon fill="#ffffff" stroke="transparent" points="314,-202.2 314,-263.2 459,-263.2 459,-202.2 314,-202.2"/>
<polygon fill="#f5f5f5" stroke="transparent" points="314.5,-239.7 314.5,-262.7 459.5,-262.7 459.5,-239.7 314.5,-239.7"/>
<polygon fill="none" stroke="#000000" points="314.5,-239.7 314.5,-262.7 459.5,-262.7 459.5,-239.7 314.5,-239.7"/>
<text text-anchor="start" x="319.5" y="-248.3" font-family="Helvetica,sans-Serif" font-weight="bold" font-size="11.00" fill="#000000">published_version</text>
<text text-anchor="start" x="425.0219" y="-247.8" font-family="Helvetica,sans-Serif" font-size="11.00" fill="#000000">[table]</text>
<polygon fill="none" stroke="#000000" points="314.5,-220.7 314.5,-239.7 459.5,-239.7 459.5,-220.7 314.5,-220.7"/>
<text text-anchor="start" x="317.5" y="-226.8" font-family="Helvetica,sans-Serif" font-size="11.00" fill="#000000">...</text>
<polygon fill="#ffffff" stroke="transparent" points="314.5,-201.7 314.5,-220.7 377.5,-220.7 377.5,-201.7 314.5,-201.7"/>
<polygon fill="none" stroke="#000000" points="314.5,-201.7 314.5,-220.7 377.5,-220.7 377.5,-201.7 314.5,-201.7"/>
<text text-anchor="start" x="317.5" y="-207.8" font-family="Helvetica,sans-Serif" font-size="11.00" fill="#000000">&lt; 1</text>
<polygon fill="#ffffff" stroke="transparent" points="377.5,-201.7 377.5,-220.7 410.5,-220.7 410.5,-201.7 377.5,-201.7"/>
<polygon fill="none" stroke="#000000" points="377.5,-201.7 377.5,-220.7 410.5,-220.7 410.5,-201.7 377.5,-201.7"/>
<text text-anchor="start" x="401.3862" y="-207.8" font-family="Helvetica,sans-Serif" font-size="11.00" fill="#000000"> &#160;</text>
<polygon fill="#ffffff" stroke="transparent" points="410.5,-201.7 410.5,-220.7 459.5,-220.7 459.5,-201.7 410.5,-201.7"/>
<polygon fill="none" stroke="#000000" points="410.5,-201.7 410.5,-220.7 459.5,-220.7 459.5,-201.7 410.5,-201.7"/>
<text text-anchor="start" x="434.7904" y="-207.8" font-family="Helvetica,sans-Serif" font-size="11.00" fill="#000000">18 &gt;</text>
</a>
</g>
</g>
<!-- published_version&#45;&gt;package_group -->
<g id="edge12" class="edge">
<title>published_version:w&#45;&gt;package_group:e</title>
<path fill="none" stroke="#000000" d="M299.8621,-229.9231C260.7624,-231.2772 240.0963,-239.5501 214,-274.7 171.798,-331.5432 244.2966,-590.7 173.5,-590.7"/>
<polygon fill="#000000" stroke="#000000" points="306.5009,-229.822 314.5549,-233.2996 310.5005,-229.761 314.5,-229.7 314.5,-229.7 314.5,-229.7 310.5005,-229.761 314.4451,-226.1004 306.5009,-229.822 306.5009,-229.822"/>
<ellipse fill="none" stroke="#000000" cx="303.3013" cy="-229.8708" rx="3.2" ry="3.2"/>
</g>
<!-- published_version_open_count -->
<g id="node13" class="node">
<title>published_version_open_count</title>
<g id="a_node13"><a xlink:href="../../tables/published_version_open_count.html" xlink:title="published_version_open_count" target="_top">
<polygon fill="#ffffff" stroke="transparent" points="277,-120.2 277,-181.2 496,-181.2 496,-120.2 277,-120.2"/>
<polygon fill="#f5f5f5" stroke="transparent" points="277.5,-157.7 277.5,-180.7 496.5,-180.7 496.5,-157.7 277.5,-157.7"/>
<polygon fill="none" stroke="#000000" points="277.5,-157.7 277.5,-180.7 496.5,-180.7 496.5,-157.7 277.5,-157.7"/>
<text text-anchor="start" x="282.5" y="-166.3" font-family="Helvetica,sans-Serif" font-weight="bold" font-size="11.00" fill="#000000">published_version_open_count</text>
<text text-anchor="start" x="462.0219" y="-165.8" font-family="Helvetica,sans-Serif" font-size="11.00" fill="#000000">[table]</text>
<polygon fill="none" stroke="#000000" points="277.5,-138.7 277.5,-157.7 496.5,-157.7 496.5,-138.7 277.5,-138.7"/>
<text text-anchor="start" x="280.5" y="-144.8" font-family="Helvetica,sans-Serif" font-size="11.00" fill="#000000">...</text>
<polygon fill="#ffffff" stroke="transparent" points="277.5,-119.7 277.5,-138.7 385.5,-138.7 385.5,-119.7 277.5,-119.7"/>
<polygon fill="none" stroke="#000000" points="277.5,-119.7 277.5,-138.7 385.5,-138.7 385.5,-119.7 277.5,-119.7"/>
<text text-anchor="start" x="280.5" y="-125.8" font-family="Helvetica,sans-Serif" font-size="11.00" fill="#000000">&lt; 1</text>
<polygon fill="#ffffff" stroke="transparent" points="385.5,-119.7 385.5,-138.7 440.5,-138.7 440.5,-119.7 385.5,-119.7"/>
<polygon fill="none" stroke="#000000" points="385.5,-119.7 385.5,-138.7 440.5,-138.7 440.5,-119.7 385.5,-119.7"/>
<text text-anchor="start" x="431.3862" y="-125.8" font-family="Helvetica,sans-Serif" font-size="11.00" fill="#000000"> &#160;</text>
<polygon fill="#ffffff" stroke="transparent" points="440.5,-119.7 440.5,-138.7 496.5,-138.7 496.5,-119.7 440.5,-119.7"/>
<polygon fill="none" stroke="#000000" points="440.5,-119.7 440.5,-138.7 496.5,-138.7 496.5,-119.7 440.5,-119.7"/>
<text text-anchor="start" x="487.3862" y="-125.8" font-family="Helvetica,sans-Serif" font-size="11.00" fill="#000000"> &#160;</text>
</a>
</g>
</g>
<!-- published_version_open_count&#45;&gt;package_group -->
<g id="edge13" class="edge">
<title>published_version_open_count:w&#45;&gt;package_group:e</title>
<path fill="none" stroke="#000000" d="M262.9537,-148.7594C239.3629,-152.5783 228.7204,-166.7482 214,-191.7 168.7153,-268.4598 262.6223,-590.7 173.5,-590.7"/>
<polygon fill="#000000" stroke="#000000" points="269.5211,-148.2812 277.7615,-151.2905 273.5106,-147.9906 277.5,-147.7 277.5,-147.7 277.5,-147.7 273.5106,-147.9906 277.2385,-144.1095 269.5211,-148.2812 269.5211,-148.2812"/>
<ellipse fill="none" stroke="#000000" cx="266.3296" cy="-148.5136" rx="3.2" ry="3.2"/>
</g>
<!-- shared_url_info -->
<g id="node14" class="node">
<title>shared_url_info</title>
<g id="a_node14"><a xlink:href="../../tables/shared_url_info.html" xlink:title="shared_url_info" target="_top">
<polygon fill="#ffffff" stroke="transparent" points="322,-38.2 322,-99.2 451,-99.2 451,-38.2 322,-38.2"/>
<polygon fill="#f5f5f5" stroke="transparent" points="322.5,-75.7 322.5,-98.7 451.5,-98.7 451.5,-75.7 322.5,-75.7"/>
<polygon fill="none" stroke="#000000" points="322.5,-75.7 322.5,-98.7 451.5,-98.7 451.5,-75.7 322.5,-75.7"/>
<text text-anchor="start" x="327.5" y="-84.3" font-family="Helvetica,sans-Serif" font-weight="bold" font-size="11.00" fill="#000000">shared_url_info</text>
<text text-anchor="start" x="417.0219" y="-83.8" font-family="Helvetica,sans-Serif" font-size="11.00" fill="#000000">[table]</text>
<polygon fill="none" stroke="#000000" points="322.5,-56.7 322.5,-75.7 451.5,-75.7 451.5,-56.7 322.5,-56.7"/>
<text text-anchor="start" x="325.5" y="-62.8" font-family="Helvetica,sans-Serif" font-size="11.00" fill="#000000">...</text>
<polygon fill="#ffffff" stroke="transparent" points="322.5,-37.7 322.5,-56.7 385.5,-56.7 385.5,-37.7 322.5,-37.7"/>
<polygon fill="none" stroke="#000000" points="322.5,-37.7 322.5,-56.7 385.5,-56.7 385.5,-37.7 322.5,-37.7"/>
<text text-anchor="start" x="325.5" y="-43.8" font-family="Helvetica,sans-Serif" font-size="11.00" fill="#000000">&lt; 1</text>
<polygon fill="#ffffff" stroke="transparent" points="385.5,-37.7 385.5,-56.7 418.5,-56.7 418.5,-37.7 385.5,-37.7"/>
<polygon fill="none" stroke="#000000" points="385.5,-37.7 385.5,-56.7 418.5,-56.7 418.5,-37.7 385.5,-37.7"/>
<text text-anchor="start" x="409.3862" y="-43.8" font-family="Helvetica,sans-Serif" font-size="11.00" fill="#000000"> &#160;</text>
<polygon fill="#ffffff" stroke="transparent" points="418.5,-37.7 418.5,-56.7 451.5,-56.7 451.5,-37.7 418.5,-37.7"/>
<polygon fill="none" stroke="#000000" points="418.5,-37.7 418.5,-56.7 451.5,-56.7 451.5,-37.7 418.5,-37.7"/>
<text text-anchor="start" x="442.3862" y="-43.8" font-family="Helvetica,sans-Serif" font-size="11.00" fill="#000000"> &#160;</text>
</a>
</g>
</g>
<!-- shared_url_info&#45;&gt;package_group -->
<g id="edge14" class="edge">
<title>shared_url_info:w&#45;&gt;package_group:e</title>
<path fill="none" stroke="#000000" d="M307.9816,-65.7952C265.4121,-66.4897 241.8437,-71.8915 214,-109.7 182.1959,-152.8863 227.1336,-590.7 173.5,-590.7"/>
<polygon fill="#000000" stroke="#000000" points="314.5002,-65.7525 322.5236,-69.2999 318.5001,-65.7263 322.5,-65.7 322.5,-65.7 322.5,-65.7 318.5001,-65.7263 322.4764,-62.1001 314.5002,-65.7525 314.5002,-65.7525"/>
<ellipse fill="none" stroke="#000000" cx="311.3002" cy="-65.7735" rx="3.2" ry="3.2"/>
</g>
</g>
</svg>
