<?xml version="1.0" encoding="UTF-8" standalone="no"?>
<!DOCTYPE svg PUBLIC "-//W3C//DTD SVG 1.1//EN"
 "http://www.w3.org/Graphics/SVG/1.1/DTD/svg11.dtd">
<!-- Generated by graphviz version 2.40.1 (20161225.0304)
 -->
<!-- Title: twoDegreesRelationshipsDiagram Pages: 1 -->
<svg width="790pt" height="837pt"
 viewBox="0.00 0.00 790.00 836.70" xmlns="http://www.w3.org/2000/svg" xmlns:xlink="http://www.w3.org/1999/xlink">
<g id="graph0" class="graph" transform="scale(1 1) rotate(0) translate(4 832.7)">
<title>twoDegreesRelationshipsDiagram</title>
<polygon fill="#ffffff" stroke="transparent" points="-4,4 -4,-832.7 786,-832.7 786,4 -4,4"/>
<text text-anchor="middle" x="72.4936" y="-7.3" font-family="Helvetica,sans-Serif" font-size="11.00" fill="#000000">Generated by SchemaSpy</text>
<!-- operation -->
<g id="node1" class="node">
<title>operation</title>
<g id="a_node1"><a xlink:href="../../tables/operation.html" xlink:title="operation" target="_top">
<polygon fill="#ffffff" stroke="transparent" points="553,-435.7 553,-496.7 646,-496.7 646,-435.7 553,-435.7"/>
<polygon fill="#f5f5f5" stroke="transparent" points="553.5,-473.2 553.5,-496.2 646.5,-496.2 646.5,-473.2 553.5,-473.2"/>
<polygon fill="none" stroke="#000000" points="553.5,-473.2 553.5,-496.2 646.5,-496.2 646.5,-473.2 553.5,-473.2"/>
<text text-anchor="start" x="558.5" y="-481.8" font-family="Helvetica,sans-Serif" font-weight="bold" font-size="11.00" fill="#000000">operation</text>
<text text-anchor="start" x="612.0219" y="-481.3" font-family="Helvetica,sans-Serif" font-size="11.00" fill="#000000">[table]</text>
<polygon fill="none" stroke="#000000" points="553.5,-454.2 553.5,-473.2 646.5,-473.2 646.5,-454.2 553.5,-454.2"/>
<text text-anchor="start" x="556.5" y="-460.3" font-family="Helvetica,sans-Serif" font-size="11.00" fill="#000000">...</text>
<polygon fill="#ffffff" stroke="transparent" points="553.5,-435.2 553.5,-454.2 593.5,-454.2 593.5,-435.2 553.5,-435.2"/>
<polygon fill="none" stroke="#000000" points="553.5,-435.2 553.5,-454.2 593.5,-454.2 593.5,-435.2 553.5,-435.2"/>
<text text-anchor="start" x="556.5" y="-441.3" font-family="Helvetica,sans-Serif" font-size="11.00" fill="#000000">&lt; 4</text>
<polygon fill="#ffffff" stroke="transparent" points="593.5,-435.2 593.5,-454.2 615.5,-454.2 615.5,-435.2 593.5,-435.2"/>
<polygon fill="none" stroke="#000000" points="593.5,-435.2 593.5,-454.2 615.5,-454.2 615.5,-435.2 593.5,-435.2"/>
<text text-anchor="start" x="606.3862" y="-441.3" font-family="Helvetica,sans-Serif" font-size="11.00" fill="#000000"> &#160;</text>
<polygon fill="#ffffff" stroke="transparent" points="615.5,-435.2 615.5,-454.2 646.5,-454.2 646.5,-435.2 615.5,-435.2"/>
<polygon fill="none" stroke="#000000" points="615.5,-435.2 615.5,-454.2 646.5,-454.2 646.5,-435.2 615.5,-435.2"/>
<text text-anchor="start" x="627.9053" y="-441.3" font-family="Helvetica,sans-Serif" font-size="11.00" fill="#000000">4 &gt;</text>
</a>
</g>
</g>
<!-- published_version -->
<g id="node2" class="node">
<title>published_version</title>
<g id="a_node2"><a xlink:href="../../tables/published_version.html" xlink:title="published_version" target="_top">
<polygon fill="#ffffff" stroke="transparent" points="184,-496.7 184,-623.7 376,-623.7 376,-496.7 184,-496.7"/>
<polygon fill="#f5f5f5" stroke="transparent" points="184,-600.2 184,-623.2 376,-623.2 376,-600.2 184,-600.2"/>
<polygon fill="none" stroke="#000000" points="184,-600.2 184,-623.2 376,-623.2 376,-600.2 184,-600.2"/>
<text text-anchor="start" x="189" y="-608.8" font-family="Helvetica,sans-Serif" font-weight="bold" font-size="11.00" fill="#000000">published_version</text>
<text text-anchor="start" x="341.0437" y="-608.3" font-family="Helvetica,sans-Serif" font-size="11.00" fill="#000000">[table]</text>
<polygon fill="none" stroke="#000000" points="184,-578.2 184,-600.2 376,-600.2 376,-578.2 184,-578.2"/>
<image xlink:href="../../images/primaryKeys.png" width="11px" height="12px" preserveAspectRatio="xMinYMin meet" x="189" y="-595.2"/>
<text text-anchor="start" x="204" y="-585.3" font-family="Helvetica,sans-Serif" font-size="11.00" fill="#000000">package_id</text>
<polygon fill="none" stroke="#000000" points="184,-556.2 184,-578.2 376,-578.2 376,-556.2 184,-556.2"/>
<image xlink:href="../../images/primaryKeys.png" width="11px" height="12px" preserveAspectRatio="xMinYMin meet" x="189" y="-573.2"/>
<text text-anchor="start" x="204" y="-563.3" font-family="Helvetica,sans-Serif" font-size="11.00" fill="#000000">version</text>
<polygon fill="none" stroke="#000000" points="184,-534.2 184,-556.2 376,-556.2 376,-534.2 184,-534.2"/>
<image xlink:href="../../images/primaryKeys.png" width="11px" height="12px" preserveAspectRatio="xMinYMin meet" x="189" y="-551.2"/>
<text text-anchor="start" x="204" y="-541.3" font-family="Helvetica,sans-Serif" font-size="11.00" fill="#000000">revision</text>
<polygon fill="none" stroke="#000000" points="184,-515.2 184,-534.2 376,-534.2 376,-515.2 184,-515.2"/>
<text text-anchor="start" x="187" y="-521.3" font-family="Helvetica,sans-Serif" font-size="11.00" fill="#000000">...</text>
<polygon fill="#ffffff" stroke="transparent" points="184,-496.2 184,-515.2 271,-515.2 271,-496.2 184,-496.2"/>
<polygon fill="none" stroke="#000000" points="184,-496.2 184,-515.2 271,-515.2 271,-496.2 184,-496.2"/>
<text text-anchor="start" x="187" y="-502.3" font-family="Helvetica,sans-Serif" font-size="11.00" fill="#000000">&lt; 1</text>
<polygon fill="#ffffff" stroke="transparent" points="271,-496.2 271,-515.2 316,-515.2 316,-496.2 271,-496.2"/>
<polygon fill="none" stroke="#000000" points="271,-496.2 271,-515.2 316,-515.2 316,-496.2 271,-496.2"/>
<text text-anchor="start" x="306.8862" y="-502.3" font-family="Helvetica,sans-Serif" font-size="11.00" fill="#000000"> &#160;</text>
<polygon fill="#ffffff" stroke="transparent" points="316,-496.2 316,-515.2 376,-515.2 376,-496.2 316,-496.2"/>
<polygon fill="none" stroke="#000000" points="316,-496.2 316,-515.2 376,-515.2 376,-496.2 316,-496.2"/>
<text text-anchor="start" x="351.2904" y="-502.3" font-family="Helvetica,sans-Serif" font-size="11.00" fill="#000000">18 &gt;</text>
</a>
</g>
</g>
<!-- operation&#45;&gt;published_version -->
<g id="edge1" class="edge">
<title>operation:w&#45;&gt;published_version:e</title>
<path fill="none" stroke="#000000" d="M538.9116,-463.2664C485.698,-463.847 461.4871,-469.0016 417,-507.2 386.0861,-533.7439 416.7461,-589.2 376,-589.2"/>
<polygon fill="#000000" stroke="#000000" points="545.5001,-463.2365 553.5164,-466.8 549.5,-463.2182 553.5,-463.2 553.5,-463.2 553.5,-463.2 549.5,-463.2182 553.4836,-459.6 545.5001,-463.2365 545.5001,-463.2365"/>
<ellipse fill="none" stroke="#000000" cx="542.3001" cy="-463.2511" rx="3.2" ry="3.2"/>
</g>
<!-- operation&#45;&gt;published_version -->
<g id="edge2" class="edge">
<title>operation:w&#45;&gt;published_version:e</title>
<path fill="none" stroke="#000000" d="M539.0293,-463.4314C486.6774,-465.2202 467.6027,-477.5758 417,-507.2 395.5588,-519.7522 400.8452,-545.2 376,-545.2"/>
<polygon fill="#000000" stroke="#000000" points="545.501,-463.3279 553.5576,-466.7995 549.5005,-463.264 553.5,-463.2 553.5,-463.2 553.5,-463.2 549.5005,-463.264 553.4424,-459.6005 545.501,-463.3279 545.501,-463.3279"/>
<ellipse fill="none" stroke="#000000" cx="542.3014" cy="-463.3791" rx="3.2" ry="3.2"/>
</g>
<!-- operation&#45;&gt;published_version -->
<g id="edge3" class="edge">
<title>operation:w&#45;&gt;published_version:e</title>
<path fill="none" stroke="#000000" d="M538.9595,-463.3262C486.0967,-464.3445 463.9764,-472.1081 417,-507.2 391.1245,-526.5293 408.298,-567.2 376,-567.2"/>
<polygon fill="#000000" stroke="#000000" points="545.5003,-463.2695 553.5313,-466.7999 549.5002,-463.2347 553.5,-463.2 553.5,-463.2 553.5,-463.2 549.5002,-463.2347 553.4687,-459.6001 545.5003,-463.2695 545.5003,-463.2695"/>
<ellipse fill="none" stroke="#000000" cx="542.3004" cy="-463.2973" rx="3.2" ry="3.2"/>
</g>
<!-- package_group -->
<g id="node5" class="node">
<title>package_group</title>
<g id="a_node5"><a xlink:href="../../tables/package_group.html" xlink:title="package_group" target="_top">
<polygon fill="#ffffff" stroke="transparent" points="8,-455.7 8,-516.7 135,-516.7 135,-455.7 8,-455.7"/>
<polygon fill="#f5f5f5" stroke="transparent" points="8.5,-493.2 8.5,-516.2 135.5,-516.2 135.5,-493.2 8.5,-493.2"/>
<polygon fill="none" stroke="#000000" points="8.5,-493.2 8.5,-516.2 135.5,-516.2 135.5,-493.2 8.5,-493.2"/>
<text text-anchor="start" x="13.5" y="-501.8" font-family="Helvetica,sans-Serif" font-weight="bold" font-size="11.00" fill="#000000">package_group</text>
<text text-anchor="start" x="101.0219" y="-501.3" font-family="Helvetica,sans-Serif" font-size="11.00" fill="#000000">[table]</text>
<polygon fill="none" stroke="#000000" points="8.5,-474.2 8.5,-493.2 135.5,-493.2 135.5,-474.2 8.5,-474.2"/>
<text text-anchor="start" x="11.5" y="-480.3" font-family="Helvetica,sans-Serif" font-size="11.00" fill="#000000">...</text>
<polygon fill="#ffffff" stroke="transparent" points="8.5,-455.2 8.5,-474.2 62.5,-474.2 62.5,-455.2 8.5,-455.2"/>
<polygon fill="none" stroke="#000000" points="8.5,-455.2 8.5,-474.2 62.5,-474.2 62.5,-455.2 8.5,-455.2"/>
<text text-anchor="start" x="11.5" y="-461.3" font-family="Helvetica,sans-Serif" font-size="11.00" fill="#000000">&lt; 1</text>
<polygon fill="#ffffff" stroke="transparent" points="62.5,-455.2 62.5,-474.2 91.5,-474.2 91.5,-455.2 62.5,-455.2"/>
<polygon fill="none" stroke="#000000" points="62.5,-455.2 62.5,-474.2 91.5,-474.2 91.5,-455.2 62.5,-455.2"/>
<text text-anchor="start" x="82.3862" y="-461.3" font-family="Helvetica,sans-Serif" font-size="11.00" fill="#000000"> &#160;</text>
<polygon fill="#ffffff" stroke="transparent" points="91.5,-455.2 91.5,-474.2 135.5,-474.2 135.5,-455.2 91.5,-455.2"/>
<polygon fill="none" stroke="#000000" points="91.5,-455.2 91.5,-474.2 135.5,-474.2 135.5,-455.2 91.5,-455.2"/>
<text text-anchor="start" x="110.7904" y="-461.3" font-family="Helvetica,sans-Serif" font-size="11.00" fill="#000000">15 &gt;</text>
</a>
</g>
</g>
<!-- published_version&#45;&gt;package_group -->
<g id="edge11" class="edge">
<title>published_version:w&#45;&gt;package_group:e</title>
<path fill="none" stroke="#000000" d="M169.8472,-585.1741C143.6413,-565.8119 181.237,-483.2 135.5,-483.2"/>
<polygon fill="#000000" stroke="#000000" points="176.3053,-587.0111 183.015,-592.6626 180.1526,-588.1056 184,-589.2 184,-589.2 184,-589.2 180.1526,-588.1056 184.985,-585.7374 176.3053,-587.0111 176.3053,-587.0111"/>
<ellipse fill="none" stroke="#000000" cx="173.2274" cy="-586.1356" rx="3.2" ry="3.2"/>
</g>
<!-- operation_group -->
<g id="node3" class="node">
<title>operation_group</title>
<g id="a_node3"><a xlink:href="../../tables/operation_group.html" xlink:title="operation_group" target="_top">
<polygon fill="#ffffff" stroke="transparent" points="532.5,-763.7 532.5,-824.7 666.5,-824.7 666.5,-763.7 532.5,-763.7"/>
<polygon fill="#f5f5f5" stroke="transparent" points="532.5,-801.2 532.5,-824.2 666.5,-824.2 666.5,-801.2 532.5,-801.2"/>
<polygon fill="none" stroke="#000000" points="532.5,-801.2 532.5,-824.2 666.5,-824.2 666.5,-801.2 532.5,-801.2"/>
<text text-anchor="start" x="537.5" y="-809.8" font-family="Helvetica,sans-Serif" font-weight="bold" font-size="11.00" fill="#000000">operation_group</text>
<text text-anchor="start" x="632.0219" y="-809.3" font-family="Helvetica,sans-Serif" font-size="11.00" fill="#000000">[table]</text>
<polygon fill="none" stroke="#000000" points="532.5,-782.2 532.5,-801.2 666.5,-801.2 666.5,-782.2 532.5,-782.2"/>
<text text-anchor="start" x="535.5" y="-788.3" font-family="Helvetica,sans-Serif" font-size="11.00" fill="#000000">...</text>
<polygon fill="#ffffff" stroke="transparent" points="532.5,-763.2 532.5,-782.2 593.5,-782.2 593.5,-763.2 532.5,-763.2"/>
<polygon fill="none" stroke="#000000" points="532.5,-763.2 532.5,-782.2 593.5,-782.2 593.5,-763.2 532.5,-763.2"/>
<text text-anchor="start" x="535.5" y="-769.3" font-family="Helvetica,sans-Serif" font-size="11.00" fill="#000000">&lt; 3</text>
<polygon fill="#ffffff" stroke="transparent" points="593.5,-763.2 593.5,-782.2 625.5,-782.2 625.5,-763.2 593.5,-763.2"/>
<polygon fill="none" stroke="#000000" points="593.5,-763.2 593.5,-782.2 625.5,-782.2 625.5,-763.2 593.5,-763.2"/>
<text text-anchor="start" x="616.3862" y="-769.3" font-family="Helvetica,sans-Serif" font-size="11.00" fill="#000000"> &#160;</text>
<polygon fill="#ffffff" stroke="transparent" points="625.5,-763.2 625.5,-782.2 666.5,-782.2 666.5,-763.2 625.5,-763.2"/>
<polygon fill="none" stroke="#000000" points="625.5,-763.2 625.5,-782.2 666.5,-782.2 666.5,-763.2 625.5,-763.2"/>
<text text-anchor="start" x="647.9053" y="-769.3" font-family="Helvetica,sans-Serif" font-size="11.00" fill="#000000">2 &gt;</text>
</a>
</g>
</g>
<!-- operation_group&#45;&gt;published_version -->
<g id="edge4" class="edge">
<title>operation_group:w&#45;&gt;published_version:e</title>
<path fill="none" stroke="#000000" d="M518.0415,-791.2064C473.7285,-791.1343 450.3454,-789.0683 417,-753.2 365.8441,-698.1736 451.1321,-589.2 376,-589.2"/>
<polygon fill="#000000" stroke="#000000" points="524.5,-791.2036 532.5016,-794.8 528.5,-791.2018 532.5,-791.2 532.5,-791.2 532.5,-791.2 528.5,-791.2018 532.4984,-787.6 524.5,-791.2036 524.5,-791.2036"/>
<ellipse fill="none" stroke="#000000" cx="521.3" cy="-791.205" rx="3.2" ry="3.2"/>
</g>
<!-- operation_group&#45;&gt;published_version -->
<g id="edge5" class="edge">
<title>operation_group:w&#45;&gt;published_version:e</title>
<path fill="none" stroke="#000000" d="M518.0174,-791.2283C473.5572,-791.2896 449.4318,-789.8965 417,-753.2 354.603,-682.598 470.2233,-545.2 376,-545.2"/>
<polygon fill="#000000" stroke="#000000" points="524.5,-791.2157 532.507,-794.8 528.5,-791.2078 532.5,-791.2 532.5,-791.2 532.5,-791.2 528.5,-791.2078 532.493,-787.6 524.5,-791.2157 524.5,-791.2157"/>
<ellipse fill="none" stroke="#000000" cx="521.3" cy="-791.2219" rx="3.2" ry="3.2"/>
</g>
<!-- operation_group&#45;&gt;published_version -->
<g id="edge6" class="edge">
<title>operation_group:w&#45;&gt;published_version:e</title>
<path fill="none" stroke="#000000" d="M518.0282,-791.2186C473.6337,-791.2212 449.8396,-789.5319 417,-753.2 360.2369,-690.4005 460.6512,-567.2 376,-567.2"/>
<polygon fill="#000000" stroke="#000000" points="524.5,-791.2104 532.5047,-794.8 528.5,-791.2052 532.5,-791.2 532.5,-791.2 532.5,-791.2 528.5,-791.2052 532.4953,-787.6 524.5,-791.2104 524.5,-791.2104"/>
<ellipse fill="none" stroke="#000000" cx="521.3" cy="-791.2145" rx="3.2" ry="3.2"/>
</g>
<!-- published_data -->
<g id="node4" class="node">
<title>published_data</title>
<g id="a_node4"><a xlink:href="../../tables/published_data.html" xlink:title="published_data" target="_top">
<polygon fill="#ffffff" stroke="transparent" points="216.5,-307.7 216.5,-412.7 343.5,-412.7 343.5,-307.7 216.5,-307.7"/>
<polygon fill="#f5f5f5" stroke="transparent" points="217,-389.2 217,-412.2 344,-412.2 344,-389.2 217,-389.2"/>
<polygon fill="none" stroke="#000000" points="217,-389.2 217,-412.2 344,-412.2 344,-389.2 217,-389.2"/>
<text text-anchor="start" x="222" y="-397.8" font-family="Helvetica,sans-Serif" font-weight="bold" font-size="11.00" fill="#000000">published_data</text>
<text text-anchor="start" x="309.5219" y="-397.3" font-family="Helvetica,sans-Serif" font-size="11.00" fill="#000000">[table]</text>
<polygon fill="none" stroke="#000000" points="217,-367.2 217,-389.2 344,-389.2 344,-367.2 217,-367.2"/>
<image xlink:href="../../images/primaryKeys.png" width="11px" height="12px" preserveAspectRatio="xMinYMin meet" x="222" y="-384.2"/>
<text text-anchor="start" x="246" y="-374.3" font-family="Helvetica,sans-Serif" font-size="11.00" fill="#000000">package_id</text>
<polygon fill="none" stroke="#000000" points="217,-345.2 217,-367.2 344,-367.2 344,-345.2 217,-345.2"/>
<image xlink:href="../../images/primaryKeys.png" width="11px" height="12px" preserveAspectRatio="xMinYMin meet" x="222" y="-362.2"/>
<text text-anchor="start" x="246" y="-352.3" font-family="Helvetica,sans-Serif" font-size="11.00" fill="#000000">checksum</text>
<polygon fill="none" stroke="#000000" points="217,-326.2 217,-345.2 344,-345.2 344,-326.2 217,-326.2"/>
<text text-anchor="start" x="220" y="-332.3" font-family="Helvetica,sans-Serif" font-size="11.00" fill="#000000">...</text>
<polygon fill="#ffffff" stroke="transparent" points="217,-307.2 217,-326.2 274,-326.2 274,-307.2 217,-307.2"/>
<polygon fill="none" stroke="#000000" points="217,-307.2 217,-326.2 274,-326.2 274,-307.2 217,-307.2"/>
<text text-anchor="start" x="220" y="-313.3" font-family="Helvetica,sans-Serif" font-size="11.00" fill="#000000">&lt; 1</text>
<polygon fill="#ffffff" stroke="transparent" points="274,-307.2 274,-326.2 304,-326.2 304,-307.2 274,-307.2"/>
<polygon fill="none" stroke="#000000" points="274,-307.2 274,-326.2 304,-326.2 304,-307.2 274,-307.2"/>
<text text-anchor="start" x="294.8862" y="-313.3" font-family="Helvetica,sans-Serif" font-size="11.00" fill="#000000"> &#160;</text>
<polygon fill="#ffffff" stroke="transparent" points="304,-307.2 304,-326.2 344,-326.2 344,-307.2 304,-307.2"/>
<polygon fill="none" stroke="#000000" points="304,-307.2 304,-326.2 344,-326.2 344,-307.2 304,-307.2"/>
<text text-anchor="start" x="325.4053" y="-313.3" font-family="Helvetica,sans-Serif" font-size="11.00" fill="#000000">2 &gt;</text>
</a>
</g>
</g>
<!-- published_data&#45;&gt;package_group -->
<g id="edge7" class="edge">
<title>published_data:w&#45;&gt;package_group:e</title>
<path fill="none" stroke="#000000" d="M202.7515,-380.7955C163.9557,-396.9646 189.0365,-483.2 135.5,-483.2"/>
<polygon fill="#000000" stroke="#000000" points="209.1295,-379.6337 217.6452,-381.7417 213.0648,-378.9169 217,-378.2 217,-378.2 217,-378.2 213.0648,-378.9169 216.3548,-374.6583 209.1295,-379.6337 209.1295,-379.6337"/>
<ellipse fill="none" stroke="#000000" cx="205.9813" cy="-380.2072" rx="3.2" ry="3.2"/>
</g>
<!-- published_sources -->
<g id="node6" class="node">
<title>published_sources</title>
<g id="a_node6"><a xlink:href="../../tables/published_sources.html" xlink:title="published_sources" target="_top">
<polygon fill="#ffffff" stroke="transparent" points="525.5,-681.7 525.5,-742.7 673.5,-742.7 673.5,-681.7 525.5,-681.7"/>
<polygon fill="#f5f5f5" stroke="transparent" points="525.5,-719.2 525.5,-742.2 673.5,-742.2 673.5,-719.2 525.5,-719.2"/>
<polygon fill="none" stroke="#000000" points="525.5,-719.2 525.5,-742.2 673.5,-742.2 673.5,-719.2 525.5,-719.2"/>
<text text-anchor="start" x="530.5" y="-727.8" font-family="Helvetica,sans-Serif" font-weight="bold" font-size="11.00" fill="#000000">published_sources</text>
<text text-anchor="start" x="639.0219" y="-727.3" font-family="Helvetica,sans-Serif" font-size="11.00" fill="#000000">[table]</text>
<polygon fill="none" stroke="#000000" points="525.5,-700.2 525.5,-719.2 673.5,-719.2 673.5,-700.2 525.5,-700.2"/>
<text text-anchor="start" x="528.5" y="-706.3" font-family="Helvetica,sans-Serif" font-size="11.00" fill="#000000">...</text>
<polygon fill="#ffffff" stroke="transparent" points="525.5,-681.2 525.5,-700.2 597.5,-700.2 597.5,-681.2 525.5,-681.2"/>
<polygon fill="none" stroke="#000000" points="525.5,-681.2 525.5,-700.2 597.5,-700.2 597.5,-681.2 525.5,-681.2"/>
<text text-anchor="start" x="528.5" y="-687.3" font-family="Helvetica,sans-Serif" font-size="11.00" fill="#000000">&lt; 4</text>
<polygon fill="#ffffff" stroke="transparent" points="597.5,-681.2 597.5,-700.2 635.5,-700.2 635.5,-681.2 597.5,-681.2"/>
<polygon fill="none" stroke="#000000" points="597.5,-681.2 597.5,-700.2 635.5,-700.2 635.5,-681.2 597.5,-681.2"/>
<text text-anchor="start" x="626.3862" y="-687.3" font-family="Helvetica,sans-Serif" font-size="11.00" fill="#000000"> &#160;</text>
<polygon fill="#ffffff" stroke="transparent" points="635.5,-681.2 635.5,-700.2 673.5,-700.2 673.5,-681.2 635.5,-681.2"/>
<polygon fill="none" stroke="#000000" points="635.5,-681.2 635.5,-700.2 673.5,-700.2 673.5,-681.2 635.5,-681.2"/>
<text text-anchor="start" x="664.3862" y="-687.3" font-family="Helvetica,sans-Serif" font-size="11.00" fill="#000000"> &#160;</text>
</a>
</g>
</g>
<!-- published_sources&#45;&gt;published_version -->
<g id="edge8" class="edge">
<title>published_sources:w&#45;&gt;published_version:e</title>
<path fill="none" stroke="#000000" d="M510.8697,-709.0425C470.3352,-708.0357 451.4506,-701.5385 417,-671.2 386.421,-644.271 416.7461,-589.2 376,-589.2"/>
<polygon fill="#000000" stroke="#000000" points="517.5005,-709.1138 525.4612,-712.7998 521.5002,-709.1569 525.5,-709.2 525.5,-709.2 525.5,-709.2 521.5002,-709.1569 525.5388,-705.6002 517.5005,-709.1138 517.5005,-709.1138"/>
<ellipse fill="none" stroke="#000000" cx="514.3006" cy="-709.0794" rx="3.2" ry="3.2"/>
</g>
<!-- published_sources&#45;&gt;published_version -->
<g id="edge9" class="edge">
<title>published_sources:w&#45;&gt;published_version:e</title>
<path fill="none" stroke="#000000" d="M511.0642,-709.123C469.9471,-708.5592 449.1657,-704.0908 417,-671.2 375.825,-629.0969 434.8901,-545.2 376,-545.2"/>
<polygon fill="#000000" stroke="#000000" points="517.5001,-709.1573 525.4808,-712.7999 521.5001,-709.1786 525.5,-709.2 525.5,-709.2 525.5,-709.2 521.5001,-709.1786 525.5192,-705.6001 517.5001,-709.1573 517.5001,-709.1573"/>
<ellipse fill="none" stroke="#000000" cx="514.3002" cy="-709.1402" rx="3.2" ry="3.2"/>
</g>
<!-- published_sources&#45;&gt;published_version -->
<g id="edge10" class="edge">
<title>published_sources:w&#45;&gt;published_version:e</title>
<path fill="none" stroke="#000000" d="M511.0935,-709.0934C470.1437,-708.3609 450.1527,-703.0957 417,-671.2 381.1956,-636.7531 425.6844,-567.2 376,-567.2"/>
<polygon fill="#000000" stroke="#000000" points="517.5002,-709.1408 525.4733,-712.7999 521.5001,-709.1704 525.5,-709.2 525.5,-709.2 525.5,-709.2 521.5001,-709.1704 525.5267,-705.6001 517.5002,-709.1408 517.5002,-709.1408"/>
<ellipse fill="none" stroke="#000000" cx="514.3003" cy="-709.1171" rx="3.2" ry="3.2"/>
</g>
<!-- published_version_reference -->
<g id="node7" class="node">
<title>published_version_reference</title>
<g id="a_node7"><a xlink:href="../../tables/published_version_reference.html" xlink:title="published_version_reference" target="_top">
<polygon fill="#ffffff" stroke="transparent" points="497,-599.7 497,-660.7 702,-660.7 702,-599.7 497,-599.7"/>
<polygon fill="#f5f5f5" stroke="transparent" points="497.5,-637.2 497.5,-660.2 702.5,-660.2 702.5,-637.2 497.5,-637.2"/>
<polygon fill="none" stroke="#000000" points="497.5,-637.2 497.5,-660.2 702.5,-660.2 702.5,-637.2 497.5,-637.2"/>
<text text-anchor="start" x="502.5" y="-645.8" font-family="Helvetica,sans-Serif" font-weight="bold" font-size="11.00" fill="#000000">published_version_reference</text>
<text text-anchor="start" x="668.0219" y="-645.3" font-family="Helvetica,sans-Serif" font-size="11.00" fill="#000000">[table]</text>
<polygon fill="none" stroke="#000000" points="497.5,-618.2 497.5,-637.2 702.5,-637.2 702.5,-618.2 497.5,-618.2"/>
<text text-anchor="start" x="500.5" y="-624.3" font-family="Helvetica,sans-Serif" font-size="11.00" fill="#000000">...</text>
<polygon fill="#ffffff" stroke="transparent" points="497.5,-599.2 497.5,-618.2 598.5,-618.2 598.5,-599.2 497.5,-599.2"/>
<polygon fill="none" stroke="#000000" points="497.5,-599.2 497.5,-618.2 598.5,-618.2 598.5,-599.2 497.5,-599.2"/>
<text text-anchor="start" x="500.5" y="-605.3" font-family="Helvetica,sans-Serif" font-size="11.00" fill="#000000">&lt; 3</text>
<polygon fill="#ffffff" stroke="transparent" points="598.5,-599.2 598.5,-618.2 650.5,-618.2 650.5,-599.2 598.5,-599.2"/>
<polygon fill="none" stroke="#000000" points="598.5,-599.2 598.5,-618.2 650.5,-618.2 650.5,-599.2 598.5,-599.2"/>
<text text-anchor="start" x="641.3862" y="-605.3" font-family="Helvetica,sans-Serif" font-size="11.00" fill="#000000"> &#160;</text>
<polygon fill="#ffffff" stroke="transparent" points="650.5,-599.2 650.5,-618.2 702.5,-618.2 702.5,-599.2 650.5,-599.2"/>
<polygon fill="none" stroke="#000000" points="650.5,-599.2 650.5,-618.2 702.5,-618.2 702.5,-599.2 650.5,-599.2"/>
<text text-anchor="start" x="693.3862" y="-605.3" font-family="Helvetica,sans-Serif" font-size="11.00" fill="#000000"> &#160;</text>
</a>
</g>
</g>
<!-- published_version_reference&#45;&gt;published_version -->
<g id="edge12" class="edge">
<title>published_version_reference:w&#45;&gt;published_version:e</title>
<path fill="none" stroke="#000000" d="M483.0634,-626.2981C438.9827,-620.5437 427.3856,-589.2 376,-589.2"/>
<polygon fill="#000000" stroke="#000000" points="489.5156,-626.7012 497.2755,-630.793 493.5078,-626.9506 497.5,-627.2 497.5,-627.2 497.5,-627.2 493.5078,-626.9506 497.7245,-623.607 489.5156,-626.7012 489.5156,-626.7012"/>
<ellipse fill="none" stroke="#000000" cx="486.3218" cy="-626.5016" rx="3.2" ry="3.2"/>
</g>
<!-- published_version_reference&#45;&gt;published_version -->
<g id="edge13" class="edge">
<title>published_version_reference:w&#45;&gt;published_version:e</title>
<path fill="none" stroke="#000000" d="M482.8505,-626.393C455.0495,-623.0283 444.5806,-609.3457 417,-589.2 395.4153,-573.4339 402.7296,-545.2 376,-545.2"/>
<polygon fill="#000000" stroke="#000000" points="489.5121,-626.7599 497.302,-630.7946 493.5061,-626.98 497.5,-627.2 497.5,-627.2 497.5,-627.2 493.5061,-626.98 497.698,-623.6054 489.5121,-626.7599 489.5121,-626.7599"/>
<ellipse fill="none" stroke="#000000" cx="486.317" cy="-626.5839" rx="3.2" ry="3.2"/>
</g>
<!-- published_version_reference&#45;&gt;published_version -->
<g id="edge14" class="edge">
<title>published_version_reference:w&#45;&gt;published_version:e</title>
<path fill="none" stroke="#000000" d="M483.0142,-626.1252C455.8481,-621.7223 447.5011,-604.5695 417,-589.2 398.5323,-579.8941 396.6798,-567.2 376,-567.2"/>
<polygon fill="#000000" stroke="#000000" points="489.5219,-626.608 497.2336,-630.7901 493.511,-626.904 497.5,-627.2 497.5,-627.2 497.5,-627.2 493.511,-626.904 497.7664,-623.6099 489.5219,-626.608 489.5219,-626.608"/>
<ellipse fill="none" stroke="#000000" cx="486.3307" cy="-626.3712" rx="3.2" ry="3.2"/>
</g>
<!-- published_version_revision_content -->
<g id="node8" class="node">
<title>published_version_revision_content</title>
<g id="a_node8"><a xlink:href="../../tables/published_version_revision_content.html" xlink:title="published_version_revision_content" target="_top">
<polygon fill="#ffffff" stroke="transparent" points="425,-38.2 425,-414.2 774,-414.2 774,-38.2 425,-38.2"/>
<polygon fill="#f5f5f5" stroke="transparent" points="427.5,-389.2 427.5,-412.2 772.5,-412.2 772.5,-389.2 427.5,-389.2"/>
<polygon fill="none" stroke="#000000" points="427.5,-389.2 427.5,-412.2 772.5,-412.2 772.5,-389.2 427.5,-389.2"/>
<text text-anchor="start" x="432.5" y="-397.8" font-family="Helvetica,sans-Serif" font-weight="bold" font-size="11.00" fill="#000000">published_version_revision_content</text>
<text text-anchor="start" x="737.5437" y="-397.3" font-family="Helvetica,sans-Serif" font-size="11.00" fill="#000000">[table]</text>
<polygon fill="none" stroke="#000000" points="427.5,-367.2 427.5,-389.2 656.5,-389.2 656.5,-367.2 427.5,-367.2"/>
<image xlink:href="../../images/primaryKeys.png" width="11px" height="12px" preserveAspectRatio="xMinYMin meet" x="432.5" y="-384.2"/>
<text text-anchor="start" x="447.5" y="-374.3" font-family="Helvetica,sans-Serif" font-size="11.00" fill="#000000">package_id</text>
<polygon fill="none" stroke="#000000" points="656.5,-367.2 656.5,-389.2 772.5,-389.2 772.5,-367.2 656.5,-367.2"/>
<text text-anchor="start" x="659.5" y="-374.9" font-family="Helvetica,sans-Serif" font-size="11.00" fill="#000000">varchar[2147483647]</text>
<polygon fill="none" stroke="#000000" points="427.5,-345.2 427.5,-367.2 656.5,-367.2 656.5,-345.2 427.5,-345.2"/>
<image xlink:href="../../images/primaryKeys.png" width="11px" height="12px" preserveAspectRatio="xMinYMin meet" x="432.5" y="-362.2"/>
<text text-anchor="start" x="447.5" y="-352.3" font-family="Helvetica,sans-Serif" font-size="11.00" fill="#000000">version</text>
<polygon fill="none" stroke="#000000" points="656.5,-345.2 656.5,-367.2 772.5,-367.2 772.5,-345.2 656.5,-345.2"/>
<text text-anchor="start" x="659.5" y="-352.9" font-family="Helvetica,sans-Serif" font-size="11.00" fill="#000000">varchar[2147483647]</text>
<polygon fill="none" stroke="#000000" points="427.5,-323.2 427.5,-345.2 656.5,-345.2 656.5,-323.2 427.5,-323.2"/>
<image xlink:href="../../images/primaryKeys.png" width="11px" height="12px" preserveAspectRatio="xMinYMin meet" x="432.5" y="-340.2"/>
<text text-anchor="start" x="447.5" y="-330.3" font-family="Helvetica,sans-Serif" font-size="11.00" fill="#000000">revision</text>
<polygon fill="none" stroke="#000000" points="656.5,-323.2 656.5,-345.2 772.5,-345.2 772.5,-323.2 656.5,-323.2"/>
<text text-anchor="start" x="659.5" y="-330.9" font-family="Helvetica,sans-Serif" font-size="11.00" fill="#000000">int4[10]</text>
<polygon fill="none" stroke="#000000" points="427.5,-301.2 427.5,-323.2 656.5,-323.2 656.5,-301.2 427.5,-301.2"/>
<image xlink:href="../../images/foreignKeys.png" width="11px" height="12px" preserveAspectRatio="xMinYMin meet" x="432.5" y="-318.2"/>
<text text-anchor="start" x="447.5" y="-308.3" font-family="Helvetica,sans-Serif" font-size="11.00" fill="#000000">checksum</text>
<polygon fill="none" stroke="#000000" points="656.5,-301.2 656.5,-323.2 772.5,-323.2 772.5,-301.2 656.5,-301.2"/>
<text text-anchor="start" x="659.5" y="-308.9" font-family="Helvetica,sans-Serif" font-size="11.00" fill="#000000">varchar[2147483647]</text>
<polygon fill="none" stroke="#000000" points="427.5,-279.2 427.5,-301.2 656.5,-301.2 656.5,-279.2 427.5,-279.2"/>
<text text-anchor="start" x="447.5" y="-286.3" font-family="Helvetica,sans-Serif" font-size="11.00" fill="#000000">index</text>
<polygon fill="none" stroke="#000000" points="656.5,-279.2 656.5,-301.2 772.5,-301.2 772.5,-279.2 656.5,-279.2"/>
<text text-anchor="start" x="659.5" y="-286.9" font-family="Helvetica,sans-Serif" font-size="11.00" fill="#000000">int4[10]</text>
<polygon fill="none" stroke="#000000" points="427.5,-257.2 427.5,-279.2 656.5,-279.2 656.5,-257.2 427.5,-257.2"/>
<image xlink:href="../../images/primaryKeys.png" width="11px" height="12px" preserveAspectRatio="xMinYMin meet" x="432.5" y="-274.2"/>
<text text-anchor="start" x="447.5" y="-264.3" font-family="Helvetica,sans-Serif" font-size="11.00" fill="#000000">file_id</text>
<polygon fill="none" stroke="#000000" points="656.5,-257.2 656.5,-279.2 772.5,-279.2 772.5,-257.2 656.5,-257.2"/>
<text text-anchor="start" x="659.5" y="-264.9" font-family="Helvetica,sans-Serif" font-size="11.00" fill="#000000">varchar[2147483647]</text>
<polygon fill="none" stroke="#000000" points="427.5,-235.2 427.5,-257.2 656.5,-257.2 656.5,-235.2 427.5,-235.2"/>
<text text-anchor="start" x="447.5" y="-242.3" font-family="Helvetica,sans-Serif" font-size="11.00" fill="#000000">path</text>
<polygon fill="none" stroke="#000000" points="656.5,-235.2 656.5,-257.2 772.5,-257.2 772.5,-235.2 656.5,-235.2"/>
<text text-anchor="start" x="659.5" y="-242.9" font-family="Helvetica,sans-Serif" font-size="11.00" fill="#000000">varchar[2147483647]</text>
<polygon fill="none" stroke="#000000" points="427.5,-213.2 427.5,-235.2 656.5,-235.2 656.5,-213.2 427.5,-213.2"/>
<text text-anchor="start" x="447.5" y="-220.3" font-family="Helvetica,sans-Serif" font-size="11.00" fill="#000000">slug</text>
<polygon fill="none" stroke="#000000" points="656.5,-213.2 656.5,-235.2 772.5,-235.2 772.5,-213.2 656.5,-213.2"/>
<text text-anchor="start" x="659.5" y="-220.9" font-family="Helvetica,sans-Serif" font-size="11.00" fill="#000000">varchar[2147483647]</text>
<polygon fill="none" stroke="#000000" points="427.5,-191.2 427.5,-213.2 656.5,-213.2 656.5,-191.2 427.5,-191.2"/>
<text text-anchor="start" x="447.5" y="-198.3" font-family="Helvetica,sans-Serif" font-size="11.00" fill="#000000">data_type</text>
<polygon fill="none" stroke="#000000" points="656.5,-191.2 656.5,-213.2 772.5,-213.2 772.5,-191.2 656.5,-191.2"/>
<text text-anchor="start" x="659.5" y="-198.9" font-family="Helvetica,sans-Serif" font-size="11.00" fill="#000000">varchar[2147483647]</text>
<polygon fill="none" stroke="#000000" points="427.5,-169.2 427.5,-191.2 656.5,-191.2 656.5,-169.2 427.5,-169.2"/>
<text text-anchor="start" x="447.5" y="-176.3" font-family="Helvetica,sans-Serif" font-size="11.00" fill="#000000">name</text>
<polygon fill="none" stroke="#000000" points="656.5,-169.2 656.5,-191.2 772.5,-191.2 772.5,-169.2 656.5,-169.2"/>
<text text-anchor="start" x="659.5" y="-176.9" font-family="Helvetica,sans-Serif" font-size="11.00" fill="#000000">varchar[2147483647]</text>
<polygon fill="none" stroke="#000000" points="427.5,-147.2 427.5,-169.2 656.5,-169.2 656.5,-147.2 427.5,-147.2"/>
<text text-anchor="start" x="447.5" y="-154.3" font-family="Helvetica,sans-Serif" font-size="11.00" fill="#000000">metadata</text>
<polygon fill="none" stroke="#000000" points="656.5,-147.2 656.5,-169.2 772.5,-169.2 772.5,-147.2 656.5,-147.2"/>
<text text-anchor="start" x="659.5" y="-154.9" font-family="Helvetica,sans-Serif" font-size="11.00" fill="#000000">jsonb[2147483647]</text>
<polygon fill="none" stroke="#000000" points="427.5,-125.2 427.5,-147.2 656.5,-147.2 656.5,-125.2 427.5,-125.2"/>
<text text-anchor="start" x="447.5" y="-132.3" font-family="Helvetica,sans-Serif" font-size="11.00" fill="#000000">title</text>
<polygon fill="none" stroke="#000000" points="656.5,-125.2 656.5,-147.2 772.5,-147.2 772.5,-125.2 656.5,-125.2"/>
<text text-anchor="start" x="659.5" y="-132.9" font-family="Helvetica,sans-Serif" font-size="11.00" fill="#000000">varchar[2147483647]</text>
<polygon fill="none" stroke="#000000" points="427.5,-103.2 427.5,-125.2 656.5,-125.2 656.5,-103.2 427.5,-103.2"/>
<text text-anchor="start" x="447.5" y="-110.3" font-family="Helvetica,sans-Serif" font-size="11.00" fill="#000000">format</text>
<polygon fill="none" stroke="#000000" points="656.5,-103.2 656.5,-125.2 772.5,-125.2 772.5,-103.2 656.5,-103.2"/>
<text text-anchor="start" x="659.5" y="-110.9" font-family="Helvetica,sans-Serif" font-size="11.00" fill="#000000">varchar[2147483647]</text>
<polygon fill="none" stroke="#000000" points="427.5,-81.2 427.5,-103.2 656.5,-103.2 656.5,-81.2 427.5,-81.2"/>
<text text-anchor="start" x="447.5" y="-88.3" font-family="Helvetica,sans-Serif" font-size="11.00" fill="#000000">operation_ids</text>
<polygon fill="none" stroke="#000000" points="656.5,-81.2 656.5,-103.2 772.5,-103.2 772.5,-81.2 656.5,-81.2"/>
<text text-anchor="start" x="659.4769" y="-88.9" font-family="Helvetica,sans-Serif" font-size="11.00" fill="#000000">_varchar[2147483647]</text>
<polygon fill="none" stroke="#000000" points="427.5,-59.2 427.5,-81.2 656.5,-81.2 656.5,-59.2 427.5,-59.2"/>
<text text-anchor="start" x="447.5" y="-66.3" font-family="Helvetica,sans-Serif" font-size="11.00" fill="#000000">filename</text>
<polygon fill="none" stroke="#000000" points="656.5,-59.2 656.5,-81.2 772.5,-81.2 772.5,-59.2 656.5,-59.2"/>
<text text-anchor="start" x="659.5" y="-66.9" font-family="Helvetica,sans-Serif" font-size="11.00" fill="#000000">varchar[2147483647]</text>
<polygon fill="#ffffff" stroke="transparent" points="427.5,-40.2 427.5,-59.2 546.5,-59.2 546.5,-40.2 427.5,-40.2"/>
<polygon fill="none" stroke="#000000" points="427.5,-40.2 427.5,-59.2 546.5,-59.2 546.5,-40.2 427.5,-40.2"/>
<text text-anchor="start" x="430.5" y="-46.3" font-family="Helvetica,sans-Serif" font-size="11.00" fill="#000000">&lt; 5</text>
<polygon fill="#ffffff" stroke="transparent" points="546.5,-40.2 546.5,-59.2 656.5,-59.2 656.5,-40.2 546.5,-40.2"/>
<polygon fill="none" stroke="#000000" points="546.5,-40.2 546.5,-59.2 656.5,-59.2 656.5,-40.2 546.5,-40.2"/>
<text text-anchor="start" x="647.3862" y="-46.3" font-family="Helvetica,sans-Serif" font-size="11.00" fill="#000000"> &#160;</text>
<polygon fill="#ffffff" stroke="transparent" points="656.5,-40.2 656.5,-59.2 772.5,-59.2 772.5,-40.2 656.5,-40.2"/>
<polygon fill="none" stroke="#000000" points="656.5,-40.2 656.5,-59.2 772.5,-59.2 772.5,-40.2 656.5,-40.2"/>
<text text-anchor="start" x="753.9053" y="-46.3" font-family="Helvetica,sans-Serif" font-size="11.00" fill="#000000">0 &gt;</text>
<polygon fill="none" stroke="#000000" stroke-width="2" points="426,-39.2 426,-413.2 773,-413.2 773,-39.2 426,-39.2"/>
</a>
</g>
</g>
<!-- published_version_revision_content&#45;&gt;published_version -->
<g id="edge17" class="edge">
<title>published_version_revision_content:w&#45;&gt;published_version:e</title>
<path fill="none" stroke="#000000" d="M412.8882,-380.2883C346.7411,-402.2022 466.8746,-589.2 376,-589.2"/>
<polygon fill="#000000" stroke="#000000" points="419.5805,-379.3319 428.0094,-381.7638 423.5402,-378.766 427.5,-378.2 427.5,-378.2 427.5,-378.2 423.5402,-378.766 426.9906,-374.6362 419.5805,-379.3319 419.5805,-379.3319"/>
<ellipse fill="none" stroke="#000000" cx="416.4127" cy="-379.7847" rx="3.2" ry="3.2"/>
</g>
<!-- published_version_revision_content&#45;&gt;published_version -->
<g id="edge18" class="edge">
<title>published_version_revision_content:w&#45;&gt;published_version:e</title>
<path fill="none" stroke="#000000" d="M412.8882,-336.2883C346.7411,-358.2022 466.8746,-545.2 376,-545.2"/>
<polygon fill="#000000" stroke="#000000" points="419.5805,-335.3319 428.0094,-337.7638 423.5402,-334.766 427.5,-334.2 427.5,-334.2 427.5,-334.2 423.5402,-334.766 426.9906,-330.6362 419.5805,-335.3319 419.5805,-335.3319"/>
<ellipse fill="none" stroke="#000000" cx="416.4127" cy="-335.7847" rx="3.2" ry="3.2"/>
</g>
<!-- published_version_revision_content&#45;&gt;published_version -->
<g id="edge19" class="edge">
<title>published_version_revision_content:w&#45;&gt;published_version:e</title>
<path fill="none" stroke="#000000" d="M412.8882,-358.2883C346.7411,-380.2022 466.8746,-567.2 376,-567.2"/>
<polygon fill="#000000" stroke="#000000" points="419.5805,-357.3319 428.0094,-359.7638 423.5402,-356.766 427.5,-356.2 427.5,-356.2 427.5,-356.2 423.5402,-356.766 426.9906,-352.6362 419.5805,-357.3319 419.5805,-357.3319"/>
<ellipse fill="none" stroke="#000000" cx="416.4127" cy="-357.7847" rx="3.2" ry="3.2"/>
</g>
<!-- published_version_revision_content&#45;&gt;published_data -->
<g id="edge15" class="edge">
<title>published_version_revision_content:w&#45;&gt;published_data:e</title>
<path fill="none" stroke="#000000" d="M413.2073,-314.2049C384.9503,-322.8126 380.5408,-356.2 344,-356.2"/>
<polygon fill="#000000" stroke="#000000" points="419.5776,-313.3114 428.0001,-315.7651 423.5388,-312.7557 427.5,-312.2 427.5,-312.2 427.5,-312.2 423.5388,-312.7557 426.9999,-308.6349 419.5776,-313.3114 419.5776,-313.3114"/>
<ellipse fill="none" stroke="#000000" cx="416.4086" cy="-313.7559" rx="3.2" ry="3.2"/>
</g>
<!-- published_version_revision_content&#45;&gt;published_data -->
<g id="edge16" class="edge">
<title>published_version_revision_content:w&#45;&gt;published_data:e</title>
<path fill="none" stroke="#000000" d="M412.985,-378.2C387.1256,-378.2 375.7474,-378.2 344,-378.2"/>
<polygon fill="#000000" stroke="#000000" points="419.5,-378.2001 427.5,-381.8 423.5,-378.2 427.5,-378.2 427.5,-378.2 427.5,-378.2 423.5,-378.2 427.5,-374.6 419.5,-378.2001 419.5,-378.2001"/>
<ellipse fill="none" stroke="#000000" cx="416.3" cy="-378.2001" rx="3.2" ry="3.2"/>
</g>
<!-- published_version_validation -->
<g id="node9" class="node">
<title>published_version_validation</title>
<g id="a_node9"><a xlink:href="../../tables/published_version_validation.html" xlink:title="published_version_validation" target="_top">
<polygon fill="#ffffff" stroke="transparent" points="496,-517.7 496,-578.7 703,-578.7 703,-517.7 496,-517.7"/>
<polygon fill="#f5f5f5" stroke="transparent" points="496.5,-555.2 496.5,-578.2 703.5,-578.2 703.5,-555.2 496.5,-555.2"/>
<polygon fill="none" stroke="#000000" points="496.5,-555.2 496.5,-578.2 703.5,-578.2 703.5,-555.2 496.5,-555.2"/>
<text text-anchor="start" x="501.5" y="-563.8" font-family="Helvetica,sans-Serif" font-weight="bold" font-size="11.00" fill="#000000">published_version_validation</text>
<text text-anchor="start" x="669.0219" y="-563.3" font-family="Helvetica,sans-Serif" font-size="11.00" fill="#000000">[table]</text>
<polygon fill="none" stroke="#000000" points="496.5,-536.2 496.5,-555.2 703.5,-555.2 703.5,-536.2 496.5,-536.2"/>
<text text-anchor="start" x="499.5" y="-542.3" font-family="Helvetica,sans-Serif" font-size="11.00" fill="#000000">...</text>
<polygon fill="#ffffff" stroke="transparent" points="496.5,-517.2 496.5,-536.2 598.5,-536.2 598.5,-517.2 496.5,-517.2"/>
<polygon fill="none" stroke="#000000" points="496.5,-517.2 496.5,-536.2 598.5,-536.2 598.5,-517.2 496.5,-517.2"/>
<text text-anchor="start" x="499.5" y="-523.3" font-family="Helvetica,sans-Serif" font-size="11.00" fill="#000000">&lt; 3</text>
<polygon fill="#ffffff" stroke="transparent" points="598.5,-517.2 598.5,-536.2 650.5,-536.2 650.5,-517.2 598.5,-517.2"/>
<polygon fill="none" stroke="#000000" points="598.5,-517.2 598.5,-536.2 650.5,-536.2 650.5,-517.2 598.5,-517.2"/>
<text text-anchor="start" x="641.3862" y="-523.3" font-family="Helvetica,sans-Serif" font-size="11.00" fill="#000000"> &#160;</text>
<polygon fill="#ffffff" stroke="transparent" points="650.5,-517.2 650.5,-536.2 703.5,-536.2 703.5,-517.2 650.5,-517.2"/>
<polygon fill="none" stroke="#000000" points="650.5,-517.2 650.5,-536.2 703.5,-536.2 703.5,-517.2 650.5,-517.2"/>
<text text-anchor="start" x="694.3862" y="-523.3" font-family="Helvetica,sans-Serif" font-size="11.00" fill="#000000"> &#160;</text>
</a>
</g>
</g>
<!-- published_version_validation&#45;&gt;published_version -->
<g id="edge20" class="edge">
<title>published_version_validation:w&#45;&gt;published_version:e</title>
<path fill="none" stroke="#000000" d="M481.9984,-546.2442C437.8718,-552.9074 427.7805,-589.2 376,-589.2"/>
<polygon fill="#000000" stroke="#000000" points="488.5207,-545.7746 496.7586,-548.7907 492.5103,-545.4873 496.5,-545.2 496.5,-545.2 496.5,-545.2 492.5103,-545.4873 496.2414,-541.6093 488.5207,-545.7746 488.5207,-545.7746"/>
<ellipse fill="none" stroke="#000000" cx="485.3289" cy="-546.0045" rx="3.2" ry="3.2"/>
</g>
<!-- published_version_validation&#45;&gt;published_version -->
<g id="edge21" class="edge">
<title>published_version_validation:w&#45;&gt;published_version:e</title>
<path fill="none" stroke="#000000" d="M481.8843,-545.2C439.9464,-545.2 424.3255,-545.2 376,-545.2"/>
<polygon fill="#000000" stroke="#000000" points="488.5,-545.2001 496.5,-548.8 492.5,-545.2 496.5,-545.2 496.5,-545.2 496.5,-545.2 492.5,-545.2 496.5,-541.6 488.5,-545.2001 488.5,-545.2001"/>
<ellipse fill="none" stroke="#000000" cx="485.3" cy="-545.2001" rx="3.2" ry="3.2"/>
</g>
<!-- published_version_validation&#45;&gt;published_version -->
<g id="edge22" class="edge">
<title>published_version_validation:w&#45;&gt;published_version:e</title>
<path fill="none" stroke="#000000" d="M481.9711,-545.7659C439.4431,-549.2094 425.2307,-567.2 376,-567.2"/>
<polygon fill="#000000" stroke="#000000" points="488.5061,-545.5114 496.6401,-548.7973 492.503,-545.3557 496.5,-545.2 496.5,-545.2 496.5,-545.2 492.503,-545.3557 496.3599,-541.6027 488.5061,-545.5114 488.5061,-545.5114"/>
<ellipse fill="none" stroke="#000000" cx="485.3085" cy="-545.636" rx="3.2" ry="3.2"/>
</g>
</g>
</svg>
