<?xml version="1.0" encoding="UTF-8" standalone="no"?>
<!DOCTYPE svg PUBLIC "-//W3C//DTD SVG 1.1//EN"
 "http://www.w3.org/Graphics/SVG/1.1/DTD/svg11.dtd">
<!-- Generated by graphviz version 2.40.1 (20161225.0304)
 -->
<!-- Title: twoDegreesRelationshipsDiagram Pages: 1 -->
<svg width="472pt" height="1169pt"
 viewBox="0.00 0.00 472.00 1168.70" xmlns="http://www.w3.org/2000/svg" xmlns:xlink="http://www.w3.org/1999/xlink">
<g id="graph0" class="graph" transform="scale(1 1) rotate(0) translate(4 1164.7)">
<title>twoDegreesRelationshipsDiagram</title>
<polygon fill="#ffffff" stroke="transparent" points="-4,4 -4,-1164.7 468,-1164.7 468,4 -4,4"/>
<text text-anchor="middle" x="72.4936" y="-7.3" font-family="Helvetica,sans-Serif" font-size="11.00" fill="#000000">Generated by SchemaSpy</text>
<!-- activity_tracking -->
<g id="node1" class="node">
<title>activity_tracking</title>
<g id="a_node1"><a xlink:href="../../tables/activity_tracking.html" xlink:title="activity_tracking" target="_top">
<polygon fill="#ffffff" stroke="transparent" points="272.5,-1095.7 272.5,-1156.7 405.5,-1156.7 405.5,-1095.7 272.5,-1095.7"/>
<polygon fill="#f5f5f5" stroke="transparent" points="273,-1133.2 273,-1156.2 406,-1156.2 406,-1133.2 273,-1133.2"/>
<polygon fill="none" stroke="#000000" points="273,-1133.2 273,-1156.2 406,-1156.2 406,-1133.2 273,-1133.2"/>
<text text-anchor="start" x="278" y="-1141.8" font-family="Helvetica,sans-Serif" font-weight="bold" font-size="11.00" fill="#000000">activity_tracking</text>
<text text-anchor="start" x="371.5219" y="-1141.3" font-family="Helvetica,sans-Serif" font-size="11.00" fill="#000000">[table]</text>
<polygon fill="none" stroke="#000000" points="273,-1114.2 273,-1133.2 406,-1133.2 406,-1114.2 273,-1114.2"/>
<text text-anchor="start" x="276" y="-1120.3" font-family="Helvetica,sans-Serif" font-size="11.00" fill="#000000">...</text>
<polygon fill="#ffffff" stroke="transparent" points="273,-1095.2 273,-1114.2 338,-1114.2 338,-1095.2 273,-1095.2"/>
<polygon fill="none" stroke="#000000" points="273,-1095.2 273,-1114.2 338,-1114.2 338,-1095.2 273,-1095.2"/>
<text text-anchor="start" x="276" y="-1101.3" font-family="Helvetica,sans-Serif" font-size="11.00" fill="#000000">&lt; 1</text>
<polygon fill="#ffffff" stroke="transparent" points="338,-1095.2 338,-1114.2 372,-1114.2 372,-1095.2 338,-1095.2"/>
<polygon fill="none" stroke="#000000" points="338,-1095.2 338,-1114.2 372,-1114.2 372,-1095.2 338,-1095.2"/>
<text text-anchor="start" x="362.8862" y="-1101.3" font-family="Helvetica,sans-Serif" font-size="11.00" fill="#000000"> &#160;</text>
<polygon fill="#ffffff" stroke="transparent" points="372,-1095.2 372,-1114.2 406,-1114.2 406,-1095.2 372,-1095.2"/>
<polygon fill="none" stroke="#000000" points="372,-1095.2 372,-1114.2 406,-1114.2 406,-1095.2 372,-1095.2"/>
<text text-anchor="start" x="396.8862" y="-1101.3" font-family="Helvetica,sans-Serif" font-size="11.00" fill="#000000"> &#160;</text>
</a>
</g>
</g>
<!-- package_group -->
<g id="node2" class="node">
<title>package_group</title>
<g id="a_node2"><a xlink:href="../../tables/package_group.html" xlink:title="package_group" target="_top">
<polygon fill="#ffffff" stroke="transparent" points="8,-519.7 8,-624.7 173,-624.7 173,-519.7 8,-519.7"/>
<polygon fill="#f5f5f5" stroke="transparent" points="8.5,-601.2 8.5,-624.2 173.5,-624.2 173.5,-601.2 8.5,-601.2"/>
<polygon fill="none" stroke="#000000" points="8.5,-601.2 8.5,-624.2 173.5,-624.2 173.5,-601.2 8.5,-601.2"/>
<text text-anchor="start" x="13.5" y="-609.8" font-family="Helvetica,sans-Serif" font-weight="bold" font-size="11.00" fill="#000000">package_group</text>
<text text-anchor="start" x="138.5437" y="-609.3" font-family="Helvetica,sans-Serif" font-size="11.00" fill="#000000">[table]</text>
<polygon fill="none" stroke="#000000" points="8.5,-579.2 8.5,-601.2 173.5,-601.2 173.5,-579.2 8.5,-579.2"/>
<image xlink:href="../../images/primaryKeys.png" width="11px" height="12px" preserveAspectRatio="xMinYMin meet" x="13.5" y="-596.2"/>
<text text-anchor="start" x="28.5" y="-586.3" font-family="Helvetica,sans-Serif" font-size="11.00" fill="#000000">id</text>
<polygon fill="none" stroke="#000000" points="8.5,-557.2 8.5,-579.2 173.5,-579.2 173.5,-557.2 8.5,-557.2"/>
<image xlink:href="../../images/foreignKeys.png" width="11px" height="12px" preserveAspectRatio="xMinYMin meet" x="13.5" y="-574.2"/>
<text text-anchor="start" x="28.5" y="-564.3" font-family="Helvetica,sans-Serif" font-size="11.00" fill="#000000">parent_id</text>
<polygon fill="none" stroke="#000000" points="8.5,-538.2 8.5,-557.2 173.5,-557.2 173.5,-538.2 8.5,-538.2"/>
<text text-anchor="start" x="11.5" y="-544.3" font-family="Helvetica,sans-Serif" font-size="11.00" fill="#000000">...</text>
<polygon fill="#ffffff" stroke="transparent" points="8.5,-519.2 8.5,-538.2 81.5,-538.2 81.5,-519.2 8.5,-519.2"/>
<polygon fill="none" stroke="#000000" points="8.5,-519.2 8.5,-538.2 81.5,-538.2 81.5,-519.2 8.5,-519.2"/>
<text text-anchor="start" x="11.5" y="-525.3" font-family="Helvetica,sans-Serif" font-size="11.00" fill="#000000">&lt; 1</text>
<polygon fill="#ffffff" stroke="transparent" points="81.5,-519.2 81.5,-538.2 119.5,-538.2 119.5,-519.2 81.5,-519.2"/>
<polygon fill="none" stroke="#000000" points="81.5,-519.2 81.5,-538.2 119.5,-538.2 119.5,-519.2 81.5,-519.2"/>
<text text-anchor="start" x="110.3862" y="-525.3" font-family="Helvetica,sans-Serif" font-size="11.00" fill="#000000"> &#160;</text>
<polygon fill="#ffffff" stroke="transparent" points="119.5,-519.2 119.5,-538.2 173.5,-538.2 173.5,-519.2 119.5,-519.2"/>
<polygon fill="none" stroke="#000000" points="119.5,-519.2 119.5,-538.2 173.5,-538.2 173.5,-519.2 119.5,-519.2"/>
<text text-anchor="start" x="148.7904" y="-525.3" font-family="Helvetica,sans-Serif" font-size="11.00" fill="#000000">15 &gt;</text>
</a>
</g>
</g>
<!-- activity_tracking&#45;&gt;package_group -->
<g id="edge1" class="edge">
<title>activity_tracking:w&#45;&gt;package_group:e</title>
<path fill="none" stroke="#000000" d="M258.5182,-1122.1814C237.6375,-1118.875 227.2825,-1107.3526 214,-1085.2 185.6224,-1037.8718 228.6838,-590.2 173.5,-590.2"/>
<polygon fill="#000000" stroke="#000000" points="265.0197,-1122.6387 272.7474,-1126.7911 269.0099,-1122.9193 273,-1123.2 273,-1123.2 273,-1123.2 269.0099,-1122.9193 273.2526,-1119.6089 265.0197,-1122.6387 265.0197,-1122.6387"/>
<ellipse fill="none" stroke="#000000" cx="261.8276" cy="-1122.4141" rx="3.2" ry="3.2"/>
</g>
<!-- build -->
<g id="node3" class="node">
<title>build</title>
<g id="a_node3"><a xlink:href="../../tables/build.html" xlink:title="build" target="_top">
<polygon fill="#ffffff" stroke="transparent" points="305.5,-1013.7 305.5,-1074.7 372.5,-1074.7 372.5,-1013.7 305.5,-1013.7"/>
<polygon fill="#f5f5f5" stroke="transparent" points="306,-1051.2 306,-1074.2 373,-1074.2 373,-1051.2 306,-1051.2"/>
<polygon fill="none" stroke="#000000" points="306,-1051.2 306,-1074.2 373,-1074.2 373,-1051.2 306,-1051.2"/>
<text text-anchor="start" x="311" y="-1059.8" font-family="Helvetica,sans-Serif" font-weight="bold" font-size="11.00" fill="#000000">build</text>
<text text-anchor="start" x="338.5219" y="-1059.3" font-family="Helvetica,sans-Serif" font-size="11.00" fill="#000000">[table]</text>
<polygon fill="none" stroke="#000000" points="306,-1032.2 306,-1051.2 373,-1051.2 373,-1032.2 306,-1032.2"/>
<text text-anchor="start" x="309" y="-1038.3" font-family="Helvetica,sans-Serif" font-size="11.00" fill="#000000">...</text>
<polygon fill="#ffffff" stroke="transparent" points="306,-1013.2 306,-1032.2 333,-1032.2 333,-1013.2 306,-1013.2"/>
<polygon fill="none" stroke="#000000" points="306,-1013.2 306,-1032.2 333,-1032.2 333,-1013.2 306,-1013.2"/>
<text text-anchor="start" x="309" y="-1019.3" font-family="Helvetica,sans-Serif" font-size="11.00" fill="#000000">&lt; 1</text>
<polygon fill="#ffffff" stroke="transparent" points="333,-1013.2 333,-1032.2 348,-1032.2 348,-1013.2 333,-1013.2"/>
<polygon fill="none" stroke="#000000" points="333,-1013.2 333,-1032.2 348,-1032.2 348,-1013.2 333,-1013.2"/>
<text text-anchor="start" x="338.8862" y="-1019.3" font-family="Helvetica,sans-Serif" font-size="11.00" fill="#000000"> &#160;</text>
<polygon fill="#ffffff" stroke="transparent" points="348,-1013.2 348,-1032.2 373,-1032.2 373,-1013.2 348,-1013.2"/>
<polygon fill="none" stroke="#000000" points="348,-1013.2 348,-1032.2 373,-1032.2 373,-1013.2 348,-1013.2"/>
<text text-anchor="start" x="354.4053" y="-1019.3" font-family="Helvetica,sans-Serif" font-size="11.00" fill="#000000">5 &gt;</text>
</a>
</g>
</g>
<!-- build&#45;&gt;package_group -->
<g id="edge2" class="edge">
<title>build:w&#45;&gt;package_group:e</title>
<path fill="none" stroke="#000000" d="M291.3434,-1041.0489C256.6774,-1040.1662 237.2742,-1034.5627 214,-1003.2 159.0445,-929.1456 265.718,-590.2 173.5,-590.2"/>
<polygon fill="#000000" stroke="#000000" points="298.0004,-1041.1175 305.9629,-1044.7998 302.0002,-1041.1587 306,-1041.2 306,-1041.2 306,-1041.2 302.0002,-1041.1587 306.0371,-1037.6002 298.0004,-1041.1175 298.0004,-1041.1175"/>
<ellipse fill="none" stroke="#000000" cx="294.8006" cy="-1041.0844" rx="3.2" ry="3.2"/>
</g>
<!-- favorite_packages -->
<g id="node4" class="node">
<title>favorite_packages</title>
<g id="a_node4"><a xlink:href="../../tables/favorite_packages.html" xlink:title="favorite_packages" target="_top">
<polygon fill="#ffffff" stroke="transparent" points="267.5,-931.7 267.5,-992.7 410.5,-992.7 410.5,-931.7 267.5,-931.7"/>
<polygon fill="#f5f5f5" stroke="transparent" points="268,-969.2 268,-992.2 411,-992.2 411,-969.2 268,-969.2"/>
<polygon fill="none" stroke="#000000" points="268,-969.2 268,-992.2 411,-992.2 411,-969.2 268,-969.2"/>
<text text-anchor="start" x="273" y="-977.8" font-family="Helvetica,sans-Serif" font-weight="bold" font-size="11.00" fill="#000000">favorite_packages</text>
<text text-anchor="start" x="376.5219" y="-977.3" font-family="Helvetica,sans-Serif" font-size="11.00" fill="#000000">[table]</text>
<polygon fill="none" stroke="#000000" points="268,-950.2 268,-969.2 411,-969.2 411,-950.2 268,-950.2"/>
<text text-anchor="start" x="271" y="-956.3" font-family="Helvetica,sans-Serif" font-size="11.00" fill="#000000">...</text>
<polygon fill="#ffffff" stroke="transparent" points="268,-931.2 268,-950.2 338,-950.2 338,-931.2 268,-931.2"/>
<polygon fill="none" stroke="#000000" points="268,-931.2 268,-950.2 338,-950.2 338,-931.2 268,-931.2"/>
<text text-anchor="start" x="271" y="-937.3" font-family="Helvetica,sans-Serif" font-size="11.00" fill="#000000">&lt; 2</text>
<polygon fill="#ffffff" stroke="transparent" points="338,-931.2 338,-950.2 374,-950.2 374,-931.2 338,-931.2"/>
<polygon fill="none" stroke="#000000" points="338,-931.2 338,-950.2 374,-950.2 374,-931.2 338,-931.2"/>
<text text-anchor="start" x="364.8862" y="-937.3" font-family="Helvetica,sans-Serif" font-size="11.00" fill="#000000"> &#160;</text>
<polygon fill="#ffffff" stroke="transparent" points="374,-931.2 374,-950.2 411,-950.2 411,-931.2 374,-931.2"/>
<polygon fill="none" stroke="#000000" points="374,-931.2 374,-950.2 411,-950.2 411,-931.2 374,-931.2"/>
<text text-anchor="start" x="401.8862" y="-937.3" font-family="Helvetica,sans-Serif" font-size="11.00" fill="#000000"> &#160;</text>
</a>
</g>
</g>
<!-- favorite_packages&#45;&gt;package_group -->
<g id="edge3" class="edge">
<title>favorite_packages:w&#45;&gt;package_group:e</title>
<path fill="none" stroke="#000000" d="M253.4113,-957.8506C234.8696,-953.9567 226.2525,-941.6555 214,-921.2 175.9214,-857.6277 247.6041,-590.2 173.5,-590.2"/>
<polygon fill="#000000" stroke="#000000" points="260.034,-958.4631 267.6684,-962.7847 264.017,-958.8316 268,-959.2 268,-959.2 268,-959.2 264.017,-958.8316 268.3316,-955.6153 260.034,-958.4631 260.034,-958.4631"/>
<ellipse fill="none" stroke="#000000" cx="256.8476" cy="-958.1684" rx="3.2" ry="3.2"/>
</g>
<!-- migrated_version -->
<g id="node5" class="node">
<title>migrated_version</title>
<g id="a_node5"><a xlink:href="../../tables/migrated_version.html" xlink:title="migrated_version" target="_top">
<polygon fill="#ffffff" stroke="transparent" points="269.5,-849.7 269.5,-910.7 408.5,-910.7 408.5,-849.7 269.5,-849.7"/>
<polygon fill="#f5f5f5" stroke="transparent" points="270,-887.2 270,-910.2 409,-910.2 409,-887.2 270,-887.2"/>
<polygon fill="none" stroke="#000000" points="270,-887.2 270,-910.2 409,-910.2 409,-887.2 270,-887.2"/>
<text text-anchor="start" x="275" y="-895.8" font-family="Helvetica,sans-Serif" font-weight="bold" font-size="11.00" fill="#000000">migrated_version</text>
<text text-anchor="start" x="374.5219" y="-895.3" font-family="Helvetica,sans-Serif" font-size="11.00" fill="#000000">[table]</text>
<polygon fill="none" stroke="#000000" points="270,-868.2 270,-887.2 409,-887.2 409,-868.2 270,-868.2"/>
<text text-anchor="start" x="273" y="-874.3" font-family="Helvetica,sans-Serif" font-size="11.00" fill="#000000">...</text>
<polygon fill="#ffffff" stroke="transparent" points="270,-849.2 270,-868.2 338,-868.2 338,-849.2 270,-849.2"/>
<polygon fill="none" stroke="#000000" points="270,-849.2 270,-868.2 338,-868.2 338,-849.2 270,-849.2"/>
<text text-anchor="start" x="273" y="-855.3" font-family="Helvetica,sans-Serif" font-size="11.00" fill="#000000">&lt; 1</text>
<polygon fill="#ffffff" stroke="transparent" points="338,-849.2 338,-868.2 373,-868.2 373,-849.2 338,-849.2"/>
<polygon fill="none" stroke="#000000" points="338,-849.2 338,-868.2 373,-868.2 373,-849.2 338,-849.2"/>
<text text-anchor="start" x="363.8862" y="-855.3" font-family="Helvetica,sans-Serif" font-size="11.00" fill="#000000"> &#160;</text>
<polygon fill="#ffffff" stroke="transparent" points="373,-849.2 373,-868.2 409,-868.2 409,-849.2 373,-849.2"/>
<polygon fill="none" stroke="#000000" points="373,-849.2 373,-868.2 409,-868.2 409,-849.2 373,-849.2"/>
<text text-anchor="start" x="399.8862" y="-855.3" font-family="Helvetica,sans-Serif" font-size="11.00" fill="#000000"> &#160;</text>
</a>
</g>
</g>
<!-- migrated_version&#45;&gt;package_group -->
<g id="edge4" class="edge">
<title>migrated_version:w&#45;&gt;package_group:e</title>
<path fill="none" stroke="#000000" d="M255.6004,-875.9749C236.2126,-872.2458 227.2713,-860.0003 214,-839.2 183.8463,-791.9397 229.5605,-590.2 173.5,-590.2"/>
<polygon fill="#000000" stroke="#000000" points="262.0288,-876.5218 269.6948,-880.787 266.0144,-876.8609 270,-877.2 270,-877.2 270,-877.2 266.0144,-876.8609 270.3052,-873.613 262.0288,-876.5218 262.0288,-876.5218"/>
<ellipse fill="none" stroke="#000000" cx="258.8403" cy="-876.2505" rx="3.2" ry="3.2"/>
</g>
<!-- operation_open_count -->
<g id="node6" class="node">
<title>operation_open_count</title>
<g id="a_node6"><a xlink:href="../../tables/operation_open_count.html" xlink:title="operation_open_count" target="_top">
<polygon fill="#ffffff" stroke="transparent" points="255,-767.7 255,-828.7 423,-828.7 423,-767.7 255,-767.7"/>
<polygon fill="#f5f5f5" stroke="transparent" points="255,-805.2 255,-828.2 423,-828.2 423,-805.2 255,-805.2"/>
<polygon fill="none" stroke="#000000" points="255,-805.2 255,-828.2 423,-828.2 423,-805.2 255,-805.2"/>
<text text-anchor="start" x="260" y="-813.8" font-family="Helvetica,sans-Serif" font-weight="bold" font-size="11.00" fill="#000000">operation_open_count</text>
<text text-anchor="start" x="388.5219" y="-813.3" font-family="Helvetica,sans-Serif" font-size="11.00" fill="#000000">[table]</text>
<polygon fill="none" stroke="#000000" points="255,-786.2 255,-805.2 423,-805.2 423,-786.2 255,-786.2"/>
<text text-anchor="start" x="258" y="-792.3" font-family="Helvetica,sans-Serif" font-size="11.00" fill="#000000">...</text>
<polygon fill="#ffffff" stroke="transparent" points="255,-767.2 255,-786.2 337,-786.2 337,-767.2 255,-767.2"/>
<polygon fill="none" stroke="#000000" points="255,-767.2 255,-786.2 337,-786.2 337,-767.2 255,-767.2"/>
<text text-anchor="start" x="258" y="-773.3" font-family="Helvetica,sans-Serif" font-size="11.00" fill="#000000">&lt; 1</text>
<polygon fill="#ffffff" stroke="transparent" points="337,-767.2 337,-786.2 380,-786.2 380,-767.2 337,-767.2"/>
<polygon fill="none" stroke="#000000" points="337,-767.2 337,-786.2 380,-786.2 380,-767.2 337,-767.2"/>
<text text-anchor="start" x="370.8862" y="-773.3" font-family="Helvetica,sans-Serif" font-size="11.00" fill="#000000"> &#160;</text>
<polygon fill="#ffffff" stroke="transparent" points="380,-767.2 380,-786.2 423,-786.2 423,-767.2 380,-767.2"/>
<polygon fill="none" stroke="#000000" points="380,-767.2 380,-786.2 423,-786.2 423,-767.2 380,-767.2"/>
<text text-anchor="start" x="413.8862" y="-773.3" font-family="Helvetica,sans-Serif" font-size="11.00" fill="#000000"> &#160;</text>
</a>
</g>
</g>
<!-- operation_open_count&#45;&gt;package_group -->
<g id="edge5" class="edge">
<title>operation_open_count:w&#45;&gt;package_group:e</title>
<path fill="none" stroke="#000000" d="M240.6454,-792.6199C227.9822,-787.1653 223.6268,-773.6063 214,-757.2 175.3485,-691.3289 249.8737,-590.2 173.5,-590.2"/>
<polygon fill="#000000" stroke="#000000" points="247.1262,-793.7847 254.3631,-798.7432 251.0631,-794.4924 255,-795.2 255,-795.2 255,-795.2 251.0631,-794.4924 255.6369,-791.6568 247.1262,-793.7847 247.1262,-793.7847"/>
<ellipse fill="none" stroke="#000000" cx="243.9766" cy="-793.2186" rx="3.2" ry="3.2"/>
</g>
<!-- package_export_config -->
<g id="node7" class="node">
<title>package_export_config</title>
<g id="a_node7"><a xlink:href="../../tables/package_export_config.html" xlink:title="package_export_config" target="_top">
<polygon fill="#ffffff" stroke="transparent" points="252.5,-685.7 252.5,-746.7 425.5,-746.7 425.5,-685.7 252.5,-685.7"/>
<polygon fill="#f5f5f5" stroke="transparent" points="253,-723.2 253,-746.2 426,-746.2 426,-723.2 253,-723.2"/>
<polygon fill="none" stroke="#000000" points="253,-723.2 253,-746.2 426,-746.2 426,-723.2 253,-723.2"/>
<text text-anchor="start" x="258" y="-731.8" font-family="Helvetica,sans-Serif" font-weight="bold" font-size="11.00" fill="#000000">package_export_config</text>
<text text-anchor="start" x="391.5219" y="-731.3" font-family="Helvetica,sans-Serif" font-size="11.00" fill="#000000">[table]</text>
<polygon fill="none" stroke="#000000" points="253,-704.2 253,-723.2 426,-723.2 426,-704.2 253,-704.2"/>
<text text-anchor="start" x="256" y="-710.3" font-family="Helvetica,sans-Serif" font-size="11.00" fill="#000000">...</text>
<polygon fill="#ffffff" stroke="transparent" points="253,-685.2 253,-704.2 338,-704.2 338,-685.2 253,-685.2"/>
<polygon fill="none" stroke="#000000" points="253,-685.2 253,-704.2 338,-704.2 338,-685.2 253,-685.2"/>
<text text-anchor="start" x="256" y="-691.3" font-family="Helvetica,sans-Serif" font-size="11.00" fill="#000000">&lt; 1</text>
<polygon fill="#ffffff" stroke="transparent" points="338,-685.2 338,-704.2 382,-704.2 382,-685.2 338,-685.2"/>
<polygon fill="none" stroke="#000000" points="338,-685.2 338,-704.2 382,-704.2 382,-685.2 338,-685.2"/>
<text text-anchor="start" x="372.8862" y="-691.3" font-family="Helvetica,sans-Serif" font-size="11.00" fill="#000000"> &#160;</text>
<polygon fill="#ffffff" stroke="transparent" points="382,-685.2 382,-704.2 426,-704.2 426,-685.2 382,-685.2"/>
<polygon fill="none" stroke="#000000" points="382,-685.2 382,-704.2 426,-704.2 426,-685.2 382,-685.2"/>
<text text-anchor="start" x="416.8862" y="-691.3" font-family="Helvetica,sans-Serif" font-size="11.00" fill="#000000"> &#160;</text>
</a>
</g>
</g>
<!-- package_export_config&#45;&gt;package_group -->
<g id="edge6" class="edge">
<title>package_export_config:w&#45;&gt;package_group:e</title>
<path fill="none" stroke="#000000" d="M242.4162,-711.6622C228.1605,-706.861 225.6694,-691.4935 214,-675.2 189.6339,-641.1786 215.3469,-590.2 173.5,-590.2"/>
<polygon fill="#000000" stroke="#000000" points="252.7835,-709.1265 251.6331,-717.0434 250.0497,-716.8133 251.2001,-708.8965 252.7835,-709.1265"/>
<polyline fill="none" stroke="#000000" points="253,-713.2 249.0416,-712.6248 "/>
<ellipse fill="none" stroke="#000000" cx="245.8748" cy="-712.1647" rx="3.2" ry="3.2"/>
</g>
<!-- package_member_role -->
<g id="node8" class="node">
<title>package_member_role</title>
<g id="a_node8"><a xlink:href="../../tables/package_member_role.html" xlink:title="package_member_role" target="_top">
<polygon fill="#ffffff" stroke="transparent" points="254.5,-603.7 254.5,-664.7 423.5,-664.7 423.5,-603.7 254.5,-603.7"/>
<polygon fill="#f5f5f5" stroke="transparent" points="255,-641.2 255,-664.2 424,-664.2 424,-641.2 255,-641.2"/>
<polygon fill="none" stroke="#000000" points="255,-641.2 255,-664.2 424,-664.2 424,-641.2 255,-641.2"/>
<text text-anchor="start" x="260" y="-649.8" font-family="Helvetica,sans-Serif" font-weight="bold" font-size="11.00" fill="#000000">package_member_role</text>
<text text-anchor="start" x="389.5219" y="-649.3" font-family="Helvetica,sans-Serif" font-size="11.00" fill="#000000">[table]</text>
<polygon fill="none" stroke="#000000" points="255,-622.2 255,-641.2 424,-641.2 424,-622.2 255,-622.2"/>
<text text-anchor="start" x="258" y="-628.3" font-family="Helvetica,sans-Serif" font-size="11.00" fill="#000000">...</text>
<polygon fill="#ffffff" stroke="transparent" points="255,-603.2 255,-622.2 338,-622.2 338,-603.2 255,-603.2"/>
<polygon fill="none" stroke="#000000" points="255,-603.2 255,-622.2 338,-622.2 338,-603.2 255,-603.2"/>
<text text-anchor="start" x="258" y="-609.3" font-family="Helvetica,sans-Serif" font-size="11.00" fill="#000000">&lt; 1</text>
<polygon fill="#ffffff" stroke="transparent" points="338,-603.2 338,-622.2 381,-622.2 381,-603.2 338,-603.2"/>
<polygon fill="none" stroke="#000000" points="338,-603.2 338,-622.2 381,-622.2 381,-603.2 338,-603.2"/>
<text text-anchor="start" x="371.8862" y="-609.3" font-family="Helvetica,sans-Serif" font-size="11.00" fill="#000000"> &#160;</text>
<polygon fill="#ffffff" stroke="transparent" points="381,-603.2 381,-622.2 424,-622.2 424,-603.2 381,-603.2"/>
<polygon fill="none" stroke="#000000" points="381,-603.2 381,-622.2 424,-622.2 424,-603.2 381,-603.2"/>
<text text-anchor="start" x="414.8862" y="-609.3" font-family="Helvetica,sans-Serif" font-size="11.00" fill="#000000"> &#160;</text>
</a>
</g>
</g>
<!-- package_member_role&#45;&gt;package_group -->
<g id="edge7" class="edge">
<title>package_member_role:w&#45;&gt;package_group:e</title>
<path fill="none" stroke="#000000" d="M240.4151,-629.1104C213.5914,-620.7554 208.5039,-590.2 173.5,-590.2"/>
<polygon fill="#000000" stroke="#000000" points="247.0809,-630.0654 254.4894,-634.7636 251.0404,-630.6327 255,-631.2 255,-631.2 255,-631.2 251.0404,-630.6327 255.5106,-627.6364 247.0809,-630.0654 247.0809,-630.0654"/>
<ellipse fill="none" stroke="#000000" cx="243.9132" cy="-629.6115" rx="3.2" ry="3.2"/>
</g>
<!-- package_service -->
<g id="node9" class="node">
<title>package_service</title>
<g id="a_node9"><a xlink:href="../../tables/package_service.html" xlink:title="package_service" target="_top">
<polygon fill="#ffffff" stroke="transparent" points="271.5,-521.7 271.5,-582.7 406.5,-582.7 406.5,-521.7 271.5,-521.7"/>
<polygon fill="#f5f5f5" stroke="transparent" points="272,-559.2 272,-582.2 407,-582.2 407,-559.2 272,-559.2"/>
<polygon fill="none" stroke="#000000" points="272,-559.2 272,-582.2 407,-582.2 407,-559.2 272,-559.2"/>
<text text-anchor="start" x="277" y="-567.8" font-family="Helvetica,sans-Serif" font-weight="bold" font-size="11.00" fill="#000000">package_service</text>
<text text-anchor="start" x="372.5219" y="-567.3" font-family="Helvetica,sans-Serif" font-size="11.00" fill="#000000">[table]</text>
<polygon fill="none" stroke="#000000" points="272,-540.2 272,-559.2 407,-559.2 407,-540.2 272,-540.2"/>
<text text-anchor="start" x="275" y="-546.3" font-family="Helvetica,sans-Serif" font-size="11.00" fill="#000000">...</text>
<polygon fill="#ffffff" stroke="transparent" points="272,-521.2 272,-540.2 338,-540.2 338,-521.2 272,-521.2"/>
<polygon fill="none" stroke="#000000" points="272,-521.2 272,-540.2 338,-540.2 338,-521.2 272,-521.2"/>
<text text-anchor="start" x="275" y="-527.3" font-family="Helvetica,sans-Serif" font-size="11.00" fill="#000000">&lt; 2</text>
<polygon fill="#ffffff" stroke="transparent" points="338,-521.2 338,-540.2 372,-540.2 372,-521.2 338,-521.2"/>
<polygon fill="none" stroke="#000000" points="338,-521.2 338,-540.2 372,-540.2 372,-521.2 338,-521.2"/>
<text text-anchor="start" x="362.8862" y="-527.3" font-family="Helvetica,sans-Serif" font-size="11.00" fill="#000000"> &#160;</text>
<polygon fill="#ffffff" stroke="transparent" points="372,-521.2 372,-540.2 407,-540.2 407,-521.2 372,-521.2"/>
<polygon fill="none" stroke="#000000" points="372,-521.2 372,-540.2 407,-540.2 407,-521.2 372,-521.2"/>
<text text-anchor="start" x="397.8862" y="-527.3" font-family="Helvetica,sans-Serif" font-size="11.00" fill="#000000"> &#160;</text>
</a>
</g>
</g>
<!-- package_service&#45;&gt;package_group -->
<g id="edge8" class="edge">
<title>package_service:w&#45;&gt;package_group:e</title>
<path fill="none" stroke="#000000" d="M257.4423,-548.8511C223.1899,-552.0399 215.5471,-584.8797 173.5,-590.2"/>
<polygon fill="#000000" stroke="#000000" points="264.0023,-549.0083 271.9137,-552.799 268.0011,-549.1041 272,-549.2 272,-549.2 272,-549.2 268.0011,-549.1041 272.0863,-545.601 264.0023,-549.0083 264.0023,-549.0083"/>
<ellipse fill="none" stroke="#000000" cx="260.8032" cy="-548.9316" rx="3.2" ry="3.2"/>
</g>
<!-- package_service&#45;&gt;package_group -->
<g id="edge9" class="edge">
<title>package_service:w&#45;&gt;package_group:e</title>
<path fill="none" stroke="#000000" d="M257.8966,-552.6098C223.2566,-564.5945 215.7324,-596.4344 173.5,-590.2"/>
<polygon fill="#000000" stroke="#000000" points="264.224,-551.08 272.846,-552.6992 268.112,-550.14 272,-549.2 272,-549.2 272,-549.2 268.112,-550.14 271.154,-545.7008 264.224,-551.08 264.224,-551.08"/>
<ellipse fill="none" stroke="#000000" cx="261.1136" cy="-551.8321" rx="3.2" ry="3.2"/>
</g>
<!-- published_data -->
<g id="node10" class="node">
<title>published_data</title>
<g id="a_node10"><a xlink:href="../../tables/published_data.html" xlink:title="published_data" target="_top">
<polygon fill="#ffffff" stroke="transparent" points="275.5,-439.7 275.5,-500.7 402.5,-500.7 402.5,-439.7 275.5,-439.7"/>
<polygon fill="#f5f5f5" stroke="transparent" points="276,-477.2 276,-500.2 403,-500.2 403,-477.2 276,-477.2"/>
<polygon fill="none" stroke="#000000" points="276,-477.2 276,-500.2 403,-500.2 403,-477.2 276,-477.2"/>
<text text-anchor="start" x="281" y="-485.8" font-family="Helvetica,sans-Serif" font-weight="bold" font-size="11.00" fill="#000000">published_data</text>
<text text-anchor="start" x="368.5219" y="-485.3" font-family="Helvetica,sans-Serif" font-size="11.00" fill="#000000">[table]</text>
<polygon fill="none" stroke="#000000" points="276,-458.2 276,-477.2 403,-477.2 403,-458.2 276,-458.2"/>
<text text-anchor="start" x="279" y="-464.3" font-family="Helvetica,sans-Serif" font-size="11.00" fill="#000000">...</text>
<polygon fill="#ffffff" stroke="transparent" points="276,-439.2 276,-458.2 333,-458.2 333,-439.2 276,-439.2"/>
<polygon fill="none" stroke="#000000" points="276,-439.2 276,-458.2 333,-458.2 333,-439.2 276,-439.2"/>
<text text-anchor="start" x="279" y="-445.3" font-family="Helvetica,sans-Serif" font-size="11.00" fill="#000000">&lt; 1</text>
<polygon fill="#ffffff" stroke="transparent" points="333,-439.2 333,-458.2 363,-458.2 363,-439.2 333,-439.2"/>
<polygon fill="none" stroke="#000000" points="333,-439.2 333,-458.2 363,-458.2 363,-439.2 333,-439.2"/>
<text text-anchor="start" x="353.8862" y="-445.3" font-family="Helvetica,sans-Serif" font-size="11.00" fill="#000000"> &#160;</text>
<polygon fill="#ffffff" stroke="transparent" points="363,-439.2 363,-458.2 403,-458.2 403,-439.2 363,-439.2"/>
<polygon fill="none" stroke="#000000" points="363,-439.2 363,-458.2 403,-458.2 403,-439.2 363,-439.2"/>
<text text-anchor="start" x="384.4053" y="-445.3" font-family="Helvetica,sans-Serif" font-size="11.00" fill="#000000">2 &gt;</text>
</a>
</g>
</g>
<!-- published_data&#45;&gt;package_group -->
<g id="edge10" class="edge">
<title>published_data:w&#45;&gt;package_group:e</title>
<path fill="none" stroke="#000000" d="M261.4127,-468.6401C239.7803,-473.4467 232.49,-489.847 214,-511.2 188.1717,-541.0276 212.9562,-590.2 173.5,-590.2"/>
<polygon fill="#000000" stroke="#000000" points="268.0387,-467.986 276.3537,-470.7826 272.0194,-467.593 276,-467.2 276,-467.2 276,-467.2 272.0194,-467.593 275.6463,-463.6174 268.0387,-467.986 268.0387,-467.986"/>
<ellipse fill="none" stroke="#000000" cx="264.8542" cy="-468.3004" rx="3.2" ry="3.2"/>
</g>
<!-- published_document_open_count -->
<g id="node11" class="node">
<title>published_document_open_count</title>
<g id="a_node11"><a xlink:href="../../tables/published_document_open_count.html" xlink:title="published_document_open_count" target="_top">
<polygon fill="#ffffff" stroke="transparent" points="222,-357.7 222,-418.7 456,-418.7 456,-357.7 222,-357.7"/>
<polygon fill="#f5f5f5" stroke="transparent" points="222,-395.2 222,-418.2 456,-418.2 456,-395.2 222,-395.2"/>
<polygon fill="none" stroke="#000000" points="222,-395.2 222,-418.2 456,-418.2 456,-395.2 222,-395.2"/>
<text text-anchor="start" x="227" y="-403.8" font-family="Helvetica,sans-Serif" font-weight="bold" font-size="11.00" fill="#000000">published_document_open_count</text>
<text text-anchor="start" x="421.5219" y="-403.3" font-family="Helvetica,sans-Serif" font-size="11.00" fill="#000000">[table]</text>
<polygon fill="none" stroke="#000000" points="222,-376.2 222,-395.2 456,-395.2 456,-376.2 222,-376.2"/>
<text text-anchor="start" x="225" y="-382.3" font-family="Helvetica,sans-Serif" font-size="11.00" fill="#000000">...</text>
<polygon fill="#ffffff" stroke="transparent" points="222,-357.2 222,-376.2 337,-376.2 337,-357.2 222,-357.2"/>
<polygon fill="none" stroke="#000000" points="222,-357.2 222,-376.2 337,-376.2 337,-357.2 222,-357.2"/>
<text text-anchor="start" x="225" y="-363.3" font-family="Helvetica,sans-Serif" font-size="11.00" fill="#000000">&lt; 1</text>
<polygon fill="#ffffff" stroke="transparent" points="337,-357.2 337,-376.2 396,-376.2 396,-357.2 337,-357.2"/>
<polygon fill="none" stroke="#000000" points="337,-357.2 337,-376.2 396,-376.2 396,-357.2 337,-357.2"/>
<text text-anchor="start" x="386.8862" y="-363.3" font-family="Helvetica,sans-Serif" font-size="11.00" fill="#000000"> &#160;</text>
<polygon fill="#ffffff" stroke="transparent" points="396,-357.2 396,-376.2 456,-376.2 456,-357.2 396,-357.2"/>
<polygon fill="none" stroke="#000000" points="396,-357.2 396,-376.2 456,-376.2 456,-357.2 396,-357.2"/>
<text text-anchor="start" x="446.8862" y="-363.3" font-family="Helvetica,sans-Serif" font-size="11.00" fill="#000000"> &#160;</text>
</a>
</g>
</g>
<!-- published_document_open_count&#45;&gt;package_group -->
<g id="edge11" class="edge">
<title>published_document_open_count:w&#45;&gt;package_group:e</title>
<path fill="none" stroke="#000000" d="M207.4462,-387.3635C144.3239,-409.2727 261.4575,-590.2 173.5,-590.2"/>
<polygon fill="#000000" stroke="#000000" points="214.087,-386.3764 222.5294,-388.7609 218.0435,-385.7882 222,-385.2 222,-385.2 222,-385.2 218.0435,-385.7882 221.4706,-381.6391 214.087,-386.3764 214.087,-386.3764"/>
<ellipse fill="none" stroke="#000000" cx="210.9217" cy="-386.8469" rx="3.2" ry="3.2"/>
</g>
<!-- published_version -->
<g id="node12" class="node">
<title>published_version</title>
<g id="a_node12"><a xlink:href="../../tables/published_version.html" xlink:title="published_version" target="_top">
<polygon fill="#ffffff" stroke="transparent" points="266.5,-275.7 266.5,-336.7 411.5,-336.7 411.5,-275.7 266.5,-275.7"/>
<polygon fill="#f5f5f5" stroke="transparent" points="267,-313.2 267,-336.2 412,-336.2 412,-313.2 267,-313.2"/>
<polygon fill="none" stroke="#000000" points="267,-313.2 267,-336.2 412,-336.2 412,-313.2 267,-313.2"/>
<text text-anchor="start" x="272" y="-321.8" font-family="Helvetica,sans-Serif" font-weight="bold" font-size="11.00" fill="#000000">published_version</text>
<text text-anchor="start" x="377.5219" y="-321.3" font-family="Helvetica,sans-Serif" font-size="11.00" fill="#000000">[table]</text>
<polygon fill="none" stroke="#000000" points="267,-294.2 267,-313.2 412,-313.2 412,-294.2 267,-294.2"/>
<text text-anchor="start" x="270" y="-300.3" font-family="Helvetica,sans-Serif" font-size="11.00" fill="#000000">...</text>
<polygon fill="#ffffff" stroke="transparent" points="267,-275.2 267,-294.2 330,-294.2 330,-275.2 267,-275.2"/>
<polygon fill="none" stroke="#000000" points="267,-275.2 267,-294.2 330,-294.2 330,-275.2 267,-275.2"/>
<text text-anchor="start" x="270" y="-281.3" font-family="Helvetica,sans-Serif" font-size="11.00" fill="#000000">&lt; 1</text>
<polygon fill="#ffffff" stroke="transparent" points="330,-275.2 330,-294.2 363,-294.2 363,-275.2 330,-275.2"/>
<polygon fill="none" stroke="#000000" points="330,-275.2 330,-294.2 363,-294.2 363,-275.2 330,-275.2"/>
<text text-anchor="start" x="353.8862" y="-281.3" font-family="Helvetica,sans-Serif" font-size="11.00" fill="#000000"> &#160;</text>
<polygon fill="#ffffff" stroke="transparent" points="363,-275.2 363,-294.2 412,-294.2 412,-275.2 363,-275.2"/>
<polygon fill="none" stroke="#000000" points="363,-275.2 363,-294.2 412,-294.2 412,-275.2 363,-275.2"/>
<text text-anchor="start" x="387.2904" y="-281.3" font-family="Helvetica,sans-Serif" font-size="11.00" fill="#000000">18 &gt;</text>
</a>
</g>
</g>
<!-- published_version&#45;&gt;package_group -->
<g id="edge12" class="edge">
<title>published_version:w&#45;&gt;package_group:e</title>
<path fill="none" stroke="#000000" d="M252.5878,-304.8422C233.5596,-309.7664 226.512,-325.4248 214,-347.2 186.7256,-394.6669 228.2449,-590.2 173.5,-590.2"/>
<polygon fill="#000000" stroke="#000000" points="259.0514,-304.1058 267.4076,-306.7769 263.0257,-303.6529 267,-303.2 267,-303.2 267,-303.2 263.0257,-303.6529 266.5924,-299.6231 259.0514,-304.1058 259.0514,-304.1058"/>
<ellipse fill="none" stroke="#000000" cx="255.872" cy="-304.4681" rx="3.2" ry="3.2"/>
</g>
<!-- published_version_open_count -->
<g id="node13" class="node">
<title>published_version_open_count</title>
<g id="a_node13"><a xlink:href="../../tables/published_version_open_count.html" xlink:title="published_version_open_count" target="_top">
<polygon fill="#ffffff" stroke="transparent" points="229.5,-193.7 229.5,-254.7 448.5,-254.7 448.5,-193.7 229.5,-193.7"/>
<polygon fill="#f5f5f5" stroke="transparent" points="230,-231.2 230,-254.2 449,-254.2 449,-231.2 230,-231.2"/>
<polygon fill="none" stroke="#000000" points="230,-231.2 230,-254.2 449,-254.2 449,-231.2 230,-231.2"/>
<text text-anchor="start" x="235" y="-239.8" font-family="Helvetica,sans-Serif" font-weight="bold" font-size="11.00" fill="#000000">published_version_open_count</text>
<text text-anchor="start" x="414.5219" y="-239.3" font-family="Helvetica,sans-Serif" font-size="11.00" fill="#000000">[table]</text>
<polygon fill="none" stroke="#000000" points="230,-212.2 230,-231.2 449,-231.2 449,-212.2 230,-212.2"/>
<text text-anchor="start" x="233" y="-218.3" font-family="Helvetica,sans-Serif" font-size="11.00" fill="#000000">...</text>
<polygon fill="#ffffff" stroke="transparent" points="230,-193.2 230,-212.2 338,-212.2 338,-193.2 230,-193.2"/>
<polygon fill="none" stroke="#000000" points="230,-193.2 230,-212.2 338,-212.2 338,-193.2 230,-193.2"/>
<text text-anchor="start" x="233" y="-199.3" font-family="Helvetica,sans-Serif" font-size="11.00" fill="#000000">&lt; 1</text>
<polygon fill="#ffffff" stroke="transparent" points="338,-193.2 338,-212.2 393,-212.2 393,-193.2 338,-193.2"/>
<polygon fill="none" stroke="#000000" points="338,-193.2 338,-212.2 393,-212.2 393,-193.2 338,-193.2"/>
<text text-anchor="start" x="383.8862" y="-199.3" font-family="Helvetica,sans-Serif" font-size="11.00" fill="#000000"> &#160;</text>
<polygon fill="#ffffff" stroke="transparent" points="393,-193.2 393,-212.2 449,-212.2 449,-193.2 393,-193.2"/>
<polygon fill="none" stroke="#000000" points="393,-193.2 393,-212.2 449,-212.2 449,-193.2 393,-193.2"/>
<text text-anchor="start" x="439.8862" y="-199.3" font-family="Helvetica,sans-Serif" font-size="11.00" fill="#000000"> &#160;</text>
</a>
</g>
</g>
<!-- published_version_open_count&#45;&gt;package_group -->
<g id="edge13" class="edge">
<title>published_version_open_count:w&#45;&gt;package_group:e</title>
<path fill="none" stroke="#000000" d="M216.2541,-225.6011C160.349,-267.2335 251.1089,-590.2 173.5,-590.2"/>
<polygon fill="#000000" stroke="#000000" points="222.381,-223.6395 231.0978,-224.6286 226.1905,-222.4197 230,-221.2 230,-221.2 230,-221.2 226.1905,-222.4197 228.9022,-217.7714 222.381,-223.6395 222.381,-223.6395"/>
<ellipse fill="none" stroke="#000000" cx="219.3334" cy="-224.6152" rx="3.2" ry="3.2"/>
</g>
<!-- shared_url_info -->
<g id="node14" class="node">
<title>shared_url_info</title>
<g id="a_node14"><a xlink:href="../../tables/shared_url_info.html" xlink:title="shared_url_info" target="_top">
<polygon fill="#ffffff" stroke="transparent" points="227,-38.2 227,-172.2 451,-172.2 451,-38.2 227,-38.2"/>
<polygon fill="#f5f5f5" stroke="transparent" points="229,-147.2 229,-170.2 449,-170.2 449,-147.2 229,-147.2"/>
<polygon fill="none" stroke="#000000" points="229,-147.2 229,-170.2 449,-170.2 449,-147.2 229,-147.2"/>
<text text-anchor="start" x="234" y="-155.8" font-family="Helvetica,sans-Serif" font-weight="bold" font-size="11.00" fill="#000000">shared_url_info</text>
<text text-anchor="start" x="414.0437" y="-155.3" font-family="Helvetica,sans-Serif" font-size="11.00" fill="#000000">[table]</text>
<polygon fill="#ffffff" stroke="transparent" points="229,-125.2 229,-147.2 340,-147.2 340,-125.2 229,-125.2"/>
<polygon fill="none" stroke="#000000" points="229,-125.2 229,-147.2 340,-147.2 340,-125.2 229,-125.2"/>
<image xlink:href="../../images/foreignKeys.png" width="11px" height="12px" preserveAspectRatio="xMinYMin meet" x="234" y="-142.2"/>
<text text-anchor="start" x="249" y="-132.3" font-family="Helvetica,sans-Serif" font-size="11.00" fill="#000000">package_id</text>
<polygon fill="none" stroke="#000000" points="340,-125.2 340,-147.2 449,-147.2 449,-125.2 340,-125.2"/>
<text text-anchor="start" x="342.5344" y="-132.9" font-family="Helvetica,sans-Serif" font-size="11.00" fill="#000000">varchar[2147483647]</text>
<polygon fill="#ffffff" stroke="transparent" points="229,-103.2 229,-125.2 340,-125.2 340,-103.2 229,-103.2"/>
<polygon fill="none" stroke="#000000" points="229,-103.2 229,-125.2 340,-125.2 340,-103.2 229,-103.2"/>
<text text-anchor="start" x="249" y="-110.3" font-family="Helvetica,sans-Serif" font-size="11.00" fill="#000000">version</text>
<polygon fill="none" stroke="#000000" points="340,-103.2 340,-125.2 449,-125.2 449,-103.2 340,-103.2"/>
<text text-anchor="start" x="342.5344" y="-110.9" font-family="Helvetica,sans-Serif" font-size="11.00" fill="#000000">varchar[2147483647]</text>
<polygon fill="#ffffff" stroke="transparent" points="229,-81.2 229,-103.2 340,-103.2 340,-81.2 229,-81.2"/>
<polygon fill="none" stroke="#000000" points="229,-81.2 229,-103.2 340,-103.2 340,-81.2 229,-81.2"/>
<text text-anchor="start" x="249" y="-88.3" font-family="Helvetica,sans-Serif" font-size="11.00" fill="#000000">file_id</text>
<polygon fill="none" stroke="#000000" points="340,-81.2 340,-103.2 449,-103.2 449,-81.2 340,-81.2"/>
<text text-anchor="start" x="342.5344" y="-88.9" font-family="Helvetica,sans-Serif" font-size="11.00" fill="#000000">varchar[2147483647]</text>
<polygon fill="none" stroke="#000000" points="229,-59.2 229,-81.2 340,-81.2 340,-59.2 229,-59.2"/>
<image xlink:href="../../images/primaryKeys.png" width="11px" height="12px" preserveAspectRatio="xMinYMin meet" x="234" y="-76.2"/>
<text text-anchor="start" x="249" y="-66.3" font-family="Helvetica,sans-Serif" font-size="11.00" fill="#000000">shared_id</text>
<polygon fill="none" stroke="#000000" points="340,-59.2 340,-81.2 449,-81.2 449,-59.2 340,-59.2"/>
<text text-anchor="start" x="342.5344" y="-66.9" font-family="Helvetica,sans-Serif" font-size="11.00" fill="#000000">varchar[2147483647]</text>
<polygon fill="#ffffff" stroke="transparent" points="229,-40.2 229,-59.2 289,-59.2 289,-40.2 229,-40.2"/>
<polygon fill="none" stroke="#000000" points="229,-40.2 229,-59.2 289,-59.2 289,-40.2 229,-40.2"/>
<text text-anchor="start" x="232" y="-46.3" font-family="Helvetica,sans-Serif" font-size="11.00" fill="#000000">&lt; 1</text>
<polygon fill="#ffffff" stroke="transparent" points="289,-40.2 289,-59.2 340,-59.2 340,-40.2 289,-40.2"/>
<polygon fill="none" stroke="#000000" points="289,-40.2 289,-59.2 340,-59.2 340,-40.2 289,-40.2"/>
<text text-anchor="start" x="330.8862" y="-46.3" font-family="Helvetica,sans-Serif" font-size="11.00" fill="#000000"> &#160;</text>
<polygon fill="#ffffff" stroke="transparent" points="340,-40.2 340,-59.2 449,-59.2 449,-40.2 340,-40.2"/>
<polygon fill="none" stroke="#000000" points="340,-40.2 340,-59.2 449,-59.2 449,-40.2 340,-40.2"/>
<text text-anchor="start" x="430.4053" y="-46.3" font-family="Helvetica,sans-Serif" font-size="11.00" fill="#000000">0 &gt;</text>
<polygon fill="none" stroke="#000000" stroke-width="2" points="228,-39.2 228,-171.2 450,-171.2 450,-39.2 228,-39.2"/>
</a>
</g>
</g>
<!-- shared_url_info&#45;&gt;package_group -->
<g id="edge14" class="edge">
<title>shared_url_info:w&#45;&gt;package_group:e</title>
<path fill="none" stroke="#000000" d="M214.9279,-139.8544C142.2526,-182.8203 269.78,-590.2 173.5,-590.2"/>
<polygon fill="#000000" stroke="#000000" points="221.2568,-138.2109 229.9049,-139.6844 225.1284,-137.2055 229,-136.2 229,-136.2 229,-136.2 225.1284,-137.2055 228.0951,-132.7156 221.2568,-138.2109 221.2568,-138.2109"/>
<ellipse fill="none" stroke="#000000" cx="218.1596" cy="-139.0153" rx="3.2" ry="3.2"/>
</g>
</g>
</svg>
