<?xml version="1.0" encoding="UTF-8" standalone="no"?>
<!DOCTYPE svg PUBLIC "-//W3C//DTD SVG 1.1//EN"
 "http://www.w3.org/Graphics/SVG/1.1/DTD/svg11.dtd">
<!-- Generated by graphviz version 2.40.1 (20161225.0304)
 -->
<!-- Title: oneDegreeRelationshipsDiagram Pages: 1 -->
<svg width="493pt" height="315pt"
 viewBox="0.00 0.00 493.00 314.70" xmlns="http://www.w3.org/2000/svg" xmlns:xlink="http://www.w3.org/1999/xlink">
<g id="graph0" class="graph" transform="scale(1 1) rotate(0) translate(4 310.7)">
<title>oneDegreeRelationshipsDiagram</title>
<polygon fill="#ffffff" stroke="transparent" points="-4,4 -4,-310.7 489,-310.7 489,4 -4,4"/>
<text text-anchor="middle" x="72.4936" y="-7.3" font-family="Helvetica,sans-Serif" font-size="11.00" fill="#000000">Generated by SchemaSpy</text>
<!-- transformed_content_data -->
<g id="node1" class="node">
<title>transformed_content_data</title>
<g id="a_node1"><a xlink:href="../../tables/transformed_content_data.html" xlink:title="transformed_content_data" target="_top">
<polygon fill="#ffffff" stroke="transparent" points="192,-38.2 192,-282.2 477,-282.2 477,-38.2 192,-38.2"/>
<polygon fill="#f5f5f5" stroke="transparent" points="194.5,-257.2 194.5,-280.2 475.5,-280.2 475.5,-257.2 194.5,-257.2"/>
<polygon fill="none" stroke="#000000" points="194.5,-257.2 194.5,-280.2 475.5,-280.2 475.5,-257.2 194.5,-257.2"/>
<text text-anchor="start" x="199.5" y="-265.8" font-family="Helvetica,sans-Serif" font-weight="bold" font-size="11.00" fill="#000000">transformed_content_data</text>
<text text-anchor="start" x="440.5437" y="-265.3" font-family="Helvetica,sans-Serif" font-size="11.00" fill="#000000">[table]</text>
<polygon fill="none" stroke="#000000" points="194.5,-235.2 194.5,-257.2 366.5,-257.2 366.5,-235.2 194.5,-235.2"/>
<image xlink:href="../../images/primaryKeys.png" width="11px" height="12px" preserveAspectRatio="xMinYMin meet" x="199.5" y="-252.2"/>
<text text-anchor="start" x="214.5" y="-242.3" font-family="Helvetica,sans-Serif" font-size="11.00" fill="#000000">package_id</text>
<polygon fill="none" stroke="#000000" points="366.5,-235.2 366.5,-257.2 475.5,-257.2 475.5,-235.2 366.5,-235.2"/>
<text text-anchor="start" x="369.0344" y="-242.9" font-family="Helvetica,sans-Serif" font-size="11.00" fill="#000000">varchar[2147483647]</text>
<polygon fill="none" stroke="#000000" points="194.5,-213.2 194.5,-235.2 366.5,-235.2 366.5,-213.2 194.5,-213.2"/>
<image xlink:href="../../images/primaryKeys.png" width="11px" height="12px" preserveAspectRatio="xMinYMin meet" x="199.5" y="-230.2"/>
<text text-anchor="start" x="214.5" y="-220.3" font-family="Helvetica,sans-Serif" font-size="11.00" fill="#000000">version</text>
<polygon fill="none" stroke="#000000" points="366.5,-213.2 366.5,-235.2 475.5,-235.2 475.5,-213.2 366.5,-213.2"/>
<text text-anchor="start" x="369.0344" y="-220.9" font-family="Helvetica,sans-Serif" font-size="11.00" fill="#000000">varchar[2147483647]</text>
<polygon fill="none" stroke="#000000" points="194.5,-191.2 194.5,-213.2 366.5,-213.2 366.5,-191.2 194.5,-191.2"/>
<image xlink:href="../../images/primaryKeys.png" width="11px" height="12px" preserveAspectRatio="xMinYMin meet" x="199.5" y="-208.2"/>
<text text-anchor="start" x="214.5" y="-198.3" font-family="Helvetica,sans-Serif" font-size="11.00" fill="#000000">revision</text>
<polygon fill="none" stroke="#000000" points="366.5,-191.2 366.5,-213.2 475.5,-213.2 475.5,-191.2 366.5,-191.2"/>
<text text-anchor="start" x="369.5" y="-198.9" font-family="Helvetica,sans-Serif" font-size="11.00" fill="#000000">int4[10]</text>
<polygon fill="none" stroke="#000000" points="194.5,-169.2 194.5,-191.2 366.5,-191.2 366.5,-169.2 194.5,-169.2"/>
<image xlink:href="../../images/primaryKeys.png" width="11px" height="12px" preserveAspectRatio="xMinYMin meet" x="199.5" y="-186.2"/>
<text text-anchor="start" x="214.5" y="-176.3" font-family="Helvetica,sans-Serif" font-size="11.00" fill="#000000">api_type</text>
<polygon fill="none" stroke="#000000" points="366.5,-169.2 366.5,-191.2 475.5,-191.2 475.5,-169.2 366.5,-169.2"/>
<text text-anchor="start" x="369.0344" y="-176.9" font-family="Helvetica,sans-Serif" font-size="11.00" fill="#000000">varchar[2147483647]</text>
<polygon fill="none" stroke="#000000" points="194.5,-147.2 194.5,-169.2 366.5,-169.2 366.5,-147.2 194.5,-147.2"/>
<image xlink:href="../../images/primaryKeys.png" width="11px" height="12px" preserveAspectRatio="xMinYMin meet" x="199.5" y="-164.2"/>
<text text-anchor="start" x="214.5" y="-154.3" font-family="Helvetica,sans-Serif" font-size="11.00" fill="#000000">group_id</text>
<polygon fill="none" stroke="#000000" points="366.5,-147.2 366.5,-169.2 475.5,-169.2 475.5,-147.2 366.5,-147.2"/>
<text text-anchor="start" x="369.0344" y="-154.9" font-family="Helvetica,sans-Serif" font-size="11.00" fill="#000000">varchar[2147483647]</text>
<polygon fill="none" stroke="#000000" points="194.5,-125.2 194.5,-147.2 366.5,-147.2 366.5,-125.2 194.5,-125.2"/>
<text text-anchor="start" x="214.5" y="-132.3" font-family="Helvetica,sans-Serif" font-size="11.00" fill="#000000">data</text>
<polygon fill="none" stroke="#000000" points="366.5,-125.2 366.5,-147.2 475.5,-147.2 475.5,-125.2 366.5,-125.2"/>
<text text-anchor="start" x="369.5" y="-132.9" font-family="Helvetica,sans-Serif" font-size="11.00" fill="#000000">bytea[2147483647]</text>
<polygon fill="none" stroke="#000000" points="194.5,-103.2 194.5,-125.2 366.5,-125.2 366.5,-103.2 194.5,-103.2"/>
<text text-anchor="start" x="214.5" y="-110.3" font-family="Helvetica,sans-Serif" font-size="11.00" fill="#000000">documents_info</text>
<polygon fill="none" stroke="#000000" points="366.5,-103.2 366.5,-125.2 475.5,-125.2 475.5,-103.2 366.5,-103.2"/>
<text text-anchor="start" x="369.5" y="-110.9" font-family="Helvetica,sans-Serif" font-size="11.00" fill="#000000">jsonb[2147483647]</text>
<polygon fill="none" stroke="#000000" points="194.5,-81.2 194.5,-103.2 366.5,-103.2 366.5,-81.2 194.5,-81.2"/>
<image xlink:href="../../images/primaryKeys.png" width="11px" height="12px" preserveAspectRatio="xMinYMin meet" x="199.5" y="-98.2"/>
<text text-anchor="start" x="214.5" y="-88.3" font-family="Helvetica,sans-Serif" font-size="11.00" fill="#000000">build_type</text>
<polygon fill="none" stroke="#000000" points="366.5,-81.2 366.5,-103.2 475.5,-103.2 475.5,-81.2 366.5,-81.2"/>
<text text-anchor="start" x="369.0344" y="-88.9" font-family="Helvetica,sans-Serif" font-size="11.00" fill="#000000">varchar[2147483647]</text>
<polygon fill="none" stroke="#000000" points="194.5,-59.2 194.5,-81.2 366.5,-81.2 366.5,-59.2 194.5,-59.2"/>
<image xlink:href="../../images/primaryKeys.png" width="11px" height="12px" preserveAspectRatio="xMinYMin meet" x="199.5" y="-76.2"/>
<text text-anchor="start" x="214.5" y="-66.3" font-family="Helvetica,sans-Serif" font-size="11.00" fill="#000000">format</text>
<polygon fill="none" stroke="#000000" points="366.5,-59.2 366.5,-81.2 475.5,-81.2 475.5,-59.2 366.5,-59.2"/>
<text text-anchor="start" x="369.0344" y="-66.9" font-family="Helvetica,sans-Serif" font-size="11.00" fill="#000000">varchar[2147483647]</text>
<polygon fill="#ffffff" stroke="transparent" points="194.5,-40.2 194.5,-59.2 284.5,-59.2 284.5,-40.2 194.5,-40.2"/>
<polygon fill="none" stroke="#000000" points="194.5,-40.2 194.5,-59.2 284.5,-59.2 284.5,-40.2 194.5,-40.2"/>
<text text-anchor="start" x="197.5" y="-46.3" font-family="Helvetica,sans-Serif" font-size="11.00" fill="#000000">&lt; 1</text>
<polygon fill="#ffffff" stroke="transparent" points="284.5,-40.2 284.5,-59.2 366.5,-59.2 366.5,-40.2 284.5,-40.2"/>
<polygon fill="none" stroke="#000000" points="284.5,-40.2 284.5,-59.2 366.5,-59.2 366.5,-40.2 284.5,-40.2"/>
<text text-anchor="start" x="357.3862" y="-46.3" font-family="Helvetica,sans-Serif" font-size="11.00" fill="#000000"> &#160;</text>
<polygon fill="#ffffff" stroke="transparent" points="366.5,-40.2 366.5,-59.2 475.5,-59.2 475.5,-40.2 366.5,-40.2"/>
<polygon fill="none" stroke="#000000" points="366.5,-40.2 366.5,-59.2 475.5,-59.2 475.5,-40.2 366.5,-40.2"/>
<text text-anchor="start" x="456.9053" y="-46.3" font-family="Helvetica,sans-Serif" font-size="11.00" fill="#000000">0 &gt;</text>
<polygon fill="none" stroke="#000000" stroke-width="2" points="193,-39.2 193,-281.2 476,-281.2 476,-39.2 193,-39.2"/>
</a>
</g>
</g>
<!-- operation_group -->
<g id="node2" class="node">
<title>operation_group</title>
<g id="a_node2"><a xlink:href="../../tables/operation_group.html" xlink:title="operation_group" target="_top">
<polygon fill="#ffffff" stroke="transparent" points="8,-109.7 8,-302.7 143,-302.7 143,-109.7 8,-109.7"/>
<polygon fill="#f5f5f5" stroke="transparent" points="8.5,-279.2 8.5,-302.2 143.5,-302.2 143.5,-279.2 8.5,-279.2"/>
<polygon fill="none" stroke="#000000" points="8.5,-279.2 8.5,-302.2 143.5,-302.2 143.5,-279.2 8.5,-279.2"/>
<text text-anchor="start" x="13.5" y="-287.8" font-family="Helvetica,sans-Serif" font-weight="bold" font-size="11.00" fill="#000000">operation_group</text>
<text text-anchor="start" x="109.0219" y="-287.3" font-family="Helvetica,sans-Serif" font-size="11.00" fill="#000000">[table]</text>
<polygon fill="none" stroke="#000000" points="8.5,-257.2 8.5,-279.2 143.5,-279.2 143.5,-257.2 8.5,-257.2"/>
<image xlink:href="../../images/primaryKeys.png" width="11px" height="12px" preserveAspectRatio="xMinYMin meet" x="13.5" y="-274.2"/>
<text text-anchor="start" x="28.5" y="-264.3" font-family="Helvetica,sans-Serif" font-size="11.00" fill="#000000">package_id</text>
<polygon fill="none" stroke="#000000" points="8.5,-235.2 8.5,-257.2 143.5,-257.2 143.5,-235.2 8.5,-235.2"/>
<image xlink:href="../../images/primaryKeys.png" width="11px" height="12px" preserveAspectRatio="xMinYMin meet" x="13.5" y="-252.2"/>
<text text-anchor="start" x="28.5" y="-242.3" font-family="Helvetica,sans-Serif" font-size="11.00" fill="#000000">version</text>
<polygon fill="none" stroke="#000000" points="8.5,-213.2 8.5,-235.2 143.5,-235.2 143.5,-213.2 8.5,-213.2"/>
<image xlink:href="../../images/primaryKeys.png" width="11px" height="12px" preserveAspectRatio="xMinYMin meet" x="13.5" y="-230.2"/>
<text text-anchor="start" x="28.5" y="-220.3" font-family="Helvetica,sans-Serif" font-size="11.00" fill="#000000">revision</text>
<polygon fill="none" stroke="#000000" points="8.5,-191.2 8.5,-213.2 143.5,-213.2 143.5,-191.2 8.5,-191.2"/>
<image xlink:href="../../images/primaryKeys.png" width="11px" height="12px" preserveAspectRatio="xMinYMin meet" x="13.5" y="-208.2"/>
<text text-anchor="start" x="28.5" y="-198.3" font-family="Helvetica,sans-Serif" font-size="11.00" fill="#000000">api_type</text>
<polygon fill="none" stroke="#000000" points="8.5,-169.2 8.5,-191.2 143.5,-191.2 143.5,-169.2 8.5,-169.2"/>
<image xlink:href="../../images/primaryKeys.png" width="11px" height="12px" preserveAspectRatio="xMinYMin meet" x="13.5" y="-186.2"/>
<text text-anchor="start" x="28.5" y="-176.3" font-family="Helvetica,sans-Serif" font-size="11.00" fill="#000000">group_name</text>
<polygon fill="#ffffff" stroke="transparent" points="8.5,-147.2 8.5,-169.2 143.5,-169.2 143.5,-147.2 8.5,-147.2"/>
<polygon fill="none" stroke="#000000" points="8.5,-147.2 8.5,-169.2 143.5,-169.2 143.5,-147.2 8.5,-147.2"/>
<text text-anchor="start" x="28.5" y="-154.3" font-family="Helvetica,sans-Serif" font-size="11.00" fill="#000000">group_id</text>
<polygon fill="none" stroke="#000000" points="8.5,-128.2 8.5,-147.2 143.5,-147.2 143.5,-128.2 8.5,-128.2"/>
<text text-anchor="start" x="11.5" y="-134.3" font-family="Helvetica,sans-Serif" font-size="11.00" fill="#000000">...</text>
<polygon fill="#ffffff" stroke="transparent" points="8.5,-109.2 8.5,-128.2 69.5,-128.2 69.5,-109.2 8.5,-109.2"/>
<polygon fill="none" stroke="#000000" points="8.5,-109.2 8.5,-128.2 69.5,-128.2 69.5,-109.2 8.5,-109.2"/>
<text text-anchor="start" x="11.5" y="-115.3" font-family="Helvetica,sans-Serif" font-size="11.00" fill="#000000">&lt; 3</text>
<polygon fill="#ffffff" stroke="transparent" points="69.5,-109.2 69.5,-128.2 101.5,-128.2 101.5,-109.2 69.5,-109.2"/>
<polygon fill="none" stroke="#000000" points="69.5,-109.2 69.5,-128.2 101.5,-128.2 101.5,-109.2 69.5,-109.2"/>
<text text-anchor="start" x="92.3862" y="-115.3" font-family="Helvetica,sans-Serif" font-size="11.00" fill="#000000"> &#160;</text>
<polygon fill="#ffffff" stroke="transparent" points="101.5,-109.2 101.5,-128.2 143.5,-128.2 143.5,-109.2 101.5,-109.2"/>
<polygon fill="none" stroke="#000000" points="101.5,-109.2 101.5,-128.2 143.5,-128.2 143.5,-109.2 101.5,-109.2"/>
<text text-anchor="start" x="124.9053" y="-115.3" font-family="Helvetica,sans-Serif" font-size="11.00" fill="#000000">2 &gt;</text>
</a>
</g>
</g>
<!-- transformed_content_data&#45;&gt;operation_group -->
<g id="edge1" class="edge">
<title>transformed_content_data:w&#45;&gt;operation_group:e</title>
<path fill="none" stroke="#000000" d="M179.776,-158.2C167.7815,-158.2 160.3229,-158.2 143.5,-158.2"/>
<polygon fill="#000000" stroke="#000000" points="186.5,-158.2001 194.5,-161.8 190.5,-158.2 194.5,-158.2 194.5,-158.2 194.5,-158.2 190.5,-158.2 194.5,-154.6 186.5,-158.2001 186.5,-158.2001"/>
<ellipse fill="none" stroke="#000000" cx="183.3" cy="-158.2001" rx="3.2" ry="3.2"/>
</g>
</g>
</svg>
