<?xml version="1.0" encoding="UTF-8" standalone="no"?>
<!DOCTYPE svg PUBLIC "-//W3C//DTD SVG 1.1//EN"
 "http://www.w3.org/Graphics/SVG/1.1/DTD/svg11.dtd">
<!-- Generated by graphviz version 2.40.1 (20161225.0304)
 -->
<!-- Title: twoDegreesRelationshipsDiagram Pages: 1 -->
<svg width="488pt" height="513pt"
 viewBox="0.00 0.00 488.00 513.20" xmlns="http://www.w3.org/2000/svg" xmlns:xlink="http://www.w3.org/1999/xlink">
<g id="graph0" class="graph" transform="scale(1 1) rotate(0) translate(4 509.2)">
<title>twoDegreesRelationshipsDiagram</title>
<polygon fill="#ffffff" stroke="transparent" points="-4,4 -4,-509.2 484,-509.2 484,4 -4,4"/>
<text text-anchor="middle" x="72.4936" y="-7.3" font-family="Helvetica,sans-Serif" font-size="11.00" fill="#000000">Generated by SchemaSpy</text>
<!-- fts_operation_data -->
<g id="node1" class="node">
<title>fts_operation_data</title>
<g id="a_node1"><a xlink:href="../../tables/fts_operation_data.html" xlink:title="fts_operation_data" target="_top">
<polygon fill="#ffffff" stroke="transparent" points="254,-440.2 254,-501.2 400,-501.2 400,-440.2 254,-440.2"/>
<polygon fill="#f5f5f5" stroke="transparent" points="254,-477.7 254,-500.7 400,-500.7 400,-477.7 254,-477.7"/>
<polygon fill="none" stroke="#000000" points="254,-477.7 254,-500.7 400,-500.7 400,-477.7 254,-477.7"/>
<text text-anchor="start" x="259" y="-486.3" font-family="Helvetica,sans-Serif" font-weight="bold" font-size="11.00" fill="#000000">fts_operation_data</text>
<text text-anchor="start" x="365.5219" y="-485.8" font-family="Helvetica,sans-Serif" font-size="11.00" fill="#000000">[table]</text>
<polygon fill="none" stroke="#000000" points="254,-458.7 254,-477.7 400,-477.7 400,-458.7 254,-458.7"/>
<text text-anchor="start" x="257" y="-464.8" font-family="Helvetica,sans-Serif" font-size="11.00" fill="#000000">...</text>
<polygon fill="#ffffff" stroke="transparent" points="254,-439.7 254,-458.7 325,-458.7 325,-439.7 254,-439.7"/>
<polygon fill="none" stroke="#000000" points="254,-439.7 254,-458.7 325,-458.7 325,-439.7 254,-439.7"/>
<text text-anchor="start" x="257" y="-445.8" font-family="Helvetica,sans-Serif" font-size="11.00" fill="#000000">&lt; 1</text>
<polygon fill="#ffffff" stroke="transparent" points="325,-439.7 325,-458.7 362,-458.7 362,-439.7 325,-439.7"/>
<polygon fill="none" stroke="#000000" points="325,-439.7 325,-458.7 362,-458.7 362,-439.7 325,-439.7"/>
<text text-anchor="start" x="352.8862" y="-445.8" font-family="Helvetica,sans-Serif" font-size="11.00" fill="#000000"> &#160;</text>
<polygon fill="#ffffff" stroke="transparent" points="362,-439.7 362,-458.7 400,-458.7 400,-439.7 362,-439.7"/>
<polygon fill="none" stroke="#000000" points="362,-439.7 362,-458.7 400,-458.7 400,-439.7 362,-439.7"/>
<text text-anchor="start" x="390.8862" y="-445.8" font-family="Helvetica,sans-Serif" font-size="11.00" fill="#000000"> &#160;</text>
</a>
</g>
</g>
<!-- operation_data -->
<g id="node2" class="node">
<title>operation_data</title>
<g id="a_node2"><a xlink:href="../../tables/operation_data.html" xlink:title="operation_data" target="_top">
<polygon fill="#ffffff" stroke="transparent" points="8,-252.2 8,-335.2 133,-335.2 133,-252.2 8,-252.2"/>
<polygon fill="#f5f5f5" stroke="transparent" points="8.5,-311.7 8.5,-334.7 133.5,-334.7 133.5,-311.7 8.5,-311.7"/>
<polygon fill="none" stroke="#000000" points="8.5,-311.7 8.5,-334.7 133.5,-334.7 133.5,-311.7 8.5,-311.7"/>
<text text-anchor="start" x="13.5" y="-320.3" font-family="Helvetica,sans-Serif" font-weight="bold" font-size="11.00" fill="#000000">operation_data</text>
<text text-anchor="start" x="99.0219" y="-319.8" font-family="Helvetica,sans-Serif" font-size="11.00" fill="#000000">[table]</text>
<polygon fill="none" stroke="#000000" points="8.5,-289.7 8.5,-311.7 133.5,-311.7 133.5,-289.7 8.5,-289.7"/>
<image xlink:href="../../images/primaryKeys.png" width="11px" height="12px" preserveAspectRatio="xMinYMin meet" x="13.5" y="-306.7"/>
<text text-anchor="start" x="37.5" y="-296.8" font-family="Helvetica,sans-Serif" font-size="11.00" fill="#000000">data_hash</text>
<polygon fill="none" stroke="#000000" points="8.5,-270.7 8.5,-289.7 133.5,-289.7 133.5,-270.7 8.5,-270.7"/>
<text text-anchor="start" x="11.5" y="-276.8" font-family="Helvetica,sans-Serif" font-size="11.00" fill="#000000">...</text>
<polygon fill="#ffffff" stroke="transparent" points="8.5,-251.7 8.5,-270.7 60.5,-270.7 60.5,-251.7 8.5,-251.7"/>
<polygon fill="none" stroke="#000000" points="8.5,-251.7 8.5,-270.7 60.5,-270.7 60.5,-251.7 8.5,-251.7"/>
<text text-anchor="start" x="11.5" y="-257.8" font-family="Helvetica,sans-Serif" font-size="11.00" fill="#000000"> &#160;</text>
<polygon fill="#ffffff" stroke="transparent" points="60.5,-251.7 60.5,-270.7 92.5,-270.7 92.5,-251.7 60.5,-251.7"/>
<polygon fill="none" stroke="#000000" points="60.5,-251.7 60.5,-270.7 92.5,-270.7 92.5,-251.7 60.5,-251.7"/>
<text text-anchor="start" x="83.3862" y="-257.8" font-family="Helvetica,sans-Serif" font-size="11.00" fill="#000000"> &#160;</text>
<polygon fill="#ffffff" stroke="transparent" points="92.5,-251.7 92.5,-270.7 133.5,-270.7 133.5,-251.7 92.5,-251.7"/>
<polygon fill="none" stroke="#000000" points="92.5,-251.7 92.5,-270.7 133.5,-270.7 133.5,-251.7 92.5,-251.7"/>
<text text-anchor="start" x="114.9053" y="-257.8" font-family="Helvetica,sans-Serif" font-size="11.00" fill="#000000">5 &gt;</text>
</a>
</g>
</g>
<!-- fts_operation_data&#45;&gt;operation_data -->
<g id="edge1" class="edge">
<title>fts_operation_data:w&#45;&gt;operation_data:e</title>
<path fill="none" stroke="#000000" d="M243.5474,-467.4704C211.764,-465.9561 197.4085,-456.6179 174,-429.7 134.567,-384.3552 193.5925,-300.7 133.5,-300.7"/>
<polygon fill="#000000" stroke="#000000" points="253.2881,-463.6834 253.1123,-471.6815 251.5127,-471.6463 251.6885,-463.6482 253.2881,-463.6834"/>
<polyline fill="none" stroke="#000000" points="254,-467.7 250.001,-467.6121 "/>
<ellipse fill="none" stroke="#000000" cx="246.8017" cy="-467.5418" rx="3.2" ry="3.2"/>
</g>
<!-- operation -->
<g id="node3" class="node">
<title>operation</title>
<g id="a_node3"><a xlink:href="../../tables/operation.html" xlink:title="operation" target="_top">
<polygon fill="#ffffff" stroke="transparent" points="280.5,-358.2 280.5,-419.2 373.5,-419.2 373.5,-358.2 280.5,-358.2"/>
<polygon fill="#f5f5f5" stroke="transparent" points="281,-395.7 281,-418.7 374,-418.7 374,-395.7 281,-395.7"/>
<polygon fill="none" stroke="#000000" points="281,-395.7 281,-418.7 374,-418.7 374,-395.7 281,-395.7"/>
<text text-anchor="start" x="286" y="-404.3" font-family="Helvetica,sans-Serif" font-weight="bold" font-size="11.00" fill="#000000">operation</text>
<text text-anchor="start" x="339.5219" y="-403.8" font-family="Helvetica,sans-Serif" font-size="11.00" fill="#000000">[table]</text>
<polygon fill="none" stroke="#000000" points="281,-376.7 281,-395.7 374,-395.7 374,-376.7 281,-376.7"/>
<text text-anchor="start" x="284" y="-382.8" font-family="Helvetica,sans-Serif" font-size="11.00" fill="#000000">...</text>
<polygon fill="#ffffff" stroke="transparent" points="281,-357.7 281,-376.7 321,-376.7 321,-357.7 281,-357.7"/>
<polygon fill="none" stroke="#000000" points="281,-357.7 281,-376.7 321,-376.7 321,-357.7 281,-357.7"/>
<text text-anchor="start" x="284" y="-363.8" font-family="Helvetica,sans-Serif" font-size="11.00" fill="#000000">&lt; 4</text>
<polygon fill="#ffffff" stroke="transparent" points="321,-357.7 321,-376.7 343,-376.7 343,-357.7 321,-357.7"/>
<polygon fill="none" stroke="#000000" points="321,-357.7 321,-376.7 343,-376.7 343,-357.7 321,-357.7"/>
<text text-anchor="start" x="333.8862" y="-363.8" font-family="Helvetica,sans-Serif" font-size="11.00" fill="#000000"> &#160;</text>
<polygon fill="#ffffff" stroke="transparent" points="343,-357.7 343,-376.7 374,-376.7 374,-357.7 343,-357.7"/>
<polygon fill="none" stroke="#000000" points="343,-357.7 343,-376.7 374,-376.7 374,-357.7 343,-357.7"/>
<text text-anchor="start" x="355.4053" y="-363.8" font-family="Helvetica,sans-Serif" font-size="11.00" fill="#000000">4 &gt;</text>
</a>
</g>
</g>
<!-- operation&#45;&gt;operation_data -->
<g id="edge2" class="edge">
<title>operation:w&#45;&gt;operation_data:e</title>
<path fill="none" stroke="#000000" d="M266.4024,-385.3844C227.1642,-383.5317 211.3293,-373.2601 174,-347.7 151.2481,-332.1213 161.0744,-300.7 133.5,-300.7"/>
<polygon fill="#000000" stroke="#000000" points="273.0019,-385.527 280.9222,-389.2992 277.0009,-385.6135 281,-385.7 281,-385.7 281,-385.7 277.0009,-385.6135 281.0778,-382.1008 273.0019,-385.527 273.0019,-385.527"/>
<ellipse fill="none" stroke="#000000" cx="269.8026" cy="-385.4578" rx="3.2" ry="3.2"/>
</g>
<!-- ts_graphql_operation_data -->
<g id="node4" class="node">
<title>ts_graphql_operation_data</title>
<g id="a_node4"><a xlink:href="../../tables/ts_graphql_operation_data.html" xlink:title="ts_graphql_operation_data" target="_top">
<polygon fill="#ffffff" stroke="transparent" points="182,-202.7 182,-336.7 472,-336.7 472,-202.7 182,-202.7"/>
<polygon fill="#f5f5f5" stroke="transparent" points="184,-311.7 184,-334.7 470,-334.7 470,-311.7 184,-311.7"/>
<polygon fill="none" stroke="#000000" points="184,-311.7 184,-334.7 470,-334.7 470,-311.7 184,-311.7"/>
<text text-anchor="start" x="189" y="-320.3" font-family="Helvetica,sans-Serif" font-weight="bold" font-size="11.00" fill="#000000">ts_graphql_operation_data</text>
<text text-anchor="start" x="435.0437" y="-319.8" font-family="Helvetica,sans-Serif" font-size="11.00" fill="#000000">[table]</text>
<polygon fill="none" stroke="#000000" points="184,-289.7 184,-311.7 359,-311.7 359,-289.7 184,-289.7"/>
<image xlink:href="../../images/primaryKeys.png" width="11px" height="12px" preserveAspectRatio="xMinYMin meet" x="189" y="-306.7"/>
<text text-anchor="start" x="204" y="-296.8" font-family="Helvetica,sans-Serif" font-size="11.00" fill="#000000">data_hash</text>
<polygon fill="none" stroke="#000000" points="359,-289.7 359,-311.7 470,-311.7 470,-289.7 359,-289.7"/>
<text text-anchor="start" x="362" y="-297.4" font-family="Helvetica,sans-Serif" font-size="11.00" fill="#000000">varchar[2147483647]</text>
<polygon fill="#ffffff" stroke="transparent" points="184,-267.7 184,-289.7 359,-289.7 359,-267.7 184,-267.7"/>
<polygon fill="none" stroke="#000000" points="184,-267.7 184,-289.7 359,-289.7 359,-267.7 184,-267.7"/>
<text text-anchor="start" x="204" y="-274.8" font-family="Helvetica,sans-Serif" font-size="11.00" fill="#000000">scope_argument</text>
<polygon fill="none" stroke="#000000" points="359,-267.7 359,-289.7 470,-289.7 470,-267.7 359,-267.7"/>
<text text-anchor="start" x="361.6159" y="-275.4" font-family="Helvetica,sans-Serif" font-size="11.00" fill="#000000">tsvector[2147483647]</text>
<polygon fill="#ffffff" stroke="transparent" points="184,-245.7 184,-267.7 359,-267.7 359,-245.7 184,-245.7"/>
<polygon fill="none" stroke="#000000" points="184,-245.7 184,-267.7 359,-267.7 359,-245.7 184,-245.7"/>
<text text-anchor="start" x="204" y="-252.8" font-family="Helvetica,sans-Serif" font-size="11.00" fill="#000000">scope_property</text>
<polygon fill="none" stroke="#000000" points="359,-245.7 359,-267.7 470,-267.7 470,-245.7 359,-245.7"/>
<text text-anchor="start" x="361.6159" y="-253.4" font-family="Helvetica,sans-Serif" font-size="11.00" fill="#000000">tsvector[2147483647]</text>
<polygon fill="#ffffff" stroke="transparent" points="184,-223.7 184,-245.7 359,-245.7 359,-223.7 184,-223.7"/>
<polygon fill="none" stroke="#000000" points="184,-223.7 184,-245.7 359,-245.7 359,-223.7 184,-223.7"/>
<text text-anchor="start" x="204" y="-230.8" font-family="Helvetica,sans-Serif" font-size="11.00" fill="#000000">scope_annotation</text>
<polygon fill="none" stroke="#000000" points="359,-223.7 359,-245.7 470,-245.7 470,-223.7 359,-223.7"/>
<text text-anchor="start" x="361.6159" y="-231.4" font-family="Helvetica,sans-Serif" font-size="11.00" fill="#000000">tsvector[2147483647]</text>
<polygon fill="#ffffff" stroke="transparent" points="184,-204.7 184,-223.7 276,-223.7 276,-204.7 184,-204.7"/>
<polygon fill="none" stroke="#000000" points="184,-204.7 184,-223.7 276,-223.7 276,-204.7 184,-204.7"/>
<text text-anchor="start" x="187" y="-210.8" font-family="Helvetica,sans-Serif" font-size="11.00" fill="#000000">&lt; 1</text>
<polygon fill="#ffffff" stroke="transparent" points="276,-204.7 276,-223.7 359,-223.7 359,-204.7 276,-204.7"/>
<polygon fill="none" stroke="#000000" points="276,-204.7 276,-223.7 359,-223.7 359,-204.7 276,-204.7"/>
<text text-anchor="start" x="349.8862" y="-210.8" font-family="Helvetica,sans-Serif" font-size="11.00" fill="#000000"> &#160;</text>
<polygon fill="#ffffff" stroke="transparent" points="359,-204.7 359,-223.7 470,-223.7 470,-204.7 359,-204.7"/>
<polygon fill="none" stroke="#000000" points="359,-204.7 359,-223.7 470,-223.7 470,-204.7 359,-204.7"/>
<text text-anchor="start" x="451.4053" y="-210.8" font-family="Helvetica,sans-Serif" font-size="11.00" fill="#000000">0 &gt;</text>
<polygon fill="none" stroke="#000000" stroke-width="2" points="183,-203.7 183,-335.7 471,-335.7 471,-203.7 183,-203.7"/>
</a>
</g>
</g>
<!-- ts_graphql_operation_data&#45;&gt;operation_data -->
<g id="edge3" class="edge">
<title>ts_graphql_operation_data:w&#45;&gt;operation_data:e</title>
<path fill="none" stroke="#000000" d="M173.3362,-300.7C158.9956,-300.7 151.9115,-300.7 133.5,-300.7"/>
<polygon fill="#000000" stroke="#000000" points="183.2,-296.7 183.2,-304.7 181.6,-304.7 181.6,-296.7 183.2,-296.7"/>
<polyline fill="none" stroke="#000000" points="184,-300.7 180,-300.7 "/>
<ellipse fill="none" stroke="#000000" cx="176.8" cy="-300.7001" rx="3.2" ry="3.2"/>
</g>
<!-- ts_operation_data -->
<g id="node5" class="node">
<title>ts_operation_data</title>
<g id="a_node5"><a xlink:href="../../tables/ts_operation_data.html" xlink:title="ts_operation_data" target="_top">
<polygon fill="#ffffff" stroke="transparent" points="256,-120.2 256,-181.2 398,-181.2 398,-120.2 256,-120.2"/>
<polygon fill="#f5f5f5" stroke="transparent" points="256,-157.7 256,-180.7 398,-180.7 398,-157.7 256,-157.7"/>
<polygon fill="none" stroke="#000000" points="256,-157.7 256,-180.7 398,-180.7 398,-157.7 256,-157.7"/>
<text text-anchor="start" x="261" y="-166.3" font-family="Helvetica,sans-Serif" font-weight="bold" font-size="11.00" fill="#000000">ts_operation_data</text>
<text text-anchor="start" x="363.5219" y="-165.8" font-family="Helvetica,sans-Serif" font-size="11.00" fill="#000000">[table]</text>
<polygon fill="none" stroke="#000000" points="256,-138.7 256,-157.7 398,-157.7 398,-138.7 256,-138.7"/>
<text text-anchor="start" x="259" y="-144.8" font-family="Helvetica,sans-Serif" font-size="11.00" fill="#000000">...</text>
<polygon fill="#ffffff" stroke="transparent" points="256,-119.7 256,-138.7 325,-138.7 325,-119.7 256,-119.7"/>
<polygon fill="none" stroke="#000000" points="256,-119.7 256,-138.7 325,-138.7 325,-119.7 256,-119.7"/>
<text text-anchor="start" x="259" y="-125.8" font-family="Helvetica,sans-Serif" font-size="11.00" fill="#000000">&lt; 1</text>
<polygon fill="#ffffff" stroke="transparent" points="325,-119.7 325,-138.7 361,-138.7 361,-119.7 325,-119.7"/>
<polygon fill="none" stroke="#000000" points="325,-119.7 325,-138.7 361,-138.7 361,-119.7 325,-119.7"/>
<text text-anchor="start" x="351.8862" y="-125.8" font-family="Helvetica,sans-Serif" font-size="11.00" fill="#000000"> &#160;</text>
<polygon fill="#ffffff" stroke="transparent" points="361,-119.7 361,-138.7 398,-138.7 398,-119.7 361,-119.7"/>
<polygon fill="none" stroke="#000000" points="361,-119.7 361,-138.7 398,-138.7 398,-119.7 361,-119.7"/>
<text text-anchor="start" x="388.8862" y="-125.8" font-family="Helvetica,sans-Serif" font-size="11.00" fill="#000000"> &#160;</text>
</a>
</g>
</g>
<!-- ts_operation_data&#45;&gt;operation_data -->
<g id="edge4" class="edge">
<title>ts_operation_data:w&#45;&gt;operation_data:e</title>
<path fill="none" stroke="#000000" d="M245.4512,-148.0319C211.9416,-150.2838 198.7729,-164.1008 174,-192.7 140.4357,-231.4484 184.764,-300.7 133.5,-300.7"/>
<polygon fill="#000000" stroke="#000000" points="255.0746,-143.7271 255.3262,-151.7232 253.727,-151.7735 253.4754,-143.7775 255.0746,-143.7271"/>
<polyline fill="none" stroke="#000000" points="256,-147.7 252.002,-147.8258 "/>
<ellipse fill="none" stroke="#000000" cx="248.8036" cy="-147.9265" rx="3.2" ry="3.2"/>
</g>
<!-- ts_rest_operation_data -->
<g id="node6" class="node">
<title>ts_rest_operation_data</title>
<g id="a_node6"><a xlink:href="../../tables/ts_rest_operation_data.html" xlink:title="ts_rest_operation_data" target="_top">
<polygon fill="#ffffff" stroke="transparent" points="241.5,-38.2 241.5,-99.2 412.5,-99.2 412.5,-38.2 241.5,-38.2"/>
<polygon fill="#f5f5f5" stroke="transparent" points="242,-75.7 242,-98.7 413,-98.7 413,-75.7 242,-75.7"/>
<polygon fill="none" stroke="#000000" points="242,-75.7 242,-98.7 413,-98.7 413,-75.7 242,-75.7"/>
<text text-anchor="start" x="247" y="-84.3" font-family="Helvetica,sans-Serif" font-weight="bold" font-size="11.00" fill="#000000">ts_rest_operation_data</text>
<text text-anchor="start" x="378.5219" y="-83.8" font-family="Helvetica,sans-Serif" font-size="11.00" fill="#000000">[table]</text>
<polygon fill="none" stroke="#000000" points="242,-56.7 242,-75.7 413,-75.7 413,-56.7 242,-56.7"/>
<text text-anchor="start" x="245" y="-62.8" font-family="Helvetica,sans-Serif" font-size="11.00" fill="#000000">...</text>
<polygon fill="#ffffff" stroke="transparent" points="242,-37.7 242,-56.7 326,-56.7 326,-37.7 242,-37.7"/>
<polygon fill="none" stroke="#000000" points="242,-37.7 242,-56.7 326,-56.7 326,-37.7 242,-37.7"/>
<text text-anchor="start" x="245" y="-43.8" font-family="Helvetica,sans-Serif" font-size="11.00" fill="#000000">&lt; 1</text>
<polygon fill="#ffffff" stroke="transparent" points="326,-37.7 326,-56.7 369,-56.7 369,-37.7 326,-37.7"/>
<polygon fill="none" stroke="#000000" points="326,-37.7 326,-56.7 369,-56.7 369,-37.7 326,-37.7"/>
<text text-anchor="start" x="359.8862" y="-43.8" font-family="Helvetica,sans-Serif" font-size="11.00" fill="#000000"> &#160;</text>
<polygon fill="#ffffff" stroke="transparent" points="369,-37.7 369,-56.7 413,-56.7 413,-37.7 369,-37.7"/>
<polygon fill="none" stroke="#000000" points="369,-37.7 369,-56.7 413,-56.7 413,-37.7 369,-37.7"/>
<text text-anchor="start" x="403.8862" y="-43.8" font-family="Helvetica,sans-Serif" font-size="11.00" fill="#000000"> &#160;</text>
</a>
</g>
</g>
<!-- ts_rest_operation_data&#45;&gt;operation_data -->
<g id="edge5" class="edge">
<title>ts_rest_operation_data:w&#45;&gt;operation_data:e</title>
<path fill="none" stroke="#000000" d="M231.3856,-66.1799C203.4586,-68.8963 192.2541,-83.1732 174,-109.7 124.8079,-181.1861 220.2763,-300.7 133.5,-300.7"/>
<polygon fill="#000000" stroke="#000000" points="241.0201,-61.7402 241.3815,-69.7321 239.7831,-69.8043 239.4218,-61.8125 241.0201,-61.7402"/>
<polyline fill="none" stroke="#000000" points="242,-65.7 238.0041,-65.8807 "/>
<ellipse fill="none" stroke="#000000" cx="234.8073" cy="-66.0252" rx="3.2" ry="3.2"/>
</g>
</g>
</svg>
