<?xml version="1.0" encoding="UTF-8" standalone="no"?>
<!DOCTYPE svg PUBLIC "-//W3C//DTD SVG 1.1//EN"
 "http://www.w3.org/Graphics/SVG/1.1/DTD/svg11.dtd">
<!-- Generated by graphviz version 2.40.1 (20161225.0304)
 -->
<!-- Title: twoDegreesRelationshipsDiagram Pages: 1 -->
<svg width="437pt" height="469pt"
 viewBox="0.00 0.00 437.00 469.20" xmlns="http://www.w3.org/2000/svg" xmlns:xlink="http://www.w3.org/1999/xlink">
<g id="graph0" class="graph" transform="scale(1 1) rotate(0) translate(4 465.2)">
<title>twoDegreesRelationshipsDiagram</title>
<polygon fill="#ffffff" stroke="transparent" points="-4,4 -4,-465.2 433,-465.2 433,4 -4,4"/>
<text text-anchor="middle" x="72.4936" y="-7.3" font-family="Helvetica,sans-Serif" font-size="11.00" fill="#000000">Generated by SchemaSpy</text>
<!-- fts_operation_data -->
<g id="node1" class="node">
<title>fts_operation_data</title>
<g id="a_node1"><a xlink:href="../../tables/fts_operation_data.html" xlink:title="fts_operation_data" target="_top">
<polygon fill="#ffffff" stroke="transparent" points="228.5,-396.2 228.5,-457.2 374.5,-457.2 374.5,-396.2 228.5,-396.2"/>
<polygon fill="#f5f5f5" stroke="transparent" points="228.5,-433.7 228.5,-456.7 374.5,-456.7 374.5,-433.7 228.5,-433.7"/>
<polygon fill="none" stroke="#000000" points="228.5,-433.7 228.5,-456.7 374.5,-456.7 374.5,-433.7 228.5,-433.7"/>
<text text-anchor="start" x="233.5" y="-442.3" font-family="Helvetica,sans-Serif" font-weight="bold" font-size="11.00" fill="#000000">fts_operation_data</text>
<text text-anchor="start" x="340.0219" y="-441.8" font-family="Helvetica,sans-Serif" font-size="11.00" fill="#000000">[table]</text>
<polygon fill="none" stroke="#000000" points="228.5,-414.7 228.5,-433.7 374.5,-433.7 374.5,-414.7 228.5,-414.7"/>
<text text-anchor="start" x="231.5" y="-420.8" font-family="Helvetica,sans-Serif" font-size="11.00" fill="#000000">...</text>
<polygon fill="#ffffff" stroke="transparent" points="228.5,-395.7 228.5,-414.7 299.5,-414.7 299.5,-395.7 228.5,-395.7"/>
<polygon fill="none" stroke="#000000" points="228.5,-395.7 228.5,-414.7 299.5,-414.7 299.5,-395.7 228.5,-395.7"/>
<text text-anchor="start" x="231.5" y="-401.8" font-family="Helvetica,sans-Serif" font-size="11.00" fill="#000000">&lt; 1</text>
<polygon fill="#ffffff" stroke="transparent" points="299.5,-395.7 299.5,-414.7 336.5,-414.7 336.5,-395.7 299.5,-395.7"/>
<polygon fill="none" stroke="#000000" points="299.5,-395.7 299.5,-414.7 336.5,-414.7 336.5,-395.7 299.5,-395.7"/>
<text text-anchor="start" x="327.3862" y="-401.8" font-family="Helvetica,sans-Serif" font-size="11.00" fill="#000000"> &#160;</text>
<polygon fill="#ffffff" stroke="transparent" points="336.5,-395.7 336.5,-414.7 374.5,-414.7 374.5,-395.7 336.5,-395.7"/>
<polygon fill="none" stroke="#000000" points="336.5,-395.7 336.5,-414.7 374.5,-414.7 374.5,-395.7 336.5,-395.7"/>
<text text-anchor="start" x="365.3862" y="-401.8" font-family="Helvetica,sans-Serif" font-size="11.00" fill="#000000"> &#160;</text>
</a>
</g>
</g>
<!-- operation_data -->
<g id="node2" class="node">
<title>operation_data</title>
<g id="a_node2"><a xlink:href="../../tables/operation_data.html" xlink:title="operation_data" target="_top">
<polygon fill="#ffffff" stroke="transparent" points="8,-211.2 8,-294.2 133,-294.2 133,-211.2 8,-211.2"/>
<polygon fill="#f5f5f5" stroke="transparent" points="8.5,-270.7 8.5,-293.7 133.5,-293.7 133.5,-270.7 8.5,-270.7"/>
<polygon fill="none" stroke="#000000" points="8.5,-270.7 8.5,-293.7 133.5,-293.7 133.5,-270.7 8.5,-270.7"/>
<text text-anchor="start" x="13.5" y="-279.3" font-family="Helvetica,sans-Serif" font-weight="bold" font-size="11.00" fill="#000000">operation_data</text>
<text text-anchor="start" x="99.0219" y="-278.8" font-family="Helvetica,sans-Serif" font-size="11.00" fill="#000000">[table]</text>
<polygon fill="none" stroke="#000000" points="8.5,-248.7 8.5,-270.7 133.5,-270.7 133.5,-248.7 8.5,-248.7"/>
<image xlink:href="../../images/primaryKeys.png" width="11px" height="12px" preserveAspectRatio="xMinYMin meet" x="13.5" y="-265.7"/>
<text text-anchor="start" x="37.5" y="-255.8" font-family="Helvetica,sans-Serif" font-size="11.00" fill="#000000">data_hash</text>
<polygon fill="none" stroke="#000000" points="8.5,-229.7 8.5,-248.7 133.5,-248.7 133.5,-229.7 8.5,-229.7"/>
<text text-anchor="start" x="11.5" y="-235.8" font-family="Helvetica,sans-Serif" font-size="11.00" fill="#000000">...</text>
<polygon fill="#ffffff" stroke="transparent" points="8.5,-210.7 8.5,-229.7 60.5,-229.7 60.5,-210.7 8.5,-210.7"/>
<polygon fill="none" stroke="#000000" points="8.5,-210.7 8.5,-229.7 60.5,-229.7 60.5,-210.7 8.5,-210.7"/>
<text text-anchor="start" x="11.5" y="-216.8" font-family="Helvetica,sans-Serif" font-size="11.00" fill="#000000"> &#160;</text>
<polygon fill="#ffffff" stroke="transparent" points="60.5,-210.7 60.5,-229.7 92.5,-229.7 92.5,-210.7 60.5,-210.7"/>
<polygon fill="none" stroke="#000000" points="60.5,-210.7 60.5,-229.7 92.5,-229.7 92.5,-210.7 60.5,-210.7"/>
<text text-anchor="start" x="83.3862" y="-216.8" font-family="Helvetica,sans-Serif" font-size="11.00" fill="#000000"> &#160;</text>
<polygon fill="#ffffff" stroke="transparent" points="92.5,-210.7 92.5,-229.7 133.5,-229.7 133.5,-210.7 92.5,-210.7"/>
<polygon fill="none" stroke="#000000" points="92.5,-210.7 92.5,-229.7 133.5,-229.7 133.5,-210.7 92.5,-210.7"/>
<text text-anchor="start" x="114.9053" y="-216.8" font-family="Helvetica,sans-Serif" font-size="11.00" fill="#000000">5 &gt;</text>
</a>
</g>
</g>
<!-- fts_operation_data&#45;&gt;operation_data -->
<g id="edge1" class="edge">
<title>fts_operation_data:w&#45;&gt;operation_data:e</title>
<path fill="none" stroke="#000000" d="M218.1137,-422.9997C196.8897,-419.8677 189.2881,-406.3861 174,-385.7 139.0392,-338.3952 192.3218,-259.7 133.5,-259.7"/>
<polygon fill="#000000" stroke="#000000" points="227.9709,-419.6552 227.4327,-427.6371 225.8363,-427.5295 226.3746,-419.5476 227.9709,-419.6552"/>
<polyline fill="none" stroke="#000000" points="228.5,-423.7 224.5091,-423.4309 "/>
<ellipse fill="none" stroke="#000000" cx="221.3163" cy="-423.2156" rx="3.2" ry="3.2"/>
</g>
<!-- operation -->
<g id="node3" class="node">
<title>operation</title>
<g id="a_node3"><a xlink:href="../../tables/operation.html" xlink:title="operation" target="_top">
<polygon fill="#ffffff" stroke="transparent" points="255,-314.2 255,-375.2 348,-375.2 348,-314.2 255,-314.2"/>
<polygon fill="#f5f5f5" stroke="transparent" points="255.5,-351.7 255.5,-374.7 348.5,-374.7 348.5,-351.7 255.5,-351.7"/>
<polygon fill="none" stroke="#000000" points="255.5,-351.7 255.5,-374.7 348.5,-374.7 348.5,-351.7 255.5,-351.7"/>
<text text-anchor="start" x="260.5" y="-360.3" font-family="Helvetica,sans-Serif" font-weight="bold" font-size="11.00" fill="#000000">operation</text>
<text text-anchor="start" x="314.0219" y="-359.8" font-family="Helvetica,sans-Serif" font-size="11.00" fill="#000000">[table]</text>
<polygon fill="none" stroke="#000000" points="255.5,-332.7 255.5,-351.7 348.5,-351.7 348.5,-332.7 255.5,-332.7"/>
<text text-anchor="start" x="258.5" y="-338.8" font-family="Helvetica,sans-Serif" font-size="11.00" fill="#000000">...</text>
<polygon fill="#ffffff" stroke="transparent" points="255.5,-313.7 255.5,-332.7 295.5,-332.7 295.5,-313.7 255.5,-313.7"/>
<polygon fill="none" stroke="#000000" points="255.5,-313.7 255.5,-332.7 295.5,-332.7 295.5,-313.7 255.5,-313.7"/>
<text text-anchor="start" x="258.5" y="-319.8" font-family="Helvetica,sans-Serif" font-size="11.00" fill="#000000">&lt; 4</text>
<polygon fill="#ffffff" stroke="transparent" points="295.5,-313.7 295.5,-332.7 317.5,-332.7 317.5,-313.7 295.5,-313.7"/>
<polygon fill="none" stroke="#000000" points="295.5,-313.7 295.5,-332.7 317.5,-332.7 317.5,-313.7 295.5,-313.7"/>
<text text-anchor="start" x="308.3862" y="-319.8" font-family="Helvetica,sans-Serif" font-size="11.00" fill="#000000"> &#160;</text>
<polygon fill="#ffffff" stroke="transparent" points="317.5,-313.7 317.5,-332.7 348.5,-332.7 348.5,-313.7 317.5,-313.7"/>
<polygon fill="none" stroke="#000000" points="317.5,-313.7 317.5,-332.7 348.5,-332.7 348.5,-313.7 317.5,-313.7"/>
<text text-anchor="start" x="329.9053" y="-319.8" font-family="Helvetica,sans-Serif" font-size="11.00" fill="#000000">4 &gt;</text>
</a>
</g>
</g>
<!-- operation&#45;&gt;operation_data -->
<g id="edge2" class="edge">
<title>operation:w&#45;&gt;operation_data:e</title>
<path fill="none" stroke="#000000" d="M241.0743,-340.95C212.6645,-337.7117 201.9731,-324.1618 174,-303.7 152.548,-288.0083 160.0786,-259.7 133.5,-259.7"/>
<polygon fill="#000000" stroke="#000000" points="247.5108,-341.2846 255.3131,-345.2951 251.5054,-341.4923 255.5,-341.7 255.5,-341.7 255.5,-341.7 251.5054,-341.4923 255.6869,-338.1049 247.5108,-341.2846 247.5108,-341.2846"/>
<ellipse fill="none" stroke="#000000" cx="244.3151" cy="-341.1184" rx="3.2" ry="3.2"/>
</g>
<!-- ts_graphql_operation_data -->
<g id="node4" class="node">
<title>ts_graphql_operation_data</title>
<g id="a_node4"><a xlink:href="../../tables/ts_graphql_operation_data.html" xlink:title="ts_graphql_operation_data" target="_top">
<polygon fill="#ffffff" stroke="transparent" points="205,-232.2 205,-293.2 398,-293.2 398,-232.2 205,-232.2"/>
<polygon fill="#f5f5f5" stroke="transparent" points="205.5,-269.7 205.5,-292.7 398.5,-292.7 398.5,-269.7 205.5,-269.7"/>
<polygon fill="none" stroke="#000000" points="205.5,-269.7 205.5,-292.7 398.5,-292.7 398.5,-269.7 205.5,-269.7"/>
<text text-anchor="start" x="210.5" y="-278.3" font-family="Helvetica,sans-Serif" font-weight="bold" font-size="11.00" fill="#000000">ts_graphql_operation_data</text>
<text text-anchor="start" x="364.0219" y="-277.8" font-family="Helvetica,sans-Serif" font-size="11.00" fill="#000000">[table]</text>
<polygon fill="none" stroke="#000000" points="205.5,-250.7 205.5,-269.7 398.5,-269.7 398.5,-250.7 205.5,-250.7"/>
<text text-anchor="start" x="208.5" y="-256.8" font-family="Helvetica,sans-Serif" font-size="11.00" fill="#000000">...</text>
<polygon fill="#ffffff" stroke="transparent" points="205.5,-231.7 205.5,-250.7 300.5,-250.7 300.5,-231.7 205.5,-231.7"/>
<polygon fill="none" stroke="#000000" points="205.5,-231.7 205.5,-250.7 300.5,-250.7 300.5,-231.7 205.5,-231.7"/>
<text text-anchor="start" x="208.5" y="-237.8" font-family="Helvetica,sans-Serif" font-size="11.00" fill="#000000">&lt; 1</text>
<polygon fill="#ffffff" stroke="transparent" points="300.5,-231.7 300.5,-250.7 349.5,-250.7 349.5,-231.7 300.5,-231.7"/>
<polygon fill="none" stroke="#000000" points="300.5,-231.7 300.5,-250.7 349.5,-250.7 349.5,-231.7 300.5,-231.7"/>
<text text-anchor="start" x="340.3862" y="-237.8" font-family="Helvetica,sans-Serif" font-size="11.00" fill="#000000"> &#160;</text>
<polygon fill="#ffffff" stroke="transparent" points="349.5,-231.7 349.5,-250.7 398.5,-250.7 398.5,-231.7 349.5,-231.7"/>
<polygon fill="none" stroke="#000000" points="349.5,-231.7 349.5,-250.7 398.5,-250.7 398.5,-231.7 349.5,-231.7"/>
<text text-anchor="start" x="389.3862" y="-237.8" font-family="Helvetica,sans-Serif" font-size="11.00" fill="#000000"> &#160;</text>
</a>
</g>
</g>
<!-- ts_graphql_operation_data&#45;&gt;operation_data -->
<g id="edge3" class="edge">
<title>ts_graphql_operation_data:w&#45;&gt;operation_data:e</title>
<path fill="none" stroke="#000000" d="M194.8456,-259.7C171.2106,-259.7 161.625,-259.7 133.5,-259.7"/>
<polygon fill="#000000" stroke="#000000" points="204.7,-255.7 204.7,-263.7 203.1,-263.7 203.1,-255.7 204.7,-255.7"/>
<polyline fill="none" stroke="#000000" points="205.5,-259.7 201.5,-259.7 "/>
<ellipse fill="none" stroke="#000000" cx="198.3" cy="-259.7001" rx="3.2" ry="3.2"/>
</g>
<!-- ts_operation_data -->
<g id="node5" class="node">
<title>ts_operation_data</title>
<g id="a_node5"><a xlink:href="../../tables/ts_operation_data.html" xlink:title="ts_operation_data" target="_top">
<polygon fill="#ffffff" stroke="transparent" points="182,-120.7 182,-210.7 421,-210.7 421,-120.7 182,-120.7"/>
<polygon fill="#f5f5f5" stroke="transparent" points="184.5,-185.7 184.5,-208.7 419.5,-208.7 419.5,-185.7 184.5,-185.7"/>
<polygon fill="none" stroke="#000000" points="184.5,-185.7 184.5,-208.7 419.5,-208.7 419.5,-185.7 184.5,-185.7"/>
<text text-anchor="start" x="189.5" y="-194.3" font-family="Helvetica,sans-Serif" font-weight="bold" font-size="11.00" fill="#000000">ts_operation_data</text>
<text text-anchor="start" x="384.5437" y="-193.8" font-family="Helvetica,sans-Serif" font-size="11.00" fill="#000000">[table]</text>
<polygon fill="none" stroke="#000000" points="184.5,-163.7 184.5,-185.7 308.5,-185.7 308.5,-163.7 184.5,-163.7"/>
<image xlink:href="../../images/primaryKeys.png" width="11px" height="12px" preserveAspectRatio="xMinYMin meet" x="189.5" y="-180.7"/>
<text text-anchor="start" x="204.5" y="-170.8" font-family="Helvetica,sans-Serif" font-size="11.00" fill="#000000">data_hash</text>
<polygon fill="none" stroke="#000000" points="308.5,-163.7 308.5,-185.7 419.5,-185.7 419.5,-163.7 308.5,-163.7"/>
<text text-anchor="start" x="311.5" y="-171.4" font-family="Helvetica,sans-Serif" font-size="11.00" fill="#000000">varchar[2147483647]</text>
<polygon fill="#ffffff" stroke="transparent" points="184.5,-141.7 184.5,-163.7 308.5,-163.7 308.5,-141.7 184.5,-141.7"/>
<polygon fill="none" stroke="#000000" points="184.5,-141.7 184.5,-163.7 308.5,-163.7 308.5,-141.7 184.5,-141.7"/>
<text text-anchor="start" x="204.5" y="-148.8" font-family="Helvetica,sans-Serif" font-size="11.00" fill="#000000">scope_all</text>
<polygon fill="none" stroke="#000000" points="308.5,-141.7 308.5,-163.7 419.5,-163.7 419.5,-141.7 308.5,-141.7"/>
<text text-anchor="start" x="311.1159" y="-149.4" font-family="Helvetica,sans-Serif" font-size="11.00" fill="#000000">tsvector[2147483647]</text>
<polygon fill="#ffffff" stroke="transparent" points="184.5,-122.7 184.5,-141.7 250.5,-141.7 250.5,-122.7 184.5,-122.7"/>
<polygon fill="none" stroke="#000000" points="184.5,-122.7 184.5,-141.7 250.5,-141.7 250.5,-122.7 184.5,-122.7"/>
<text text-anchor="start" x="187.5" y="-128.8" font-family="Helvetica,sans-Serif" font-size="11.00" fill="#000000">&lt; 1</text>
<polygon fill="#ffffff" stroke="transparent" points="250.5,-122.7 250.5,-141.7 308.5,-141.7 308.5,-122.7 250.5,-122.7"/>
<polygon fill="none" stroke="#000000" points="250.5,-122.7 250.5,-141.7 308.5,-141.7 308.5,-122.7 250.5,-122.7"/>
<text text-anchor="start" x="299.3862" y="-128.8" font-family="Helvetica,sans-Serif" font-size="11.00" fill="#000000"> &#160;</text>
<polygon fill="#ffffff" stroke="transparent" points="308.5,-122.7 308.5,-141.7 419.5,-141.7 419.5,-122.7 308.5,-122.7"/>
<polygon fill="none" stroke="#000000" points="308.5,-122.7 308.5,-141.7 419.5,-141.7 419.5,-122.7 308.5,-122.7"/>
<text text-anchor="start" x="400.9053" y="-128.8" font-family="Helvetica,sans-Serif" font-size="11.00" fill="#000000">0 &gt;</text>
<polygon fill="none" stroke="#000000" stroke-width="2" points="183,-121.7 183,-209.7 420,-209.7 420,-121.7 183,-121.7"/>
</a>
</g>
</g>
<!-- ts_operation_data&#45;&gt;operation_data -->
<g id="edge4" class="edge">
<title>ts_operation_data:w&#45;&gt;operation_data:e</title>
<path fill="none" stroke="#000000" d="M174.1156,-176.8011C146.6891,-189.8904 173.4258,-259.7 133.5,-259.7"/>
<polygon fill="#000000" stroke="#000000" points="182.9226,-170.9381 184.5092,-178.7792 182.941,-179.0965 181.3544,-171.2554 182.9226,-170.9381"/>
<polyline fill="none" stroke="#000000" points="184.5,-174.7 180.5794,-175.4933 "/>
<ellipse fill="none" stroke="#000000" cx="177.443" cy="-176.1279" rx="3.2" ry="3.2"/>
</g>
<!-- ts_rest_operation_data -->
<g id="node6" class="node">
<title>ts_rest_operation_data</title>
<g id="a_node6"><a xlink:href="../../tables/ts_rest_operation_data.html" xlink:title="ts_rest_operation_data" target="_top">
<polygon fill="#ffffff" stroke="transparent" points="216,-38.2 216,-99.2 387,-99.2 387,-38.2 216,-38.2"/>
<polygon fill="#f5f5f5" stroke="transparent" points="216.5,-75.7 216.5,-98.7 387.5,-98.7 387.5,-75.7 216.5,-75.7"/>
<polygon fill="none" stroke="#000000" points="216.5,-75.7 216.5,-98.7 387.5,-98.7 387.5,-75.7 216.5,-75.7"/>
<text text-anchor="start" x="221.5" y="-84.3" font-family="Helvetica,sans-Serif" font-weight="bold" font-size="11.00" fill="#000000">ts_rest_operation_data</text>
<text text-anchor="start" x="353.0219" y="-83.8" font-family="Helvetica,sans-Serif" font-size="11.00" fill="#000000">[table]</text>
<polygon fill="none" stroke="#000000" points="216.5,-56.7 216.5,-75.7 387.5,-75.7 387.5,-56.7 216.5,-56.7"/>
<text text-anchor="start" x="219.5" y="-62.8" font-family="Helvetica,sans-Serif" font-size="11.00" fill="#000000">...</text>
<polygon fill="#ffffff" stroke="transparent" points="216.5,-37.7 216.5,-56.7 300.5,-56.7 300.5,-37.7 216.5,-37.7"/>
<polygon fill="none" stroke="#000000" points="216.5,-37.7 216.5,-56.7 300.5,-56.7 300.5,-37.7 216.5,-37.7"/>
<text text-anchor="start" x="219.5" y="-43.8" font-family="Helvetica,sans-Serif" font-size="11.00" fill="#000000">&lt; 1</text>
<polygon fill="#ffffff" stroke="transparent" points="300.5,-37.7 300.5,-56.7 343.5,-56.7 343.5,-37.7 300.5,-37.7"/>
<polygon fill="none" stroke="#000000" points="300.5,-37.7 300.5,-56.7 343.5,-56.7 343.5,-37.7 300.5,-37.7"/>
<text text-anchor="start" x="334.3862" y="-43.8" font-family="Helvetica,sans-Serif" font-size="11.00" fill="#000000"> &#160;</text>
<polygon fill="#ffffff" stroke="transparent" points="343.5,-37.7 343.5,-56.7 387.5,-56.7 387.5,-37.7 343.5,-37.7"/>
<polygon fill="none" stroke="#000000" points="343.5,-37.7 343.5,-56.7 387.5,-56.7 387.5,-37.7 343.5,-37.7"/>
<text text-anchor="start" x="378.3862" y="-43.8" font-family="Helvetica,sans-Serif" font-size="11.00" fill="#000000"> &#160;</text>
</a>
</g>
</g>
<!-- ts_rest_operation_data&#45;&gt;operation_data -->
<g id="edge5" class="edge">
<title>ts_rest_operation_data:w&#45;&gt;operation_data:e</title>
<path fill="none" stroke="#000000" d="M205.8426,-67.0296C188.2722,-72.002 185.459,-90.2676 174,-110.7 140.432,-170.5546 202.1249,-259.7 133.5,-259.7"/>
<polygon fill="#000000" stroke="#000000" points="215.2109,-61.8298 216.2014,-69.7683 214.6137,-69.9664 213.6232,-62.0279 215.2109,-61.8298"/>
<polyline fill="none" stroke="#000000" points="216.5,-65.7 212.5308,-66.1952 "/>
<ellipse fill="none" stroke="#000000" cx="209.3554" cy="-66.5914" rx="3.2" ry="3.2"/>
</g>
</g>
</svg>
