<?xml version="1.0" encoding="UTF-8" standalone="no"?>
<!DOCTYPE svg PUBLIC "-//W3C//DTD SVG 1.1//EN"
 "http://www.w3.org/Graphics/SVG/1.1/DTD/svg11.dtd">
<!-- Generated by graphviz version 2.40.1 (20161225.0304)
 -->
<!-- Title: twoDegreesRelationshipsDiagram Pages: 1 -->
<svg width="437pt" height="387pt"
 viewBox="0.00 0.00 437.00 387.20" xmlns="http://www.w3.org/2000/svg" xmlns:xlink="http://www.w3.org/1999/xlink">
<g id="graph0" class="graph" transform="scale(1 1) rotate(0) translate(4 383.2)">
<title>twoDegreesRelationshipsDiagram</title>
<polygon fill="#ffffff" stroke="transparent" points="-4,4 -4,-383.2 433,-383.2 433,4 -4,4"/>
<text text-anchor="middle" x="72.4936" y="-7.3" font-family="Helvetica,sans-Serif" font-size="11.00" fill="#000000">Generated by SchemaSpy</text>
<!-- operation -->
<g id="node1" class="node">
<title>operation</title>
<g id="a_node1"><a xlink:href="../../tables/operation.html" xlink:title="operation" target="_top">
<polygon fill="#ffffff" stroke="transparent" points="255,-314.2 255,-375.2 348,-375.2 348,-314.2 255,-314.2"/>
<polygon fill="#f5f5f5" stroke="transparent" points="255.5,-351.7 255.5,-374.7 348.5,-374.7 348.5,-351.7 255.5,-351.7"/>
<polygon fill="none" stroke="#000000" points="255.5,-351.7 255.5,-374.7 348.5,-374.7 348.5,-351.7 255.5,-351.7"/>
<text text-anchor="start" x="260.5" y="-360.3" font-family="Helvetica,sans-Serif" font-weight="bold" font-size="11.00" fill="#000000">operation</text>
<text text-anchor="start" x="314.0219" y="-359.8" font-family="Helvetica,sans-Serif" font-size="11.00" fill="#000000">[table]</text>
<polygon fill="none" stroke="#000000" points="255.5,-332.7 255.5,-351.7 348.5,-351.7 348.5,-332.7 255.5,-332.7"/>
<text text-anchor="start" x="258.5" y="-338.8" font-family="Helvetica,sans-Serif" font-size="11.00" fill="#000000">...</text>
<polygon fill="#ffffff" stroke="transparent" points="255.5,-313.7 255.5,-332.7 295.5,-332.7 295.5,-313.7 255.5,-313.7"/>
<polygon fill="none" stroke="#000000" points="255.5,-313.7 255.5,-332.7 295.5,-332.7 295.5,-313.7 255.5,-313.7"/>
<text text-anchor="start" x="258.5" y="-319.8" font-family="Helvetica,sans-Serif" font-size="11.00" fill="#000000">&lt; 4</text>
<polygon fill="#ffffff" stroke="transparent" points="295.5,-313.7 295.5,-332.7 317.5,-332.7 317.5,-313.7 295.5,-313.7"/>
<polygon fill="none" stroke="#000000" points="295.5,-313.7 295.5,-332.7 317.5,-332.7 317.5,-313.7 295.5,-313.7"/>
<text text-anchor="start" x="308.3862" y="-319.8" font-family="Helvetica,sans-Serif" font-size="11.00" fill="#000000"> &#160;</text>
<polygon fill="#ffffff" stroke="transparent" points="317.5,-313.7 317.5,-332.7 348.5,-332.7 348.5,-313.7 317.5,-313.7"/>
<polygon fill="none" stroke="#000000" points="317.5,-313.7 317.5,-332.7 348.5,-332.7 348.5,-313.7 317.5,-313.7"/>
<text text-anchor="start" x="329.9053" y="-319.8" font-family="Helvetica,sans-Serif" font-size="11.00" fill="#000000">4 &gt;</text>
</a>
</g>
</g>
<!-- operation_data -->
<g id="node2" class="node">
<title>operation_data</title>
<g id="a_node2"><a xlink:href="../../tables/operation_data.html" xlink:title="operation_data" target="_top">
<polygon fill="#ffffff" stroke="transparent" points="8,-168.2 8,-251.2 133,-251.2 133,-168.2 8,-168.2"/>
<polygon fill="#f5f5f5" stroke="transparent" points="8.5,-227.7 8.5,-250.7 133.5,-250.7 133.5,-227.7 8.5,-227.7"/>
<polygon fill="none" stroke="#000000" points="8.5,-227.7 8.5,-250.7 133.5,-250.7 133.5,-227.7 8.5,-227.7"/>
<text text-anchor="start" x="13.5" y="-236.3" font-family="Helvetica,sans-Serif" font-weight="bold" font-size="11.00" fill="#000000">operation_data</text>
<text text-anchor="start" x="99.0219" y="-235.8" font-family="Helvetica,sans-Serif" font-size="11.00" fill="#000000">[table]</text>
<polygon fill="none" stroke="#000000" points="8.5,-205.7 8.5,-227.7 133.5,-227.7 133.5,-205.7 8.5,-205.7"/>
<image xlink:href="../../images/primaryKeys.png" width="11px" height="12px" preserveAspectRatio="xMinYMin meet" x="13.5" y="-222.7"/>
<text text-anchor="start" x="37.5" y="-212.8" font-family="Helvetica,sans-Serif" font-size="11.00" fill="#000000">data_hash</text>
<polygon fill="none" stroke="#000000" points="8.5,-186.7 8.5,-205.7 133.5,-205.7 133.5,-186.7 8.5,-186.7"/>
<text text-anchor="start" x="11.5" y="-192.8" font-family="Helvetica,sans-Serif" font-size="11.00" fill="#000000">...</text>
<polygon fill="#ffffff" stroke="transparent" points="8.5,-167.7 8.5,-186.7 60.5,-186.7 60.5,-167.7 8.5,-167.7"/>
<polygon fill="none" stroke="#000000" points="8.5,-167.7 8.5,-186.7 60.5,-186.7 60.5,-167.7 8.5,-167.7"/>
<text text-anchor="start" x="11.5" y="-173.8" font-family="Helvetica,sans-Serif" font-size="11.00" fill="#000000"> &#160;</text>
<polygon fill="#ffffff" stroke="transparent" points="60.5,-167.7 60.5,-186.7 92.5,-186.7 92.5,-167.7 60.5,-167.7"/>
<polygon fill="none" stroke="#000000" points="60.5,-167.7 60.5,-186.7 92.5,-186.7 92.5,-167.7 60.5,-167.7"/>
<text text-anchor="start" x="83.3862" y="-173.8" font-family="Helvetica,sans-Serif" font-size="11.00" fill="#000000"> &#160;</text>
<polygon fill="#ffffff" stroke="transparent" points="92.5,-167.7 92.5,-186.7 133.5,-186.7 133.5,-167.7 92.5,-167.7"/>
<polygon fill="none" stroke="#000000" points="92.5,-167.7 92.5,-186.7 133.5,-186.7 133.5,-167.7 92.5,-167.7"/>
<text text-anchor="start" x="114.9053" y="-173.8" font-family="Helvetica,sans-Serif" font-size="11.00" fill="#000000">4 &gt;</text>
</a>
</g>
</g>
<!-- operation&#45;&gt;operation_data -->
<g id="edge1" class="edge">
<title>operation:w&#45;&gt;operation_data:e</title>
<path fill="none" stroke="#000000" d="M240.8905,-341.1644C211.7418,-338.7882 198.4995,-328.2144 174,-303.7 143.8503,-273.532 176.151,-216.7 133.5,-216.7"/>
<polygon fill="#000000" stroke="#000000" points="247.5054,-341.4069 255.3681,-345.2976 251.5027,-341.5534 255.5,-341.7 255.5,-341.7 255.5,-341.7 251.5027,-341.5534 255.6319,-338.1024 247.5054,-341.4069 247.5054,-341.4069"/>
<ellipse fill="none" stroke="#000000" cx="244.3075" cy="-341.2896" rx="3.2" ry="3.2"/>
</g>
<!-- ts_graphql_operation_data -->
<g id="node3" class="node">
<title>ts_graphql_operation_data</title>
<g id="a_node3"><a xlink:href="../../tables/ts_graphql_operation_data.html" xlink:title="ts_graphql_operation_data" target="_top">
<polygon fill="#ffffff" stroke="transparent" points="205,-232.2 205,-293.2 398,-293.2 398,-232.2 205,-232.2"/>
<polygon fill="#f5f5f5" stroke="transparent" points="205.5,-269.7 205.5,-292.7 398.5,-292.7 398.5,-269.7 205.5,-269.7"/>
<polygon fill="none" stroke="#000000" points="205.5,-269.7 205.5,-292.7 398.5,-292.7 398.5,-269.7 205.5,-269.7"/>
<text text-anchor="start" x="210.5" y="-278.3" font-family="Helvetica,sans-Serif" font-weight="bold" font-size="11.00" fill="#000000">ts_graphql_operation_data</text>
<text text-anchor="start" x="364.0219" y="-277.8" font-family="Helvetica,sans-Serif" font-size="11.00" fill="#000000">[table]</text>
<polygon fill="none" stroke="#000000" points="205.5,-250.7 205.5,-269.7 398.5,-269.7 398.5,-250.7 205.5,-250.7"/>
<text text-anchor="start" x="208.5" y="-256.8" font-family="Helvetica,sans-Serif" font-size="11.00" fill="#000000">...</text>
<polygon fill="#ffffff" stroke="transparent" points="205.5,-231.7 205.5,-250.7 300.5,-250.7 300.5,-231.7 205.5,-231.7"/>
<polygon fill="none" stroke="#000000" points="205.5,-231.7 205.5,-250.7 300.5,-250.7 300.5,-231.7 205.5,-231.7"/>
<text text-anchor="start" x="208.5" y="-237.8" font-family="Helvetica,sans-Serif" font-size="11.00" fill="#000000">&lt; 1</text>
<polygon fill="#ffffff" stroke="transparent" points="300.5,-231.7 300.5,-250.7 349.5,-250.7 349.5,-231.7 300.5,-231.7"/>
<polygon fill="none" stroke="#000000" points="300.5,-231.7 300.5,-250.7 349.5,-250.7 349.5,-231.7 300.5,-231.7"/>
<text text-anchor="start" x="340.3862" y="-237.8" font-family="Helvetica,sans-Serif" font-size="11.00" fill="#000000"> &#160;</text>
<polygon fill="#ffffff" stroke="transparent" points="349.5,-231.7 349.5,-250.7 398.5,-250.7 398.5,-231.7 349.5,-231.7"/>
<polygon fill="none" stroke="#000000" points="349.5,-231.7 349.5,-250.7 398.5,-250.7 398.5,-231.7 349.5,-231.7"/>
<text text-anchor="start" x="389.3862" y="-237.8" font-family="Helvetica,sans-Serif" font-size="11.00" fill="#000000"> &#160;</text>
</a>
</g>
</g>
<!-- ts_graphql_operation_data&#45;&gt;operation_data -->
<g id="edge2" class="edge">
<title>ts_graphql_operation_data:w&#45;&gt;operation_data:e</title>
<path fill="none" stroke="#000000" d="M194.9421,-258.3659C168.3215,-251.108 166.8414,-216.7 133.5,-216.7"/>
<polygon fill="#000000" stroke="#000000" points="205.2078,-255.6313 204.2048,-263.5682 202.6175,-263.3676 203.6204,-255.4307 205.2078,-255.6313"/>
<polyline fill="none" stroke="#000000" points="205.5,-259.7 201.5316,-259.1985 "/>
<ellipse fill="none" stroke="#000000" cx="198.3568" cy="-258.7974" rx="3.2" ry="3.2"/>
</g>
<!-- ts_operation_data -->
<g id="node4" class="node">
<title>ts_operation_data</title>
<g id="a_node4"><a xlink:href="../../tables/ts_operation_data.html" xlink:title="ts_operation_data" target="_top">
<polygon fill="#ffffff" stroke="transparent" points="182,-120.7 182,-210.7 421,-210.7 421,-120.7 182,-120.7"/>
<polygon fill="#f5f5f5" stroke="transparent" points="184.5,-185.7 184.5,-208.7 419.5,-208.7 419.5,-185.7 184.5,-185.7"/>
<polygon fill="none" stroke="#000000" points="184.5,-185.7 184.5,-208.7 419.5,-208.7 419.5,-185.7 184.5,-185.7"/>
<text text-anchor="start" x="189.5" y="-194.3" font-family="Helvetica,sans-Serif" font-weight="bold" font-size="11.00" fill="#000000">ts_operation_data</text>
<text text-anchor="start" x="384.5437" y="-193.8" font-family="Helvetica,sans-Serif" font-size="11.00" fill="#000000">[table]</text>
<polygon fill="none" stroke="#000000" points="184.5,-163.7 184.5,-185.7 308.5,-185.7 308.5,-163.7 184.5,-163.7"/>
<image xlink:href="../../images/primaryKeys.png" width="11px" height="12px" preserveAspectRatio="xMinYMin meet" x="189.5" y="-180.7"/>
<text text-anchor="start" x="204.5" y="-170.8" font-family="Helvetica,sans-Serif" font-size="11.00" fill="#000000">data_hash</text>
<polygon fill="none" stroke="#000000" points="308.5,-163.7 308.5,-185.7 419.5,-185.7 419.5,-163.7 308.5,-163.7"/>
<text text-anchor="start" x="311.5" y="-171.4" font-family="Helvetica,sans-Serif" font-size="11.00" fill="#000000">varchar[2147483647]</text>
<polygon fill="#ffffff" stroke="transparent" points="184.5,-141.7 184.5,-163.7 308.5,-163.7 308.5,-141.7 184.5,-141.7"/>
<polygon fill="none" stroke="#000000" points="184.5,-141.7 184.5,-163.7 308.5,-163.7 308.5,-141.7 184.5,-141.7"/>
<text text-anchor="start" x="204.5" y="-148.8" font-family="Helvetica,sans-Serif" font-size="11.00" fill="#000000">scope_all</text>
<polygon fill="none" stroke="#000000" points="308.5,-141.7 308.5,-163.7 419.5,-163.7 419.5,-141.7 308.5,-141.7"/>
<text text-anchor="start" x="311.1159" y="-149.4" font-family="Helvetica,sans-Serif" font-size="11.00" fill="#000000">tsvector[2147483647]</text>
<polygon fill="#ffffff" stroke="transparent" points="184.5,-122.7 184.5,-141.7 250.5,-141.7 250.5,-122.7 184.5,-122.7"/>
<polygon fill="none" stroke="#000000" points="184.5,-122.7 184.5,-141.7 250.5,-141.7 250.5,-122.7 184.5,-122.7"/>
<text text-anchor="start" x="187.5" y="-128.8" font-family="Helvetica,sans-Serif" font-size="11.00" fill="#000000">&lt; 1</text>
<polygon fill="#ffffff" stroke="transparent" points="250.5,-122.7 250.5,-141.7 308.5,-141.7 308.5,-122.7 250.5,-122.7"/>
<polygon fill="none" stroke="#000000" points="250.5,-122.7 250.5,-141.7 308.5,-141.7 308.5,-122.7 250.5,-122.7"/>
<text text-anchor="start" x="299.3862" y="-128.8" font-family="Helvetica,sans-Serif" font-size="11.00" fill="#000000"> &#160;</text>
<polygon fill="#ffffff" stroke="transparent" points="308.5,-122.7 308.5,-141.7 419.5,-141.7 419.5,-122.7 308.5,-122.7"/>
<polygon fill="none" stroke="#000000" points="308.5,-122.7 308.5,-141.7 419.5,-141.7 419.5,-122.7 308.5,-122.7"/>
<text text-anchor="start" x="400.9053" y="-128.8" font-family="Helvetica,sans-Serif" font-size="11.00" fill="#000000">0 &gt;</text>
<polygon fill="none" stroke="#000000" stroke-width="2" points="183,-121.7 183,-209.7 420,-209.7 420,-121.7 183,-121.7"/>
</a>
</g>
</g>
<!-- ts_operation_data&#45;&gt;operation_data -->
<g id="edge3" class="edge">
<title>ts_operation_data:w&#45;&gt;operation_data:e</title>
<path fill="none" stroke="#000000" d="M174.1064,-176.9581C156.5762,-185.6819 158.7344,-216.7 133.5,-216.7"/>
<polygon fill="#000000" stroke="#000000" points="182.869,-170.961 184.5675,-178.7787 183.004,-179.1184 181.3055,-171.3007 182.869,-170.961"/>
<polyline fill="none" stroke="#000000" points="184.5,-174.7 180.5912,-175.5493 "/>
<ellipse fill="none" stroke="#000000" cx="177.4641" cy="-176.2287" rx="3.2" ry="3.2"/>
</g>
<!-- ts_rest_operation_data -->
<g id="node5" class="node">
<title>ts_rest_operation_data</title>
<g id="a_node5"><a xlink:href="../../tables/ts_rest_operation_data.html" xlink:title="ts_rest_operation_data" target="_top">
<polygon fill="#ffffff" stroke="transparent" points="216,-38.2 216,-99.2 387,-99.2 387,-38.2 216,-38.2"/>
<polygon fill="#f5f5f5" stroke="transparent" points="216.5,-75.7 216.5,-98.7 387.5,-98.7 387.5,-75.7 216.5,-75.7"/>
<polygon fill="none" stroke="#000000" points="216.5,-75.7 216.5,-98.7 387.5,-98.7 387.5,-75.7 216.5,-75.7"/>
<text text-anchor="start" x="221.5" y="-84.3" font-family="Helvetica,sans-Serif" font-weight="bold" font-size="11.00" fill="#000000">ts_rest_operation_data</text>
<text text-anchor="start" x="353.0219" y="-83.8" font-family="Helvetica,sans-Serif" font-size="11.00" fill="#000000">[table]</text>
<polygon fill="none" stroke="#000000" points="216.5,-56.7 216.5,-75.7 387.5,-75.7 387.5,-56.7 216.5,-56.7"/>
<text text-anchor="start" x="219.5" y="-62.8" font-family="Helvetica,sans-Serif" font-size="11.00" fill="#000000">...</text>
<polygon fill="#ffffff" stroke="transparent" points="216.5,-37.7 216.5,-56.7 300.5,-56.7 300.5,-37.7 216.5,-37.7"/>
<polygon fill="none" stroke="#000000" points="216.5,-37.7 216.5,-56.7 300.5,-56.7 300.5,-37.7 216.5,-37.7"/>
<text text-anchor="start" x="219.5" y="-43.8" font-family="Helvetica,sans-Serif" font-size="11.00" fill="#000000">&lt; 1</text>
<polygon fill="#ffffff" stroke="transparent" points="300.5,-37.7 300.5,-56.7 343.5,-56.7 343.5,-37.7 300.5,-37.7"/>
<polygon fill="none" stroke="#000000" points="300.5,-37.7 300.5,-56.7 343.5,-56.7 343.5,-37.7 300.5,-37.7"/>
<text text-anchor="start" x="334.3862" y="-43.8" font-family="Helvetica,sans-Serif" font-size="11.00" fill="#000000"> &#160;</text>
<polygon fill="#ffffff" stroke="transparent" points="343.5,-37.7 343.5,-56.7 387.5,-56.7 387.5,-37.7 343.5,-37.7"/>
<polygon fill="none" stroke="#000000" points="343.5,-37.7 343.5,-56.7 387.5,-56.7 387.5,-37.7 343.5,-37.7"/>
<text text-anchor="start" x="378.3862" y="-43.8" font-family="Helvetica,sans-Serif" font-size="11.00" fill="#000000"> &#160;</text>
</a>
</g>
</g>
<!-- ts_rest_operation_data&#45;&gt;operation_data -->
<g id="edge4" class="edge">
<title>ts_rest_operation_data:w&#45;&gt;operation_data:e</title>
<path fill="none" stroke="#000000" d="M205.9089,-67.069C188.5698,-72.1788 186.4615,-90.8631 174,-110.7 147.1725,-153.4053 183.9327,-216.7 133.5,-216.7"/>
<polygon fill="#000000" stroke="#000000" points="215.1938,-61.8356 216.2194,-69.7696 214.6326,-69.9747 213.607,-62.0407 215.1938,-61.8356"/>
<polyline fill="none" stroke="#000000" points="216.5,-65.7 212.533,-66.2128 "/>
<ellipse fill="none" stroke="#000000" cx="209.3594" cy="-66.623" rx="3.2" ry="3.2"/>
</g>
</g>
</svg>
