<?xml version="1.0" encoding="UTF-8" standalone="no"?>
<!DOCTYPE svg PUBLIC "-//W3C//DTD SVG 1.1//EN"
 "http://www.w3.org/Graphics/SVG/1.1/DTD/svg11.dtd">
<!-- Generated by graphviz version 2.40.1 (20161225.0304)
 -->
<!-- Title: twoDegreesRelationshipsDiagram Pages: 1 -->
<svg width="466pt" height="557pt"
 viewBox="0.00 0.00 466.00 556.70" xmlns="http://www.w3.org/2000/svg" xmlns:xlink="http://www.w3.org/1999/xlink">
<g id="graph0" class="graph" transform="scale(1 1) rotate(0) translate(4 552.7)">
<title>twoDegreesRelationshipsDiagram</title>
<polygon fill="#ffffff" stroke="transparent" points="-4,4 -4,-552.7 462,-552.7 462,4 -4,4"/>
<text text-anchor="middle" x="72.4936" y="-7.3" font-family="Helvetica,sans-Serif" font-size="11.00" fill="#000000">Generated by SchemaSpy</text>
<!-- fts_operation_data -->
<g id="node1" class="node">
<title>fts_operation_data</title>
<g id="a_node1"><a xlink:href="../../tables/fts_operation_data.html" xlink:title="fts_operation_data" target="_top">
<polygon fill="#ffffff" stroke="transparent" points="243,-483.7 243,-544.7 389,-544.7 389,-483.7 243,-483.7"/>
<polygon fill="#f5f5f5" stroke="transparent" points="243,-521.2 243,-544.2 389,-544.2 389,-521.2 243,-521.2"/>
<polygon fill="none" stroke="#000000" points="243,-521.2 243,-544.2 389,-544.2 389,-521.2 243,-521.2"/>
<text text-anchor="start" x="248" y="-529.8" font-family="Helvetica,sans-Serif" font-weight="bold" font-size="11.00" fill="#000000">fts_operation_data</text>
<text text-anchor="start" x="354.5219" y="-529.3" font-family="Helvetica,sans-Serif" font-size="11.00" fill="#000000">[table]</text>
<polygon fill="none" stroke="#000000" points="243,-502.2 243,-521.2 389,-521.2 389,-502.2 243,-502.2"/>
<text text-anchor="start" x="246" y="-508.3" font-family="Helvetica,sans-Serif" font-size="11.00" fill="#000000">...</text>
<polygon fill="#ffffff" stroke="transparent" points="243,-483.2 243,-502.2 314,-502.2 314,-483.2 243,-483.2"/>
<polygon fill="none" stroke="#000000" points="243,-483.2 243,-502.2 314,-502.2 314,-483.2 243,-483.2"/>
<text text-anchor="start" x="246" y="-489.3" font-family="Helvetica,sans-Serif" font-size="11.00" fill="#000000">&lt; 1</text>
<polygon fill="#ffffff" stroke="transparent" points="314,-483.2 314,-502.2 351,-502.2 351,-483.2 314,-483.2"/>
<polygon fill="none" stroke="#000000" points="314,-483.2 314,-502.2 351,-502.2 351,-483.2 314,-483.2"/>
<text text-anchor="start" x="341.8862" y="-489.3" font-family="Helvetica,sans-Serif" font-size="11.00" fill="#000000"> &#160;</text>
<polygon fill="#ffffff" stroke="transparent" points="351,-483.2 351,-502.2 389,-502.2 389,-483.2 351,-483.2"/>
<polygon fill="none" stroke="#000000" points="351,-483.2 351,-502.2 389,-502.2 389,-483.2 351,-483.2"/>
<text text-anchor="start" x="379.8862" y="-489.3" font-family="Helvetica,sans-Serif" font-size="11.00" fill="#000000"> &#160;</text>
</a>
</g>
</g>
<!-- operation_data -->
<g id="node2" class="node">
<title>operation_data</title>
<g id="a_node2"><a xlink:href="../../tables/operation_data.html" xlink:title="operation_data" target="_top">
<polygon fill="#ffffff" stroke="transparent" points="8,-298.7 8,-381.7 133,-381.7 133,-298.7 8,-298.7"/>
<polygon fill="#f5f5f5" stroke="transparent" points="8.5,-358.2 8.5,-381.2 133.5,-381.2 133.5,-358.2 8.5,-358.2"/>
<polygon fill="none" stroke="#000000" points="8.5,-358.2 8.5,-381.2 133.5,-381.2 133.5,-358.2 8.5,-358.2"/>
<text text-anchor="start" x="13.5" y="-366.8" font-family="Helvetica,sans-Serif" font-weight="bold" font-size="11.00" fill="#000000">operation_data</text>
<text text-anchor="start" x="99.0219" y="-366.3" font-family="Helvetica,sans-Serif" font-size="11.00" fill="#000000">[table]</text>
<polygon fill="none" stroke="#000000" points="8.5,-336.2 8.5,-358.2 133.5,-358.2 133.5,-336.2 8.5,-336.2"/>
<image xlink:href="../../images/primaryKeys.png" width="11px" height="12px" preserveAspectRatio="xMinYMin meet" x="13.5" y="-353.2"/>
<text text-anchor="start" x="37.5" y="-343.3" font-family="Helvetica,sans-Serif" font-size="11.00" fill="#000000">data_hash</text>
<polygon fill="none" stroke="#000000" points="8.5,-317.2 8.5,-336.2 133.5,-336.2 133.5,-317.2 8.5,-317.2"/>
<text text-anchor="start" x="11.5" y="-323.3" font-family="Helvetica,sans-Serif" font-size="11.00" fill="#000000">...</text>
<polygon fill="#ffffff" stroke="transparent" points="8.5,-298.2 8.5,-317.2 60.5,-317.2 60.5,-298.2 8.5,-298.2"/>
<polygon fill="none" stroke="#000000" points="8.5,-298.2 8.5,-317.2 60.5,-317.2 60.5,-298.2 8.5,-298.2"/>
<text text-anchor="start" x="11.5" y="-304.3" font-family="Helvetica,sans-Serif" font-size="11.00" fill="#000000"> &#160;</text>
<polygon fill="#ffffff" stroke="transparent" points="60.5,-298.2 60.5,-317.2 92.5,-317.2 92.5,-298.2 60.5,-298.2"/>
<polygon fill="none" stroke="#000000" points="60.5,-298.2 60.5,-317.2 92.5,-317.2 92.5,-298.2 60.5,-298.2"/>
<text text-anchor="start" x="83.3862" y="-304.3" font-family="Helvetica,sans-Serif" font-size="11.00" fill="#000000"> &#160;</text>
<polygon fill="#ffffff" stroke="transparent" points="92.5,-298.2 92.5,-317.2 133.5,-317.2 133.5,-298.2 92.5,-298.2"/>
<polygon fill="none" stroke="#000000" points="92.5,-298.2 92.5,-317.2 133.5,-317.2 133.5,-298.2 92.5,-298.2"/>
<text text-anchor="start" x="114.9053" y="-304.3" font-family="Helvetica,sans-Serif" font-size="11.00" fill="#000000">5 &gt;</text>
</a>
</g>
</g>
<!-- fts_operation_data&#45;&gt;operation_data -->
<g id="edge1" class="edge">
<title>fts_operation_data:w&#45;&gt;operation_data:e</title>
<path fill="none" stroke="#000000" d="M232.3038,-510.7993C205.299,-508.606 193.8283,-497.2638 174,-473.2 136.5942,-427.8039 192.3218,-347.2 133.5,-347.2"/>
<polygon fill="#000000" stroke="#000000" points="242.3503,-507.1728 242.0508,-515.1672 240.4519,-515.1073 240.7515,-507.1129 242.3503,-507.1728"/>
<polyline fill="none" stroke="#000000" points="243,-511.2 239.0028,-511.0502 "/>
<ellipse fill="none" stroke="#000000" cx="235.805" cy="-510.9304" rx="3.2" ry="3.2"/>
</g>
<!-- operation -->
<g id="node3" class="node">
<title>operation</title>
<g id="a_node3"><a xlink:href="../../tables/operation.html" xlink:title="operation" target="_top">
<polygon fill="#ffffff" stroke="transparent" points="269.5,-401.7 269.5,-462.7 362.5,-462.7 362.5,-401.7 269.5,-401.7"/>
<polygon fill="#f5f5f5" stroke="transparent" points="270,-439.2 270,-462.2 363,-462.2 363,-439.2 270,-439.2"/>
<polygon fill="none" stroke="#000000" points="270,-439.2 270,-462.2 363,-462.2 363,-439.2 270,-439.2"/>
<text text-anchor="start" x="275" y="-447.8" font-family="Helvetica,sans-Serif" font-weight="bold" font-size="11.00" fill="#000000">operation</text>
<text text-anchor="start" x="328.5219" y="-447.3" font-family="Helvetica,sans-Serif" font-size="11.00" fill="#000000">[table]</text>
<polygon fill="none" stroke="#000000" points="270,-420.2 270,-439.2 363,-439.2 363,-420.2 270,-420.2"/>
<text text-anchor="start" x="273" y="-426.3" font-family="Helvetica,sans-Serif" font-size="11.00" fill="#000000">...</text>
<polygon fill="#ffffff" stroke="transparent" points="270,-401.2 270,-420.2 310,-420.2 310,-401.2 270,-401.2"/>
<polygon fill="none" stroke="#000000" points="270,-401.2 270,-420.2 310,-420.2 310,-401.2 270,-401.2"/>
<text text-anchor="start" x="273" y="-407.3" font-family="Helvetica,sans-Serif" font-size="11.00" fill="#000000">&lt; 4</text>
<polygon fill="#ffffff" stroke="transparent" points="310,-401.2 310,-420.2 332,-420.2 332,-401.2 310,-401.2"/>
<polygon fill="none" stroke="#000000" points="310,-401.2 310,-420.2 332,-420.2 332,-401.2 310,-401.2"/>
<text text-anchor="start" x="322.8862" y="-407.3" font-family="Helvetica,sans-Serif" font-size="11.00" fill="#000000"> &#160;</text>
<polygon fill="#ffffff" stroke="transparent" points="332,-401.2 332,-420.2 363,-420.2 363,-401.2 332,-401.2"/>
<polygon fill="none" stroke="#000000" points="332,-401.2 332,-420.2 363,-420.2 363,-401.2 332,-401.2"/>
<text text-anchor="start" x="344.4053" y="-407.3" font-family="Helvetica,sans-Serif" font-size="11.00" fill="#000000">4 &gt;</text>
</a>
</g>
</g>
<!-- operation&#45;&gt;operation_data -->
<g id="edge2" class="edge">
<title>operation:w&#45;&gt;operation_data:e</title>
<path fill="none" stroke="#000000" d="M255.1567,-428.7017C220.8817,-426.1911 207.3921,-414.1357 174,-391.2 152.0916,-376.152 160.0786,-347.2 133.5,-347.2"/>
<polygon fill="#000000" stroke="#000000" points="262.0045,-428.9315 269.8792,-432.798 266.0023,-429.0658 270,-429.2 270,-429.2 270,-429.2 266.0023,-429.0658 270.1208,-425.602 262.0045,-428.9315 262.0045,-428.9315"/>
<ellipse fill="none" stroke="#000000" cx="258.8063" cy="-428.8241" rx="3.2" ry="3.2"/>
</g>
<!-- ts_graphql_operation_data -->
<g id="node4" class="node">
<title>ts_graphql_operation_data</title>
<g id="a_node4"><a xlink:href="../../tables/ts_graphql_operation_data.html" xlink:title="ts_graphql_operation_data" target="_top">
<polygon fill="#ffffff" stroke="transparent" points="219.5,-319.7 219.5,-380.7 412.5,-380.7 412.5,-319.7 219.5,-319.7"/>
<polygon fill="#f5f5f5" stroke="transparent" points="220,-357.2 220,-380.2 413,-380.2 413,-357.2 220,-357.2"/>
<polygon fill="none" stroke="#000000" points="220,-357.2 220,-380.2 413,-380.2 413,-357.2 220,-357.2"/>
<text text-anchor="start" x="225" y="-365.8" font-family="Helvetica,sans-Serif" font-weight="bold" font-size="11.00" fill="#000000">ts_graphql_operation_data</text>
<text text-anchor="start" x="378.5219" y="-365.3" font-family="Helvetica,sans-Serif" font-size="11.00" fill="#000000">[table]</text>
<polygon fill="none" stroke="#000000" points="220,-338.2 220,-357.2 413,-357.2 413,-338.2 220,-338.2"/>
<text text-anchor="start" x="223" y="-344.3" font-family="Helvetica,sans-Serif" font-size="11.00" fill="#000000">...</text>
<polygon fill="#ffffff" stroke="transparent" points="220,-319.2 220,-338.2 315,-338.2 315,-319.2 220,-319.2"/>
<polygon fill="none" stroke="#000000" points="220,-319.2 220,-338.2 315,-338.2 315,-319.2 220,-319.2"/>
<text text-anchor="start" x="223" y="-325.3" font-family="Helvetica,sans-Serif" font-size="11.00" fill="#000000">&lt; 1</text>
<polygon fill="#ffffff" stroke="transparent" points="315,-319.2 315,-338.2 364,-338.2 364,-319.2 315,-319.2"/>
<polygon fill="none" stroke="#000000" points="315,-319.2 315,-338.2 364,-338.2 364,-319.2 315,-319.2"/>
<text text-anchor="start" x="354.8862" y="-325.3" font-family="Helvetica,sans-Serif" font-size="11.00" fill="#000000"> &#160;</text>
<polygon fill="#ffffff" stroke="transparent" points="364,-319.2 364,-338.2 413,-338.2 413,-319.2 364,-319.2"/>
<polygon fill="none" stroke="#000000" points="364,-319.2 364,-338.2 413,-338.2 413,-319.2 364,-319.2"/>
<text text-anchor="start" x="403.8862" y="-325.3" font-family="Helvetica,sans-Serif" font-size="11.00" fill="#000000"> &#160;</text>
</a>
</g>
</g>
<!-- ts_graphql_operation_data&#45;&gt;operation_data -->
<g id="edge3" class="edge">
<title>ts_graphql_operation_data:w&#45;&gt;operation_data:e</title>
<path fill="none" stroke="#000000" d="M209.5082,-347.2C179.4034,-347.2 168.1901,-347.2 133.5,-347.2"/>
<polygon fill="#000000" stroke="#000000" points="219.2,-343.2 219.2,-351.2 217.6,-351.2 217.6,-343.2 219.2,-343.2"/>
<polyline fill="none" stroke="#000000" points="220,-347.2 216,-347.2 "/>
<ellipse fill="none" stroke="#000000" cx="212.8" cy="-347.2001" rx="3.2" ry="3.2"/>
</g>
<!-- ts_operation_data -->
<g id="node5" class="node">
<title>ts_operation_data</title>
<g id="a_node5"><a xlink:href="../../tables/ts_operation_data.html" xlink:title="ts_operation_data" target="_top">
<polygon fill="#ffffff" stroke="transparent" points="245,-237.7 245,-298.7 387,-298.7 387,-237.7 245,-237.7"/>
<polygon fill="#f5f5f5" stroke="transparent" points="245,-275.2 245,-298.2 387,-298.2 387,-275.2 245,-275.2"/>
<polygon fill="none" stroke="#000000" points="245,-275.2 245,-298.2 387,-298.2 387,-275.2 245,-275.2"/>
<text text-anchor="start" x="250" y="-283.8" font-family="Helvetica,sans-Serif" font-weight="bold" font-size="11.00" fill="#000000">ts_operation_data</text>
<text text-anchor="start" x="352.5219" y="-283.3" font-family="Helvetica,sans-Serif" font-size="11.00" fill="#000000">[table]</text>
<polygon fill="none" stroke="#000000" points="245,-256.2 245,-275.2 387,-275.2 387,-256.2 245,-256.2"/>
<text text-anchor="start" x="248" y="-262.3" font-family="Helvetica,sans-Serif" font-size="11.00" fill="#000000">...</text>
<polygon fill="#ffffff" stroke="transparent" points="245,-237.2 245,-256.2 314,-256.2 314,-237.2 245,-237.2"/>
<polygon fill="none" stroke="#000000" points="245,-237.2 245,-256.2 314,-256.2 314,-237.2 245,-237.2"/>
<text text-anchor="start" x="248" y="-243.3" font-family="Helvetica,sans-Serif" font-size="11.00" fill="#000000">&lt; 1</text>
<polygon fill="#ffffff" stroke="transparent" points="314,-237.2 314,-256.2 350,-256.2 350,-237.2 314,-237.2"/>
<polygon fill="none" stroke="#000000" points="314,-237.2 314,-256.2 350,-256.2 350,-237.2 314,-237.2"/>
<text text-anchor="start" x="340.8862" y="-243.3" font-family="Helvetica,sans-Serif" font-size="11.00" fill="#000000"> &#160;</text>
<polygon fill="#ffffff" stroke="transparent" points="350,-237.2 350,-256.2 387,-256.2 387,-237.2 350,-237.2"/>
<polygon fill="none" stroke="#000000" points="350,-237.2 350,-256.2 387,-256.2 387,-237.2 350,-237.2"/>
<text text-anchor="start" x="377.8862" y="-243.3" font-family="Helvetica,sans-Serif" font-size="11.00" fill="#000000"> &#160;</text>
</a>
</g>
</g>
<!-- ts_operation_data&#45;&gt;operation_data -->
<g id="edge4" class="edge">
<title>ts_operation_data:w&#45;&gt;operation_data:e</title>
<path fill="none" stroke="#000000" d="M234.2775,-265.8907C206.666,-269.7293 200.3525,-288.9925 174,-309.2 154.4131,-324.2196 158.1827,-347.2 133.5,-347.2"/>
<polygon fill="#000000" stroke="#000000" points="243.9445,-261.2597 244.4588,-269.2432 242.8621,-269.346 242.3478,-261.3626 243.9445,-261.2597"/>
<polyline fill="none" stroke="#000000" points="245,-265.2 241.0083,-265.4572 "/>
<ellipse fill="none" stroke="#000000" cx="237.8149" cy="-265.6629" rx="3.2" ry="3.2"/>
</g>
<!-- ts_rest_operation_data -->
<g id="node6" class="node">
<title>ts_rest_operation_data</title>
<g id="a_node6"><a xlink:href="../../tables/ts_rest_operation_data.html" xlink:title="ts_rest_operation_data" target="_top">
<polygon fill="#ffffff" stroke="transparent" points="182,-38.2 182,-216.2 450,-216.2 450,-38.2 182,-38.2"/>
<polygon fill="#f5f5f5" stroke="transparent" points="184,-191.2 184,-214.2 448,-214.2 448,-191.2 184,-191.2"/>
<polygon fill="none" stroke="#000000" points="184,-191.2 184,-214.2 448,-214.2 448,-191.2 184,-191.2"/>
<text text-anchor="start" x="189" y="-199.8" font-family="Helvetica,sans-Serif" font-weight="bold" font-size="11.00" fill="#000000">ts_rest_operation_data</text>
<text text-anchor="start" x="413.0437" y="-199.3" font-family="Helvetica,sans-Serif" font-size="11.00" fill="#000000">[table]</text>
<polygon fill="none" stroke="#000000" points="184,-169.2 184,-191.2 337,-191.2 337,-169.2 184,-169.2"/>
<image xlink:href="../../images/primaryKeys.png" width="11px" height="12px" preserveAspectRatio="xMinYMin meet" x="189" y="-186.2"/>
<text text-anchor="start" x="204" y="-176.3" font-family="Helvetica,sans-Serif" font-size="11.00" fill="#000000">data_hash</text>
<polygon fill="none" stroke="#000000" points="337,-169.2 337,-191.2 448,-191.2 448,-169.2 337,-169.2"/>
<text text-anchor="start" x="340" y="-176.9" font-family="Helvetica,sans-Serif" font-size="11.00" fill="#000000">varchar[2147483647]</text>
<polygon fill="#ffffff" stroke="transparent" points="184,-147.2 184,-169.2 337,-169.2 337,-147.2 184,-147.2"/>
<polygon fill="none" stroke="#000000" points="184,-147.2 184,-169.2 337,-169.2 337,-147.2 184,-147.2"/>
<text text-anchor="start" x="204" y="-154.3" font-family="Helvetica,sans-Serif" font-size="11.00" fill="#000000">scope_request</text>
<polygon fill="none" stroke="#000000" points="337,-147.2 337,-169.2 448,-169.2 448,-147.2 337,-147.2"/>
<text text-anchor="start" x="339.6159" y="-154.9" font-family="Helvetica,sans-Serif" font-size="11.00" fill="#000000">tsvector[2147483647]</text>
<polygon fill="#ffffff" stroke="transparent" points="184,-125.2 184,-147.2 337,-147.2 337,-125.2 184,-125.2"/>
<polygon fill="none" stroke="#000000" points="184,-125.2 184,-147.2 337,-147.2 337,-125.2 184,-125.2"/>
<text text-anchor="start" x="204" y="-132.3" font-family="Helvetica,sans-Serif" font-size="11.00" fill="#000000">scope_response</text>
<polygon fill="none" stroke="#000000" points="337,-125.2 337,-147.2 448,-147.2 448,-125.2 337,-125.2"/>
<text text-anchor="start" x="339.6159" y="-132.9" font-family="Helvetica,sans-Serif" font-size="11.00" fill="#000000">tsvector[2147483647]</text>
<polygon fill="#ffffff" stroke="transparent" points="184,-103.2 184,-125.2 337,-125.2 337,-103.2 184,-103.2"/>
<polygon fill="none" stroke="#000000" points="184,-103.2 184,-125.2 337,-125.2 337,-103.2 184,-103.2"/>
<text text-anchor="start" x="204" y="-110.3" font-family="Helvetica,sans-Serif" font-size="11.00" fill="#000000">scope_annotation</text>
<polygon fill="none" stroke="#000000" points="337,-103.2 337,-125.2 448,-125.2 448,-103.2 337,-103.2"/>
<text text-anchor="start" x="339.6159" y="-110.9" font-family="Helvetica,sans-Serif" font-size="11.00" fill="#000000">tsvector[2147483647]</text>
<polygon fill="#ffffff" stroke="transparent" points="184,-81.2 184,-103.2 337,-103.2 337,-81.2 184,-81.2"/>
<polygon fill="none" stroke="#000000" points="184,-81.2 184,-103.2 337,-103.2 337,-81.2 184,-81.2"/>
<text text-anchor="start" x="204" y="-88.3" font-family="Helvetica,sans-Serif" font-size="11.00" fill="#000000">scope_properties</text>
<polygon fill="none" stroke="#000000" points="337,-81.2 337,-103.2 448,-103.2 448,-81.2 337,-81.2"/>
<text text-anchor="start" x="339.6159" y="-88.9" font-family="Helvetica,sans-Serif" font-size="11.00" fill="#000000">tsvector[2147483647]</text>
<polygon fill="#ffffff" stroke="transparent" points="184,-59.2 184,-81.2 337,-81.2 337,-59.2 184,-59.2"/>
<polygon fill="none" stroke="#000000" points="184,-59.2 184,-81.2 337,-81.2 337,-59.2 184,-59.2"/>
<text text-anchor="start" x="204" y="-66.3" font-family="Helvetica,sans-Serif" font-size="11.00" fill="#000000">scope_examples</text>
<polygon fill="none" stroke="#000000" points="337,-59.2 337,-81.2 448,-81.2 448,-59.2 337,-59.2"/>
<text text-anchor="start" x="339.6159" y="-66.9" font-family="Helvetica,sans-Serif" font-size="11.00" fill="#000000">tsvector[2147483647]</text>
<polygon fill="#ffffff" stroke="transparent" points="184,-40.2 184,-59.2 265,-59.2 265,-40.2 184,-40.2"/>
<polygon fill="none" stroke="#000000" points="184,-40.2 184,-59.2 265,-59.2 265,-40.2 184,-40.2"/>
<text text-anchor="start" x="187" y="-46.3" font-family="Helvetica,sans-Serif" font-size="11.00" fill="#000000">&lt; 1</text>
<polygon fill="#ffffff" stroke="transparent" points="265,-40.2 265,-59.2 337,-59.2 337,-40.2 265,-40.2"/>
<polygon fill="none" stroke="#000000" points="265,-40.2 265,-59.2 337,-59.2 337,-40.2 265,-40.2"/>
<text text-anchor="start" x="327.8862" y="-46.3" font-family="Helvetica,sans-Serif" font-size="11.00" fill="#000000"> &#160;</text>
<polygon fill="#ffffff" stroke="transparent" points="337,-40.2 337,-59.2 448,-59.2 448,-40.2 337,-40.2"/>
<polygon fill="none" stroke="#000000" points="337,-40.2 337,-59.2 448,-59.2 448,-40.2 337,-40.2"/>
<text text-anchor="start" x="429.4053" y="-46.3" font-family="Helvetica,sans-Serif" font-size="11.00" fill="#000000">0 &gt;</text>
<polygon fill="none" stroke="#000000" stroke-width="2" points="183,-39.2 183,-215.2 449,-215.2 449,-39.2 183,-39.2"/>
</a>
</g>
</g>
<!-- ts_rest_operation_data&#45;&gt;operation_data -->
<g id="edge5" class="edge">
<title>ts_rest_operation_data:w&#45;&gt;operation_data:e</title>
<path fill="none" stroke="#000000" d="M173.5483,-181.4482C116.6105,-196.7303 207.1039,-347.2 133.5,-347.2"/>
<polygon fill="#000000" stroke="#000000" points="182.7313,-176.3231 183.68,-184.2667 182.0913,-184.4564 181.1426,-176.5128 182.7313,-176.3231"/>
<polyline fill="none" stroke="#000000" points="184,-180.2 180.0282,-180.6744 "/>
<ellipse fill="none" stroke="#000000" cx="176.8508" cy="-181.0539" rx="3.2" ry="3.2"/>
</g>
</g>
</svg>
