<?xml version="1.0" encoding="UTF-8" standalone="no"?>
<!DOCTYPE svg PUBLIC "-//W3C//DTD SVG 1.1//EN"
 "http://www.w3.org/Graphics/SVG/1.1/DTD/svg11.dtd">
<!-- Generated by graphviz version 2.40.1 (20161225.0304)
 -->
<!-- Title: oneDegreeRelationshipsDiagram Pages: 1 -->
<svg width="466pt" height="228pt"
 viewBox="0.00 0.00 466.00 228.20" xmlns="http://www.w3.org/2000/svg" xmlns:xlink="http://www.w3.org/1999/xlink">
<g id="graph0" class="graph" transform="scale(1 1) rotate(0) translate(4 224.2)">
<title>oneDegreeRelationshipsDiagram</title>
<polygon fill="#ffffff" stroke="transparent" points="-4,4 -4,-224.2 462,-224.2 462,4 -4,4"/>
<text text-anchor="middle" x="72.4936" y="-7.3" font-family="Helvetica,sans-Serif" font-size="11.00" fill="#000000">Generated by SchemaSpy</text>
<!-- ts_rest_operation_data -->
<g id="node1" class="node">
<title>ts_rest_operation_data</title>
<g id="a_node1"><a xlink:href="../../tables/ts_rest_operation_data.html" xlink:title="ts_rest_operation_data" target="_top">
<polygon fill="#ffffff" stroke="transparent" points="182,-38.2 182,-216.2 450,-216.2 450,-38.2 182,-38.2"/>
<polygon fill="#f5f5f5" stroke="transparent" points="184,-191.2 184,-214.2 448,-214.2 448,-191.2 184,-191.2"/>
<polygon fill="none" stroke="#000000" points="184,-191.2 184,-214.2 448,-214.2 448,-191.2 184,-191.2"/>
<text text-anchor="start" x="189" y="-199.8" font-family="Helvetica,sans-Serif" font-weight="bold" font-size="11.00" fill="#000000">ts_rest_operation_data</text>
<text text-anchor="start" x="413.0437" y="-199.3" font-family="Helvetica,sans-Serif" font-size="11.00" fill="#000000">[table]</text>
<polygon fill="none" stroke="#000000" points="184,-169.2 184,-191.2 337,-191.2 337,-169.2 184,-169.2"/>
<image xlink:href="../../images/primaryKeys.png" width="11px" height="12px" preserveAspectRatio="xMinYMin meet" x="189" y="-186.2"/>
<text text-anchor="start" x="204" y="-176.3" font-family="Helvetica,sans-Serif" font-size="11.00" fill="#000000">data_hash</text>
<polygon fill="none" stroke="#000000" points="337,-169.2 337,-191.2 448,-191.2 448,-169.2 337,-169.2"/>
<text text-anchor="start" x="340" y="-176.9" font-family="Helvetica,sans-Serif" font-size="11.00" fill="#000000">varchar[2147483647]</text>
<polygon fill="#ffffff" stroke="transparent" points="184,-147.2 184,-169.2 337,-169.2 337,-147.2 184,-147.2"/>
<polygon fill="none" stroke="#000000" points="184,-147.2 184,-169.2 337,-169.2 337,-147.2 184,-147.2"/>
<text text-anchor="start" x="204" y="-154.3" font-family="Helvetica,sans-Serif" font-size="11.00" fill="#000000">scope_request</text>
<polygon fill="none" stroke="#000000" points="337,-147.2 337,-169.2 448,-169.2 448,-147.2 337,-147.2"/>
<text text-anchor="start" x="339.6159" y="-154.9" font-family="Helvetica,sans-Serif" font-size="11.00" fill="#000000">tsvector[2147483647]</text>
<polygon fill="#ffffff" stroke="transparent" points="184,-125.2 184,-147.2 337,-147.2 337,-125.2 184,-125.2"/>
<polygon fill="none" stroke="#000000" points="184,-125.2 184,-147.2 337,-147.2 337,-125.2 184,-125.2"/>
<text text-anchor="start" x="204" y="-132.3" font-family="Helvetica,sans-Serif" font-size="11.00" fill="#000000">scope_response</text>
<polygon fill="none" stroke="#000000" points="337,-125.2 337,-147.2 448,-147.2 448,-125.2 337,-125.2"/>
<text text-anchor="start" x="339.6159" y="-132.9" font-family="Helvetica,sans-Serif" font-size="11.00" fill="#000000">tsvector[2147483647]</text>
<polygon fill="#ffffff" stroke="transparent" points="184,-103.2 184,-125.2 337,-125.2 337,-103.2 184,-103.2"/>
<polygon fill="none" stroke="#000000" points="184,-103.2 184,-125.2 337,-125.2 337,-103.2 184,-103.2"/>
<text text-anchor="start" x="204" y="-110.3" font-family="Helvetica,sans-Serif" font-size="11.00" fill="#000000">scope_annotation</text>
<polygon fill="none" stroke="#000000" points="337,-103.2 337,-125.2 448,-125.2 448,-103.2 337,-103.2"/>
<text text-anchor="start" x="339.6159" y="-110.9" font-family="Helvetica,sans-Serif" font-size="11.00" fill="#000000">tsvector[2147483647]</text>
<polygon fill="#ffffff" stroke="transparent" points="184,-81.2 184,-103.2 337,-103.2 337,-81.2 184,-81.2"/>
<polygon fill="none" stroke="#000000" points="184,-81.2 184,-103.2 337,-103.2 337,-81.2 184,-81.2"/>
<text text-anchor="start" x="204" y="-88.3" font-family="Helvetica,sans-Serif" font-size="11.00" fill="#000000">scope_properties</text>
<polygon fill="none" stroke="#000000" points="337,-81.2 337,-103.2 448,-103.2 448,-81.2 337,-81.2"/>
<text text-anchor="start" x="339.6159" y="-88.9" font-family="Helvetica,sans-Serif" font-size="11.00" fill="#000000">tsvector[2147483647]</text>
<polygon fill="#ffffff" stroke="transparent" points="184,-59.2 184,-81.2 337,-81.2 337,-59.2 184,-59.2"/>
<polygon fill="none" stroke="#000000" points="184,-59.2 184,-81.2 337,-81.2 337,-59.2 184,-59.2"/>
<text text-anchor="start" x="204" y="-66.3" font-family="Helvetica,sans-Serif" font-size="11.00" fill="#000000">scope_examples</text>
<polygon fill="none" stroke="#000000" points="337,-59.2 337,-81.2 448,-81.2 448,-59.2 337,-59.2"/>
<text text-anchor="start" x="339.6159" y="-66.9" font-family="Helvetica,sans-Serif" font-size="11.00" fill="#000000">tsvector[2147483647]</text>
<polygon fill="#ffffff" stroke="transparent" points="184,-40.2 184,-59.2 265,-59.2 265,-40.2 184,-40.2"/>
<polygon fill="none" stroke="#000000" points="184,-40.2 184,-59.2 265,-59.2 265,-40.2 184,-40.2"/>
<text text-anchor="start" x="187" y="-46.3" font-family="Helvetica,sans-Serif" font-size="11.00" fill="#000000">&lt; 1</text>
<polygon fill="#ffffff" stroke="transparent" points="265,-40.2 265,-59.2 337,-59.2 337,-40.2 265,-40.2"/>
<polygon fill="none" stroke="#000000" points="265,-40.2 265,-59.2 337,-59.2 337,-40.2 265,-40.2"/>
<text text-anchor="start" x="327.8862" y="-46.3" font-family="Helvetica,sans-Serif" font-size="11.00" fill="#000000"> &#160;</text>
<polygon fill="#ffffff" stroke="transparent" points="337,-40.2 337,-59.2 448,-59.2 448,-40.2 337,-40.2"/>
<polygon fill="none" stroke="#000000" points="337,-40.2 337,-59.2 448,-59.2 448,-40.2 337,-40.2"/>
<text text-anchor="start" x="429.4053" y="-46.3" font-family="Helvetica,sans-Serif" font-size="11.00" fill="#000000">0 &gt;</text>
<polygon fill="none" stroke="#000000" stroke-width="2" points="183,-39.2 183,-215.2 449,-215.2 449,-39.2 183,-39.2"/>
</a>
</g>
</g>
<!-- operation_data -->
<g id="node2" class="node">
<title>operation_data</title>
<g id="a_node2"><a xlink:href="../../tables/operation_data.html" xlink:title="operation_data" target="_top">
<polygon fill="#ffffff" stroke="transparent" points="8,-131.7 8,-214.7 133,-214.7 133,-131.7 8,-131.7"/>
<polygon fill="#f5f5f5" stroke="transparent" points="8.5,-191.2 8.5,-214.2 133.5,-214.2 133.5,-191.2 8.5,-191.2"/>
<polygon fill="none" stroke="#000000" points="8.5,-191.2 8.5,-214.2 133.5,-214.2 133.5,-191.2 8.5,-191.2"/>
<text text-anchor="start" x="13.5" y="-199.8" font-family="Helvetica,sans-Serif" font-weight="bold" font-size="11.00" fill="#000000">operation_data</text>
<text text-anchor="start" x="99.0219" y="-199.3" font-family="Helvetica,sans-Serif" font-size="11.00" fill="#000000">[table]</text>
<polygon fill="none" stroke="#000000" points="8.5,-169.2 8.5,-191.2 133.5,-191.2 133.5,-169.2 8.5,-169.2"/>
<image xlink:href="../../images/primaryKeys.png" width="11px" height="12px" preserveAspectRatio="xMinYMin meet" x="13.5" y="-186.2"/>
<text text-anchor="start" x="37.5" y="-176.3" font-family="Helvetica,sans-Serif" font-size="11.00" fill="#000000">data_hash</text>
<polygon fill="none" stroke="#000000" points="8.5,-150.2 8.5,-169.2 133.5,-169.2 133.5,-150.2 8.5,-150.2"/>
<text text-anchor="start" x="11.5" y="-156.3" font-family="Helvetica,sans-Serif" font-size="11.00" fill="#000000">...</text>
<polygon fill="#ffffff" stroke="transparent" points="8.5,-131.2 8.5,-150.2 60.5,-150.2 60.5,-131.2 8.5,-131.2"/>
<polygon fill="none" stroke="#000000" points="8.5,-131.2 8.5,-150.2 60.5,-150.2 60.5,-131.2 8.5,-131.2"/>
<text text-anchor="start" x="11.5" y="-137.3" font-family="Helvetica,sans-Serif" font-size="11.00" fill="#000000"> &#160;</text>
<polygon fill="#ffffff" stroke="transparent" points="60.5,-131.2 60.5,-150.2 92.5,-150.2 92.5,-131.2 60.5,-131.2"/>
<polygon fill="none" stroke="#000000" points="60.5,-131.2 60.5,-150.2 92.5,-150.2 92.5,-131.2 60.5,-131.2"/>
<text text-anchor="start" x="83.3862" y="-137.3" font-family="Helvetica,sans-Serif" font-size="11.00" fill="#000000"> &#160;</text>
<polygon fill="#ffffff" stroke="transparent" points="92.5,-131.2 92.5,-150.2 133.5,-150.2 133.5,-131.2 92.5,-131.2"/>
<polygon fill="none" stroke="#000000" points="92.5,-131.2 92.5,-150.2 133.5,-150.2 133.5,-131.2 92.5,-131.2"/>
<text text-anchor="start" x="114.9053" y="-137.3" font-family="Helvetica,sans-Serif" font-size="11.00" fill="#000000">5 &gt;</text>
</a>
</g>
</g>
<!-- ts_rest_operation_data&#45;&gt;operation_data -->
<g id="edge1" class="edge">
<title>ts_rest_operation_data:w&#45;&gt;operation_data:e</title>
<path fill="none" stroke="#000000" d="M173.3362,-180.2C158.9956,-180.2 151.9115,-180.2 133.5,-180.2"/>
<polygon fill="#000000" stroke="#000000" points="183.2,-176.2 183.2,-184.2 181.6,-184.2 181.6,-176.2 183.2,-176.2"/>
<polyline fill="none" stroke="#000000" points="184,-180.2 180,-180.2 "/>
<ellipse fill="none" stroke="#000000" cx="176.8" cy="-180.2001" rx="3.2" ry="3.2"/>
</g>
</g>
</svg>
