<?xml version="1.0" encoding="UTF-8" standalone="no"?>
<!DOCTYPE svg PUBLIC "-//W3C//DTD SVG 1.1//EN"
 "http://www.w3.org/Graphics/SVG/1.1/DTD/svg11.dtd">
<!-- Generated by graphviz version 2.40.1 (20161225.0304)
 -->
<!-- Title: twoDegreesRelationshipsDiagram Pages: 1 -->
<svg width="499pt" height="562pt"
 viewBox="0.00 0.00 499.00 561.70" xmlns="http://www.w3.org/2000/svg" xmlns:xlink="http://www.w3.org/1999/xlink">
<g id="graph0" class="graph" transform="scale(1 1) rotate(0) translate(4 557.7)">
<title>twoDegreesRelationshipsDiagram</title>
<polygon fill="#ffffff" stroke="transparent" points="-4,4 -4,-557.7 495,-557.7 495,4 -4,4"/>
<text text-anchor="middle" x="72.4936" y="-7.3" font-family="Helvetica,sans-Serif" font-size="11.00" fill="#000000">Generated by SchemaSpy</text>
<!-- external_identity -->
<g id="node1" class="node">
<title>external_identity</title>
<g id="a_node1"><a xlink:href="../../tables/external_identity.html" xlink:title="external_identity" target="_top">
<polygon fill="#ffffff" stroke="transparent" points="325.5,-419.7 325.5,-549.7 459.5,-549.7 459.5,-419.7 325.5,-419.7"/>
<polygon fill="#f5f5f5" stroke="transparent" points="325.5,-526.7 325.5,-549.7 459.5,-549.7 459.5,-526.7 325.5,-526.7"/>
<polygon fill="none" stroke="#000000" points="325.5,-526.7 325.5,-549.7 459.5,-549.7 459.5,-526.7 325.5,-526.7"/>
<text text-anchor="start" x="330.5" y="-535.3" font-family="Helvetica,sans-Serif" font-weight="bold" font-size="11.00" fill="#000000">external_identity</text>
<text text-anchor="start" x="425.0219" y="-534.8" font-family="Helvetica,sans-Serif" font-size="11.00" fill="#000000">[table]</text>
<polygon fill="none" stroke="#000000" points="325.5,-504.7 325.5,-526.7 459.5,-526.7 459.5,-504.7 325.5,-504.7"/>
<image xlink:href="../../images/primaryKeys.png" width="11px" height="12px" preserveAspectRatio="xMinYMin meet" x="330.5" y="-521.7"/>
<text text-anchor="start" x="354.5" y="-511.8" font-family="Helvetica,sans-Serif" font-size="11.00" fill="#000000">provider</text>
<polygon fill="none" stroke="#000000" points="325.5,-482.7 325.5,-504.7 459.5,-504.7 459.5,-482.7 325.5,-482.7"/>
<image xlink:href="../../images/primaryKeys.png" width="11px" height="12px" preserveAspectRatio="xMinYMin meet" x="330.5" y="-499.7"/>
<text text-anchor="start" x="354.5" y="-489.8" font-family="Helvetica,sans-Serif" font-size="11.00" fill="#000000">external_id</text>
<polygon fill="none" stroke="#000000" points="325.5,-460.7 325.5,-482.7 459.5,-482.7 459.5,-460.7 325.5,-460.7"/>
<image xlink:href="../../images/foreignKeys.png" width="11px" height="12px" preserveAspectRatio="xMinYMin meet" x="330.5" y="-477.7"/>
<text text-anchor="start" x="354.5" y="-467.8" font-family="Helvetica,sans-Serif" font-size="11.00" fill="#000000">internal_id</text>
<polygon fill="none" stroke="#000000" points="325.5,-438.7 325.5,-460.7 459.5,-460.7 459.5,-438.7 325.5,-438.7"/>
<image xlink:href="../../images/primaryKeys.png" width="11px" height="12px" preserveAspectRatio="xMinYMin meet" x="330.5" y="-455.7"/>
<text text-anchor="start" x="354.5" y="-445.8" font-family="Helvetica,sans-Serif" font-size="11.00" fill="#000000">provider_id</text>
<polygon fill="#ffffff" stroke="transparent" points="325.5,-419.7 325.5,-438.7 390.5,-438.7 390.5,-419.7 325.5,-419.7"/>
<polygon fill="none" stroke="#000000" points="325.5,-419.7 325.5,-438.7 390.5,-438.7 390.5,-419.7 325.5,-419.7"/>
<text text-anchor="start" x="328.5" y="-425.8" font-family="Helvetica,sans-Serif" font-size="11.00" fill="#000000">&lt; 1</text>
<polygon fill="#ffffff" stroke="transparent" points="390.5,-419.7 390.5,-438.7 424.5,-438.7 424.5,-419.7 390.5,-419.7"/>
<polygon fill="none" stroke="#000000" points="390.5,-419.7 390.5,-438.7 424.5,-438.7 424.5,-419.7 390.5,-419.7"/>
<text text-anchor="start" x="415.3862" y="-425.8" font-family="Helvetica,sans-Serif" font-size="11.00" fill="#000000"> &#160;</text>
<polygon fill="#ffffff" stroke="transparent" points="424.5,-419.7 424.5,-438.7 459.5,-438.7 459.5,-419.7 424.5,-419.7"/>
<polygon fill="none" stroke="#000000" points="424.5,-419.7 424.5,-438.7 459.5,-438.7 459.5,-419.7 424.5,-419.7"/>
<text text-anchor="start" x="450.3862" y="-425.8" font-family="Helvetica,sans-Serif" font-size="11.00" fill="#000000"> &#160;</text>
</a>
</g>
</g>
<!-- user_data -->
<g id="node2" class="node">
<title>user_data</title>
<g id="a_node2"><a xlink:href="../../tables/user_data.html" xlink:title="user_data" target="_top">
<polygon fill="#ffffff" stroke="transparent" points="8,-202.7 8,-380.7 253,-380.7 253,-202.7 8,-202.7"/>
<polygon fill="#f5f5f5" stroke="transparent" points="10.5,-355.7 10.5,-378.7 251.5,-378.7 251.5,-355.7 10.5,-355.7"/>
<polygon fill="none" stroke="#000000" points="10.5,-355.7 10.5,-378.7 251.5,-378.7 251.5,-355.7 10.5,-355.7"/>
<text text-anchor="start" x="15.5" y="-364.3" font-family="Helvetica,sans-Serif" font-weight="bold" font-size="11.00" fill="#000000">user_data</text>
<text text-anchor="start" x="216.5437" y="-363.8" font-family="Helvetica,sans-Serif" font-size="11.00" fill="#000000">[table]</text>
<polygon fill="none" stroke="#000000" points="10.5,-333.7 10.5,-355.7 142.5,-355.7 142.5,-333.7 10.5,-333.7"/>
<image xlink:href="../../images/primaryKeys.png" width="11px" height="12px" preserveAspectRatio="xMinYMin meet" x="15.5" y="-350.7"/>
<text text-anchor="start" x="30.5" y="-340.8" font-family="Helvetica,sans-Serif" font-size="11.00" fill="#000000">user_id</text>
<polygon fill="none" stroke="#000000" points="142.5,-333.7 142.5,-355.7 251.5,-355.7 251.5,-333.7 142.5,-333.7"/>
<text text-anchor="start" x="145.0344" y="-341.4" font-family="Helvetica,sans-Serif" font-size="11.00" fill="#000000">varchar[2147483647]</text>
<polygon fill="#ffffff" stroke="transparent" points="10.5,-311.7 10.5,-333.7 142.5,-333.7 142.5,-311.7 10.5,-311.7"/>
<polygon fill="none" stroke="#000000" points="10.5,-311.7 10.5,-333.7 142.5,-333.7 142.5,-311.7 10.5,-311.7"/>
<text text-anchor="start" x="30.5" y="-318.8" font-family="Helvetica,sans-Serif" font-size="11.00" fill="#000000">email</text>
<polygon fill="none" stroke="#000000" points="142.5,-311.7 142.5,-333.7 251.5,-333.7 251.5,-311.7 142.5,-311.7"/>
<text text-anchor="start" x="145.0344" y="-319.4" font-family="Helvetica,sans-Serif" font-size="11.00" fill="#000000">varchar[2147483647]</text>
<polygon fill="none" stroke="#000000" points="10.5,-289.7 10.5,-311.7 142.5,-311.7 142.5,-289.7 10.5,-289.7"/>
<text text-anchor="start" x="30.5" y="-296.8" font-family="Helvetica,sans-Serif" font-size="11.00" fill="#000000">name</text>
<polygon fill="none" stroke="#000000" points="142.5,-289.7 142.5,-311.7 251.5,-311.7 251.5,-289.7 142.5,-289.7"/>
<text text-anchor="start" x="145.0344" y="-297.4" font-family="Helvetica,sans-Serif" font-size="11.00" fill="#000000">varchar[2147483647]</text>
<polygon fill="none" stroke="#000000" points="10.5,-267.7 10.5,-289.7 142.5,-289.7 142.5,-267.7 10.5,-267.7"/>
<text text-anchor="start" x="30.5" y="-274.8" font-family="Helvetica,sans-Serif" font-size="11.00" fill="#000000">avatar_url</text>
<polygon fill="none" stroke="#000000" points="142.5,-267.7 142.5,-289.7 251.5,-289.7 251.5,-267.7 142.5,-267.7"/>
<text text-anchor="start" x="145.0344" y="-275.4" font-family="Helvetica,sans-Serif" font-size="11.00" fill="#000000">varchar[2147483647]</text>
<polygon fill="none" stroke="#000000" points="10.5,-245.7 10.5,-267.7 142.5,-267.7 142.5,-245.7 10.5,-245.7"/>
<text text-anchor="start" x="30.5" y="-252.8" font-family="Helvetica,sans-Serif" font-size="11.00" fill="#000000">password</text>
<polygon fill="none" stroke="#000000" points="142.5,-245.7 142.5,-267.7 251.5,-267.7 251.5,-245.7 142.5,-245.7"/>
<text text-anchor="start" x="145.5" y="-253.4" font-family="Helvetica,sans-Serif" font-size="11.00" fill="#000000">bytea[2147483647]</text>
<polygon fill="#ffffff" stroke="transparent" points="10.5,-223.7 10.5,-245.7 142.5,-245.7 142.5,-223.7 10.5,-223.7"/>
<polygon fill="none" stroke="#000000" points="10.5,-223.7 10.5,-245.7 142.5,-245.7 142.5,-223.7 10.5,-223.7"/>
<text text-anchor="start" x="30.5" y="-230.8" font-family="Helvetica,sans-Serif" font-size="11.00" fill="#000000">private_package_id</text>
<polygon fill="none" stroke="#000000" points="142.5,-223.7 142.5,-245.7 251.5,-245.7 251.5,-223.7 142.5,-223.7"/>
<text text-anchor="start" x="145.0344" y="-231.4" font-family="Helvetica,sans-Serif" font-size="11.00" fill="#000000">varchar[2147483647]</text>
<polygon fill="#ffffff" stroke="transparent" points="10.5,-204.7 10.5,-223.7 80.5,-223.7 80.5,-204.7 10.5,-204.7"/>
<polygon fill="none" stroke="#000000" points="10.5,-204.7 10.5,-223.7 80.5,-223.7 80.5,-204.7 10.5,-204.7"/>
<text text-anchor="start" x="13.5" y="-210.8" font-family="Helvetica,sans-Serif" font-size="11.00" fill="#000000">&lt; 0</text>
<polygon fill="#ffffff" stroke="transparent" points="80.5,-204.7 80.5,-223.7 142.5,-223.7 142.5,-204.7 80.5,-204.7"/>
<polygon fill="none" stroke="#000000" points="80.5,-204.7 80.5,-223.7 142.5,-223.7 142.5,-204.7 80.5,-204.7"/>
<text text-anchor="start" x="133.3862" y="-210.8" font-family="Helvetica,sans-Serif" font-size="11.00" fill="#000000"> &#160;</text>
<polygon fill="#ffffff" stroke="transparent" points="142.5,-204.7 142.5,-223.7 251.5,-223.7 251.5,-204.7 142.5,-204.7"/>
<polygon fill="none" stroke="#000000" points="142.5,-204.7 142.5,-223.7 251.5,-223.7 251.5,-204.7 142.5,-204.7"/>
<text text-anchor="start" x="232.9053" y="-210.8" font-family="Helvetica,sans-Serif" font-size="11.00" fill="#000000">4 &gt;</text>
<polygon fill="none" stroke="#000000" stroke-width="2" points="9,-203.7 9,-379.7 252,-379.7 252,-203.7 9,-203.7"/>
</a>
</g>
</g>
<!-- external_identity&#45;&gt;user_data -->
<g id="edge1" class="edge">
<title>external_identity:w&#45;&gt;user_data:e</title>
<path fill="none" stroke="#000000" d="M311.2056,-469.0474C269.0094,-450.8098 311.2132,-344.7 251.5,-344.7"/>
<polygon fill="#000000" stroke="#000000" points="317.6343,-470.2403 324.8432,-475.2396 321.5671,-470.9702 325.5,-471.7 325.5,-471.7 325.5,-471.7 321.5671,-470.9702 326.1568,-468.1604 317.6343,-470.2403 317.6343,-470.2403"/>
<ellipse fill="none" stroke="#000000" cx="314.488" cy="-469.6565" rx="3.2" ry="3.2"/>
</g>
<!-- favorite_packages -->
<g id="node3" class="node">
<title>favorite_packages</title>
<g id="a_node3"><a xlink:href="../../tables/favorite_packages.html" xlink:title="favorite_packages" target="_top">
<polygon fill="#ffffff" stroke="transparent" points="321,-157.7 321,-243.7 464,-243.7 464,-157.7 321,-157.7"/>
<polygon fill="#f5f5f5" stroke="transparent" points="321.5,-220.7 321.5,-243.7 464.5,-243.7 464.5,-220.7 321.5,-220.7"/>
<polygon fill="none" stroke="#000000" points="321.5,-220.7 321.5,-243.7 464.5,-243.7 464.5,-220.7 321.5,-220.7"/>
<text text-anchor="start" x="326.5" y="-229.3" font-family="Helvetica,sans-Serif" font-weight="bold" font-size="11.00" fill="#000000">favorite_packages</text>
<text text-anchor="start" x="430.0219" y="-228.8" font-family="Helvetica,sans-Serif" font-size="11.00" fill="#000000">[table]</text>
<polygon fill="none" stroke="#000000" points="321.5,-198.7 321.5,-220.7 464.5,-220.7 464.5,-198.7 321.5,-198.7"/>
<image xlink:href="../../images/primaryKeys.png" width="11px" height="12px" preserveAspectRatio="xMinYMin meet" x="326.5" y="-215.7"/>
<text text-anchor="start" x="350.5" y="-205.8" font-family="Helvetica,sans-Serif" font-size="11.00" fill="#000000">user_id</text>
<polygon fill="none" stroke="#000000" points="321.5,-176.7 321.5,-198.7 464.5,-198.7 464.5,-176.7 321.5,-176.7"/>
<image xlink:href="../../images/primaryKeys.png" width="11px" height="12px" preserveAspectRatio="xMinYMin meet" x="326.5" y="-193.7"/>
<text text-anchor="start" x="350.5" y="-183.8" font-family="Helvetica,sans-Serif" font-size="11.00" fill="#000000">package_id</text>
<polygon fill="#ffffff" stroke="transparent" points="321.5,-157.7 321.5,-176.7 391.5,-176.7 391.5,-157.7 321.5,-157.7"/>
<polygon fill="none" stroke="#000000" points="321.5,-157.7 321.5,-176.7 391.5,-176.7 391.5,-157.7 321.5,-157.7"/>
<text text-anchor="start" x="324.5" y="-163.8" font-family="Helvetica,sans-Serif" font-size="11.00" fill="#000000">&lt; 2</text>
<polygon fill="#ffffff" stroke="transparent" points="391.5,-157.7 391.5,-176.7 427.5,-176.7 427.5,-157.7 391.5,-157.7"/>
<polygon fill="none" stroke="#000000" points="391.5,-157.7 391.5,-176.7 427.5,-176.7 427.5,-157.7 391.5,-157.7"/>
<text text-anchor="start" x="418.3862" y="-163.8" font-family="Helvetica,sans-Serif" font-size="11.00" fill="#000000"> &#160;</text>
<polygon fill="#ffffff" stroke="transparent" points="427.5,-157.7 427.5,-176.7 464.5,-176.7 464.5,-157.7 427.5,-157.7"/>
<polygon fill="none" stroke="#000000" points="427.5,-157.7 427.5,-176.7 464.5,-176.7 464.5,-157.7 427.5,-157.7"/>
<text text-anchor="start" x="455.3862" y="-163.8" font-family="Helvetica,sans-Serif" font-size="11.00" fill="#000000"> &#160;</text>
</a>
</g>
</g>
<!-- favorite_packages&#45;&gt;user_data -->
<g id="edge3" class="edge">
<title>favorite_packages:w&#45;&gt;user_data:e</title>
<path fill="none" stroke="#000000" d="M307.1233,-212.3967C263.9243,-231.4236 313.4101,-344.7 251.5,-344.7"/>
<polygon fill="#000000" stroke="#000000" points="313.6371,-211.1749 322.1637,-213.2383 317.5686,-210.4375 321.5,-209.7 321.5,-209.7 321.5,-209.7 317.5686,-210.4375 320.8363,-206.1617 313.6371,-211.1749 313.6371,-211.1749"/>
<ellipse fill="none" stroke="#000000" cx="310.492" cy="-211.7649" rx="3.2" ry="3.2"/>
</g>
<!-- package_group -->
<g id="node4" class="node">
<title>package_group</title>
<g id="a_node4"><a xlink:href="../../tables/package_group.html" xlink:title="package_group" target="_top">
<polygon fill="#ffffff" stroke="transparent" points="67,-120.2 67,-181.2 194,-181.2 194,-120.2 67,-120.2"/>
<polygon fill="#f5f5f5" stroke="transparent" points="67.5,-157.7 67.5,-180.7 194.5,-180.7 194.5,-157.7 67.5,-157.7"/>
<polygon fill="none" stroke="#000000" points="67.5,-157.7 67.5,-180.7 194.5,-180.7 194.5,-157.7 67.5,-157.7"/>
<text text-anchor="start" x="72.5" y="-166.3" font-family="Helvetica,sans-Serif" font-weight="bold" font-size="11.00" fill="#000000">package_group</text>
<text text-anchor="start" x="160.0219" y="-165.8" font-family="Helvetica,sans-Serif" font-size="11.00" fill="#000000">[table]</text>
<polygon fill="none" stroke="#000000" points="67.5,-138.7 67.5,-157.7 194.5,-157.7 194.5,-138.7 67.5,-138.7"/>
<text text-anchor="start" x="70.5" y="-144.8" font-family="Helvetica,sans-Serif" font-size="11.00" fill="#000000">...</text>
<polygon fill="#ffffff" stroke="transparent" points="67.5,-119.7 67.5,-138.7 121.5,-138.7 121.5,-119.7 67.5,-119.7"/>
<polygon fill="none" stroke="#000000" points="67.5,-119.7 67.5,-138.7 121.5,-138.7 121.5,-119.7 67.5,-119.7"/>
<text text-anchor="start" x="70.5" y="-125.8" font-family="Helvetica,sans-Serif" font-size="11.00" fill="#000000">&lt; 1</text>
<polygon fill="#ffffff" stroke="transparent" points="121.5,-119.7 121.5,-138.7 150.5,-138.7 150.5,-119.7 121.5,-119.7"/>
<polygon fill="none" stroke="#000000" points="121.5,-119.7 121.5,-138.7 150.5,-138.7 150.5,-119.7 121.5,-119.7"/>
<text text-anchor="start" x="141.3862" y="-125.8" font-family="Helvetica,sans-Serif" font-size="11.00" fill="#000000"> &#160;</text>
<polygon fill="#ffffff" stroke="transparent" points="150.5,-119.7 150.5,-138.7 194.5,-138.7 194.5,-119.7 150.5,-119.7"/>
<polygon fill="none" stroke="#000000" points="150.5,-119.7 150.5,-138.7 194.5,-138.7 194.5,-119.7 150.5,-119.7"/>
<text text-anchor="start" x="169.7904" y="-125.8" font-family="Helvetica,sans-Serif" font-size="11.00" fill="#000000">15 &gt;</text>
</a>
</g>
</g>
<!-- favorite_packages&#45;&gt;package_group -->
<g id="edge2" class="edge">
<title>favorite_packages:w&#45;&gt;package_group:e</title>
<path fill="none" stroke="#000000" d="M306.9989,-186.8273C260.4122,-180.9777 248.4767,-147.7 194.5,-147.7"/>
<polygon fill="#000000" stroke="#000000" points="313.5144,-187.2194 321.2837,-191.2935 317.5072,-187.4597 321.5,-187.7 321.5,-187.7 321.5,-187.7 317.5072,-187.4597 321.7163,-184.1065 313.5144,-187.2194 313.5144,-187.2194"/>
<ellipse fill="none" stroke="#000000" cx="310.3202" cy="-187.0271" rx="3.2" ry="3.2"/>
</g>
<!-- favorite_projects -->
<g id="node5" class="node">
<title>favorite_projects</title>
<g id="a_node5"><a xlink:href="../../tables/favorite_projects.html" xlink:title="favorite_projects" target="_top">
<polygon fill="#ffffff" stroke="transparent" points="325,-38.7 325,-124.7 460,-124.7 460,-38.7 325,-38.7"/>
<polygon fill="#f5f5f5" stroke="transparent" points="325.5,-101.7 325.5,-124.7 460.5,-124.7 460.5,-101.7 325.5,-101.7"/>
<polygon fill="none" stroke="#000000" points="325.5,-101.7 325.5,-124.7 460.5,-124.7 460.5,-101.7 325.5,-101.7"/>
<text text-anchor="start" x="330.5" y="-110.3" font-family="Helvetica,sans-Serif" font-weight="bold" font-size="11.00" fill="#000000">favorite_projects</text>
<text text-anchor="start" x="426.0219" y="-109.8" font-family="Helvetica,sans-Serif" font-size="11.00" fill="#000000">[table]</text>
<polygon fill="none" stroke="#000000" points="325.5,-79.7 325.5,-101.7 460.5,-101.7 460.5,-79.7 325.5,-79.7"/>
<image xlink:href="../../images/primaryKeys.png" width="11px" height="12px" preserveAspectRatio="xMinYMin meet" x="330.5" y="-96.7"/>
<text text-anchor="start" x="354.5" y="-86.8" font-family="Helvetica,sans-Serif" font-size="11.00" fill="#000000">user_id</text>
<polygon fill="none" stroke="#000000" points="325.5,-57.7 325.5,-79.7 460.5,-79.7 460.5,-57.7 325.5,-57.7"/>
<image xlink:href="../../images/primaryKeys.png" width="11px" height="12px" preserveAspectRatio="xMinYMin meet" x="330.5" y="-74.7"/>
<text text-anchor="start" x="354.5" y="-64.8" font-family="Helvetica,sans-Serif" font-size="11.00" fill="#000000">project_id</text>
<polygon fill="#ffffff" stroke="transparent" points="325.5,-38.7 325.5,-57.7 391.5,-57.7 391.5,-38.7 325.5,-38.7"/>
<polygon fill="none" stroke="#000000" points="325.5,-38.7 325.5,-57.7 391.5,-57.7 391.5,-38.7 325.5,-38.7"/>
<text text-anchor="start" x="328.5" y="-44.8" font-family="Helvetica,sans-Serif" font-size="11.00" fill="#000000">&lt; 2</text>
<polygon fill="#ffffff" stroke="transparent" points="391.5,-38.7 391.5,-57.7 425.5,-57.7 425.5,-38.7 391.5,-38.7"/>
<polygon fill="none" stroke="#000000" points="391.5,-38.7 391.5,-57.7 425.5,-57.7 425.5,-38.7 391.5,-38.7"/>
<text text-anchor="start" x="416.3862" y="-44.8" font-family="Helvetica,sans-Serif" font-size="11.00" fill="#000000"> &#160;</text>
<polygon fill="#ffffff" stroke="transparent" points="425.5,-38.7 425.5,-57.7 460.5,-57.7 460.5,-38.7 425.5,-38.7"/>
<polygon fill="none" stroke="#000000" points="425.5,-38.7 425.5,-57.7 460.5,-57.7 460.5,-38.7 425.5,-38.7"/>
<text text-anchor="start" x="451.3862" y="-44.8" font-family="Helvetica,sans-Serif" font-size="11.00" fill="#000000"> &#160;</text>
</a>
</g>
</g>
<!-- favorite_projects&#45;&gt;user_data -->
<g id="edge5" class="edge">
<title>favorite_projects:w&#45;&gt;user_data:e</title>
<path fill="none" stroke="#000000" d="M311.5526,-94.384C298.9734,-103.1886 302.0171,-126.3144 294,-147.7 278.2792,-189.635 296.2849,-344.7 251.5,-344.7"/>
<polygon fill="#000000" stroke="#000000" points="317.7653,-92.7431 326.4194,-94.1806 321.6326,-91.7215 325.5,-90.7 325.5,-90.7 325.5,-90.7 321.6326,-91.7215 324.5806,-87.2194 317.7653,-92.7431 317.7653,-92.7431"/>
<ellipse fill="none" stroke="#000000" cx="314.6714" cy="-93.5603" rx="3.2" ry="3.2"/>
</g>
<!-- project -->
<g id="node6" class="node">
<title>project</title>
<g id="a_node6"><a xlink:href="../../tables/project.html" xlink:title="project" target="_top">
<polygon fill="#ffffff" stroke="transparent" points="91,-38.2 91,-99.2 170,-99.2 170,-38.2 91,-38.2"/>
<polygon fill="#f5f5f5" stroke="transparent" points="91.5,-75.7 91.5,-98.7 170.5,-98.7 170.5,-75.7 91.5,-75.7"/>
<polygon fill="none" stroke="#000000" points="91.5,-75.7 91.5,-98.7 170.5,-98.7 170.5,-75.7 91.5,-75.7"/>
<text text-anchor="start" x="96.5" y="-84.3" font-family="Helvetica,sans-Serif" font-weight="bold" font-size="11.00" fill="#000000">project</text>
<text text-anchor="start" x="136.0219" y="-83.8" font-family="Helvetica,sans-Serif" font-size="11.00" fill="#000000">[table]</text>
<polygon fill="none" stroke="#000000" points="91.5,-56.7 91.5,-75.7 170.5,-75.7 170.5,-56.7 91.5,-56.7"/>
<text text-anchor="start" x="94.5" y="-62.8" font-family="Helvetica,sans-Serif" font-size="11.00" fill="#000000">...</text>
<polygon fill="#ffffff" stroke="transparent" points="91.5,-37.7 91.5,-56.7 120.5,-56.7 120.5,-37.7 91.5,-37.7"/>
<polygon fill="none" stroke="#000000" points="91.5,-37.7 91.5,-56.7 120.5,-56.7 120.5,-37.7 91.5,-37.7"/>
<text text-anchor="start" x="94.5" y="-43.8" font-family="Helvetica,sans-Serif" font-size="11.00" fill="#000000"> &#160;</text>
<polygon fill="#ffffff" stroke="transparent" points="120.5,-37.7 120.5,-56.7 140.5,-56.7 140.5,-37.7 120.5,-37.7"/>
<polygon fill="none" stroke="#000000" points="120.5,-37.7 120.5,-56.7 140.5,-56.7 140.5,-37.7 120.5,-37.7"/>
<text text-anchor="start" x="131.3862" y="-43.8" font-family="Helvetica,sans-Serif" font-size="11.00" fill="#000000"> &#160;</text>
<polygon fill="#ffffff" stroke="transparent" points="140.5,-37.7 140.5,-56.7 170.5,-56.7 170.5,-37.7 140.5,-37.7"/>
<polygon fill="none" stroke="#000000" points="140.5,-37.7 140.5,-56.7 170.5,-56.7 170.5,-37.7 140.5,-37.7"/>
<text text-anchor="start" x="151.9053" y="-43.8" font-family="Helvetica,sans-Serif" font-size="11.00" fill="#000000">4 &gt;</text>
</a>
</g>
</g>
<!-- favorite_projects&#45;&gt;project -->
<g id="edge4" class="edge">
<title>favorite_projects:w&#45;&gt;project:e</title>
<path fill="none" stroke="#000000" d="M310.9708,-68.6529C253.7608,-68.2712 234.288,-65.7 170.5,-65.7"/>
<polygon fill="#000000" stroke="#000000" points="317.5,-68.674 325.4883,-72.3 321.5,-68.687 325.5,-68.7 325.5,-68.7 325.5,-68.7 321.5,-68.687 325.5117,-65.1 317.5,-68.674 317.5,-68.674"/>
<ellipse fill="none" stroke="#000000" cx="314.3001" cy="-68.6636" rx="3.2" ry="3.2"/>
</g>
<!-- personal_access_tokens -->
<g id="node7" class="node">
<title>personal_access_tokens</title>
<g id="a_node7"><a xlink:href="../../tables/personal_access_tokens.html" xlink:title="personal_access_tokens" target="_top">
<polygon fill="#ffffff" stroke="transparent" points="302,-271.2 302,-398.2 483,-398.2 483,-271.2 302,-271.2"/>
<polygon fill="#f5f5f5" stroke="transparent" points="302.5,-374.7 302.5,-397.7 483.5,-397.7 483.5,-374.7 302.5,-374.7"/>
<polygon fill="none" stroke="#000000" points="302.5,-374.7 302.5,-397.7 483.5,-397.7 483.5,-374.7 302.5,-374.7"/>
<text text-anchor="start" x="307.5" y="-383.3" font-family="Helvetica,sans-Serif" font-weight="bold" font-size="11.00" fill="#000000">personal_access_tokens</text>
<text text-anchor="start" x="449.0219" y="-382.8" font-family="Helvetica,sans-Serif" font-size="11.00" fill="#000000">[table]</text>
<polygon fill="none" stroke="#000000" points="302.5,-352.7 302.5,-374.7 483.5,-374.7 483.5,-352.7 302.5,-352.7"/>
<image xlink:href="../../images/primaryKeys.png" width="11px" height="12px" preserveAspectRatio="xMinYMin meet" x="307.5" y="-369.7"/>
<text text-anchor="start" x="331.5" y="-359.8" font-family="Helvetica,sans-Serif" font-size="11.00" fill="#000000">id</text>
<polygon fill="none" stroke="#000000" points="302.5,-330.7 302.5,-352.7 483.5,-352.7 483.5,-330.7 302.5,-330.7"/>
<image xlink:href="../../images/foreignKeys.png" width="11px" height="12px" preserveAspectRatio="xMinYMin meet" x="307.5" y="-347.7"/>
<text text-anchor="start" x="331.5" y="-337.8" font-family="Helvetica,sans-Serif" font-size="11.00" fill="#000000">user_id</text>
<polygon fill="#ffffff" stroke="transparent" points="302.5,-308.7 302.5,-330.7 483.5,-330.7 483.5,-308.7 302.5,-308.7"/>
<polygon fill="none" stroke="#000000" points="302.5,-308.7 302.5,-330.7 483.5,-330.7 483.5,-308.7 302.5,-308.7"/>
<text text-anchor="start" x="331.5" y="-315.8" font-family="Helvetica,sans-Serif" font-size="11.00" fill="#000000">token_hash</text>
<polygon fill="none" stroke="#000000" points="302.5,-289.7 302.5,-308.7 483.5,-308.7 483.5,-289.7 302.5,-289.7"/>
<text text-anchor="start" x="305.5" y="-295.8" font-family="Helvetica,sans-Serif" font-size="11.00" fill="#000000">...</text>
<polygon fill="#ffffff" stroke="transparent" points="302.5,-270.7 302.5,-289.7 391.5,-289.7 391.5,-270.7 302.5,-270.7"/>
<polygon fill="none" stroke="#000000" points="302.5,-270.7 302.5,-289.7 391.5,-289.7 391.5,-270.7 302.5,-270.7"/>
<text text-anchor="start" x="305.5" y="-276.8" font-family="Helvetica,sans-Serif" font-size="11.00" fill="#000000">&lt; 1</text>
<polygon fill="#ffffff" stroke="transparent" points="391.5,-270.7 391.5,-289.7 437.5,-289.7 437.5,-270.7 391.5,-270.7"/>
<polygon fill="none" stroke="#000000" points="391.5,-270.7 391.5,-289.7 437.5,-289.7 437.5,-270.7 391.5,-270.7"/>
<text text-anchor="start" x="428.3862" y="-276.8" font-family="Helvetica,sans-Serif" font-size="11.00" fill="#000000"> &#160;</text>
<polygon fill="#ffffff" stroke="transparent" points="437.5,-270.7 437.5,-289.7 483.5,-289.7 483.5,-270.7 437.5,-270.7"/>
<polygon fill="none" stroke="#000000" points="437.5,-270.7 437.5,-289.7 483.5,-289.7 483.5,-270.7 437.5,-270.7"/>
<text text-anchor="start" x="474.3862" y="-276.8" font-family="Helvetica,sans-Serif" font-size="11.00" fill="#000000"> &#160;</text>
</a>
</g>
</g>
<!-- personal_access_tokens&#45;&gt;user_data -->
<g id="edge6" class="edge">
<title>personal_access_tokens:w&#45;&gt;user_data:e</title>
<path fill="none" stroke="#000000" d="M287.7651,-342.1954C275.7749,-343.0475 268.352,-344.7 251.5,-344.7"/>
<polygon fill="#000000" stroke="#000000" points="294.5045,-341.9689 302.621,-345.298 298.5023,-341.8344 302.5,-341.7 302.5,-341.7 302.5,-341.7 298.5023,-341.8344 302.379,-338.102 294.5045,-341.9689 294.5045,-341.9689"/>
<ellipse fill="none" stroke="#000000" cx="291.3063" cy="-342.0764" rx="3.2" ry="3.2"/>
</g>
</g>
</svg>
