<?xml version="1.0" encoding="UTF-8" standalone="no"?>
<!DOCTYPE svg PUBLIC "-//W3C//DTD SVG 1.1//EN"
 "http://www.w3.org/Graphics/SVG/1.1/DTD/svg11.dtd">
<!-- Generated by graphviz version 2.40.1 (20161225.0304)
 -->
<!-- Title: oneDegreeRelationshipsDiagram Pages: 1 -->
<svg width="499pt" height="436pt"
 viewBox="0.00 0.00 499.00 435.70" xmlns="http://www.w3.org/2000/svg" xmlns:xlink="http://www.w3.org/1999/xlink">
<g id="graph0" class="graph" transform="scale(1 1) rotate(0) translate(4 431.7)">
<title>oneDegreeRelationshipsDiagram</title>
<polygon fill="#ffffff" stroke="transparent" points="-4,4 -4,-431.7 495,-431.7 495,4 -4,4"/>
<text text-anchor="middle" x="72.4936" y="-7.3" font-family="Helvetica,sans-Serif" font-size="11.00" fill="#000000">Generated by SchemaSpy</text>
<!-- external_identity -->
<g id="node1" class="node">
<title>external_identity</title>
<g id="a_node1"><a xlink:href="../../tables/external_identity.html" xlink:title="external_identity" target="_top">
<polygon fill="#ffffff" stroke="transparent" points="325.5,-293.7 325.5,-423.7 459.5,-423.7 459.5,-293.7 325.5,-293.7"/>
<polygon fill="#f5f5f5" stroke="transparent" points="325.5,-400.7 325.5,-423.7 459.5,-423.7 459.5,-400.7 325.5,-400.7"/>
<polygon fill="none" stroke="#000000" points="325.5,-400.7 325.5,-423.7 459.5,-423.7 459.5,-400.7 325.5,-400.7"/>
<text text-anchor="start" x="330.5" y="-409.3" font-family="Helvetica,sans-Serif" font-weight="bold" font-size="11.00" fill="#000000">external_identity</text>
<text text-anchor="start" x="425.0219" y="-408.8" font-family="Helvetica,sans-Serif" font-size="11.00" fill="#000000">[table]</text>
<polygon fill="none" stroke="#000000" points="325.5,-378.7 325.5,-400.7 459.5,-400.7 459.5,-378.7 325.5,-378.7"/>
<image xlink:href="../../images/primaryKeys.png" width="11px" height="12px" preserveAspectRatio="xMinYMin meet" x="330.5" y="-395.7"/>
<text text-anchor="start" x="354.5" y="-385.8" font-family="Helvetica,sans-Serif" font-size="11.00" fill="#000000">provider</text>
<polygon fill="none" stroke="#000000" points="325.5,-356.7 325.5,-378.7 459.5,-378.7 459.5,-356.7 325.5,-356.7"/>
<image xlink:href="../../images/primaryKeys.png" width="11px" height="12px" preserveAspectRatio="xMinYMin meet" x="330.5" y="-373.7"/>
<text text-anchor="start" x="354.5" y="-363.8" font-family="Helvetica,sans-Serif" font-size="11.00" fill="#000000">external_id</text>
<polygon fill="none" stroke="#000000" points="325.5,-334.7 325.5,-356.7 459.5,-356.7 459.5,-334.7 325.5,-334.7"/>
<image xlink:href="../../images/foreignKeys.png" width="11px" height="12px" preserveAspectRatio="xMinYMin meet" x="330.5" y="-351.7"/>
<text text-anchor="start" x="354.5" y="-341.8" font-family="Helvetica,sans-Serif" font-size="11.00" fill="#000000">internal_id</text>
<polygon fill="none" stroke="#000000" points="325.5,-312.7 325.5,-334.7 459.5,-334.7 459.5,-312.7 325.5,-312.7"/>
<image xlink:href="../../images/primaryKeys.png" width="11px" height="12px" preserveAspectRatio="xMinYMin meet" x="330.5" y="-329.7"/>
<text text-anchor="start" x="354.5" y="-319.8" font-family="Helvetica,sans-Serif" font-size="11.00" fill="#000000">provider_id</text>
<polygon fill="#ffffff" stroke="transparent" points="325.5,-293.7 325.5,-312.7 390.5,-312.7 390.5,-293.7 325.5,-293.7"/>
<polygon fill="none" stroke="#000000" points="325.5,-293.7 325.5,-312.7 390.5,-312.7 390.5,-293.7 325.5,-293.7"/>
<text text-anchor="start" x="328.5" y="-299.8" font-family="Helvetica,sans-Serif" font-size="11.00" fill="#000000">&lt; 1</text>
<polygon fill="#ffffff" stroke="transparent" points="390.5,-293.7 390.5,-312.7 424.5,-312.7 424.5,-293.7 390.5,-293.7"/>
<polygon fill="none" stroke="#000000" points="390.5,-293.7 390.5,-312.7 424.5,-312.7 424.5,-293.7 390.5,-293.7"/>
<text text-anchor="start" x="415.3862" y="-299.8" font-family="Helvetica,sans-Serif" font-size="11.00" fill="#000000"> &#160;</text>
<polygon fill="#ffffff" stroke="transparent" points="424.5,-293.7 424.5,-312.7 459.5,-312.7 459.5,-293.7 424.5,-293.7"/>
<polygon fill="none" stroke="#000000" points="424.5,-293.7 424.5,-312.7 459.5,-312.7 459.5,-293.7 424.5,-293.7"/>
<text text-anchor="start" x="450.3862" y="-299.8" font-family="Helvetica,sans-Serif" font-size="11.00" fill="#000000"> &#160;</text>
</a>
</g>
</g>
<!-- user_data -->
<g id="node2" class="node">
<title>user_data</title>
<g id="a_node2"><a xlink:href="../../tables/user_data.html" xlink:title="user_data" target="_top">
<polygon fill="#ffffff" stroke="transparent" points="8,-96.7 8,-274.7 253,-274.7 253,-96.7 8,-96.7"/>
<polygon fill="#f5f5f5" stroke="transparent" points="10.5,-249.7 10.5,-272.7 251.5,-272.7 251.5,-249.7 10.5,-249.7"/>
<polygon fill="none" stroke="#000000" points="10.5,-249.7 10.5,-272.7 251.5,-272.7 251.5,-249.7 10.5,-249.7"/>
<text text-anchor="start" x="15.5" y="-258.3" font-family="Helvetica,sans-Serif" font-weight="bold" font-size="11.00" fill="#000000">user_data</text>
<text text-anchor="start" x="216.5437" y="-257.8" font-family="Helvetica,sans-Serif" font-size="11.00" fill="#000000">[table]</text>
<polygon fill="none" stroke="#000000" points="10.5,-227.7 10.5,-249.7 142.5,-249.7 142.5,-227.7 10.5,-227.7"/>
<image xlink:href="../../images/primaryKeys.png" width="11px" height="12px" preserveAspectRatio="xMinYMin meet" x="15.5" y="-244.7"/>
<text text-anchor="start" x="30.5" y="-234.8" font-family="Helvetica,sans-Serif" font-size="11.00" fill="#000000">user_id</text>
<polygon fill="none" stroke="#000000" points="142.5,-227.7 142.5,-249.7 251.5,-249.7 251.5,-227.7 142.5,-227.7"/>
<text text-anchor="start" x="145.0344" y="-235.4" font-family="Helvetica,sans-Serif" font-size="11.00" fill="#000000">varchar[2147483647]</text>
<polygon fill="#ffffff" stroke="transparent" points="10.5,-205.7 10.5,-227.7 142.5,-227.7 142.5,-205.7 10.5,-205.7"/>
<polygon fill="none" stroke="#000000" points="10.5,-205.7 10.5,-227.7 142.5,-227.7 142.5,-205.7 10.5,-205.7"/>
<text text-anchor="start" x="30.5" y="-212.8" font-family="Helvetica,sans-Serif" font-size="11.00" fill="#000000">email</text>
<polygon fill="none" stroke="#000000" points="142.5,-205.7 142.5,-227.7 251.5,-227.7 251.5,-205.7 142.5,-205.7"/>
<text text-anchor="start" x="145.0344" y="-213.4" font-family="Helvetica,sans-Serif" font-size="11.00" fill="#000000">varchar[2147483647]</text>
<polygon fill="none" stroke="#000000" points="10.5,-183.7 10.5,-205.7 142.5,-205.7 142.5,-183.7 10.5,-183.7"/>
<text text-anchor="start" x="30.5" y="-190.8" font-family="Helvetica,sans-Serif" font-size="11.00" fill="#000000">name</text>
<polygon fill="none" stroke="#000000" points="142.5,-183.7 142.5,-205.7 251.5,-205.7 251.5,-183.7 142.5,-183.7"/>
<text text-anchor="start" x="145.0344" y="-191.4" font-family="Helvetica,sans-Serif" font-size="11.00" fill="#000000">varchar[2147483647]</text>
<polygon fill="none" stroke="#000000" points="10.5,-161.7 10.5,-183.7 142.5,-183.7 142.5,-161.7 10.5,-161.7"/>
<text text-anchor="start" x="30.5" y="-168.8" font-family="Helvetica,sans-Serif" font-size="11.00" fill="#000000">avatar_url</text>
<polygon fill="none" stroke="#000000" points="142.5,-161.7 142.5,-183.7 251.5,-183.7 251.5,-161.7 142.5,-161.7"/>
<text text-anchor="start" x="145.0344" y="-169.4" font-family="Helvetica,sans-Serif" font-size="11.00" fill="#000000">varchar[2147483647]</text>
<polygon fill="none" stroke="#000000" points="10.5,-139.7 10.5,-161.7 142.5,-161.7 142.5,-139.7 10.5,-139.7"/>
<text text-anchor="start" x="30.5" y="-146.8" font-family="Helvetica,sans-Serif" font-size="11.00" fill="#000000">password</text>
<polygon fill="none" stroke="#000000" points="142.5,-139.7 142.5,-161.7 251.5,-161.7 251.5,-139.7 142.5,-139.7"/>
<text text-anchor="start" x="145.5" y="-147.4" font-family="Helvetica,sans-Serif" font-size="11.00" fill="#000000">bytea[2147483647]</text>
<polygon fill="#ffffff" stroke="transparent" points="10.5,-117.7 10.5,-139.7 142.5,-139.7 142.5,-117.7 10.5,-117.7"/>
<polygon fill="none" stroke="#000000" points="10.5,-117.7 10.5,-139.7 142.5,-139.7 142.5,-117.7 10.5,-117.7"/>
<text text-anchor="start" x="30.5" y="-124.8" font-family="Helvetica,sans-Serif" font-size="11.00" fill="#000000">private_package_id</text>
<polygon fill="none" stroke="#000000" points="142.5,-117.7 142.5,-139.7 251.5,-139.7 251.5,-117.7 142.5,-117.7"/>
<text text-anchor="start" x="145.0344" y="-125.4" font-family="Helvetica,sans-Serif" font-size="11.00" fill="#000000">varchar[2147483647]</text>
<polygon fill="#ffffff" stroke="transparent" points="10.5,-98.7 10.5,-117.7 80.5,-117.7 80.5,-98.7 10.5,-98.7"/>
<polygon fill="none" stroke="#000000" points="10.5,-98.7 10.5,-117.7 80.5,-117.7 80.5,-98.7 10.5,-98.7"/>
<text text-anchor="start" x="13.5" y="-104.8" font-family="Helvetica,sans-Serif" font-size="11.00" fill="#000000">&lt; 0</text>
<polygon fill="#ffffff" stroke="transparent" points="80.5,-98.7 80.5,-117.7 142.5,-117.7 142.5,-98.7 80.5,-98.7"/>
<polygon fill="none" stroke="#000000" points="80.5,-98.7 80.5,-117.7 142.5,-117.7 142.5,-98.7 80.5,-98.7"/>
<text text-anchor="start" x="133.3862" y="-104.8" font-family="Helvetica,sans-Serif" font-size="11.00" fill="#000000"> &#160;</text>
<polygon fill="#ffffff" stroke="transparent" points="142.5,-98.7 142.5,-117.7 251.5,-117.7 251.5,-98.7 142.5,-98.7"/>
<polygon fill="none" stroke="#000000" points="142.5,-98.7 142.5,-117.7 251.5,-117.7 251.5,-98.7 142.5,-98.7"/>
<text text-anchor="start" x="232.9053" y="-104.8" font-family="Helvetica,sans-Serif" font-size="11.00" fill="#000000">3 &gt;</text>
<polygon fill="none" stroke="#000000" stroke-width="2" points="9,-97.7 9,-273.7 252,-273.7 252,-97.7 9,-97.7"/>
</a>
</g>
</g>
<!-- external_identity&#45;&gt;user_data -->
<g id="edge1" class="edge">
<title>external_identity:w&#45;&gt;user_data:e</title>
<path fill="none" stroke="#000000" d="M311.2208,-342.838C274.864,-325.822 303.674,-238.7 251.5,-238.7"/>
<polygon fill="#000000" stroke="#000000" points="317.656,-344.1278 324.7925,-349.2298 321.578,-344.9139 325.5,-345.7 325.5,-345.7 325.5,-345.7 321.578,-344.9139 326.2075,-342.1702 317.656,-344.1278 317.656,-344.1278"/>
<ellipse fill="none" stroke="#000000" cx="314.5184" cy="-343.4989" rx="3.2" ry="3.2"/>
</g>
<!-- favorite_packages -->
<g id="node3" class="node">
<title>favorite_packages</title>
<g id="a_node3"><a xlink:href="../../tables/favorite_packages.html" xlink:title="favorite_packages" target="_top">
<polygon fill="#ffffff" stroke="transparent" points="321,-186.7 321,-272.7 464,-272.7 464,-186.7 321,-186.7"/>
<polygon fill="#f5f5f5" stroke="transparent" points="321.5,-249.7 321.5,-272.7 464.5,-272.7 464.5,-249.7 321.5,-249.7"/>
<polygon fill="none" stroke="#000000" points="321.5,-249.7 321.5,-272.7 464.5,-272.7 464.5,-249.7 321.5,-249.7"/>
<text text-anchor="start" x="326.5" y="-258.3" font-family="Helvetica,sans-Serif" font-weight="bold" font-size="11.00" fill="#000000">favorite_packages</text>
<text text-anchor="start" x="430.0219" y="-257.8" font-family="Helvetica,sans-Serif" font-size="11.00" fill="#000000">[table]</text>
<polygon fill="none" stroke="#000000" points="321.5,-227.7 321.5,-249.7 464.5,-249.7 464.5,-227.7 321.5,-227.7"/>
<image xlink:href="../../images/primaryKeys.png" width="11px" height="12px" preserveAspectRatio="xMinYMin meet" x="326.5" y="-244.7"/>
<text text-anchor="start" x="350.5" y="-234.8" font-family="Helvetica,sans-Serif" font-size="11.00" fill="#000000">user_id</text>
<polygon fill="none" stroke="#000000" points="321.5,-205.7 321.5,-227.7 464.5,-227.7 464.5,-205.7 321.5,-205.7"/>
<image xlink:href="../../images/primaryKeys.png" width="11px" height="12px" preserveAspectRatio="xMinYMin meet" x="326.5" y="-222.7"/>
<text text-anchor="start" x="350.5" y="-212.8" font-family="Helvetica,sans-Serif" font-size="11.00" fill="#000000">package_id</text>
<polygon fill="#ffffff" stroke="transparent" points="321.5,-186.7 321.5,-205.7 391.5,-205.7 391.5,-186.7 321.5,-186.7"/>
<polygon fill="none" stroke="#000000" points="321.5,-186.7 321.5,-205.7 391.5,-205.7 391.5,-186.7 321.5,-186.7"/>
<text text-anchor="start" x="324.5" y="-192.8" font-family="Helvetica,sans-Serif" font-size="11.00" fill="#000000">&lt; 2</text>
<polygon fill="#ffffff" stroke="transparent" points="391.5,-186.7 391.5,-205.7 427.5,-205.7 427.5,-186.7 391.5,-186.7"/>
<polygon fill="none" stroke="#000000" points="391.5,-186.7 391.5,-205.7 427.5,-205.7 427.5,-186.7 391.5,-186.7"/>
<text text-anchor="start" x="418.3862" y="-192.8" font-family="Helvetica,sans-Serif" font-size="11.00" fill="#000000"> &#160;</text>
<polygon fill="#ffffff" stroke="transparent" points="427.5,-186.7 427.5,-205.7 464.5,-205.7 464.5,-186.7 427.5,-186.7"/>
<polygon fill="none" stroke="#000000" points="427.5,-186.7 427.5,-205.7 464.5,-205.7 464.5,-186.7 427.5,-186.7"/>
<text text-anchor="start" x="455.3862" y="-192.8" font-family="Helvetica,sans-Serif" font-size="11.00" fill="#000000"> &#160;</text>
</a>
</g>
</g>
<!-- favorite_packages&#45;&gt;user_data -->
<g id="edge2" class="edge">
<title>favorite_packages:w&#45;&gt;user_data:e</title>
<path fill="none" stroke="#000000" d="M307.0032,-238.7C286.9335,-238.7 277.1424,-238.7 251.5,-238.7"/>
<polygon fill="#000000" stroke="#000000" points="313.5,-238.7001 321.5,-242.3 317.5,-238.7 321.5,-238.7 321.5,-238.7 321.5,-238.7 317.5,-238.7 321.5,-235.1 313.5,-238.7001 313.5,-238.7001"/>
<ellipse fill="none" stroke="#000000" cx="310.3" cy="-238.7001" rx="3.2" ry="3.2"/>
</g>
<!-- personal_access_tokens -->
<g id="node4" class="node">
<title>personal_access_tokens</title>
<g id="a_node4"><a xlink:href="../../tables/personal_access_tokens.html" xlink:title="personal_access_tokens" target="_top">
<polygon fill="#ffffff" stroke="transparent" points="302,-38.2 302,-165.2 483,-165.2 483,-38.2 302,-38.2"/>
<polygon fill="#f5f5f5" stroke="transparent" points="302.5,-141.7 302.5,-164.7 483.5,-164.7 483.5,-141.7 302.5,-141.7"/>
<polygon fill="none" stroke="#000000" points="302.5,-141.7 302.5,-164.7 483.5,-164.7 483.5,-141.7 302.5,-141.7"/>
<text text-anchor="start" x="307.5" y="-150.3" font-family="Helvetica,sans-Serif" font-weight="bold" font-size="11.00" fill="#000000">personal_access_tokens</text>
<text text-anchor="start" x="449.0219" y="-149.8" font-family="Helvetica,sans-Serif" font-size="11.00" fill="#000000">[table]</text>
<polygon fill="none" stroke="#000000" points="302.5,-119.7 302.5,-141.7 483.5,-141.7 483.5,-119.7 302.5,-119.7"/>
<image xlink:href="../../images/primaryKeys.png" width="11px" height="12px" preserveAspectRatio="xMinYMin meet" x="307.5" y="-136.7"/>
<text text-anchor="start" x="331.5" y="-126.8" font-family="Helvetica,sans-Serif" font-size="11.00" fill="#000000">id</text>
<polygon fill="none" stroke="#000000" points="302.5,-97.7 302.5,-119.7 483.5,-119.7 483.5,-97.7 302.5,-97.7"/>
<image xlink:href="../../images/foreignKeys.png" width="11px" height="12px" preserveAspectRatio="xMinYMin meet" x="307.5" y="-114.7"/>
<text text-anchor="start" x="331.5" y="-104.8" font-family="Helvetica,sans-Serif" font-size="11.00" fill="#000000">user_id</text>
<polygon fill="#ffffff" stroke="transparent" points="302.5,-75.7 302.5,-97.7 483.5,-97.7 483.5,-75.7 302.5,-75.7"/>
<polygon fill="none" stroke="#000000" points="302.5,-75.7 302.5,-97.7 483.5,-97.7 483.5,-75.7 302.5,-75.7"/>
<text text-anchor="start" x="331.5" y="-82.8" font-family="Helvetica,sans-Serif" font-size="11.00" fill="#000000">token_hash</text>
<polygon fill="none" stroke="#000000" points="302.5,-56.7 302.5,-75.7 483.5,-75.7 483.5,-56.7 302.5,-56.7"/>
<text text-anchor="start" x="305.5" y="-62.8" font-family="Helvetica,sans-Serif" font-size="11.00" fill="#000000">...</text>
<polygon fill="#ffffff" stroke="transparent" points="302.5,-37.7 302.5,-56.7 391.5,-56.7 391.5,-37.7 302.5,-37.7"/>
<polygon fill="none" stroke="#000000" points="302.5,-37.7 302.5,-56.7 391.5,-56.7 391.5,-37.7 302.5,-37.7"/>
<text text-anchor="start" x="305.5" y="-43.8" font-family="Helvetica,sans-Serif" font-size="11.00" fill="#000000">&lt; 1</text>
<polygon fill="#ffffff" stroke="transparent" points="391.5,-37.7 391.5,-56.7 437.5,-56.7 437.5,-37.7 391.5,-37.7"/>
<polygon fill="none" stroke="#000000" points="391.5,-37.7 391.5,-56.7 437.5,-56.7 437.5,-37.7 391.5,-37.7"/>
<text text-anchor="start" x="428.3862" y="-43.8" font-family="Helvetica,sans-Serif" font-size="11.00" fill="#000000"> &#160;</text>
<polygon fill="#ffffff" stroke="transparent" points="437.5,-37.7 437.5,-56.7 483.5,-56.7 483.5,-37.7 437.5,-37.7"/>
<polygon fill="none" stroke="#000000" points="437.5,-37.7 437.5,-56.7 483.5,-56.7 483.5,-37.7 437.5,-37.7"/>
<text text-anchor="start" x="474.3862" y="-43.8" font-family="Helvetica,sans-Serif" font-size="11.00" fill="#000000"> &#160;</text>
</a>
</g>
</g>
<!-- personal_access_tokens&#45;&gt;user_data -->
<g id="edge3" class="edge">
<title>personal_access_tokens:w&#45;&gt;user_data:e</title>
<path fill="none" stroke="#000000" d="M288.3862,-111.9135C252.9587,-131.9324 307.7463,-238.7 251.5,-238.7"/>
<polygon fill="#000000" stroke="#000000" points="294.6996,-110.4761 303.2992,-112.2102 298.5998,-109.588 302.5,-108.7 302.5,-108.7 302.5,-108.7 298.5998,-109.588 301.7008,-105.1898 294.6996,-110.4761 294.6996,-110.4761"/>
<ellipse fill="none" stroke="#000000" cx="291.5795" cy="-111.1865" rx="3.2" ry="3.2"/>
</g>
</g>
</svg>
