<?xml version="1.0" encoding="UTF-8" standalone="no"?>
<!DOCTYPE svg PUBLIC "-//W3C//DTD SVG 1.1//EN"
 "http://www.w3.org/Graphics/SVG/1.1/DTD/svg11.dtd">
<!-- Generated by graphviz version 2.40.1 (20161225.0304)
 -->
<!-- Title: twoDegreesRelationshipsDiagram Pages: 1 -->
<svg width="499pt" height="471pt"
 viewBox="0.00 0.00 499.00 470.70" xmlns="http://www.w3.org/2000/svg" xmlns:xlink="http://www.w3.org/1999/xlink">
<g id="graph0" class="graph" transform="scale(1 1) rotate(0) translate(4 466.7)">
<title>twoDegreesRelationshipsDiagram</title>
<polygon fill="#ffffff" stroke="transparent" points="-4,4 -4,-466.7 495,-466.7 495,4 -4,4"/>
<text text-anchor="middle" x="72.4936" y="-7.3" font-family="Helvetica,sans-Serif" font-size="11.00" fill="#000000">Generated by SchemaSpy</text>
<!-- external_identity -->
<g id="node1" class="node">
<title>external_identity</title>
<g id="a_node1"><a xlink:href="../../tables/external_identity.html" xlink:title="external_identity" target="_top">
<polygon fill="#ffffff" stroke="transparent" points="325.5,-328.7 325.5,-458.7 459.5,-458.7 459.5,-328.7 325.5,-328.7"/>
<polygon fill="#f5f5f5" stroke="transparent" points="325.5,-435.7 325.5,-458.7 459.5,-458.7 459.5,-435.7 325.5,-435.7"/>
<polygon fill="none" stroke="#000000" points="325.5,-435.7 325.5,-458.7 459.5,-458.7 459.5,-435.7 325.5,-435.7"/>
<text text-anchor="start" x="330.5" y="-444.3" font-family="Helvetica,sans-Serif" font-weight="bold" font-size="11.00" fill="#000000">external_identity</text>
<text text-anchor="start" x="425.0219" y="-443.8" font-family="Helvetica,sans-Serif" font-size="11.00" fill="#000000">[table]</text>
<polygon fill="none" stroke="#000000" points="325.5,-413.7 325.5,-435.7 459.5,-435.7 459.5,-413.7 325.5,-413.7"/>
<image xlink:href="../../images/primaryKeys.png" width="11px" height="12px" preserveAspectRatio="xMinYMin meet" x="330.5" y="-430.7"/>
<text text-anchor="start" x="354.5" y="-420.8" font-family="Helvetica,sans-Serif" font-size="11.00" fill="#000000">provider</text>
<polygon fill="none" stroke="#000000" points="325.5,-391.7 325.5,-413.7 459.5,-413.7 459.5,-391.7 325.5,-391.7"/>
<image xlink:href="../../images/primaryKeys.png" width="11px" height="12px" preserveAspectRatio="xMinYMin meet" x="330.5" y="-408.7"/>
<text text-anchor="start" x="354.5" y="-398.8" font-family="Helvetica,sans-Serif" font-size="11.00" fill="#000000">external_id</text>
<polygon fill="none" stroke="#000000" points="325.5,-369.7 325.5,-391.7 459.5,-391.7 459.5,-369.7 325.5,-369.7"/>
<image xlink:href="../../images/foreignKeys.png" width="11px" height="12px" preserveAspectRatio="xMinYMin meet" x="330.5" y="-386.7"/>
<text text-anchor="start" x="354.5" y="-376.8" font-family="Helvetica,sans-Serif" font-size="11.00" fill="#000000">internal_id</text>
<polygon fill="none" stroke="#000000" points="325.5,-347.7 325.5,-369.7 459.5,-369.7 459.5,-347.7 325.5,-347.7"/>
<image xlink:href="../../images/primaryKeys.png" width="11px" height="12px" preserveAspectRatio="xMinYMin meet" x="330.5" y="-364.7"/>
<text text-anchor="start" x="354.5" y="-354.8" font-family="Helvetica,sans-Serif" font-size="11.00" fill="#000000">provider_id</text>
<polygon fill="#ffffff" stroke="transparent" points="325.5,-328.7 325.5,-347.7 390.5,-347.7 390.5,-328.7 325.5,-328.7"/>
<polygon fill="none" stroke="#000000" points="325.5,-328.7 325.5,-347.7 390.5,-347.7 390.5,-328.7 325.5,-328.7"/>
<text text-anchor="start" x="328.5" y="-334.8" font-family="Helvetica,sans-Serif" font-size="11.00" fill="#000000">&lt; 1</text>
<polygon fill="#ffffff" stroke="transparent" points="390.5,-328.7 390.5,-347.7 424.5,-347.7 424.5,-328.7 390.5,-328.7"/>
<polygon fill="none" stroke="#000000" points="390.5,-328.7 390.5,-347.7 424.5,-347.7 424.5,-328.7 390.5,-328.7"/>
<text text-anchor="start" x="415.3862" y="-334.8" font-family="Helvetica,sans-Serif" font-size="11.00" fill="#000000"> &#160;</text>
<polygon fill="#ffffff" stroke="transparent" points="424.5,-328.7 424.5,-347.7 459.5,-347.7 459.5,-328.7 424.5,-328.7"/>
<polygon fill="none" stroke="#000000" points="424.5,-328.7 424.5,-347.7 459.5,-347.7 459.5,-328.7 424.5,-328.7"/>
<text text-anchor="start" x="450.3862" y="-334.8" font-family="Helvetica,sans-Serif" font-size="11.00" fill="#000000"> &#160;</text>
</a>
</g>
</g>
<!-- user_data -->
<g id="node2" class="node">
<title>user_data</title>
<g id="a_node2"><a xlink:href="../../tables/user_data.html" xlink:title="user_data" target="_top">
<polygon fill="#ffffff" stroke="transparent" points="8,-120.7 8,-298.7 253,-298.7 253,-120.7 8,-120.7"/>
<polygon fill="#f5f5f5" stroke="transparent" points="10.5,-273.7 10.5,-296.7 251.5,-296.7 251.5,-273.7 10.5,-273.7"/>
<polygon fill="none" stroke="#000000" points="10.5,-273.7 10.5,-296.7 251.5,-296.7 251.5,-273.7 10.5,-273.7"/>
<text text-anchor="start" x="15.5" y="-282.3" font-family="Helvetica,sans-Serif" font-weight="bold" font-size="11.00" fill="#000000">user_data</text>
<text text-anchor="start" x="216.5437" y="-281.8" font-family="Helvetica,sans-Serif" font-size="11.00" fill="#000000">[table]</text>
<polygon fill="none" stroke="#000000" points="10.5,-251.7 10.5,-273.7 142.5,-273.7 142.5,-251.7 10.5,-251.7"/>
<image xlink:href="../../images/primaryKeys.png" width="11px" height="12px" preserveAspectRatio="xMinYMin meet" x="15.5" y="-268.7"/>
<text text-anchor="start" x="30.5" y="-258.8" font-family="Helvetica,sans-Serif" font-size="11.00" fill="#000000">user_id</text>
<polygon fill="none" stroke="#000000" points="142.5,-251.7 142.5,-273.7 251.5,-273.7 251.5,-251.7 142.5,-251.7"/>
<text text-anchor="start" x="145.0344" y="-259.4" font-family="Helvetica,sans-Serif" font-size="11.00" fill="#000000">varchar[2147483647]</text>
<polygon fill="#ffffff" stroke="transparent" points="10.5,-229.7 10.5,-251.7 142.5,-251.7 142.5,-229.7 10.5,-229.7"/>
<polygon fill="none" stroke="#000000" points="10.5,-229.7 10.5,-251.7 142.5,-251.7 142.5,-229.7 10.5,-229.7"/>
<text text-anchor="start" x="30.5" y="-236.8" font-family="Helvetica,sans-Serif" font-size="11.00" fill="#000000">email</text>
<polygon fill="none" stroke="#000000" points="142.5,-229.7 142.5,-251.7 251.5,-251.7 251.5,-229.7 142.5,-229.7"/>
<text text-anchor="start" x="145.0344" y="-237.4" font-family="Helvetica,sans-Serif" font-size="11.00" fill="#000000">varchar[2147483647]</text>
<polygon fill="none" stroke="#000000" points="10.5,-207.7 10.5,-229.7 142.5,-229.7 142.5,-207.7 10.5,-207.7"/>
<text text-anchor="start" x="30.5" y="-214.8" font-family="Helvetica,sans-Serif" font-size="11.00" fill="#000000">name</text>
<polygon fill="none" stroke="#000000" points="142.5,-207.7 142.5,-229.7 251.5,-229.7 251.5,-207.7 142.5,-207.7"/>
<text text-anchor="start" x="145.0344" y="-215.4" font-family="Helvetica,sans-Serif" font-size="11.00" fill="#000000">varchar[2147483647]</text>
<polygon fill="none" stroke="#000000" points="10.5,-185.7 10.5,-207.7 142.5,-207.7 142.5,-185.7 10.5,-185.7"/>
<text text-anchor="start" x="30.5" y="-192.8" font-family="Helvetica,sans-Serif" font-size="11.00" fill="#000000">avatar_url</text>
<polygon fill="none" stroke="#000000" points="142.5,-185.7 142.5,-207.7 251.5,-207.7 251.5,-185.7 142.5,-185.7"/>
<text text-anchor="start" x="145.0344" y="-193.4" font-family="Helvetica,sans-Serif" font-size="11.00" fill="#000000">varchar[2147483647]</text>
<polygon fill="none" stroke="#000000" points="10.5,-163.7 10.5,-185.7 142.5,-185.7 142.5,-163.7 10.5,-163.7"/>
<text text-anchor="start" x="30.5" y="-170.8" font-family="Helvetica,sans-Serif" font-size="11.00" fill="#000000">password</text>
<polygon fill="none" stroke="#000000" points="142.5,-163.7 142.5,-185.7 251.5,-185.7 251.5,-163.7 142.5,-163.7"/>
<text text-anchor="start" x="145.5" y="-171.4" font-family="Helvetica,sans-Serif" font-size="11.00" fill="#000000">bytea[2147483647]</text>
<polygon fill="#ffffff" stroke="transparent" points="10.5,-141.7 10.5,-163.7 142.5,-163.7 142.5,-141.7 10.5,-141.7"/>
<polygon fill="none" stroke="#000000" points="10.5,-141.7 10.5,-163.7 142.5,-163.7 142.5,-141.7 10.5,-141.7"/>
<text text-anchor="start" x="30.5" y="-148.8" font-family="Helvetica,sans-Serif" font-size="11.00" fill="#000000">private_package_id</text>
<polygon fill="none" stroke="#000000" points="142.5,-141.7 142.5,-163.7 251.5,-163.7 251.5,-141.7 142.5,-141.7"/>
<text text-anchor="start" x="145.0344" y="-149.4" font-family="Helvetica,sans-Serif" font-size="11.00" fill="#000000">varchar[2147483647]</text>
<polygon fill="#ffffff" stroke="transparent" points="10.5,-122.7 10.5,-141.7 80.5,-141.7 80.5,-122.7 10.5,-122.7"/>
<polygon fill="none" stroke="#000000" points="10.5,-122.7 10.5,-141.7 80.5,-141.7 80.5,-122.7 10.5,-122.7"/>
<text text-anchor="start" x="13.5" y="-128.8" font-family="Helvetica,sans-Serif" font-size="11.00" fill="#000000">&lt; 0</text>
<polygon fill="#ffffff" stroke="transparent" points="80.5,-122.7 80.5,-141.7 142.5,-141.7 142.5,-122.7 80.5,-122.7"/>
<polygon fill="none" stroke="#000000" points="80.5,-122.7 80.5,-141.7 142.5,-141.7 142.5,-122.7 80.5,-122.7"/>
<text text-anchor="start" x="133.3862" y="-128.8" font-family="Helvetica,sans-Serif" font-size="11.00" fill="#000000"> &#160;</text>
<polygon fill="#ffffff" stroke="transparent" points="142.5,-122.7 142.5,-141.7 251.5,-141.7 251.5,-122.7 142.5,-122.7"/>
<polygon fill="none" stroke="#000000" points="142.5,-122.7 142.5,-141.7 251.5,-141.7 251.5,-122.7 142.5,-122.7"/>
<text text-anchor="start" x="232.9053" y="-128.8" font-family="Helvetica,sans-Serif" font-size="11.00" fill="#000000">3 &gt;</text>
<polygon fill="none" stroke="#000000" stroke-width="2" points="9,-121.7 9,-297.7 252,-297.7 252,-121.7 9,-121.7"/>
</a>
</g>
</g>
<!-- external_identity&#45;&gt;user_data -->
<g id="edge1" class="edge">
<title>external_identity:w&#45;&gt;user_data:e</title>
<path fill="none" stroke="#000000" d="M311.1035,-377.8995C271.7991,-360.0303 307.7214,-262.7 251.5,-262.7"/>
<polygon fill="#000000" stroke="#000000" points="317.6472,-379.1724 324.8126,-384.2338 321.5736,-379.9362 325.5,-380.7 325.5,-380.7 325.5,-380.7 321.5736,-379.9362 326.1874,-377.1662 317.6472,-379.1724 317.6472,-379.1724"/>
<ellipse fill="none" stroke="#000000" cx="314.5061" cy="-378.5613" rx="3.2" ry="3.2"/>
</g>
<!-- favorite_packages -->
<g id="node3" class="node">
<title>favorite_packages</title>
<g id="a_node3"><a xlink:href="../../tables/favorite_packages.html" xlink:title="favorite_packages" target="_top">
<polygon fill="#ffffff" stroke="transparent" points="321,-48.7 321,-134.7 464,-134.7 464,-48.7 321,-48.7"/>
<polygon fill="#f5f5f5" stroke="transparent" points="321.5,-111.7 321.5,-134.7 464.5,-134.7 464.5,-111.7 321.5,-111.7"/>
<polygon fill="none" stroke="#000000" points="321.5,-111.7 321.5,-134.7 464.5,-134.7 464.5,-111.7 321.5,-111.7"/>
<text text-anchor="start" x="326.5" y="-120.3" font-family="Helvetica,sans-Serif" font-weight="bold" font-size="11.00" fill="#000000">favorite_packages</text>
<text text-anchor="start" x="430.0219" y="-119.8" font-family="Helvetica,sans-Serif" font-size="11.00" fill="#000000">[table]</text>
<polygon fill="none" stroke="#000000" points="321.5,-89.7 321.5,-111.7 464.5,-111.7 464.5,-89.7 321.5,-89.7"/>
<image xlink:href="../../images/primaryKeys.png" width="11px" height="12px" preserveAspectRatio="xMinYMin meet" x="326.5" y="-106.7"/>
<text text-anchor="start" x="350.5" y="-96.8" font-family="Helvetica,sans-Serif" font-size="11.00" fill="#000000">user_id</text>
<polygon fill="none" stroke="#000000" points="321.5,-67.7 321.5,-89.7 464.5,-89.7 464.5,-67.7 321.5,-67.7"/>
<image xlink:href="../../images/primaryKeys.png" width="11px" height="12px" preserveAspectRatio="xMinYMin meet" x="326.5" y="-84.7"/>
<text text-anchor="start" x="350.5" y="-74.8" font-family="Helvetica,sans-Serif" font-size="11.00" fill="#000000">package_id</text>
<polygon fill="#ffffff" stroke="transparent" points="321.5,-48.7 321.5,-67.7 391.5,-67.7 391.5,-48.7 321.5,-48.7"/>
<polygon fill="none" stroke="#000000" points="321.5,-48.7 321.5,-67.7 391.5,-67.7 391.5,-48.7 321.5,-48.7"/>
<text text-anchor="start" x="324.5" y="-54.8" font-family="Helvetica,sans-Serif" font-size="11.00" fill="#000000">&lt; 2</text>
<polygon fill="#ffffff" stroke="transparent" points="391.5,-48.7 391.5,-67.7 427.5,-67.7 427.5,-48.7 391.5,-48.7"/>
<polygon fill="none" stroke="#000000" points="391.5,-48.7 391.5,-67.7 427.5,-67.7 427.5,-48.7 391.5,-48.7"/>
<text text-anchor="start" x="418.3862" y="-54.8" font-family="Helvetica,sans-Serif" font-size="11.00" fill="#000000"> &#160;</text>
<polygon fill="#ffffff" stroke="transparent" points="427.5,-48.7 427.5,-67.7 464.5,-67.7 464.5,-48.7 427.5,-48.7"/>
<polygon fill="none" stroke="#000000" points="427.5,-48.7 427.5,-67.7 464.5,-67.7 464.5,-48.7 427.5,-48.7"/>
<text text-anchor="start" x="455.3862" y="-54.8" font-family="Helvetica,sans-Serif" font-size="11.00" fill="#000000"> &#160;</text>
</a>
</g>
</g>
<!-- favorite_packages&#45;&gt;user_data -->
<g id="edge3" class="edge">
<title>favorite_packages:w&#45;&gt;user_data:e</title>
<path fill="none" stroke="#000000" d="M306.9608,-103.1158C254.7578,-123.268 324.266,-262.7 251.5,-262.7"/>
<polygon fill="#000000" stroke="#000000" points="313.6082,-102.0113 322.0901,-104.2513 317.5541,-101.3557 321.5,-100.7 321.5,-100.7 321.5,-100.7 317.5541,-101.3557 320.9099,-97.1487 313.6082,-102.0113 313.6082,-102.0113"/>
<ellipse fill="none" stroke="#000000" cx="310.4515" cy="-102.5358" rx="3.2" ry="3.2"/>
</g>
<!-- package_group -->
<g id="node4" class="node">
<title>package_group</title>
<g id="a_node4"><a xlink:href="../../tables/package_group.html" xlink:title="package_group" target="_top">
<polygon fill="#ffffff" stroke="transparent" points="67,-38.2 67,-99.2 194,-99.2 194,-38.2 67,-38.2"/>
<polygon fill="#f5f5f5" stroke="transparent" points="67.5,-75.7 67.5,-98.7 194.5,-98.7 194.5,-75.7 67.5,-75.7"/>
<polygon fill="none" stroke="#000000" points="67.5,-75.7 67.5,-98.7 194.5,-98.7 194.5,-75.7 67.5,-75.7"/>
<text text-anchor="start" x="72.5" y="-84.3" font-family="Helvetica,sans-Serif" font-weight="bold" font-size="11.00" fill="#000000">package_group</text>
<text text-anchor="start" x="160.0219" y="-83.8" font-family="Helvetica,sans-Serif" font-size="11.00" fill="#000000">[table]</text>
<polygon fill="none" stroke="#000000" points="67.5,-56.7 67.5,-75.7 194.5,-75.7 194.5,-56.7 67.5,-56.7"/>
<text text-anchor="start" x="70.5" y="-62.8" font-family="Helvetica,sans-Serif" font-size="11.00" fill="#000000">...</text>
<polygon fill="#ffffff" stroke="transparent" points="67.5,-37.7 67.5,-56.7 121.5,-56.7 121.5,-37.7 67.5,-37.7"/>
<polygon fill="none" stroke="#000000" points="67.5,-37.7 67.5,-56.7 121.5,-56.7 121.5,-37.7 67.5,-37.7"/>
<text text-anchor="start" x="70.5" y="-43.8" font-family="Helvetica,sans-Serif" font-size="11.00" fill="#000000">&lt; 1</text>
<polygon fill="#ffffff" stroke="transparent" points="121.5,-37.7 121.5,-56.7 150.5,-56.7 150.5,-37.7 121.5,-37.7"/>
<polygon fill="none" stroke="#000000" points="121.5,-37.7 121.5,-56.7 150.5,-56.7 150.5,-37.7 121.5,-37.7"/>
<text text-anchor="start" x="141.3862" y="-43.8" font-family="Helvetica,sans-Serif" font-size="11.00" fill="#000000"> &#160;</text>
<polygon fill="#ffffff" stroke="transparent" points="150.5,-37.7 150.5,-56.7 194.5,-56.7 194.5,-37.7 150.5,-37.7"/>
<polygon fill="none" stroke="#000000" points="150.5,-37.7 150.5,-56.7 194.5,-56.7 194.5,-37.7 150.5,-37.7"/>
<text text-anchor="start" x="169.7904" y="-43.8" font-family="Helvetica,sans-Serif" font-size="11.00" fill="#000000">14 &gt;</text>
</a>
</g>
</g>
<!-- favorite_packages&#45;&gt;package_group -->
<g id="edge2" class="edge">
<title>favorite_packages:w&#45;&gt;package_group:e</title>
<path fill="none" stroke="#000000" d="M306.9002,-78.3915C261.914,-76.4228 246.0309,-65.7 194.5,-65.7"/>
<polygon fill="#000000" stroke="#000000" points="313.5018,-78.5309 321.4239,-82.2992 317.5009,-78.6155 321.5,-78.7 321.5,-78.7 321.5,-78.7 317.5009,-78.6155 321.5761,-75.1008 313.5018,-78.5309 313.5018,-78.5309"/>
<ellipse fill="none" stroke="#000000" cx="310.3025" cy="-78.4633" rx="3.2" ry="3.2"/>
</g>
<!-- personal_access_tokens -->
<g id="node5" class="node">
<title>personal_access_tokens</title>
<g id="a_node5"><a xlink:href="../../tables/personal_access_tokens.html" xlink:title="personal_access_tokens" target="_top">
<polygon fill="#ffffff" stroke="transparent" points="302,-180.2 302,-307.2 483,-307.2 483,-180.2 302,-180.2"/>
<polygon fill="#f5f5f5" stroke="transparent" points="302.5,-283.7 302.5,-306.7 483.5,-306.7 483.5,-283.7 302.5,-283.7"/>
<polygon fill="none" stroke="#000000" points="302.5,-283.7 302.5,-306.7 483.5,-306.7 483.5,-283.7 302.5,-283.7"/>
<text text-anchor="start" x="307.5" y="-292.3" font-family="Helvetica,sans-Serif" font-weight="bold" font-size="11.00" fill="#000000">personal_access_tokens</text>
<text text-anchor="start" x="449.0219" y="-291.8" font-family="Helvetica,sans-Serif" font-size="11.00" fill="#000000">[table]</text>
<polygon fill="none" stroke="#000000" points="302.5,-261.7 302.5,-283.7 483.5,-283.7 483.5,-261.7 302.5,-261.7"/>
<image xlink:href="../../images/primaryKeys.png" width="11px" height="12px" preserveAspectRatio="xMinYMin meet" x="307.5" y="-278.7"/>
<text text-anchor="start" x="331.5" y="-268.8" font-family="Helvetica,sans-Serif" font-size="11.00" fill="#000000">id</text>
<polygon fill="none" stroke="#000000" points="302.5,-239.7 302.5,-261.7 483.5,-261.7 483.5,-239.7 302.5,-239.7"/>
<image xlink:href="../../images/foreignKeys.png" width="11px" height="12px" preserveAspectRatio="xMinYMin meet" x="307.5" y="-256.7"/>
<text text-anchor="start" x="331.5" y="-246.8" font-family="Helvetica,sans-Serif" font-size="11.00" fill="#000000">user_id</text>
<polygon fill="#ffffff" stroke="transparent" points="302.5,-217.7 302.5,-239.7 483.5,-239.7 483.5,-217.7 302.5,-217.7"/>
<polygon fill="none" stroke="#000000" points="302.5,-217.7 302.5,-239.7 483.5,-239.7 483.5,-217.7 302.5,-217.7"/>
<text text-anchor="start" x="331.5" y="-224.8" font-family="Helvetica,sans-Serif" font-size="11.00" fill="#000000">token_hash</text>
<polygon fill="none" stroke="#000000" points="302.5,-198.7 302.5,-217.7 483.5,-217.7 483.5,-198.7 302.5,-198.7"/>
<text text-anchor="start" x="305.5" y="-204.8" font-family="Helvetica,sans-Serif" font-size="11.00" fill="#000000">...</text>
<polygon fill="#ffffff" stroke="transparent" points="302.5,-179.7 302.5,-198.7 391.5,-198.7 391.5,-179.7 302.5,-179.7"/>
<polygon fill="none" stroke="#000000" points="302.5,-179.7 302.5,-198.7 391.5,-198.7 391.5,-179.7 302.5,-179.7"/>
<text text-anchor="start" x="305.5" y="-185.8" font-family="Helvetica,sans-Serif" font-size="11.00" fill="#000000">&lt; 1</text>
<polygon fill="#ffffff" stroke="transparent" points="391.5,-179.7 391.5,-198.7 437.5,-198.7 437.5,-179.7 391.5,-179.7"/>
<polygon fill="none" stroke="#000000" points="391.5,-179.7 391.5,-198.7 437.5,-198.7 437.5,-179.7 391.5,-179.7"/>
<text text-anchor="start" x="428.3862" y="-185.8" font-family="Helvetica,sans-Serif" font-size="11.00" fill="#000000"> &#160;</text>
<polygon fill="#ffffff" stroke="transparent" points="437.5,-179.7 437.5,-198.7 483.5,-198.7 483.5,-179.7 437.5,-179.7"/>
<polygon fill="none" stroke="#000000" points="437.5,-179.7 437.5,-198.7 483.5,-198.7 483.5,-179.7 437.5,-179.7"/>
<text text-anchor="start" x="474.3862" y="-185.8" font-family="Helvetica,sans-Serif" font-size="11.00" fill="#000000"> &#160;</text>
</a>
</g>
</g>
<!-- personal_access_tokens&#45;&gt;user_data -->
<g id="edge4" class="edge">
<title>personal_access_tokens:w&#45;&gt;user_data:e</title>
<path fill="none" stroke="#000000" d="M287.9822,-252.575C275.8214,-255.95 268.9642,-262.7 251.5,-262.7"/>
<polygon fill="#000000" stroke="#000000" points="294.5659,-251.7247 302.9611,-254.2703 298.5329,-251.2124 302.5,-250.7 302.5,-250.7 302.5,-250.7 298.5329,-251.2124 302.0389,-247.1297 294.5659,-251.7247 294.5659,-251.7247"/>
<ellipse fill="none" stroke="#000000" cx="291.3923" cy="-252.1346" rx="3.2" ry="3.2"/>
</g>
</g>
</svg>
