<?xml version="1.0" encoding="UTF-8" standalone="no"?>
<!DOCTYPE svg PUBLIC "-//W3C//DTD SVG 1.1//EN"
 "http://www.w3.org/Graphics/SVG/1.1/DTD/svg11.dtd">
<!-- Generated by graphviz version 2.40.1 (20161225.0304)
 -->
<!-- Title: oneDegreeRelationshipsDiagram Pages: 1 -->
<svg width="504pt" height="404pt"
 viewBox="0.00 0.00 504.00 404.20" xmlns="http://www.w3.org/2000/svg" xmlns:xlink="http://www.w3.org/1999/xlink">
<g id="graph0" class="graph" transform="scale(1 1) rotate(0) translate(4 400.2)">
<title>oneDegreeRelationshipsDiagram</title>
<polygon fill="#ffffff" stroke="transparent" points="-4,4 -4,-400.2 500,-400.2 500,4 -4,4"/>
<text text-anchor="middle" x="72.4936" y="-7.3" font-family="Helvetica,sans-Serif" font-size="11.00" fill="#000000">Generated by SchemaSpy</text>
<!-- operation_comparison -->
<g id="node1" class="node">
<title>operation_comparison</title>
<g id="a_node1"><a xlink:href="../../tables/operation_comparison.html" xlink:title="operation_comparison" target="_top">
<polygon fill="#ffffff" stroke="transparent" points="320,-175.7 320,-258.7 488,-258.7 488,-175.7 320,-175.7"/>
<polygon fill="#f5f5f5" stroke="transparent" points="320,-235.2 320,-258.2 488,-258.2 488,-235.2 320,-235.2"/>
<polygon fill="none" stroke="#000000" points="320,-235.2 320,-258.2 488,-258.2 488,-235.2 320,-235.2"/>
<text text-anchor="start" x="325" y="-243.8" font-family="Helvetica,sans-Serif" font-weight="bold" font-size="11.00" fill="#000000">operation_comparison</text>
<text text-anchor="start" x="453.5219" y="-243.3" font-family="Helvetica,sans-Serif" font-size="11.00" fill="#000000">[table]</text>
<polygon fill="#ffffff" stroke="transparent" points="320,-213.2 320,-235.2 488,-235.2 488,-213.2 320,-213.2"/>
<polygon fill="none" stroke="#000000" points="320,-213.2 320,-235.2 488,-235.2 488,-213.2 320,-213.2"/>
<image xlink:href="../../images/foreignKeys.png" width="11px" height="12px" preserveAspectRatio="xMinYMin meet" x="325" y="-230.2"/>
<text text-anchor="start" x="349" y="-220.3" font-family="Helvetica,sans-Serif" font-size="11.00" fill="#000000">comparison_id</text>
<polygon fill="none" stroke="#000000" points="320,-194.2 320,-213.2 488,-213.2 488,-194.2 320,-194.2"/>
<text text-anchor="start" x="323" y="-200.3" font-family="Helvetica,sans-Serif" font-size="11.00" fill="#000000">...</text>
<polygon fill="#ffffff" stroke="transparent" points="320,-175.2 320,-194.2 402,-194.2 402,-175.2 320,-175.2"/>
<polygon fill="none" stroke="#000000" points="320,-175.2 320,-194.2 402,-194.2 402,-175.2 320,-175.2"/>
<text text-anchor="start" x="323" y="-181.3" font-family="Helvetica,sans-Serif" font-size="11.00" fill="#000000">&lt; 1</text>
<polygon fill="#ffffff" stroke="transparent" points="402,-175.2 402,-194.2 445,-194.2 445,-175.2 402,-175.2"/>
<polygon fill="none" stroke="#000000" points="402,-175.2 402,-194.2 445,-194.2 445,-175.2 402,-175.2"/>
<text text-anchor="start" x="435.8862" y="-181.3" font-family="Helvetica,sans-Serif" font-size="11.00" fill="#000000"> &#160;</text>
<polygon fill="#ffffff" stroke="transparent" points="445,-175.2 445,-194.2 488,-194.2 488,-175.2 445,-175.2"/>
<polygon fill="none" stroke="#000000" points="445,-175.2 445,-194.2 488,-194.2 488,-175.2 445,-175.2"/>
<text text-anchor="start" x="478.8862" y="-181.3" font-family="Helvetica,sans-Serif" font-size="11.00" fill="#000000"> &#160;</text>
</a>
</g>
</g>
<!-- version_comparison -->
<g id="node2" class="node">
<title>version_comparison</title>
<g id="a_node2"><a xlink:href="../../tables/version_comparison.html" xlink:title="version_comparison" target="_top">
<polygon fill="#ffffff" stroke="transparent" points="8,-38.2 8,-392.2 271,-392.2 271,-38.2 8,-38.2"/>
<polygon fill="#f5f5f5" stroke="transparent" points="10.5,-367.2 10.5,-390.2 269.5,-390.2 269.5,-367.2 10.5,-367.2"/>
<polygon fill="none" stroke="#000000" points="10.5,-367.2 10.5,-390.2 269.5,-390.2 269.5,-367.2 10.5,-367.2"/>
<text text-anchor="start" x="15.5" y="-375.8" font-family="Helvetica,sans-Serif" font-weight="bold" font-size="11.00" fill="#000000">version_comparison</text>
<text text-anchor="start" x="234.5437" y="-375.3" font-family="Helvetica,sans-Serif" font-size="11.00" fill="#000000">[table]</text>
<polygon fill="none" stroke="#000000" points="10.5,-345.2 10.5,-367.2 153.5,-367.2 153.5,-345.2 10.5,-345.2"/>
<image xlink:href="../../images/primaryKeys.png" width="11px" height="12px" preserveAspectRatio="xMinYMin meet" x="15.5" y="-362.2"/>
<text text-anchor="start" x="30.5" y="-352.3" font-family="Helvetica,sans-Serif" font-size="11.00" fill="#000000">package_id</text>
<polygon fill="none" stroke="#000000" points="153.5,-345.2 153.5,-367.2 269.5,-367.2 269.5,-345.2 153.5,-345.2"/>
<text text-anchor="start" x="156.5" y="-352.9" font-family="Helvetica,sans-Serif" font-size="11.00" fill="#000000">varchar[2147483647]</text>
<polygon fill="none" stroke="#000000" points="10.5,-323.2 10.5,-345.2 153.5,-345.2 153.5,-323.2 10.5,-323.2"/>
<image xlink:href="../../images/primaryKeys.png" width="11px" height="12px" preserveAspectRatio="xMinYMin meet" x="15.5" y="-340.2"/>
<text text-anchor="start" x="30.5" y="-330.3" font-family="Helvetica,sans-Serif" font-size="11.00" fill="#000000">version</text>
<polygon fill="none" stroke="#000000" points="153.5,-323.2 153.5,-345.2 269.5,-345.2 269.5,-323.2 153.5,-323.2"/>
<text text-anchor="start" x="156.5" y="-330.9" font-family="Helvetica,sans-Serif" font-size="11.00" fill="#000000">varchar[2147483647]</text>
<polygon fill="none" stroke="#000000" points="10.5,-301.2 10.5,-323.2 153.5,-323.2 153.5,-301.2 10.5,-301.2"/>
<image xlink:href="../../images/primaryKeys.png" width="11px" height="12px" preserveAspectRatio="xMinYMin meet" x="15.5" y="-318.2"/>
<text text-anchor="start" x="30.5" y="-308.3" font-family="Helvetica,sans-Serif" font-size="11.00" fill="#000000">revision</text>
<polygon fill="none" stroke="#000000" points="153.5,-301.2 153.5,-323.2 269.5,-323.2 269.5,-301.2 153.5,-301.2"/>
<text text-anchor="start" x="156.5" y="-308.9" font-family="Helvetica,sans-Serif" font-size="11.00" fill="#000000">int4[10]</text>
<polygon fill="none" stroke="#000000" points="10.5,-279.2 10.5,-301.2 153.5,-301.2 153.5,-279.2 10.5,-279.2"/>
<image xlink:href="../../images/primaryKeys.png" width="11px" height="12px" preserveAspectRatio="xMinYMin meet" x="15.5" y="-296.2"/>
<text text-anchor="start" x="30.5" y="-286.3" font-family="Helvetica,sans-Serif" font-size="11.00" fill="#000000">previous_package_id</text>
<polygon fill="none" stroke="#000000" points="153.5,-279.2 153.5,-301.2 269.5,-301.2 269.5,-279.2 153.5,-279.2"/>
<text text-anchor="start" x="156.5" y="-286.9" font-family="Helvetica,sans-Serif" font-size="11.00" fill="#000000">varchar[2147483647]</text>
<polygon fill="none" stroke="#000000" points="10.5,-257.2 10.5,-279.2 153.5,-279.2 153.5,-257.2 10.5,-257.2"/>
<image xlink:href="../../images/primaryKeys.png" width="11px" height="12px" preserveAspectRatio="xMinYMin meet" x="15.5" y="-274.2"/>
<text text-anchor="start" x="30.5" y="-264.3" font-family="Helvetica,sans-Serif" font-size="11.00" fill="#000000">previous_version</text>
<polygon fill="none" stroke="#000000" points="153.5,-257.2 153.5,-279.2 269.5,-279.2 269.5,-257.2 153.5,-257.2"/>
<text text-anchor="start" x="156.5" y="-264.9" font-family="Helvetica,sans-Serif" font-size="11.00" fill="#000000">varchar[2147483647]</text>
<polygon fill="none" stroke="#000000" points="10.5,-235.2 10.5,-257.2 153.5,-257.2 153.5,-235.2 10.5,-235.2"/>
<image xlink:href="../../images/primaryKeys.png" width="11px" height="12px" preserveAspectRatio="xMinYMin meet" x="15.5" y="-252.2"/>
<text text-anchor="start" x="30.5" y="-242.3" font-family="Helvetica,sans-Serif" font-size="11.00" fill="#000000">previous_revision</text>
<polygon fill="none" stroke="#000000" points="153.5,-235.2 153.5,-257.2 269.5,-257.2 269.5,-235.2 153.5,-235.2"/>
<text text-anchor="start" x="156.5" y="-242.9" font-family="Helvetica,sans-Serif" font-size="11.00" fill="#000000">int4[10]</text>
<polygon fill="#ffffff" stroke="transparent" points="10.5,-213.2 10.5,-235.2 153.5,-235.2 153.5,-213.2 10.5,-213.2"/>
<polygon fill="none" stroke="#000000" points="10.5,-213.2 10.5,-235.2 153.5,-235.2 153.5,-213.2 10.5,-213.2"/>
<text text-anchor="start" x="30.5" y="-220.3" font-family="Helvetica,sans-Serif" font-size="11.00" fill="#000000">comparison_id</text>
<polygon fill="none" stroke="#000000" points="153.5,-213.2 153.5,-235.2 269.5,-235.2 269.5,-213.2 153.5,-213.2"/>
<text text-anchor="start" x="156.5" y="-220.9" font-family="Helvetica,sans-Serif" font-size="11.00" fill="#000000">varchar[2147483647]</text>
<polygon fill="none" stroke="#000000" points="10.5,-191.2 10.5,-213.2 153.5,-213.2 153.5,-191.2 10.5,-191.2"/>
<text text-anchor="start" x="30.5" y="-198.3" font-family="Helvetica,sans-Serif" font-size="11.00" fill="#000000">operation_types</text>
<polygon fill="none" stroke="#000000" points="153.5,-191.2 153.5,-213.2 269.5,-213.2 269.5,-191.2 153.5,-191.2"/>
<text text-anchor="start" x="156.5" y="-198.9" font-family="Helvetica,sans-Serif" font-size="11.00" fill="#000000">jsonb[2147483647]</text>
<polygon fill="none" stroke="#000000" points="10.5,-169.2 10.5,-191.2 153.5,-191.2 153.5,-169.2 10.5,-169.2"/>
<text text-anchor="start" x="30.5" y="-176.3" font-family="Helvetica,sans-Serif" font-size="11.00" fill="#000000">refs</text>
<polygon fill="none" stroke="#000000" points="153.5,-169.2 153.5,-191.2 269.5,-191.2 269.5,-169.2 153.5,-169.2"/>
<text text-anchor="start" x="156.4769" y="-176.9" font-family="Helvetica,sans-Serif" font-size="11.00" fill="#000000">_varchar[2147483647]</text>
<polygon fill="none" stroke="#000000" points="10.5,-147.2 10.5,-169.2 153.5,-169.2 153.5,-147.2 10.5,-147.2"/>
<text text-anchor="start" x="30.5" y="-154.3" font-family="Helvetica,sans-Serif" font-size="11.00" fill="#000000">open_count</text>
<polygon fill="none" stroke="#000000" points="153.5,-147.2 153.5,-169.2 269.5,-169.2 269.5,-147.2 153.5,-147.2"/>
<text text-anchor="start" x="156.5" y="-154.9" font-family="Helvetica,sans-Serif" font-size="11.00" fill="#000000">int8[19]</text>
<polygon fill="none" stroke="#000000" points="10.5,-125.2 10.5,-147.2 153.5,-147.2 153.5,-125.2 10.5,-125.2"/>
<text text-anchor="start" x="30.5" y="-132.3" font-family="Helvetica,sans-Serif" font-size="11.00" fill="#000000">last_active</text>
<polygon fill="none" stroke="#000000" points="153.5,-125.2 153.5,-147.2 269.5,-147.2 269.5,-125.2 153.5,-125.2"/>
<text text-anchor="start" x="156.5" y="-132.9" font-family="Helvetica,sans-Serif" font-size="11.00" fill="#000000">timestamp[29,6]</text>
<polygon fill="none" stroke="#000000" points="10.5,-103.2 10.5,-125.2 153.5,-125.2 153.5,-103.2 10.5,-103.2"/>
<text text-anchor="start" x="30.5" y="-110.3" font-family="Helvetica,sans-Serif" font-size="11.00" fill="#000000">no_content</text>
<polygon fill="none" stroke="#000000" points="153.5,-103.2 153.5,-125.2 269.5,-125.2 269.5,-103.2 153.5,-103.2"/>
<text text-anchor="start" x="156.5" y="-110.9" font-family="Helvetica,sans-Serif" font-size="11.00" fill="#000000">bool[1]</text>
<polygon fill="none" stroke="#000000" points="10.5,-81.2 10.5,-103.2 153.5,-103.2 153.5,-81.2 10.5,-81.2"/>
<text text-anchor="start" x="30.5" y="-88.3" font-family="Helvetica,sans-Serif" font-size="11.00" fill="#000000">builder_version</text>
<polygon fill="none" stroke="#000000" points="153.5,-81.2 153.5,-103.2 269.5,-103.2 269.5,-81.2 153.5,-81.2"/>
<text text-anchor="start" x="156.5" y="-88.9" font-family="Helvetica,sans-Serif" font-size="11.00" fill="#000000">varchar[2147483647]</text>
<polygon fill="none" stroke="#000000" points="10.5,-59.2 10.5,-81.2 153.5,-81.2 153.5,-59.2 10.5,-59.2"/>
<text text-anchor="start" x="30.5" y="-66.3" font-family="Helvetica,sans-Serif" font-size="11.00" fill="#000000">metadata</text>
<polygon fill="none" stroke="#000000" points="153.5,-59.2 153.5,-81.2 269.5,-81.2 269.5,-59.2 153.5,-59.2"/>
<text text-anchor="start" x="156.5" y="-66.9" font-family="Helvetica,sans-Serif" font-size="11.00" fill="#000000">jsonb[2147483647]</text>
<polygon fill="#ffffff" stroke="transparent" points="10.5,-40.2 10.5,-59.2 86.5,-59.2 86.5,-40.2 10.5,-40.2"/>
<polygon fill="none" stroke="#000000" points="10.5,-40.2 10.5,-59.2 86.5,-59.2 86.5,-40.2 10.5,-40.2"/>
<text text-anchor="start" x="13.5" y="-46.3" font-family="Helvetica,sans-Serif" font-size="11.00" fill="#000000">&lt; 0</text>
<polygon fill="#ffffff" stroke="transparent" points="86.5,-40.2 86.5,-59.2 153.5,-59.2 153.5,-40.2 86.5,-40.2"/>
<polygon fill="none" stroke="#000000" points="86.5,-40.2 86.5,-59.2 153.5,-59.2 153.5,-40.2 86.5,-40.2"/>
<text text-anchor="start" x="144.3862" y="-46.3" font-family="Helvetica,sans-Serif" font-size="11.00" fill="#000000"> &#160;</text>
<polygon fill="#ffffff" stroke="transparent" points="153.5,-40.2 153.5,-59.2 269.5,-59.2 269.5,-40.2 153.5,-40.2"/>
<polygon fill="none" stroke="#000000" points="153.5,-40.2 153.5,-59.2 269.5,-59.2 269.5,-40.2 153.5,-40.2"/>
<text text-anchor="start" x="250.9053" y="-46.3" font-family="Helvetica,sans-Serif" font-size="11.00" fill="#000000">1 &gt;</text>
<polygon fill="none" stroke="#000000" stroke-width="2" points="9,-39.2 9,-391.2 270,-391.2 270,-39.2 9,-39.2"/>
</a>
</g>
</g>
<!-- operation_comparison&#45;&gt;version_comparison -->
<g id="edge1" class="edge">
<title>operation_comparison:w&#45;&gt;version_comparison:e</title>
<path fill="none" stroke="#000000" d="M305.4203,-224.2C293.5435,-224.2 286.158,-224.2 269.5,-224.2"/>
<polygon fill="#000000" stroke="#000000" points="312,-224.2001 320,-227.8 316,-224.2 320,-224.2 320,-224.2 320,-224.2 316,-224.2 320,-220.6 312,-224.2001 312,-224.2001"/>
<ellipse fill="none" stroke="#000000" cx="308.8" cy="-224.2001" rx="3.2" ry="3.2"/>
</g>
</g>
</svg>
